<?xml version="1.0" encoding="UTF-8" standalone="no"?>
<!-- Created with Inkscape (http://www.inkscape.org/) -->

<svg
   xmlns:dc="http://purl.org/dc/elements/1.1/"
   xmlns:cc="http://creativecommons.org/ns#"
   xmlns:rdf="http://www.w3.org/1999/02/22-rdf-syntax-ns#"
   xmlns:svg="http://www.w3.org/2000/svg"
   xmlns="http://www.w3.org/2000/svg"
   xmlns:sodipodi="http://sodipodi.sourceforge.net/DTD/sodipodi-0.dtd"
   xmlns:inkscape="http://www.inkscape.org/namespaces/inkscape"
   width="30"
   height="30"
   id="svg2"
   sodipodi:version="0.32"
   inkscape:version="0.48.4 r9939"
   sodipodi:docname="bus.svg"
   inkscape:output_extension="org.inkscape.output.svg.inkscape"
   version="1.1">
  <defs
     id="defs4" />
  <sodipodi:namedview
     id="base"
     pagecolor="#ffffff"
     bordercolor="#666666"
     borderopacity="1.0"
     inkscape:pageopacity="0.0"
     inkscape:pageshadow="2"
     inkscape:zoom="10.276087"
     inkscape:cx="15.344828"
     inkscape:cy="14.482759"
     inkscape:document-units="px"
     inkscape:current-layer="layer1"
     inkscape:window-width="656"
     inkscape:window-height="1029"
     inkscape:window-x="0"
     inkscape:window-y="19"
     showgrid="false"
     inkscape:window-maximized="0" />
  <metadata
     id="metadata7">
    <rdf:RDF>
      <cc:Work
         rdf:about="">
        <dc:format>image/svg+xml</dc:format>
        <dc:type
           rdf:resource="http://purl.org/dc/dcmitype/StillImage" />
        <dc:title></dc:title>
      </cc:Work>
    </rdf:RDF>
  </metadata>
  <g
     inkscape:label="Capa 1"
     inkscape:groupmode="layer"
     id="layer1"
     transform="translate(0,-1022.3622)">
    <path
       sodipodi:type="arc"
       style="color:#000000;fill:#1a1a1a;stroke:#d4d4d4;stroke-width:1.02777779;stroke-opacity:1;marker:none;visibility:visible;display:inline;overflow:visible;enable-background:accumulate"
       id="path16617-6-6"
       sodipodi:cx="15.16226"
       sodipodi:cy="16.56851"
       sodipodi:rx="14.008413"
       sodipodi:ry="14.008413"
       d="m 29.170673,16.56851 a 14.008413,14.008413 0 1 1 -28.0168263,0 14.008413,14.008413 0 1 1 28.0168263,0 z"
       transform="matrix(0.97297297,0,0,0.97297297,330.50795,953.63241)" />
    <path
       style="fill:#1a1a1a;stroke:#d4d4d4;stroke-width:1px;stroke-linecap:butt;stroke-linejoin:miter;stroke-opacity:1"
       d="m 345.29648,957.89011 0,11.863 0,0"
       id="path16623-6-2"
       inkscape:connector-curvature="0"
       inkscape:transform-center-y="-5.9314904" />
    <path
       style="fill:#1a1a1a;stroke:#d4d4d4;stroke-width:1px;stroke-linecap:butt;stroke-linejoin:miter;stroke-opacity:1"
       d="m 357.15947,969.75311 -1.70877,0 0,0"
       id="path16623-4-2-0"
       inkscape:connector-curvature="0"
       inkscape:transform-center-x="-0.854382" />
    <path
       style="fill:#1a1a1a;stroke:#d4d4d4;stroke-width:0.99999994px;stroke-linecap:butt;stroke-linejoin:miter;stroke-opacity:1"
       d="m 345.29648,981.61611 0,-2.0181 0,0"
       id="path16623-4-3-9-0"
       inkscape:connector-curvature="0"
       inkscape:transform-center-y="1.0091015" />
    <path
       style="fill:#1a1a1a;stroke:#d4d4d4;stroke-width:1px;stroke-linecap:butt;stroke-linejoin:miter;stroke-opacity:1"
       d="m 333.43348,969.75311 11.863,0 0,0"
       id="path16623-4-3-4-1-0"
       inkscape:connector-curvature="0"
       inkscape:transform-center-x="5.9315" />
    <path
       inkscape:connector-curvature="0"
       sodipodi:nodetypes="cccccccccccccc"
       id="path9518-0-7"
       d="m 14.999994,1025.9915 -11.2422196,9.9235 2.2484301,0 0,12.8177 6.7453475,0 0,-7.5644 4.651059,0 1.3e-5,7.5644 6.591159,0 0,-12.8177 2.248444,0 -11.242237,-9.9235 0,0 0,0 z"
       style="font-size:12px;fill:none;stroke:none" />
    <path
       sodipodi:nodetypes="ccccccccccccccccccccccccccccc"
       id="path1972-5"
       d="m 14.83626,1023.9633 c -1.27638,-0.022 -2.23322,1.3945 -1.93048,2.5893 -0.0106,2.3825 0.0254,4.5399 -0.0211,6.9222 -0.86563,0.724 -1.95196,1.1101 -2.84804,1.7935 -2.6499502,1.6543 -5.3834402,3.1905 -7.9741805,4.9298 -0.52658,1.0194 -0.12448,2.19 -0.25868,3.2744 0.11289,0.5899 0.9093903,0.7624 1.3520503,0.4239 3.29418,-1.0185 6.53329,-2.2113 9.8415802,-3.184 -0.0136,1.2588 0.0536,2.5172 0.0159,3.7764 -0.0278,0.3845 0.0353,0.8094 -0.0793,1.1678 -0.73435,0.8237 -1.95869,1.1927 -2.42191,2.2475 -0.15271,0.6859 -0.0237,1.3982 -0.0669,2.0926 0.0545,0.4878 0.57437,0.9328 1.06023,0.7042 0.96241,-0.3065 1.93965,-0.5659 2.88352,-0.9103 0.49901,-0.1817 1.0366,-0.1155 1.51212,0.093 1.06199,0.324 2.1249,0.8298 3.24892,0.8142 0.5432,-0.2545 0.45447,-0.9487 0.40024,-1.437 0.0965,-0.7182 0.11746,-1.6418 -0.57108,-2.084 -0.65138,-0.5245 -1.36097,-0.9863 -1.96573,-1.5694 -0.0402,-1.6279 -0.0903,-3.3324 0.0123,-4.9143 1.26835,0.4358 2.56344,0.7925 3.82879,1.2414 2.24148,0.7382 4.46719,1.5504 6.75364,2.1317 0.57349,-0.097 0.70865,-0.8342 0.54603,-1.3122 -0.02,-0.838 0.23484,-1.7759 -0.23779,-2.5329 -1.9355,-1.3961 -4.08122,-2.4651 -6.08613,-3.7567 -1.61971,-0.9718 -3.23783,-1.9463 -4.85386,-2.9243 -0.1822,-1.0478 0.0511,-2.1208 -0.0622,-3.1775 -0.008,-1.8175 0.13456,-3.4277 -0.16148,-5.2296 -0.32567,-0.7305 -1.12107,-1.2029 -1.91639,-1.1695 z"
       style="fill:#1a1a1a;fill-opacity:1;stroke:none"
       inkscape:connector-curvature="0" />
  </g>
</svg>
