<?xml version="1.0" encoding="UTF-8" standalone="no"?>
<!-- Created with Inkscape (http://www.inkscape.org/) -->

<svg
   xmlns:dc="http://purl.org/dc/elements/1.1/"
   xmlns:cc="http://creativecommons.org/ns#"
   xmlns:rdf="http://www.w3.org/1999/02/22-rdf-syntax-ns#"
   xmlns:svg="http://www.w3.org/2000/svg"
   xmlns="http://www.w3.org/2000/svg"
   xmlns:sodipodi="http://sodipodi.sourceforge.net/DTD/sodipodi-0.dtd"
   xmlns:inkscape="http://www.inkscape.org/namespaces/inkscape"
   width="30"
   height="30"
   id="svg2"
   sodipodi:version="0.32"
   inkscape:version="0.48.4 r9939"
   sodipodi:docname="trailer.svg"
   inkscape:output_extension="org.inkscape.output.svg.inkscape"
   version="1.1">
  <defs
     id="defs4" />
  <sodipodi:namedview
     id="base"
     pagecolor="#ffffff"
     bordercolor="#666666"
     borderopacity="1.0"
     inkscape:pageopacity="0.0"
     inkscape:pageshadow="2"
     inkscape:zoom="10.276087"
     inkscape:cx="15.344828"
     inkscape:cy="14.482759"
     inkscape:document-units="px"
     inkscape:current-layer="layer1"
     inkscape:window-width="656"
     inkscape:window-height="1029"
     inkscape:window-x="0"
     inkscape:window-y="19"
     showgrid="false"
     inkscape:window-maximized="0" />
  <metadata
     id="metadata7">
    <rdf:RDF>
      <cc:Work
         rdf:about="">
        <dc:format>image/svg+xml</dc:format>
        <dc:type
           rdf:resource="http://purl.org/dc/dcmitype/StillImage" />
        <dc:title></dc:title>
      </cc:Work>
    </rdf:RDF>
  </metadata>
  <g
     inkscape:label="Capa 1"
     inkscape:groupmode="layer"
     id="layer1"
     transform="translate(0,-1022.3622)">
    <path
       sodipodi:type="arc"
       style="color:#000000;fill:#1a1a1a;stroke:#d4d4d4;stroke-width:1.02777779;stroke-opacity:1;marker:none;visibility:visible;display:inline;overflow:visible;enable-background:accumulate"
       id="path16617-6-6"
       sodipodi:cx="15.16226"
       sodipodi:cy="16.56851"
       sodipodi:rx="14.008413"
       sodipodi:ry="14.008413"
       d="m 29.170673,16.56851 a 14.008413,14.008413 0 1 1 -28.0168263,0 14.008413,14.008413 0 1 1 28.0168263,0 z"
       transform="matrix(0.97297297,0,0,0.97297297,330.50795,953.63241)" />
    <path
       style="fill:#1a1a1a;stroke:#d4d4d4;stroke-width:1px;stroke-linecap:butt;stroke-linejoin:miter;stroke-opacity:1"
       d="m 345.29648,957.89011 0,11.863 0,0"
       id="path16623-6-2"
       inkscape:connector-curvature="0"
       inkscape:transform-center-y="-5.9314904" />
    <path
       style="fill:#1a1a1a;stroke:#d4d4d4;stroke-width:1px;stroke-linecap:butt;stroke-linejoin:miter;stroke-opacity:1"
       d="m 357.15947,969.75311 -1.70877,0 0,0"
       id="path16623-4-2-0"
       inkscape:connector-curvature="0"
       inkscape:transform-center-x="-0.854382" />
    <path
       style="fill:#1a1a1a;stroke:#d4d4d4;stroke-width:0.99999994px;stroke-linecap:butt;stroke-linejoin:miter;stroke-opacity:1"
       d="m 345.29648,981.61611 0,-2.0181 0,0"
       id="path16623-4-3-9-0"
       inkscape:connector-curvature="0"
       inkscape:transform-center-y="1.0091015" />
    <path
       style="fill:#1a1a1a;stroke:#d4d4d4;stroke-width:1px;stroke-linecap:butt;stroke-linejoin:miter;stroke-opacity:1"
       d="m 333.43348,969.75311 11.863,0 0,0"
       id="path16623-4-3-4-1-0"
       inkscape:connector-curvature="0"
       inkscape:transform-center-x="5.9315" />
    <path
       inkscape:connector-curvature="0"
       sodipodi:nodetypes="cccccccccccccc"
       id="path9518-0-7"
       d="m 14.999994,1025.9915 -11.2422196,9.9235 2.2484301,0 0,12.8177 6.7453475,0 0,-7.5644 4.651059,0 1.3e-5,7.5644 6.591159,0 0,-12.8177 2.248444,0 -11.242237,-9.9235 0,0 0,0 z"
       style="font-size:12px;fill:none;stroke:none" />
    <path
       style="font-size:medium;font-style:normal;font-variant:normal;font-weight:normal;font-stretch:normal;text-indent:0;text-align:start;text-decoration:none;line-height:normal;letter-spacing:normal;word-spacing:normal;text-transform:none;direction:ltr;block-progression:tb;writing-mode:lr-tb;text-anchor:start;baseline-shift:baseline;color:#000000;fill:#1a1a1a;fill-opacity:1;stroke:none;stroke-width:1.89655173;marker:none;visibility:visible;display:inline;overflow:visible;enable-background:accumulate;font-family:Sans;-inkscape-font-specification:Sans"
       d="m 8.4169425,1026.8363 c -0.80689,0 -1.6166004,0.2398 -2.3125204,0.709 -0.31154,-0.2106 -0.7495,-0.1776 -1.02533,0.099 -0.27737,0.2774 -0.3018,0.7025 -0.0873,1.0144 -1.09336,1.61 -0.92515,3.82 0.50174,5.2469 l 2.9233804,-2.9235 2.9233795,-2.9342 c -0.80783,-0.8079 -1.8643995,-1.2108 -2.9233795,-1.2108 z m 13.1661395,0 c -1.05891,0 -2.11548,0.4029 -2.92338,1.2108 l 2.92338,2.9342 2.92338,2.9234 c 1.42689,-1.4269 1.5951,-3.6368 0.50177,-5.2468 0.2145,-0.312 0.1901,-0.737 -0.0873,-1.0144 -0.27583,-0.2758 -0.71383,-0.3088 -1.02536,-0.098 -0.69592,-0.4693 -1.50557,-0.709 -2.31253,-0.709 z m -6.6976,2.0398 c -4.75001,0 -8.6065299,3.8456 -8.6065299,8.5955 0,2.5124 1.0739504,4.7752 2.7924804,6.3487 l -1.03625,1.8107 c -0.42279,0.7322 -0.18794,1.6507 0.52359,2.0616 0.71152,0.4108 1.6279795,0.154 2.0507295,-0.5781 l 0.97084,-1.6908 c 1.01698,0.4234 2.1352,0.6545 3.30514,0.6545 1.12185,0 2.1914,-0.2199 3.17425,-0.6109 l 0.94903,1.6472 c 0.42274,0.7321 1.3392,0.9889 2.05073,0.5781 0.71152,-0.4109 0.93537,-1.3294 0.5127,-2.0616 l -0.99266,-1.7127 c 1.78153,-1.5766 2.90156,-3.8819 2.90156,-6.4467 0,-4.7499 -3.84559,-8.5955 -8.59561,-8.5955 z m 0,0.6872 c 4.37272,0 7.90842,3.5357 7.90842,7.9083 0,4.3728 -3.5357,7.9194 -7.90842,7.9194 -4.37267,0 -7.9192999,-3.5466 -7.9192999,-7.9194 0,-4.3726 3.5466299,-7.9083 7.9192999,-7.9083 z m -0.20723,2.0725 0,5.6832 -3.31608,3.1852 0.47996,0.5018 3.42512,-3.2835 0.10912,-0.099 0,-0.1527 0,-5.8358 -0.69812,0 z"
       id="path18844-1"
       inkscape:connector-curvature="0" />
  </g>
</svg>
