<?xml version="1.0" encoding="UTF-8" standalone="no"?>
<!-- Created with Inkscape (http://www.inkscape.org/) -->

<svg
   xmlns:dc="http://purl.org/dc/elements/1.1/"
   xmlns:cc="http://creativecommons.org/ns#"
   xmlns:rdf="http://www.w3.org/1999/02/22-rdf-syntax-ns#"
   xmlns:svg="http://www.w3.org/2000/svg"
   xmlns="http://www.w3.org/2000/svg"
   xmlns:sodipodi="http://sodipodi.sourceforge.net/DTD/sodipodi-0.dtd"
   xmlns:inkscape="http://www.inkscape.org/namespaces/inkscape"
   width="30"
   height="30"
   id="svg2"
   sodipodi:version="0.32"
   inkscape:version="0.48.4 r9939"
   sodipodi:docname="blog.svg"
   inkscape:output_extension="org.inkscape.output.svg.inkscape"
   version="1.1">
  <defs
     id="defs4">
    <clipPath
       clipPathUnits="userSpaceOnUse"
       id="clipPath17670-8">
      <path
         inkscape:connector-curvature="0"
         d="m 0,288.75 201.25,0 L 201.25,0 0,0 0,288.75 z"
         id="path17672-4" />
    </clipPath>
    <clipPath
       clipPathUnits="userSpaceOnUse"
       id="clipPath18098-9">
      <path
         inkscape:connector-curvature="0"
         d="m 0,288.75 201.25,0 L 201.25,0 0,0 0,288.75 z"
         id="path18100-2" />
    </clipPath>
    <clipPath
       clipPathUnits="userSpaceOnUse"
       id="clipPath17356-3">
      <path
         inkscape:connector-curvature="0"
         d="m 0,288.75 201.25,0 L 201.25,0 0,0 0,288.75 z"
         id="path17358-6" />
    </clipPath>
    <clipPath
       clipPathUnits="userSpaceOnUse"
       id="clipPath18256-8">
      <path
         inkscape:connector-curvature="0"
         d="m 0,288.75 201.25,0 L 201.25,0 0,0 0,288.75 z"
         id="path18258-5" />
    </clipPath>
    <clipPath
       clipPathUnits="userSpaceOnUse"
       id="clipPath17038-7">
      <path
         inkscape:connector-curvature="0"
         d="m 0,288.75 201.25,0 L 201.25,0 0,0 0,288.75 z"
         id="path17040-4" />
    </clipPath>
    <clipPath
       clipPathUnits="userSpaceOnUse"
       id="clipPath18818-4">
      <path
         inkscape:connector-curvature="0"
         d="m 0,288.75 201.25,0 L 201.25,0 0,0 0,288.75 z"
         id="path18820-5" />
    </clipPath>
    <clipPath
       clipPathUnits="userSpaceOnUse"
       id="clipPath18850-8">
      <path
         inkscape:connector-curvature="0"
         d="m 0,288.75 201.25,0 L 201.25,0 0,0 0,288.75 z"
         id="path18852-1" />
    </clipPath>
    <clipPath
       clipPathUnits="userSpaceOnUse"
       id="clipPath18840-2">
      <path
         inkscape:connector-curvature="0"
         d="m 0,288.75 201.25,0 L 201.25,0 0,0 0,288.75 z"
         id="path18842-2" />
    </clipPath>
    <clipPath
       clipPathUnits="userSpaceOnUse"
       id="clipPath18828-1">
      <path
         inkscape:connector-curvature="0"
         d="m 0,288.75 201.25,0 L 201.25,0 0,0 0,288.75 z"
         id="path18830-8" />
    </clipPath>
    <clipPath
       clipPathUnits="userSpaceOnUse"
       id="clipPath17450-4">
      <path
         inkscape:connector-curvature="0"
         d="m 0,288.75 201.25,0 L 201.25,0 0,0 0,288.75 z"
         id="path17452-2" />
    </clipPath>
    <clipPath
       clipPathUnits="userSpaceOnUse"
       id="clipPath18356-2">
      <path
         inkscape:connector-curvature="0"
         d="m 0,288.75 201.25,0 L 201.25,0 0,0 0,288.75 z"
         id="path18358-6" />
    </clipPath>
    <clipPath
       clipPathUnits="userSpaceOnUse"
       id="clipPath18344-1">
      <path
         inkscape:connector-curvature="0"
         d="m 0,288.75 201.25,0 L 201.25,0 0,0 0,288.75 z"
         id="path18346-5" />
    </clipPath>
    <clipPath
       clipPathUnits="userSpaceOnUse"
       id="clipPath17196-7">
      <path
         inkscape:connector-curvature="0"
         d="m 0,288.75 201.25,0 L 201.25,0 0,0 0,288.75 z"
         id="path17198-7" />
    </clipPath>
    <clipPath
       clipPathUnits="userSpaceOnUse"
       id="clipPath18206-3">
      <path
         inkscape:connector-curvature="0"
         d="m 0,288.75 201.25,0 L 201.25,0 0,0 0,288.75 z"
         id="path18208-2" />
    </clipPath>
    <clipPath
       clipPathUnits="userSpaceOnUse"
       id="clipPath18876-0">
      <path
         inkscape:connector-curvature="0"
         d="m 0,288.75 201.25,0 L 201.25,0 0,0 0,288.75 z"
         id="path18878-2" />
    </clipPath>
    <clipPath
       clipPathUnits="userSpaceOnUse"
       id="clipPath19100-4">
      <path
         inkscape:connector-curvature="0"
         d="m 0,288.75 201.25,0 L 201.25,0 0,0 0,288.75 z"
         id="path19102-3" />
    </clipPath>
    <clipPath
       clipPathUnits="userSpaceOnUse"
       id="clipPath19144-3">
      <path
         inkscape:connector-curvature="0"
         d="m 0,288.75 201.25,0 L 201.25,0 0,0 0,288.75 z"
         id="path19146-9" />
    </clipPath>
    <clipPath
       clipPathUnits="userSpaceOnUse"
       id="clipPath16862-5">
      <path
         inkscape:connector-curvature="0"
         d="m 0,288.75 201.25,0 L 201.25,0 0,0 0,288.75 z"
         id="path16864-3" />
    </clipPath>
    <clipPath
       clipPathUnits="userSpaceOnUse"
       id="clipPath18228-0">
      <path
         inkscape:connector-curvature="0"
         d="m 0,288.75 201.25,0 L 201.25,0 0,0 0,288.75 z"
         id="path18230-3" />
    </clipPath>
    <clipPath
       clipPathUnits="userSpaceOnUse"
       id="clipPath17296-6">
      <path
         inkscape:connector-curvature="0"
         d="m 0,288.75 201.25,0 L 201.25,0 0,0 0,288.75 z"
         id="path17298-6" />
    </clipPath>
    <clipPath
       clipPathUnits="userSpaceOnUse"
       id="clipPath18086-6">
      <path
         inkscape:connector-curvature="0"
         d="m 0,288.75 201.25,0 L 201.25,0 0,0 0,288.75 z"
         id="path18088-1" />
    </clipPath>
    <clipPath
       clipPathUnits="userSpaceOnUse"
       id="clipPath17686-1">
      <path
         inkscape:connector-curvature="0"
         d="m 0,288.75 201.25,0 L 201.25,0 0,0 0,288.75 z"
         id="path17688-5" />
    </clipPath>
    <clipPath
       clipPathUnits="userSpaceOnUse"
       id="clipPath17698-8">
      <path
         inkscape:connector-curvature="0"
         d="m 0,288.75 201.25,0 L 201.25,0 0,0 0,288.75 z"
         id="path17700-0" />
    </clipPath>
    <clipPath
       clipPathUnits="userSpaceOnUse"
       id="clipPath17916-1">
      <path
         inkscape:connector-curvature="0"
         d="m 0,288.75 201.25,0 L 201.25,0 0,0 0,288.75 z"
         id="path17918-3" />
    </clipPath>
    <clipPath
       clipPathUnits="userSpaceOnUse"
       id="clipPath17244-5">
      <path
         inkscape:connector-curvature="0"
         d="m 0,288.75 201.25,0 L 201.25,0 0,0 0,288.75 z"
         id="path17246-6" />
    </clipPath>
    <clipPath
       clipPathUnits="userSpaceOnUse"
       id="clipPath17956-8-7">
      <path
         inkscape:connector-curvature="0"
         d="m 0,288.75 201.25,0 L 201.25,0 0,0 0,288.75 z"
         id="path17958-2-9" />
    </clipPath>
    <clipPath
       clipPathUnits="userSpaceOnUse"
       id="clipPath17956-8">
      <path
         inkscape:connector-curvature="0"
         d="m 0,288.75 201.25,0 L 201.25,0 0,0 0,288.75 z"
         id="path17958-2" />
    </clipPath>
    <clipPath
       clipPathUnits="userSpaceOnUse"
       id="clipPath18046-2">
      <path
         inkscape:connector-curvature="0"
         d="m 0,288.75 201.25,0 L 201.25,0 0,0 0,288.75 z"
         id="path18048-4" />
    </clipPath>
    <clipPath
       clipPathUnits="userSpaceOnUse"
       id="clipPath18034-6">
      <path
         inkscape:connector-curvature="0"
         d="m 0,288.75 201.25,0 L 201.25,0 0,0 0,288.75 z"
         id="path18036-4" />
    </clipPath>
    <clipPath
       clipPathUnits="userSpaceOnUse"
       id="clipPath17462-9">
      <path
         inkscape:connector-curvature="0"
         d="m 0,288.75 201.25,0 L 201.25,0 0,0 0,288.75 z"
         id="path17464-1" />
    </clipPath>
    <clipPath
       clipPathUnits="userSpaceOnUse"
       id="clipPath17734-2">
      <path
         inkscape:connector-curvature="0"
         d="m 0,288.75 201.25,0 L 201.25,0 0,0 0,288.75 z"
         id="path17736-2" />
    </clipPath>
    <clipPath
       clipPathUnits="userSpaceOnUse"
       id="clipPath16892-4">
      <path
         inkscape:connector-curvature="0"
         d="m 0,288.75 201.25,0 L 201.25,0 0,0 0,288.75 z"
         id="path16894-5" />
    </clipPath>
  </defs>
  <sodipodi:namedview
     id="base"
     pagecolor="#ffffff"
     bordercolor="#666666"
     borderopacity="1.0"
     inkscape:pageopacity="0.0"
     inkscape:pageshadow="2"
     inkscape:zoom="10.2"
     inkscape:cx="15"
     inkscape:cy="15"
     inkscape:document-units="px"
     inkscape:current-layer="layer1"
     inkscape:window-width="656"
     inkscape:window-height="1029"
     inkscape:window-x="0"
     inkscape:window-y="19"
     showgrid="false"
     inkscape:window-maximized="0" />
  <metadata
     id="metadata7">
    <rdf:RDF>
      <cc:Work
         rdf:about="">
        <dc:format>image/svg+xml</dc:format>
        <dc:type
           rdf:resource="http://purl.org/dc/dcmitype/StillImage" />
        <dc:title></dc:title>
      </cc:Work>
    </rdf:RDF>
  </metadata>
  <g
     inkscape:label="Capa 1"
     inkscape:groupmode="layer"
     id="layer1"
     transform="translate(0,-1022.3622)">
    <path
       sodipodi:type="arc"
       style="color:#000000;fill:#1a1a1a;stroke:#d4d4d4;stroke-width:1.02777779;stroke-opacity:1;marker:none;visibility:visible;display:inline;overflow:visible;enable-background:accumulate"
       id="path16617-6-6"
       sodipodi:cx="15.16226"
       sodipodi:cy="16.56851"
       sodipodi:rx="14.008413"
       sodipodi:ry="14.008413"
       d="m 29.170673,16.56851 a 14.008413,14.008413 0 1 1 -28.0168263,0 14.008413,14.008413 0 1 1 28.0168263,0 z"
       transform="matrix(0.97297297,0,0,0.97297297,330.50795,953.63241)" />
    <path
       style="fill:#1a1a1a;stroke:#d4d4d4;stroke-width:1px;stroke-linecap:butt;stroke-linejoin:miter;stroke-opacity:1"
       d="m 345.29648,957.89011 0,11.863 0,0"
       id="path16623-6-2"
       inkscape:connector-curvature="0"
       inkscape:transform-center-y="-5.9314904" />
    <path
       style="fill:#1a1a1a;stroke:#d4d4d4;stroke-width:1px;stroke-linecap:butt;stroke-linejoin:miter;stroke-opacity:1"
       d="m 357.15947,969.75311 -1.70877,0 0,0"
       id="path16623-4-2-0"
       inkscape:connector-curvature="0"
       inkscape:transform-center-x="-0.854382" />
    <path
       style="fill:#1a1a1a;stroke:#d4d4d4;stroke-width:0.99999994px;stroke-linecap:butt;stroke-linejoin:miter;stroke-opacity:1"
       d="m 345.29648,981.61611 0,-2.0181 0,0"
       id="path16623-4-3-9-0"
       inkscape:connector-curvature="0"
       inkscape:transform-center-y="1.0091015" />
    <path
       style="fill:#1a1a1a;stroke:#d4d4d4;stroke-width:1px;stroke-linecap:butt;stroke-linejoin:miter;stroke-opacity:1"
       d="m 333.43348,969.75311 11.863,0 0,0"
       id="path16623-4-3-4-1-0"
       inkscape:connector-curvature="0"
       inkscape:transform-center-x="5.9315" />
    <path
       inkscape:connector-curvature="0"
       sodipodi:nodetypes="cccccccccccccc"
       id="path9518-0-7"
       d="m 14.999994,1025.9915 -11.2422196,9.9235 2.2484301,0 0,12.8177 6.7453475,0 0,-7.5644 4.651059,0 1.3e-5,7.5644 6.591159,0 0,-12.8177 2.248444,0 -11.242237,-9.9235 0,0 0,0 z"
       style="font-size:12px;fill:none;stroke:none" />
    <path
       style="fill:#1a1a1a;fill-opacity:1"
       inkscape:connector-curvature="0"
       d="m 26.94343,1044.0709 c 0,-6.7087 -5.96325,-5.2179 -5.96325,-10.4357 0,-0.4324 -0.0417,-0.8018 -0.11759,-1.1164 -0.39204,-2.6326 -2.14668,-4.7455 -4.42054,-5.3893 0.0202,-0.092 0.0308,-0.1871 0.0308,-0.2845 0,-0.7751 -0.67087,-1.4093 -1.49081,-1.4093 -0.81995,0 -1.49081,0.6342 -1.49081,1.4093 0,0.097 0.0106,0.1925 0.0307,0.2844 -2.54999,0.7221 -4.4471401,3.2914 -4.5016501,6.3696 -7.4e-4,0.045 -10e-4,0.09 -10e-4,0.1362 0,5.2178 -5.9632399,3.727 -5.9632399,10.4357 0,1.7756 3.9737,3.261 9.29358,3.6357 0.50137,0.9412 1.49211,1.5821 2.63291,1.5821 1.14079,0 2.13158,-0.641 2.63291,-1.5821 5.31987,-0.3747 9.29359,-1.8601 9.29359,-3.6357 0,-0.01 -5.6e-4,-0.01 -6.7e-4,-0.016 l 0.0356,0.016 z m -4.64142,1.2601 c -1.26323,0.337 -2.75236,0.5794 -4.35056,0.7139 -0.13287,-1.5238 -1.41119,-2.7195 -2.96946,-2.7195 -1.55828,0 -2.8366,1.1957 -2.96947,2.7195 -1.59815,-0.1345 -3.0873301,-0.3769 -4.35056,-0.7139 -1.73843,-0.4639 -2.56955,-0.9828 -2.87373,-1.2601 0.30418,-0.2773 1.1353,-0.7962 2.87373,-1.2602 2.0212599,-0.5393 4.62087,-0.8363 7.32003,-0.8363 2.69916,0 5.29876,0.297 7.32002,0.8363 1.73843,0.464 2.56956,0.9829 2.87373,1.2602 -0.30417,0.2773 -1.1353,0.7962 -2.87373,1.2601 z"
       id="path35375-4" />
  </g>
</svg>
