<?xml version="1.0" encoding="UTF-8" standalone="no"?>
<!-- Created with Inkscape (http://www.inkscape.org/) -->

<svg
   xmlns:dc="http://purl.org/dc/elements/1.1/"
   xmlns:cc="http://creativecommons.org/ns#"
   xmlns:rdf="http://www.w3.org/1999/02/22-rdf-syntax-ns#"
   xmlns:svg="http://www.w3.org/2000/svg"
   xmlns="http://www.w3.org/2000/svg"
   xmlns:sodipodi="http://sodipodi.sourceforge.net/DTD/sodipodi-0.dtd"
   xmlns:inkscape="http://www.inkscape.org/namespaces/inkscape"
   width="30"
   height="30"
   id="svg2"
   sodipodi:version="0.32"
   inkscape:version="0.48.4 r9939"
   sodipodi:docname="mountains.svg"
   inkscape:output_extension="org.inkscape.output.svg.inkscape"
   version="1.1">
  <defs
     id="defs4" />
  <sodipodi:namedview
     id="base"
     pagecolor="#ffffff"
     bordercolor="#666666"
     borderopacity="1.0"
     inkscape:pageopacity="0.0"
     inkscape:pageshadow="2"
     inkscape:zoom="10.276087"
     inkscape:cx="15.344828"
     inkscape:cy="14.482759"
     inkscape:document-units="px"
     inkscape:current-layer="layer1"
     inkscape:window-width="656"
     inkscape:window-height="1029"
     inkscape:window-x="0"
     inkscape:window-y="19"
     showgrid="false"
     inkscape:window-maximized="0" />
  <metadata
     id="metadata7">
    <rdf:RDF>
      <cc:Work
         rdf:about="">
        <dc:format>image/svg+xml</dc:format>
        <dc:type
           rdf:resource="http://purl.org/dc/dcmitype/StillImage" />
        <dc:title></dc:title>
      </cc:Work>
    </rdf:RDF>
  </metadata>
  <g
     inkscape:label="Capa 1"
     inkscape:groupmode="layer"
     id="layer1"
     transform="translate(0,-1022.3622)">
    <path
       sodipodi:type="arc"
       style="color:#000000;fill:#1a1a1a;stroke:#d4d4d4;stroke-width:1.02777779;stroke-opacity:1;marker:none;visibility:visible;display:inline;overflow:visible;enable-background:accumulate"
       id="path16617-6-6"
       sodipodi:cx="15.16226"
       sodipodi:cy="16.56851"
       sodipodi:rx="14.008413"
       sodipodi:ry="14.008413"
       d="m 29.170673,16.56851 a 14.008413,14.008413 0 1 1 -28.0168263,0 14.008413,14.008413 0 1 1 28.0168263,0 z"
       transform="matrix(0.97297297,0,0,0.97297297,330.50795,953.63241)" />
    <path
       style="fill:#1a1a1a;stroke:#d4d4d4;stroke-width:1px;stroke-linecap:butt;stroke-linejoin:miter;stroke-opacity:1"
       d="m 345.29648,957.89011 0,11.863 0,0"
       id="path16623-6-2"
       inkscape:connector-curvature="0"
       inkscape:transform-center-y="-5.9314904" />
    <path
       style="fill:#1a1a1a;stroke:#d4d4d4;stroke-width:1px;stroke-linecap:butt;stroke-linejoin:miter;stroke-opacity:1"
       d="m 357.15947,969.75311 -1.70877,0 0,0"
       id="path16623-4-2-0"
       inkscape:connector-curvature="0"
       inkscape:transform-center-x="-0.854382" />
    <path
       style="fill:#1a1a1a;stroke:#d4d4d4;stroke-width:0.99999994px;stroke-linecap:butt;stroke-linejoin:miter;stroke-opacity:1"
       d="m 345.29648,981.61611 0,-2.0181 0,0"
       id="path16623-4-3-9-0"
       inkscape:connector-curvature="0"
       inkscape:transform-center-y="1.0091015" />
    <path
       style="fill:#1a1a1a;stroke:#d4d4d4;stroke-width:1px;stroke-linecap:butt;stroke-linejoin:miter;stroke-opacity:1"
       d="m 333.43348,969.75311 11.863,0 0,0"
       id="path16623-4-3-4-1-0"
       inkscape:connector-curvature="0"
       inkscape:transform-center-x="5.9315" />
    <path
       inkscape:connector-curvature="0"
       sodipodi:nodetypes="cccccccccccccc"
       id="path9518-0-7"
       d="m 14.999994,1025.9915 -11.2422196,9.9235 2.2484301,0 0,12.8177 6.7453475,0 0,-7.5644 4.651059,0 1.3e-5,7.5644 6.591159,0 0,-12.8177 2.248444,0 -11.242237,-9.9235 0,0 0,0 z"
       style="font-size:12px;fill:none;stroke:none" />
    <path
       inkscape:connector-curvature="0"
       style="fill:#1a1a1a;fill-opacity:1"
       d="m 9.8599121,1047.7105 c -0.01688,-1.8905 -0.06482,-3.4716 -0.10662,-3.5133 -0.07958,-0.078 -3.492709,0.4013 -5.5298697,0.7791 -1.169979,0.217 -1.594115,0.1568 -1.594115,-0.2279 0,-0.1075 0.966387,-1.3949 2.147523,-2.8601 l 2.1475207,-2.6639 -0.717519,-0.4233 c -0.3946357,-0.2329 -0.7599907,-0.4234 -0.8118987,-0.4234 -0.05191,0 -0.579553,-0.3118 -1.172542,-0.6928 -0.592989,-0.3809 -1.523931,-0.9441 -2.068759,-1.2517 -0.768299,-0.4333 -0.976292,-0.6584 -0.926854,-1.0024 0.05186,-0.3608 0.255836,-0.4724 1.093578,-0.5984 2.158494,-0.3246 5.4581497,-1.0563 5.4581497,-1.2103 0,-0.089 -0.47196,-1.5144 -1.048801,-3.1687 -1.0282557,-2.949 -1.1225637,-3.6098 -0.515181,-3.6098 0.16646,0 1.501017,0.695 2.965682,1.5447 1.4646679,0.8495 2.7519639,1.5447 2.8606599,1.5447 0.1087,0 0.460976,-0.7566 0.782836,-1.6811 1.29011,-3.7059 1.700744,-4.5982 2.147918,-4.6668 0.236247,-0.038 0.469682,0.056 0.518746,0.206 0.09064,0.2761 1.308846,3.671 1.889889,5.2665 0.17533,0.4815 0.394886,0.8754 0.487903,0.8754 0.09302,0 1.313436,-0.6786 2.71204,-1.5082 2.916154,-1.7296 3.09735,-1.8116 3.480456,-1.5748 0.228032,0.1415 0.07343,0.7805 -0.804482,3.328 -0.59772,1.7344 -1.103893,3.2382 -1.12483,3.3418 -0.03585,0.1773 3.533612,0.9638 5.677543,1.2507 0.832519,0.1108 0.977255,0.1981 0.971021,0.5819 -0.0058,0.3573 -0.581712,0.7908 -2.780567,2.0926 -1.525282,0.9031 -2.77324,1.7205 -2.77324,1.8167 0,0.095 0.926856,1.3158 2.059679,2.7105 1.132822,1.3946 2.059678,2.6394 2.059678,2.7661 0,0.326 -0.799628,0.2888 -3.91339,-0.1816 -1.499668,-0.2265 -2.854654,-0.4119 -3.011077,-0.4119 -0.230745,0 -0.28441,0.6607 -0.28441,3.5014 0,4.4498 -0.0031,4.451 -2.88355,1.0299 -1.144551,-1.3594 -2.164745,-2.4717 -2.2671,-2.4717 -0.102358,0 -1.090175,1.1123 -2.195153,2.4717 -1.444817,1.7775 -2.1342,2.4717 -2.454658,2.4717 -0.4378059,0 -0.4461429,-0.06 -0.4762079,-3.4373 z m 3.4925289,-3.1538 c 0.726826,-0.9063 1.461542,-1.647 1.6327,-1.6462 0.171157,0 0.91365,0.7405 1.649986,1.6433 l 1.338792,1.6416 0.05145,-1.7977 c 0.07101,-2.4814 0.145012,-2.7247 0.827837,-2.7233 0.309369,0 0.886888,0.085 1.283375,0.1861 1.098286,0.2822 2.471616,0.4107 2.471616,0.2316 0,-0.089 -0.56551,-0.8683 -1.25669,-1.7342 -0.691177,-0.8659 -1.208456,-1.7 -1.149502,-1.8537 0.05895,-0.1534 0.860424,-0.724 1.78105,-1.2677 0.920626,-0.5436 1.714194,-1.0537 1.763484,-1.1333 0.04929,-0.08 -0.395216,-0.2179 -0.987788,-0.3069 -0.592577,-0.089 -1.123754,-0.1749 -1.180395,-0.1906 -0.05665,-0.017 -0.54324,-0.099 -1.08133,-0.1858 -1.206623,-0.1935 -1.232363,-0.3947 -0.359746,-2.8113 0.340229,-0.9421 0.578274,-1.7534 0.528988,-1.8027 -0.04929,-0.049 -0.89248,0.3829 -1.873767,0.9605 -0.981289,0.5776 -1.864873,1.0502 -1.963521,1.0502 -0.256591,0 -0.494257,-0.5045 -1.142725,-2.4256 -0.314466,-0.9316 -0.629779,-1.6938 -0.7007,-1.6938 -0.07092,0 -0.447093,0.8898 -0.835937,1.9773 -0.388847,1.0875 -0.815484,2.0214 -0.948087,2.0754 -0.225126,0.092 -0.970805,-0.2734 -3.105885,-1.5208 -0.4814489,-0.2812 -0.8753629,-0.4172 -0.8753629,-0.3023 0,0.1159 0.278057,0.997 0.617903,1.9599 0.3398479,0.9629 0.6179049,1.8928 0.6179049,2.0667 0,0.3318 -0.4911139,0.4661 -3.1456339,0.8608 -0.540636,0.08 -1.027123,0.2175 -1.081086,0.305 -0.05398,0.087 0.206893,0.3299 0.57968,0.5392 2.093738,1.1753 2.822915,1.6414 2.909072,1.8593 0.05287,0.1347 -0.171352,0.5972 -0.498251,1.0299 -0.326896,0.4327 -0.929597,1.2336 -1.339334,1.7797 l -0.74498,0.9927 0.990869,-0.1347 c 0.544979,-0.073 1.315272,-0.2197 1.711759,-0.3224 0.3964889,-0.1023 0.9757749,-0.1872 1.2872999,-0.1877 l 0.566412,0 0.0027,1.8022 c 0.0024,1.5291 0.131527,2.7291 0.293711,2.7291 0.02337,0 0.63719,-0.7414 1.364018,-1.6477 z"
       id="path4757-7"
       sodipodi:nodetypes="cssscccssssssssssssssssssssssssssssssssccscccssssssssssssssssssssssssssscccscccsc" />
  </g>
</svg>
