<?xml version="1.0" encoding="UTF-8" standalone="no"?>
<!-- Created with Inkscape (http://www.inkscape.org/) -->

<svg
   xmlns:dc="http://purl.org/dc/elements/1.1/"
   xmlns:cc="http://creativecommons.org/ns#"
   xmlns:rdf="http://www.w3.org/1999/02/22-rdf-syntax-ns#"
   xmlns:svg="http://www.w3.org/2000/svg"
   xmlns="http://www.w3.org/2000/svg"
   xmlns:sodipodi="http://sodipodi.sourceforge.net/DTD/sodipodi-0.dtd"
   xmlns:inkscape="http://www.inkscape.org/namespaces/inkscape"
   width="30"
   height="30"
   id="svg2"
   sodipodi:version="0.32"
   inkscape:version="0.48.4 r9939"
   sodipodi:docname="corn.svg"
   inkscape:output_extension="org.inkscape.output.svg.inkscape"
   version="1.1">
  <defs
     id="defs4" />
  <sodipodi:namedview
     id="base"
     pagecolor="#ffffff"
     bordercolor="#666666"
     borderopacity="1.0"
     inkscape:pageopacity="0.0"
     inkscape:pageshadow="2"
     inkscape:zoom="10.276087"
     inkscape:cx="15.344828"
     inkscape:cy="14.482759"
     inkscape:document-units="px"
     inkscape:current-layer="layer1"
     inkscape:window-width="656"
     inkscape:window-height="1029"
     inkscape:window-x="0"
     inkscape:window-y="19"
     showgrid="false"
     inkscape:window-maximized="0" />
  <metadata
     id="metadata7">
    <rdf:RDF>
      <cc:Work
         rdf:about="">
        <dc:format>image/svg+xml</dc:format>
        <dc:type
           rdf:resource="http://purl.org/dc/dcmitype/StillImage" />
        <dc:title></dc:title>
      </cc:Work>
    </rdf:RDF>
  </metadata>
  <g
     inkscape:label="Capa 1"
     inkscape:groupmode="layer"
     id="layer1"
     transform="translate(0,-1022.3622)">
    <path
       sodipodi:type="arc"
       style="color:#000000;fill:#1a1a1a;stroke:#d4d4d4;stroke-width:1.02777779;stroke-opacity:1;marker:none;visibility:visible;display:inline;overflow:visible;enable-background:accumulate"
       id="path16617-6-6"
       sodipodi:cx="15.16226"
       sodipodi:cy="16.56851"
       sodipodi:rx="14.008413"
       sodipodi:ry="14.008413"
       d="m 29.170673,16.56851 a 14.008413,14.008413 0 1 1 -28.0168263,0 14.008413,14.008413 0 1 1 28.0168263,0 z"
       transform="matrix(0.97297297,0,0,0.97297297,330.50795,953.63241)" />
    <path
       style="fill:#1a1a1a;stroke:#d4d4d4;stroke-width:1px;stroke-linecap:butt;stroke-linejoin:miter;stroke-opacity:1"
       d="m 345.29648,957.89011 0,11.863 0,0"
       id="path16623-6-2"
       inkscape:connector-curvature="0"
       inkscape:transform-center-y="-5.9314904" />
    <path
       style="fill:#1a1a1a;stroke:#d4d4d4;stroke-width:1px;stroke-linecap:butt;stroke-linejoin:miter;stroke-opacity:1"
       d="m 357.15947,969.75311 -1.70877,0 0,0"
       id="path16623-4-2-0"
       inkscape:connector-curvature="0"
       inkscape:transform-center-x="-0.854382" />
    <path
       style="fill:#1a1a1a;stroke:#d4d4d4;stroke-width:0.99999994px;stroke-linecap:butt;stroke-linejoin:miter;stroke-opacity:1"
       d="m 345.29648,981.61611 0,-2.0181 0,0"
       id="path16623-4-3-9-0"
       inkscape:connector-curvature="0"
       inkscape:transform-center-y="1.0091015" />
    <path
       style="fill:#1a1a1a;stroke:#d4d4d4;stroke-width:1px;stroke-linecap:butt;stroke-linejoin:miter;stroke-opacity:1"
       d="m 333.43348,969.75311 11.863,0 0,0"
       id="path16623-4-3-4-1-0"
       inkscape:connector-curvature="0"
       inkscape:transform-center-x="5.9315" />
    <path
       inkscape:connector-curvature="0"
       sodipodi:nodetypes="cccccccccccccc"
       id="path9518-0-7"
       d="m 14.999994,1025.9915 -11.2422196,9.9235 2.2484301,0 0,12.8177 6.7453475,0 0,-7.5644 4.651059,0 1.3e-5,7.5644 6.591159,0 0,-12.8177 2.248444,0 -11.242237,-9.9235 0,0 0,0 z"
       style="font-size:12px;fill:none;stroke:none" />
    <path
       style="fill:#1a1a1a;fill-opacity:1;stroke:none"
       d="m 20.62153,1025.2674 0.0246,0.2216 c 0.0702,1.1074 0.1634,2.2486 -0.0739,2.9192 l -2.1801,-0.6159 -0.19707,-0.062 -0.0493,0.2094 c -0.31805,1.3455 -0.88442,1.8852 -1.56425,2.1924 -0.67984,0.3073 -1.5043,0.3454 -2.29096,0.6159 l -0.33255,0.1108 0.27097,0.234 c 0.48012,0.4024 0.95657,0.9399 1.71206,1.0839 0.10101,0.019 0.21002,0.023 0.32024,0.024 -0.18977,0.2846 -0.37141,0.5633 -0.54195,0.7882 -2.683141,3.5388 -6.0415005,3.0458 -8.7573505,6.0231 -2.0240301,2.2188 -3.0190301,5.4901 -1.2440101,7.6118 2.7735801,3.3154 6.3359396,3.4942 9.2130706,1.7121 7.20756,-4.4644 7.83359,-13.3023 7.83359,-13.3023 l -0.037,-0.5543 c 0.43816,0.6439 0.82192,0.9165 1.18242,0.9977 0.36511,0.082 0.66452,-0.021 0.91146,-0.024 l 0.38182,0 -0.23402,-0.308 c -1.65854,-2.2072 -1.11495,-3.4162 -1.09621,-5.0007 l 0,-0.1108 -0.0985,-0.062 -1.44108,-0.8251 c 0.50153,-0.7476 0.76848,-1.9715 0.97304,-3.4119 l 0.0246,-0.1971 -0.19707,-0.024 -2.27864,-0.2341 -0.23402,-0.013 z m 0.43109,0.4311 1.82291,0.1847 c -0.21561,1.4413 -0.50125,2.6927 -0.93609,3.227 l -0.1478,0.1724 0.19707,0.1233 1.49035,0.8498 c -0.0378,1.3853 -0.39508,2.7586 1.00999,4.8159 -0.16609,0.02 -0.34587,0.058 -0.49268,0.025 -0.23967,-0.054 -0.52675,-0.2468 -0.93608,-0.8499 l -0.55427,-2.7836 -0.0616,-0.308 -0.24634,0.1971 c -0.72436,0.5506 -1.43835,1.0943 -2.254,1.6382 -0.0635,-0.4491 -0.11641,-0.8947 -0.2217,-1.2563 -0.13121,-0.4507 -0.30967,-0.8206 -0.5789,-1.0593 l -0.11085,-0.099 -0.13549,0.086 c -1.42471,1.0324 -2.27711,1.2362 -2.88216,1.1208 -0.48033,-0.092 -0.84883,-0.4033 -1.2317,-0.739 0.63159,-0.1643 1.30923,-0.2609 1.9584,-0.5543 0.72998,-0.3299 1.37155,-0.9857 1.72437,-2.2663 l 2.20473,0.6282 0.16012,0.05 0.0739,-0.1478 c 0.38019,-0.7863 0.22939,-1.9566 0.14781,-3.0546 z"
       id="path10629-4"
       inkscape:connector-curvature="0" />
  </g>
</svg>
