<?xml version="1.0" encoding="UTF-8" standalone="no"?>
<!-- Created with Inkscape (http://www.inkscape.org/) -->

<svg
   xmlns:dc="http://purl.org/dc/elements/1.1/"
   xmlns:cc="http://creativecommons.org/ns#"
   xmlns:rdf="http://www.w3.org/1999/02/22-rdf-syntax-ns#"
   xmlns:svg="http://www.w3.org/2000/svg"
   xmlns="http://www.w3.org/2000/svg"
   xmlns:sodipodi="http://sodipodi.sourceforge.net/DTD/sodipodi-0.dtd"
   xmlns:inkscape="http://www.inkscape.org/namespaces/inkscape"
   width="30"
   height="30"
   id="svg2"
   sodipodi:version="0.32"
   inkscape:version="0.48.4 r9939"
   sodipodi:docname="clover.svg"
   inkscape:output_extension="org.inkscape.output.svg.inkscape"
   version="1.1">
  <defs
     id="defs4" />
  <sodipodi:namedview
     id="base"
     pagecolor="#ffffff"
     bordercolor="#666666"
     borderopacity="1.0"
     inkscape:pageopacity="0.0"
     inkscape:pageshadow="2"
     inkscape:zoom="10.276087"
     inkscape:cx="15.344828"
     inkscape:cy="14.482759"
     inkscape:document-units="px"
     inkscape:current-layer="layer1"
     inkscape:window-width="656"
     inkscape:window-height="1029"
     inkscape:window-x="0"
     inkscape:window-y="19"
     showgrid="false"
     inkscape:window-maximized="0" />
  <metadata
     id="metadata7">
    <rdf:RDF>
      <cc:Work
         rdf:about="">
        <dc:format>image/svg+xml</dc:format>
        <dc:type
           rdf:resource="http://purl.org/dc/dcmitype/StillImage" />
        <dc:title></dc:title>
      </cc:Work>
    </rdf:RDF>
  </metadata>
  <g
     inkscape:label="Capa 1"
     inkscape:groupmode="layer"
     id="layer1"
     transform="translate(0,-1022.3622)">
    <path
       sodipodi:type="arc"
       style="color:#000000;fill:#1a1a1a;stroke:#d4d4d4;stroke-width:1.02777779;stroke-opacity:1;marker:none;visibility:visible;display:inline;overflow:visible;enable-background:accumulate"
       id="path16617-6-6"
       sodipodi:cx="15.16226"
       sodipodi:cy="16.56851"
       sodipodi:rx="14.008413"
       sodipodi:ry="14.008413"
       d="m 29.170673,16.56851 a 14.008413,14.008413 0 1 1 -28.0168263,0 14.008413,14.008413 0 1 1 28.0168263,0 z"
       transform="matrix(0.97297297,0,0,0.97297297,330.50795,953.63241)" />
    <path
       style="fill:#1a1a1a;stroke:#d4d4d4;stroke-width:1px;stroke-linecap:butt;stroke-linejoin:miter;stroke-opacity:1"
       d="m 345.29648,957.89011 0,11.863 0,0"
       id="path16623-6-2"
       inkscape:connector-curvature="0"
       inkscape:transform-center-y="-5.9314904" />
    <path
       style="fill:#1a1a1a;stroke:#d4d4d4;stroke-width:1px;stroke-linecap:butt;stroke-linejoin:miter;stroke-opacity:1"
       d="m 357.15947,969.75311 -1.70877,0 0,0"
       id="path16623-4-2-0"
       inkscape:connector-curvature="0"
       inkscape:transform-center-x="-0.854382" />
    <path
       style="fill:#1a1a1a;stroke:#d4d4d4;stroke-width:0.99999994px;stroke-linecap:butt;stroke-linejoin:miter;stroke-opacity:1"
       d="m 345.29648,981.61611 0,-2.0181 0,0"
       id="path16623-4-3-9-0"
       inkscape:connector-curvature="0"
       inkscape:transform-center-y="1.0091015" />
    <path
       style="fill:#1a1a1a;stroke:#d4d4d4;stroke-width:1px;stroke-linecap:butt;stroke-linejoin:miter;stroke-opacity:1"
       d="m 333.43348,969.75311 11.863,0 0,0"
       id="path16623-4-3-4-1-0"
       inkscape:connector-curvature="0"
       inkscape:transform-center-x="5.9315" />
    <path
       inkscape:connector-curvature="0"
       sodipodi:nodetypes="cccccccccccccc"
       id="path9518-0-7"
       d="m 14.999994,1025.9915 -11.2422196,9.9235 2.2484301,0 0,12.8177 6.7453475,0 0,-7.5644 4.651059,0 1.3e-5,7.5644 6.591159,0 0,-12.8177 2.248444,0 -11.242237,-9.9235 0,0 0,0 z"
       style="font-size:12px;fill:none;stroke:none" />
    <path
       style="fill:#1a1a1a;fill-opacity:1;fill-rule:evenodd;stroke:none;display:inline"
       d="m 24.686377,1030.361 0,0.1862 -0.0641,0 -0.0338,0.2759 -0.24239,0.2964 -0.17509,0.1449 -0.15826,0 -0.10441,-0.1655 -0.33336,0.07 -0.0641,0.069 0.007,0.5172 -0.13805,-0.069 -0.0741,0 0.10441,0.2137 -0.0372,0.2414 -0.20875,-0.069 c 0.0124,0.069 -0.003,0.1792 -0.0166,0.2965 l -0.14812,0.2068 c 0.15716,0.3448 -0.1264,1.1399 -0.2997,1.4647 -0.3017,0.7462 -1.14062,1.7516 -2.14153,2.6094 -1.0009,0.858 -2.04051,1.5454 -2.04051,1.5454 -1.81682,1.0379 -5.828019,0.8303 -7.845529,-0.2206 -1.57917,-0.8234 -2.89597,-1.5958 -3.58942,-1.5888 l -0.54885,-0.1104 c 0,0 -0.99867,-0.531 -1.25595,-0.4069 -8.7e-4,0 -0.003,0 -0.003,0 -0.0797,0 -0.16744,0.1036 -0.24585,0.2897 -0.0715,0.1655 -0.42286,0.2551 -0.62291,0.8013 -0.01,7e-4 -0.0172,0 -0.0269,0 -0.0729,1.0254 0.31384,2.0295 0.8822,2.9191 1.10765,1.7343 3.23054,2.8984 3.97664,3.2093 0.88465,0.3655 2.46031,1.1966 6.010419,1.2724 2.9903,0.069 4.93546,-0.931 6.11144,-1.5454 1.13324,-0.5931 2.91195,-2.0757 3.51533,-3.0977 0.88073,-1.4916 0.59933,-2.7915 0.59933,-2.7915 -0.0179,-0.5931 -0.45858,-1.4488 -0.57243,-2.2053 -0.11193,-0.7441 0.23391,-1.5744 0.24577,-1.6026 0.1315,-0.097 0.22798,-0.2276 0.21888,-0.4 -0.0262,-0.4965 0.18522,-1.4075 0.18522,-1.4075 l 0.0774,-0.069 -0.007,-0.3103 -0.80476,-0.5378 -0.1313,0 z"
       id="path3964-2"
       inkscape:connector-curvature="0" />
  </g>
</svg>
