<?xml version="1.0" encoding="UTF-8" standalone="no"?>
<!-- Created with Inkscape (http://www.inkscape.org/) -->

<svg
   xmlns:dc="http://purl.org/dc/elements/1.1/"
   xmlns:cc="http://creativecommons.org/ns#"
   xmlns:rdf="http://www.w3.org/1999/02/22-rdf-syntax-ns#"
   xmlns:svg="http://www.w3.org/2000/svg"
   xmlns="http://www.w3.org/2000/svg"
   xmlns:sodipodi="http://sodipodi.sourceforge.net/DTD/sodipodi-0.dtd"
   xmlns:inkscape="http://www.inkscape.org/namespaces/inkscape"
   width="30"
   height="30"
   id="svg2"
   sodipodi:version="0.32"
   inkscape:version="0.48.4 r9939"
   sodipodi:docname="camping.svg"
   inkscape:output_extension="org.inkscape.output.svg.inkscape"
   version="1.1">
  <defs
     id="defs4" />
  <sodipodi:namedview
     id="base"
     pagecolor="#ffffff"
     bordercolor="#666666"
     borderopacity="1.0"
     inkscape:pageopacity="0.0"
     inkscape:pageshadow="2"
     inkscape:zoom="11.6"
     inkscape:cx="15"
     inkscape:cy="15"
     inkscape:document-units="px"
     inkscape:current-layer="layer1"
     inkscape:window-width="698"
     inkscape:window-height="1029"
     inkscape:window-x="0"
     inkscape:window-y="19"
     showgrid="false"
     inkscape:window-maximized="0" />
  <metadata
     id="metadata7">
    <rdf:RDF>
      <cc:Work
         rdf:about="">
        <dc:format>image/svg+xml</dc:format>
        <dc:type
           rdf:resource="http://purl.org/dc/dcmitype/StillImage" />
        <dc:title></dc:title>
      </cc:Work>
    </rdf:RDF>
  </metadata>
  <g
     inkscape:label="Capa 1"
     inkscape:groupmode="layer"
     id="layer1"
     transform="translate(0,-1022.3622)">
    <path
       sodipodi:type="arc"
       style="color:#000000;fill:#1a1a1a;stroke:#d4d4d4;stroke-width:1.02777779;stroke-opacity:1;marker:none;visibility:visible;display:inline;overflow:visible;enable-background:accumulate"
       id="path16617-6-6"
       sodipodi:cx="15.16226"
       sodipodi:cy="16.56851"
       sodipodi:rx="14.008413"
       sodipodi:ry="14.008413"
       d="m 29.170673,16.56851 a 14.008413,14.008413 0 1 1 -28.0168263,0 14.008413,14.008413 0 1 1 28.0168263,0 z"
       transform="matrix(0.97297297,0,0,0.97297297,330.50795,953.63241)" />
    <path
       style="fill:#1a1a1a;stroke:#d4d4d4;stroke-width:1px;stroke-linecap:butt;stroke-linejoin:miter;stroke-opacity:1"
       d="m 345.29648,957.89011 0,11.863 0,0"
       id="path16623-6-2"
       inkscape:connector-curvature="0"
       inkscape:transform-center-y="-5.9314904" />
    <path
       style="fill:#1a1a1a;stroke:#d4d4d4;stroke-width:1px;stroke-linecap:butt;stroke-linejoin:miter;stroke-opacity:1"
       d="m 357.15947,969.75311 -1.70877,0 0,0"
       id="path16623-4-2-0"
       inkscape:connector-curvature="0"
       inkscape:transform-center-x="-0.854382" />
    <path
       style="fill:#1a1a1a;stroke:#d4d4d4;stroke-width:0.99999994px;stroke-linecap:butt;stroke-linejoin:miter;stroke-opacity:1"
       d="m 345.29648,981.61611 0,-2.0181 0,0"
       id="path16623-4-3-9-0"
       inkscape:connector-curvature="0"
       inkscape:transform-center-y="1.0091015" />
    <path
       style="fill:#1a1a1a;stroke:#d4d4d4;stroke-width:1px;stroke-linecap:butt;stroke-linejoin:miter;stroke-opacity:1"
       d="m 333.43348,969.75311 11.863,0 0,0"
       id="path16623-4-3-4-1-0"
       inkscape:connector-curvature="0"
       inkscape:transform-center-x="5.9315" />
    <path
       style="font-size:12px;fill:#1a1a1a;fill-opacity:1;fill-rule:evenodd;stroke:none"
       d="m 15,1025.206 -12,10.625 2.40625,0 0,13.6875 7.1875,0 0,-8.0938 4.96875,0 0,8.0938 7.03125,0 0,-13.6875 2.40625,0 -12,-10.625 z m -0.28125,8 c 0.504205,0 0.888202,0.085 1.125,0.2812 0.23679,0.1949 0.343747,0.4457 0.34375,0.7188 -3e-6,0.1531 -0.02129,0.2968 -0.09375,0.4375 -0.07246,0.1419 -0.179187,0.2572 -0.28125,0.3437 -0.102061,0.09 -0.267924,0.2321 -0.53125,0.4063 0.218423,0.2173 0.450703,0.4061 0.6875,0.5937 0.06327,-0.1259 0.111315,-0.2642 0.15625,-0.4062 l 0.96875,0.2187 c -0.05106,0.1781 -0.109313,0.3293 -0.15625,0.4375 -0.04696,0.1085 -0.101773,0.2293 -0.1875,0.375 l 0.46875,0.3125 c 0.05716,0.036 0.128922,0.1051 0.21875,0.1563 l -0.6875,0.75 c -0.122486,-0.067 -0.24334,-0.1326 -0.375,-0.2188 -0.131688,-0.086 -0.239647,-0.1573 -0.34375,-0.2187 -0.216388,0.142 -0.439876,0.2484 -0.65625,0.3125 -0.300079,0.088 -0.649526,0.125 -1.03125,0.125 -0.598105,0 -1.020592,-0.1239 -1.3125,-0.375 -0.291907,-0.2479 -0.4375,-0.5516 -0.4375,-0.9063 0,-0.2562 0.07854,-0.4915 0.25,-0.7187 0.171461,-0.2283 0.45386,-0.4057 0.84375,-0.5625 -0.163323,-0.1977 -0.282518,-0.3854 -0.34375,-0.5313 -0.06126,-0.1448 -0.09375,-0.2866 -0.09375,-0.4375 0,-0.3183 0.132091,-0.5752 0.375,-0.7812 0.242922,-0.2061 0.599752,-0.3125 1.09375,-0.3125 z m -7.03125,0.094 2.625,0 c 0.432754,0 0.73706,0.1 0.96875,0.3125 0.231689,0.2145 0.374998,0.4652 0.375,0.7813 -2e-6,0.2645 -0.08467,0.4978 -0.25,0.6875 -0.110258,0.1259 -0.287697,0.2385 -0.5,0.3125 0.322523,0.078 0.566667,0.1873 0.71875,0.375 0.152062,0.1894 0.21875,0.4333 0.21875,0.7187 -6e-6,0.2312 -0.04806,0.4392 -0.15625,0.625 -0.108195,0.1865 -0.249705,0.3294 -0.4375,0.4375 -0.116365,0.067 -0.296501,0.1252 -0.53125,0.1563 -0.312328,0.039 -0.522941,0.063 -0.625,0.063 l -2.40625,0 0,-4.4688 z m 10.46875,0 2.59375,0 c 0.432753,0 0.768305,0.1 1,0.3125 0.231689,0.2144 0.343748,0.4649 0.34375,0.7813 -2e-6,0.2645 -0.08467,0.4978 -0.25,0.6875 -0.11023,0.1259 -0.287699,0.2385 -0.5,0.3125 0.322523,0.078 0.566668,0.1873 0.71875,0.375 0.152063,0.1894 0.25,0.4333 0.25,0.7187 -7e-6,0.2312 -0.07931,0.4395 -0.1875,0.625 -0.108194,0.1866 -0.249705,0.3291 -0.4375,0.4375 -0.116365,0.067 -0.296503,0.1252 -0.53125,0.1563 -0.312321,0.039 -0.522938,0.063 -0.625,0.063 l -2.375,0 0,-4.4688 z m -3.375,0.5938 c -0.126558,0 -0.232895,0.019 -0.3125,0.094 -0.07963,0.072 -0.12504,0.1811 -0.125,0.2813 -2e-6,0.1259 0.119201,0.2907 0.34375,0.5312 0.161259,-0.088 0.287224,-0.179 0.375,-0.2812 0.08777,-0.1031 0.125,-0.1897 0.125,-0.2813 -2e-6,-0.095 -0.05154,-0.1859 -0.125,-0.25 -0.07347,-0.067 -0.152643,-0.094 -0.28125,-0.094 z m -5.6875,0.3125 0,0.8437 0.625,0 c 0.216388,0 0.352785,-0.05 0.4375,-0.125 0.0847,-0.075 0.125,-0.1708 0.125,-0.3125 -3e-6,-0.1313 -0.04029,-0.2405 -0.125,-0.3125 -0.08473,-0.072 -0.227239,-0.094 -0.4375,-0.094 l -0.625,0 z m 10.46875,0 0,0.8437 0.59375,0 c 0.216388,0 0.352784,-0.05 0.4375,-0.125 0.0847,-0.075 0.125,-0.1708 0.125,-0.3125 -5e-6,-0.1313 -0.04029,-0.2405 -0.125,-0.3125 -0.08473,-0.072 -0.22724,-0.094 -0.4375,-0.094 l -0.59375,0 z m -10.46875,1.6875 0,0.9062 0.71875,0 c 0.238824,0 0.402015,-0.041 0.5,-0.125 0.09796,-0.086 0.15625,-0.2003 0.15625,-0.3437 -3e-6,-0.134 -0.05929,-0.2324 -0.15625,-0.3125 -0.09696,-0.08 -0.257104,-0.125 -0.5,-0.125 l -0.71875,0 z m 5.15625,0 c -0.171462,0.1192 -0.287615,0.2262 -0.34375,0.3125 -0.05613,0.086 -0.09375,0.1838 -0.09375,0.2812 -2e-6,0.1476 0.05894,0.2586 0.1875,0.375 0.128594,0.1166 0.293823,0.1875 0.5,0.1875 0.222491,0 0.472376,-0.077 0.75,-0.25 -0.265386,-0.2032 -0.585618,-0.5147 -1,-0.9062 z m 5.3125,0 0,0.9062 0.6875,0 c 0.238824,0 0.402012,-0.041 0.5,-0.125 0.09796,-0.086 0.15625,-0.2003 0.15625,-0.3437 -3e-6,-0.134 -0.05932,-0.2324 -0.15625,-0.3125 -0.09696,-0.08 -0.257099,-0.125 -0.5,-0.125 l -0.6875,0 z"
       id="path645-1-2"
       inkscape:connector-curvature="0" />
    <path
       inkscape:connector-curvature="0"
       sodipodi:nodetypes="cccccccccccccc"
       id="path9518-0-7"
       d="m 14.999994,1025.9915 -11.2422196,9.9235 2.2484301,0 0,12.8177 6.7453475,0 0,-7.5644 4.651059,0 1.3e-5,7.5644 6.591159,0 0,-12.8177 2.248444,0 -11.242237,-9.9235 0,0 0,0 z"
       style="font-size:12px;fill:none;stroke:none" />
  </g>
</svg>
