<?xml version="1.0" encoding="UTF-8" standalone="no"?>
<!-- Created with Inkscape (http://www.inkscape.org/) -->

<svg
   xmlns:dc="http://purl.org/dc/elements/1.1/"
   xmlns:cc="http://creativecommons.org/ns#"
   xmlns:rdf="http://www.w3.org/1999/02/22-rdf-syntax-ns#"
   xmlns:svg="http://www.w3.org/2000/svg"
   xmlns="http://www.w3.org/2000/svg"
   xmlns:sodipodi="http://sodipodi.sourceforge.net/DTD/sodipodi-0.dtd"
   xmlns:inkscape="http://www.inkscape.org/namespaces/inkscape"
   width="30"
   height="30"
   id="svg2"
   sodipodi:version="0.32"
   inkscape:version="0.48.4 r9939"
   sodipodi:docname="siren.svg"
   inkscape:output_extension="org.inkscape.output.svg.inkscape"
   version="1.1">
  <defs
     id="defs4" />
  <sodipodi:namedview
     id="base"
     pagecolor="#ffffff"
     bordercolor="#666666"
     borderopacity="1.0"
     inkscape:pageopacity="0.0"
     inkscape:pageshadow="2"
     inkscape:zoom="10.276087"
     inkscape:cx="15.344828"
     inkscape:cy="14.482759"
     inkscape:document-units="px"
     inkscape:current-layer="layer1"
     inkscape:window-width="656"
     inkscape:window-height="1029"
     inkscape:window-x="0"
     inkscape:window-y="19"
     showgrid="false"
     inkscape:window-maximized="0" />
  <metadata
     id="metadata7">
    <rdf:RDF>
      <cc:Work
         rdf:about="">
        <dc:format>image/svg+xml</dc:format>
        <dc:type
           rdf:resource="http://purl.org/dc/dcmitype/StillImage" />
        <dc:title></dc:title>
      </cc:Work>
    </rdf:RDF>
  </metadata>
  <g
     inkscape:label="Capa 1"
     inkscape:groupmode="layer"
     id="layer1"
     transform="translate(0,-1022.3622)">
    <path
       sodipodi:type="arc"
       style="color:#000000;fill:#1a1a1a;stroke:#d4d4d4;stroke-width:1.02777779;stroke-opacity:1;marker:none;visibility:visible;display:inline;overflow:visible;enable-background:accumulate"
       id="path16617-6-6"
       sodipodi:cx="15.16226"
       sodipodi:cy="16.56851"
       sodipodi:rx="14.008413"
       sodipodi:ry="14.008413"
       d="m 29.170673,16.56851 a 14.008413,14.008413 0 1 1 -28.0168263,0 14.008413,14.008413 0 1 1 28.0168263,0 z"
       transform="matrix(0.97297297,0,0,0.97297297,330.50795,953.63241)" />
    <path
       style="fill:#1a1a1a;stroke:#d4d4d4;stroke-width:1px;stroke-linecap:butt;stroke-linejoin:miter;stroke-opacity:1"
       d="m 345.29648,957.89011 0,11.863 0,0"
       id="path16623-6-2"
       inkscape:connector-curvature="0"
       inkscape:transform-center-y="-5.9314904" />
    <path
       style="fill:#1a1a1a;stroke:#d4d4d4;stroke-width:1px;stroke-linecap:butt;stroke-linejoin:miter;stroke-opacity:1"
       d="m 357.15947,969.75311 -1.70877,0 0,0"
       id="path16623-4-2-0"
       inkscape:connector-curvature="0"
       inkscape:transform-center-x="-0.854382" />
    <path
       style="fill:#1a1a1a;stroke:#d4d4d4;stroke-width:0.99999994px;stroke-linecap:butt;stroke-linejoin:miter;stroke-opacity:1"
       d="m 345.29648,981.61611 0,-2.0181 0,0"
       id="path16623-4-3-9-0"
       inkscape:connector-curvature="0"
       inkscape:transform-center-y="1.0091015" />
    <path
       style="fill:#1a1a1a;stroke:#d4d4d4;stroke-width:1px;stroke-linecap:butt;stroke-linejoin:miter;stroke-opacity:1"
       d="m 333.43348,969.75311 11.863,0 0,0"
       id="path16623-4-3-4-1-0"
       inkscape:connector-curvature="0"
       inkscape:transform-center-x="5.9315" />
    <path
       inkscape:connector-curvature="0"
       sodipodi:nodetypes="cccccccccccccc"
       id="path9518-0-7"
       d="m 14.999994,1025.9915 -11.2422196,9.9235 2.2484301,0 0,12.8177 6.7453475,0 0,-7.5644 4.651059,0 1.3e-5,7.5644 6.591159,0 0,-12.8177 2.248444,0 -11.242237,-9.9235 0,0 0,0 z"
       style="font-size:12px;fill:none;stroke:none" />
    <path
       style="color:#000000;fill:#1a1a1a;fill-opacity:1;stroke:none;stroke-width:2;marker:none;visibility:visible;display:inline;overflow:visible;enable-background:accumulate"
       d="m 5.2973701,1027.2773 0,0.3546 0,0.7425 -1.18582,0 -0.35464,0 0,0.3546 0,2.7595 0,3.1142 0,3.0699 0,1.1747 0,0.3546 0.35464,0 1.18582,0 0,7.8906 0,0.3546 0.35464,0 1.65127,0 0.35464,0 0,-0.3546 0,-7.8906 0.76468,0 3.1141599,0 3.06982,0 3.11415,0 3.06982,0 1.32989,0 0,7.8906 0,0.3546 0.35463,0 1.65128,0 0.35464,0 0,-0.3546 0,-7.8906 1.40746,0 0.35464,0 0,-0.3546 0,-1.9837 0,-3.1142 0,-3.0699 0,-1.9505 0,-0.3546 -0.35464,0 -0.44329,0 -0.96417,0 0,-0.7425 0,-0.3546 -0.35464,0 -1.65128,0 -0.35463,0 0,0.3546 0,0.7425 -2.87034,0 -3.08091,0 -3.10306,0 -3.0809098,0 -2.3273,0 0,-0.7425 0,-0.3546 -0.35464,0 -1.65127,0 -0.35464,0 z m 0.70927,0.7093 0.942,0 0,0.3878 -0.0665,0 -0.8755,0 0,-0.3878 z m 16.8230699,0 0.942,0 0,0.3878 -0.942,0 0,-0.3878 z m -18.3635199,1.0971 1.70669,0 -1.70669,1.6956 0,-1.6956 z m 4.8097601,0 3.0808998,0 -7.8906599,7.8797 0,-3.0699 4.8097601,-4.8098 z m 6.1839698,0 3.0809,0 -9.4089399,9.4089 -3.06983,0 9.3978699,-9.4089 z m 6.19506,0 3.0809,0 -9.42003,9.4089 -3.06982,0 9.40895,-9.4089 z m 3.87883,2.3051 0,3.0699 -4.03399,4.0339 -3.06982,0 7.10381,-7.1039 z m 0,6.184 0,0.9198 -0.91983,0 0.91983,-0.9198 z m -19.5271699,1.6291 0.942,0 0,7.536 -0.942,0 0,-7.536 z m 16.8230699,0 0.942,0 0,7.536 -0.942,0 0,-7.536 z"
       id="rect16508-6"
       inkscape:connector-curvature="0" />
  </g>
</svg>
