<?xml version="1.0" encoding="UTF-8" standalone="no"?>
<!-- Created with Inkscape (http://www.inkscape.org/) -->

<svg
   xmlns:dc="http://purl.org/dc/elements/1.1/"
   xmlns:cc="http://creativecommons.org/ns#"
   xmlns:rdf="http://www.w3.org/1999/02/22-rdf-syntax-ns#"
   xmlns:svg="http://www.w3.org/2000/svg"
   xmlns="http://www.w3.org/2000/svg"
   xmlns:sodipodi="http://sodipodi.sourceforge.net/DTD/sodipodi-0.dtd"
   xmlns:inkscape="http://www.inkscape.org/namespaces/inkscape"
   width="30"
   height="30"
   id="svg2"
   sodipodi:version="0.32"
   inkscape:version="0.48.4 r9939"
   sodipodi:docname="box.svg"
   inkscape:output_extension="org.inkscape.output.svg.inkscape"
   version="1.1">
  <defs
     id="defs4" />
  <sodipodi:namedview
     id="base"
     pagecolor="#ffffff"
     bordercolor="#666666"
     borderopacity="1.0"
     inkscape:pageopacity="0.0"
     inkscape:pageshadow="2"
     inkscape:zoom="10.276087"
     inkscape:cx="15.344828"
     inkscape:cy="14.482759"
     inkscape:document-units="px"
     inkscape:current-layer="layer1"
     inkscape:window-width="656"
     inkscape:window-height="1029"
     inkscape:window-x="0"
     inkscape:window-y="19"
     showgrid="false"
     inkscape:window-maximized="0" />
  <metadata
     id="metadata7">
    <rdf:RDF>
      <cc:Work
         rdf:about="">
        <dc:format>image/svg+xml</dc:format>
        <dc:type
           rdf:resource="http://purl.org/dc/dcmitype/StillImage" />
        <dc:title></dc:title>
      </cc:Work>
    </rdf:RDF>
  </metadata>
  <g
     inkscape:label="Capa 1"
     inkscape:groupmode="layer"
     id="layer1"
     transform="translate(0,-1022.3622)">
    <path
       sodipodi:type="arc"
       style="color:#000000;fill:#1a1a1a;stroke:#d4d4d4;stroke-width:1.02777779;stroke-opacity:1;marker:none;visibility:visible;display:inline;overflow:visible;enable-background:accumulate"
       id="path16617-6-6"
       sodipodi:cx="15.16226"
       sodipodi:cy="16.56851"
       sodipodi:rx="14.008413"
       sodipodi:ry="14.008413"
       d="m 29.170673,16.56851 a 14.008413,14.008413 0 1 1 -28.0168263,0 14.008413,14.008413 0 1 1 28.0168263,0 z"
       transform="matrix(0.97297297,0,0,0.97297297,330.50795,953.63241)" />
    <path
       style="fill:#1a1a1a;stroke:#d4d4d4;stroke-width:1px;stroke-linecap:butt;stroke-linejoin:miter;stroke-opacity:1"
       d="m 345.29648,957.89011 0,11.863 0,0"
       id="path16623-6-2"
       inkscape:connector-curvature="0"
       inkscape:transform-center-y="-5.9314904" />
    <path
       style="fill:#1a1a1a;stroke:#d4d4d4;stroke-width:1px;stroke-linecap:butt;stroke-linejoin:miter;stroke-opacity:1"
       d="m 357.15947,969.75311 -1.70877,0 0,0"
       id="path16623-4-2-0"
       inkscape:connector-curvature="0"
       inkscape:transform-center-x="-0.854382" />
    <path
       style="fill:#1a1a1a;stroke:#d4d4d4;stroke-width:0.99999994px;stroke-linecap:butt;stroke-linejoin:miter;stroke-opacity:1"
       d="m 345.29648,981.61611 0,-2.0181 0,0"
       id="path16623-4-3-9-0"
       inkscape:connector-curvature="0"
       inkscape:transform-center-y="1.0091015" />
    <path
       style="fill:#1a1a1a;stroke:#d4d4d4;stroke-width:1px;stroke-linecap:butt;stroke-linejoin:miter;stroke-opacity:1"
       d="m 333.43348,969.75311 11.863,0 0,0"
       id="path16623-4-3-4-1-0"
       inkscape:connector-curvature="0"
       inkscape:transform-center-x="5.9315" />
    <path
       inkscape:connector-curvature="0"
       sodipodi:nodetypes="cccccccccccccc"
       id="path9518-0-7"
       d="m 14.999994,1025.9915 -11.2422196,9.9235 2.2484301,0 0,12.8177 6.7453475,0 0,-7.5644 4.651059,0 1.3e-5,7.5644 6.591159,0 0,-12.8177 2.248444,0 -11.242237,-9.9235 0,0 0,0 z"
       style="font-size:12px;fill:none;stroke:none" />
    <path
       inkscape:connector-curvature="0"
       style="fill:#1a1a1a;fill-opacity:1"
       d="m 15,1024.8622 c -3.86375,0 -6.9999999,3.136 -6.9999999,7 0,1.2723 0.3619999,2.4618 0.9375,3.5 1.7182499,3.0955 2.1572499,4.8175 2.4374999,6.5 0.23525,1.41 0.55975,1.75 1.625,1.75 l 2,0 1.96875,0 c 1.0655,0 1.38975,-0.3402 1.625,-1.75 0.28025,-1.6822 0.7505,-3.4045 2.46875,-6.5 0.5755,-1.0382 0.9375,-2.2277 0.9375,-3.5 0,-3.864 -3.136,-7 -7,-7 z m -2.5,19.3438 c -0.17825,0 -0.34375,0.148 -0.34375,0.3437 l 0,0.3438 c 0,0.1957 0.1655,0.3437 0.34375,0.3437 l 5,0 c 0.178,0 0.3125,-0.148 0.3125,-0.3437 l 0,-0.3438 c 0,-0.1957 -0.1345,-0.3437 -0.3125,-0.3437 l -5,0 z m 0,1.5312 c -0.17825,0 -0.34375,0.1478 -0.34375,0.3438 l 0,0.3437 c 0,0.1963 0.1655,0.3438 0.34375,0.3438 l 5,0 c 0.178,0 0.3125,-0.1475 0.3125,-0.3438 l 0,-0.3437 c 0,-0.196 -0.1345,-0.3438 -0.3125,-0.3438 l -5,0 z m 0,1.5313 c -0.17825,0 -0.34375,0.1475 -0.34375,0.3437 l 0,0.3438 c 0,0.196 0.1655,0.3437 0.34375,0.3437 l 5,0 c 0.178,0 0.3125,-0.1477 0.3125,-0.3437 l 0,-0.3438 c 0,-0.1962 -0.1345,-0.3437 -0.3125,-0.3437 l -5,0 z m 0.84375,1.5625 c 0.3055,0.5975 0.939,1.0312 1.65625,1.0312 0.7215,0 1.35325,-0.4272 1.65625,-1.0312 l -3.3125,0 z"
       id="path15715-4-7" />
  </g>
</svg>
