<?xml version="1.0" encoding="UTF-8" standalone="no"?>
<!-- Created with Inkscape (http://www.inkscape.org/) -->

<svg
   xmlns:dc="http://purl.org/dc/elements/1.1/"
   xmlns:cc="http://creativecommons.org/ns#"
   xmlns:rdf="http://www.w3.org/1999/02/22-rdf-syntax-ns#"
   xmlns:svg="http://www.w3.org/2000/svg"
   xmlns="http://www.w3.org/2000/svg"
   xmlns:sodipodi="http://sodipodi.sourceforge.net/DTD/sodipodi-0.dtd"
   xmlns:inkscape="http://www.inkscape.org/namespaces/inkscape"
   width="30"
   height="30"
   id="svg2"
   sodipodi:version="0.32"
   inkscape:version="0.48.4 r9939"
   sodipodi:docname="pine.svg"
   inkscape:output_extension="org.inkscape.output.svg.inkscape"
   version="1.1">
  <defs
     id="defs4" />
  <sodipodi:namedview
     id="base"
     pagecolor="#ffffff"
     bordercolor="#666666"
     borderopacity="1.0"
     inkscape:pageopacity="0.0"
     inkscape:pageshadow="2"
     inkscape:zoom="11.6"
     inkscape:cx="15"
     inkscape:cy="15"
     inkscape:document-units="px"
     inkscape:current-layer="layer1"
     inkscape:window-width="698"
     inkscape:window-height="1029"
     inkscape:window-x="0"
     inkscape:window-y="19"
     showgrid="false"
     inkscape:window-maximized="0" />
  <metadata
     id="metadata7">
    <rdf:RDF>
      <cc:Work
         rdf:about="">
        <dc:format>image/svg+xml</dc:format>
        <dc:type
           rdf:resource="http://purl.org/dc/dcmitype/StillImage" />
        <dc:title></dc:title>
      </cc:Work>
    </rdf:RDF>
  </metadata>
  <g
     inkscape:label="Capa 1"
     inkscape:groupmode="layer"
     id="layer1"
     transform="translate(0,-1022.3622)">
    <path
       sodipodi:type="arc"
       style="color:#000000;fill:#1a1a1a;stroke:#d4d4d4;stroke-width:1.02777779;stroke-opacity:1;marker:none;visibility:visible;display:inline;overflow:visible;enable-background:accumulate"
       id="path16617-6-6"
       sodipodi:cx="15.16226"
       sodipodi:cy="16.56851"
       sodipodi:rx="14.008413"
       sodipodi:ry="14.008413"
       d="m 29.170673,16.56851 a 14.008413,14.008413 0 1 1 -28.0168263,0 14.008413,14.008413 0 1 1 28.0168263,0 z"
       transform="matrix(0.97297297,0,0,0.97297297,330.50795,953.63241)" />
    <path
       style="fill:#1a1a1a;stroke:#d4d4d4;stroke-width:1px;stroke-linecap:butt;stroke-linejoin:miter;stroke-opacity:1"
       d="m 345.29648,957.89011 0,11.863 0,0"
       id="path16623-6-2"
       inkscape:connector-curvature="0"
       inkscape:transform-center-y="-5.9314904" />
    <path
       style="fill:#1a1a1a;stroke:#d4d4d4;stroke-width:1px;stroke-linecap:butt;stroke-linejoin:miter;stroke-opacity:1"
       d="m 357.15947,969.75311 -1.70877,0 0,0"
       id="path16623-4-2-0"
       inkscape:connector-curvature="0"
       inkscape:transform-center-x="-0.854382" />
    <path
       style="fill:#1a1a1a;stroke:#d4d4d4;stroke-width:0.99999994px;stroke-linecap:butt;stroke-linejoin:miter;stroke-opacity:1"
       d="m 345.29648,981.61611 0,-2.0181 0,0"
       id="path16623-4-3-9-0"
       inkscape:connector-curvature="0"
       inkscape:transform-center-y="1.0091015" />
    <path
       style="fill:#1a1a1a;stroke:#d4d4d4;stroke-width:1px;stroke-linecap:butt;stroke-linejoin:miter;stroke-opacity:1"
       d="m 333.43348,969.75311 11.863,0 0,0"
       id="path16623-4-3-4-1-0"
       inkscape:connector-curvature="0"
       inkscape:transform-center-x="5.9315" />
    <path
       style="color:#000000;fill:#1a1a1a;fill-opacity:1;fill-rule:nonzero;stroke:none;stroke-width:25.16522408;marker:none;visibility:visible;display:inline;overflow:visible;enable-background:accumulate"
       d="m 3.1016,1024.4388 c -0.54476,0 -0.9831,0.4397 -0.9831,0.9845 l 0,23.8805 c 0,0.5448 0.43834,0.983 0.9831,0.983 0.54477,0 0.9831,-0.4382 0.9831,-0.983 l 0,-1.4868 c 0.0859,0.017 0.17564,0.025 0.26784,0.025 l 21.56276,0 0,0.8993 c 0,0.5448 0.43833,0.9832 0.9831,0.9832 0.54477,0 0.9831,-0.4384 0.9831,-0.9832 l 0,-18.5997 c 0,-0.5448 -0.43833,-0.9831 -0.9831,-0.9831 -0.54477,0 -0.9831,0.4383 -0.9831,0.9831 l 0,4.214 -21.56276,0 c -0.0923,0 -0.18187,0.016 -0.26784,0.027 l 0,-8.9605 c 0,-0.5448 -0.43833,-0.9846 -0.9831,-0.9846 z m 6.51798,1.6861 c -1.412,0 -2.55666,1.1446 -2.55666,2.5566 0,1.412 1.14466,2.5567 2.55666,2.5567 1.41201,0 2.55667,-1.1447 2.55667,-2.5567 0,-1.412 -1.14466,-2.5566 -2.55667,-2.5566 z m 3.99023,3.9613 c -1.01171,0 -1.82619,0.8144 -1.82619,1.8263 0,1.0116 0.81448,1.826 1.82619,1.826 l 8.09155,0 c 1.01171,0 1.82619,-0.8144 1.82619,-1.826 0,-1.0119 -0.81448,-1.8263 -1.82619,-1.8263 l -8.09155,0 z m -6.47689,1.3773 c -0.59891,0 -1.0805,0.45 -1.0805,1.0104 0,0.5604 0.48159,1.012 1.0805,1.012 l 3.34497,0 c 0.59891,0 1.0805,-0.4516 1.0805,-1.012 0,-0.5604 -0.48159,-1.0104 -1.0805,-1.0104 l -3.34497,0 z m -3.04822,4.8332 c 0.086,0.016 0.17559,0.027 0.26784,0.027 l 21.56276,0 0,9.5525 -21.56276,0 c -0.0922,0 -0.18191,0.016 -0.26784,0.026 l 0,-9.6056 z m 5.28226,1.3195 c -1.41201,0 -2.55667,1.1447 -2.55667,2.5566 0,1.412 1.14466,2.5566 2.55667,2.5566 1.41201,0 2.55667,-1.1446 2.55667,-2.5566 0,-1.4119 -1.14466,-2.5566 -2.55667,-2.5566 z m 4.10132,3.7649 c -1.01171,0 -1.82619,0.8146 -1.82619,1.8263 0,1.0117 0.81448,1.8262 1.82619,1.8262 l 8.09155,0 c 1.01171,0 1.82619,-0.8145 1.82619,-1.8262 0,-1.0117 -0.81448,-1.8263 -1.82619,-1.8263 l -8.09155,0 z m -6.53168,1.5737 c -0.57277,0.026 -1.02571,0.4676 -1.02571,1.0104 0,0.5604 0.48311,1.0121 1.08202,1.0121 l 3.34345,0 c 0.59891,0 1.08202,-0.4517 1.08202,-1.0121 0,-0.5604 -0.48311,-1.0104 -1.08202,-1.0104 l -3.34345,0 c -0.0187,0 -0.0378,0 -0.0563,0 z"
       id="rect16069-8"
       inkscape:connector-curvature="0" />
  </g>
</svg>
