<?xml version="1.0" encoding="UTF-8" standalone="no"?>
<!-- Created with Inkscape (http://www.inkscape.org/) -->

<svg
   xmlns:dc="http://purl.org/dc/elements/1.1/"
   xmlns:cc="http://creativecommons.org/ns#"
   xmlns:rdf="http://www.w3.org/1999/02/22-rdf-syntax-ns#"
   xmlns:svg="http://www.w3.org/2000/svg"
   xmlns="http://www.w3.org/2000/svg"
   xmlns:sodipodi="http://sodipodi.sourceforge.net/DTD/sodipodi-0.dtd"
   xmlns:inkscape="http://www.inkscape.org/namespaces/inkscape"
   width="30"
   height="30"
   id="svg2"
   sodipodi:version="0.32"
   inkscape:version="0.48.4 r9939"
   sodipodi:docname="cinema.svg"
   inkscape:output_extension="org.inkscape.output.svg.inkscape"
   version="1.1">
  <defs
     id="defs4" />
  <sodipodi:namedview
     id="base"
     pagecolor="#ffffff"
     bordercolor="#666666"
     borderopacity="1.0"
     inkscape:pageopacity="0.0"
     inkscape:pageshadow="2"
     inkscape:zoom="10.276087"
     inkscape:cx="15.344828"
     inkscape:cy="14.482759"
     inkscape:document-units="px"
     inkscape:current-layer="layer1"
     inkscape:window-width="656"
     inkscape:window-height="1029"
     inkscape:window-x="0"
     inkscape:window-y="19"
     showgrid="false"
     inkscape:window-maximized="0" />
  <metadata
     id="metadata7">
    <rdf:RDF>
      <cc:Work
         rdf:about="">
        <dc:format>image/svg+xml</dc:format>
        <dc:type
           rdf:resource="http://purl.org/dc/dcmitype/StillImage" />
        <dc:title></dc:title>
      </cc:Work>
    </rdf:RDF>
  </metadata>
  <g
     inkscape:label="Capa 1"
     inkscape:groupmode="layer"
     id="layer1"
     transform="translate(0,-1022.3622)">
    <path
       sodipodi:type="arc"
       style="color:#000000;fill:#1a1a1a;stroke:#d4d4d4;stroke-width:1.02777779;stroke-opacity:1;marker:none;visibility:visible;display:inline;overflow:visible;enable-background:accumulate"
       id="path16617-6-6"
       sodipodi:cx="15.16226"
       sodipodi:cy="16.56851"
       sodipodi:rx="14.008413"
       sodipodi:ry="14.008413"
       d="m 29.170673,16.56851 a 14.008413,14.008413 0 1 1 -28.0168263,0 14.008413,14.008413 0 1 1 28.0168263,0 z"
       transform="matrix(0.97297297,0,0,0.97297297,330.50795,953.63241)" />
    <path
       style="fill:#1a1a1a;stroke:#d4d4d4;stroke-width:1px;stroke-linecap:butt;stroke-linejoin:miter;stroke-opacity:1"
       d="m 345.29648,957.89011 0,11.863 0,0"
       id="path16623-6-2"
       inkscape:connector-curvature="0"
       inkscape:transform-center-y="-5.9314904" />
    <path
       style="fill:#1a1a1a;stroke:#d4d4d4;stroke-width:1px;stroke-linecap:butt;stroke-linejoin:miter;stroke-opacity:1"
       d="m 357.15947,969.75311 -1.70877,0 0,0"
       id="path16623-4-2-0"
       inkscape:connector-curvature="0"
       inkscape:transform-center-x="-0.854382" />
    <path
       style="fill:#1a1a1a;stroke:#d4d4d4;stroke-width:0.99999994px;stroke-linecap:butt;stroke-linejoin:miter;stroke-opacity:1"
       d="m 345.29648,981.61611 0,-2.0181 0,0"
       id="path16623-4-3-9-0"
       inkscape:connector-curvature="0"
       inkscape:transform-center-y="1.0091015" />
    <path
       style="fill:#1a1a1a;stroke:#d4d4d4;stroke-width:1px;stroke-linecap:butt;stroke-linejoin:miter;stroke-opacity:1"
       d="m 333.43348,969.75311 11.863,0 0,0"
       id="path16623-4-3-4-1-0"
       inkscape:connector-curvature="0"
       inkscape:transform-center-x="5.9315" />
    <path
       inkscape:connector-curvature="0"
       sodipodi:nodetypes="cccccccccccccc"
       id="path9518-0-7"
       d="m 14.999994,1025.9915 -11.2422196,9.9235 2.2484301,0 0,12.8177 6.7453475,0 0,-7.5644 4.651059,0 1.3e-5,7.5644 6.591159,0 0,-12.8177 2.248444,0 -11.242237,-9.9235 0,0 0,0 z"
       style="font-size:12px;fill:none;stroke:none" />
    <path
       inkscape:connector-curvature="0"
       style="fill:#1a1a1a;fill-opacity:1;stroke:none"
       d="m 14.89517,1024.219 c 0.0341,0 0.0696,0 0.10407,0 0.0347,-2e-4 0.0697,0 0.10406,0 l -0.20813,0 z m 0.10407,0 c -2.42319,0.019 -5.70627,0.7016 -7.07659,1.2725 -1.38995,0.5792 -2.31687,1.1586 -2.60641,2.6064 l -1.04225,8.0274 0,11.0596 1.79595,0 0,1.7344 c 0,2.1148 3.09364,2.1148 3.09364,0 l 0,-1.7344 5.71424,0 0.0173,0 5.93973,0 0,1.7344 c 0,2.1148 3.09521,2.1148 3.09521,0 l 0,-1.7344 1.79595,0 0,-11.0596 -1.04225,-8.0274 c -0.28954,-1.4478 -1.21646,-2.0272 -2.60641,-2.6064 -1.37045,-0.571 -4.65491,-1.2533 -7.07816,-1.2725 z m -4.41183,2.0262 4.30776,0 4.51747,0 c 0.86875,0 0.86875,1.3025 0,1.3025 l -4.52693,0 -4.2983,0 c -0.86875,0 -0.86875,-1.3025 0,-1.3025 z m -2.34309,2.619 6.64139,0 6.86844,0 c 0.9177,0 1.15789,0.4658 1.26931,1.1732 l 0.81204,5.8214 c 0.0756,0.5581 -0.0868,1.1117 -0.85776,1.1117 l -8.08257,0 -7.87444,0 c -0.77092,0 -0.93184,-0.5536 -0.85618,-1.1117 l 0.81204,-5.8214 c 0.11142,-0.7074 0.35003,-1.1732 1.26773,-1.1732 z m -0.62598,11.8842 c 0.8198,0 1.48374,0.6656 1.48374,1.4854 0,0.8198 -0.66394,1.4837 -1.48374,1.4837 -0.81981,0 -1.48533,-0.6639 -1.48533,-1.4837 0,-0.8198 0.66552,-1.4854 1.48533,-1.4854 z m 14.76337,0 c 0.81981,0 1.48375,0.6656 1.48375,1.4854 0,0.8198 -0.66394,1.4837 -1.48375,1.4837 -0.81981,0 -1.48532,-0.6639 -1.48532,-1.4837 0,-0.8198 0.66551,-1.4854 1.48532,-1.4854 z"
       id="path2115-9" />
  </g>
</svg>
