<?xml version="1.0" encoding="UTF-8" standalone="no"?>
<!-- Created with Inkscape (http://www.inkscape.org/) -->

<svg
   xmlns:dc="http://purl.org/dc/elements/1.1/"
   xmlns:cc="http://creativecommons.org/ns#"
   xmlns:rdf="http://www.w3.org/1999/02/22-rdf-syntax-ns#"
   xmlns:svg="http://www.w3.org/2000/svg"
   xmlns="http://www.w3.org/2000/svg"
   xmlns:sodipodi="http://sodipodi.sourceforge.net/DTD/sodipodi-0.dtd"
   xmlns:inkscape="http://www.inkscape.org/namespaces/inkscape"
   width="30"
   height="30"
   id="svg2"
   sodipodi:version="0.32"
   inkscape:version="0.48.4 r9939"
   sodipodi:docname="train1.svg"
   inkscape:output_extension="org.inkscape.output.svg.inkscape"
   version="1.1">
  <defs
     id="defs4" />
  <sodipodi:namedview
     id="base"
     pagecolor="#ffffff"
     bordercolor="#666666"
     borderopacity="1.0"
     inkscape:pageopacity="0.0"
     inkscape:pageshadow="2"
     inkscape:zoom="10.276087"
     inkscape:cx="15.344828"
     inkscape:cy="14.482759"
     inkscape:document-units="px"
     inkscape:current-layer="layer1"
     inkscape:window-width="656"
     inkscape:window-height="1029"
     inkscape:window-x="0"
     inkscape:window-y="19"
     showgrid="false"
     inkscape:window-maximized="0" />
  <metadata
     id="metadata7">
    <rdf:RDF>
      <cc:Work
         rdf:about="">
        <dc:format>image/svg+xml</dc:format>
        <dc:type
           rdf:resource="http://purl.org/dc/dcmitype/StillImage" />
        <dc:title></dc:title>
      </cc:Work>
    </rdf:RDF>
  </metadata>
  <g
     inkscape:label="Capa 1"
     inkscape:groupmode="layer"
     id="layer1"
     transform="translate(0,-1022.3622)">
    <path
       sodipodi:type="arc"
       style="color:#000000;fill:#1a1a1a;stroke:#d4d4d4;stroke-width:1.02777779;stroke-opacity:1;marker:none;visibility:visible;display:inline;overflow:visible;enable-background:accumulate"
       id="path16617-6-6"
       sodipodi:cx="15.16226"
       sodipodi:cy="16.56851"
       sodipodi:rx="14.008413"
       sodipodi:ry="14.008413"
       d="m 29.170673,16.56851 a 14.008413,14.008413 0 1 1 -28.0168263,0 14.008413,14.008413 0 1 1 28.0168263,0 z"
       transform="matrix(0.97297297,0,0,0.97297297,330.50795,953.63241)" />
    <path
       style="fill:#1a1a1a;stroke:#d4d4d4;stroke-width:1px;stroke-linecap:butt;stroke-linejoin:miter;stroke-opacity:1"
       d="m 345.29648,957.89011 0,11.863 0,0"
       id="path16623-6-2"
       inkscape:connector-curvature="0"
       inkscape:transform-center-y="-5.9314904" />
    <path
       style="fill:#1a1a1a;stroke:#d4d4d4;stroke-width:1px;stroke-linecap:butt;stroke-linejoin:miter;stroke-opacity:1"
       d="m 357.15947,969.75311 -1.70877,0 0,0"
       id="path16623-4-2-0"
       inkscape:connector-curvature="0"
       inkscape:transform-center-x="-0.854382" />
    <path
       style="fill:#1a1a1a;stroke:#d4d4d4;stroke-width:0.99999994px;stroke-linecap:butt;stroke-linejoin:miter;stroke-opacity:1"
       d="m 345.29648,981.61611 0,-2.0181 0,0"
       id="path16623-4-3-9-0"
       inkscape:connector-curvature="0"
       inkscape:transform-center-y="1.0091015" />
    <path
       style="fill:#1a1a1a;stroke:#d4d4d4;stroke-width:1px;stroke-linecap:butt;stroke-linejoin:miter;stroke-opacity:1"
       d="m 333.43348,969.75311 11.863,0 0,0"
       id="path16623-4-3-4-1-0"
       inkscape:connector-curvature="0"
       inkscape:transform-center-x="5.9315" />
    <path
       inkscape:connector-curvature="0"
       sodipodi:nodetypes="cccccccccccccc"
       id="path9518-0-7"
       d="m 14.999994,1025.9915 -11.2422196,9.9235 2.2484301,0 0,12.8177 6.7453475,0 0,-7.5644 4.651059,0 1.3e-5,7.5644 6.591159,0 0,-12.8177 2.248444,0 -11.242237,-9.9235 0,0 0,0 z"
       style="font-size:12px;fill:none;stroke:none" />
    <path
       style="color:#000000;fill:#1a1a1a;fill-opacity:1;fill-rule:nonzero;stroke:none;stroke-width:2;marker:none;visibility:visible;display:inline;overflow:visible;enable-background:accumulate"
       d="m 9.6689582,1026.1408 c -1.429496,0 -2.5752354,1.1457 -2.5752354,2.5753 l 0,0.2598 c -0.0029,-2e-4 -0.0072,0 -0.01157,0 l -1.005242,0 c -0.938405,0 -1.705532,0.7133 -1.705532,1.581 l 0,0.6325 -0.07908,0 c -0.285896,0 -0.519558,0.2337 -0.519558,0.5196 l 0,4.3824 c 0,0.286 0.233662,0.5196 0.519558,0.5196 l 0.07908,0 0,1.4683 c 0,0.8679 0.767127,1.5701 1.705532,1.5701 l 1.005242,0 0.01157,0 0,3.0722 19.1335362,0 0,-14.0057 c 0,-1.4295 -1.15703,-2.5753 -2.586526,-2.5753 l -13.9717748,0 z m 1.2989008,1.4343 11.317487,0 0,1.5475 -11.317487,0 0,-1.5475 z m -4.8906842,2.1236 1.005242,0 c 0.0029,0 0.0072,-10e-5 0.01157,0 l 0,9.2279 c -0.0029,0 -0.0072,0 -0.01157,0 l -1.005242,0 c -0.518907,0 -0.926174,-0.3672 -0.926174,-0.8472 l 0,-1.4683 0.688985,0 c 0.285896,0 0.519558,-0.2336 0.519558,-0.5196 l 0,-4.3823 c 0,-0.286 -0.233662,-0.5196 -0.519558,-0.5196 l -0.688985,0 0,-0.6325 c 0,-0.4799 0.407267,-0.8584 0.926174,-0.8584 z m 3.8628604,0.6438 13.3731498,0 c 0.571792,0 1.03913,0.456 1.03913,1.0278 l 0,5.0488 c 0,0.5718 -0.467338,1.039 -1.03913,1.039 l -13.3731498,0 c -0.571807,0 -1.03913,-0.4673 -1.03913,-1.039 l 0,-5.0488 c 0,-0.5718 0.467323,-1.0278 1.03913,-1.0278 z m -2.202507,7.9629 2.078259,0 c 0.3982168,0 0.7228728,0.3133 0.7228728,0.7116 l 0,0.3049 c 0,0.3983 -0.324656,0.7116 -0.7228728,0.7116 l -2.078259,0 0,-1.7282 z m 15.6547098,0 2.07826,0 0,1.7281 -2.07826,0 c -0.398216,0 -0.722873,-0.3133 -0.722873,-0.7116 l 0,-0.3049 c 0,-0.3983 0.324657,-0.7116 0.722873,-0.7116 z m -13.9943578,1.875 3.0270308,0 c 0.571792,0 1.027824,0.4673 1.027824,1.0391 0,0.5717 -0.456032,1.0277 -1.027824,1.0277 l -3.0270308,0 c -0.571807,0 -1.027838,-0.456 -1.027838,-1.0277 0,-0.5718 0.456031,-1.0391 1.027838,-1.0391 z m 11.3965408,0 3.015739,0 c 0.571793,0 1.027824,0.4673 1.027824,1.0391 0,0.5717 -0.456031,1.0277 -1.027824,1.0277 l -3.015739,0 c -0.571807,0 -1.03913,-0.456 -1.03913,-1.0277 0,-0.5718 0.467323,-1.0391 1.03913,-1.0391 z m -13.7345872,3.3206 0,2.2139 6.7430462,0 0,-0.5535 c 0,-0.5718 0.467337,-1.0392 1.03913,-1.0392 l 3.569185,0 c 0.571807,0 1.03913,0.4674 1.03913,1.0392 l 0,0.5535 6.743046,0 0,-2.2139 -19.1335372,0 z m 7.5901662,1.0279 0,2.1459 3.908025,0 0,-2.1459 -3.908025,0 z m -6.1218368,1.8523 0,1.0052 c 0,0.6629 0.534492,1.1974 1.197265,1.1974 l 1.2198478,0 c 0.662759,0 1.197251,-0.5345 1.197251,-1.1974 l 0,-1.0052 -3.6143638,0 z m 12.6389858,0 0,1.0052 c 0,0.6629 0.534492,1.1974 1.197265,1.1974 l 1.219848,0 c 0.662759,0 1.197251,-0.5345 1.197251,-1.1974 l 0,-1.0052 -3.614364,0 z"
       id="rect14441-3"
       inkscape:connector-curvature="0" />
  </g>
</svg>
