<?xml version="1.0" encoding="UTF-8" standalone="no"?>
<!-- Created with Inkscape (http://www.inkscape.org/) -->

<svg
   xmlns:dc="http://purl.org/dc/elements/1.1/"
   xmlns:cc="http://creativecommons.org/ns#"
   xmlns:rdf="http://www.w3.org/1999/02/22-rdf-syntax-ns#"
   xmlns:svg="http://www.w3.org/2000/svg"
   xmlns="http://www.w3.org/2000/svg"
   xmlns:sodipodi="http://sodipodi.sourceforge.net/DTD/sodipodi-0.dtd"
   xmlns:inkscape="http://www.inkscape.org/namespaces/inkscape"
   width="30"
   height="30"
   id="svg2"
   sodipodi:version="0.32"
   inkscape:version="0.48.4 r9939"
   sodipodi:docname="flower1.svg"
   inkscape:output_extension="org.inkscape.output.svg.inkscape"
   version="1.1">
  <defs
     id="defs4" />
  <sodipodi:namedview
     id="base"
     pagecolor="#ffffff"
     bordercolor="#666666"
     borderopacity="1.0"
     inkscape:pageopacity="0.0"
     inkscape:pageshadow="2"
     inkscape:zoom="10.276087"
     inkscape:cx="15.344828"
     inkscape:cy="14.482759"
     inkscape:document-units="px"
     inkscape:current-layer="layer1"
     inkscape:window-width="656"
     inkscape:window-height="1029"
     inkscape:window-x="0"
     inkscape:window-y="19"
     showgrid="false"
     inkscape:window-maximized="0" />
  <metadata
     id="metadata7">
    <rdf:RDF>
      <cc:Work
         rdf:about="">
        <dc:format>image/svg+xml</dc:format>
        <dc:type
           rdf:resource="http://purl.org/dc/dcmitype/StillImage" />
        <dc:title></dc:title>
      </cc:Work>
    </rdf:RDF>
  </metadata>
  <g
     inkscape:label="Capa 1"
     inkscape:groupmode="layer"
     id="layer1"
     transform="translate(0,-1022.3622)">
    <path
       sodipodi:type="arc"
       style="color:#000000;fill:#1a1a1a;stroke:#d4d4d4;stroke-width:1.02777779;stroke-opacity:1;marker:none;visibility:visible;display:inline;overflow:visible;enable-background:accumulate"
       id="path16617-6-6"
       sodipodi:cx="15.16226"
       sodipodi:cy="16.56851"
       sodipodi:rx="14.008413"
       sodipodi:ry="14.008413"
       d="m 29.170673,16.56851 a 14.008413,14.008413 0 1 1 -28.0168263,0 14.008413,14.008413 0 1 1 28.0168263,0 z"
       transform="matrix(0.97297297,0,0,0.97297297,330.50795,953.63241)" />
    <path
       style="fill:#1a1a1a;stroke:#d4d4d4;stroke-width:1px;stroke-linecap:butt;stroke-linejoin:miter;stroke-opacity:1"
       d="m 345.29648,957.89011 0,11.863 0,0"
       id="path16623-6-2"
       inkscape:connector-curvature="0"
       inkscape:transform-center-y="-5.9314904" />
    <path
       style="fill:#1a1a1a;stroke:#d4d4d4;stroke-width:1px;stroke-linecap:butt;stroke-linejoin:miter;stroke-opacity:1"
       d="m 357.15947,969.75311 -1.70877,0 0,0"
       id="path16623-4-2-0"
       inkscape:connector-curvature="0"
       inkscape:transform-center-x="-0.854382" />
    <path
       style="fill:#1a1a1a;stroke:#d4d4d4;stroke-width:0.99999994px;stroke-linecap:butt;stroke-linejoin:miter;stroke-opacity:1"
       d="m 345.29648,981.61611 0,-2.0181 0,0"
       id="path16623-4-3-9-0"
       inkscape:connector-curvature="0"
       inkscape:transform-center-y="1.0091015" />
    <path
       style="fill:#1a1a1a;stroke:#d4d4d4;stroke-width:1px;stroke-linecap:butt;stroke-linejoin:miter;stroke-opacity:1"
       d="m 333.43348,969.75311 11.863,0 0,0"
       id="path16623-4-3-4-1-0"
       inkscape:connector-curvature="0"
       inkscape:transform-center-x="5.9315" />
    <path
       inkscape:connector-curvature="0"
       sodipodi:nodetypes="cccccccccccccc"
       id="path9518-0-7"
       d="m 14.999994,1025.9915 -11.2422196,9.9235 2.2484301,0 0,12.8177 6.7453475,0 0,-7.5644 4.651059,0 1.3e-5,7.5644 6.591159,0 0,-12.8177 2.248444,0 -11.242237,-9.9235 0,0 0,0 z"
       style="font-size:12px;fill:none;stroke:none" />
    <path
       inkscape:connector-curvature="0"
       style="fill:#1a1a1a;fill-opacity:1;stroke:none"
       d="m 15.796787,1023.9085 -0.15625,0.063 -0.15625,0.5937 0.15625,0 0.0937,-0.5311 0.0625,-0.1251 z m 0.875,0.4375 -0.28125,0.1562 -0.25,0.4688 c -0.47721,-0.2464 -1.03453,-0.3767 -1.59375,-0.2813 -0.66684,0.1665 -1.18614,0.4913 -1.5625,0.9375 l -0.875,-0.6562 -0.15625,0 0.0625,0.125 0.84375,0.7187 c -0.41547,0.5912 -0.62219,1.3906 -0.625,2.375 l -0.59375,-0.125 -0.15625,0.094 0.125,0.063 0.625,0.1561 c 0.002,0.076 -0.004,0.1407 0,0.2189 0.002,0.052 -0.002,0.1043 0,0.1561 l -1.03125,-0.031 -0.15625,0.125 0.15625,0.063 1.0625,0.094 c 0.007,0.187 0.0226,0.3755 0.0313,0.5625 l -0.4375,0 -0.21875,-0.031 0.1875,0.1562 0.46875,0 c 0.13896,2.9181 0.40983,5.8336 0.59375,8.75 0.0399,1.3207 -1.1472,1.2481 -1.71875,0.5938 l 0.40625,-0.5 -0.125,0.031 c -0.14081,0.09 -0.25363,0.1971 -0.375,0.3125 -0.0205,-0.031 -0.0449,-0.06 -0.0625,-0.094 -0.4414,-0.8559 -0.3367,-2.2889 -0.0937,-3.5939 0.22474,3e-4 0.46277,0 0.6875,0 l 0.15625,0 c 0.0107,0 0.0419,-0.1561 0.0313,-0.1561 -0.0964,8e-4 -0.0393,0 -0.15625,0 -0.23224,-0.01 -0.45525,0 -0.6875,0 0.0353,-0.1793 0.0544,-0.3611 0.0937,-0.5314 0.0821,-0.3572 0.0542,-0.7335 -0.0313,-1.0936 l 0.53125,-0.1875 0.125,-0.094 -0.15625,-0.063 -0.53125,0.1564 c -0.21557,-0.6847 -0.729041,-1.2662 -1.4062505,-1.4375 l 0.0625,-0.4375 -0.0313,-0.125 -0.125,0.094 -0.0937,0.4375 c -0.17107,-0.023 -0.34164,-0.033 -0.53125,0 -0.2162,0.033 -0.40787,0.1048 -0.59375,0.1875 l -0.4375,-0.6562 -0.15625,-0.031 0.0313,0.125 0.375,0.6563 c -0.64495,0.359 -1.07227,1.008 -1.25,1.7812 -0.17783,-0.01 -0.35639,3e-4 -0.53125,0.031 l -0.0937,0.031 0.59375,0.094 c -0.0382,0.2083 -0.0608,0.405 -0.0625,0.625 -0.0326,0.5175 -0.0443,1.059 -0.0313,1.5937 -0.21479,0 -0.44153,-0.01 -0.65625,0 -0.0108,0 -0.042,0.1563 -0.0313,0.1563 0.23194,0.01 0.45549,0 0.6875,0 0.002,0.062 -0.003,0.1255 0,0.1875 -0.14647,0 -0.29339,0.01 -0.4375,0.031 l -0.125,0.063 0.59375,0.094 c 0.0722,1.1261 0.27803,2.2384 0.78125,3.1875 -0.13392,0.034 -0.26627,0.07 -0.40625,0.094 l -0.0937,0.1563 c 0.0637,0 0.12476,-0.021 0.1875,-0.031 0.12825,-0.021 0.25179,-0.064 0.375,-0.094 0.1415,0.2509 0.31504,0.463 0.5,0.6875 -0.1633,0.1404 -0.32137,0.3141 -0.5,0.4375 l -0.0313,0.1875 c 0.056,-0.03 0.13333,-0.061 0.1875,-0.094 0.16605,-0.1133 0.31795,-0.2442 0.46875,-0.375 0.18688,0.2077 0.39306,0.4163 0.625,0.5938 1.8001505,1.2061 2.9418905,0.1692 3.5937505,1.5312 0.0358,0.5149 0.0459,1.0463 0.0625,1.5625 -0.13599,-8e-4 -0.27238,0.01 -0.40625,0.031 l -0.0937,0.031 0.53125,0.094 c 0.006,0.2083 -0.004,0.4165 0,0.625 -0.17784,-0.013 -0.35298,-0.031 -0.53125,-0.031 -0.0633,0 -0.12685,0.015 -0.1875,0.031 -0.01,0 0.0527,0.125 0.0625,0.125 0.0278,-1e-4 0.066,-0 0.0937,0 0.19286,0 0.37002,0.018 0.5625,0.031 0.0286,1.7752 -0.004,3.5383 0.0313,5.3125 l 4.90625,0 c -0.0147,-1.4861 -0.0546,-2.9858 -0.0625,-4.4687 l 0.34375,0 c 0.0839,7e-4 0.16611,0 0.25,0 l 0.25,0 c 0.0106,0 0.0419,-0.1563 0.0313,-0.1563 l -0.25,0 -0.25,0 c -0.12586,0 -0.2491,8e-4 -0.375,0 -0.001,-0.3318 -0.001,-0.6685 0,-1 0.21014,-1.9793 1.89728,-1.6523 2.75,-1.4687 1.49695,0.1984 2.43508,-1.0864 2.90625,-2.2188 0.31685,-1.1546 0.55248,-2.5662 0.46875,-3.9375 0.12712,-2e-4 0.24791,0 0.375,0 0.0165,10e-4 0.046,4e-4 0.0625,0 0.0106,0 0.0418,-0.1562 0.0313,-0.1562 -0.0163,0 -0.0462,4e-4 -0.0625,0 -0.13764,-0.01 -0.26857,-2e-4 -0.40625,0 -0.0747,-0.9395 -0.31302,-1.863 -0.78125,-2.6563 0.0911,-0.044 0.18927,-0.083 0.28125,-0.125 0.0696,-0.053 0.0312,-0.02 0.0937,-0.063 0.0675,-0.039 0.1514,-0.055 0.21875,-0.094 0.008,-0.01 -0.0853,-0.135 -0.0937,-0.125 -0.0726,0.039 -0.15032,0.079 -0.21875,0.125 -0.0144,0.01 -0.0641,0.014 -0.0937,0.031 -0.0845,0.035 -0.16681,0.087 -0.25,0.125 -0.10562,-0.1675 -0.21521,-0.314 -0.34375,-0.4687 -0.16182,-0.2333 -0.39932,-0.4531 -0.65625,-0.5938 l 0.34375,-0.7812 -0.0937,0.063 c -0.17634,0.1901 -0.27684,0.4309 -0.40625,0.6562 -0.5904,-0.2644 -1.29076,-0.2476 -1.90625,0.125 -0.14003,-0.1598 -0.2517,-0.3219 -0.40625,-0.4687 -0.01,-0.012 -0.1972,0.113 -0.1875,0.125 0.14238,0.15 0.26882,0.3144 0.40625,0.4687 -0.18609,0.1428 -0.38307,0.3066 -0.53125,0.5313 -0.44255,0.8314 -0.27774,1.7005 -0.0313,2.5937 -0.0959,-0.02 -0.18554,-0.042 -0.28125,-0.063 -0.0551,-0.013 -0.1308,-0.043 -0.1875,-0.031 -0.006,0 0.005,0.027 0,0.031 -0.0946,-0.021 -0.21567,-0.063 -0.3125,-0.063 -0.0329,3e-4 -0.0608,-3e-4 -0.0937,0 -0.0106,0 0.0519,0.1564 0.0625,0.1564 0.099,0 0.21557,0.01 0.3125,0.031 0.10746,0.01 0.0166,0.022 0.0937,0 0.0441,0 0.12686,0.021 0.0625,0.031 0.13738,0.036 0.2675,0.064 0.40625,0.094 0.19157,0.6666 0.387,1.3387 0.4375,2 -0.24312,-0.075 -0.47144,-0.1884 -0.71875,-0.25 -0.0136,-0.01 -0.13863,0.1775 -0.125,0.1875 0.28836,0.092 0.58154,0.2071 0.875,0.2813 1.3e-4,0.01 -4e-5,0.021 0,0.031 0.10903,2.1501 -2.02991,2.6695 -2.34375,1.1875 -0.2199,-3.8622 1.26438,-8.7019 0.71875,-13.0937 -0.005,-0.075 -0.0201,-0.1445 -0.0313,-0.2188 l 0.78125,-0.094 -0.0313,-0.1875 -0.8125,0.031 c -0.20164,-0.807 -0.7382,-1.5373 -1.46875,-1.9375 l 0.15625,-0.063 0.21875,-0.4687 0.0937,-0.125 z"
       id="path8198-7" />
  </g>
</svg>
