<?xml version="1.0" encoding="UTF-8" standalone="no"?>
<!-- Created with Inkscape (http://www.inkscape.org/) -->

<svg
   xmlns:dc="http://purl.org/dc/elements/1.1/"
   xmlns:cc="http://creativecommons.org/ns#"
   xmlns:rdf="http://www.w3.org/1999/02/22-rdf-syntax-ns#"
   xmlns:svg="http://www.w3.org/2000/svg"
   xmlns="http://www.w3.org/2000/svg"
   xmlns:sodipodi="http://sodipodi.sourceforge.net/DTD/sodipodi-0.dtd"
   xmlns:inkscape="http://www.inkscape.org/namespaces/inkscape"
   width="30"
   height="30"
   id="svg2"
   sodipodi:version="0.32"
   inkscape:version="0.48.4 r9939"
   sodipodi:docname="strawberry.svg"
   inkscape:output_extension="org.inkscape.output.svg.inkscape"
   version="1.1">
  <defs
     id="defs4" />
  <sodipodi:namedview
     id="base"
     pagecolor="#ffffff"
     bordercolor="#666666"
     borderopacity="1.0"
     inkscape:pageopacity="0.0"
     inkscape:pageshadow="2"
     inkscape:zoom="10.276087"
     inkscape:cx="15.344828"
     inkscape:cy="14.482759"
     inkscape:document-units="px"
     inkscape:current-layer="layer1"
     inkscape:window-width="656"
     inkscape:window-height="1029"
     inkscape:window-x="0"
     inkscape:window-y="19"
     showgrid="false"
     inkscape:window-maximized="0" />
  <metadata
     id="metadata7">
    <rdf:RDF>
      <cc:Work
         rdf:about="">
        <dc:format>image/svg+xml</dc:format>
        <dc:type
           rdf:resource="http://purl.org/dc/dcmitype/StillImage" />
        <dc:title></dc:title>
      </cc:Work>
    </rdf:RDF>
  </metadata>
  <g
     inkscape:label="Capa 1"
     inkscape:groupmode="layer"
     id="layer1"
     transform="translate(0,-1022.3622)">
    <path
       sodipodi:type="arc"
       style="color:#000000;fill:#1a1a1a;stroke:#d4d4d4;stroke-width:1.02777779;stroke-opacity:1;marker:none;visibility:visible;display:inline;overflow:visible;enable-background:accumulate"
       id="path16617-6-6"
       sodipodi:cx="15.16226"
       sodipodi:cy="16.56851"
       sodipodi:rx="14.008413"
       sodipodi:ry="14.008413"
       d="m 29.170673,16.56851 a 14.008413,14.008413 0 1 1 -28.0168263,0 14.008413,14.008413 0 1 1 28.0168263,0 z"
       transform="matrix(0.97297297,0,0,0.97297297,330.50795,953.63241)" />
    <path
       style="fill:#1a1a1a;stroke:#d4d4d4;stroke-width:1px;stroke-linecap:butt;stroke-linejoin:miter;stroke-opacity:1"
       d="m 345.29648,957.89011 0,11.863 0,0"
       id="path16623-6-2"
       inkscape:connector-curvature="0"
       inkscape:transform-center-y="-5.9314904" />
    <path
       style="fill:#1a1a1a;stroke:#d4d4d4;stroke-width:1px;stroke-linecap:butt;stroke-linejoin:miter;stroke-opacity:1"
       d="m 357.15947,969.75311 -1.70877,0 0,0"
       id="path16623-4-2-0"
       inkscape:connector-curvature="0"
       inkscape:transform-center-x="-0.854382" />
    <path
       style="fill:#1a1a1a;stroke:#d4d4d4;stroke-width:0.99999994px;stroke-linecap:butt;stroke-linejoin:miter;stroke-opacity:1"
       d="m 345.29648,981.61611 0,-2.0181 0,0"
       id="path16623-4-3-9-0"
       inkscape:connector-curvature="0"
       inkscape:transform-center-y="1.0091015" />
    <path
       style="fill:#1a1a1a;stroke:#d4d4d4;stroke-width:1px;stroke-linecap:butt;stroke-linejoin:miter;stroke-opacity:1"
       d="m 333.43348,969.75311 11.863,0 0,0"
       id="path16623-4-3-4-1-0"
       inkscape:connector-curvature="0"
       inkscape:transform-center-x="5.9315" />
    <path
       inkscape:connector-curvature="0"
       sodipodi:nodetypes="cccccccccccccc"
       id="path9518-0-7"
       d="m 14.999994,1025.9915 -11.2422196,9.9235 2.2484301,0 0,12.8177 6.7453475,0 0,-7.5644 4.651059,0 1.3e-5,7.5644 6.591159,0 0,-12.8177 2.248444,0 -11.242237,-9.9235 0,0 0,0 z"
       style="font-size:12px;fill:none;stroke:none" />
    <path
       id="path18955-8-7"
       style="fill:#1a1a1a;fill-opacity:1;stroke:none"
       d="m 20.102113,1034.0299 4.47314,-2.628 c 0,0 0.80917,-0.2719 1.00637,0 0.4262,0.5865 -0.68977,1.3439 -0.671,2.0688 0.0272,0.6783 0.72893,1.2226 0.72703,1.9012 0,0.72 -0.79095,1.293 -0.78306,2.0127 0.0272,0.8274 0.98433,1.4661 0.9506,2.2926 -0.0326,0.7747 -1.07381,1.2936 -1.06239,2.0688 0,0.6174 1.27754,1.1372 0.89485,1.6216 -0.21488,0.2731 -1.00664,-0.2796 -1.00664,-0.2796 l -4.58493,-2.5162 0.72676,-1.1181 c 0,0 1.48261,0.6372 1.67763,0.1115 0.22575,-0.6117 -1.56557,-1.1742 -1.56557,-1.1742 l 0,-0.727 2.06875,-0.057 0,-0.671 -1.95697,-0.1115 0.11152,-0.9503 c 0,0 1.34009,-0.3095 1.23021,-0.7828 -0.11424,-0.4934 -1.50982,-0.1686 -1.50982,-0.1686 z m -10.2042491,0 -4.4731401,-2.628 c 0,0 -0.8091701,-0.2719 -1.0063601,0 -0.42621,0.5865 0.68976,1.3439 0.671,2.0688 -0.0272,0.6783 -0.72894,1.2226 -0.72703,1.9012 0,0.72 0.79094,1.293 0.78306,2.0127 0,0.8274 -0.98434,1.4661 -0.95061,2.2926 0.0299,0.7747 1.0738201,1.2936 1.0623901,2.0688 -0.0272,0.6174 -1.2775301,1.1372 -0.8948401,1.6216 0.21487,0.2731 1.0066301,-0.2796 1.0066301,-0.2796 l 4.5849301,-2.5162 -0.72675,-1.1181 c 0,0 -1.48262,0.6372 -1.67764,0.1115 -0.22575,-0.6117 1.56558,-1.1742 1.56558,-1.1742 l 0,-0.727 -2.06876,-0.057 0,-0.671 1.95697,-0.1115 -0.11152,-0.9506 c 0,0 -1.34009,-0.3092 -1.23021,-0.7828 0.11424,-0.4931 1.50982,-0.1686 1.50982,-0.1686 z m 10.3859391,3.3324 c 0,2.9182 -2.3655,5.284 -5.28395,5.284 -2.918179,0 -5.2836691,-2.3658 -5.2836691,-5.284 0,-2.9182 2.3654901,-5.2839 5.2836691,-5.2839 2.91845,0 5.28395,2.3657 5.28395,5.2839 z"
       inkscape:connector-curvature="0" />
  </g>
</svg>
