<?xml version="1.0" encoding="UTF-8" standalone="no"?>
<!-- Created with Inkscape (http://www.inkscape.org/) -->

<svg
   xmlns:dc="http://purl.org/dc/elements/1.1/"
   xmlns:cc="http://creativecommons.org/ns#"
   xmlns:rdf="http://www.w3.org/1999/02/22-rdf-syntax-ns#"
   xmlns:svg="http://www.w3.org/2000/svg"
   xmlns="http://www.w3.org/2000/svg"
   xmlns:sodipodi="http://sodipodi.sourceforge.net/DTD/sodipodi-0.dtd"
   xmlns:inkscape="http://www.inkscape.org/namespaces/inkscape"
   width="30"
   height="30"
   id="svg2"
   sodipodi:version="0.32"
   inkscape:version="0.48.4 r9939"
   sodipodi:docname="knife.svg"
   inkscape:output_extension="org.inkscape.output.svg.inkscape"
   version="1.1">
  <defs
     id="defs4" />
  <sodipodi:namedview
     id="base"
     pagecolor="#ffffff"
     bordercolor="#666666"
     borderopacity="1.0"
     inkscape:pageopacity="0.0"
     inkscape:pageshadow="2"
     inkscape:zoom="11.6"
     inkscape:cx="15"
     inkscape:cy="15"
     inkscape:document-units="px"
     inkscape:current-layer="layer1"
     inkscape:window-width="698"
     inkscape:window-height="1029"
     inkscape:window-x="0"
     inkscape:window-y="19"
     showgrid="false"
     inkscape:window-maximized="0" />
  <metadata
     id="metadata7">
    <rdf:RDF>
      <cc:Work
         rdf:about="">
        <dc:format>image/svg+xml</dc:format>
        <dc:type
           rdf:resource="http://purl.org/dc/dcmitype/StillImage" />
        <dc:title></dc:title>
      </cc:Work>
    </rdf:RDF>
  </metadata>
  <g
     inkscape:label="Capa 1"
     inkscape:groupmode="layer"
     id="layer1"
     transform="translate(0,-1022.3622)">
    <path
       sodipodi:type="arc"
       style="color:#000000;fill:#1a1a1a;stroke:#d4d4d4;stroke-width:1.02777779;stroke-opacity:1;marker:none;visibility:visible;display:inline;overflow:visible;enable-background:accumulate"
       id="path16617-6-6"
       sodipodi:cx="15.16226"
       sodipodi:cy="16.56851"
       sodipodi:rx="14.008413"
       sodipodi:ry="14.008413"
       d="m 29.170673,16.56851 a 14.008413,14.008413 0 1 1 -28.0168263,0 14.008413,14.008413 0 1 1 28.0168263,0 z"
       transform="matrix(0.97297297,0,0,0.97297297,330.50795,953.63241)" />
    <path
       style="fill:#1a1a1a;stroke:#d4d4d4;stroke-width:1px;stroke-linecap:butt;stroke-linejoin:miter;stroke-opacity:1"
       d="m 345.29648,957.89011 0,11.863 0,0"
       id="path16623-6-2"
       inkscape:connector-curvature="0"
       inkscape:transform-center-y="-5.9314904" />
    <path
       style="fill:#1a1a1a;stroke:#d4d4d4;stroke-width:1px;stroke-linecap:butt;stroke-linejoin:miter;stroke-opacity:1"
       d="m 357.15947,969.75311 -1.70877,0 0,0"
       id="path16623-4-2-0"
       inkscape:connector-curvature="0"
       inkscape:transform-center-x="-0.854382" />
    <path
       style="fill:#1a1a1a;stroke:#d4d4d4;stroke-width:0.99999994px;stroke-linecap:butt;stroke-linejoin:miter;stroke-opacity:1"
       d="m 345.29648,981.61611 0,-2.0181 0,0"
       id="path16623-4-3-9-0"
       inkscape:connector-curvature="0"
       inkscape:transform-center-y="1.0091015" />
    <path
       style="fill:#1a1a1a;stroke:#d4d4d4;stroke-width:1px;stroke-linecap:butt;stroke-linejoin:miter;stroke-opacity:1"
       d="m 333.43348,969.75311 11.863,0 0,0"
       id="path16623-4-3-4-1-0"
       inkscape:connector-curvature="0"
       inkscape:transform-center-x="5.9315" />
    <path
       inkscape:connector-curvature="0"
       style="fill:#1a1a1a;fill-opacity:1;stroke:none"
       d="m 9.239965,1026.1896 c -1.68711,0 -2.58209,0.9211 -2.99526,1.9992 l -2.19325,5.6631 c -0.86945,0.1116 -2.41071,1.1321 -2.41071,3.0654 l 0,7.2018 2.1348,0 0,2.3031 c 0,2.8336 4.01004,2.8002 4.01004,0 l 0,-2.3031 7.21342,0 0.002,0 7.2134,0 0,2.3031 c 0,2.8002 4.01003,2.8336 4.01006,0 l 0,-2.3031 2.13479,0 0,-7.2018 c 0,-1.9333 -1.54125,-2.9538 -2.41071,-3.0654 l -2.19559,-5.6631 c -0.41317,-1.0781 -1.30814,-1.9992 -2.99526,-1.9992 l -3.10048,0 -5.27971,0 -3.13789,0 z m -0.0257,2.0623 5.78008,0 0.005,0 0.002,0 5.78242,0 c 0.72301,0.01 1.03267,0.4589 1.23926,1.085 l 1.65312,4.4566 -8.6748,0 -0.002,0 -0.005,0 -8.67246,0 1.65312,-4.4566 c 0.20659,-0.6261 0.51617,-1.0783 1.23926,-1.085 z m -3.36938,7.7091 c 1.02306,0 1.85188,0.8537 1.85188,1.908 -1e-5,1.0545 -0.82882,1.9103 -1.85188,1.9103 -1.02298,0 -1.85187,-0.8558 -1.85187,-1.9103 0,-1.0543 0.82889,-1.908 1.85187,-1.908 z m 18.31061,0 c 1.02306,0 1.85188,0.8537 1.85187,1.908 0,1.0545 -0.82881,1.9103 -1.85187,1.9103 -1.02298,0 -1.85421,-0.8558 -1.85421,-1.9103 0,-1.0543 0.83123,-1.908 1.85421,-1.908 z"
       id="path2301-7" />
  </g>
</svg>
