<?xml version="1.0" encoding="UTF-8" standalone="no"?>
<!-- Created with Inkscape (http://www.inkscape.org/) -->

<svg
   xmlns:dc="http://purl.org/dc/elements/1.1/"
   xmlns:cc="http://creativecommons.org/ns#"
   xmlns:rdf="http://www.w3.org/1999/02/22-rdf-syntax-ns#"
   xmlns:svg="http://www.w3.org/2000/svg"
   xmlns="http://www.w3.org/2000/svg"
   xmlns:sodipodi="http://sodipodi.sourceforge.net/DTD/sodipodi-0.dtd"
   xmlns:inkscape="http://www.inkscape.org/namespaces/inkscape"
   width="30"
   height="30"
   id="svg2"
   sodipodi:version="0.32"
   inkscape:version="0.48.4 r9939"
   sodipodi:docname="hourglass.svg"
   inkscape:output_extension="org.inkscape.output.svg.inkscape"
   version="1.1">
  <defs
     id="defs4" />
  <sodipodi:namedview
     id="base"
     pagecolor="#ffffff"
     bordercolor="#666666"
     borderopacity="1.0"
     inkscape:pageopacity="0.0"
     inkscape:pageshadow="2"
     inkscape:zoom="10.276087"
     inkscape:cx="15.344828"
     inkscape:cy="14.482759"
     inkscape:document-units="px"
     inkscape:current-layer="layer1"
     inkscape:window-width="656"
     inkscape:window-height="1029"
     inkscape:window-x="0"
     inkscape:window-y="19"
     showgrid="false"
     inkscape:window-maximized="0" />
  <metadata
     id="metadata7">
    <rdf:RDF>
      <cc:Work
         rdf:about="">
        <dc:format>image/svg+xml</dc:format>
        <dc:type
           rdf:resource="http://purl.org/dc/dcmitype/StillImage" />
        <dc:title></dc:title>
      </cc:Work>
    </rdf:RDF>
  </metadata>
  <g
     inkscape:label="Capa 1"
     inkscape:groupmode="layer"
     id="layer1"
     transform="translate(0,-1022.3622)">
    <path
       sodipodi:type="arc"
       style="color:#000000;fill:#1a1a1a;stroke:#d4d4d4;stroke-width:1.02777779;stroke-opacity:1;marker:none;visibility:visible;display:inline;overflow:visible;enable-background:accumulate"
       id="path16617-6-6"
       sodipodi:cx="15.16226"
       sodipodi:cy="16.56851"
       sodipodi:rx="14.008413"
       sodipodi:ry="14.008413"
       d="m 29.170673,16.56851 a 14.008413,14.008413 0 1 1 -28.0168263,0 14.008413,14.008413 0 1 1 28.0168263,0 z"
       transform="matrix(0.97297297,0,0,0.97297297,330.50795,953.63241)" />
    <path
       style="fill:#1a1a1a;stroke:#d4d4d4;stroke-width:1px;stroke-linecap:butt;stroke-linejoin:miter;stroke-opacity:1"
       d="m 345.29648,957.89011 0,11.863 0,0"
       id="path16623-6-2"
       inkscape:connector-curvature="0"
       inkscape:transform-center-y="-5.9314904" />
    <path
       style="fill:#1a1a1a;stroke:#d4d4d4;stroke-width:1px;stroke-linecap:butt;stroke-linejoin:miter;stroke-opacity:1"
       d="m 357.15947,969.75311 -1.70877,0 0,0"
       id="path16623-4-2-0"
       inkscape:connector-curvature="0"
       inkscape:transform-center-x="-0.854382" />
    <path
       style="fill:#1a1a1a;stroke:#d4d4d4;stroke-width:0.99999994px;stroke-linecap:butt;stroke-linejoin:miter;stroke-opacity:1"
       d="m 345.29648,981.61611 0,-2.0181 0,0"
       id="path16623-4-3-9-0"
       inkscape:connector-curvature="0"
       inkscape:transform-center-y="1.0091015" />
    <path
       style="fill:#1a1a1a;stroke:#d4d4d4;stroke-width:1px;stroke-linecap:butt;stroke-linejoin:miter;stroke-opacity:1"
       d="m 333.43348,969.75311 11.863,0 0,0"
       id="path16623-4-3-4-1-0"
       inkscape:connector-curvature="0"
       inkscape:transform-center-x="5.9315" />
    <path
       inkscape:connector-curvature="0"
       sodipodi:nodetypes="cccccccccccccc"
       id="path9518-0-7"
       d="m 14.999994,1025.9915 -11.2422196,9.9235 2.2484301,0 0,12.8177 6.7453475,0 0,-7.5644 4.651059,0 1.3e-5,7.5644 6.591159,0 0,-12.8177 2.248444,0 -11.242237,-9.9235 0,0 0,0 z"
       style="font-size:12px;fill:none;stroke:none" />
    <path
       style="fill:#1a1a1a;fill-opacity:1;stroke:none"
       d="m 22.37475,1044.6302 c 0.26425,0 0.47937,-0.1425 0.48924,-0.324 l 3.30341,0 c 0.2493,0 0.44958,-0.1517 0.44958,-0.3394 l 0,-13.5354 c 0,-0.1876 -0.20028,-0.3372 -0.44958,-0.3372 l -22.3348702,0 c -0.0158,0 -0.0288,0 -0.044,0 -0.22752,0.017 -0.40551,0.1613 -0.40551,0.3372 l 0,13.5354 c 0,0.1877 0.20027,0.3394 0.44957,0.3394 l 3.00148,0 c 0.01,0.1815 0.22504,0.324 0.48924,0.324 l 15.0515002,0 z m -1.90842,-0.4739 c -0.0186,0 -0.0372,0 -0.0553,0 -0.0463,-0.01 -0.0901,-0.015 -0.13219,-0.031 -0.006,0 -0.008,-0.01 -0.0135,-0.01 -0.0164,-0.01 -0.031,-0.014 -0.0463,-0.022 -0.0152,-0.01 -0.0316,-0.017 -0.0463,-0.027 0,0 0,0 0,0 -0.0276,-0.019 -0.0536,-0.04 -0.0771,-0.064 -0.098,-0.097 -0.15869,-0.2325 -0.15869,-0.3812 0,-0.2975 0.24247,-0.5378 0.53989,-0.5378 0.0559,0 0.1103,0.01 0.1609,0.024 0.0169,0.01 0.0322,0.011 0.0485,0.017 0.006,0.01 0.009,0.01 0.0135,0.01 0.0248,0.012 0.048,0.024 0.0705,0.039 0.14324,0.097 0.23796,0.2593 0.23796,0.4452 0,0.2974 -0.24247,0.5399 -0.5399,0.5399 z m -11.3492398,0 c -0.0701,0 -0.13692,-0.013 -0.1983004,-0.037 -0.0175,-0.01 -0.0361,-0.015 -0.053,-0.024 0,0 -0.006,-0.01 -0.007,-0.01 -0.013,-0.01 -0.0254,-0.014 -0.0372,-0.022 0,0 0,0 0,0 -0.0276,-0.019 -0.0536,-0.04 -0.0771,-0.064 -0.0975,-0.098 -0.1587,-0.2325 -0.1587,-0.3812 0,-0.2975 0.24248,-0.5377 0.5399604,-0.5377 0.0744,0 0.14487,0.015 0.20936,0.042 0.007,0.01 0.0135,0.01 0.0198,0.01 0.007,0.01 0.013,0.01 0.0198,0.011 0,0.01 0.006,0.01 0.007,0.01 0.007,0.01 0.013,0.01 0.0198,0.014 0.008,0.01 0.0164,0.01 0.0243,0.015 0.0124,0.01 0.0237,0.017 0.0355,0.026 0,0 0.006,0 0.007,0.01 0.0372,0.032 0.0716,0.069 0.0992,0.1102 0,0.01 0.006,0.01 0.006,0.01 0.0558,0.085 0.0859,0.1859 0.0859,0.2953 0,0.2974 -0.24028,0.5399 -0.5377,0.5399 z m 8.9956298,-0.4782 c -0.0378,0 -0.0754,-0.01 -0.11018,-0.015 -0.0372,-0.012 -0.0718,-0.027 -0.10357,-0.049 -0.10578,-0.071 -0.1763,-0.1932 -0.1763,-0.3305 0,-0.2199 0.17906,-0.3967 0.39891,-0.3967 0.0513,0 0.1002,0.01 0.14544,0.027 0.006,0 0.006,0.01 0.009,0.01 0.0322,0.015 0.0632,0.033 0.0904,0.055 0,0 0.006,0 0.007,0.01 0.0855,0.073 0.13884,0.181 0.13884,0.3019 0,0.2199 -0.17906,0.3989 -0.39892,0.3989 z m -6.63983,0 c -0.0389,0 -0.0769,-0.01 -0.11238,-0.015 0,0 -0.006,0 -0.007,0 -0.0226,-0.01 -0.0457,-0.015 -0.0661,-0.026 0,-0.01 -0.006,-0.01 -0.007,-0.01 -0.009,-0.01 -0.0181,-0.01 -0.0265,-0.016 0,0 0,0 0,0 0,-0.01 -0.006,-0.01 -0.006,-0.01 -0.10205,-0.072 -0.16749,-0.1916 -0.16749,-0.3261 0,-0.2199 0.17686,-0.3967 0.39671,-0.3967 0.0547,0 0.10883,0.011 0.15644,0.031 0.0214,0.01 0.0401,0.02 0.0595,0.033 0.0107,0.01 0.0209,0.014 0.031,0.022 0,0.01 0.006,0.01 0.007,0.01 0.085,0.073 0.13884,0.1811 0.13884,0.302 0,0.2198 -0.17686,0.3989 -0.39671,0.3989 z m 13.83722,-2.6709 -20.8385002,0 0,-7.149 c 0,-0.8408 0.59163,-1.5183 1.32667,-1.5183 l 18.1852202,0 c 0.73498,0 1.32661,0.6775 1.32661,1.5183 l 0,7.149 z m -5.12586,-1.9878 c 0.97142,0 1.75418,-0.7827 1.75418,-1.7541 0,-0.9714 -0.78276,-1.752 -1.75418,-1.752 l -10.5205998,0 c -0.9714204,0 -1.7541904,0.7806 -1.7541904,1.752 0,0.9714 0.78277,1.7541 1.7541904,1.7541 l 10.5205998,0 z m -0.22256,-0.4892 c -0.23757,0 -0.46018,-0.065 -0.65013,-0.1785 l 0.18955,-0.2776 c 0,-0.01 0.006,-0.01 0,-0.01 l -0.27988,-0.1961 c 0,0 -0.006,0 -0.007,0 0,0 -0.006,0 -0.006,0.01 l -0.17849,0.2556 c -0.20118,-0.2171 -0.32569,-0.5049 -0.335,-0.8219 l 0.3526,0.022 c 0.006,0 0.008,-0.01 0.009,-0.01 l 0.0243,-0.3416 c 3.4e-4,-0.01 -0.006,-0.01 -0.009,-0.01 l -0.3372,-0.024 c 0.0727,-0.2814 0.23943,-0.5245 0.46498,-0.6942 l 0.1653,0.3086 c 0,0.01 0.009,0.01 0.013,0.01 l 0.29753,-0.1609 c 0.006,0 0.006,-0.01 0,-0.014 l -0.1653,-0.3108 c 0.13896,-0.052 0.29009,-0.082 0.44738,-0.082 0.2093,0 0.40568,0.051 0.57956,0.141 l -0.1807,0.2667 c 0,0.01 0,0.01 0,0.011 l 0.27988,0.1917 c 0.006,0.01 0.0107,0.01 0.013,0 l 0.1763,-0.26 c 0.22628,0.2149 0.37335,0.5121 0.39231,0.844 l -0.3504,-0.014 c -0.006,0 -0.0107,0.01 -0.0113,0.01 l -0.013,0.3372 c -2.2e-4,0.01 0.006,0.011 0.009,0.011 l 0.335,0.013 c -0.072,0.3155 -0.26115,0.5855 -0.5201,0.7625 l -0.1763,-0.3416 c 0,0 -0.006,-0.01 -0.007,-0.01 0,-0.01 -0.006,-0.01 -0.007,0 l -0.29973,0.1586 c -0.006,0.01 -0.007,0.01 -0.006,0.011 l 0.1741,0.335 c -0.12378,0.041 -0.25495,0.06 -0.39226,0.06 z m -9.92344,0 c -0.2375098,0 -0.4601898,-0.065 -0.6500798,-0.1785 l 0.1917,-0.2776 c 0,-0.01 0,-0.01 0,-0.01 l -0.27768,-0.1961 c 0,0 -0.006,0 -0.007,0 0,0 -0.006,0 -0.006,0.01 l -0.1785,0.2556 c -0.2011704,-0.2171 -0.3256304,-0.5049 -0.3349404,-0.8219 l 0.3526004,0.022 c 0.006,0 0.009,-0.01 0.009,-0.01 l 0.0243,-0.3416 c 2.8e-4,-0.01 -0.006,-0.01 -0.009,-0.01 l -0.3371404,-0.024 c 0.0727,-0.2814 0.2393704,-0.5245 0.4649804,-0.6942 l 0.1653,0.3086 c 0,0.01 0.007,0.01 0.0113,0.01 l 0.29968,-0.1609 c 0.006,0 0.006,-0.01 0,-0.014 l -0.16524,-0.3108 c 0.13889,-0.052 0.28783,-0.082 0.4451098,-0.082 0.20931,0 0.40789,0.051 0.58182,0.141 l -0.1807,0.2667 c 0,0.01 0,0.01 0,0.011 l 0.27988,0.1917 c 0.006,0.01 0.0107,0.01 0.013,0 l 0.17629,-0.26 c 0.22623,0.2149 0.37336,0.5121 0.39226,0.844 l -0.35039,-0.014 c -0.006,0 -0.0107,0.01 -0.0107,0.01 l -0.0135,0.3372 c -1.2e-4,0.01 0.006,0.011 0.009,0.011 l 0.33493,0.013 c -0.0719,0.3155 -0.26109,0.5855 -0.52003,0.7625 l -0.1763,-0.3416 c 0,0 -0.006,-0.01 -0.007,-0.01 0,-0.01 -0.006,-0.01 -0.007,0 l -0.29968,0.1586 c -0.006,0.01 -0.007,0.01 -0.006,0.011 l 0.17409,0.335 c -0.12383,0.041 -0.25714,0.06 -0.39445,0.06 z m 7.27236,-1.1724 -5.07966,0 c -0.006,0 0.1609,-0.01 0.1609,-0.01 l -0.1675,-1.4721 c 0,-0.01 0,-0.01 0.007,-0.01 l 5.24704,0 c 0.006,0 0.0113,0.01 0.0113,0.01 l -0.1785,1.4809 z"
       id="path6001-0"
       inkscape:connector-curvature="0" />
  </g>
</svg>
