<?xml version="1.0" encoding="UTF-8" standalone="no"?>
<!-- Created with Inkscape (http://www.inkscape.org/) -->

<svg
   xmlns:dc="http://purl.org/dc/elements/1.1/"
   xmlns:cc="http://creativecommons.org/ns#"
   xmlns:rdf="http://www.w3.org/1999/02/22-rdf-syntax-ns#"
   xmlns:svg="http://www.w3.org/2000/svg"
   xmlns="http://www.w3.org/2000/svg"
   xmlns:sodipodi="http://sodipodi.sourceforge.net/DTD/sodipodi-0.dtd"
   xmlns:inkscape="http://www.inkscape.org/namespaces/inkscape"
   width="30"
   height="30"
   id="svg2"
   sodipodi:version="0.32"
   inkscape:version="0.48.4 r9939"
   sodipodi:docname="thermometer.svg"
   inkscape:output_extension="org.inkscape.output.svg.inkscape"
   version="1.1">
  <defs
     id="defs4" />
  <sodipodi:namedview
     id="base"
     pagecolor="#ffffff"
     bordercolor="#666666"
     borderopacity="1.0"
     inkscape:pageopacity="0.0"
     inkscape:pageshadow="2"
     inkscape:zoom="10.276087"
     inkscape:cx="15.344828"
     inkscape:cy="14.482759"
     inkscape:document-units="px"
     inkscape:current-layer="layer1"
     inkscape:window-width="656"
     inkscape:window-height="1029"
     inkscape:window-x="0"
     inkscape:window-y="19"
     showgrid="false"
     inkscape:window-maximized="0" />
  <metadata
     id="metadata7">
    <rdf:RDF>
      <cc:Work
         rdf:about="">
        <dc:format>image/svg+xml</dc:format>
        <dc:type
           rdf:resource="http://purl.org/dc/dcmitype/StillImage" />
        <dc:title></dc:title>
      </cc:Work>
    </rdf:RDF>
  </metadata>
  <g
     inkscape:label="Capa 1"
     inkscape:groupmode="layer"
     id="layer1"
     transform="translate(0,-1022.3622)">
    <path
       sodipodi:type="arc"
       style="color:#000000;fill:#1a1a1a;stroke:#d4d4d4;stroke-width:1.02777779;stroke-opacity:1;marker:none;visibility:visible;display:inline;overflow:visible;enable-background:accumulate"
       id="path16617-6-6"
       sodipodi:cx="15.16226"
       sodipodi:cy="16.56851"
       sodipodi:rx="14.008413"
       sodipodi:ry="14.008413"
       d="m 29.170673,16.56851 a 14.008413,14.008413 0 1 1 -28.0168263,0 14.008413,14.008413 0 1 1 28.0168263,0 z"
       transform="matrix(0.97297297,0,0,0.97297297,330.50795,953.63241)" />
    <path
       style="fill:#1a1a1a;stroke:#d4d4d4;stroke-width:1px;stroke-linecap:butt;stroke-linejoin:miter;stroke-opacity:1"
       d="m 345.29648,957.89011 0,11.863 0,0"
       id="path16623-6-2"
       inkscape:connector-curvature="0"
       inkscape:transform-center-y="-5.9314904" />
    <path
       style="fill:#1a1a1a;stroke:#d4d4d4;stroke-width:1px;stroke-linecap:butt;stroke-linejoin:miter;stroke-opacity:1"
       d="m 357.15947,969.75311 -1.70877,0 0,0"
       id="path16623-4-2-0"
       inkscape:connector-curvature="0"
       inkscape:transform-center-x="-0.854382" />
    <path
       style="fill:#1a1a1a;stroke:#d4d4d4;stroke-width:0.99999994px;stroke-linecap:butt;stroke-linejoin:miter;stroke-opacity:1"
       d="m 345.29648,981.61611 0,-2.0181 0,0"
       id="path16623-4-3-9-0"
       inkscape:connector-curvature="0"
       inkscape:transform-center-y="1.0091015" />
    <path
       style="fill:#1a1a1a;stroke:#d4d4d4;stroke-width:1px;stroke-linecap:butt;stroke-linejoin:miter;stroke-opacity:1"
       d="m 333.43348,969.75311 11.863,0 0,0"
       id="path16623-4-3-4-1-0"
       inkscape:connector-curvature="0"
       inkscape:transform-center-x="5.9315" />
    <path
       inkscape:connector-curvature="0"
       sodipodi:nodetypes="cccccccccccccc"
       id="path9518-0-7"
       d="m 14.999994,1025.9915 -11.2422196,9.9235 2.2484301,0 0,12.8177 6.7453475,0 0,-7.5644 4.651059,0 1.3e-5,7.5644 6.591159,0 0,-12.8177 2.248444,0 -11.242237,-9.9235 0,0 0,0 z"
       style="font-size:12px;fill:none;stroke:none" />
    <path
       id="path8723-4-1-6"
       style="font-size:21.18834114px;font-style:normal;font-variant:normal;font-weight:500;font-stretch:normal;text-indent:0;text-align:start;text-decoration:none;line-height:125%;letter-spacing:0px;word-spacing:0px;text-transform:none;direction:ltr;block-progression:tb;writing-mode:lr-tb;text-anchor:start;color:#000000;fill:#1a1a1a;fill-opacity:1;fill-rule:nonzero;stroke:none;stroke-width:1px;marker:none;visibility:visible;font-family:News Cycle;-inkscape-font-specification:News Cycle Medium"
       d="m 20.783945,1030.965 0.0314,-0.084 0.0957,0.035 c 0.008,-0.026 0.0146,-0.046 0.0203,-0.062 0.006,-0.015 0.0145,-0.037 0.0263,-0.065 l -0.0949,-0.035 0.0314,-0.084 0.10232,0.039 c 0.0693,-0.1302 0.1541,-0.2289 0.25441,-0.2962 0.052,-0.035 0.1094,-0.057 0.17228,-0.063 0.0631,-0.01 0.12186,0 0.17632,0.019 0.0545,0.02 0.0976,0.044 0.12928,0.072 0.0325,0.027 0.0574,0.056 0.0747,0.087 0.0178,0.031 0.0322,0.063 0.0429,0.097 0.0112,0.034 0.0181,0.066 0.0206,0.096 0.006,0.063 0.007,0.1096 10e-4,0.1417 l -0.003,0.022 -3e-4,0 -0.13702,-0.011 0.005,-0.033 c 0.0157,-0.096 0.009,-0.1767 -0.0212,-0.243 -0.0244,-0.055 -0.0691,-0.095 -0.134,-0.1196 -0.1832,-0.069 -0.33736,0.023 -0.46248,0.2768 l 0.31523,0.1176 -0.0314,0.084 -0.32101,-0.1198 c -0.006,0.014 -0.0131,0.033 -0.0215,0.055 -0.008,0.023 -0.0165,0.047 -0.0243,0.072 l 0.31936,0.1192 -0.0314,0.084 -0.31358,-0.1171 c -0.065,0.2666 -0.008,0.4332 0.17065,0.4999 0.12597,0.047 0.24083,0.01 0.34457,-0.1195 0.0188,-0.023 0.0348,-0.047 0.0478,-0.068 l 0.11257,0.064 c -0.0549,0.085 -0.12459,0.1516 -0.2092,0.2003 -0.10603,0.06 -0.21735,0.069 -0.33398,0.026 -0.15294,-0.057 -0.24273,-0.1684 -0.26936,-0.3338 -0.0153,-0.093 -0.01,-0.1979 0.0165,-0.3134 l -0.10316,-0.039 m -1.02986,-0.3846 0.0314,-0.084 0.0957,0.035 c 0.008,-0.026 0.0146,-0.046 0.0203,-0.062 0.006,-0.016 0.0145,-0.037 0.0263,-0.066 l -0.0949,-0.035 0.0314,-0.084 0.10232,0.038 c 0.0693,-0.1302 0.15409,-0.2288 0.25441,-0.2961 0.052,-0.035 0.1094,-0.057 0.17228,-0.063 0.0631,-0.01 0.12185,0 0.17632,0.019 0.0545,0.02 0.0976,0.045 0.12928,0.072 0.0325,0.027 0.0574,0.057 0.0747,0.087 0.0178,0.031 0.0322,0.063 0.0428,0.097 0.0112,0.033 0.0181,0.066 0.0206,0.096 0.006,0.063 0.007,0.1098 10e-4,0.1417 l -0.003,0.021 -3.3e-4,0 -0.13704,-0.01 0.005,-0.033 c 0.0157,-0.096 0.009,-0.1767 -0.0212,-0.2429 -0.0244,-0.055 -0.0691,-0.095 -0.13399,-0.1196 -0.18319,-0.069 -0.33736,0.023 -0.46248,0.2768 l 0.31523,0.1176 -0.0314,0.084 -0.32101,-0.1198 c -0.006,0.014 -0.0131,0.032 -0.0215,0.055 -0.008,0.023 -0.0165,0.047 -0.0243,0.072 l 0.31935,0.1193 -0.0314,0.084 -0.31358,-0.1171 c -0.065,0.2666 -0.008,0.4332 0.17064,0.5 0.12599,0.047 0.24084,0.01 0.34457,-0.1197 0.0188,-0.023 0.0348,-0.046 0.0478,-0.068 l 0.11257,0.064 c -0.0549,0.085 -0.12459,0.1514 -0.20919,0.2001 -0.10603,0.06 -0.21736,0.07 -0.33398,0.026 -0.15294,-0.057 -0.24273,-0.1683 -0.26937,-0.3337 -0.0153,-0.093 -0.01,-0.198 0.0165,-0.3136 l -0.10315,-0.039 m -1.02981,-0.3844 0.0314,-0.084 0.0957,0.035 c 0.008,-0.026 0.0146,-0.047 0.0203,-0.062 0.006,-0.016 0.0145,-0.037 0.0263,-0.065 l -0.0949,-0.035 0.0314,-0.084 0.10232,0.038 c 0.0693,-0.1302 0.1541,-0.2289 0.25441,-0.2962 0.052,-0.035 0.10941,-0.057 0.17228,-0.063 0.0631,-0.01 0.12186,0 0.17632,0.019 0.0545,0.02 0.0976,0.044 0.12928,0.072 0.0325,0.027 0.0574,0.057 0.0747,0.087 0.0178,0.031 0.0321,0.063 0.0429,0.097 0.0112,0.034 0.0181,0.066 0.0206,0.096 0.006,0.063 0.007,0.1097 10e-4,0.1416 l -0.003,0.022 -3.4e-4,0 -0.13703,-0.011 0.005,-0.034 c 0.0157,-0.096 0.009,-0.1766 -0.0212,-0.2429 -0.0244,-0.055 -0.0691,-0.095 -0.134,-0.1196 -0.18319,-0.069 -0.33735,0.023 -0.46248,0.2767 l 0.31523,0.1177 -0.0314,0.084 -0.321,-0.1199 c -0.006,0.014 -0.0131,0.033 -0.0215,0.055 -0.008,0.023 -0.0165,0.047 -0.0243,0.073 l 0.31935,0.1192 -0.0314,0.084 -0.31358,-0.117 c -0.065,0.2666 -0.008,0.4332 0.17064,0.4999 0.12598,0.047 0.24083,0.01 0.34456,-0.1195 0.0189,-0.023 0.0348,-0.047 0.0478,-0.068 l 0.11257,0.064 c -0.0549,0.085 -0.12458,0.1516 -0.20919,0.2002 -0.10603,0.06 -0.21735,0.069 -0.33398,0.026 -0.15294,-0.057 -0.24273,-0.1683 -0.26937,-0.3337 -0.0153,-0.093 -0.01,-0.1979 0.0165,-0.3136 l -0.10314,-0.038 m -1.02983,-0.3844 0.0314,-0.084 0.0957,0.035 c 0.008,-0.026 0.0146,-0.047 0.0203,-0.062 0.006,-0.015 0.0145,-0.037 0.0263,-0.065 l -0.0949,-0.035 0.0314,-0.084 0.10232,0.039 c 0.0693,-0.1301 0.1541,-0.2288 0.25441,-0.2961 0.052,-0.035 0.10941,-0.057 0.17228,-0.063 0.0631,-0.01 0.12186,0 0.17633,0.019 0.0545,0.02 0.0976,0.044 0.12927,0.072 0.0325,0.027 0.0574,0.057 0.0747,0.087 0.0178,0.031 0.0322,0.063 0.0428,0.097 0.0112,0.034 0.0181,0.066 0.0206,0.096 0.006,0.063 0.007,0.1097 10e-4,0.1416 l -0.003,0.022 -3.3e-4,0 -0.13703,-0.011 0.005,-0.034 c 0.0157,-0.096 0.009,-0.1767 -0.0212,-0.2429 -0.0244,-0.055 -0.0691,-0.095 -0.13399,-0.1197 -0.1832,-0.069 -0.33736,0.024 -0.46249,0.2768 l 0.31523,0.1177 -0.0314,0.084 -0.321,-0.1198 c -0.006,0.014 -0.0131,0.032 -0.0215,0.055 -0.008,0.023 -0.0165,0.047 -0.0243,0.072 l 0.31936,0.1192 -0.0314,0.084 -0.31358,-0.1171 c -0.065,0.2665 -0.008,0.4333 0.17064,0.5 0.12598,0.047 0.24084,0.01 0.34457,-0.1196 0.0188,-0.023 0.0348,-0.047 0.0478,-0.068 l 0.11257,0.064 c -0.0549,0.085 -0.12459,0.1515 -0.20919,0.2002 -0.10604,0.06 -0.21736,0.07 -0.33399,0.026 -0.15294,-0.057 -0.24272,-0.1683 -0.26936,-0.3337 -0.0153,-0.093 -0.01,-0.198 0.0164,-0.3136 l -0.10315,-0.038 m -1.02982,-0.3845 0.0314,-0.084 0.0957,0.035 c 0.008,-0.026 0.0146,-0.047 0.0203,-0.062 0.006,-0.015 0.0145,-0.037 0.0263,-0.065 l -0.0949,-0.035 0.0314,-0.084 0.10233,0.039 c 0.0693,-0.1302 0.15409,-0.2289 0.25441,-0.2962 0.052,-0.035 0.1094,-0.057 0.17228,-0.063 0.0631,-0.01 0.12185,0 0.17631,0.019 0.0545,0.02 0.0976,0.044 0.12928,0.072 0.0325,0.027 0.0574,0.056 0.0747,0.087 0.0178,0.031 0.0322,0.063 0.0429,0.097 0.0112,0.034 0.0181,0.066 0.0206,0.096 0.006,0.063 0.007,0.1096 10e-4,0.1416 l -0.003,0.022 -2.6e-4,0 -0.13702,-0.011 0.005,-0.034 c 0.0157,-0.096 0.009,-0.1766 -0.0212,-0.243 -0.0244,-0.055 -0.0691,-0.095 -0.134,-0.1196 -0.18319,-0.069 -0.33735,0.024 -0.46248,0.2768 l 0.31523,0.1178 -0.0314,0.084 -0.321,-0.1199 c -0.006,0.014 -0.013,0.033 -0.0215,0.055 -0.008,0.023 -0.0165,0.047 -0.0243,0.072 l 0.31935,0.1192 -0.0314,0.084 -0.31357,-0.1171 c -0.065,0.2666 -0.008,0.4332 0.17064,0.5 0.12598,0.047 0.24083,0.01 0.34457,-0.1197 0.0188,-0.023 0.0348,-0.047 0.0478,-0.068 l 0.11257,0.064 c -0.0549,0.085 -0.12459,0.1515 -0.2092,0.2002 -0.10602,0.06 -0.21735,0.07 -0.33398,0.026 -0.15294,-0.057 -0.24273,-0.1684 -0.26936,-0.3338 -0.0153,-0.093 -0.01,-0.1979 0.0165,-0.3135 l -0.10316,-0.039 m -1.02991,-0.3845 0.0314,-0.084 0.0957,0.035 c 0.008,-0.026 0.0146,-0.046 0.0203,-0.062 0.006,-0.016 0.0145,-0.037 0.0263,-0.066 l -0.0949,-0.035 0.0314,-0.084 0.10233,0.038 c 0.0693,-0.1302 0.15409,-0.2289 0.2544,-0.2961 0.052,-0.035 0.10941,-0.057 0.17228,-0.063 0.0631,-0.01 0.12186,0 0.17633,0.019 0.0545,0.02 0.0976,0.045 0.12928,0.072 0.0325,0.027 0.0574,0.056 0.0747,0.087 0.0178,0.031 0.0322,0.063 0.0429,0.097 0.0112,0.034 0.0181,0.066 0.0206,0.096 0.006,0.063 0.007,0.1097 10e-4,0.1417 l -0.003,0.021 -3.5e-4,0 -0.13702,-0.01 0.005,-0.033 c 0.0157,-0.096 0.009,-0.1767 -0.0212,-0.243 -0.0244,-0.055 -0.0691,-0.095 -0.134,-0.1196 -0.1832,-0.069 -0.33736,0.024 -0.46248,0.2767 l 0.31523,0.1177 -0.0314,0.084 -0.32101,-0.1198 c -0.006,0.014 -0.0131,0.033 -0.0215,0.055 -0.008,0.023 -0.0165,0.047 -0.0243,0.072 l 0.31936,0.1192 -0.0314,0.084 -0.31358,-0.1171 c -0.065,0.2665 -0.008,0.4332 0.17063,0.4999 0.12598,0.047 0.24084,0.01 0.34457,-0.1195 0.0188,-0.023 0.0348,-0.047 0.0478,-0.068 l 0.11257,0.064 c -0.0549,0.085 -0.12459,0.1515 -0.20919,0.2002 -0.10603,0.06 -0.21735,0.069 -0.33398,0.026 -0.15294,-0.057 -0.24273,-0.1683 -0.26937,-0.3338 -0.0153,-0.093 -0.01,-0.1979 0.0165,-0.3134 l -0.10315,-0.039 m -1.02982,-0.3845 0.0314,-0.084 0.0957,0.035 c 0.008,-0.026 0.0146,-0.047 0.0203,-0.062 0.006,-0.016 0.0145,-0.037 0.0263,-0.066 l -0.0949,-0.035 0.0314,-0.084 0.10233,0.038 c 0.0693,-0.1302 0.15409,-0.2288 0.25441,-0.2961 0.052,-0.035 0.1094,-0.057 0.17228,-0.063 0.0631,-0.01 0.12185,0 0.17632,0.019 0.0545,0.02 0.0976,0.044 0.12928,0.072 0.0325,0.027 0.0574,0.057 0.0747,0.087 0.0178,0.031 0.0322,0.063 0.0428,0.097 0.0112,0.033 0.0181,0.066 0.0206,0.096 0.006,0.063 0.007,0.1097 10e-4,0.1417 l -0.003,0.021 -3.4e-4,0 -0.13702,-0.01 0.005,-0.033 c 0.0157,-0.096 0.009,-0.1767 -0.0212,-0.2429 -0.0244,-0.055 -0.0691,-0.095 -0.13399,-0.1196 -0.1832,-0.069 -0.33736,0.024 -0.46249,0.2768 l 0.31524,0.1176 -0.0314,0.084 -0.32101,-0.1198 c -0.006,0.014 -0.0131,0.032 -0.0215,0.055 -0.008,0.023 -0.0165,0.047 -0.0243,0.072 l 0.31936,0.1193 -0.0314,0.084 -0.31358,-0.1171 c -0.065,0.2666 -0.008,0.4332 0.17064,0.5 0.12598,0.047 0.24084,0.01 0.34457,-0.1196 0.0188,-0.023 0.0348,-0.047 0.0478,-0.068 l 0.11257,0.064 c -0.0549,0.085 -0.12458,0.1515 -0.20918,0.2002 -0.10604,0.06 -0.21736,0.069 -0.33399,0.026 -0.15294,-0.057 -0.24273,-0.1684 -0.26936,-0.3337 -0.0153,-0.093 -0.01,-0.198 0.0164,-0.3136 l -0.10315,-0.039 m 1.65333,-2.6181 -2.43178,0.9019 -0.0692,2.2243 c -2.58803,1.748 -4.75487,4.0925 -5.14024,8.9608 l -2.15241,0.9711 -0.27936,1.4607 -1.66553,0.9019 -0.20752,3.1262 9.58341,4.0282 1.87571,-0.6944 1.80654,0.7635 7.98973,-3.4029 0.13834,-3.8206 -1.25047,-0.8328 0.97377,-11.185 -9.17102,-3.4029 z m -1.73736,1.5272 8.40743,2.9878 -0.21018,1.8758 -8.3356,-2.9187 0.13835,-1.9449 z m -3.09426,5.1322 c 0.26855,0 0.48689,0.2184 0.48689,0.487 0,0.2685 -0.21834,0.4868 -0.48689,0.4868 -0.26855,0 -0.48689,-0.2183 -0.48689,-0.4868 0,-0.2686 0.21834,-0.487 0.48689,-0.487 z m 1.33561,0.5162 c 0.26855,0 0.48689,0.2157 0.48689,0.4842 0,0.2686 -0.21834,0.4869 -0.48689,0.4869 -0.26854,0 -0.48689,-0.2183 -0.48689,-0.4869 0,-0.2685 0.21835,-0.4842 0.48689,-0.4842 z m 1.27975,0.4923 c 0.26854,0 0.48688,0.2183 0.48688,0.4867 0,0.2687 -0.21834,0.4843 -0.48688,0.4843 -0.26855,0 -0.48689,-0.2156 -0.48689,-0.4843 0,-0.2684 0.21834,-0.4867 0.48689,-0.4867 z m 1.309,0.5028 c 0.26855,0 0.48423,0.2183 0.48423,0.4869 0,0.2685 -0.21568,0.4868 -0.48423,0.4868 -0.26855,0 -0.48688,-0.2183 -0.48688,-0.4868 0,-0.2686 0.21833,-0.4869 0.48688,-0.4869 z m 1.22919,0.4736 c 0.26855,0 0.48423,0.2184 0.48423,0.4868 0,0.2686 -0.21568,0.4842 -0.48423,0.4842 -0.26855,0 -0.48689,-0.2156 -0.48689,-0.4842 0,-0.2684 0.21834,-0.4868 0.48689,-0.4868 z m -6.88825,0.5561 c 0.26855,0 0.48423,0.2182 0.48423,0.4868 0,0.2686 -0.21568,0.4869 -0.48423,0.4869 -0.26855,0 -0.48688,-0.2183 -0.48688,-0.4869 0,-0.2686 0.21833,-0.4868 0.48688,-0.4868 z m 8.15735,0.01 c 0.26854,0 0.48688,0.2184 0.48688,0.4869 0,0.2685 -0.21834,0.4869 -0.48688,0.4869 -0.26855,0 -0.48689,-0.2184 -0.48689,-0.4869 0,-0.2685 0.21834,-0.4869 0.48689,-0.4869 z m -6.97871,0.4124 c 0.26855,0 0.48689,0.2157 0.48689,0.4842 0,0.2686 -0.21834,0.487 -0.48689,0.487 -0.26855,0 -0.48423,-0.2184 -0.48423,-0.487 0,-0.2685 0.21568,-0.4842 0.48423,-0.4842 z m 1.25048,0.4842 c 0.26854,0 0.48688,0.2183 0.48688,0.487 0,0.2684 -0.21834,0.4868 -0.48688,0.4868 -0.26855,0 -0.48424,-0.2184 -0.48424,-0.4868 0,-0.2687 0.21569,-0.487 0.48424,-0.487 z m 1.18129,0.487 c 0.26855,0 0.48688,0.2183 0.48688,0.4868 0,0.2686 -0.21833,0.4869 -0.48688,0.4869 -0.26854,0 -0.48422,-0.2183 -0.48422,-0.4869 0,-0.2685 0.21568,-0.4868 0.48422,-0.4868 z m 1.38882,0.4176 c 0.26855,0 0.48689,0.2184 0.48689,0.4869 0,0.2686 -0.21834,0.4843 -0.48689,0.4843 -0.26854,0 -0.48422,-0.2157 -0.48422,-0.4843 0,-0.2685 0.21568,-0.4869 0.48422,-0.4869 z m 1.25048,0.5561 c 0.26855,0 0.48688,0.2157 0.48688,0.4842 0,0.2686 -0.21833,0.4869 -0.48688,0.4869 -0.26854,0 -0.48423,-0.2183 -0.48423,-0.4869 0,-0.2685 0.21569,-0.4842 0.48423,-0.4842 z m 1.1813,0.4842 c 0.26854,0 0.48688,0.2183 0.48688,0.4869 0,0.2686 -0.21834,0.4869 -0.48688,0.4869 -0.26855,0 -0.48423,-0.2183 -0.48423,-0.4869 0,-0.2686 0.21568,-0.4869 0.48423,-0.4869 z"
       inkscape:connector-curvature="0" />
  </g>
</svg>
