<?xml version="1.0" encoding="UTF-8" standalone="no"?>
<!-- Created with Inkscape (http://www.inkscape.org/) -->

<svg
   xmlns:dc="http://purl.org/dc/elements/1.1/"
   xmlns:cc="http://creativecommons.org/ns#"
   xmlns:rdf="http://www.w3.org/1999/02/22-rdf-syntax-ns#"
   xmlns:svg="http://www.w3.org/2000/svg"
   xmlns="http://www.w3.org/2000/svg"
   xmlns:sodipodi="http://sodipodi.sourceforge.net/DTD/sodipodi-0.dtd"
   xmlns:inkscape="http://www.inkscape.org/namespaces/inkscape"
   width="30"
   height="30"
   id="svg2"
   sodipodi:version="0.32"
   inkscape:version="0.48.4 r9939"
   sodipodi:docname="by.svg"
   inkscape:output_extension="org.inkscape.output.svg.inkscape"
   version="1.1">
  <defs
     id="defs4">
    <clipPath
       clipPathUnits="userSpaceOnUse"
       id="clipPath17670-8">
      <path
         inkscape:connector-curvature="0"
         d="m 0,288.75 201.25,0 L 201.25,0 0,0 0,288.75 z"
         id="path17672-4" />
    </clipPath>
    <clipPath
       clipPathUnits="userSpaceOnUse"
       id="clipPath18098-9">
      <path
         inkscape:connector-curvature="0"
         d="m 0,288.75 201.25,0 L 201.25,0 0,0 0,288.75 z"
         id="path18100-2" />
    </clipPath>
    <clipPath
       clipPathUnits="userSpaceOnUse"
       id="clipPath17356-3">
      <path
         inkscape:connector-curvature="0"
         d="m 0,288.75 201.25,0 L 201.25,0 0,0 0,288.75 z"
         id="path17358-6" />
    </clipPath>
    <clipPath
       clipPathUnits="userSpaceOnUse"
       id="clipPath18256-8">
      <path
         inkscape:connector-curvature="0"
         d="m 0,288.75 201.25,0 L 201.25,0 0,0 0,288.75 z"
         id="path18258-5" />
    </clipPath>
    <clipPath
       clipPathUnits="userSpaceOnUse"
       id="clipPath17038-7">
      <path
         inkscape:connector-curvature="0"
         d="m 0,288.75 201.25,0 L 201.25,0 0,0 0,288.75 z"
         id="path17040-4" />
    </clipPath>
  </defs>
  <sodipodi:namedview
     id="base"
     pagecolor="#ffffff"
     bordercolor="#666666"
     borderopacity="1.0"
     inkscape:pageopacity="0.0"
     inkscape:pageshadow="2"
     inkscape:zoom="10.2"
     inkscape:cx="15"
     inkscape:cy="15"
     inkscape:document-units="px"
     inkscape:current-layer="layer1"
     inkscape:window-width="656"
     inkscape:window-height="1029"
     inkscape:window-x="0"
     inkscape:window-y="19"
     showgrid="false"
     inkscape:window-maximized="0" />
  <metadata
     id="metadata7">
    <rdf:RDF>
      <cc:Work
         rdf:about="">
        <dc:format>image/svg+xml</dc:format>
        <dc:type
           rdf:resource="http://purl.org/dc/dcmitype/StillImage" />
        <dc:title></dc:title>
      </cc:Work>
    </rdf:RDF>
  </metadata>
  <g
     inkscape:label="Capa 1"
     inkscape:groupmode="layer"
     id="layer1"
     transform="translate(0,-1022.3622)">
    <path
       sodipodi:type="arc"
       style="color:#000000;fill:#1a1a1a;stroke:#d4d4d4;stroke-width:1.02777779;stroke-opacity:1;marker:none;visibility:visible;display:inline;overflow:visible;enable-background:accumulate"
       id="path16617-6-6"
       sodipodi:cx="15.16226"
       sodipodi:cy="16.56851"
       sodipodi:rx="14.008413"
       sodipodi:ry="14.008413"
       d="m 29.170673,16.56851 c 0,7.736633 -6.27178,14.008413 -14.008413,14.008413 -7.736633,0 -14.0084133,-6.27178 -14.0084133,-14.008413 0,-7.736633 6.2717803,-14.0084133 14.0084133,-14.0084133 7.736633,0 14.008413,6.2717803 14.008413,14.0084133 z"
       transform="matrix(0.97297297,0,0,0.97297297,330.50795,953.63241)" />
    <path
       style="fill:#1a1a1a;stroke:#d4d4d4;stroke-width:1px;stroke-linecap:butt;stroke-linejoin:miter;stroke-opacity:1"
       d="m 345.29648,957.89011 0,11.863 0,0"
       id="path16623-6-2"
       inkscape:connector-curvature="0"
       inkscape:transform-center-y="-5.9314904" />
    <path
       style="fill:#1a1a1a;stroke:#d4d4d4;stroke-width:1px;stroke-linecap:butt;stroke-linejoin:miter;stroke-opacity:1"
       d="m 357.15947,969.75311 -1.70877,0 0,0"
       id="path16623-4-2-0"
       inkscape:connector-curvature="0"
       inkscape:transform-center-x="-0.854382" />
    <path
       style="fill:#1a1a1a;stroke:#d4d4d4;stroke-width:0.99999994px;stroke-linecap:butt;stroke-linejoin:miter;stroke-opacity:1"
       d="m 345.29648,981.61611 0,-2.0181 0,0"
       id="path16623-4-3-9-0"
       inkscape:connector-curvature="0"
       inkscape:transform-center-y="1.0091015" />
    <path
       style="fill:#1a1a1a;stroke:#d4d4d4;stroke-width:1px;stroke-linecap:butt;stroke-linejoin:miter;stroke-opacity:1"
       d="m 333.43348,969.75311 11.863,0 0,0"
       id="path16623-4-3-4-1-0"
       inkscape:connector-curvature="0"
       inkscape:transform-center-x="5.9315" />
    <path
       inkscape:connector-curvature="0"
       sodipodi:nodetypes="cccccccccccccc"
       id="path9518-0-7"
       d="m 14.999994,1025.9915 -11.2422196,9.9235 2.2484301,0 0,12.8177 6.7453475,0 0,-7.5644 4.651059,0 1.3e-5,7.5644 6.591159,0 0,-12.8177 2.248444,0 -11.242237,-9.9235 0,0 0,0 z"
       style="font-size:12px;fill:none;stroke:none" />
    <path
       id="path18041-5"
       d="m 23.013615,1029.3337 c 2.18597,2.1857 3.27912,4.8626 3.27912,8.0284 0,3.1665 -1.07421,5.8145 -3.22262,7.9441 -2.27998,2.2429 -4.97465,3.364 -8.08397,3.364 -3.07177,0 -5.71977,-1.112 -7.94327,-3.3359 -2.2238501,-2.2237 -3.3356101,-4.8809 -3.3356101,-7.9722 0,-3.0908 1.11176,-5.767 3.3356101,-8.0284 2.16701,-2.1864 4.815,-3.2795 7.94327,-3.2795 3.16617,0 5.84154,1.0931 8.02747,3.2795 z m -14.49905,1.4705 c -1.84811,1.8665 -2.77182,4.053 -2.77182,6.561 0,2.5073 0.91459,4.6752 2.74341,6.5035 1.82916,1.829 4.00671,2.7431 6.53333,2.7431 2.52662,0 4.72273,-0.9232 6.58945,-2.7708 1.77236,-1.7161 2.65888,-3.8738 2.65888,-6.4758 0,-2.5825 -0.90092,-4.7746 -2.70168,-6.5751 -1.80042,-1.8003 -3.98251,-2.7007 -6.54665,-2.7007 -2.56415,0 -4.73291,0.905 -6.50492,2.7147 z m 4.86343,5.4579 c -0.28241,-0.6157 -0.70513,-0.9237 -1.26891,-0.9237 -0.99669,0 -1.49485,0.671 -1.49485,2.0125 0,1.3417 0.49816,2.012 1.49485,2.012 0.65814,0 1.12824,-0.3265 1.4103,-0.9811 l 1.38152,0.7356 c -0.65849,1.1699 -1.64639,1.755 -2.96371,1.755 -1.01597,0 -1.82987,-0.3115 -2.44101,-0.9338 -0.61219,-0.623 -0.9174,-1.4817 -0.9174,-2.5765 0,-1.0755 0.31503,-1.9293 0.94546,-2.5618 0.63043,-0.6324 1.41555,-0.9485 2.35681,-0.9485 1.3924,0 2.38942,0.5486 2.99214,1.6448 l -1.4952,0.7655 z m 6.49966,0 c -0.28277,-0.6157 -0.69707,-0.9237 -1.24332,-0.9237 -1.01668,0 -1.52538,0.671 -1.52538,2.0125 0,1.3417 0.5087,2.012 1.52538,2.012 0.65922,0 1.12087,-0.3265 1.38435,-0.9811 l 1.41241,0.7356 c -0.65746,1.1699 -1.64397,1.755 -2.95884,1.755 -1.01457,0 -1.82671,-0.3115 -2.4375,-0.9338 -0.60972,-0.623 -0.91527,-1.4817 -0.91527,-2.5765 0,-1.0755 0.31011,-1.9293 0.93001,-2.5618 0.61955,-0.6324 1.4082,-0.9485 2.36665,-0.9485 1.38994,0 2.38556,0.5486 2.98617,1.6448 l -1.52466,0.7655 z"
       inkscape:connector-curvature="0"
       style="fill:#1a1a1a;fill-opacity:1" />
  </g>
</svg>
