<?xml version="1.0" encoding="UTF-8" standalone="no"?>
<!-- Created with Inkscape (http://www.inkscape.org/) -->

<svg
   xmlns:dc="http://purl.org/dc/elements/1.1/"
   xmlns:cc="http://creativecommons.org/ns#"
   xmlns:rdf="http://www.w3.org/1999/02/22-rdf-syntax-ns#"
   xmlns:svg="http://www.w3.org/2000/svg"
   xmlns="http://www.w3.org/2000/svg"
   xmlns:sodipodi="http://sodipodi.sourceforge.net/DTD/sodipodi-0.dtd"
   xmlns:inkscape="http://www.inkscape.org/namespaces/inkscape"
   width="30"
   height="30"
   id="svg2"
   sodipodi:version="0.32"
   inkscape:version="0.48.4 r9939"
   sodipodi:docname="nd.svg"
   inkscape:output_extension="org.inkscape.output.svg.inkscape"
   version="1.1">
  <defs
     id="defs4">
    <clipPath
       clipPathUnits="userSpaceOnUse"
       id="clipPath17670-8">
      <path
         inkscape:connector-curvature="0"
         d="m 0,288.75 201.25,0 L 201.25,0 0,0 0,288.75 z"
         id="path17672-4" />
    </clipPath>
    <clipPath
       clipPathUnits="userSpaceOnUse"
       id="clipPath18098-9">
      <path
         inkscape:connector-curvature="0"
         d="m 0,288.75 201.25,0 L 201.25,0 0,0 0,288.75 z"
         id="path18100-2" />
    </clipPath>
    <clipPath
       clipPathUnits="userSpaceOnUse"
       id="clipPath17356-3">
      <path
         inkscape:connector-curvature="0"
         d="m 0,288.75 201.25,0 L 201.25,0 0,0 0,288.75 z"
         id="path17358-6" />
    </clipPath>
    <clipPath
       clipPathUnits="userSpaceOnUse"
       id="clipPath18256-8">
      <path
         inkscape:connector-curvature="0"
         d="m 0,288.75 201.25,0 L 201.25,0 0,0 0,288.75 z"
         id="path18258-5" />
    </clipPath>
    <clipPath
       clipPathUnits="userSpaceOnUse"
       id="clipPath17038-7">
      <path
         inkscape:connector-curvature="0"
         d="m 0,288.75 201.25,0 L 201.25,0 0,0 0,288.75 z"
         id="path17040-4" />
    </clipPath>
  </defs>
  <sodipodi:namedview
     id="base"
     pagecolor="#ffffff"
     bordercolor="#666666"
     borderopacity="1.0"
     inkscape:pageopacity="0.0"
     inkscape:pageshadow="2"
     inkscape:zoom="10.2"
     inkscape:cx="15"
     inkscape:cy="15"
     inkscape:document-units="px"
     inkscape:current-layer="layer1"
     inkscape:window-width="656"
     inkscape:window-height="1029"
     inkscape:window-x="0"
     inkscape:window-y="19"
     showgrid="false"
     inkscape:window-maximized="0" />
  <metadata
     id="metadata7">
    <rdf:RDF>
      <cc:Work
         rdf:about="">
        <dc:format>image/svg+xml</dc:format>
        <dc:type
           rdf:resource="http://purl.org/dc/dcmitype/StillImage" />
        <dc:title></dc:title>
      </cc:Work>
    </rdf:RDF>
  </metadata>
  <g
     inkscape:label="Capa 1"
     inkscape:groupmode="layer"
     id="layer1"
     transform="translate(0,-1022.3622)">
    <path
       sodipodi:type="arc"
       style="color:#000000;fill:#1a1a1a;stroke:#d4d4d4;stroke-width:1.02777779;stroke-opacity:1;marker:none;visibility:visible;display:inline;overflow:visible;enable-background:accumulate"
       id="path16617-6-6"
       sodipodi:cx="15.16226"
       sodipodi:cy="16.56851"
       sodipodi:rx="14.008413"
       sodipodi:ry="14.008413"
       d="m 29.170673,16.56851 c 0,7.736633 -6.27178,14.008413 -14.008413,14.008413 -7.736633,0 -14.0084133,-6.27178 -14.0084133,-14.008413 0,-7.736633 6.2717803,-14.0084133 14.0084133,-14.0084133 7.736633,0 14.008413,6.2717803 14.008413,14.0084133 z"
       transform="matrix(0.97297297,0,0,0.97297297,330.50795,953.63241)" />
    <path
       style="fill:#1a1a1a;stroke:#d4d4d4;stroke-width:1px;stroke-linecap:butt;stroke-linejoin:miter;stroke-opacity:1"
       d="m 345.29648,957.89011 0,11.863 0,0"
       id="path16623-6-2"
       inkscape:connector-curvature="0"
       inkscape:transform-center-y="-5.9314904" />
    <path
       style="fill:#1a1a1a;stroke:#d4d4d4;stroke-width:1px;stroke-linecap:butt;stroke-linejoin:miter;stroke-opacity:1"
       d="m 357.15947,969.75311 -1.70877,0 0,0"
       id="path16623-4-2-0"
       inkscape:connector-curvature="0"
       inkscape:transform-center-x="-0.854382" />
    <path
       style="fill:#1a1a1a;stroke:#d4d4d4;stroke-width:0.99999994px;stroke-linecap:butt;stroke-linejoin:miter;stroke-opacity:1"
       d="m 345.29648,981.61611 0,-2.0181 0,0"
       id="path16623-4-3-9-0"
       inkscape:connector-curvature="0"
       inkscape:transform-center-y="1.0091015" />
    <path
       style="fill:#1a1a1a;stroke:#d4d4d4;stroke-width:1px;stroke-linecap:butt;stroke-linejoin:miter;stroke-opacity:1"
       d="m 333.43348,969.75311 11.863,0 0,0"
       id="path16623-4-3-4-1-0"
       inkscape:connector-curvature="0"
       inkscape:transform-center-x="5.9315" />
    <path
       inkscape:connector-curvature="0"
       sodipodi:nodetypes="cccccccccccccc"
       id="path9518-0-7"
       d="m 14.999994,1025.9915 -11.2422196,9.9235 2.2484301,0 0,12.8177 6.7453475,0 0,-7.5644 4.651059,0 1.3e-5,7.5644 6.591159,0 0,-12.8177 2.248444,0 -11.242237,-9.9235 0,0 0,0 z"
       style="font-size:12px;fill:none;stroke:none" />
    <path
       inkscape:connector-curvature="0"
       d="m 14.984375,1026.0499 c -0.39104,0 -0.78023,0.028 -1.15625,0.063 -0.37603,0.034 -0.73274,0.088 -1.09375,0.1562 -0.72202,0.1367 -1.4318,0.3517 -2.09375,0.625 -0.99294,0.4101 -1.89229,0.9701 -2.75,1.6875 -0.28591,0.2392 -0.57288,0.4767 -0.84375,0.75 -0.006,0.01 0.005,0.026 0,0.031 -0.82637,0.8432 -1.51352,1.7292 -2.03125,2.6875 -0.004,0.01 0.004,0.024 0,0.031 -0.34125,0.6356 -0.63796,1.2827 -0.84375,1.9688 -0.003,0.01 0.003,0.022 0,0.031 -0.10039,0.3382 -0.18245,0.6809 -0.25,1.0314 -0.002,0.01 0.002,0.021 0,0.031 -0.13522,0.7118 -0.21875,1.4566 -0.21875,2.2189 0,0.7728 0.0798,1.5314 0.21875,2.25 0.0694,0.3587 0.14582,0.6859 0.25,1.0311 0.5192,1.7402 1.47734,3.29 2.875,4.6875 0.27793,0.278 0.55254,0.538 0.84375,0.7814 0.5824,0.4865 1.2083,0.9024 1.84375,1.25 0.31772,0.1737 0.63777,0.3297 0.96875,0.4686 0.66195,0.278 1.34754,0.4861 2.0625,0.625 0.35748,0.07 0.72302,0.1215 1.09375,0.1564 0.37072,0.035 0.74102,0.063 1.125,0.063 0.38866,0 0.78054,-0.028 1.15625,-0.063 0.37563,-0.035 0.73106,-0.086 1.09375,-0.1564 0.72549,-0.1401 1.42008,-0.3447 2.09375,-0.625 0.67366,-0.2802 1.31566,-0.642 1.9375,-1.0625 0.62183,-0.4204 1.2425,-0.9079 1.8125,-1.4686 0.26855,-0.2662 0.51501,-0.5301 0.75,-0.8125 0.23494,-0.282 0.45486,-0.5769 0.65625,-0.875 0.20667,-0.3064 0.35991,-0.6141 0.53125,-0.9375 0.33566,-0.6287 0.61108,-1.2754 0.8125,-1.9689 0.30212,-1.0416 0.46875,-2.1563 0.46875,-3.3436 0,-0.3952 -0.0284,-0.7764 -0.0625,-1.1564 -0.0683,-0.7609 -0.2013,-1.4878 -0.40625,-2.1875 -0.20496,-0.6996 -0.47093,-1.3615 -0.8125,-2 -0.33784,-0.6314 -0.77853,-1.241 -1.25,-1.8125 -0.23909,-0.2881 -0.47677,-0.5708 -0.75,-0.8437 -0.006,-0.01 0.006,-0.026 0,-0.031 -0.27325,-0.2732 -0.55522,-0.5108 -0.84375,-0.75 -0.86562,-0.7174 -1.80911,-1.2775 -2.8125,-1.6875 -0.66893,-0.2732 -1.36354,-0.4883 -2.09375,-0.625 -0.36503,-0.068 -0.74467,-0.1221 -1.125,-0.1562 -0.38044,-0.034 -0.76048,-0.063 -1.15625,-0.063 z m 0.0313,2.0625 c 0.32026,0 0.62929,0 0.9375,0.031 0.61641,0.057 1.21307,0.1745 1.78125,0.3438 1.13636,0.3388 2.18159,0.8969 3.125,1.6875 0.23585,0.1976 0.4637,0.4304 0.6875,0.6562 0.44596,0.4409 0.85152,0.8861 1.1875,1.375 0.005,0.01 -0.005,0.025 0,0.031 0.33109,0.4924 0.62189,1.0226 0.84375,1.5625 0.45206,1.0914 0.6875,2.2732 0.6875,3.5625 0,0.8497 -0.12231,1.6509 -0.3125,2.4062 l -6.1875,-2.75 0.15625,0 0,-1.3437 -3.1875,0 -1.3125,-0.5625 c 0.11197,-0.2515 0.25189,-0.4802 0.40625,-0.6563 0.58609,-0.7194 1.43618,-1.0312 2.34375,-1.0312 0.83177,0 1.6024,0.2606 2.09375,0.4687 l 0.53125,-2.1562 c -0.68085,-0.3018 -1.69086,-0.5625 -2.84375,-0.5625 -1.77655,0 -3.29756,0.728 -4.375,1.9375 -0.23912,0.2763 -0.43687,0.5781 -0.625,0.9062 l -3.71875,-1.6562 c 0.008,-0.012 0.0232,-0.019 0.0313,-0.031 0.17157,-0.2549 0.36186,-0.5052 0.5625,-0.75 0.014,-0.017 0.0171,-0.045 0.0313,-0.063 0.19733,-0.2375 0.43138,-0.4595 0.65625,-0.6875 0.22146,-0.2258 0.45371,-0.4586 0.6875,-0.6562 0.93515,-0.7906 1.96098,-1.3487 3.09375,-1.6875 0.56685,-0.1697 1.16493,-0.2872 1.78125,-0.3438 0.30795,-0.028 0.61714,-0.031 0.9375,-0.031 z m -8.78125,6.25 3,1.3125 -0.21875,0 0,1.3437 1.0625,0 c 0,0.1895 -0.0313,0.405 -0.0313,0.5938 l 0,0.3125 -1.03125,0 0,1.3437 1.21875,0 c 0.1702,1.0019 0.5522,1.7945 1.0625,2.4375 1.05848,1.3989 2.77263,2.1563 4.625,2.1563 1.21008,0 2.29455,-0.359 2.9375,-0.7188 l -0.4375,-2.0937 c -0.39694,0.2082 -1.28658,0.5 -2.15625,0.5 -0.94547,0 -1.83246,-0.2879 -2.4375,-0.9688 -0.28358,-0.3212 -0.49304,-0.7454 -0.625,-1.3125 l 4.09375,0 5.84375,2.5625 c -0.20226,0.3584 -0.43021,0.7316 -0.6875,1.0625 -0.2573,0.331 -0.5302,0.6344 -0.84375,0.9375 -0.46637,0.4611 -0.96122,0.8731 -1.46875,1.2188 -1.52261,1.0371 -3.23182,1.5312 -5.125,1.5312 -1.26247,0 -2.44313,-0.1999 -3.53125,-0.6562 -0.28503,-0.1197 -0.53943,-0.2553 -0.8125,-0.4063 -0.78341,-0.4277 -1.50217,-0.9717 -2.1875,-1.6562 -0.23495,-0.2348 -0.45149,-0.4727 -0.65625,-0.7188 -0.19989,-0.2387 -0.35992,-0.4694 -0.53125,-0.7187 -0.17147,-0.2498 -0.35712,-0.4896 -0.5,-0.75 -0.14278,-0.2599 -0.26078,-0.5419 -0.375,-0.8125 -0.45726,-1.0839 -0.6875,-2.2464 -0.6875,-3.5 0,-0.3135 0.0336,-0.6027 0.0625,-0.9063 0.0289,-0.3034 0.0673,-0.6128 0.125,-0.9062 0.0577,-0.2934 0.13214,-0.5916 0.21875,-0.875 0.0328,-0.1075 0.0568,-0.2065 0.0937,-0.3125 z"
       id="path45-9-9-2"
       style="fill:#1a1a1a;fill-opacity:1" />
  </g>
</svg>
