<?xml version="1.0" encoding="UTF-8" standalone="no"?>
<!-- Created with Inkscape (http://www.inkscape.org/) -->

<svg
   xmlns:dc="http://purl.org/dc/elements/1.1/"
   xmlns:cc="http://creativecommons.org/ns#"
   xmlns:rdf="http://www.w3.org/1999/02/22-rdf-syntax-ns#"
   xmlns:svg="http://www.w3.org/2000/svg"
   xmlns="http://www.w3.org/2000/svg"
   xmlns:sodipodi="http://sodipodi.sourceforge.net/DTD/sodipodi-0.dtd"
   xmlns:inkscape="http://www.inkscape.org/namespaces/inkscape"
   width="30"
   height="30"
   id="svg2"
   sodipodi:version="0.32"
   inkscape:version="0.48.4 r9939"
   sodipodi:docname="hanger.svg"
   inkscape:output_extension="org.inkscape.output.svg.inkscape"
   version="1.1">
  <defs
     id="defs4" />
  <sodipodi:namedview
     id="base"
     pagecolor="#ffffff"
     bordercolor="#666666"
     borderopacity="1.0"
     inkscape:pageopacity="0.0"
     inkscape:pageshadow="2"
     inkscape:zoom="10.276087"
     inkscape:cx="15.344828"
     inkscape:cy="14.482759"
     inkscape:document-units="px"
     inkscape:current-layer="layer1"
     inkscape:window-width="656"
     inkscape:window-height="1029"
     inkscape:window-x="0"
     inkscape:window-y="19"
     showgrid="false"
     inkscape:window-maximized="0" />
  <metadata
     id="metadata7">
    <rdf:RDF>
      <cc:Work
         rdf:about="">
        <dc:format>image/svg+xml</dc:format>
        <dc:type
           rdf:resource="http://purl.org/dc/dcmitype/StillImage" />
        <dc:title></dc:title>
      </cc:Work>
    </rdf:RDF>
  </metadata>
  <g
     inkscape:label="Capa 1"
     inkscape:groupmode="layer"
     id="layer1"
     transform="translate(0,-1022.3622)">
    <path
       sodipodi:type="arc"
       style="color:#000000;fill:#1a1a1a;stroke:#d4d4d4;stroke-width:1.02777779;stroke-opacity:1;marker:none;visibility:visible;display:inline;overflow:visible;enable-background:accumulate"
       id="path16617-6-6"
       sodipodi:cx="15.16226"
       sodipodi:cy="16.56851"
       sodipodi:rx="14.008413"
       sodipodi:ry="14.008413"
       d="m 29.170673,16.56851 a 14.008413,14.008413 0 1 1 -28.0168263,0 14.008413,14.008413 0 1 1 28.0168263,0 z"
       transform="matrix(0.97297297,0,0,0.97297297,330.50795,953.63241)" />
    <path
       style="fill:#1a1a1a;stroke:#d4d4d4;stroke-width:1px;stroke-linecap:butt;stroke-linejoin:miter;stroke-opacity:1"
       d="m 345.29648,957.89011 0,11.863 0,0"
       id="path16623-6-2"
       inkscape:connector-curvature="0"
       inkscape:transform-center-y="-5.9314904" />
    <path
       style="fill:#1a1a1a;stroke:#d4d4d4;stroke-width:1px;stroke-linecap:butt;stroke-linejoin:miter;stroke-opacity:1"
       d="m 357.15947,969.75311 -1.70877,0 0,0"
       id="path16623-4-2-0"
       inkscape:connector-curvature="0"
       inkscape:transform-center-x="-0.854382" />
    <path
       style="fill:#1a1a1a;stroke:#d4d4d4;stroke-width:0.99999994px;stroke-linecap:butt;stroke-linejoin:miter;stroke-opacity:1"
       d="m 345.29648,981.61611 0,-2.0181 0,0"
       id="path16623-4-3-9-0"
       inkscape:connector-curvature="0"
       inkscape:transform-center-y="1.0091015" />
    <path
       style="fill:#1a1a1a;stroke:#d4d4d4;stroke-width:1px;stroke-linecap:butt;stroke-linejoin:miter;stroke-opacity:1"
       d="m 333.43348,969.75311 11.863,0 0,0"
       id="path16623-4-3-4-1-0"
       inkscape:connector-curvature="0"
       inkscape:transform-center-x="5.9315" />
    <path
       inkscape:connector-curvature="0"
       sodipodi:nodetypes="cccccccccccccc"
       id="path9518-0-7"
       d="m 14.999994,1025.9915 -11.2422196,9.9235 2.2484301,0 0,12.8177 6.7453475,0 0,-7.5644 4.651059,0 1.3e-5,7.5644 6.591159,0 0,-12.8177 2.248444,0 -11.242237,-9.9235 0,0 0,0 z"
       style="font-size:12px;fill:none;stroke:none" />
    <path
       style="fill:#1a1a1a;fill-opacity:1;stroke:none"
       d="m 15.015328,1026.6481 -0.56656,0.037 -0.23938,0.069 c 0.003,0.022 0.005,0.045 0.008,0.067 -1.69939,0.1334 -3.40224,0.2815 -5.0803601,0.3723 -0.005,-0.033 -0.0109,-0.069 -0.016,-0.1008 l -0.60379,0.044 -0.25801,0.064 c 0.33893,2.9103 0.89046,6.2831 0.88308,8.4025 -0.004,1.1547 0.0156,2.6073 -0.0213,3.8436 -0.0469,1.574 -0.22667,3.1489 -0.38036,4.9766 l 0.24204,0.3006 c 3.4e-4,0 -3.4e-4,0 0,-0.014 l 0.56124,-0.1062 c 0.2208,-1.5326 0.43721,-3.1241 0.5346301,-4.5671 l 3.80362,1.6944 c 0.0318,1.7888 0.0903,3.7127 0.17821,6.2082 l 0.32717,0.1435 0.44685,-0.1198 c 0.0271,-1.8916 0.0489,-3.4768 0.0665,-4.9474 l 0.133,-0.053 c 0.12668,-0.7769 0.28188,-1.3401 0.42292,-1.8645 l 4.73724,-1.1997 0.33514,0.093 c 0.01,1.5455 0.0592,3.2004 0.17289,5.7453 l 0.34047,0.1437 0.40164,-0.1199 c 0.0576,-4.0146 0.0893,-6.0037 0.11171,-8.7457 l 0.14363,-0.031 c 0.0507,-0.3403 0.054,-0.5623 0.0134,-0.6676 l 0.0106,0 c 6.8e-4,0 0.002,0 0.003,0 l 0.0106,0 c -0.002,-0.014 -0.004,-0.014 -0.005,-0.014 0.005,-0.015 -10e-4,-0.034 -0.0319,-0.045 -0.003,0 -0.008,0 -0.0106,0 -0.37331,-0.3201 -2.23174,-0.6494 -3.22377,-0.8618 l -2.54815,-0.4841 c -0.008,0 -0.0162,0 -0.0239,0 0.002,-0.1543 0.004,-0.3336 0.005,-0.4655 0.0194,-2.1015 -0.50198,-4.8757 -0.88308,-7.804 z m -0.62507,1.6225 c 0.0194,0.1602 0.0393,0.3222 0.0585,0.4814 -1.6853,0.1591 -3.3034,0.3212 -4.9846001,0.5001 -0.0277,-0.1808 -0.0551,-0.3518 -0.0825,-0.5268 l 5.0085401,-0.4547 z m 0.11704,0.9682 c 0.0182,0.1521 0.0355,0.3041 0.0532,0.4548 -1.67917,0.1636 -3.2727,0.3683 -4.9500301,0.5479 -0.0242,-0.1659 -0.0473,-0.3258 -0.0718,-0.4895 l 4.9686501,-0.5132 z m 0.11171,0.9628 c 0.19111,1.6694 0.33957,3.2276 0.33515,4.4979 -3.5e-4,0.1063 -1.8e-4,0.2438 0,0.3617 -0.62833,0.1104 -1.30223,0.2464 -1.90713,0.3645 -1.18961,0.232 -2.27688,0.3647 -2.90991,0.4946 -1.7e-4,-0.1226 -3.4e-4,-0.2566 0,-0.3723 0.004,-1.2047 -0.2015101,-3.004 -0.4495101,-4.7691 l 4.9314001,-0.5773 z m -4.47923,8.0009 3.71585,1.431 c 0.003,0.4661 0.009,0.9326 0.016,1.4018 l -3.7584,-1.6252 c 0.0162,-0.3816 0.0232,-0.7903 0.0266,-1.2076 z m 10.39479,0.1676 c -0.003,0.2825 -0.005,0.5643 -0.005,0.8406 l -0.3777,0.093 -1.64647,-0.4602 2.02949,-0.4734 z m -3.15993,0.7368 1.65444,0.4681 -3.394,0.822 c 0.0629,-0.285 0.11443,-0.5826 0.1463,-0.9178 l 1.59326,-0.3723 z"
       id="rect3093-7-6-7"
       inkscape:connector-curvature="0" />
  </g>
</svg>
