<?xml version="1.0" encoding="UTF-8" standalone="no"?>
<!-- Created with Inkscape (http://www.inkscape.org/) -->

<svg
   xmlns:dc="http://purl.org/dc/elements/1.1/"
   xmlns:cc="http://creativecommons.org/ns#"
   xmlns:rdf="http://www.w3.org/1999/02/22-rdf-syntax-ns#"
   xmlns:svg="http://www.w3.org/2000/svg"
   xmlns="http://www.w3.org/2000/svg"
   xmlns:sodipodi="http://sodipodi.sourceforge.net/DTD/sodipodi-0.dtd"
   xmlns:inkscape="http://www.inkscape.org/namespaces/inkscape"
   width="30"
   height="30"
   id="svg2"
   sodipodi:version="0.32"
   inkscape:version="0.48.4 r9939"
   sodipodi:docname="marijuana.svg"
   inkscape:output_extension="org.inkscape.output.svg.inkscape"
   version="1.1">
  <defs
     id="defs4" />
  <sodipodi:namedview
     id="base"
     pagecolor="#ffffff"
     bordercolor="#666666"
     borderopacity="1.0"
     inkscape:pageopacity="0.0"
     inkscape:pageshadow="2"
     inkscape:zoom="10.276087"
     inkscape:cx="15.344828"
     inkscape:cy="14.482759"
     inkscape:document-units="px"
     inkscape:current-layer="layer1"
     inkscape:window-width="656"
     inkscape:window-height="1029"
     inkscape:window-x="0"
     inkscape:window-y="19"
     showgrid="false"
     inkscape:window-maximized="0" />
  <metadata
     id="metadata7">
    <rdf:RDF>
      <cc:Work
         rdf:about="">
        <dc:format>image/svg+xml</dc:format>
        <dc:type
           rdf:resource="http://purl.org/dc/dcmitype/StillImage" />
        <dc:title></dc:title>
      </cc:Work>
    </rdf:RDF>
  </metadata>
  <g
     inkscape:label="Capa 1"
     inkscape:groupmode="layer"
     id="layer1"
     transform="translate(0,-1022.3622)">
    <path
       sodipodi:type="arc"
       style="color:#000000;fill:#1a1a1a;stroke:#d4d4d4;stroke-width:1.02777779;stroke-opacity:1;marker:none;visibility:visible;display:inline;overflow:visible;enable-background:accumulate"
       id="path16617-6-6"
       sodipodi:cx="15.16226"
       sodipodi:cy="16.56851"
       sodipodi:rx="14.008413"
       sodipodi:ry="14.008413"
       d="m 29.170673,16.56851 a 14.008413,14.008413 0 1 1 -28.0168263,0 14.008413,14.008413 0 1 1 28.0168263,0 z"
       transform="matrix(0.97297297,0,0,0.97297297,330.50795,953.63241)" />
    <path
       style="fill:#1a1a1a;stroke:#d4d4d4;stroke-width:1px;stroke-linecap:butt;stroke-linejoin:miter;stroke-opacity:1"
       d="m 345.29648,957.89011 0,11.863 0,0"
       id="path16623-6-2"
       inkscape:connector-curvature="0"
       inkscape:transform-center-y="-5.9314904" />
    <path
       style="fill:#1a1a1a;stroke:#d4d4d4;stroke-width:1px;stroke-linecap:butt;stroke-linejoin:miter;stroke-opacity:1"
       d="m 357.15947,969.75311 -1.70877,0 0,0"
       id="path16623-4-2-0"
       inkscape:connector-curvature="0"
       inkscape:transform-center-x="-0.854382" />
    <path
       style="fill:#1a1a1a;stroke:#d4d4d4;stroke-width:0.99999994px;stroke-linecap:butt;stroke-linejoin:miter;stroke-opacity:1"
       d="m 345.29648,981.61611 0,-2.0181 0,0"
       id="path16623-4-3-9-0"
       inkscape:connector-curvature="0"
       inkscape:transform-center-y="1.0091015" />
    <path
       style="fill:#1a1a1a;stroke:#d4d4d4;stroke-width:1px;stroke-linecap:butt;stroke-linejoin:miter;stroke-opacity:1"
       d="m 333.43348,969.75311 11.863,0 0,0"
       id="path16623-4-3-4-1-0"
       inkscape:connector-curvature="0"
       inkscape:transform-center-x="5.9315" />
    <path
       inkscape:connector-curvature="0"
       sodipodi:nodetypes="cccccccccccccc"
       id="path9518-0-7"
       d="m 14.999994,1025.9915 -11.2422196,9.9235 2.2484301,0 0,12.8177 6.7453475,0 0,-7.5644 4.651059,0 1.3e-5,7.5644 6.591159,0 0,-12.8177 2.248444,0 -11.242237,-9.9235 0,0 0,0 z"
       style="font-size:12px;fill:none;stroke:none" />
    <path
       style="fill:#1a1a1a;fill-opacity:1;stroke:none"
       d="m 14.683585,1026.9433 0,3.4167 c -2.23258,2.6241 -4.9146,5.0961 -8.41932,6.8122 l 0,3.1427 c 0,0 0.83053,1.0113 2.2369,1.0545 1.33804,0.04 2.25771,-1.0545 2.25771,-1.0545 l -0.14855,-2.3201 4.3258,-6.707 -1.85689,6.1795 0,2.8474 c 0,0 0.86862,1.1038 1.92009,1.0545 1.2589,-0.06 1.94142,-1.0545 1.94142,-1.0545 l 0,-3.1848 -1.70941,-5.8633 c 1.21055,2.638 2.90295,4.4867 4.28367,6.4329 l 0,2.6154 c 0,0 0.62418,1.1225 2.13103,1.0545 1.3221,-0.06 2.15236,-1.0545 2.15236,-1.0545 l 0,-3.1848 c -2.99451,-1.9288 -6.4074,-3.5732 -8.44039,-6.8122 l 0,-0.6328 c 0,0 0.65336,-0.2457 0.99178,-0.2538 0.71305,0 1.38045,0.524 2.0889,0.443 0.72871,-0.083 2.00463,-0.9278 2.00463,-0.9278 0,0 -1.42852,0.1835 -2.0889,-0.04 -0.95505,-0.3275 -1.50955,-1.4411 -2.44785,-1.8141 -0.37975,-0.1513 -1.22379,-0.1486 -1.22379,-0.1486 z m 2.1945,14.2784 -0.78056,0.4851 c -0.027,1.7438 -0.027,3.4854 0.48508,5.4839 l -2.954,0 c 0.74005,-1.947 0.41864,-3.8954 0.29548,-5.8423 l -1.81475,0.5061 c 0.12694,1.9843 -0.26469,3.6535 -0.78084,5.2516 l -2.61638,0 c 0.41675,-1.7185 0.82837,-3.4471 1.11818,-5.5469 l -2.53212,0.2321 c -0.0918,1.9541 -0.71926,3.8098 -2.10996,5.5046 l 0.10533,0.4852 19.51824,-0.189 0,-0.4851 c -1.70131,-1.6779 -1.798,-3.4691 -1.98356,-5.4625 l -2.63745,-0.087 c 0.16746,1.9784 0.71952,3.6984 1.66701,5.547 l -2.9332,0 c -0.66335,-1.8332 -0.92831,-3.4817 -1.07605,-5.315 l -0.97072,-0.5694 z"
       id="path20244-4"
       inkscape:connector-curvature="0" />
  </g>
</svg>
