<?xml version="1.0" encoding="UTF-8" standalone="no"?>
<!-- Created with Inkscape (http://www.inkscape.org/) -->

<svg
   xmlns:dc="http://purl.org/dc/elements/1.1/"
   xmlns:cc="http://creativecommons.org/ns#"
   xmlns:rdf="http://www.w3.org/1999/02/22-rdf-syntax-ns#"
   xmlns:svg="http://www.w3.org/2000/svg"
   xmlns="http://www.w3.org/2000/svg"
   xmlns:sodipodi="http://sodipodi.sourceforge.net/DTD/sodipodi-0.dtd"
   xmlns:inkscape="http://www.inkscape.org/namespaces/inkscape"
   width="30"
   height="30"
   id="svg2"
   sodipodi:version="0.32"
   inkscape:version="0.48.4 r9939"
   sodipodi:docname="tv.svg"
   inkscape:output_extension="org.inkscape.output.svg.inkscape"
   version="1.1">
  <defs
     id="defs4" />
  <sodipodi:namedview
     id="base"
     pagecolor="#ffffff"
     bordercolor="#666666"
     borderopacity="1.0"
     inkscape:pageopacity="0.0"
     inkscape:pageshadow="2"
     inkscape:zoom="9.9647651"
     inkscape:cx="15.760005"
     inkscape:cy="15.066783"
     inkscape:document-units="px"
     inkscape:current-layer="layer1"
     inkscape:window-width="698"
     inkscape:window-height="1029"
     inkscape:window-x="0"
     inkscape:window-y="19"
     showgrid="false"
     inkscape:window-maximized="0" />
  <metadata
     id="metadata7">
    <rdf:RDF>
      <cc:Work
         rdf:about="">
        <dc:format>image/svg+xml</dc:format>
        <dc:type
           rdf:resource="http://purl.org/dc/dcmitype/StillImage" />
        <dc:title></dc:title>
      </cc:Work>
    </rdf:RDF>
  </metadata>
  <g
     inkscape:label="Capa 1"
     inkscape:groupmode="layer"
     id="layer1"
     transform="translate(0,-1022.3622)">
    <path
       style="color:#000000;fill:#1a1a1a;fill-opacity:1;fill-rule:nonzero;stroke:none;stroke-width:3;marker:none;visibility:visible;display:inline;overflow:visible;enable-background:accumulate"
       d="m 4.21875,1025.8153 0,23.0938 20.53125,0 0,-23.0938 -20.53125,0 z m 20.71875,0.9688 0,4.5312 0.84375,0 0,-4.5312 -0.84375,0 z m -16.875,1.5937 12.84375,0 0,4.25 -12.84375,0 0,-4.25 z m 0.9375,0.9375 0,0.1875 10.96875,0 0,-0.1875 -10.96875,0 z m 0,1.0625 0,0.2188 10.96875,0 0,-0.2188 -10.96875,0 z m 0,1.0938 0,0.1875 10.96875,0 0,-0.1875 -10.96875,0 z m 15.9375,0.875 0,4.5312 0.84375,0 0,-4.5312 -0.84375,0 z m 0,5.5625 0,4.5312 0.84375,0 0,-4.5312 -0.84375,0 z m 0,5.5937 0,4.5 0.84375,0 0,-4.5 -0.84375,0 z"
       id="rect12261-6"
       inkscape:connector-curvature="0" />
  </g>
</svg>
