<?xml version="1.0" encoding="UTF-8" standalone="no"?>
<!-- Created with Inkscape (http://www.inkscape.org/) -->

<svg
   xmlns:dc="http://purl.org/dc/elements/1.1/"
   xmlns:cc="http://creativecommons.org/ns#"
   xmlns:rdf="http://www.w3.org/1999/02/22-rdf-syntax-ns#"
   xmlns:svg="http://www.w3.org/2000/svg"
   xmlns="http://www.w3.org/2000/svg"
   xmlns:sodipodi="http://sodipodi.sourceforge.net/DTD/sodipodi-0.dtd"
   xmlns:inkscape="http://www.inkscape.org/namespaces/inkscape"
   width="30"
   height="30"
   id="svg2"
   sodipodi:version="0.32"
   inkscape:version="0.48.4 r9939"
   sodipodi:docname="eye.svg"
   inkscape:output_extension="org.inkscape.output.svg.inkscape"
   version="1.1">
  <defs
     id="defs4">
    <clipPath
       clipPathUnits="userSpaceOnUse"
       id="clipPath17670-8">
      <path
         inkscape:connector-curvature="0"
         d="m 0,288.75 201.25,0 L 201.25,0 0,0 0,288.75 z"
         id="path17672-4" />
    </clipPath>
    <clipPath
       clipPathUnits="userSpaceOnUse"
       id="clipPath18098-9">
      <path
         inkscape:connector-curvature="0"
         d="m 0,288.75 201.25,0 L 201.25,0 0,0 0,288.75 z"
         id="path18100-2" />
    </clipPath>
    <clipPath
       clipPathUnits="userSpaceOnUse"
       id="clipPath17356-3">
      <path
         inkscape:connector-curvature="0"
         d="m 0,288.75 201.25,0 L 201.25,0 0,0 0,288.75 z"
         id="path17358-6" />
    </clipPath>
    <clipPath
       clipPathUnits="userSpaceOnUse"
       id="clipPath18256-8">
      <path
         inkscape:connector-curvature="0"
         d="m 0,288.75 201.25,0 L 201.25,0 0,0 0,288.75 z"
         id="path18258-5" />
    </clipPath>
    <clipPath
       clipPathUnits="userSpaceOnUse"
       id="clipPath17038-7">
      <path
         inkscape:connector-curvature="0"
         d="m 0,288.75 201.25,0 L 201.25,0 0,0 0,288.75 z"
         id="path17040-4" />
    </clipPath>
  </defs>
  <sodipodi:namedview
     id="base"
     pagecolor="#ffffff"
     bordercolor="#666666"
     borderopacity="1.0"
     inkscape:pageopacity="0.0"
     inkscape:pageshadow="2"
     inkscape:zoom="10.276087"
     inkscape:cx="15.344828"
     inkscape:cy="14.482759"
     inkscape:document-units="px"
     inkscape:current-layer="layer1"
     inkscape:window-width="656"
     inkscape:window-height="1029"
     inkscape:window-x="0"
     inkscape:window-y="19"
     showgrid="false"
     inkscape:window-maximized="0" />
  <metadata
     id="metadata7">
    <rdf:RDF>
      <cc:Work
         rdf:about="">
        <dc:format>image/svg+xml</dc:format>
        <dc:type
           rdf:resource="http://purl.org/dc/dcmitype/StillImage" />
        <dc:title></dc:title>
      </cc:Work>
    </rdf:RDF>
  </metadata>
  <g
     inkscape:label="Capa 1"
     inkscape:groupmode="layer"
     id="layer1"
     transform="translate(0,-1022.3622)">
    <path
       sodipodi:type="arc"
       style="color:#000000;fill:#1a1a1a;stroke:#d4d4d4;stroke-width:1.02777779;stroke-opacity:1;marker:none;visibility:visible;display:inline;overflow:visible;enable-background:accumulate"
       id="path16617-6-6"
       sodipodi:cx="15.16226"
       sodipodi:cy="16.56851"
       sodipodi:rx="14.008413"
       sodipodi:ry="14.008413"
       d="m 29.170673,16.56851 a 14.008413,14.008413 0 1 1 -28.0168263,0 14.008413,14.008413 0 1 1 28.0168263,0 z"
       transform="matrix(0.97297297,0,0,0.97297297,330.50795,953.63241)" />
    <path
       style="fill:#1a1a1a;stroke:#d4d4d4;stroke-width:1px;stroke-linecap:butt;stroke-linejoin:miter;stroke-opacity:1"
       d="m 345.29648,957.89011 0,11.863 0,0"
       id="path16623-6-2"
       inkscape:connector-curvature="0"
       inkscape:transform-center-y="-5.9314904" />
    <path
       style="fill:#1a1a1a;stroke:#d4d4d4;stroke-width:1px;stroke-linecap:butt;stroke-linejoin:miter;stroke-opacity:1"
       d="m 357.15947,969.75311 -1.70877,0 0,0"
       id="path16623-4-2-0"
       inkscape:connector-curvature="0"
       inkscape:transform-center-x="-0.854382" />
    <path
       style="fill:#1a1a1a;stroke:#d4d4d4;stroke-width:0.99999994px;stroke-linecap:butt;stroke-linejoin:miter;stroke-opacity:1"
       d="m 345.29648,981.61611 0,-2.0181 0,0"
       id="path16623-4-3-9-0"
       inkscape:connector-curvature="0"
       inkscape:transform-center-y="1.0091015" />
    <path
       style="fill:#1a1a1a;stroke:#d4d4d4;stroke-width:1px;stroke-linecap:butt;stroke-linejoin:miter;stroke-opacity:1"
       d="m 333.43348,969.75311 11.863,0 0,0"
       id="path16623-4-3-4-1-0"
       inkscape:connector-curvature="0"
       inkscape:transform-center-x="5.9315" />
    <path
       inkscape:connector-curvature="0"
       sodipodi:nodetypes="cccccccccccccc"
       id="path9518-0-7"
       d="m 14.999994,1025.9915 -11.2422196,9.9235 2.2484301,0 0,12.8177 6.7453475,0 0,-7.5644 4.651059,0 1.3e-5,7.5644 6.591159,0 0,-12.8177 2.248444,0 -11.242237,-9.9235 0,0 0,0 z"
       style="font-size:12px;fill:none;stroke:none" />
    <path
       style="color:#000000;fill:#1a1a1a;fill-opacity:1;fill-rule:nonzero;stroke:none;stroke-width:2;marker:none;visibility:visible;display:inline;overflow:visible;enable-background:accumulate"
       d="m 21.546875,1025.0497 c -0.71913,0 -1.3125,0.6385 -1.3125,1.4375 l 0,16 -4.03125,0 0,2.25 10.65625,0 0,-2.25 -4.03125,0 0,-16 c 0,-0.799 -0.56212,-1.4375 -1.28125,-1.4375 z m -12.0312502,7.7188 c -4.18393,0 -7.5624996,3.2791 -7.5624996,7.2812 l 0,0.9063 0.9375,0 1.1874996,0 c -0.0124,0.076 -0.0313,0.1698 -0.0313,0.25 l 0,6.9062 c 0,0.799 0.63846,1.4375 1.4375,1.4375 l 7.5000002,0 c 0.79904,0 1.4375,-0.6385 1.4375,-1.4375 l 0,-6.9062 c 0,-0.08 -0.0188,-0.1736 -0.0313,-0.25 l 1.75,0 0.96875,0 0,-0.9063 c 0,-4.0021 -3.40982,-7.2812 -7.5937502,-7.2812 z m 0,1.8437 c 2.8005402,0 5.0277702,1.9555 5.5000002,4.5 l -5.5000002,0 -5.46875,0 c 0.47223,-2.5445 2.66821,-4.5 5.46875,-4.5 z m 6.7187502,11.0938 -1.21875,3.9687 13.03125,0 -1.125,-3.9687 -10.6875,0 z"
       id="rect24962-0"
       inkscape:connector-curvature="0" />
  </g>
</svg>
