<?xml version="1.0" encoding="UTF-8" standalone="no"?>
<!-- Created with Inkscape (http://www.inkscape.org/) -->

<svg
   xmlns:dc="http://purl.org/dc/elements/1.1/"
   xmlns:cc="http://creativecommons.org/ns#"
   xmlns:rdf="http://www.w3.org/1999/02/22-rdf-syntax-ns#"
   xmlns:svg="http://www.w3.org/2000/svg"
   xmlns="http://www.w3.org/2000/svg"
   xmlns:sodipodi="http://sodipodi.sourceforge.net/DTD/sodipodi-0.dtd"
   xmlns:inkscape="http://www.inkscape.org/namespaces/inkscape"
   width="30"
   height="30"
   id="svg2"
   sodipodi:version="0.32"
   inkscape:version="0.48.4 r9939"
   sodipodi:docname="film.svg"
   inkscape:output_extension="org.inkscape.output.svg.inkscape"
   version="1.1">
  <defs
     id="defs4" />
  <sodipodi:namedview
     id="base"
     pagecolor="#ffffff"
     bordercolor="#666666"
     borderopacity="1.0"
     inkscape:pageopacity="0.0"
     inkscape:pageshadow="2"
     inkscape:zoom="10.276087"
     inkscape:cx="15.344828"
     inkscape:cy="14.482759"
     inkscape:document-units="px"
     inkscape:current-layer="layer1"
     inkscape:window-width="656"
     inkscape:window-height="1029"
     inkscape:window-x="0"
     inkscape:window-y="19"
     showgrid="false"
     inkscape:window-maximized="0" />
  <metadata
     id="metadata7">
    <rdf:RDF>
      <cc:Work
         rdf:about="">
        <dc:format>image/svg+xml</dc:format>
        <dc:type
           rdf:resource="http://purl.org/dc/dcmitype/StillImage" />
        <dc:title></dc:title>
      </cc:Work>
    </rdf:RDF>
  </metadata>
  <g
     inkscape:label="Capa 1"
     inkscape:groupmode="layer"
     id="layer1"
     transform="translate(0,-1022.3622)">
    <path
       sodipodi:type="arc"
       style="color:#000000;fill:#1a1a1a;stroke:#d4d4d4;stroke-width:1.02777779;stroke-opacity:1;marker:none;visibility:visible;display:inline;overflow:visible;enable-background:accumulate"
       id="path16617-6-6"
       sodipodi:cx="15.16226"
       sodipodi:cy="16.56851"
       sodipodi:rx="14.008413"
       sodipodi:ry="14.008413"
       d="m 29.170673,16.56851 a 14.008413,14.008413 0 1 1 -28.0168263,0 14.008413,14.008413 0 1 1 28.0168263,0 z"
       transform="matrix(0.97297297,0,0,0.97297297,330.50795,953.63241)" />
    <path
       style="fill:#1a1a1a;stroke:#d4d4d4;stroke-width:1px;stroke-linecap:butt;stroke-linejoin:miter;stroke-opacity:1"
       d="m 345.29648,957.89011 0,11.863 0,0"
       id="path16623-6-2"
       inkscape:connector-curvature="0"
       inkscape:transform-center-y="-5.9314904" />
    <path
       style="fill:#1a1a1a;stroke:#d4d4d4;stroke-width:1px;stroke-linecap:butt;stroke-linejoin:miter;stroke-opacity:1"
       d="m 357.15947,969.75311 -1.70877,0 0,0"
       id="path16623-4-2-0"
       inkscape:connector-curvature="0"
       inkscape:transform-center-x="-0.854382" />
    <path
       style="fill:#1a1a1a;stroke:#d4d4d4;stroke-width:0.99999994px;stroke-linecap:butt;stroke-linejoin:miter;stroke-opacity:1"
       d="m 345.29648,981.61611 0,-2.0181 0,0"
       id="path16623-4-3-9-0"
       inkscape:connector-curvature="0"
       inkscape:transform-center-y="1.0091015" />
    <path
       style="fill:#1a1a1a;stroke:#d4d4d4;stroke-width:1px;stroke-linecap:butt;stroke-linejoin:miter;stroke-opacity:1"
       d="m 333.43348,969.75311 11.863,0 0,0"
       id="path16623-4-3-4-1-0"
       inkscape:connector-curvature="0"
       inkscape:transform-center-x="5.9315" />
    <path
       inkscape:connector-curvature="0"
       sodipodi:nodetypes="cccccccccccccc"
       id="path9518-0-7"
       d="m 14.999994,1025.9915 -11.2422196,9.9235 2.2484301,0 0,12.8177 6.7453475,0 0,-7.5644 4.651059,0 1.3e-5,7.5644 6.591159,0 0,-12.8177 2.248444,0 -11.242237,-9.9235 0,0 0,0 z"
       style="font-size:12px;fill:none;stroke:none" />
    <path
       style="font-size:medium;font-style:normal;font-variant:normal;font-weight:normal;font-stretch:normal;text-indent:0;text-align:start;text-decoration:none;line-height:normal;letter-spacing:normal;word-spacing:normal;text-transform:none;direction:ltr;block-progression:tb;writing-mode:lr-tb;text-anchor:start;baseline-shift:baseline;color:#000000;fill:#1a1a1a;fill-opacity:1;stroke:none;stroke-width:2;marker:none;visibility:visible;display:inline;overflow:visible;enable-background:accumulate;font-family:Sans;-inkscape-font-specification:Sans"
       d="m 14.199312,1026.7108 c -1.76169,0 -2.73905,0.6783 -3.15857,1.4307 -0.37766,0.6773 -0.31488,1.2829 -0.29728,1.4122 0.001,0.048 0,0.095 0,0.095 l 0,14.9752 0,0.057 c -0.005,0.08 -0.0614,0.879 0.44568,1.7094 0.53392,0.8737 1.71466,1.6904 3.80888,1.6904 2.00413,0 3.17351,-0.7392 3.73454,-1.542 0.55121,-0.7886 0.53932,-1.6063 0.53882,-1.6348 -10e-6,-4e-4 0,-0.048 0,-0.048 l 0,-12.3187 -1.18912,0 0,12.3368 0,0.048 c 0,0 0.006,0.4423 -0.33442,0.9289 -0.34009,0.4865 -1.01931,1.0408 -2.7498,1.0408 -1.80855,0 -2.46185,-0.5827 -2.787,-1.115 -0.32534,-0.5322 -0.27873,-1.0588 -0.27873,-1.0588 l 0,-0.048 0,0 0,-15.1241 0,-0.057 -0.019,-0.048 c 0,0 -0.0585,-0.371 0.14888,-0.7434 0.2069,-0.371 0.66695,-0.8101 2.15524,-0.8171 1.32411,0 1.79495,0.4138 2.0438,0.7986 0.24877,0.3852 0.24163,0.7434 0.24163,0.7434 l 0,0 0,11.3337 0,0.076 0,0.072 c 0,0 0.0381,0.176 -0.0557,0.3519 -0.0918,0.1714 -0.30489,0.4662 -1.3935,0.4662 -0.94567,0 -1.21408,-0.2663 -1.33775,-0.4471 -0.12367,-0.1808 -0.1113,-0.3139 -0.1113,-0.3139 l 0,-0.048 0,-0.048 0,-8.1006 -1.18911,0 0,8.0636 0,0.048 c 0,0 0.019,0 0.019,0 -0.002,0.048 -0.0476,0.5374 0.29728,1.0403 0.35673,0.5222 1.11762,0.9664 2.32248,0.9664 1.34184,0 2.13403,-0.4937 2.45257,-1.0963 0.26255,-0.4966 0.21594,-0.9009 0.18598,-1.0593 l 0,-11.3337 -0.019,0 c 7.6e-4,-0.048 0.019,-0.7234 -0.42713,-1.4117 -0.45472,-0.703 -1.42908,-1.3456 -3.04713,-1.338 z"
       id="path24750-4"
       inkscape:connector-curvature="0" />
  </g>
</svg>
