<?xml version="1.0" encoding="UTF-8" standalone="no"?>
<!-- Created with Inkscape (http://www.inkscape.org/) -->

<svg
   xmlns:dc="http://purl.org/dc/elements/1.1/"
   xmlns:cc="http://creativecommons.org/ns#"
   xmlns:rdf="http://www.w3.org/1999/02/22-rdf-syntax-ns#"
   xmlns:svg="http://www.w3.org/2000/svg"
   xmlns="http://www.w3.org/2000/svg"
   xmlns:sodipodi="http://sodipodi.sourceforge.net/DTD/sodipodi-0.dtd"
   xmlns:inkscape="http://www.inkscape.org/namespaces/inkscape"
   width="30"
   height="30"
   id="svg2"
   sodipodi:version="0.32"
   inkscape:version="0.48.4 r9939"
   sodipodi:docname="cd1.svg"
   inkscape:output_extension="org.inkscape.output.svg.inkscape"
   version="1.1">
  <defs
     id="defs4">
    <clipPath
       clipPathUnits="userSpaceOnUse"
       id="clipPath17670-8">
      <path
         inkscape:connector-curvature="0"
         d="m 0,288.75 201.25,0 L 201.25,0 0,0 0,288.75 z"
         id="path17672-4" />
    </clipPath>
    <clipPath
       clipPathUnits="userSpaceOnUse"
       id="clipPath18098-9">
      <path
         inkscape:connector-curvature="0"
         d="m 0,288.75 201.25,0 L 201.25,0 0,0 0,288.75 z"
         id="path18100-2" />
    </clipPath>
    <clipPath
       clipPathUnits="userSpaceOnUse"
       id="clipPath17356-3">
      <path
         inkscape:connector-curvature="0"
         d="m 0,288.75 201.25,0 L 201.25,0 0,0 0,288.75 z"
         id="path17358-6" />
    </clipPath>
    <clipPath
       clipPathUnits="userSpaceOnUse"
       id="clipPath18256-8">
      <path
         inkscape:connector-curvature="0"
         d="m 0,288.75 201.25,0 L 201.25,0 0,0 0,288.75 z"
         id="path18258-5" />
    </clipPath>
    <clipPath
       clipPathUnits="userSpaceOnUse"
       id="clipPath17038-7">
      <path
         inkscape:connector-curvature="0"
         d="m 0,288.75 201.25,0 L 201.25,0 0,0 0,288.75 z"
         id="path17040-4" />
    </clipPath>
  </defs>
  <sodipodi:namedview
     id="base"
     pagecolor="#ffffff"
     bordercolor="#666666"
     borderopacity="1.0"
     inkscape:pageopacity="0.0"
     inkscape:pageshadow="2"
     inkscape:zoom="10.2"
     inkscape:cx="15"
     inkscape:cy="15"
     inkscape:document-units="px"
     inkscape:current-layer="layer1"
     inkscape:window-width="656"
     inkscape:window-height="1029"
     inkscape:window-x="0"
     inkscape:window-y="19"
     showgrid="false"
     inkscape:window-maximized="0" />
  <metadata
     id="metadata7">
    <rdf:RDF>
      <cc:Work
         rdf:about="">
        <dc:format>image/svg+xml</dc:format>
        <dc:type
           rdf:resource="http://purl.org/dc/dcmitype/StillImage" />
        <dc:title></dc:title>
      </cc:Work>
    </rdf:RDF>
  </metadata>
  <g
     inkscape:label="Capa 1"
     inkscape:groupmode="layer"
     id="layer1"
     transform="translate(0,-1022.3622)">
    <path
       sodipodi:type="arc"
       style="color:#000000;fill:#1a1a1a;stroke:#d4d4d4;stroke-width:1.02777779;stroke-opacity:1;marker:none;visibility:visible;display:inline;overflow:visible;enable-background:accumulate"
       id="path16617-6-6"
       sodipodi:cx="15.16226"
       sodipodi:cy="16.56851"
       sodipodi:rx="14.008413"
       sodipodi:ry="14.008413"
       d="m 29.170673,16.56851 c 0,7.736633 -6.27178,14.008413 -14.008413,14.008413 -7.736633,0 -14.0084133,-6.27178 -14.0084133,-14.008413 0,-7.736633 6.2717803,-14.0084133 14.0084133,-14.0084133 7.736633,0 14.008413,6.2717803 14.008413,14.0084133 z"
       transform="matrix(0.97297297,0,0,0.97297297,330.50795,953.63241)" />
    <path
       style="fill:#1a1a1a;stroke:#d4d4d4;stroke-width:1px;stroke-linecap:butt;stroke-linejoin:miter;stroke-opacity:1"
       d="m 345.29648,957.89011 0,11.863 0,0"
       id="path16623-6-2"
       inkscape:connector-curvature="0"
       inkscape:transform-center-y="-5.9314904" />
    <path
       style="fill:#1a1a1a;stroke:#d4d4d4;stroke-width:1px;stroke-linecap:butt;stroke-linejoin:miter;stroke-opacity:1"
       d="m 357.15947,969.75311 -1.70877,0 0,0"
       id="path16623-4-2-0"
       inkscape:connector-curvature="0"
       inkscape:transform-center-x="-0.854382" />
    <path
       style="fill:#1a1a1a;stroke:#d4d4d4;stroke-width:0.99999994px;stroke-linecap:butt;stroke-linejoin:miter;stroke-opacity:1"
       d="m 345.29648,981.61611 0,-2.0181 0,0"
       id="path16623-4-3-9-0"
       inkscape:connector-curvature="0"
       inkscape:transform-center-y="1.0091015" />
    <path
       style="fill:#1a1a1a;stroke:#d4d4d4;stroke-width:1px;stroke-linecap:butt;stroke-linejoin:miter;stroke-opacity:1"
       d="m 333.43348,969.75311 11.863,0 0,0"
       id="path16623-4-3-4-1-0"
       inkscape:connector-curvature="0"
       inkscape:transform-center-x="5.9315" />
    <path
       inkscape:connector-curvature="0"
       sodipodi:nodetypes="cccccccccccccc"
       id="path9518-0-7"
       d="m 14.999994,1025.9915 -11.2422196,9.9235 2.2484301,0 0,12.8177 6.7453475,0 0,-7.5644 4.651059,0 1.3e-5,7.5644 6.591159,0 0,-12.8177 2.248444,0 -11.242237,-9.9235 0,0 0,0 z"
       style="font-size:12px;fill:none;stroke:none" />
    <path
       inkscape:connector-curvature="0"
       style="fill:#1a1a1a"
       d="m 15.247541,1024.9517 c -0.10494,0.026 0.37984,0.4412 1.38965,1.184 1.93492,1.4234 3.58521,2.9281 4.67432,4.2659 0.36353,0.4465 0.70877,0.8992 1.01654,1.3868 0.14353,0.2456 0.29822,0.51 0.34374,0.5876 0.0833,0.142 0.62526,1.2954 0.77269,1.6452 0.0436,0.1034 0.17046,0.5688 0.28204,1.0342 0.36519,1.523 0.21919,4.3381 -0.28498,5.5469 -0.48111,1.1534 -1.049,2.1153 -1.25157,2.1153 -0.0494,0 -0.43516,-0.3298 -0.85789,-0.7344 -1.26331,-1.2094 -2.42556,-2.3057 -3.06431,-2.894 -0.33082,-0.3046 -0.86621,-0.8091 -1.18988,-1.1193 -0.79827,-0.7652 -1.3207,-1.2576 -3.19064,-3.0115 -0.87904,-0.8244 -1.61271,-1.5569 -1.63058,-1.6276 -0.0178,-0.071 0.64848,-0.7989 1.48074,-1.6159 0.83227,-0.8169 1.51306,-1.5272 1.51306,-1.5776 0,-0.05 -0.15865,-0.1192 -0.35256,-0.1529 -0.1939,-0.034 -0.73332,-0.1259 -1.19869,-0.2056 -0.46538,-0.08 -1.10991,-0.2028 -1.43079,-0.2762 -0.32088,-0.074 -0.6586,-0.1351 -0.75212,-0.1351 -0.15965,0 -5.5733405,5.2767 -5.5733405,5.4323 0,0.038 0.5245,0.5936 1.16638,1.2339 l 1.16638,1.1664 1.22513,-1.2369 c 0.6735505,-0.6798 1.2654905,-1.2369 1.3132805,-1.2369 0.0754,0 2.38356,2.3512 5.66441,5.7702 0.53992,0.5627 1.5617,1.6205 2.27105,2.3504 0.97864,1.0069 1.26209,1.3531 1.17519,1.4308 -0.063,0.056 -0.38958,0.183 -0.72569,0.282 -0.83982,0.2473 -3.57392,0.2508 -4.55973,0.01 -1.95961,-0.4867 -3.31648,-0.9987 -5.2002105,-1.9625 -0.48204,-0.2466 -0.92626,-0.4497 -0.98716,-0.4495 -0.0609,2e-4 -0.31509,0.2531 -0.56409,0.5611 -0.40662,0.5031 -0.48097,0.5543 -0.72567,0.5054 -0.39251,-0.079 -0.72603,0.03 -0.89903,0.2938 -0.12331,0.1881 -0.13083,0.3132 -0.0529,0.6786 0.11945,0.56 0.0548,0.6801 -0.56996,1.0694 -0.2731,0.1703 -0.70806,0.4443 -0.9666,0.6111 -1.88172,1.2146 -2.71756,3.0327 -1.72459,3.7489 0.24827,0.1791 0.8147,0.1502 1.21045,-0.062 0.98897,-0.5295 1.57336,-1.1912 2.22404,-2.5178 0.68137,-1.3892 0.78554,-1.5043 1.34559,-1.5043 0.64773,0 0.87447,-0.2716 0.83145,-0.9989 -0.0257,-0.4352 -10e-4,-0.5522 0.11458,-0.5758 0.0802,-0.017 0.4821,0.2368 0.89315,0.5641 4.2378805,3.3742 9.2892705,4.4583 12.9123805,2.7705 l 0.41426,-0.191 1.28389,1.3309 c 0.95901,0.993 1.34336,1.3312 1.51306,1.3309 0.6516,-7e-4 1.7804,-1.1313 1.7804,-1.7833 0,-0.1815 -0.40238,-0.6035 -1.92436,-2.0184 -0.48818,-0.4539 -0.54173,-0.534 -0.41426,-0.6375 0.51145,-0.4156 1.48528,-2.0786 1.77747,-3.035 0.0632,-0.2068 0.15532,-0.4818 0.20566,-0.6111 0.16456,-0.4225 0.34952,-1.999 0.35256,-3.0143 -0.10008,-2.4758 -0.58118,-4.8733 -2.07421,-6.9219 -0.84035,-1.1359 -1.74501,-2.2132 -2.85865,-3.1084 -1.64578,-1.3416 -4.81227,-3.0023 -6.67507,-3.4991 -0.15513,-0.041 -0.35608,-0.1066 -0.44657,-0.144 -0.0879,-0.036 -0.14325,-0.05 -0.16746,-0.044 z"
       id="path2830"
       sodipodi:nodetypes="csccsccsssssscsscscsscccssscscssssccssscssccsccccsssccccccccc" />
  </g>
</svg>
