<?xml version="1.0" encoding="UTF-8" standalone="no"?>
<!-- Created with Inkscape (http://www.inkscape.org/) -->

<svg
   xmlns:dc="http://purl.org/dc/elements/1.1/"
   xmlns:cc="http://creativecommons.org/ns#"
   xmlns:rdf="http://www.w3.org/1999/02/22-rdf-syntax-ns#"
   xmlns:svg="http://www.w3.org/2000/svg"
   xmlns="http://www.w3.org/2000/svg"
   xmlns:sodipodi="http://sodipodi.sourceforge.net/DTD/sodipodi-0.dtd"
   xmlns:inkscape="http://www.inkscape.org/namespaces/inkscape"
   width="30"
   height="30"
   id="svg2"
   sodipodi:version="0.32"
   inkscape:version="0.48.4 r9939"
   sodipodi:docname="tomato.svg"
   inkscape:output_extension="org.inkscape.output.svg.inkscape"
   version="1.1">
  <defs
     id="defs4" />
  <sodipodi:namedview
     id="base"
     pagecolor="#ffffff"
     bordercolor="#666666"
     borderopacity="1.0"
     inkscape:pageopacity="0.0"
     inkscape:pageshadow="2"
     inkscape:zoom="10.276087"
     inkscape:cx="15.344828"
     inkscape:cy="14.482759"
     inkscape:document-units="px"
     inkscape:current-layer="layer1"
     inkscape:window-width="656"
     inkscape:window-height="1029"
     inkscape:window-x="0"
     inkscape:window-y="19"
     showgrid="false"
     inkscape:window-maximized="0" />
  <metadata
     id="metadata7">
    <rdf:RDF>
      <cc:Work
         rdf:about="">
        <dc:format>image/svg+xml</dc:format>
        <dc:type
           rdf:resource="http://purl.org/dc/dcmitype/StillImage" />
        <dc:title></dc:title>
      </cc:Work>
    </rdf:RDF>
  </metadata>
  <g
     inkscape:label="Capa 1"
     inkscape:groupmode="layer"
     id="layer1"
     transform="translate(0,-1022.3622)">
    <path
       sodipodi:type="arc"
       style="color:#000000;fill:#1a1a1a;stroke:#d4d4d4;stroke-width:1.02777779;stroke-opacity:1;marker:none;visibility:visible;display:inline;overflow:visible;enable-background:accumulate"
       id="path16617-6-6"
       sodipodi:cx="15.16226"
       sodipodi:cy="16.56851"
       sodipodi:rx="14.008413"
       sodipodi:ry="14.008413"
       d="m 29.170673,16.56851 a 14.008413,14.008413 0 1 1 -28.0168263,0 14.008413,14.008413 0 1 1 28.0168263,0 z"
       transform="matrix(0.97297297,0,0,0.97297297,330.50795,953.63241)" />
    <path
       style="fill:#1a1a1a;stroke:#d4d4d4;stroke-width:1px;stroke-linecap:butt;stroke-linejoin:miter;stroke-opacity:1"
       d="m 345.29648,957.89011 0,11.863 0,0"
       id="path16623-6-2"
       inkscape:connector-curvature="0"
       inkscape:transform-center-y="-5.9314904" />
    <path
       style="fill:#1a1a1a;stroke:#d4d4d4;stroke-width:1px;stroke-linecap:butt;stroke-linejoin:miter;stroke-opacity:1"
       d="m 357.15947,969.75311 -1.70877,0 0,0"
       id="path16623-4-2-0"
       inkscape:connector-curvature="0"
       inkscape:transform-center-x="-0.854382" />
    <path
       style="fill:#1a1a1a;stroke:#d4d4d4;stroke-width:0.99999994px;stroke-linecap:butt;stroke-linejoin:miter;stroke-opacity:1"
       d="m 345.29648,981.61611 0,-2.0181 0,0"
       id="path16623-4-3-9-0"
       inkscape:connector-curvature="0"
       inkscape:transform-center-y="1.0091015" />
    <path
       style="fill:#1a1a1a;stroke:#d4d4d4;stroke-width:1px;stroke-linecap:butt;stroke-linejoin:miter;stroke-opacity:1"
       d="m 333.43348,969.75311 11.863,0 0,0"
       id="path16623-4-3-4-1-0"
       inkscape:connector-curvature="0"
       inkscape:transform-center-x="5.9315" />
    <path
       inkscape:connector-curvature="0"
       sodipodi:nodetypes="cccccccccccccc"
       id="path9518-0-7"
       d="m 14.999994,1025.9915 -11.2422196,9.9235 2.2484301,0 0,12.8177 6.7453475,0 0,-7.5644 4.651059,0 1.3e-5,7.5644 6.591159,0 0,-12.8177 2.248444,0 -11.242237,-9.9235 0,0 0,0 z"
       style="font-size:12px;fill:none;stroke:none" />
    <path
       style="font-size:medium;font-style:normal;font-variant:normal;font-weight:normal;font-stretch:normal;text-indent:0;text-align:start;text-decoration:none;line-height:normal;letter-spacing:normal;word-spacing:normal;text-transform:none;direction:ltr;block-progression:tb;writing-mode:lr-tb;text-anchor:start;baseline-shift:baseline;color:#000000;fill:#1a1a1a;fill-opacity:1;stroke:none;stroke-width:0.99999994px;marker:none;visibility:visible;display:inline;overflow:visible;enable-background:accumulate;font-family:Sans;-inkscape-font-specification:Sans"
       d="m 19.944525,1025.1152 -0.31074,0.201 c -1.09337,0.7449 -2.07636,1.5672 -2.97947,2.4129 l -0.0366,-0.018 -0.0183,0.073 c -2.96551,2.7939 -4.93316,5.9982 -6.01378,8.9019 -0.0759,0.2039 -0.14739,0.3873 -0.21934,0.585 -0.57051,-3.713 -1.57761,-3.9069 -2.44938,-5.2096 1.33826,2.3608 2.25135,4.9062 0.40213,10.9857 -0.47599,1.6422 -0.31533,3.4209 0.82256,5.0632 l -0.21935,0.9505 c 0.33746,-0.303 0.68617,-0.1647 1.02362,-0.1279 l 0.0731,0.6763 c 0,0 0.31967,-0.726 2.15692,-1.2247 1.30928,-0.3553 3.58914,-4.2859 5.09983,-5.9224 1.51069,-1.6364 3.38641,-3.0749 4.80736,-3.7289 0,0 -2.11464,-0.039 -4.00309,1.3893 0.18536,-0.4302 0.36139,-0.8862 0.54837,-1.371 1.81954,-4.7172 2.73053,-9.5565 1.44404,-13.2888 l -0.12796,-0.3473 z m -0.18279,1.6633 c 0.14617,0.6659 0.24362,1.357 0.27419,2.0839 l -0.71288,-0.2377 c 0.1498,-0.6136 0.29403,-1.2308 0.43869,-1.8462 z m -1.26125,0.1645 c -0.25419,0.3819 -0.52015,0.7678 -0.76771,1.1516 l -0.42042,-0.1462 c 0.3819,-0.3466 0.77352,-0.6747 1.18813,-1.0054 z m 0.53009,0.2925 c -0.0943,0.3971 -0.19588,0.7925 -0.29246,1.1881 l -0.38386,-0.1279 c 0.22684,-0.3507 0.44366,-0.7111 0.67632,-1.0602 z m -2.21175,1.1699 0.58493,0.201 c -0.2204,0.3469 -0.42523,0.6933 -0.63977,1.0419 l -0.89566,-0.2741 c 0.3042,-0.3256 0.62044,-0.6526 0.9505,-0.9688 z m 1.18813,0.4021 0.58493,0.2011 c -0.0936,0.3767 -0.17713,0.7586 -0.27419,1.1332 l -0.9505,-0.3106 c 0.20998,-0.3404 0.42398,-0.685 0.63976,-1.0237 z m 1.16985,0.4022 0.85912,0.2924 c -2.8e-4,0.3868 -0.008,0.7705 -0.0366,1.1698 l -1.11502,-0.3473 c 0.096,-0.3706 0.19999,-0.7428 0.29246,-1.1149 z m -3.74718,0.6396 1.02362,0.3291 c -0.14503,0.2397 -0.2966,0.4724 -0.43869,0.713 -0.35847,-0.1418 -0.72997,-0.2861 -1.09674,-0.4388 0.16735,-0.2018 0.33512,-0.4037 0.51181,-0.6033 z m 1.62683,0.5119 1.09673,0.3473 c -0.0778,0.293 -0.15697,0.5861 -0.23762,0.8774 -0.42759,-0.1419 -0.86796,-0.305 -1.31609,-0.4752 0.1488,-0.2518 0.30484,-0.4987 0.45698,-0.7495 z m 1.68166,0.5302 1.20641,0.3837 c -0.0283,0.2732 -0.0695,0.5632 -0.10967,0.8409 -0.42192,-0.089 -0.85956,-0.2093 -1.31609,-0.3473 0.0798,-0.2888 0.14243,-0.5874 0.21935,-0.8773 z m -4.20416,0.037 c 0.39408,0.1647 0.783,0.3411 1.16985,0.4935 -0.16189,0.2791 -0.33581,0.5605 -0.49353,0.8408 -0.39841,-0.1916 -0.80115,-0.4139 -1.20641,-0.6398 0.16983,-0.2326 0.34841,-0.4638 0.53009,-0.6945 z m 1.77306,0.7128 c 0.49544,0.1872 0.98678,0.3393 1.46232,0.4936 -0.10093,0.3544 -0.20447,0.7089 -0.31075,1.0601 -0.54766,-0.1829 -1.10155,-0.4093 -1.66338,-0.658 0.16856,-0.3002 0.3383,-0.5967 0.51181,-0.8957 z m -2.65045,0.4753 c 0.42736,0.2399 0.85874,0.4545 1.27953,0.658 -0.16987,0.3079 -0.34726,0.6046 -0.51181,0.914 -0.46977,-0.1862 -0.94752,-0.4006 -1.42576,-0.6032 0.20297,-0.3273 0.43232,-0.6425 0.65804,-0.9688 z m 4.69769,0.2194 c 0.47486,0.1406 0.94402,0.2546 1.3892,0.3472 -0.0592,0.3467 -0.12515,0.6901 -0.20107,1.0419 -0.48529,-0.094 -0.98306,-0.2011 -1.48059,-0.3472 0.10453,-0.3464 0.1932,-0.6931 0.29246,-1.0419 z m -2.85151,0.7128 c 0.60432,0.2708 1.20042,0.5153 1.79133,0.7129 -0.0923,0.2948 -0.19557,0.5851 -0.29246,0.8774 -0.65214,-0.2262 -1.30663,-0.4743 -1.97413,-0.7312 0.15336,-0.2885 0.31716,-0.5717 0.47526,-0.8591 z m -2.81496,0.5667 c 0.49396,0.2098 0.99482,0.4109 1.48059,0.6032 -0.16546,0.3179 -0.33397,0.6308 -0.49353,0.9505 -0.48937,-0.2217 -0.97712,-0.4332 -1.48059,-0.6397 0.15939,-0.305 0.3145,-0.6074 0.49353,-0.914 z m 5.19122,0.3108 c 0.51186,0.1515 1.01523,0.2857 1.51715,0.3838 -0.0819,0.3419 -0.14149,0.6783 -0.23762,1.0236 -0.51999,-0.1594 -1.04317,-0.3159 -1.57199,-0.4936 0.10073,-0.304 0.19675,-0.6073 0.29246,-0.9138 z m -3.1257,0.5118 c 0.69903,0.2686 1.38295,0.5321 2.06552,0.7677 -0.12629,0.3664 -0.24898,0.7349 -0.38386,1.0967 -0.73783,-0.2447 -1.45542,-0.5541 -2.17519,-0.8774 0.16428,-0.3303 0.32281,-0.6586 0.49353,-0.987 z m -2.81496,0.6031 c 0.4905,0.2019 0.99097,0.4157 1.4806,0.6398 -0.11535,0.2366 -0.23534,0.4753 -0.3473,0.7129 -0.47347,-0.2415 -0.94267,-0.5063 -1.40748,-0.7677 0.0867,-0.1915 0.17963,-0.3919 0.27418,-0.585 z m 5.44713,0.3656 c 0.53473,0.179 1.06529,0.3326 1.59027,0.4935 -0.0884,0.296 -0.17632,0.5985 -0.27419,0.8957 -0.58735,-0.051 -1.14904,-0.157 -1.69994,-0.3107 0.13188,-0.355 0.26029,-0.7195 0.38386,-1.0785 z m -3.38161,0.5301 c 0.72428,0.3286 1.44535,0.6575 2.21176,0.914 -0.0978,0.2515 -0.20814,0.5005 -0.31075,0.7494 -0.78028,-0.2638 -1.53462,-0.58 -2.26659,-0.9322 0.11479,-0.2447 0.24715,-0.4874 0.36558,-0.7312 z m -2.55905,0.2377 c 0.45814,0.2562 0.91766,0.5113 1.3892,0.7494 -0.10046,0.2187 -0.21325,0.4383 -0.31074,0.658 -0.45787,-0.2236 -0.9167,-0.463 -1.3892,-0.6763 0.002,-0.012 -0.002,-0.013 0,-0.018 0.0884,-0.2376 0.2098,-0.4712 0.31074,-0.7129 z m 5.35573,0.859 c 0.54834,0.1548 1.10948,0.2685 1.69994,0.3291 -0.096,0.2756 -0.18906,0.5466 -0.29246,0.8225 -0.58813,-0.1006 -1.16682,-0.2391 -1.71822,-0.4022 0.10259,-0.2501 0.21301,-0.4968 0.31074,-0.7494 z m -3.39988,0.1645 c 0.7347,0.3501 1.49535,0.6659 2.28487,0.9323 -0.10115,0.235 -0.20475,0.4622 -0.31075,0.6946 -0.78448,-0.2697 -1.52127,-0.6093 -2.26659,-0.9688 0.0969,-0.2196 0.19256,-0.4393 0.29247,-0.6581 z m -2.46766,0.256 c 0.46051,0.2087 0.91312,0.4513 1.37092,0.6763 -0.16268,0.3773 -0.32171,0.7534 -0.47525,1.1332 -0.41724,-0.187 -0.85092,-0.4007 -1.29781,-0.6397 0.12633,-0.3742 0.25694,-0.7715 0.40214,-1.1698 z m 5.33745,0.8773 c 0.5602,0.1667 1.13853,0.2959 1.7365,0.4021 -0.0824,0.2103 -0.17401,0.4044 -0.2559,0.6034 -0.62091,-0.058 -1.21057,-0.1688 -1.77306,-0.3291 0.10126,-0.2238 0.19566,-0.4504 0.29246,-0.6764 z m -3.39988,0.073 c 0.7236,0.3505 1.46518,0.6951 2.24831,0.9688 -0.13927,0.2914 -0.27254,0.5904 -0.42042,0.8773 -0.7201,-0.1668 -1.4716,-0.3999 -2.28487,-0.7311 0.14898,-0.3707 0.29918,-0.7468 0.45698,-1.115 z m -2.54078,0.7859 c 0.43898,0.2323 0.86603,0.4374 1.27953,0.6215 -0.12175,0.3114 -0.25024,0.6189 -0.36558,0.9322 -0.39592,-0.1791 -0.80612,-0.3617 -1.20641,-0.5666 0.0885,-0.3246 0.1856,-0.6511 0.29246,-0.9871 z m 5.39229,0.3656 c 0.56527,0.166 1.16394,0.2771 1.79134,0.3472 -0.10192,0.2358 -0.19117,0.4574 -0.29246,0.6764 -0.60989,-0.025 -1.23815,-0.08 -1.90101,-0.2011 0.13854,-0.2723 0.27123,-0.5463 0.40213,-0.8225 z m -3.52783,0.5118 c 0.77845,0.315 1.51176,0.5427 2.21175,0.7129 -0.17297,0.3197 -0.34501,0.6373 -0.53009,0.9505 -0.66847,-0.1862 -1.34178,-0.4438 -2.02896,-0.7312 0.1144,-0.3128 0.22644,-0.6211 0.3473,-0.9322 z m -2.21176,0.7129 c 0.35402,0.1799 0.70902,0.3713 1.06018,0.5301 -0.14542,0.4103 -0.26817,0.8293 -0.40213,1.2429 -0.23744,-0.1161 -0.47473,-0.2429 -0.71288,-0.3655 -0.003,-0.4616 0.0196,-0.9382 0.0548,-1.4075 z m 5.04499,0.1462 c 0.66965,0.1317 1.3046,0.2022 1.91929,0.2377 -0.0102,0.021 -0.0263,0.035 -0.0366,0.055 -0.28778,0.3011 -0.57572,0.6075 -0.87739,0.8957 -0.50476,-0.043 -1.01369,-0.1188 -1.53543,-0.2376 0.18305,-0.3145 0.35899,-0.6301 0.53009,-0.9505 z m -3.39988,0.6398 c 0.65008,0.2727 1.29606,0.4898 1.93757,0.6763 -0.24941,0.4017 -0.51393,0.7985 -0.786,1.1881 -0.54536,-0.1748 -1.06599,-0.3708 -1.57199,-0.6032 0.13509,-0.4214 0.27333,-0.8429 0.42042,-1.2612 z m 2.54077,0.8408 c 0.43257,0.1053 0.86799,0.1675 1.29781,0.2194 -0.43979,0.401 -0.87064,0.7771 -1.29781,1.1333 -0.26228,-0.042 -0.52088,-0.083 -0.76771,-0.1463 0.27023,-0.3932 0.51998,-0.8018 0.76771,-1.2064 z m -4.22243,0.457 c 0.16894,0.088 0.33866,0.1719 0.51181,0.2558 -0.10245,0.3308 -0.19763,0.6541 -0.29247,0.9871 -0.0249,-0.012 -0.0482,-0.025 -0.0731,-0.037 -0.0651,-0.3957 -0.12281,-0.8022 -0.14623,-1.2064 z m 1.09673,0.5301 c 0.44222,0.2006 0.89279,0.3867 1.37092,0.5484 -0.20222,0.2748 -0.40651,0.5543 -0.62148,0.8224 -0.005,0 -0.0131,0 -0.0183,0 -0.34026,-0.1217 -0.67879,-0.2771 -1.02362,-0.4203 0.0898,-0.3177 0.19567,-0.6347 0.29246,-0.9505 z m 1.99241,0.7311 c 0.17269,0.047 0.35036,0.088 0.53009,0.1279 -0.36225,0.2915 -0.65296,0.5276 -0.96879,0.7678 -0.0676,-0.019 -0.13321,-0.035 -0.20107,-0.056 0.22033,-0.2791 0.43288,-0.5547 0.63977,-0.8408 z m -2.4311,0.7861 c 0.26316,0.1098 0.52045,0.2299 0.78599,0.3289 -0.24396,0.2887 -0.49074,0.5649 -0.74943,0.8409 -0.0727,-0.1781 -0.14074,-0.3495 -0.20107,-0.5301 0.056,-0.2124 0.10703,-0.4258 0.16451,-0.6397 z"
       id="path11111-8"
       inkscape:connector-curvature="0" />
  </g>
</svg>
