<?xml version="1.0" encoding="UTF-8" standalone="no"?>
<!-- Created with Inkscape (http://www.inkscape.org/) -->

<svg
   xmlns:dc="http://purl.org/dc/elements/1.1/"
   xmlns:cc="http://creativecommons.org/ns#"
   xmlns:rdf="http://www.w3.org/1999/02/22-rdf-syntax-ns#"
   xmlns:svg="http://www.w3.org/2000/svg"
   xmlns="http://www.w3.org/2000/svg"
   xmlns:sodipodi="http://sodipodi.sourceforge.net/DTD/sodipodi-0.dtd"
   xmlns:inkscape="http://www.inkscape.org/namespaces/inkscape"
   width="30"
   height="30"
   id="svg2"
   sodipodi:version="0.32"
   inkscape:version="0.48.4 r9939"
   sodipodi:docname="toy_train.svg"
   inkscape:output_extension="org.inkscape.output.svg.inkscape"
   version="1.1">
  <defs
     id="defs4" />
  <sodipodi:namedview
     id="base"
     pagecolor="#ffffff"
     bordercolor="#666666"
     borderopacity="1.0"
     inkscape:pageopacity="0.0"
     inkscape:pageshadow="2"
     inkscape:zoom="11.6"
     inkscape:cx="15"
     inkscape:cy="15"
     inkscape:document-units="px"
     inkscape:current-layer="layer1"
     inkscape:window-width="698"
     inkscape:window-height="1029"
     inkscape:window-x="0"
     inkscape:window-y="19"
     showgrid="false"
     inkscape:window-maximized="0" />
  <metadata
     id="metadata7">
    <rdf:RDF>
      <cc:Work
         rdf:about="">
        <dc:format>image/svg+xml</dc:format>
        <dc:type
           rdf:resource="http://purl.org/dc/dcmitype/StillImage" />
        <dc:title></dc:title>
      </cc:Work>
    </rdf:RDF>
  </metadata>
  <g
     inkscape:label="Capa 1"
     inkscape:groupmode="layer"
     id="layer1"
     transform="translate(0,-1022.3622)">
    <path
       sodipodi:type="arc"
       style="color:#000000;fill:#1a1a1a;stroke:#d4d4d4;stroke-width:1.02777779;stroke-opacity:1;marker:none;visibility:visible;display:inline;overflow:visible;enable-background:accumulate"
       id="path16617-6-6"
       sodipodi:cx="15.16226"
       sodipodi:cy="16.56851"
       sodipodi:rx="14.008413"
       sodipodi:ry="14.008413"
       d="m 29.170673,16.56851 a 14.008413,14.008413 0 1 1 -28.0168263,0 14.008413,14.008413 0 1 1 28.0168263,0 z"
       transform="matrix(0.97297297,0,0,0.97297297,330.50795,953.63241)" />
    <path
       style="fill:#1a1a1a;stroke:#d4d4d4;stroke-width:1px;stroke-linecap:butt;stroke-linejoin:miter;stroke-opacity:1"
       d="m 345.29648,957.89011 0,11.863 0,0"
       id="path16623-6-2"
       inkscape:connector-curvature="0"
       inkscape:transform-center-y="-5.9314904" />
    <path
       style="fill:#1a1a1a;stroke:#d4d4d4;stroke-width:1px;stroke-linecap:butt;stroke-linejoin:miter;stroke-opacity:1"
       d="m 357.15947,969.75311 -1.70877,0 0,0"
       id="path16623-4-2-0"
       inkscape:connector-curvature="0"
       inkscape:transform-center-x="-0.854382" />
    <path
       style="fill:#1a1a1a;stroke:#d4d4d4;stroke-width:0.99999994px;stroke-linecap:butt;stroke-linejoin:miter;stroke-opacity:1"
       d="m 345.29648,981.61611 0,-2.0181 0,0"
       id="path16623-4-3-9-0"
       inkscape:connector-curvature="0"
       inkscape:transform-center-y="1.0091015" />
    <path
       style="fill:#1a1a1a;stroke:#d4d4d4;stroke-width:1px;stroke-linecap:butt;stroke-linejoin:miter;stroke-opacity:1"
       d="m 333.43348,969.75311 11.863,0 0,0"
       id="path16623-4-3-4-1-0"
       inkscape:connector-curvature="0"
       inkscape:transform-center-x="5.9315" />
    <path
       inkscape:connector-curvature="0"
       style="fill:#1a1a1a;fill-opacity:1;stroke:none"
       d="m 13.122527,1047.7798 c -0.042,-0.013 -0.20801,-0.036 -0.36896,-0.064 -0.55517,-0.092 -0.9282,-0.163 -0.97929,-0.1875 -0.0282,-0.014 -0.11995,-0.041 -0.20392,-0.06 -0.26391,-0.064 -0.43018,-0.1132 -0.50152,-0.1515 -0.0379,-0.021 -0.0757,-0.036 -0.084,-0.036 -0.0934,0 -0.61648,-0.3331 -0.83225,-0.5301 -0.15654,-0.1429 -0.30011,-0.404 -0.33459,-0.6083 -0.0398,-0.236 0.13905,-0.5797 0.41787,-0.8027 0.12838,-0.1027 0.41381,-0.2655 0.53301,-0.3041 0.035,-0.014 0.16094,-0.084 0.2799,-0.1614 0.11895,-0.078 0.22712,-0.1409 0.24036,-0.141 0.0132,-10e-5 0.0656,-0.022 0.11628,-0.046 0.0507,-0.025 0.14995,-0.06 0.22053,-0.08 0.0706,-0.018 0.15513,-0.046 0.18788,-0.062 0.0595,-0.029 0.0595,-0.029 -0.0319,-0.129 -0.10974,-0.1211 -0.33699,-0.3223 -0.60686,-0.5383 -0.44984,-0.36 -0.86192,-0.7303 -1.17436,-1.0555 -0.0324,-0.033 -0.094,-0.096 -0.13692,-0.1395 -0.0809,-0.082 -0.36719,-0.419 -0.36719,-0.4335 0,-0.013 -0.0311,-0.044 -0.0691,-0.087 -0.0772,-0.088 -0.12872,-0.1506 -0.2244001,-0.2738 -0.0358,-0.046 -0.10593,-0.1339 -0.15597,-0.1953 -0.05,-0.062 -0.11716,-0.1451 -0.14918,-0.186 -0.032,-0.041 -0.11071,-0.1414 -0.17487,-0.2232 -0.0642,-0.082 -0.11675,-0.1565 -0.11685,-0.1659 -1.2e-4,-0.013 -0.0167,-0.03 -0.0368,-0.048 -0.0387,-0.032 -0.52319,-0.7315 -0.52319,-0.7562 0,-0.014 -0.0216,-0.048 -0.0481,-0.09 -0.13222,-0.2079 -0.25727,-0.4151 -0.25727,-0.4262 0,0 -0.0222,-0.048 -0.0494,-0.091 -0.0272,-0.044 -0.10244,-0.1792 -0.16725,-0.302 -0.0648,-0.1224 -0.1467,-0.2775 -0.18198,-0.344 -0.0353,-0.067 -0.0918,-0.1796 -0.12566,-0.251 -0.0338,-0.071 -0.0728,-0.1469 -0.0866,-0.1675 -0.0361,-0.054 -0.21039,-0.4707 -0.28751,-0.688 -0.0363,-0.1027 -0.0947,-0.2663 -0.12979,-0.3642 -0.0859,-0.2399 -0.20985,-0.7963 -0.24273,-1.0895 -0.0147,-0.1316 -0.0396,-0.3431 -0.0552,-0.4706 -0.0435,-0.3545 -2.9e-4,-0.8568 0.0927,-1.0792 0.0689,-0.1647 0.0277,-0.818 -0.0906,-1.439 -0.0271,-0.1419 -0.0439,-0.2643 -0.0375,-0.2719 0.006,-0.014 -0.004,-0.075 -0.0234,-0.1511 -0.0193,-0.075 -0.0486,-0.2419 -0.065,-0.3697 -0.0165,-0.1278 -0.035,-0.2534 -0.0412,-0.279 -0.0271,-0.1119 -0.0889,-0.4227 -0.13873,-0.6974 -0.0784,-0.4323 -0.0808,-1.2078 -0.004,-1.4506 0.0289,-0.092 0.0671,-0.2218 0.0848,-0.2883 0.0416,-0.1557 0.2431,-0.4659 0.44039,-0.6779 0.15634,-0.1681 0.41928,-0.373 0.50367,-0.3926 0.0251,-0.014 0.0457,-0.018 0.0457,-0.028 0,-0.022 0.24502,-0.1394 0.42945,-0.2047 0.29099,-0.1027 0.8642,-0.1807 1.16089,-0.1574 0.38534,0.03 0.7761101,0.1238 1.0213601,0.2448 0.0679,0.033 0.51444,0.3584 0.65361,0.4754 0.0719,0.06 0.0719,0.06 0.057,-0.2184 -0.0149,-0.2793 -0.0592,-0.4891 -0.11322,-0.5367 -0.0159,-0.013 -0.0978,-0.03 -0.18202,-0.036 -0.19189,-0.014 -0.37814,-0.079 -0.43798,-0.1554 -0.0463,-0.059 -0.15451,-0.2724 -0.31491,-0.6207 -0.0495,-0.108 -0.13482,-0.2632 -0.18969,-0.3462 -0.1242301,-0.1878 -0.1245401,-0.2047 -0.004,-0.2306 0.25221,-0.056 1.44785,-0.1225 2.47457,-0.1402 0.35687,0 0.68894,-0.016 0.73792,-0.021 0.13795,-0.014 4.13123,-0.017 5.61072,-0.014 1.15769,0.014 1.71848,0.029 1.94658,0.06 0.035,0 0.23537,0.032 0.44529,0.058 0.41744,0.053 0.49043,0.068 0.51196,0.1106 0.0157,0.03 -0.002,0.059 -0.38536,0.6333 -0.1434,0.215 -0.27796,0.4209 -0.29901,0.4578 -0.0571,0.1 -0.13102,0.1403 -0.28073,0.1543 -0.21056,0.02 -0.28942,0.044 -0.31861,0.1 -0.0581,0.1106 -0.10985,0.6924 -0.0616,0.6917 0.0105,-10e-5 0.14504,-0.088 0.29899,-0.1948 0.15394,-0.1066 0.29281,-0.1949 0.30859,-0.195 0.0158,-3e-4 0.0443,-0.014 0.0633,-0.032 0.0546,-0.048 0.43516,-0.1714 0.62551,-0.2027 0.45691,-0.075 0.67247,-0.072 1.09405,0.016 0.27869,0.058 0.73146,0.2917 1.11211,0.5742 0.27746,0.2059 0.30096,0.2293 0.44555,0.4463 0.18903,0.2837 0.29439,0.5172 0.33058,0.7329 0.061,0.3634 0.017,0.9532 -0.12587,1.6907 -0.0159,0.082 -0.0328,0.1864 -0.0375,0.2323 -0.005,0.046 -0.02,0.1212 -0.0339,0.1676 -0.0263,0.087 -0.0581,0.247 -0.10559,0.5299 -0.0154,0.092 -0.039,0.2093 -0.0523,0.2604 -0.0987,0.379 -0.11747,1.2041 -0.0349,1.5371 0.11884,0.4793 0.12073,0.4963 0.12117,1.0944 4e-4,0.5501 -0.0246,0.8492 -0.0854,1.0229 -0.0125,0.036 -0.0356,0.1445 -0.0513,0.2416 -0.0573,0.3548 -0.32703,1.19 -0.48651,1.5065 -0.0284,0.056 -0.073,0.1526 -0.0993,0.2139 -0.086,0.2011 -0.20491,0.4303 -0.38375,0.7394 -0.04,0.07 -0.0727,0.1351 -0.0727,0.1464 0,0.022 -0.0347,0.083 -0.28026,0.4904 -0.14113,0.2341 -0.71582,1.073 -0.86806,1.2671 -0.0675,0.086 -0.3387,0.4414 -0.4155,0.5444 -0.11172,0.1498 -1.04885,1.1487 -1.3555,1.4448 -0.0732,0.071 -0.20435,0.1983 -0.29149,0.2837 -0.0871,0.086 -0.19701,0.1784 -0.24416,0.2068 -0.0471,0.029 -0.13933,0.1053 -0.20484,0.1703 -0.0655,0.064 -0.1906,0.1839 -0.278,0.2639 -0.0874,0.08 -0.1589,0.1491 -0.1589,0.1537 0,0 0.11164,0.048 0.24809,0.096 0.23406,0.083 0.46143,0.2022 0.75562,0.3959 0.0707,0.046 0.19382,0.1132 0.27353,0.1474 0.52549,0.2277 0.82245,0.7104 0.70808,1.1512 -0.0941,0.3627 -0.56625,0.7415 -1.20924,0.9702 -0.50942,0.1812 -1.25736,0.3549 -1.85752,0.4318 -0.18689,0.025 -4.0611,0.036 -4.17305,0.014 z m 9.2459,-14.7186 c 0.0611,-0.076 0.16622,-0.3565 0.22278,-0.5954 0.0218,-0.092 0.063,-0.2552 0.0916,-0.3626 0.0286,-0.108 0.0668,-0.2621 0.0848,-0.344 0.018,-0.082 0.053,-0.2284 0.0778,-0.3255 0.0352,-0.1381 0.045,-0.2759 0.0452,-0.6323 1.6e-4,-0.4401 -0.002,-0.4619 -0.0699,-0.6416 -0.0897,-0.2378 -0.31521,-0.557 -0.48692,-0.6891 -0.1684,-0.129 -0.45796,-0.2037 -0.73244,-0.1878 -0.61925,0.036 -1.32493,0.6561 -1.55865,1.3696 -0.12538,0.3829 0.0678,0.8783 0.48594,1.2462 0.15791,0.1389 0.64037,0.488 0.79667,0.5765 0.19773,0.1119 0.79314,0.5069 0.8675,0.5755 0.0994,0.092 0.10954,0.092 0.17562,0.013 z m -14.5941301,0 c 0.0306,-0.013 0.1071,-0.056 0.17008,-0.1 0.063,-0.044 0.18894,-0.1212 0.2799,-0.1731 0.091,-0.051 0.19402,-0.1106 0.22901,-0.1316 0.035,-0.02 0.16013,-0.095 0.27808,-0.1642 0.6448801,-0.3801 0.8516601,-0.5441 1.2840501,-1.019 0.22055,-0.2422 0.22238,-0.2463 0.22199,-0.4841 -3.3e-4,-0.201 -0.0512,-0.4563 -0.10564,-0.5308 -0.0135,-0.018 -0.0245,-0.053 -0.0245,-0.075 0,-0.054 -0.22089,-0.3843 -0.36661,-0.5472 -0.19953,-0.2232 -0.42992,-0.3718 -0.7784401,-0.5023 -0.18438,-0.068 -0.20134,-0.071 -0.50131,-0.08 -0.28897,-0.013 -0.32351,0 -0.49849,0.042 -0.27518,0.074 -0.57628,0.3122 -0.67803,0.5379 -0.16832,0.3732 -0.18247,1.0559 -0.0357,1.7225 0.0214,0.097 0.055,0.2647 0.0748,0.3719 0.0197,0.108 0.0472,0.2372 0.061,0.2884 0.047,0.1735 0.0983,0.3902 0.11459,0.4836 0.0194,0.1106 0.1043,0.3219 0.14359,0.3565 0.0342,0.03 0.0595,0.032 0.13162,0.013 z"
       id="path8938-5-5" />
  </g>
</svg>
