<?xml version="1.0" encoding="UTF-8" standalone="no"?>
<!-- Created with Inkscape (http://www.inkscape.org/) -->

<svg
   xmlns:dc="http://purl.org/dc/elements/1.1/"
   xmlns:cc="http://creativecommons.org/ns#"
   xmlns:rdf="http://www.w3.org/1999/02/22-rdf-syntax-ns#"
   xmlns:svg="http://www.w3.org/2000/svg"
   xmlns="http://www.w3.org/2000/svg"
   xmlns:sodipodi="http://sodipodi.sourceforge.net/DTD/sodipodi-0.dtd"
   xmlns:inkscape="http://www.inkscape.org/namespaces/inkscape"
   width="30"
   height="30"
   id="svg2"
   sodipodi:version="0.32"
   inkscape:version="0.48.4 r9939"
   sodipodi:docname="water2.svg"
   inkscape:output_extension="org.inkscape.output.svg.inkscape"
   version="1.1">
  <defs
     id="defs4" />
  <sodipodi:namedview
     id="base"
     pagecolor="#ffffff"
     bordercolor="#666666"
     borderopacity="1.0"
     inkscape:pageopacity="0.0"
     inkscape:pageshadow="2"
     inkscape:zoom="10.276087"
     inkscape:cx="15.344828"
     inkscape:cy="14.482759"
     inkscape:document-units="px"
     inkscape:current-layer="layer1"
     inkscape:window-width="656"
     inkscape:window-height="1029"
     inkscape:window-x="0"
     inkscape:window-y="19"
     showgrid="false"
     inkscape:window-maximized="0" />
  <metadata
     id="metadata7">
    <rdf:RDF>
      <cc:Work
         rdf:about="">
        <dc:format>image/svg+xml</dc:format>
        <dc:type
           rdf:resource="http://purl.org/dc/dcmitype/StillImage" />
        <dc:title></dc:title>
      </cc:Work>
    </rdf:RDF>
  </metadata>
  <g
     inkscape:label="Capa 1"
     inkscape:groupmode="layer"
     id="layer1"
     transform="translate(0,-1022.3622)">
    <path
       sodipodi:type="arc"
       style="color:#000000;fill:#1a1a1a;stroke:#d4d4d4;stroke-width:1.02777779;stroke-opacity:1;marker:none;visibility:visible;display:inline;overflow:visible;enable-background:accumulate"
       id="path16617-6-6"
       sodipodi:cx="15.16226"
       sodipodi:cy="16.56851"
       sodipodi:rx="14.008413"
       sodipodi:ry="14.008413"
       d="m 29.170673,16.56851 a 14.008413,14.008413 0 1 1 -28.0168263,0 14.008413,14.008413 0 1 1 28.0168263,0 z"
       transform="matrix(0.97297297,0,0,0.97297297,330.50795,953.63241)" />
    <path
       style="fill:#1a1a1a;stroke:#d4d4d4;stroke-width:1px;stroke-linecap:butt;stroke-linejoin:miter;stroke-opacity:1"
       d="m 345.29648,957.89011 0,11.863 0,0"
       id="path16623-6-2"
       inkscape:connector-curvature="0"
       inkscape:transform-center-y="-5.9314904" />
    <path
       style="fill:#1a1a1a;stroke:#d4d4d4;stroke-width:1px;stroke-linecap:butt;stroke-linejoin:miter;stroke-opacity:1"
       d="m 357.15947,969.75311 -1.70877,0 0,0"
       id="path16623-4-2-0"
       inkscape:connector-curvature="0"
       inkscape:transform-center-x="-0.854382" />
    <path
       style="fill:#1a1a1a;stroke:#d4d4d4;stroke-width:0.99999994px;stroke-linecap:butt;stroke-linejoin:miter;stroke-opacity:1"
       d="m 345.29648,981.61611 0,-2.0181 0,0"
       id="path16623-4-3-9-0"
       inkscape:connector-curvature="0"
       inkscape:transform-center-y="1.0091015" />
    <path
       style="fill:#1a1a1a;stroke:#d4d4d4;stroke-width:1px;stroke-linecap:butt;stroke-linejoin:miter;stroke-opacity:1"
       d="m 333.43348,969.75311 11.863,0 0,0"
       id="path16623-4-3-4-1-0"
       inkscape:connector-curvature="0"
       inkscape:transform-center-x="5.9315" />
    <path
       inkscape:connector-curvature="0"
       sodipodi:nodetypes="cccccccccccccc"
       id="path9518-0-7"
       d="m 14.999994,1025.9915 -11.2422196,9.9235 2.2484301,0 0,12.8177 6.7453475,0 0,-7.5644 4.651059,0 1.3e-5,7.5644 6.591159,0 0,-12.8177 2.248444,0 -11.242237,-9.9235 0,0 0,0 z"
       style="font-size:12px;fill:none;stroke:none" />
    <path
       style="fill:#1a1a1a;fill-opacity:1;stroke:none"
       d="m 18.231715,1029.1504 0.0307,1.2602 1.67176,-0.063 c 0.56746,0.1469 0.58861,0.3375 0.0632,0.5686 -0.49016,0.3692 -0.64249,0.9343 -0.12638,1.8903 l -8.98553,0.063 -0.50375,-1.2927 c 0.71457,-0.1277 1.4285,-0.1364 2.14307,-0.6608 0.29171,-0.3475 -0.0419,-0.3207 -0.12636,-0.4423 0,0 -4.5680099,-0.2318 -4.7284198,-0.094 -0.3092401,0.2656 1.0511997,1.9249 1.2619397,1.2926 l 0.5362,1.3559 -1.6000497,2.9714 c -0.59404,-0.2502 -1.24632,-0.3877 -1.93133,-0.3877 -2.75094,0 -4.98115005,2.2302 -4.98115005,4.9811 0,2.7509 2.23021005,4.9811 4.98115005,4.9811 2.5586597,0 4.6664998,-1.9292 4.9487098,-4.4124 l 1.16631,0 c 0.15762,0.2841 0.19259,0.3493 0.59937,0.5037 l -0.47301,1.1664 -0.91358,0 c -0.42034,0.1892 -0.42034,0.42 0,0.6933 l 2.07989,0 c 0.39816,-0.3914 0.16998,-0.5131 0,-0.661 l -0.63011,-0.032 0.47301,-0.9767 c 0.90264,0.017 1.53147,-0.3429 1.51296,-1.5129 l 6.08427,-4.1308 0.12125,0.4354 c -1.11301,0.9137 -1.82375,2.3003 -1.82375,3.8524 0,2.7511 2.23021,4.9812 4.98115,4.9812 2.75094,0 4.98115,-2.2301 4.98115,-4.9812 0,-2.7509 -2.23021,-4.9811 -4.98115,-4.9811 -0.67989,0 -1.32719,0.1364 -1.91766,0.3826 l -1.04507,-3.4409 c -0.50333,-0.8158 0.1443,-0.8257 0.40983,-1.1032 0.79331,-1.0593 0.68284,-1.8081 -0.5362,-2.1755 l -2.74244,-0.031 z m 1.87497,4.7608 0.33128,1.1339 -4.66694,3.171 c -0.0355,0.035 -0.0799,0.063 -0.12638,0.086 l -1.40196,0.9528 0.36373,-0.9153 0.91358,0 c 0.0417,-0.017 0.0841,-0.019 0.12466,-0.038 l 0.12637,-0.086 c 0.13875,-0.1364 0.15508,-0.3595 -0.25102,-0.555 l -2.07989,0 c -0.44776,0.3628 -0.25528,0.5389 0,0.6951 l 0.61474,0 -0.34665,0.9766 -0.20491,-0.049 -2.14478,-5.2953 8.74817,-0.079 z m -10.10403,0.4406 2.27115,5.391 c -0.0735,0.079 -0.12891,0.091 -0.18955,0.2834 l -1.19876,0 c -0.16302,-1.4387 -0.9377801,-2.6923 -2.0594001,-3.4919 l 1.1765601,-2.1825 z m 14.06061,2.4283 c 2.0545,0 3.71921,1.6647 3.71921,3.7191 0,2.0546 -1.66471,3.7211 -3.71921,3.7211 -2.0545,0 -3.72093,-1.6665 -3.72093,-3.7211 0,-0.9507 0.3572,-1.8185 0.94432,-2.476 l 0.0666,0.2373 c 0.44235,1.2938 0.76501,1.8128 1.03995,2.0184 0,0 1.45643,1.5071 2.04915,0.5671 0.42774,-0.6787 -1.22975,-1.3428 -1.35586,-1.8289 l -0.57376,-1.899 c 0.47225,-0.2168 0.9969,-0.338 1.55053,-0.338 z m -18.1264698,0.094 c 0.46813,0 0.91596,0.086 1.32853,0.2441 l -1.32853,2.4677 c -0.55847,0.8148 -0.86413,1.5096 0.1571,1.576 l 3.5194197,0 c -0.27342,1.785 -1.8152097,3.1524 -3.6765197,3.1524 -2.0545,0 -3.72092,-1.6666 -3.72092,-3.7211 0,-2.0544 1.66642,-3.7192 3.72092,-3.7192 z m 2.2848097,0.7855 c 0.7318,0.5706 1.24521,1.4076 1.39171,2.3668 l -2.6673097,0 1.2755997,-2.3668 z"
       id="path16175-4"
       inkscape:connector-curvature="0" />
  </g>
</svg>
