<?xml version="1.0" encoding="UTF-8" standalone="no"?>
<!-- Created with Inkscape (http://www.inkscape.org/) -->

<svg
   xmlns:dc="http://purl.org/dc/elements/1.1/"
   xmlns:cc="http://creativecommons.org/ns#"
   xmlns:rdf="http://www.w3.org/1999/02/22-rdf-syntax-ns#"
   xmlns:svg="http://www.w3.org/2000/svg"
   xmlns="http://www.w3.org/2000/svg"
   xmlns:sodipodi="http://sodipodi.sourceforge.net/DTD/sodipodi-0.dtd"
   xmlns:inkscape="http://www.inkscape.org/namespaces/inkscape"
   width="30"
   height="30"
   id="svg2"
   sodipodi:version="0.32"
   inkscape:version="0.48.4 r9939"
   sodipodi:docname="toilet1.svg"
   inkscape:output_extension="org.inkscape.output.svg.inkscape"
   version="1.1">
  <defs
     id="defs4" />
  <sodipodi:namedview
     id="base"
     pagecolor="#ffffff"
     bordercolor="#666666"
     borderopacity="1.0"
     inkscape:pageopacity="0.0"
     inkscape:pageshadow="2"
     inkscape:zoom="10.276087"
     inkscape:cx="15.344828"
     inkscape:cy="14.482759"
     inkscape:document-units="px"
     inkscape:current-layer="layer1"
     inkscape:window-width="656"
     inkscape:window-height="1029"
     inkscape:window-x="0"
     inkscape:window-y="19"
     showgrid="false"
     inkscape:window-maximized="0" />
  <metadata
     id="metadata7">
    <rdf:RDF>
      <cc:Work
         rdf:about="">
        <dc:format>image/svg+xml</dc:format>
        <dc:type
           rdf:resource="http://purl.org/dc/dcmitype/StillImage" />
        <dc:title></dc:title>
      </cc:Work>
    </rdf:RDF>
  </metadata>
  <g
     inkscape:label="Capa 1"
     inkscape:groupmode="layer"
     id="layer1"
     transform="translate(0,-1022.3622)">
    <path
       sodipodi:type="arc"
       style="color:#000000;fill:#1a1a1a;stroke:#d4d4d4;stroke-width:1.02777779;stroke-opacity:1;marker:none;visibility:visible;display:inline;overflow:visible;enable-background:accumulate"
       id="path16617-6-6"
       sodipodi:cx="15.16226"
       sodipodi:cy="16.56851"
       sodipodi:rx="14.008413"
       sodipodi:ry="14.008413"
       d="m 29.170673,16.56851 a 14.008413,14.008413 0 1 1 -28.0168263,0 14.008413,14.008413 0 1 1 28.0168263,0 z"
       transform="matrix(0.97297297,0,0,0.97297297,330.50795,953.63241)" />
    <path
       style="fill:#1a1a1a;stroke:#d4d4d4;stroke-width:1px;stroke-linecap:butt;stroke-linejoin:miter;stroke-opacity:1"
       d="m 345.29648,957.89011 0,11.863 0,0"
       id="path16623-6-2"
       inkscape:connector-curvature="0"
       inkscape:transform-center-y="-5.9314904" />
    <path
       style="fill:#1a1a1a;stroke:#d4d4d4;stroke-width:1px;stroke-linecap:butt;stroke-linejoin:miter;stroke-opacity:1"
       d="m 357.15947,969.75311 -1.70877,0 0,0"
       id="path16623-4-2-0"
       inkscape:connector-curvature="0"
       inkscape:transform-center-x="-0.854382" />
    <path
       style="fill:#1a1a1a;stroke:#d4d4d4;stroke-width:0.99999994px;stroke-linecap:butt;stroke-linejoin:miter;stroke-opacity:1"
       d="m 345.29648,981.61611 0,-2.0181 0,0"
       id="path16623-4-3-9-0"
       inkscape:connector-curvature="0"
       inkscape:transform-center-y="1.0091015" />
    <path
       style="fill:#1a1a1a;stroke:#d4d4d4;stroke-width:1px;stroke-linecap:butt;stroke-linejoin:miter;stroke-opacity:1"
       d="m 333.43348,969.75311 11.863,0 0,0"
       id="path16623-4-3-4-1-0"
       inkscape:connector-curvature="0"
       inkscape:transform-center-x="5.9315" />
    <path
       inkscape:connector-curvature="0"
       sodipodi:nodetypes="cccccccccccccc"
       id="path9518-0-7"
       d="m 14.999994,1025.9915 -11.2422196,9.9235 2.2484301,0 0,12.8177 6.7453475,0 0,-7.5644 4.651059,0 1.3e-5,7.5644 6.591159,0 0,-12.8177 2.248444,0 -11.242237,-9.9235 0,0 0,0 z"
       style="font-size:12px;fill:none;stroke:none" />
    <path
       style="font-size:medium;font-style:normal;font-variant:normal;font-weight:normal;font-stretch:normal;text-indent:0;text-align:start;text-decoration:none;line-height:normal;letter-spacing:normal;word-spacing:normal;text-transform:none;direction:ltr;block-progression:tb;writing-mode:lr-tb;text-anchor:start;baseline-shift:baseline;color:#000000;fill:#1a1a1a;fill-opacity:1;stroke:none;stroke-width:1.88148153;marker:none;visibility:visible;display:inline;overflow:visible;enable-background:accumulate;font-family:Sans;-inkscape-font-specification:Sans"
       d="m 7.9138152,1028.7195 c -0.47566,0 -0.90129,0.3387 -1.00312,0.823 -0.11638,0.5536 0.23094,1.0926 0.78449,1.2091 l 1.3375,0.2828 -1.37608,5.6072 c -0.25866,-0.043 -0.52658,-0.064 -0.79735,-0.064 -2.6014,0 -4.71983,2.1057 -4.71983,4.707 0,2.6014 2.11843,4.7199 4.71983,4.7199 2.60139,0 4.7326898,-2.1185 4.7326898,-4.7199 0,-2.0416 -1.3164,-3.7689 -3.1379798,-4.4241 l 0.33437,-1.3503 4.1796898,4.1668 c -0.20986,0.2518 -0.32151,0.5501 -0.32151,0.8746 0,0.8811 0.89424,1.6075 2.00625,1.6075 0.19663,0 0.38622,-0.035 0.56586,-0.077 l 0.59159,1.0932 -0.77164,0 c -0.2298,0 -0.4244,0.1817 -0.4244,0.4115 l 0,0.064 c 0,0.2298 0.1946,0.4115 0.4244,0.4115 l 2.4821,0 c 0.22979,0 0.41153,-0.1818 0.41153,-0.4115 l 0,-0.064 c 0,-0.2299 -0.18174,-0.4115 -0.41153,-0.4115 l -0.92597,0 0.11574,-0.064 -0.73305,-1.3634 c 0.42089,-0.2923 0.69447,-0.7175 0.69447,-1.1959 0,-0.3184 -0.11878,-0.6127 -0.32151,-0.8618 l 4.91274,-3.9353 0.29579,1.0932 c -1.82955,0.649 -3.13798,2.3871 -3.13798,4.4369 0,2.6014 2.10558,4.7199 4.70697,4.7199 2.6014,0 4.7327,-2.1185 4.7327,-4.7199 0,-2.6014 -2.1313,-4.7071 -4.7327,-4.7071 -0.26634,0 -0.51723,0.021 -0.77163,0.064 l -0.90024,-3.2924 2.03197,0 c 0.36401,-1.6123 -0.47674,-1.8185 -1.08029,-2.3019 l -6.31454,0 c -0.30013,1.7846 0.62193,2.2032 1.83906,2.3019 l 2.81647,0 -0.14147,0.039 0.33437,1.209 -11.8831698,0 -0.0386,-0.038 0.82307,-3.3568 2.3534898,0.4889 c 0.55356,0.1168 1.09252,-0.231 1.20889,-0.7846 0.11639,-0.5534 -0.2438,-1.0924 -0.79735,-1.2088 l -4.4883398,-0.9519 c -0.0692,-0.016 -0.13782,-0.025 -0.20577,-0.025 z m 1.96767,6.7003 10.4685098,0 -4.69411,3.7682 c -0.29595,-0.135 -0.63675,-0.2314 -1.00312,-0.2314 -0.37361,0 -0.71612,0.091 -1.01599,0.2314 l -3.7552898,-3.7682 z m -3.02223,1.9676 c 0.20691,0 0.40637,0.033 0.60444,0.064 l -1.02884,4.2183 0.79735,0.1929 1.02885,-4.2054 c 1.4588,0.5623 2.4949498,1.9663 2.4949498,3.6267 0,2.1566 -1.7401798,3.8967 -3.8967498,3.8967 -2.15657,0 -3.89676,-1.7401 -3.89676,-3.8967 0,-2.1565 1.74019,-3.8968 3.89676,-3.8968 z m 16.2686298,0 c 2.15657,0 3.89675,1.7404 3.89675,3.8968 0,2.1566 -1.74018,3.8968 -3.89675,3.8968 -2.15657,0 -3.8839,-1.7402 -3.8839,-3.8968 0,-1.6805 1.04665,-3.1041 2.53354,-3.6523 l 1.05456,3.8581 0.79736,-0.2186 -1.05457,-3.8324 c 0.18143,-0.025 0.36431,-0.053 0.55301,-0.053 z"
       id="path16812-4"
       inkscape:connector-curvature="0" />
  </g>
</svg>
