<?xml version="1.0" encoding="UTF-8" standalone="no"?>
<!-- Created with Inkscape (http://www.inkscape.org/) -->

<svg
   xmlns:dc="http://purl.org/dc/elements/1.1/"
   xmlns:cc="http://creativecommons.org/ns#"
   xmlns:rdf="http://www.w3.org/1999/02/22-rdf-syntax-ns#"
   xmlns:svg="http://www.w3.org/2000/svg"
   xmlns="http://www.w3.org/2000/svg"
   xmlns:sodipodi="http://sodipodi.sourceforge.net/DTD/sodipodi-0.dtd"
   xmlns:inkscape="http://www.inkscape.org/namespaces/inkscape"
   width="30"
   height="30"
   id="svg2"
   sodipodi:version="0.32"
   inkscape:version="0.48.4 r9939"
   sodipodi:docname="umbrella.svg"
   inkscape:output_extension="org.inkscape.output.svg.inkscape"
   version="1.1">
  <defs
     id="defs4" />
  <sodipodi:namedview
     id="base"
     pagecolor="#ffffff"
     bordercolor="#666666"
     borderopacity="1.0"
     inkscape:pageopacity="0.0"
     inkscape:pageshadow="2"
     inkscape:zoom="10.276087"
     inkscape:cx="15.344828"
     inkscape:cy="14.482759"
     inkscape:document-units="px"
     inkscape:current-layer="layer1"
     inkscape:window-width="656"
     inkscape:window-height="1029"
     inkscape:window-x="0"
     inkscape:window-y="19"
     showgrid="false"
     inkscape:window-maximized="0" />
  <metadata
     id="metadata7">
    <rdf:RDF>
      <cc:Work
         rdf:about="">
        <dc:format>image/svg+xml</dc:format>
        <dc:type
           rdf:resource="http://purl.org/dc/dcmitype/StillImage" />
        <dc:title></dc:title>
      </cc:Work>
    </rdf:RDF>
  </metadata>
  <g
     inkscape:label="Capa 1"
     inkscape:groupmode="layer"
     id="layer1"
     transform="translate(0,-1022.3622)">
    <path
       sodipodi:type="arc"
       style="color:#000000;fill:#1a1a1a;stroke:#d4d4d4;stroke-width:1.02777779;stroke-opacity:1;marker:none;visibility:visible;display:inline;overflow:visible;enable-background:accumulate"
       id="path16617-6-6"
       sodipodi:cx="15.16226"
       sodipodi:cy="16.56851"
       sodipodi:rx="14.008413"
       sodipodi:ry="14.008413"
       d="m 29.170673,16.56851 a 14.008413,14.008413 0 1 1 -28.0168263,0 14.008413,14.008413 0 1 1 28.0168263,0 z"
       transform="matrix(0.97297297,0,0,0.97297297,330.50795,953.63241)" />
    <path
       style="fill:#1a1a1a;stroke:#d4d4d4;stroke-width:1px;stroke-linecap:butt;stroke-linejoin:miter;stroke-opacity:1"
       d="m 345.29648,957.89011 0,11.863 0,0"
       id="path16623-6-2"
       inkscape:connector-curvature="0"
       inkscape:transform-center-y="-5.9314904" />
    <path
       style="fill:#1a1a1a;stroke:#d4d4d4;stroke-width:1px;stroke-linecap:butt;stroke-linejoin:miter;stroke-opacity:1"
       d="m 357.15947,969.75311 -1.70877,0 0,0"
       id="path16623-4-2-0"
       inkscape:connector-curvature="0"
       inkscape:transform-center-x="-0.854382" />
    <path
       style="fill:#1a1a1a;stroke:#d4d4d4;stroke-width:0.99999994px;stroke-linecap:butt;stroke-linejoin:miter;stroke-opacity:1"
       d="m 345.29648,981.61611 0,-2.0181 0,0"
       id="path16623-4-3-9-0"
       inkscape:connector-curvature="0"
       inkscape:transform-center-y="1.0091015" />
    <path
       style="fill:#1a1a1a;stroke:#d4d4d4;stroke-width:1px;stroke-linecap:butt;stroke-linejoin:miter;stroke-opacity:1"
       d="m 333.43348,969.75311 11.863,0 0,0"
       id="path16623-4-3-4-1-0"
       inkscape:connector-curvature="0"
       inkscape:transform-center-x="5.9315" />
    <path
       inkscape:connector-curvature="0"
       sodipodi:nodetypes="cccccccccccccc"
       id="path9518-0-7"
       d="m 14.999994,1025.9915 -11.2422196,9.9235 2.2484301,0 0,12.8177 6.7453475,0 0,-7.5644 4.651059,0 1.3e-5,7.5644 6.591159,0 0,-12.8177 2.248444,0 -11.242237,-9.9235 0,0 0,0 z"
       style="font-size:12px;fill:none;stroke:none" />
    <path
       style="fill:#1a1a1a;fill-opacity:1"
       inkscape:connector-curvature="0"
       d="m 22.225595,1035.675 c 0.0234,0.6324 -0.18483,0.9391 -0.3727,1.4822 l -0.33783,0.1689 c -0.27669,0.537 0.0267,0.341 -0.17128,0.7682 -0.43186,0.3838 -1.31026,1.201 -1.5914,1.2756 -0.20502,0 0.13925,-0.2421 0.18418,-0.3353 -0.57793,0.397 -0.4639,0.5958 -1.34761,0.837 l -0.0259,-0.057 c -2.18023,1.0254 -5.20833,-1.0068 -5.16842,-3.7798 -0.0233,0.176 -0.0662,0.1321 -0.1145,0.2033 -0.11242,-1.4268 0.65896,-2.8598 1.95974,-3.4449 1.27272,-0.63 2.7643,-0.3714 3.67588,0.4781 -0.50067,-0.656 -1.49718,-1.3511 -2.67824,-1.2861 -1.15717,0.018 -2.23936,0.7536 -2.6006,1.5516 -0.59271,0.3733 -0.66153,1.4386 -0.91983,1.6335 -0.34739,2.5538 0.65366,3.6572 2.34715,4.955 0.26654,0.1797 0.0751,0.207 0.11118,0.3438 -0.56266,-0.2634 -1.07793,-0.6612 -1.50153,-1.1483 0.22483,0.3292 0.4674,0.6491 0.78095,0.9004 -0.53043,-0.1798 -1.23926,-1.2856 -1.44608,-1.3306 0.91442,1.6374 3.71019,2.8716 5.1742,2.2594 -0.67736,0.025 -1.53804,0.014 -2.29918,-0.2675 -0.31954,-0.1644 -0.75433,-0.5053 -0.67679,-0.569 1.99804,0.7464 4.06205,0.5654 5.7906,-0.8204 0.43991,-0.3426 0.9203,-0.9253 1.05907,-0.9333 -0.2091,0.3144 0.0357,0.1513 -0.12493,0.4287 0.43839,-0.7067 -0.19033,-0.2877 0.45299,-1.2206 l 0.23764,0.3272 c -0.0883,-0.5864 0.72863,-1.2989 0.64579,-2.2266 0.1872,-0.2838 0.2091,0.3052 0.0101,0.958 0.27602,-0.7242 0.0727,-0.8405 0.1437,-1.438 0.0768,0.2007 0.17697,0.4141 0.22863,0.626 -0.17963,-0.6996 0.18464,-1.1785 0.27469,-1.5852 -0.0888,-0.039 -0.27754,0.3095 -0.32066,-0.5172 0.006,-0.359 0.0999,-0.1882 0.13602,-0.2765 -0.0705,-0.04 -0.25536,-0.3156 -0.36778,-0.8436 0.0815,-0.124 0.21801,0.3216 0.32891,0.3399 -0.0714,-0.4198 -0.19422,-0.7398 -0.19934,-1.0618 -0.32427,-0.6776 -0.11478,0.09 -0.37773,-0.2909 -0.34512,-1.0765 0.28636,-0.2499 0.32892,-0.7389 0.52323,0.7578 0.82153,1.9324 0.95831,2.4188 -0.10456,-0.5932 -0.27328,-1.1677 -0.47944,-1.7237 0.15896,0.067 -0.25584,-1.2204 0.20664,-0.3679 -0.49385,-1.8173 -2.11397,-3.5154 -3.60432,-4.3123 0.18237,0.1668 0.41271,0.3765 0.32996,0.4093 -0.74115,-0.4414 -0.61082,-0.4757 -0.71708,-0.6621 -0.6037,-0.2456 -0.64342,0.02 -1.04333,3e-4 -1.13793,-0.6036 -1.35718,-0.5393 -2.40458,-0.9177 l 0.0476,0.2227 c -0.75385,-0.251 -0.87821,0.095 -1.69311,9e-4 -0.0496,-0.039 0.26096,-0.1403 0.51679,-0.1774 -0.72892,0.096 -0.6947,-0.1436 -1.40798,0.026 0.17583,-0.1234 0.36161,-0.205 0.5491,-0.3099 -0.59441,0.036 -1.41907,0.3459 -1.16456,0.064 -0.97016,0.4331 -2.69227,1.0404 -3.6585401,1.9465 l -0.0304,-0.2031 c -0.44285,0.5316 -1.93092,1.5876 -2.0495,2.276 l -0.11839,0.028 c -0.23043,0.3901 -0.37954,0.8323 -0.56229,1.2338 -0.30142,0.5134 -0.4418,0.1976 -0.39887,0.2781 -0.59271,1.2018 -0.88712,2.2116 -1.14153,3.0397 0.18124,0.2709 0.004,1.6309 0.0729,2.7193 -0.29773,5.3753 3.77257,10.5945 8.2216401,11.7992 0.65214,0.2331 1.62182,0.2241 2.44676,0.2482 -0.97328,-0.2784 -1.09906,-0.1475 -2.04694,-0.4781 -0.6839,-0.3221 -0.83386,-0.6898 -1.31822,-1.1101 l 0.19166,0.3387 c -0.94987,-0.3362 -0.55252,-0.4161 -1.32533,-0.661 l 0.20474,-0.2672 c -0.30796,-0.023 -0.81555,-0.519 -0.95442,-0.7935 l -0.33678,0.013 c -0.40475,-0.4993 -0.62039,-0.8589 -0.60465,-1.1379 l -0.10882,0.194 c -0.1233201,-0.2118 -1.4890301,-1.8729 -0.7804901,-1.4861 -0.13166,-0.1205 -0.30663,-0.196 -0.4964,-0.5406 l 0.14427,-0.1648 c -0.34096,-0.4386 -0.62759,-1.0012 -0.60579,-1.1883 0.18189,0.2457 0.30806,0.2915 0.43299,0.3336 -0.86096,-2.1364 -0.9093,-0.1177 -1.56154,-2.1746 l 0.13801,-0.011 c -0.10578,-0.1594 -0.16995,-0.3323 -0.25498,-0.5022 l 0.06,-0.5984 c -0.62001,-0.7168 -0.17337,-3.0475 -0.0841,-4.3258 0.0621,-0.5199 0.51745,-1.0732 0.8639,-1.941 l -0.21109,-0.036 c 0.40342,-0.7036 2.30345,-2.826 3.1832701,-2.7168 0.42645,-0.5355 -0.0845,0 -0.16797,-0.1368 0.93632,-0.969 1.23073,-0.6845 1.86259,-0.8589 0.68153,-0.4045 -0.58484,0.1578 -0.26171,-0.1543 1.17793,-0.3008 0.83489,-0.684 2.37169,-0.8368 0.16209,0.092 -0.37621,0.1425 -0.51138,0.2622 0.98144,-0.4802 3.10611,-0.371 4.48594,0.2665 1.60145,0.7484 3.40034,2.9604 3.47133,5.0417 l 0.0808,0.022 c -0.0408,0.8274 0.12664,1.7841 -0.1637,2.6629 l 0.19906,-0.4156"
       id="path8133-3" />
  </g>
</svg>
