<?xml version="1.0" encoding="UTF-8" standalone="no"?>
<!-- Created with Inkscape (http://www.inkscape.org/) -->

<svg
   xmlns:dc="http://purl.org/dc/elements/1.1/"
   xmlns:cc="http://creativecommons.org/ns#"
   xmlns:rdf="http://www.w3.org/1999/02/22-rdf-syntax-ns#"
   xmlns:svg="http://www.w3.org/2000/svg"
   xmlns="http://www.w3.org/2000/svg"
   xmlns:sodipodi="http://sodipodi.sourceforge.net/DTD/sodipodi-0.dtd"
   xmlns:inkscape="http://www.inkscape.org/namespaces/inkscape"
   width="30"
   height="30"
   id="svg2"
   sodipodi:version="0.32"
   inkscape:version="0.48.4 r9939"
   sodipodi:docname="hairdressing.svg"
   inkscape:output_extension="org.inkscape.output.svg.inkscape"
   version="1.1">
  <defs
     id="defs4" />
  <sodipodi:namedview
     id="base"
     pagecolor="#ffffff"
     bordercolor="#666666"
     borderopacity="1.0"
     inkscape:pageopacity="0.0"
     inkscape:pageshadow="2"
     inkscape:zoom="10.276087"
     inkscape:cx="15.344828"
     inkscape:cy="14.482759"
     inkscape:document-units="px"
     inkscape:current-layer="layer1"
     inkscape:window-width="656"
     inkscape:window-height="1029"
     inkscape:window-x="0"
     inkscape:window-y="19"
     showgrid="false"
     inkscape:window-maximized="0" />
  <metadata
     id="metadata7">
    <rdf:RDF>
      <cc:Work
         rdf:about="">
        <dc:format>image/svg+xml</dc:format>
        <dc:type
           rdf:resource="http://purl.org/dc/dcmitype/StillImage" />
        <dc:title></dc:title>
      </cc:Work>
    </rdf:RDF>
  </metadata>
  <g
     inkscape:label="Capa 1"
     inkscape:groupmode="layer"
     id="layer1"
     transform="translate(0,-1022.3622)">
    <path
       sodipodi:type="arc"
       style="color:#000000;fill:#1a1a1a;stroke:#d4d4d4;stroke-width:1.02777779;stroke-opacity:1;marker:none;visibility:visible;display:inline;overflow:visible;enable-background:accumulate"
       id="path16617-6-6"
       sodipodi:cx="15.16226"
       sodipodi:cy="16.56851"
       sodipodi:rx="14.008413"
       sodipodi:ry="14.008413"
       d="m 29.170673,16.56851 a 14.008413,14.008413 0 1 1 -28.0168263,0 14.008413,14.008413 0 1 1 28.0168263,0 z"
       transform="matrix(0.97297297,0,0,0.97297297,330.50795,953.63241)" />
    <path
       style="fill:#1a1a1a;stroke:#d4d4d4;stroke-width:1px;stroke-linecap:butt;stroke-linejoin:miter;stroke-opacity:1"
       d="m 345.29648,957.89011 0,11.863 0,0"
       id="path16623-6-2"
       inkscape:connector-curvature="0"
       inkscape:transform-center-y="-5.9314904" />
    <path
       style="fill:#1a1a1a;stroke:#d4d4d4;stroke-width:1px;stroke-linecap:butt;stroke-linejoin:miter;stroke-opacity:1"
       d="m 357.15947,969.75311 -1.70877,0 0,0"
       id="path16623-4-2-0"
       inkscape:connector-curvature="0"
       inkscape:transform-center-x="-0.854382" />
    <path
       style="fill:#1a1a1a;stroke:#d4d4d4;stroke-width:0.99999994px;stroke-linecap:butt;stroke-linejoin:miter;stroke-opacity:1"
       d="m 345.29648,981.61611 0,-2.0181 0,0"
       id="path16623-4-3-9-0"
       inkscape:connector-curvature="0"
       inkscape:transform-center-y="1.0091015" />
    <path
       style="fill:#1a1a1a;stroke:#d4d4d4;stroke-width:1px;stroke-linecap:butt;stroke-linejoin:miter;stroke-opacity:1"
       d="m 333.43348,969.75311 11.863,0 0,0"
       id="path16623-4-3-4-1-0"
       inkscape:connector-curvature="0"
       inkscape:transform-center-x="5.9315" />
    <path
       inkscape:connector-curvature="0"
       sodipodi:nodetypes="cccccccccccccc"
       id="path9518-0-7"
       d="m 14.999994,1025.9915 -11.2422196,9.9235 2.2484301,0 0,12.8177 6.7453475,0 0,-7.5644 4.651059,0 1.3e-5,7.5644 6.591159,0 0,-12.8177 2.248444,0 -11.242237,-9.9235 0,0 0,0 z"
       style="font-size:12px;fill:none;stroke:none" />
    <path
       style="fill:#1a1a1a;fill-opacity:1;fill-rule:evenodd;stroke:none"
       d="m 16,1025.5185 -10.65625,5.4687 c 2.86112,2.2013 5.73263,4.4237 8.59375,6.625 l 10.625,-5.625 c -2.85404,-2.1533 -5.70846,-4.3154 -8.5625,-6.4687 z m -0.90625,4.0312 c 0.8748,-0.043 1.86091,0.3683 2.15625,1.25 0.32032,0.8513 -0.36781,1.739 -1.15625,2 -0.98791,0.354 -2.29442,0.1924 -2.90625,-0.75 -0.44281,-0.5983 -0.27041,-1.4757 0.28125,-1.9375 0.44574,-0.3945 1.03566,-0.5555 1.625,-0.5625 z m -10.28125,2.8125 0,0.031 0,0.031 c 0.14241,3.2546 0.16274,6.5269 0.3125,9.7813 2.6745,2.3576 5.41524,4.6123 8.09375,6.9687 L 13.125,1038.768 c -2.77879,-2.138 -5.53371,-4.2682 -8.3125,-6.4063 z m 20.375,0.9063 -10.59375,5.5937 0.09375,10.3438 c 3.46149,-2.0175 6.91351,-4.0449 10.375,-6.0625 l 0.125,-9.875 z m -1.4375,1.9062 c 0.73668,-0.026 1.29039,0.6974 1.21875,1.4063 -0.0358,1.0072 -0.79664,1.891 -1.71875,2.2187 -0.722,0.2102 -1.63919,-0.255 -1.65625,-1.0625 -0.12258,-1.242 0.91595,-2.469 2.15625,-2.5625 z m -16.96875,0.031 c 0.98247,0.014 1.66421,0.9283 1.875,1.8125 0.30073,0.8116 -0.16192,1.962 -1.09375,2.0625 -1.03096,0.044 -1.79437,-0.939 -1.96875,-1.875 -0.30072,-0.8262 0.23832,-1.9656 1.1875,-2 z m 13.96875,4.3125 c 0.71644,-0.025 1.30262,0.6501 1.25,1.3437 -0.0105,1.0045 -0.76839,1.9387 -1.6875,2.2813 -0.73116,0.2319 -1.70383,-0.2629 -1.71875,-1.0938 -0.12015,-1.2399 0.91623,-2.4402 2.15625,-2.5312 z m -10.5625,2.9375 c 0.99316,0 1.65647,0.9622 1.875,1.8437 0.29331,0.7964 -0.13698,1.885 -1.03125,2.0313 -0.97369,0.1079 -1.71598,-0.7661 -1.96875,-1.625 -0.30247,-0.7491 -0.08008,-1.7588 0.6875,-2.125 0.13565,-0.067 0.28729,-0.1163 0.4375,-0.125 z m 7.53125,1.25 c 0.70989,10e-5 1.26944,0.6892 1.21875,1.375 -0.0155,1.0146 -0.79108,1.9176 -1.71875,2.25 -0.72486,0.2165 -1.66551,-0.2485 -1.6875,-1.0625 -0.13071,-1.2522 0.93354,-2.4957 2.1875,-2.5625 z"
       id="path2569-4"
       inkscape:connector-curvature="0" />
  </g>
</svg>
