<?xml version="1.0" encoding="UTF-8" standalone="no"?>
<!-- Created with Inkscape (http://www.inkscape.org/) -->

<svg
   xmlns:dc="http://purl.org/dc/elements/1.1/"
   xmlns:cc="http://creativecommons.org/ns#"
   xmlns:rdf="http://www.w3.org/1999/02/22-rdf-syntax-ns#"
   xmlns:svg="http://www.w3.org/2000/svg"
   xmlns="http://www.w3.org/2000/svg"
   xmlns:sodipodi="http://sodipodi.sourceforge.net/DTD/sodipodi-0.dtd"
   xmlns:inkscape="http://www.inkscape.org/namespaces/inkscape"
   width="30"
   height="30"
   id="svg2"
   sodipodi:version="0.32"
   inkscape:version="0.48.4 r9939"
   sodipodi:docname="yen.svg"
   inkscape:output_extension="org.inkscape.output.svg.inkscape"
   version="1.1">
  <defs
     id="defs4" />
  <sodipodi:namedview
     id="base"
     pagecolor="#ffffff"
     bordercolor="#666666"
     borderopacity="1.0"
     inkscape:pageopacity="0.0"
     inkscape:pageshadow="2"
     inkscape:zoom="10.276087"
     inkscape:cx="15.344828"
     inkscape:cy="14.482759"
     inkscape:document-units="px"
     inkscape:current-layer="layer1"
     inkscape:window-width="656"
     inkscape:window-height="1029"
     inkscape:window-x="0"
     inkscape:window-y="19"
     showgrid="false"
     inkscape:window-maximized="0" />
  <metadata
     id="metadata7">
    <rdf:RDF>
      <cc:Work
         rdf:about="">
        <dc:format>image/svg+xml</dc:format>
        <dc:type
           rdf:resource="http://purl.org/dc/dcmitype/StillImage" />
        <dc:title></dc:title>
      </cc:Work>
    </rdf:RDF>
  </metadata>
  <g
     inkscape:label="Capa 1"
     inkscape:groupmode="layer"
     id="layer1"
     transform="translate(0,-1022.3622)">
    <path
       sodipodi:type="arc"
       style="color:#000000;fill:#1a1a1a;stroke:#d4d4d4;stroke-width:1.02777779;stroke-opacity:1;marker:none;visibility:visible;display:inline;overflow:visible;enable-background:accumulate"
       id="path16617-6-6"
       sodipodi:cx="15.16226"
       sodipodi:cy="16.56851"
       sodipodi:rx="14.008413"
       sodipodi:ry="14.008413"
       d="m 29.170673,16.56851 a 14.008413,14.008413 0 1 1 -28.0168263,0 14.008413,14.008413 0 1 1 28.0168263,0 z"
       transform="matrix(0.97297297,0,0,0.97297297,330.50795,953.63241)" />
    <path
       style="fill:#1a1a1a;stroke:#d4d4d4;stroke-width:1px;stroke-linecap:butt;stroke-linejoin:miter;stroke-opacity:1"
       d="m 345.29648,957.89011 0,11.863 0,0"
       id="path16623-6-2"
       inkscape:connector-curvature="0"
       inkscape:transform-center-y="-5.9314904" />
    <path
       style="fill:#1a1a1a;stroke:#d4d4d4;stroke-width:1px;stroke-linecap:butt;stroke-linejoin:miter;stroke-opacity:1"
       d="m 357.15947,969.75311 -1.70877,0 0,0"
       id="path16623-4-2-0"
       inkscape:connector-curvature="0"
       inkscape:transform-center-x="-0.854382" />
    <path
       style="fill:#1a1a1a;stroke:#d4d4d4;stroke-width:0.99999994px;stroke-linecap:butt;stroke-linejoin:miter;stroke-opacity:1"
       d="m 345.29648,981.61611 0,-2.0181 0,0"
       id="path16623-4-3-9-0"
       inkscape:connector-curvature="0"
       inkscape:transform-center-y="1.0091015" />
    <path
       style="fill:#1a1a1a;stroke:#d4d4d4;stroke-width:1px;stroke-linecap:butt;stroke-linejoin:miter;stroke-opacity:1"
       d="m 333.43348,969.75311 11.863,0 0,0"
       id="path16623-4-3-4-1-0"
       inkscape:connector-curvature="0"
       inkscape:transform-center-x="5.9315" />
    <path
       inkscape:connector-curvature="0"
       sodipodi:nodetypes="cccccccccccccc"
       id="path9518-0-7"
       d="m 14.999994,1025.9915 -11.2422196,9.9235 2.2484301,0 0,12.8177 6.7453475,0 0,-7.5644 4.651059,0 1.3e-5,7.5644 6.591159,0 0,-12.8177 2.248444,0 -11.242237,-9.9235 0,0 0,0 z"
       style="font-size:12px;fill:none;stroke:none" />
    <path
       inkscape:connector-curvature="0"
       id="path23797-0"
       style="font-size:37.32851028px;font-style:normal;font-variant:normal;font-weight:normal;font-stretch:normal;text-indent:0;text-align:start;text-decoration:none;line-height:125%;letter-spacing:0px;word-spacing:0px;text-transform:none;direction:ltr;block-progression:tb;writing-mode:lr-tb;text-anchor:start;color:#000000;fill:#1a1a1a;fill-opacity:1;fill-rule:nonzero;stroke:none;stroke-width:1px;marker:none;visibility:visible;font-family:DejaVu Sans;-inkscape-font-specification:DejaVu Sans"
       d="m 15.45146,1047.7123 -1.11471,0 -0.01115,-3.3553 c -0.780303,-0.015 -1.5606,-0.104 -2.340893,-0.2676 -0.7803,-0.1709 -1.564313,-0.4236 -2.3520392,-0.758 l 0,-2.0064 c 0.7580012,0.4756 1.5234352,0.836 2.2963042,1.0812 0.780292,0.2378 1.582884,0.3604 2.407775,0.3679 l 0,-5.0831 c -1.642345,-0.2675 -2.8388,-0.7208 -3.589368,-1.3599 -0.743143,-0.6391 -1.1147132,-1.516 -1.1147112,-2.6307 -2e-6,-1.2114 0.4050092,-2.1663 1.2150342,-2.8648 0.81002,-0.6986 1.973033,-1.0999 3.489045,-1.2039 l 0,-2.6196 1.11471,0 0,2.5861 c 0.691112,0.03 1.359938,0.104 2.00648,0.2229 0.646522,0.1115 1.27819,0.2676 1.895008,0.4683 l 0,1.9506 c -0.616818,-0.312 -1.252202,-0.5536 -1.906156,-0.7245 -0.646541,-0.1709 -1.311651,-0.2712 -1.995332,-0.3009 l 0,4.7597 c 1.68692,0.2601 2.927963,0.7246 3.723134,1.3935 0.795148,0.6688 1.192728,1.5828 1.192741,2.7422 -1.3e-5,1.2558 -0.423602,2.2479 -1.270771,2.9762 -0.839759,0.7209 -2.054792,1.137 -3.645104,1.2485 l 0,3.3776 m -1.11471,-11.9386 0,-4.5703 c -0.862048,0.097 -1.519727,0.3418 -1.973038,0.7357 -0.45332,0.3939 -0.679977,0.9178 -0.679973,1.5717 -4e-6,0.6391 0.208075,1.1371 0.624238,1.4938 0.423585,0.3567 1.099842,0.6131 2.028773,0.7691 m 1.11471,2.1403 0,4.8267 c 0.94378,-0.1264 1.653478,-0.3939 2.129098,-0.8026 0.483031,-0.4087 0.724551,-0.9475 0.724562,-1.6164 -1.1e-5,-0.6539 -0.230384,-1.1741 -0.691121,-1.5606 -0.453325,-0.3864 -1.174171,-0.6688 -2.162539,-0.8471" />
  </g>
</svg>
