<?xml version="1.0" encoding="UTF-8" standalone="no"?>
<!-- Created with Inkscape (http://www.inkscape.org/) -->

<svg
   xmlns:dc="http://purl.org/dc/elements/1.1/"
   xmlns:cc="http://creativecommons.org/ns#"
   xmlns:rdf="http://www.w3.org/1999/02/22-rdf-syntax-ns#"
   xmlns:svg="http://www.w3.org/2000/svg"
   xmlns="http://www.w3.org/2000/svg"
   xmlns:sodipodi="http://sodipodi.sourceforge.net/DTD/sodipodi-0.dtd"
   xmlns:inkscape="http://www.inkscape.org/namespaces/inkscape"
   width="30"
   height="30"
   id="svg2"
   sodipodi:version="0.32"
   inkscape:version="0.48.4 r9939"
   sodipodi:docname="orange.svg"
   inkscape:output_extension="org.inkscape.output.svg.inkscape"
   version="1.1">
  <defs
     id="defs4" />
  <sodipodi:namedview
     id="base"
     pagecolor="#ffffff"
     bordercolor="#666666"
     borderopacity="1.0"
     inkscape:pageopacity="0.0"
     inkscape:pageshadow="2"
     inkscape:zoom="10.276087"
     inkscape:cx="15.344828"
     inkscape:cy="14.482759"
     inkscape:document-units="px"
     inkscape:current-layer="layer1"
     inkscape:window-width="656"
     inkscape:window-height="1029"
     inkscape:window-x="0"
     inkscape:window-y="19"
     showgrid="false"
     inkscape:window-maximized="0" />
  <metadata
     id="metadata7">
    <rdf:RDF>
      <cc:Work
         rdf:about="">
        <dc:format>image/svg+xml</dc:format>
        <dc:type
           rdf:resource="http://purl.org/dc/dcmitype/StillImage" />
        <dc:title></dc:title>
      </cc:Work>
    </rdf:RDF>
  </metadata>
  <g
     inkscape:label="Capa 1"
     inkscape:groupmode="layer"
     id="layer1"
     transform="translate(0,-1022.3622)">
    <path
       sodipodi:type="arc"
       style="color:#000000;fill:#1a1a1a;stroke:#d4d4d4;stroke-width:1.02777779;stroke-opacity:1;marker:none;visibility:visible;display:inline;overflow:visible;enable-background:accumulate"
       id="path16617-6-6"
       sodipodi:cx="15.16226"
       sodipodi:cy="16.56851"
       sodipodi:rx="14.008413"
       sodipodi:ry="14.008413"
       d="m 29.170673,16.56851 a 14.008413,14.008413 0 1 1 -28.0168263,0 14.008413,14.008413 0 1 1 28.0168263,0 z"
       transform="matrix(0.97297297,0,0,0.97297297,330.50795,953.63241)" />
    <path
       style="fill:#1a1a1a;stroke:#d4d4d4;stroke-width:1px;stroke-linecap:butt;stroke-linejoin:miter;stroke-opacity:1"
       d="m 345.29648,957.89011 0,11.863 0,0"
       id="path16623-6-2"
       inkscape:connector-curvature="0"
       inkscape:transform-center-y="-5.9314904" />
    <path
       style="fill:#1a1a1a;stroke:#d4d4d4;stroke-width:1px;stroke-linecap:butt;stroke-linejoin:miter;stroke-opacity:1"
       d="m 357.15947,969.75311 -1.70877,0 0,0"
       id="path16623-4-2-0"
       inkscape:connector-curvature="0"
       inkscape:transform-center-x="-0.854382" />
    <path
       style="fill:#1a1a1a;stroke:#d4d4d4;stroke-width:0.99999994px;stroke-linecap:butt;stroke-linejoin:miter;stroke-opacity:1"
       d="m 345.29648,981.61611 0,-2.0181 0,0"
       id="path16623-4-3-9-0"
       inkscape:connector-curvature="0"
       inkscape:transform-center-y="1.0091015" />
    <path
       style="fill:#1a1a1a;stroke:#d4d4d4;stroke-width:1px;stroke-linecap:butt;stroke-linejoin:miter;stroke-opacity:1"
       d="m 333.43348,969.75311 11.863,0 0,0"
       id="path16623-4-3-4-1-0"
       inkscape:connector-curvature="0"
       inkscape:transform-center-x="5.9315" />
    <path
       inkscape:connector-curvature="0"
       sodipodi:nodetypes="cccccccccccccc"
       id="path9518-0-7"
       d="m 14.999994,1025.9915 -11.2422196,9.9235 2.2484301,0 0,12.8177 6.7453475,0 0,-7.5644 4.651059,0 1.3e-5,7.5644 6.591159,0 0,-12.8177 2.248444,0 -11.242237,-9.9235 0,0 0,0 z"
       style="font-size:12px;fill:none;stroke:none" />
    <path
       style="fill:#1a1a1a;fill-opacity:1;stroke:none"
       d="m 6.7593993,1029.1107 c -0.90904,0.01 -1.63988,0.1311 -2.07813,0.3437 -0.0333,0.015 -0.0637,0.031 -0.0937,0.047 -0.0211,0.012 -0.0432,0.018 -0.0625,0.031 -0.037,0.023 -0.0629,0.053 -0.0937,0.078 -0.0202,0.018 -0.0455,0.028 -0.0625,0.047 -0.0512,0.051 -0.0996,0.1142 -0.125,0.1719 -0.32094,0.7298 1.61984,1.7279 4.32813,2.2344 0.0687,0.013 0.13474,0.019 0.20312,0.031 l 0,1.6875 c -0.72195,0.09 -1.19595,0.2341 -1.20312,0.4375 -8e-4,0.037 0.0187,0.072 0.0469,0.1094 l 0,0.4063 c -0.002,0.01 -0.0137,0.01 -0.0156,0.016 l -0.0156,0.031 c -0.006,0.04 -10e-4,0.085 0.0156,0.125 l 0,0.3125 -0.0156,0.047 c -0.006,0.038 -9e-5,0.071 0.0156,0.1094 l -0.0156,1.0312 -0.0156,0.5157 c -0.0153,0.3161 0.2983,0.4145 0.45312,0.4843 0.25053,0.085 0.49659,0.1441 0.75,0.2032 l 0,1.0937 -0.0313,0 c -0.0349,0 -0.0625,0.028 -0.0625,0.063 l 0,0.1563 c 0,0.023 0.0134,0.036 0.0313,0.047 l -3.54687,4.5782 c -0.0612,-0.015 -0.11949,-0.01 -0.15625,0.047 l -0.125,0.1875 c -0.0429,0.061 -0.0353,0.1386 0.0313,0.1719 l 0.125,0.063 c 0.0666,0.033 0.16023,0 0.20312,-0.063 l 0.125,-0.1719 c 0.0429,-0.061 0.0197,-0.1385 -0.0469,-0.1718 l 3.45312,-4.4532 0,3.9688 c -0.10148,0 -0.1875,0.07 -0.1875,0.1719 l 0,0.2812 -1.35937,1.0781 c -0.0544,-0.017 -0.12898,0.01 -0.17188,0.047 l -0.125,0.1094 c -0.0429,0.037 -0.0232,0.077 0.0313,0.094 l 0.15625,0.047 c 0.0544,0.017 0.14461,0.01 0.1875,-0.031 l 0.10938,-0.1094 c 0.0429,-0.037 0.0388,-0.077 -0.0156,-0.094 l 1.25,-1 c 0.0323,0.029 0.0783,0.063 0.125,0.063 l 0.375,0 c 0.10149,0 0.1875,-0.086 0.1875,-0.1875 l 0,-0.2968 c 0,-0.038 -0.0115,-0.065 -0.0313,-0.094 l 0.125,-0.1094 c 0.20438,0.4477 0.47839,0.8461 0.8281297,1.1719 0.11684,0.1141 0.24591,0.216 0.375,0.3125 l 0,0.125 c 0,0.063 0.0625,0.1094 0.125,0.1094 l 0.23437,0 c 0.92021,0.5379 2.03679,0.6782 3.03125,0.3125 0.556531,-0.06 0.843751,-0.125 0.843751,-0.125 0.37318,-0.1612 0.79963,-0.2987 1.23438,-0.4531 l -0.875,0.7031 c -0.0544,-0.017 -0.12898,0.01 -0.17188,0.047 l -0.125,0.1093 c -0.0429,0.038 -0.0388,0.077 0.0156,0.094 l 0.17187,0.047 c 0.0544,0.017 0.12898,0.01 0.17188,-0.031 l 0.125,-0.1094 c 0.0429,-0.037 0.0388,-0.077 -0.0156,-0.094 l -0.0313,-0.016 1.15625,-0.9063 c 0.34365,-0.1389 0.67979,-0.3154 0.98438,-0.5312 l 0.29687,-0.078 -0.0156,-0.1406 c 0.11102,-0.099 0.21539,-0.1938 0.3125,-0.3125 l 0,0.4844 -0.10938,0 c -0.0376,0 -0.0625,0.041 -0.0625,0.078 l 0,0.1094 c 0,0.038 0.0249,0.063 0.0625,0.063 l 0.54688,0 c 0.0376,0 0.0625,-0.025 0.0625,-0.063 l 0,-0.1094 c 0,-0.038 -0.0249,-0.078 -0.0625,-0.078 l -0.0937,0 0,-0.9531 0.0781,-0.063 0.3125,0.4687 0,1.7344 -0.0781,0 c -0.0625,0 -0.125,0.047 -0.125,0.1094 l 0,0.1875 c 0,0.063 0.0625,0.1093 0.125,0.1093 l 0.51562,0 c 0.0625,0 0.10938,-0.047 0.10938,-0.1093 l 0,-0.1875 c 0,-0.063 -0.0469,-0.1094 -0.10938,-0.1094 l -0.0625,0 0,-1.0938 0.26563,-0.016 c 0.0278,0 0.0417,-0.021 0.0313,-0.047 l -0.0313,-0.078 c -0.0104,-0.026 -0.0347,-0.033 -0.0625,-0.031 l -0.0156,0 -0.1875,-0.2657 0,-0.3437 0.6875,1.5312 c -0.0617,-0.022 -0.13353,0.017 -0.15625,0.078 l -0.0625,0.1718 c -0.0227,0.061 0.0164,0.1344 0.0781,0.1563 l 0.0937,0.031 c 0.041,0.014 0.0936,0.01 0.125,-0.016 0.0116,0.043 0.065,0.066 0.10937,0.063 l 0.25,-0.016 c 0.0444,0 0.0741,-0.035 0.0625,-0.078 l -0.0313,-0.125 c -0.0103,-0.038 -0.0548,-0.074 -0.0937,-0.078 l -0.15625,-0.3281 0.25,-0.5 1.21875,1.3281 c -0.0489,0.01 -0.0752,0.053 -0.0469,0.094 l 0.0937,0.1094 c 0.0284,0.041 0.0917,0.072 0.14062,0.063 l 0.21875,-0.047 c 0.0489,-0.01 0.0596,-0.053 0.0313,-0.094 l -0.0781,-0.1093 c -0.0284,-0.041 -0.0917,-0.072 -0.14063,-0.063 l -0.0625,0.016 -1.0625,-1.1406 c 0.0174,0 0.0316,0.017 0.0469,0.016 l 0.23437,-0.031 c 0.0352,0 0.0411,-0.022 0.0156,-0.047 l -0.0781,-0.078 c -0.0255,-0.025 -0.0742,-0.036 -0.10937,-0.031 l -0.0781,0.016 -0.25,-0.1875 1.3125,-2.6406 -0.6875,2.7969 c -0.0381,0.015 -0.0718,0.05 -0.0781,0.094 l -0.0156,0.1875 c -0.009,0.064 0.0293,0.1156 0.0937,0.125 l 0.10938,0.016 c 0.0645,0.01 0.11569,-0.029 0.125,-0.094 l 0.0313,-0.1875 c 0.006,-0.045 -0.0287,-0.084 -0.0625,-0.1094 l 0.64062,-2.5937 0,2.7812 c -0.0763,0.016 -0.14062,0.075 -0.14062,0.1563 l 0,0.2656 c 0,0.094 0.0781,0.1719 0.17187,0.1719 l 0.26563,0 c 0.0938,0 0.17187,-0.078 0.17187,-0.1719 l 0,-0.2656 c 0,-0.088 -0.0702,-0.1637 -0.15625,-0.1719 l 0,-3.6563 2.76563,4.1094 c -0.057,0.033 -0.0656,0.1001 -0.0313,0.1563 l 0.0937,0.1718 c 0.0343,0.056 0.11484,0.08 0.17187,0.047 l 0.0781,-0.063 c 0.057,-0.033 0.0812,-0.1 0.0469,-0.1562 l -0.10937,-0.1563 c -0.0288,-0.047 -0.074,-0.061 -0.125,-0.047 l -2.84375,-4.2343 c 0.0165,-0.01 0.0313,-0.026 0.0313,-0.047 l 0,-0.1406 c 0,-0.032 -0.0303,-0.063 -0.0625,-0.063 l -0.0156,0 0,-3.9688 c 0.0499,0 0.0937,-0.044 0.0937,-0.094 l 0,-0.2969 0.14063,0 c 0.0499,0 0.0937,-0.044 0.0937,-0.094 l 0,-0.2656 c 0,-0.038 -0.0291,-0.065 -0.0625,-0.078 0.35687,-0.097 0.16183,-0.2779 0.625,-0.375 0.46317,-0.097 0.55816,0.049 1.21875,0 0.66058,-0.049 1.4375,-0.2031 1.4375,-0.2031 l -3.54688,0.016 0,-0.1719 3.54688,0.016 c 0,0 -0.77692,-0.1389 -1.4375,-0.1875 -0.66059,-0.048 -0.75558,0.097 -1.21875,0 -0.46317,-0.097 -0.26813,-0.2935 -0.625,-0.3906 0.0324,-0.014 0.0625,-0.041 0.0625,-0.078 l 0,-0.25 c 0,-0.05 -0.0438,-0.094 -0.0937,-0.094 l -0.23438,0 0,-0.3437 c 0,-0.059 -0.0505,-0.1094 -0.10937,-0.1094 l -0.0937,0 c -0.0589,0 -0.10938,0.051 -0.10938,0.1094 l 0,0.3437 -0.15625,0 c -0.0499,0 -0.0937,0.044 -0.0937,0.094 l 0,0.25 c 0,0.027 0.012,0.062 0.0313,0.078 -0.34927,0.091 -0.19176,0.2622 -0.60937,0.3594 -0.41761,0.097 -0.47025,-0.017 -1.0625,0.031 -0.59225,0.049 -1.29688,0.1719 -1.29688,0.1719 l 3.1875,0 0,0.1719 -3.1875,0.016 c 0,0 0.70463,0.1234 1.29688,0.1719 0.59225,0.049 0.64489,-0.082 1.0625,0.016 0.41761,0.097 0.2601,0.2683 0.60937,0.3594 0.0132,0 0.0188,0.012 0.0313,0.016 -0.0314,0.014 -0.0625,0.026 -0.0625,0.063 l 0,0.2656 c 0,0.05 0.0438,0.094 0.0937,0.094 l 0.15625,0 0,4.375 c -0.0165,0.01 -0.0313,0.026 -0.0313,0.047 l 0,0.1406 c 0,0.021 0.0147,0.037 0.0313,0.047 l 0,0.1562 -0.0469,0.1875 -1.51563,3.0625 -0.21875,-0.1562 -0.875,-0.9532 -0.0625,-0.1406 0,-0.063 c 0.0215,0 0.0469,-0.025 0.0469,-0.047 l 0,-0.094 c 0,-0.022 -0.0254,-0.031 -0.0469,-0.031 l 0,-2.4062 c 0.94608,-0.062 1.60938,-0.1955 1.60938,-0.3594 -2.3e-4,-0.012 -0.024,-0.019 -0.0313,-0.031 l 0.0781,0 c 0,0 0.4233,-0.6147 0,-1.1094 -0.17182,-0.2008 -0.40914,-0.3527 -0.71875,-0.4531 0.30516,-0.086 0.61044,-0.1862 0.90625,-0.2969 0.12789,-0.058 0.39436,-0.1505 0.34375,-0.3125 l -0.17187,-0.7969 c 0.004,-0.016 0.006,-0.017 0,-0.031 l -0.0156,-0.031 -0.0313,-0.1719 c 0.004,-0.016 0.006,-0.033 0,-0.047 l -0.0156,-0.016 -0.0469,-0.2031 c 0.0208,-0.023 0.0197,-0.044 0.0156,-0.063 -0.0453,-0.1874 -1.37937,-0.086 -2.98438,0.2188 -0.0377,0.01 -0.072,0.01 -0.10937,0.016 -0.0231,0 -0.0395,0.012 -0.0625,0.016 -1.26592,0.2501 -2.29247,0.5503 -2.57813,0.75 -0.0408,0.029 -0.069,0.054 -0.0781,0.078 l -0.0156,0 0,0.016 c 2.2e-4,0 0.0151,0.016 0.0156,0.016 l 0.0781,0.3437 c -0.0191,0.029 -0.042,0.054 -0.0313,0.078 0.007,-0.01 0.0214,-0.022 0.0313,-0.031 l 0,0.031 -0.0313,0 -1.01562,-0.063 0,-0.031 c 0.0287,-0.073 0.0241,-0.1542 0,-0.2344 l 0.0313,-1.3593 c 0.0143,0.016 0.0359,0.031 0.0469,0.047 0.009,-0.061 -0.003,-0.1254 -0.0469,-0.1875 l 0.0156,-0.2343 0,-0.078 c 0.008,0.011 0.0243,0.021 0.0313,0.031 0.007,-0.045 -0.009,-0.095 -0.0313,-0.1406 l 0.0156,-0.6875 c 5e-5,0 3e-5,-0.011 0,-0.016 l 0,-0.031 -0.0156,0 c -0.12186,-0.3418 -1.47219,-0.6804 -3.17187,-0.7813 -0.027,0 -0.051,0 -0.0781,0 -0.0438,0 -0.0964,-0.016 -0.14062,-0.016 -0.6808,-0.032 -1.3093204,-0.012 -1.8437504,0.031 l 0,-1.5782 c 0.37475,0.057 0.73983,0.094 1.0937504,0.125 0.003,0 0.0128,0 0.0156,0 0.2751,0.024 0.54014,0.039 0.79688,0.047 0.11919,0 0.22941,0.015 0.34375,0.016 0.0552,3e-4 0.1022,5e-4 0.15625,0 0.0224,-2e-4 0.0403,4e-4 0.0625,0 0.31053,0 0.59551,-0.033 0.85937,-0.063 0.37618,-0.042 0.69701,-0.097 0.95313,-0.1875 0.0338,-0.012 0.0624,-0.018 0.0937,-0.031 0.005,0 0.011,0 0.0156,0 0.25617,-0.1058 0.42957,-0.2461 0.5,-0.4063 0.002,0 -0.002,-0.011 0,-0.016 0.0192,-0.044 0.0279,-0.08 0.0313,-0.125 5.2e-4,-0.01 2.9e-4,-0.021 0,-0.031 -2.3e-4,-0.036 -0.006,-0.073 -0.0156,-0.1094 -0.005,-0.019 -0.008,-0.044 -0.0156,-0.063 -0.0112,-0.028 -0.0305,-0.065 -0.0469,-0.094 -0.0176,-0.03 -0.0396,-0.064 -0.0625,-0.094 -0.0151,-0.02 -0.0295,-0.042 -0.0469,-0.063 -0.0314,-0.036 -0.0709,-0.073 -0.10937,-0.1094 -0.0144,-0.013 -0.0316,-0.034 -0.0469,-0.047 -0.0561,-0.049 -0.11915,-0.092 -0.1875,-0.1406 -0.2543,-0.1834 -0.59371,-0.373 -1,-0.5469 l -0.0313,0 c -0.74368,-0.3153 -1.70439,-0.5925 -2.7968704,-0.7968 -0.85254,-0.1595 -1.66249,-0.2538 -2.40625,-0.2813 -0.009,-0.01 -0.0218,-0.01 -0.0313,-0.016 -0.006,8e-4 -0.01,0 -0.0156,0 l -0.0156,0 c -0.17329,-0.01 -0.33688,-0.017 -0.5,-0.016 z m 2.40625,8.5937 c 0.55318,0.1033 1.1131597,0.1481 1.6718697,0.1719 l 0,0.063 c -0.61754,0.4064 -1.1231097,0.9965 -1.4374997,1.7031 l -0.17187,-0.2812 -0.0625,-0.25 0,-0.1407 c 0.0179,-0.011 0.0313,-0.024 0.0313,-0.047 l 0,-0.1563 c 0,-0.023 -0.0134,-0.036 -0.0313,-0.047 l 0,-1.0156 z m 9.4218707,2.1875 c 0.0843,0 0.16862,0 0.25,0 l 0,2.3906 -0.0625,0 c -0.0215,0 -0.0313,0.01 -0.0313,0.031 l 0,0.094 c 0,0.013 0.006,0.024 0.0156,0.031 l -0.10938,0.078 -0.0781,-0.047 c 0.1333,-0.375 0.22488,-0.8274 0.23437,-1.3593 -5.4e-4,-0.1972 -0.0318,-0.3897 -0.0625,-0.5782 l 0.0156,-0.078 -0.0313,0 c -0.0357,-0.1927 -0.0759,-0.382 -0.14063,-0.5625 z m -9.4218707,0.2344 0.0313,0.1094 c -0.008,0.031 -0.0238,0.062 -0.0313,0.094 l 0,-0.2031 z m 0,2.1406 c 0.0531,0.234 0.11264,0.4679 0.20312,0.6875 l -0.20312,0.1563 0,-0.8438 z m 9.6718707,0.2813 0,0.1093 -0.0781,-0.047 0.0781,-0.063 z m -0.14062,0.1093 0.14062,0.1094 0,0.1406 -0.15625,-0.2343 0.0156,-0.016 z m 0.73437,0.3438 0.23438,0.25 -0.17188,-0.125 -0.0625,-0.125 z m 0.125,0.2812 0.39063,0.2813 0.32812,0.3594 -0.21875,0.4531 -0.5,-1.0938 z m 0.89063,0.6407 0.14062,0.1093 -0.0313,0 -0.10937,-0.1093 z"
       id="path30546-0"
       inkscape:connector-curvature="0" />
  </g>
</svg>
