<?xml version="1.0" encoding="UTF-8" standalone="no"?>
<!-- Created with Inkscape (http://www.inkscape.org/) -->

<svg
   xmlns:dc="http://purl.org/dc/elements/1.1/"
   xmlns:cc="http://creativecommons.org/ns#"
   xmlns:rdf="http://www.w3.org/1999/02/22-rdf-syntax-ns#"
   xmlns:svg="http://www.w3.org/2000/svg"
   xmlns="http://www.w3.org/2000/svg"
   xmlns:sodipodi="http://sodipodi.sourceforge.net/DTD/sodipodi-0.dtd"
   xmlns:inkscape="http://www.inkscape.org/namespaces/inkscape"
   width="30"
   height="30"
   id="svg2"
   sodipodi:version="0.32"
   inkscape:version="0.48.4 r9939"
   sodipodi:docname="acropolis.svg"
   inkscape:output_extension="org.inkscape.output.svg.inkscape"
   version="1.1">
  <defs
     id="defs4" />
  <sodipodi:namedview
     id="base"
     pagecolor="#ffffff"
     bordercolor="#666666"
     borderopacity="1.0"
     inkscape:pageopacity="0.0"
     inkscape:pageshadow="2"
     inkscape:zoom="10.276087"
     inkscape:cx="15.344828"
     inkscape:cy="14.482759"
     inkscape:document-units="px"
     inkscape:current-layer="layer1"
     inkscape:window-width="656"
     inkscape:window-height="1029"
     inkscape:window-x="0"
     inkscape:window-y="19"
     showgrid="false"
     inkscape:window-maximized="0" />
  <metadata
     id="metadata7">
    <rdf:RDF>
      <cc:Work
         rdf:about="">
        <dc:format>image/svg+xml</dc:format>
        <dc:type
           rdf:resource="http://purl.org/dc/dcmitype/StillImage" />
        <dc:title></dc:title>
      </cc:Work>
    </rdf:RDF>
  </metadata>
  <g
     inkscape:label="Capa 1"
     inkscape:groupmode="layer"
     id="layer1"
     transform="translate(0,-1022.3622)">
    <path
       sodipodi:type="arc"
       style="color:#000000;fill:#1a1a1a;stroke:#d4d4d4;stroke-width:1.02777779;stroke-opacity:1;marker:none;visibility:visible;display:inline;overflow:visible;enable-background:accumulate"
       id="path16617-6-6"
       sodipodi:cx="15.16226"
       sodipodi:cy="16.56851"
       sodipodi:rx="14.008413"
       sodipodi:ry="14.008413"
       d="m 29.170673,16.56851 a 14.008413,14.008413 0 1 1 -28.0168263,0 14.008413,14.008413 0 1 1 28.0168263,0 z"
       transform="matrix(0.97297297,0,0,0.97297297,330.50795,953.63241)" />
    <path
       style="fill:#1a1a1a;stroke:#d4d4d4;stroke-width:1px;stroke-linecap:butt;stroke-linejoin:miter;stroke-opacity:1"
       d="m 345.29648,957.89011 0,11.863 0,0"
       id="path16623-6-2"
       inkscape:connector-curvature="0"
       inkscape:transform-center-y="-5.9314904" />
    <path
       style="fill:#1a1a1a;stroke:#d4d4d4;stroke-width:1px;stroke-linecap:butt;stroke-linejoin:miter;stroke-opacity:1"
       d="m 357.15947,969.75311 -1.70877,0 0,0"
       id="path16623-4-2-0"
       inkscape:connector-curvature="0"
       inkscape:transform-center-x="-0.854382" />
    <path
       style="fill:#1a1a1a;stroke:#d4d4d4;stroke-width:0.99999994px;stroke-linecap:butt;stroke-linejoin:miter;stroke-opacity:1"
       d="m 345.29648,981.61611 0,-2.0181 0,0"
       id="path16623-4-3-9-0"
       inkscape:connector-curvature="0"
       inkscape:transform-center-y="1.0091015" />
    <path
       style="fill:#1a1a1a;stroke:#d4d4d4;stroke-width:1px;stroke-linecap:butt;stroke-linejoin:miter;stroke-opacity:1"
       d="m 333.43348,969.75311 11.863,0 0,0"
       id="path16623-4-3-4-1-0"
       inkscape:connector-curvature="0"
       inkscape:transform-center-x="5.9315" />
    <path
       inkscape:connector-curvature="0"
       sodipodi:nodetypes="cccccccccccccc"
       id="path9518-0-7"
       d="m 14.999994,1025.9915 -11.2422196,9.9235 2.2484301,0 0,12.8177 6.7453475,0 0,-7.5644 4.651059,0 1.3e-5,7.5644 6.591159,0 0,-12.8177 2.248444,0 -11.242237,-9.9235 0,0 0,0 z"
       style="font-size:12px;fill:none;stroke:none" />
    <path
       style="color:#000000;fill:#1a1a1a;fill-opacity:1;fill-rule:evenodd;stroke:none;stroke-width:1;marker:none;visibility:visible;display:inline;overflow:visible;enable-background:accumulate"
       d="m 10.061084,1027.5227 c 0.18333,0.1833 0.38689,0.313 0.60219,0.4053 -0.194,0.073 -0.38524,0.1593 -0.57439,0.2571 -1.7754599,0.9187 -2.8052999,2.6782 -2.7908999,4.4423 -0.005,0 -0.01,0 -0.0139,0 -0.23964,0.028 -0.41036,0.2553 -0.51417,0.3566 -0.28881,0.2823 -1.34251,0.163 -1.61201,0.227 -0.38969,0.5475 0.9086,1.4997 1.55642,1.0979 0.34393,-0.1101 0.1286,0.057 0.0579,0.132 -0.43393,0.4623 -0.88915,0.7576 -0.69251,0.9542 0.37626,0.3763 1.49522,0.1172 2.00342,-0.3034 0.13684,0.1943 0.28798,0.3749 0.45164,0.542 -0.10071,0.2915 -0.23519,0.5752 -0.40532,0.8453 -0.3084,0.4898 -0.70586,0.8908 -1.16268,1.2021 -0.46943,0.2722 -0.88985,0.6194 -1.24374,1.026 0.0104,-0.019 0.0218,-0.037 0.0324,-0.056 -0.77745,0.866 -1.25069,2.0096 -1.25069,3.2657 0,2.415 1.7657,4.3347 4.04853,4.8244 1.22615,0.2631 2.6872099,0.4334 4.2291899,0.4656 0.11869,0 0.23935,0 0.35899,0 0.0695,0 0.13873,0 0.20845,0 5.93686,0 12.84835,-2.0311 12.08769,-8.6112 -0.13766,-1.1909 -0.80004,-2.3831 -0.93106,-2.6844 -0.13102,-0.3014 -0.94729,-1.876 -0.94729,-1.876 -0.14524,-0.2567 -0.33258,-0.3622 -0.63461,-0.4193 -0.39059,-0.073 -0.76682,0.1357 -1.00981,0.5073 -0.3405,0.3866 -0.5747,1.3673 -1.44525,1.7764 -1.09294,0.5138 -1.3661,0.6672 -2.09838,0.7875 -0.67963,0.1113 -2.06788,0.4807 -2.50138,0.5096 -0.4335,0.028 -0.77375,-0.1343 -0.90096,-0.4308 -0.12548,-0.2926 -0.012,-0.6455 0.26172,-0.9357 1.7953,-1.4334 2.44378,-3.8576 1.42208,-5.8319 -0.78289,-1.513 -2.34823,-2.3804 -4.03,-2.4157 -0.0543,0 -0.10766,0 -0.16213,0 -0.47901,0 -0.96595,0.078 -1.44525,0.2223 l -0.95423,-0.2872 z"
       id="path3061-6"
       inkscape:connector-curvature="0" />
  </g>
</svg>
