<?xml version="1.0" encoding="UTF-8" standalone="no"?>
<!-- Created with Inkscape (http://www.inkscape.org/) -->

<svg
   xmlns:dc="http://purl.org/dc/elements/1.1/"
   xmlns:cc="http://creativecommons.org/ns#"
   xmlns:rdf="http://www.w3.org/1999/02/22-rdf-syntax-ns#"
   xmlns:svg="http://www.w3.org/2000/svg"
   xmlns="http://www.w3.org/2000/svg"
   xmlns:sodipodi="http://sodipodi.sourceforge.net/DTD/sodipodi-0.dtd"
   xmlns:inkscape="http://www.inkscape.org/namespaces/inkscape"
   width="30"
   height="30"
   id="svg2"
   sodipodi:version="0.32"
   inkscape:version="0.48.4 r9939"
   sodipodi:docname="duckling.svg"
   inkscape:output_extension="org.inkscape.output.svg.inkscape"
   version="1.1">
  <defs
     id="defs4" />
  <sodipodi:namedview
     id="base"
     pagecolor="#ffffff"
     bordercolor="#666666"
     borderopacity="1.0"
     inkscape:pageopacity="0.0"
     inkscape:pageshadow="2"
     inkscape:zoom="10.276087"
     inkscape:cx="15.344828"
     inkscape:cy="14.482759"
     inkscape:document-units="px"
     inkscape:current-layer="layer1"
     inkscape:window-width="656"
     inkscape:window-height="1029"
     inkscape:window-x="0"
     inkscape:window-y="19"
     showgrid="false"
     inkscape:window-maximized="0" />
  <metadata
     id="metadata7">
    <rdf:RDF>
      <cc:Work
         rdf:about="">
        <dc:format>image/svg+xml</dc:format>
        <dc:type
           rdf:resource="http://purl.org/dc/dcmitype/StillImage" />
        <dc:title></dc:title>
      </cc:Work>
    </rdf:RDF>
  </metadata>
  <g
     inkscape:label="Capa 1"
     inkscape:groupmode="layer"
     id="layer1"
     transform="translate(0,-1022.3622)">
    <path
       sodipodi:type="arc"
       style="color:#000000;fill:#1a1a1a;stroke:#d4d4d4;stroke-width:1.02777779;stroke-opacity:1;marker:none;visibility:visible;display:inline;overflow:visible;enable-background:accumulate"
       id="path16617-6-6"
       sodipodi:cx="15.16226"
       sodipodi:cy="16.56851"
       sodipodi:rx="14.008413"
       sodipodi:ry="14.008413"
       d="m 29.170673,16.56851 a 14.008413,14.008413 0 1 1 -28.0168263,0 14.008413,14.008413 0 1 1 28.0168263,0 z"
       transform="matrix(0.97297297,0,0,0.97297297,330.50795,953.63241)" />
    <path
       style="fill:#1a1a1a;stroke:#d4d4d4;stroke-width:1px;stroke-linecap:butt;stroke-linejoin:miter;stroke-opacity:1"
       d="m 345.29648,957.89011 0,11.863 0,0"
       id="path16623-6-2"
       inkscape:connector-curvature="0"
       inkscape:transform-center-y="-5.9314904" />
    <path
       style="fill:#1a1a1a;stroke:#d4d4d4;stroke-width:1px;stroke-linecap:butt;stroke-linejoin:miter;stroke-opacity:1"
       d="m 357.15947,969.75311 -1.70877,0 0,0"
       id="path16623-4-2-0"
       inkscape:connector-curvature="0"
       inkscape:transform-center-x="-0.854382" />
    <path
       style="fill:#1a1a1a;stroke:#d4d4d4;stroke-width:0.99999994px;stroke-linecap:butt;stroke-linejoin:miter;stroke-opacity:1"
       d="m 345.29648,981.61611 0,-2.0181 0,0"
       id="path16623-4-3-9-0"
       inkscape:connector-curvature="0"
       inkscape:transform-center-y="1.0091015" />
    <path
       style="fill:#1a1a1a;stroke:#d4d4d4;stroke-width:1px;stroke-linecap:butt;stroke-linejoin:miter;stroke-opacity:1"
       d="m 333.43348,969.75311 11.863,0 0,0"
       id="path16623-4-3-4-1-0"
       inkscape:connector-curvature="0"
       inkscape:transform-center-x="5.9315" />
    <path
       inkscape:connector-curvature="0"
       sodipodi:nodetypes="cccccccccccccc"
       id="path9518-0-7"
       d="m 14.999994,1025.9915 -11.2422196,9.9235 2.2484301,0 0,12.8177 6.7453475,0 0,-7.5644 4.651059,0 1.3e-5,7.5644 6.591159,0 0,-12.8177 2.248444,0 -11.242237,-9.9235 0,0 0,0 z"
       style="font-size:12px;fill:none;stroke:none" />
    <path
       style="color:#000000;fill:#1a1a1a;fill-opacity:1;fill-rule:nonzero;stroke:none;stroke-width:2;marker:none;visibility:visible;display:inline;overflow:visible;enable-background:accumulate"
       d="m 15.00064,1023.9719 c -7.3954697,0 -13.3916397,5.995 -13.3916397,13.3904 0,7.3954 5.99617,13.3903 13.3916397,13.3903 7.39546,0 13.39036,-5.9949 13.39036,-13.3903 0,-7.3954 -5.9949,-13.3904 -13.39036,-13.3904 z m 0.14218,0.4773 c 0.37958,0 0.77045,0.022 1.18822,0.072 0.41583,0.05 2.12612,0.83 1.28725,0.7617 -1.0821,-0.5504 -0.0575,0.4227 0.5027,0.059 0.78988,-0.1282 0.22061,0.4401 0.53445,0.4304 0.71644,0.5394 -1.36998,0.028 -0.4367,0.5497 0.14155,0.2684 0.44123,0.5752 0.58904,0.8339 0.21787,0.2248 0.0807,0.1127 -0.27421,0.2248 -0.49843,0.2376 1.03264,0.9519 0.78708,0.9026 -0.54938,-0.1027 -1.35462,0.1003 -1.53353,-0.6031 0.006,-0.9703 -0.65418,-0.4454 -0.23866,0.2603 0.037,0.906 2.08387,-0.024 1.14507,0.97 -0.74272,-0.5788 0.0746,0.9558 -0.43924,0.608 -0.49572,-0.2268 0.11422,-0.6407 -0.6322,-0.5306 0.45093,0.2945 0.0282,0.5307 0.12187,0.8912 -0.44176,-0.041 0.39559,0.4362 -0.10282,0.3184 -0.41341,0.087 -0.57921,-0.5549 -0.62966,-0.6002 1.2833,0.1493 0.0481,-0.6085 -0.58015,-0.6386 -0.57025,-0.6043 -1.88802,0.6927 -1.4967,0.6068 -0.19698,0.9222 -1.83079,1.0785 -1.37992,2.1619 0.14455,0.7153 0.83544,-0.4157 0.89879,0.1916 0.34801,0.4341 0.0973,0.8397 -0.29706,0.7491 0.48441,0.3577 -0.25871,0.4527 0.004,-0.1574 0.65126,-0.8204 -0.81179,-0.3766 -0.32625,0.5332 -0.18129,0.2484 -0.81796,0.4629 -1.14887,0.7274 0.18646,-0.3945 -0.22178,-1.0393 -0.53445,-1.6059 0.36252,-0.3303 0.0789,-0.6244 -0.14472,-0.5803 -0.1837,0.1075 -0.15002,-0.5401 -0.42654,0.2515 0.52147,0.1226 -0.0814,0.4024 0.0736,0.6144 0.30368,-0.027 0.0136,0.065 0.047,0.2907 0.61719,0.393 -0.63255,0.6305 -0.0482,0.7998 -0.72384,0.4737 -0.22139,0.3433 0.34403,0.3833 0.73184,-0.223 0.54173,0.27 -0.0178,0.2628 -1.45382,-0.2058 0.39025,0.6268 -0.2704,1.3774 -0.32763,0.7292 -1.7128097,-0.8606 -1.61984,0.4012 -0.3027097,0.7328 -0.4005097,0.9619 -0.3757697,1.7049 1.4432497,0.047 -0.71337,0.9285 -0.54714,1.6883 -0.9134,-0.01 -1.20475,0.9371 -1.87627,1.5309 0.13958,0.5531 0.008,0.925 -0.20185,1.5044 -0.0594,1.0724 0.81963,2.0256 1.61857,2.7916 0.84622,0.441 1.8602797,0.7713 2.7915697,0.7095 0.66157,-0.3264 1.00071,0.433 1.63381,0.3378 0.71183,-0.1535 1.15326,0.5618 0.58776,1.0487 0.85499,0.4331 0.56317,1.0942 1.18695,1.5308 -1.10284,0.4813 0.0991,1.2348 0.62585,1.4511 -5.6001997,0.2361 -10.4923397,-2.9653 -12.7556298,-8.2947 -1.0286399,-2.4223 -1.0553399,-5.8371 -0.25008,-8.4103 0.27718,-0.8857 0.51159,-1.6802 1.2263,-2.2025 0.24912,-0.3323 0.49984,-0.734 0.65505,-0.6601 0.9908501,-0.1758 -0.28565,0.4435 0.2615101,0.4392 0.58469,0.1078 0.21497,-0.4374 0.51541,-0.8468 0.2429,0.3372 0.30029,-0.212 0.38338,0.01 1.09286,-0.049 -0.82159,0.4499 -0.19296,1.0283 0.12172,0.4137 0.24846,-0.7604 0.70455,-0.9013 0.69451,-0.4346 0.59322,-1.3496 1.28978,-1.8127 1.04774,-0.8532 -0.65585,0.2904 -0.0863,-0.3175 0.35293,-0.1842 0.46748,-0.4238 0.77184,-0.7019 0.13761,-0.8383 -1.2315,0.7622 -1.49417,0.6208 -1.10877,0.8455 0.0158,-0.1331 0.48875,-0.6095 0.26968,-0.6276 2.36805,-1.5043 1.08286,-0.4482 0.48645,-0.1212 1.10189,-0.6263 1.56779,-0.5153 -0.55237,0.2923 -0.42303,0.3517 -0.99146,0.5966 -0.34437,-0.313 -0.17917,0.2293 -0.61696,0.4622 -0.60963,0.6409 0.28723,0.4576 0.57507,-0.067 0.91399,-0.7321 -0.13756,0.1402 -0.0114,0.2286 0.72562,-0.4207 1.6960197,-1.2572 2.1555497,-1.7774 -0.9307097,0.014 0.38722,-0.3563 0.0711,0.1893 0.73932,-0.572 0.15321,0.099 0.88609,-0.037 -0.32436,0.206 -0.70774,0.3523 -0.87593,0.7477 -0.81398,0.3782 -0.8801,0.7707 -1.6883897,1.0131 -0.758,0.3618 -1.4529,2.2003 -0.43035,1.4915 0.57476,-0.3977 1.4086097,-0.9785 1.9930597,-0.768 0.22974,0.1283 1.04866,0.074 0.68806,-0.2386 -0.0107,-0.01 -0.0207,-0.016 -0.0305,-0.026 0.0113,0.01 0.0209,0.017 0.0305,0.026 0.24823,0.1609 0.73274,-0.4231 1.29359,-0.6462 0.0408,-0.3609 1.51886,-1.078 0.65631,-1.0575 0.43189,-0.08 -0.20137,-0.3908 -0.603,-0.5801 0.68053,-0.4291 -0.81193,-0.4904 -0.32371,-0.697 -0.77754,-0.036 -0.0507,0.077 0.0939,-0.3365 -0.53506,0.1083 -0.65628,-0.4068 0.0597,-0.4988 0.89653,-0.1151 1.6772,-0.2137 2.51228,-0.212 z m -0.009,2.6545 c -0.0785,0.01 -0.17139,0.06 -0.26659,0.1993 -0.54733,-0.4638 -0.0278,0.6495 0.0901,0.6932 -0.10056,-0.734 0.64852,-0.118 0.24501,-0.5789 0.23322,-0.021 0.132,-0.3273 -0.0686,-0.3136 z m -4.05976,2.2215 c -0.0885,-0.013 -0.35608,0.4343 -0.37958,0.4279 -0.0638,0.051 -0.12664,0.1013 -0.19042,0.1524 0.53845,0.6614 1.61456,-0.309 0.59285,-0.4393 0.0125,-0.096 0.002,-0.1372 -0.0228,-0.141 z m 5.93223,0.2691 c 0.001,0 0.003,0 0.004,0 -0.003,0 -0.005,0 -0.008,0 0.001,0 0.002,0 0.004,0 z m -0.92671,0.4787 c 0.39878,0.021 -0.81927,0.6982 -0.21835,1.0955 -0.18623,0.8233 0.91073,-0.2055 1.06381,0.1918 -0.33493,-0.1471 -1.19,0.8026 -0.66774,0.3516 0.51273,0.6964 -0.40544,0.052 -0.1955,0.6411 -0.0965,0.262 0.0147,0.6809 -0.4697,0.4785 -0.21023,0.3258 -1.51966,0.3763 -0.93052,-0.046 0.43913,-0.016 0.84407,-0.9076 0.93179,-1.4242 -0.84208,-0.3855 0.15816,-0.721 0.0774,-1.2251 0.20657,-0.048 0.33492,-0.067 0.40877,-0.063 z m -4.81003,2.3968 -0.0482,0.026 -0.0317,0.063 c -0.49552,0.054 -0.22101,0.3662 -0.42146,0.6221 -0.76071,0.7801 1.61,-0.3653 0.50144,-0.711 z m 10.48202,1.1259 c 0.25951,0.01 -0.21101,0.7294 -0.014,0.81 0.47963,0.1996 0.58382,0.573 0.93559,1.0256 0.8096,0.4258 0.0935,1.1148 -0.57253,0.7516 0.0897,-0.9557 0.17198,-0.6682 -0.64235,-1.173 -0.313,-0.2426 -0.59487,-1.0223 -0.0203,-1.2846 0.15482,-0.093 0.25368,-0.1304 0.31356,-0.1296 z m -3.53802,1.1744 c 0.043,0 0.0843,0.094 0.17773,0.1104 0.67407,-0.089 0.0187,0.3631 0.43416,0.6817 0.18536,-0.9957 2.36117,-0.079 1.36341,0.5472 -0.81509,-0.4904 -1.86919,0.6415 -2.40184,0 0.22042,-0.3502 0.34381,-0.8145 0.29833,-1.0956 0.0604,-0.1896 0.0948,-0.2435 0.12821,-0.2425 z m 9.24174,0.4455 c 0.16095,-0.01 0.50056,1.5548 0.58269,1.7684 0.0769,3.5937 -1.26007,6.895 -3.38568,9.0754 -0.92991,0.954 -2.46227,2.4611 -5.34573,3.5101 -1.12701,0.41 -0.17219,-0.2209 0.2742,-0.4444 0.44134,-0.7058 1.82002,-0.7317 1.90675,-1.6909 -0.31815,-0.4763 0.20946,-0.9947 0.59284,-1.4333 0.65719,-1.0627 1.624,-1.9435 1.98164,-3.1774 0.50221,-1.6555 -1.46436,1.5471 -1.54114,0.2856 -0.93896,-0.2727 -1.54232,-0.9217 -1.87247,-1.8611 -0.21466,-0.1722 -1.11293,-1.4277 -0.75406,-1.192 0.14814,-0.3834 0.6787,-0.2132 0.7236,0.4164 0.41693,0.8441 1.08216,1.0118 1.59699,1.757 -0.006,1.0174 0.55458,0.7099 0.98765,0.1434 0.76127,-0.5012 0.99129,-1.371 1.44973,-1.9855 0.17014,-0.4874 0.63723,-1.5606 0.0762,-1.6795 -0.4415,-0.2649 -0.29671,-0.4157 -0.52936,0.292 -0.19279,0.4756 -1.94095,-0.2154 -1.2187,-0.8277 0.28566,0.2176 1.04645,0.9946 1.3431,0.087 0.43035,0.3519 1.11661,-0.2322 1.42435,-0.6995 0.42122,0.2078 0.45956,0.3864 0.79849,0.4684 0.0909,-0.8479 0.56294,2.4923 0.89371,0.9521 -0.0965,-1.1518 -0.0702,-2.3154 -0.0622,-3.4733 0.0128,-0.2053 0.0403,-0.29 0.0774,-0.292 z m -12.81656,0.2095 c 0.41577,0.1034 0.46384,0.6706 1.05493,0.9508 0.54941,0.4599 0.85522,1.4854 1.24408,1.7201 0.0776,-0.3892 0.0354,-0.6099 0.45574,-0.3351 0.17255,-0.2375 -0.66033,-0.693 -0.45955,-0.7363 0.68496,-0.6262 0.71801,0.029 0.88863,0.3961 0.081,0.6659 0.31684,0.2433 0.56618,0.4316 0.48896,-0.2374 1.08576,-0.2636 1.44973,-0.5942 0.0761,-0.2127 0.13598,1.2062 -0.0698,1.677 -0.59856,-0.1053 -0.92878,0.6521 -1.55764,0.4392 -0.37237,-0.086 -0.81831,0.074 -1.01811,-0.2424 -0.94394,-0.4554 -0.55351,0.9201 -1.0892,0.7603 -0.68425,-0.071 -0.83855,-0.6395 -1.46624,-0.7248 -0.21524,0.059 -1.06286,-0.2819 -0.41385,-0.5167 0.15842,-0.484 -0.13445,-0.5794 -0.58522,-0.4113 -0.93636,-0.4994 -2.71302,0.5507 -3.09624,-0.3732 0.54778,0.01 0.85433,-0.1115 1.22504,-0.4595 -0.10164,-0.6725 0.93652,-1.0109 0.98891,-1.4523 0.50159,0.8313 1.15482,-0.6655 1.4015,0.3339 0.25744,0.4488 1.67586,0.9991 0.88863,1.4637 -1.10684,-0.3048 0.14572,0.7592 0.13964,0.1091 0.91546,0.035 -0.10053,-1.1841 0.59157,-0.7603 0.27607,-0.2469 -1.46138,-0.8247 -1.13871,-1.6758 z m -0.75407,0.8264 c -0.0899,0.01 -0.28572,0.3778 -0.25897,0.561 -0.22313,0.248 -0.26195,1.0946 0.28436,0.7477 0.18716,-0.3061 -0.14352,-0.6694 -0.019,-0.9241 0.0587,-0.2849 0.0407,-0.3859 -0.006,-0.3847 z m 6.17343,10.2383 c 0.44208,-0.013 -0.0825,0.6525 -0.48367,0.6386 0.0945,-0.2457 0.0832,-0.6279 0.43797,-0.6361 0.0163,-0.01 0.0315,-0.01 0.0457,-0.01 z m 3.00484,0.2424 c -0.0401,0 -0.0962,0.013 -0.17138,0.041 -0.62741,0.4935 -1.23105,0.9465 -1.55637,1.6186 0.21753,-0.048 0.39386,-0.1854 0.57253,-0.3085 0.40616,-0.1585 1.54274,-1.3486 1.15522,-1.3507 z"
       id="path17617-4"
       inkscape:connector-curvature="0" />
  </g>
</svg>
