<?xml version="1.0" encoding="UTF-8" standalone="no"?>
<!-- Created with Inkscape (http://www.inkscape.org/) -->

<svg
   xmlns:dc="http://purl.org/dc/elements/1.1/"
   xmlns:cc="http://creativecommons.org/ns#"
   xmlns:rdf="http://www.w3.org/1999/02/22-rdf-syntax-ns#"
   xmlns:svg="http://www.w3.org/2000/svg"
   xmlns="http://www.w3.org/2000/svg"
   xmlns:sodipodi="http://sodipodi.sourceforge.net/DTD/sodipodi-0.dtd"
   xmlns:inkscape="http://www.inkscape.org/namespaces/inkscape"
   width="30"
   height="30"
   id="svg2"
   sodipodi:version="0.32"
   inkscape:version="0.48.4 r9939"
   sodipodi:docname="computer.svg"
   inkscape:output_extension="org.inkscape.output.svg.inkscape"
   version="1.1">
  <defs
     id="defs4" />
  <sodipodi:namedview
     id="base"
     pagecolor="#ffffff"
     bordercolor="#666666"
     borderopacity="1.0"
     inkscape:pageopacity="0.0"
     inkscape:pageshadow="2"
     inkscape:zoom="9.9647651"
     inkscape:cx="15.760005"
     inkscape:cy="15.066783"
     inkscape:document-units="px"
     inkscape:current-layer="layer1"
     inkscape:window-width="698"
     inkscape:window-height="1029"
     inkscape:window-x="0"
     inkscape:window-y="19"
     showgrid="false"
     inkscape:window-maximized="0" />
  <metadata
     id="metadata7">
    <rdf:RDF>
      <cc:Work
         rdf:about="">
        <dc:format>image/svg+xml</dc:format>
        <dc:type
           rdf:resource="http://purl.org/dc/dcmitype/StillImage" />
        <dc:title></dc:title>
      </cc:Work>
    </rdf:RDF>
  </metadata>
  <g
     inkscape:label="Capa 1"
     inkscape:groupmode="layer"
     id="layer1"
     transform="translate(0,-1022.3622)">
    <path
       style="font-size:medium;font-style:normal;font-variant:normal;font-weight:normal;font-stretch:normal;text-indent:0;text-align:start;text-decoration:none;line-height:normal;letter-spacing:normal;word-spacing:normal;text-transform:none;direction:ltr;block-progression:tb;writing-mode:lr-tb;text-anchor:start;baseline-shift:baseline;color:#000000;fill:#000000;fill-opacity:1;stroke:none;stroke-width:1px;marker:none;visibility:visible;display:inline;overflow:visible;enable-background:accumulate;font-family:Sans;-inkscape-font-specification:Sans"
       d="m 11.3125,1029.112 -2.3125003,8.7811 -1.15625,-2.8436 -0.4375,-1.0625 -0.46875,1.0311 -1.40625,3.0625 -5.09374945,0.031 0,1 5.40624945,-0.031 0.34375,0 0.125,-0.2811 1.0625,-2.3125 1.28125,3.1561 0.5625,1.4064 0.375,-1.4689 2.1250003,-8.0936 2.65625,14.0625 0.96875,0.063 2.03125,-6.3438 2.4375,0.063 0.3125,0 0.15625,-0.3125 1.40625,-3.25 1.3125,2.8125 0.125,0.2813 0.34375,0 6.09375,-0.031 0,-1 -5.8125,0.031 -1.625,-3.5313 -0.46875,-1 -0.4375,1.0313 -1.75,3.9687 -2.4375,-0.063 -0.375,0 -0.125,0.3438 -1.53125,4.8125 -2.71875,-14.2813 -0.96875,-0.031 z"
       id="path11634-4"
       inkscape:connector-curvature="0" />
  </g>
</svg>
