<?xml version="1.0" encoding="UTF-8" standalone="no"?>
<!-- Created with Inkscape (http://www.inkscape.org/) -->

<svg
   xmlns:dc="http://purl.org/dc/elements/1.1/"
   xmlns:cc="http://creativecommons.org/ns#"
   xmlns:rdf="http://www.w3.org/1999/02/22-rdf-syntax-ns#"
   xmlns:svg="http://www.w3.org/2000/svg"
   xmlns="http://www.w3.org/2000/svg"
   xmlns:sodipodi="http://sodipodi.sourceforge.net/DTD/sodipodi-0.dtd"
   xmlns:inkscape="http://www.inkscape.org/namespaces/inkscape"
   width="30"
   height="30"
   id="svg2"
   sodipodi:version="0.32"
   inkscape:version="0.48.4 r9939"
   sodipodi:docname="key1.svg"
   inkscape:output_extension="org.inkscape.output.svg.inkscape"
   version="1.1">
  <defs
     id="defs4" />
  <sodipodi:namedview
     id="base"
     pagecolor="#ffffff"
     bordercolor="#666666"
     borderopacity="1.0"
     inkscape:pageopacity="0.0"
     inkscape:pageshadow="2"
     inkscape:zoom="10.276087"
     inkscape:cx="15.344828"
     inkscape:cy="14.482759"
     inkscape:document-units="px"
     inkscape:current-layer="layer1"
     inkscape:window-width="656"
     inkscape:window-height="1029"
     inkscape:window-x="0"
     inkscape:window-y="19"
     showgrid="false"
     inkscape:window-maximized="0" />
  <metadata
     id="metadata7">
    <rdf:RDF>
      <cc:Work
         rdf:about="">
        <dc:format>image/svg+xml</dc:format>
        <dc:type
           rdf:resource="http://purl.org/dc/dcmitype/StillImage" />
        <dc:title></dc:title>
      </cc:Work>
    </rdf:RDF>
  </metadata>
  <g
     inkscape:label="Capa 1"
     inkscape:groupmode="layer"
     id="layer1"
     transform="translate(0,-1022.3622)">
    <path
       sodipodi:type="arc"
       style="color:#000000;fill:#1a1a1a;stroke:#d4d4d4;stroke-width:1.02777779;stroke-opacity:1;marker:none;visibility:visible;display:inline;overflow:visible;enable-background:accumulate"
       id="path16617-6-6"
       sodipodi:cx="15.16226"
       sodipodi:cy="16.56851"
       sodipodi:rx="14.008413"
       sodipodi:ry="14.008413"
       d="m 29.170673,16.56851 a 14.008413,14.008413 0 1 1 -28.0168263,0 14.008413,14.008413 0 1 1 28.0168263,0 z"
       transform="matrix(0.97297297,0,0,0.97297297,330.50795,953.63241)" />
    <path
       style="fill:#1a1a1a;stroke:#d4d4d4;stroke-width:1px;stroke-linecap:butt;stroke-linejoin:miter;stroke-opacity:1"
       d="m 345.29648,957.89011 0,11.863 0,0"
       id="path16623-6-2"
       inkscape:connector-curvature="0"
       inkscape:transform-center-y="-5.9314904" />
    <path
       style="fill:#1a1a1a;stroke:#d4d4d4;stroke-width:1px;stroke-linecap:butt;stroke-linejoin:miter;stroke-opacity:1"
       d="m 357.15947,969.75311 -1.70877,0 0,0"
       id="path16623-4-2-0"
       inkscape:connector-curvature="0"
       inkscape:transform-center-x="-0.854382" />
    <path
       style="fill:#1a1a1a;stroke:#d4d4d4;stroke-width:0.99999994px;stroke-linecap:butt;stroke-linejoin:miter;stroke-opacity:1"
       d="m 345.29648,981.61611 0,-2.0181 0,0"
       id="path16623-4-3-9-0"
       inkscape:connector-curvature="0"
       inkscape:transform-center-y="1.0091015" />
    <path
       style="fill:#1a1a1a;stroke:#d4d4d4;stroke-width:1px;stroke-linecap:butt;stroke-linejoin:miter;stroke-opacity:1"
       d="m 333.43348,969.75311 11.863,0 0,0"
       id="path16623-4-3-4-1-0"
       inkscape:connector-curvature="0"
       inkscape:transform-center-x="5.9315" />
    <path
       inkscape:connector-curvature="0"
       sodipodi:nodetypes="cccccccccccccc"
       id="path9518-0-7"
       d="m 14.999994,1025.9915 -11.2422196,9.9235 2.2484301,0 0,12.8177 6.7453475,0 0,-7.5644 4.651059,0 1.3e-5,7.5644 6.591159,0 0,-12.8177 2.248444,0 -11.242237,-9.9235 0,0 0,0 z"
       style="font-size:12px;fill:none;stroke:none" />
    <path
       style="fill:#1a1a1a;fill-opacity:1;stroke:none"
       d="m 15.984135,1026.3568 c 0,0 -4.016716,2.7761 -4.568785,4.9533 -0.293361,1.1569 1.156578,2.3102 0.882092,3.4718 -0.224639,0.9506 -1.007325,2.5466 -1.922508,2.2052 -0.5071694,-0.1892 0.109904,-1.0871 0,-1.6172 -0.163332,-0.7877 -0.9499454,-2.2165 -0.9499454,-2.2165 0,0 -0.0288,1.3517 -0.226177,1.9904 -0.773559,2.5029 -3.609151,1.3084 -3.686692,6.9436 -0.05315,3.8626 5.8756874,6.3915 9.7369384,6.2764 3.748384,-0.1117 7.860004,-3.1039 9.081024,-6.6496 0.88257,-2.5628 -2.21654,-7.8257 -2.21654,-7.8257 0,0 0.14612,1.7033 -0.29403,2.3635 -0.44014,0.6602 -1.40566,1.6108 -2.06952,1.1762 -1.5322,-1.0032 1.02462,-3.6809 0.59937,-5.4622 -0.40886,-1.7127 -2.883765,-4.4218 -2.883765,-4.4218 0,0 0.816945,2.4897 0.735075,3.7659 -0.0598,0.9317 0.0495,2.5952 -0.882091,2.6575 -1.339487,0.09 -1.545197,-2.2962 -1.775492,-3.6188 -0.229326,-1.317 0.441046,-3.992 0.441046,-3.992 z m -0.294031,11.0827 c 0,0 -0.323839,1.2723 -0.214869,1.8999 0.109449,0.6301 0.211692,1.7617 0.848166,1.7189 0.442663,-0.03 0.390024,-0.8226 0.418428,-1.2666 0.03886,-0.608 -0.350575,-1.7981 -0.350575,-1.7981 0,0 1.174103,1.2987 1.368373,2.1148 0.202065,0.8488 -1.010759,2.1231 -0.282721,2.601 0.315436,0.2072 0.774736,-0.2509 0.983876,-0.5654 0.20914,-0.3147 0.1357,-1.1196 0.1357,-1.1196 0,0 1.47108,2.5107 1.05173,3.7319 -0.58019,1.6896 -2.527599,3.1019 -4.308683,3.1552 -1.834708,0.055 -4.650584,-1.145 -4.625329,-2.9855 0.03682,-2.6853 1.38531,-2.1096 1.752875,-3.3022 0.09375,-0.3044 0.10178,-0.95 0.10178,-0.95 0,0 0.374749,0.6764 0.452355,1.0517 0.05218,0.2527 -0.240986,0.6789 0,0.769 0.434858,0.1627 0.809285,-0.5987 0.916019,-1.0517 0.130423,-0.5534 -0.557819,-1.0997 -0.418428,-1.6511 0.262318,-1.0374 2.171303,-2.3522 2.171303,-2.3522 z"
       id="path26451-5"
       inkscape:connector-curvature="0" />
  </g>
</svg>
