<?xml version="1.0" encoding="UTF-8" standalone="no"?>
<!-- Created with Inkscape (http://www.inkscape.org/) -->

<svg
   xmlns:dc="http://purl.org/dc/elements/1.1/"
   xmlns:cc="http://creativecommons.org/ns#"
   xmlns:rdf="http://www.w3.org/1999/02/22-rdf-syntax-ns#"
   xmlns:svg="http://www.w3.org/2000/svg"
   xmlns="http://www.w3.org/2000/svg"
   xmlns:sodipodi="http://sodipodi.sourceforge.net/DTD/sodipodi-0.dtd"
   xmlns:inkscape="http://www.inkscape.org/namespaces/inkscape"
   width="30"
   height="30"
   id="svg2"
   sodipodi:version="0.32"
   inkscape:version="0.48.4 r9939"
   sodipodi:docname="sandcastle.svg"
   inkscape:output_extension="org.inkscape.output.svg.inkscape"
   version="1.1">
  <defs
     id="defs4" />
  <sodipodi:namedview
     id="base"
     pagecolor="#ffffff"
     bordercolor="#666666"
     borderopacity="1.0"
     inkscape:pageopacity="0.0"
     inkscape:pageshadow="2"
     inkscape:zoom="10.276087"
     inkscape:cx="15.344828"
     inkscape:cy="14.482759"
     inkscape:document-units="px"
     inkscape:current-layer="layer1"
     inkscape:window-width="656"
     inkscape:window-height="1029"
     inkscape:window-x="0"
     inkscape:window-y="19"
     showgrid="false"
     inkscape:window-maximized="0" />
  <metadata
     id="metadata7">
    <rdf:RDF>
      <cc:Work
         rdf:about="">
        <dc:format>image/svg+xml</dc:format>
        <dc:type
           rdf:resource="http://purl.org/dc/dcmitype/StillImage" />
        <dc:title></dc:title>
      </cc:Work>
    </rdf:RDF>
  </metadata>
  <g
     inkscape:label="Capa 1"
     inkscape:groupmode="layer"
     id="layer1"
     transform="translate(0,-1022.3622)">
    <path
       sodipodi:type="arc"
       style="color:#000000;fill:#1a1a1a;stroke:#d4d4d4;stroke-width:1.02777779;stroke-opacity:1;marker:none;visibility:visible;display:inline;overflow:visible;enable-background:accumulate"
       id="path16617-6-6"
       sodipodi:cx="15.16226"
       sodipodi:cy="16.56851"
       sodipodi:rx="14.008413"
       sodipodi:ry="14.008413"
       d="m 29.170673,16.56851 a 14.008413,14.008413 0 1 1 -28.0168263,0 14.008413,14.008413 0 1 1 28.0168263,0 z"
       transform="matrix(0.97297297,0,0,0.97297297,330.50795,953.63241)" />
    <path
       style="fill:#1a1a1a;stroke:#d4d4d4;stroke-width:1px;stroke-linecap:butt;stroke-linejoin:miter;stroke-opacity:1"
       d="m 345.29648,957.89011 0,11.863 0,0"
       id="path16623-6-2"
       inkscape:connector-curvature="0"
       inkscape:transform-center-y="-5.9314904" />
    <path
       style="fill:#1a1a1a;stroke:#d4d4d4;stroke-width:1px;stroke-linecap:butt;stroke-linejoin:miter;stroke-opacity:1"
       d="m 357.15947,969.75311 -1.70877,0 0,0"
       id="path16623-4-2-0"
       inkscape:connector-curvature="0"
       inkscape:transform-center-x="-0.854382" />
    <path
       style="fill:#1a1a1a;stroke:#d4d4d4;stroke-width:0.99999994px;stroke-linecap:butt;stroke-linejoin:miter;stroke-opacity:1"
       d="m 345.29648,981.61611 0,-2.0181 0,0"
       id="path16623-4-3-9-0"
       inkscape:connector-curvature="0"
       inkscape:transform-center-y="1.0091015" />
    <path
       style="fill:#1a1a1a;stroke:#d4d4d4;stroke-width:1px;stroke-linecap:butt;stroke-linejoin:miter;stroke-opacity:1"
       d="m 333.43348,969.75311 11.863,0 0,0"
       id="path16623-4-3-4-1-0"
       inkscape:connector-curvature="0"
       inkscape:transform-center-x="5.9315" />
    <path
       inkscape:connector-curvature="0"
       sodipodi:nodetypes="cccccccccccccc"
       id="path9518-0-7"
       d="m 14.999994,1025.9915 -11.2422196,9.9235 2.2484301,0 0,12.8177 6.7453475,0 0,-7.5644 4.651059,0 1.3e-5,7.5644 6.591159,0 0,-12.8177 2.248444,0 -11.242237,-9.9235 0,0 0,0 z"
       style="font-size:12px;fill:none;stroke:none" />
    <path
       inkscape:connector-curvature="0"
       style="fill:#1a1a1a;fill-opacity:1;stroke:none"
       d="m 13.989103,1031.5435 c -0.0862,0.034 -0.55738,0.5386 -1.03125,1.125 l -0.843749,1.0625 -0.625,0.063 c -2.8549703,0.346 -5.2011003,1.494 -7.3437506,3.375 -0.44421,0.4695 -2.10321,2.0285 -2,2.4063 0.0355,0.038 0.43657,0.01 0.875,0.063 0.82165,0.106 2.06981,0.2661 2.0625,0.4375 -0.004,0.089 -0.70868,0.1797 -2,0.3437 -1.10705,0.1407 -1.09792,0.3515 0.0313,0.75 1.35171,0.4772 3.1279503,0.7716 6.0000003,0.5625 0.032,4e-4 0.0618,0 0.0937,0 0.74342,0.7254 1.6879503,1.3889 2.4375003,1.4375 1.951699,0.1267 1.400339,-0.8225 1.312499,-2.0312 0.7299,-0.1999 1.4449,-0.4165 2.1875,-0.5938 0.14118,-0.01 0.57367,-0.141 0.9375,-0.2812 2.19205,-0.6265 3.988,-1.2474 5.78125,-1.0625 1.65697,0.085 2.75519,1.2197 4.0625,2.0312 0.054,10e-4 0.3989,0.2065 0.75,0.4688 0.95543,0.7137 1.18724,0.6087 0.8125,-0.3438 -0.30781,-0.7823 -0.79195,-2.5461 -0.78125,-2.8125 0.28791,-0.8828 0.58169,-1.9629 0.96875,-2.8125 0.22117,-0.3896 0.24085,-0.777 0.0625,-0.7812 -0.0295,-7e-4 -0.15383,0.035 -0.28125,0.094 -0.12742,0.059 -0.44705,0.221 -0.71875,0.3437 -0.2717,0.1228 -0.6169,0.2902 -0.75,0.4063 -0.79309,0.5199 -1.62887,0.7908 -2.59375,0.75 -1.07843,-0.216 -2.48494,-0.3894 -3.5625,-1.125 -1.65626,-0.8906 -1.81221,-0.976 -2.5,-1.2188 -0.37394,-0.1319 -0.67027,-0.2312 -0.6875,-0.25 -0.0172,-0.019 0.057,-0.1302 0.1875,-0.25 0.13046,-0.1197 0.2328,-0.3016 0.21875,-0.375 -0.014,-0.073 -0.40779,-0.2591 -0.875,-0.4375 -0.54429,-0.2077 -1.05766,-0.5298 -1.4375,-0.875 -0.30566,-0.2777 -0.64066,-0.4723 -0.75,-0.4687 z m -8.6874993,6.2188 c 0.23883,0 0.4375,0.1987 0.4375,0.4375 0,0.2388 -0.19867,0.4375 -0.4375,0.4375 -0.2388303,0 -0.4375003,-0.1987 -0.4375003,-0.4375 0,-0.2388 0.19867,-0.4375 0.4375003,-0.4375 z"
       id="path1932-6" />
  </g>
</svg>
