<?xml version="1.0" encoding="UTF-8" standalone="no"?>
<!-- Created with Inkscape (http://www.inkscape.org/) -->

<svg
   xmlns:dc="http://purl.org/dc/elements/1.1/"
   xmlns:cc="http://creativecommons.org/ns#"
   xmlns:rdf="http://www.w3.org/1999/02/22-rdf-syntax-ns#"
   xmlns:svg="http://www.w3.org/2000/svg"
   xmlns="http://www.w3.org/2000/svg"
   xmlns:sodipodi="http://sodipodi.sourceforge.net/DTD/sodipodi-0.dtd"
   xmlns:inkscape="http://www.inkscape.org/namespaces/inkscape"
   width="30"
   height="30"
   id="svg2"
   sodipodi:version="0.32"
   inkscape:version="0.48.4 r9939"
   sodipodi:docname="dice.svg"
   inkscape:output_extension="org.inkscape.output.svg.inkscape"
   version="1.1">
  <defs
     id="defs4" />
  <sodipodi:namedview
     id="base"
     pagecolor="#ffffff"
     bordercolor="#666666"
     borderopacity="1.0"
     inkscape:pageopacity="0.0"
     inkscape:pageshadow="2"
     inkscape:zoom="10.276087"
     inkscape:cx="15.344828"
     inkscape:cy="14.482759"
     inkscape:document-units="px"
     inkscape:current-layer="layer1"
     inkscape:window-width="656"
     inkscape:window-height="1029"
     inkscape:window-x="0"
     inkscape:window-y="19"
     showgrid="false"
     inkscape:window-maximized="0" />
  <metadata
     id="metadata7">
    <rdf:RDF>
      <cc:Work
         rdf:about="">
        <dc:format>image/svg+xml</dc:format>
        <dc:type
           rdf:resource="http://purl.org/dc/dcmitype/StillImage" />
        <dc:title></dc:title>
      </cc:Work>
    </rdf:RDF>
  </metadata>
  <g
     inkscape:label="Capa 1"
     inkscape:groupmode="layer"
     id="layer1"
     transform="translate(0,-1022.3622)">
    <path
       sodipodi:type="arc"
       style="color:#000000;fill:#1a1a1a;stroke:#d4d4d4;stroke-width:1.02777779;stroke-opacity:1;marker:none;visibility:visible;display:inline;overflow:visible;enable-background:accumulate"
       id="path16617-6-6"
       sodipodi:cx="15.16226"
       sodipodi:cy="16.56851"
       sodipodi:rx="14.008413"
       sodipodi:ry="14.008413"
       d="m 29.170673,16.56851 a 14.008413,14.008413 0 1 1 -28.0168263,0 14.008413,14.008413 0 1 1 28.0168263,0 z"
       transform="matrix(0.97297297,0,0,0.97297297,330.50795,953.63241)" />
    <path
       style="fill:#1a1a1a;stroke:#d4d4d4;stroke-width:1px;stroke-linecap:butt;stroke-linejoin:miter;stroke-opacity:1"
       d="m 345.29648,957.89011 0,11.863 0,0"
       id="path16623-6-2"
       inkscape:connector-curvature="0"
       inkscape:transform-center-y="-5.9314904" />
    <path
       style="fill:#1a1a1a;stroke:#d4d4d4;stroke-width:1px;stroke-linecap:butt;stroke-linejoin:miter;stroke-opacity:1"
       d="m 357.15947,969.75311 -1.70877,0 0,0"
       id="path16623-4-2-0"
       inkscape:connector-curvature="0"
       inkscape:transform-center-x="-0.854382" />
    <path
       style="fill:#1a1a1a;stroke:#d4d4d4;stroke-width:0.99999994px;stroke-linecap:butt;stroke-linejoin:miter;stroke-opacity:1"
       d="m 345.29648,981.61611 0,-2.0181 0,0"
       id="path16623-4-3-9-0"
       inkscape:connector-curvature="0"
       inkscape:transform-center-y="1.0091015" />
    <path
       style="fill:#1a1a1a;stroke:#d4d4d4;stroke-width:1px;stroke-linecap:butt;stroke-linejoin:miter;stroke-opacity:1"
       d="m 333.43348,969.75311 11.863,0 0,0"
       id="path16623-4-3-4-1-0"
       inkscape:connector-curvature="0"
       inkscape:transform-center-x="5.9315" />
    <path
       inkscape:connector-curvature="0"
       sodipodi:nodetypes="cccccccccccccc"
       id="path9518-0-7"
       d="m 14.999994,1025.9915 -11.2422196,9.9235 2.2484301,0 0,12.8177 6.7453475,0 0,-7.5644 4.651059,0 1.3e-5,7.5644 6.591159,0 0,-12.8177 2.248444,0 -11.242237,-9.9235 0,0 0,0 z"
       style="font-size:12px;fill:none;stroke:none" />
    <path
       inkscape:connector-curvature="0"
       style="fill:#1a1a1a;fill-opacity:1;fill-rule:evenodd;stroke:none"
       d="m 16.229089,1024.9084 c -0.55115,-0.013 -0.9375,0.063 -0.9375,0.063 -1.85274,0.4404 -2.71875,2.5 -2.71875,2.5 -0.854679,1.981 -0.437499,4 -0.437499,4 0.639739,2.8853 2.968749,2.4063 2.968749,2.4063 1.56721,-0.102 2.71875,-1.9375 2.71875,-1.9375 1.29721,-1.7453 1.46875,-3.2813 1.46875,-3.2813 0.30349,-2.3455 -1.15625,-3.2187 -1.15625,-3.2187 -0.65225,-0.3933 -1.3551,-0.5181 -1.90625,-0.5313 z m -8.437499,1.1875 c -0.6748405,0.073 -1.3222705,0.4114 -1.8125005,0.875 -1.08024,1.1286 -1.4551,2.7307 -1.5,4.25 -0.0525,0.6981 0.1356,1.4063 0.4375,2.0313 0.4942,1.0733 1.59069,1.8185 2.7812505,1.8125 0.84299,0.119 1.74406,-0.1712 2.3125,-0.8125 0.51398,-0.5236 0.76874,-1.2383 0.9375,-1.9375 0.37243,-1.4506 0.47643,-3.054 -0.1875,-4.4375 -0.41041,-0.6806 -1.01356,-1.2758 -1.75,-1.5938 -0.3857,-0.1677 -0.81385,-0.231 -1.21875,-0.1875 z m 15.468749,3.25 c -1.2925,-0.013 -2.40625,0.6563 -2.40625,0.6563 -2.17464,1.0109 -2.9375,3.9687 -2.9375,3.9687 -0.27155,2.852 1.4375,3.2813 1.4375,3.2813 1.43302,0.5801 3.53125,-0.6875 3.53125,-0.6875 1.86801,-0.9222 2.75,-2.6563 2.75,-2.6563 1.41389,-1.9375 -0.0625,-3.5312 -0.0625,-3.5312 -0.69908,-0.7928 -1.537,-1.0236 -2.3125,-1.0313 z m -10.46875,5.3438 c -0.775869,0.113 -1.489719,0.636 -2.156249,1.0312 -0.69908,0.4992 -1.56799,0.4425 -2.375,0.375 -1.9191305,-0.1107 -4.0612505,0.5501 -5.0937505,2.2813 -0.75114,1.1156 -0.81783,2.6162 -0.21875,3.8125 0.54209,0.9784 1.15783,1.9742 2.125,2.5937 0.96964,0.7323 2.1750405,0.8822 3.3125005,1.1875 1.25171,0.293 1.91974,1.4772 2.8125,2.2813 1.34576,1.3439 3.383199,1.8201 5.218749,1.4375 1.7743,-0.5691 3.19617,-2.3414 3.09375,-4.25 -0.20115,-1.3195 -0.85271,-2.5403 -1.5625,-3.6563 -0.21987,-0.9337 -0.16275,-1.8924 -0.21875,-2.8437 0.0551,-1.5246 -1.20445,-2.6227 -2.3125,-3.4688 -0.5719,-0.326 -1.19466,-0.596 -1.84375,-0.7187 -0.27593,-0.074 -0.52263,-0.1002 -0.78125,-0.063 z m 11.75,2.6875 c -0.22069,0.014 -0.44434,0.05 -0.65625,0.094 -1.08772,0.1778 -2.04856,0.8086 -2.90625,1.4687 -0.9525,0.6763 -1.51245,1.7798 -1.59375,2.9375 -0.0431,0.3427 -0.0407,0.7047 0.15625,1 0.40583,0.8496 1.24523,1.5585 2.21875,1.5938 1.33542,-0.033 2.62777,-0.4998 3.6875,-1.3125 0.6952,-0.5734 1.36877,-1.2665 1.75,-2.0938 0.43981,-0.9114 0.31511,-2.0541 -0.375,-2.8125 -0.11882,-0.149 -0.25301,-0.2928 -0.40625,-0.4062 -0.5415,-0.4029 -1.21294,-0.5115 -1.875,-0.4688 z"
       id="path2078-7" />
  </g>
</svg>
