<?xml version="1.0" encoding="UTF-8" standalone="no"?>
<!-- Created with Inkscape (http://www.inkscape.org/) -->

<svg
   xmlns:dc="http://purl.org/dc/elements/1.1/"
   xmlns:cc="http://creativecommons.org/ns#"
   xmlns:rdf="http://www.w3.org/1999/02/22-rdf-syntax-ns#"
   xmlns:svg="http://www.w3.org/2000/svg"
   xmlns="http://www.w3.org/2000/svg"
   xmlns:sodipodi="http://sodipodi.sourceforge.net/DTD/sodipodi-0.dtd"
   xmlns:inkscape="http://www.inkscape.org/namespaces/inkscape"
   width="30"
   height="30"
   id="svg2"
   sodipodi:version="0.32"
   inkscape:version="0.48.4 r9939"
   sodipodi:docname="envelope.svg"
   inkscape:output_extension="org.inkscape.output.svg.inkscape"
   version="1.1">
  <defs
     id="defs4" />
  <sodipodi:namedview
     id="base"
     pagecolor="#ffffff"
     bordercolor="#666666"
     borderopacity="1.0"
     inkscape:pageopacity="0.0"
     inkscape:pageshadow="2"
     inkscape:zoom="11.6"
     inkscape:cx="15"
     inkscape:cy="15"
     inkscape:document-units="px"
     inkscape:current-layer="layer1"
     inkscape:window-width="698"
     inkscape:window-height="1029"
     inkscape:window-x="0"
     inkscape:window-y="19"
     showgrid="false"
     inkscape:window-maximized="0" />
  <metadata
     id="metadata7">
    <rdf:RDF>
      <cc:Work
         rdf:about="">
        <dc:format>image/svg+xml</dc:format>
        <dc:type
           rdf:resource="http://purl.org/dc/dcmitype/StillImage" />
        <dc:title></dc:title>
      </cc:Work>
    </rdf:RDF>
  </metadata>
  <g
     inkscape:label="Capa 1"
     inkscape:groupmode="layer"
     id="layer1"
     transform="translate(0,-1022.3622)">
    <path
       sodipodi:type="arc"
       style="color:#000000;fill:#1a1a1a;stroke:#d4d4d4;stroke-width:1.02777779;stroke-opacity:1;marker:none;visibility:visible;display:inline;overflow:visible;enable-background:accumulate"
       id="path16617-6-6"
       sodipodi:cx="15.16226"
       sodipodi:cy="16.56851"
       sodipodi:rx="14.008413"
       sodipodi:ry="14.008413"
       d="m 29.170673,16.56851 a 14.008413,14.008413 0 1 1 -28.0168263,0 14.008413,14.008413 0 1 1 28.0168263,0 z"
       transform="matrix(0.97297297,0,0,0.97297297,330.50795,953.63241)" />
    <path
       style="fill:#1a1a1a;stroke:#d4d4d4;stroke-width:1px;stroke-linecap:butt;stroke-linejoin:miter;stroke-opacity:1"
       d="m 345.29648,957.89011 0,11.863 0,0"
       id="path16623-6-2"
       inkscape:connector-curvature="0"
       inkscape:transform-center-y="-5.9314904" />
    <path
       style="fill:#1a1a1a;stroke:#d4d4d4;stroke-width:1px;stroke-linecap:butt;stroke-linejoin:miter;stroke-opacity:1"
       d="m 357.15947,969.75311 -1.70877,0 0,0"
       id="path16623-4-2-0"
       inkscape:connector-curvature="0"
       inkscape:transform-center-x="-0.854382" />
    <path
       style="fill:#1a1a1a;stroke:#d4d4d4;stroke-width:0.99999994px;stroke-linecap:butt;stroke-linejoin:miter;stroke-opacity:1"
       d="m 345.29648,981.61611 0,-2.0181 0,0"
       id="path16623-4-3-9-0"
       inkscape:connector-curvature="0"
       inkscape:transform-center-y="1.0091015" />
    <path
       style="fill:#1a1a1a;stroke:#d4d4d4;stroke-width:1px;stroke-linecap:butt;stroke-linejoin:miter;stroke-opacity:1"
       d="m 333.43348,969.75311 11.863,0 0,0"
       id="path16623-4-3-4-1-0"
       inkscape:connector-curvature="0"
       inkscape:transform-center-x="5.9315" />
    <path
       inkscape:connector-curvature="0"
       style="fill:#1a1a1a;fill-opacity:1;fill-rule:evenodd;stroke:none"
       d="m 15.234875,1024.6015 -0.25,0.063 -0.1875,0.1875 -0.0625,0.25 0,2.0313 0.0937,0.25 0.1875,0.1875 0.21875,0.063 -0.25,0.094 -0.1875,0.1875 -0.0625,0.25 0,2.0312 0.0937,0.25 0.1875,0.1875 0.21875,0.063 -0.25,0.094 -0.1875,0.1875 -0.0625,0.2187 0,2.0625 0.0937,0.25 0.1875,0.1875 0.21875,0.063 -0.25,0.063 -0.1875,0.2188 -0.0625,0.2187 0,2.0313 0.0937,0.2812 0.1875,0.1875 0.21875,0.063 -0.25,0.063 -0.1875,0.1875 -0.0625,0.25 0,2.0313 0.0937,0.25 0.1875,0.1875 0.21875,0.063 -0.25,0.094 -0.1875,0.1875 -0.0625,0.25 0,0.4688 -0.0313,-0.1563 0,-0.031 -0.0937,-0.4688 -0.0625,-0.3437 -0.125,-0.2188 -0.1875,-0.094 -0.25,0.031 -0.15625,0.1563 -0.0625,0.2187 0,0.063 0.0625,0.3438 0.0625,0.3437 -0.0625,-0.1875 -0.125,-0.1875 -0.21875,-0.063 -0.1875,0.063 -0.15625,0.1875 0,0.2188 0.0937,0.25 0.0937,0.2812 0.0625,0.2813 0.0937,0.25 0.0625,0.2812 0.125,0.1875 0.1875,0.063 0.21875,-0.031 0.15625,-0.1563 0,-0.2187 0,-0.031 -0.0313,-0.094 0.1875,0.094 0.21875,-0.031 0.125,-0.094 0,0.1563 -0.0625,-0.031 -0.21875,0.031 -0.1875,0.125 -0.0313,0.094 -0.0313,0.125 0,0.094 -0.0937,-0.031 -0.21875,0.031 -0.15625,0.1562 -0.0313,0.2188 0.0313,0.031 0,0.031 0.0313,0.1875 0,0.031 0.0937,0.3438 -3.09375,0 0,2.4687 -2.0312501,0 0,2.3125 c -0.35978,0.1387 -0.72418,0.2651 -1.0625,0.2813 -0.7988,0.013 -1.51306,-0.5563 -2.21875,-0.5625 -0.71167,-0.013 -1.5195,0.4308 -2,0.5312 -0.48051,0.097 -0.79216,0.1003 -0.90625,0.031 l 0,1.6562 c 0.11409,0.069 0.42574,0.066 0.90625,-0.031 0.4805,-0.1005 1.28826,-0.5438 2,-0.5313 0.70575,0.01 1.41995,0.6062 2.21875,0.5938 0.79282,-0.038 1.6891503,-0.6875 2.5000001,-0.7188 0.78982,-0.025 1.48537,0.5468 2.28125,0.5625 0.80786,0.01 1.6351,-0.522 2.5,-0.5 0.85285,0.013 1.72286,0.597 2.59375,0.5938 0.85584,-0.019 1.67058,-0.6502 2.5625,-0.6563 0.89492,0 1.87298,0.6063 2.75,0.625 0.86476,0 1.77265,-0.5718 2.40625,-0.5937 0.61862,-0.022 0.94016,0.3839 1.3125,0.4687 0.36636,0.078 0.65874,0.097 0.875,0.031 l 0,-1.6875 c -0.21626,0.06 -0.50864,0.078 -0.875,0 -0.37234,-0.082 -0.69388,-0.497 -1.3125,-0.4688 -0.63367,0.022 -1.54149,0.5938 -2.40625,0.5938 -0.35747,-0.01 -0.74507,-0.099 -1.125,-0.2188 l 0,-2.3125 -2.25,0 0,-2.4687 -3.125,0 0.0937,-0.3438 0.0313,-0.2187 0.0313,0 0,-0.031 -0.0313,-0.2187 -0.125,-0.1563 -0.1875,-0.063 0,-0.031 0.15625,0.031 0.21875,-0.063 0.125,-0.1875 0.0625,-0.2812 0.0937,-0.25 0.0937,-0.2813 0.0625,-0.2812 0.0937,-0.25 0,-0.2188 -0.125,-0.1875 -0.1875,-0.063 -0.21875,0.063 -0.0313,0.031 0.0937,-0.3438 -0.0313,-0.2187 -0.15625,-0.1875 -0.21875,-0.063 -0.21875,0.063 -0.15625,0.1875 0,0.063 -0.0937,0.3437 -0.0313,-0.094 -0.1875,-0.1563 -0.25,-0.094 0.25,-0.063 0.1875,-0.1875 0.0625,-0.25 0,-2.0313 -0.0625,-0.25 -0.1875,-0.1875 -0.25,-0.063 0.25,-0.094 0.1875,-0.1875 0.0625,-0.25 0,-2.0313 -0.0625,-0.25 -0.1875,-0.1875 -0.25,-0.063 0.25,-0.063 0.1875,-0.2187 0.0625,-0.2188 0,-2.0625 -0.0625,-0.25 -0.1875,-0.1875 -0.25,-0.063 0.25,-0.063 0.1875,-0.1875 0.0625,-0.25 0,-2.0312 -0.0625,-0.2813 -0.1875,-0.1562 -0.25,-0.094 0.25,-0.063 0.1875,-0.1875 0.0625,-0.25 0,-2.0313 -0.0625,-0.25 -0.1875,-0.1875 -0.28125,-0.063 z m -6.3437498,3.0625 -0.0625,0.031 -0.0313,0 -0.0313,0 -0.0313,0 -0.0625,0 -0.0313,0 -0.0625,0.031 -0.0313,0 -0.0625,0 0,0.031 -0.0625,0 -0.0313,0 -0.0625,0.031 -0.0313,0 -0.0625,0.031 0,0.031 -0.0625,0.031 -0.0313,0 -0.0625,0.031 0,0.031 -0.0937,0.031 -0.0625,0.063 -0.0313,0 -0.0625,0.063 -0.0313,0.031 -0.125,0.1875 0,0.25 0.125,0.1875 0.21875,0.063 0.21875,-0.031 0.0625,-0.063 0.0313,0 0.0313,-0.031 0.0313,-0.031 0.0313,-0.031 0.0313,0 0.0313,-0.031 0.0625,-0.031 0.0313,0 0.0313,-0.031 0.0313,0 0.0313,-0.031 0.0313,0 0.0313,0 0.0313,0 0,-0.031 0.0313,0 0.0313,0 0.0313,0 0.0313,0 0.0313,0 0.0313,0 0.0313,0 0.0313,0 0.0625,0.031 0.0625,0 0.0625,0.031 0.0937,0.031 0.0313,0.031 0.21875,0.031 0.21875,-0.094 0.0313,-0.031 0.0937,-0.1562 0,-0.2188 -0.125,-0.1875 -0.0625,-0.063 -0.0625,-0.031 -0.0313,0 -0.0937,-0.063 -0.0313,0 -0.125,-0.031 -0.0313,-0.031 -0.0937,0 -0.0313,-0.031 -0.0625,0 -0.0625,0 -0.0313,0 -0.0625,0 -0.0625,-0.031 -0.0313,0 z m 0.90625,0.8438 -0.0625,0.2187 0.0313,0.2188 0.0625,0.063 0.0313,0.063 0.0625,0.063 0,0.031 0.0313,0.031 0.0313,0 0,0.031 0.1249998,0.1875 0.125,0.2187 0.125,0.2188 0,0.031 0.125,0.2188 0.125,0.1875 0.15625,0.1875 0.21875,0.031 0.21875,-0.094 0.125,-0.1875 0,-0.2188 -0.0313,-0.094 -0.0937,-0.1875 -0.15625,-0.25 -0.125,-0.2188 0,-0.031 -0.125,-0.2187 -0.15625,-0.2188 0,-0.031 -0.0313,0 -0.0313,-0.063 0,-0.031 -0.0937,-0.094 -0.0625,-0.063 -0.1875,-0.125 -0.21875,0 -0.2187498,0.125 z m -2.0000003,0.25 -0.125,-0.094 -0.21875,-0.031 -0.21875,0.094 -0.0313,0.063 -0.0937,0.125 -0.125,0.2187 -0.0313,0.031 -0.125,0.2188 -0.15625,0.25 -0.125,0.25 -0.125,0.2812 -0.0313,0.094 -0.0313,0.2187 0.0937,0.2188 0.1875,0.094 0.25,0 0.15625,-0.1562 0.0625,-0.063 0.0313,-0.063 0.125,-0.25 0.125,-0.25 0.125,-0.2188 0.125,-0.2187 0.125,-0.2188 0.0625,-0.094 0.0313,0 0.0625,-0.2187 -0.0625,-0.2188 -0.0625,-0.063 z m 13.5625001,-1.0938 -0.0313,0.031 -0.0313,0 -0.0625,0 -0.0313,0 -0.0313,0 -0.0313,0.031 -0.125,0 -0.0313,0.031 -0.0937,0.031 -0.0313,0 -0.0937,0.063 -0.0313,0 -0.0625,0.031 -0.1875,0.1563 -0.0313,0.25 0.0937,0.2187 0.1875,0.125 0.21875,0 0.0625,-0.031 0.0625,-0.031 0.0937,-0.031 0.0625,-0.031 0.0625,-0.031 0.0313,0 0.0313,0 0.0313,0 0.0313,0 0.0313,0 0.0313,0 0.0313,0 0.0313,0 0.0313,0 0.0313,0 0,0.031 0.0625,0 0.0313,0 0.0313,0.031 0.0313,0 0.0313,0.031 0.0313,0 0.0313,0.031 0.0313,0 0.0313,0.031 0.0313,0 0.0313,0.031 0.0313,0.063 0.0313,0 0.21875,0.094 0.25,-0.031 -0.0625,0.1875 0.0313,0.2188 0.0313,0.063 0.0625,0.094 0.125,0.2187 0.0313,0 0.125,0.2188 0.125,0.2187 0.125,0.25 0.125,0.25 0.0313,0.063 0.15625,0.1875 0.21875,0.063 0.21875,-0.094 0.15625,-0.1875 0,-0.2188 -0.0313,-0.063 -0.0313,-0.094 -0.125,-0.2813 -0.0313,0 -0.125,-0.25 -0.125,-0.25 -0.15625,-0.2187 0,-0.031 -0.125,-0.2188 -0.0313,0 -0.0625,-0.125 -0.1875,-0.125 -0.25,-0.031 -0.1875,0.125 0.125,-0.125 0.0313,-0.25 -0.0625,-0.1875 -0.0625,-0.063 -0.0313,-0.031 -0.0937,-0.063 -0.0625,-0.063 -0.0313,0 -0.0625,-0.031 0,-0.031 -0.0625,-0.031 -0.0313,0 -0.0625,-0.031 -0.0313,-0.031 -0.0625,-0.031 -0.0625,-0.031 -0.0313,0 -0.0625,0 -0.0313,-0.031 -0.0625,0 -0.0313,0 -0.0313,-0.031 -0.0313,0 -0.0625,0 -0.0313,0 -0.0625,0 -0.0625,-0.031 -0.0313,0 -0.0625,0 -0.0313,0 z m -0.8125,0.8438 -0.125,-0.094 -0.21875,-0.063 -0.21875,0.094 -0.0625,0.063 -0.0313,0.063 -0.0313,0 -0.0625,0.094 0,0.031 -0.0625,0.063 0,0.031 -0.0313,0 -0.125,0.2187 -0.125,0.2188 0,0.031 -0.15625,0.2187 -0.125,0.25 -0.0937,0.1875 -0.0625,0.25 0.0937,0.2188 0.1875,0.125 0.25,0 0.1875,-0.1563 0.0313,-0.063 0.0937,-0.1875 0.0313,0 0.125,-0.2187 0,-0.031 0.125,-0.2187 0.125,-0.2188 0.125,-0.1875 0,-0.031 0.0313,-0.031 0.0313,-0.031 0.0313,-0.063 0.0313,0 0.0313,-0.063 0.0937,-0.2187 -0.0625,-0.2188 -0.0313,-0.063 z m -9.25,1.9062 -0.21875,0.094 -0.15625,0.1875 0,0.2187 0.0313,0.094 0.0313,0.063 0.0937,0.25 0.0313,0 0.0937,0.25 0.125,0.25 0,0.031 0.0937,0.25 0.125,0.2813 0.0313,0.063 0.125,0.1562 0.21875,0.094 0.25,-0.063 0.125,-0.1875 0.0313,-0.2188 -0.0313,-0.094 0,-0.063 -0.12505,-0.2813 -0.125,-0.25 0,-0.031 -0.0937,-0.25 -0.0313,0 -0.0937,-0.2813 -0.125,-0.25 -0.0313,-0.063 -0.15625,-0.1875 -0.21875,-0.063 z m 0.875,2.2188 -0.15625,0.063 -0.15625,0.1875 -0.0313,0.2187 0.0313,0.063 0,0.031 0.1875,0.5625 0.0313,0 0.1875,0.5625 0.0937,0.3437 0.125,0.1875 0.21875,0.094 0.25,-0.063 0.15625,-0.1563 0.0313,-0.25 -0.0313,-0.063 -0.0937,-0.3437 -0.1875,-0.5625 -0.0313,0 -0.1875,-0.5938 0,-0.031 -0.15625,-0.1875 -0.21875,-0.063 -0.0625,0 z m 6.75,-2.1875 -0.1875,0.1562 -0.0313,0.063 -0.0313,0.063 -0.125,0.25 -0.125,0.2813 -0.125,0.25 0,0.031 -0.0937,0.25 -0.125,0.2813 -0.0313,0.063 0,0.25 0.0937,0.1875 0.21875,0.125 0.21875,-0.031 0.1875,-0.1562 0.0313,-0.063 0.0313,-0.063 0.0937,-0.2813 0.125,-0.25 0,-0.031 0.0937,-0.25 0.0313,0 0.0937,-0.25 0.125,-0.25 0.0313,-0.063 0.0313,-0.25 -0.0937,-0.1875 -0.21875,-0.125 -0.21875,0 z m -0.5625,2.25 -0.15625,-0.063 -0.21875,0.031 -0.1875,0.1563 -0.0313,0.063 0,0.031 -0.21875,0.5938 -0.1875,0.5625 -0.125,0.3437 0,0.2188 0.125,0.2187 0.21875,0.094 0.21875,-0.063 0.1875,-0.1563 0.0313,-0.063 0.0937,-0.3437 0.1875,-0.5625 0.21875,-0.5625 0,-0.031 0,-0.2187 -0.0937,-0.2188 -0.0625,-0.031 z m -0.78125,2.25 -0.15625,-0.031 -0.21875,0.031 -0.15625,0.1562 -0.0313,0.063 -0.0313,0.094 -0.15625,0.5625 -0.0313,0 -0.15625,0.5937 -0.0937,0.3125 0.0313,0.2188 0.125,0.1875 0.21875,0.094 0.21875,-0.063 0.15625,-0.1562 0.0313,-0.063 0.0937,-0.3125 0.15625,-0.5938 0.15625,-0.5625 0.0313,-0.063 0,-0.2187 -0.125,-0.2188 -0.0625,-0.031 z m -11.0937501,-4.1875 -0.21875,0.031 -0.1875,0.125 -0.0313,0.063 -0.0937,0.2813 -0.125,0.2812 -0.0937,0.25 0,0.031 -0.0937,0.25 -0.0937,0.2812 -0.0625,0.1563 0,0.2187 0.125,0.2188 0.1875,0.094 0.25,-0.063 0.15625,-0.1562 0.0313,-0.063 0.0625,-0.1563 0.0937,-0.25 0.0937,-0.2812 0.0937,-0.25 0.0937,-0.2813 0.125,-0.25 0,-0.2187 -0.0937,-0.2188 -0.21875,-0.094 z m -0.6875,2.2812 -0.15625,-0.031 -0.21875,0.031 -0.15625,0.1563 -0.0313,0.094 -0.125,0.375 -0.125,0.4375 -0.0937,0.4375 -0.0313,0 -0.0625,0.2813 0,0.25 0.15625,0.1875 0.21875,0.063 0.21875,-0.063 0.15625,-0.1563 0.0313,-0.063 0.0625,-0.3125 0.125,-0.4062 0.125,-0.4375 0.0937,-0.375 0,-0.2188 -0.125,-0.2187 -0.0625,-0.031 z m 18.1562501,-2.2812 -0.21875,0.063 -0.15625,0.1562 -0.0313,0.25 0.0313,0.063 0.0937,0.25 0.125,0.2813 0.0937,0.25 0.0937,0.2812 0.0937,0.25 0.0625,0.1563 0.125,0.1875 0.21875,0.094 0.0625,0 0.15625,-0.063 0.15625,-0.1562 0.0313,-0.25 0,-0.063 -0.0625,-0.1563 -0.0937,-0.2812 -0.0937,-0.25 0,-0.031 -0.0937,-0.25 -0.0313,0 -0.0937,-0.2812 -0.0937,-0.2813 -0.15625,-0.1562 -0.21875,-0.063 z m 0.59375,2.2812 -0.15625,0.1563 -0.0313,0.25 0,0.063 0.125,0.375 0.125,0.4375 0.125,0.4062 0.0625,0.3125 0.125,0.1875 0.21875,0.094 0.21875,-0.031 0.15625,-0.1562 0.0625,-0.25 0,-0.063 -0.0937,-0.2813 -0.0937,-0.4375 -0.0313,0 -0.125,-0.4375 -0.0937,-0.375 -0.15625,-0.2187 -0.1875,-0.063 -0.25,0.031 z m -11.53125,1.875 -0.21875,0.031 -0.15625,0.1562 -0.0625,0.25 0.0313,0.063 0,0.063 0.1875,0.5625 0.15625,0.5938 0.0937,0.3125 0.125,0.1875 0.1875,0.094 0.25,-0.031 0.15625,-0.1563 0.0625,-0.25 -0.0313,-0.063 -0.0937,-0.3125 -0.15625,-0.5944 -0.15625,-0.5625 -0.0313,-0.094 -0.125,-0.1875 -0.21875,-0.063 z m 0.59375,2.2813 -0.15625,0.063 -0.1875,0.1562 -0.0313,0.2188 0,0.063 0,0.063 0.15625,0.5312 0.125,0.5625 0.0937,0.375 0.0937,0.2188 0.21875,0.094 0.21875,-0.031 0.1875,-0.1563 0.0625,-0.2187 0,-0.063 -0.0937,-0.4063 -0.15625,-0.5625 -0.125,-0.5625 0,-0.031 -0.125,-0.2188 -0.21875,-0.094 -0.0625,0 z m -3.25,-1.625 -0.0625,0.031 -0.0313,0 -0.0937,0.031 -0.0313,0 -0.0937,0.031 -0.0313,0 -0.0625,0.031 -0.0313,0.031 -0.0937,0.031 -0.0313,0.031 -0.0625,0.031 -0.15625,0.1875 0,0.2187 0.0937,0.1563 0.21875,0.094 0.1875,-0.031 0.0313,-0.031 0.0625,-0.031 0.0625,-0.031 0.0625,-0.031 0.0625,0 0.0313,-0.031 0.0313,0 0.0313,0 0.0313,0 0.0313,0 0.0313,0 0.0313,0 0.0313,0 0.0625,0.031 0.0313,0 0.0313,0 0.0313,0.031 0.0313,0.031 0.0313,0 0.0313,0 0.0313,0.031 0.0625,0.031 0,0.031 0.0313,0.031 0.21875,0.063 0.1875,-0.031 -0.0625,0.2188 0.0625,0.1875 0,0.031 0.0625,0.094 0.15625,0.25 0.15625,0.25 0.15625,0.25 0.125,0.2812 0.0313,0 0,0.063 0.15625,0.125 0.21875,0.063 0.0313,0 0.15625,-0.094 0.125,-0.1875 -0.0313,-0.2188 0,-0.031 -0.0313,-0.063 -0.15625,-0.2813 -0.15625,-0.2812 -0.1875,-0.25 0,-0.031 -0.15625,-0.2187 0,-0.031 -0.0625,-0.094 -0.1875,-0.125 -0.21875,-0.031 -0.125,0.094 0.0937,-0.1563 0.0313,-0.1875 -0.125,-0.1875 0,-0.031 -0.0625,-0.031 0,-0.031 -0.0937,-0.063 -0.0313,0 -0.0625,-0.031 -0.0625,-0.031 -0.0313,-0.031 -0.0313,-0.031 -0.0313,0 -0.0625,-0.031 -0.0313,0 -0.0625,-0.031 -0.0313,0 -0.0625,-0.031 -0.0313,0 -0.0625,0 -0.0313,0 -0.0625,-0.031 -0.0313,0 -0.0625,0 -0.0313,0 -0.0937,0 -0.0313,0 z m 2.125,2.7812 -0.125,0.1875 0.0313,0.2188 0,0.031 0.0625,0.1563 0.125,0.2812 0.125,0.2813 0,0.031 0.125,0.2813 0.0937,0.25 0.125,0.1562 0.21875,0.063 0.1875,-0.063 0.125,-0.1562 0,-0.2188 0,-0.031 -0.0937,-0.25 -0.125,-0.3125 -0.125,-0.3125 -0.125,-0.2813 0,-0.031 -0.0625,-0.1563 -0.15625,-0.1562 -0.2188,-0.031 -0.1875,0.063 z m -2.8124998,-1.9687 -0.125,-0.094 -0.21875,0 -0.1875,0.125 -0.0625,0.094 -0.0937,0.125 -0.0937,0.125 -0.0937,0.1562 -0.0625,0.125 -0.0313,0 -0.0625,0.1563 -0.0937,0.1562 -0.0625,0.125 -0.0625,0.1563 -0.0313,0.063 -0.0313,0.2187 0.0937,0.1875 0.1875,0.094 0.21875,-0.031 0.1562503,-0.1562 0.0313,-0.063 0.0625,-0.125 0,-0.031 0.0937,-0.125 0.0625,-0.125 0.0625,-0.125 0.0625,-0.125 0.0313,0 0.0625,-0.125 0.0937,-0.125 0.0625,-0.125 0.0625,-0.063 0.0625,-0.2187 -0.0625,-0.1875 -0.0313,-0.063 z m 9.9374998,-0.8125 -0.0625,0.031 -0.0313,0 -0.0625,0 -0.0313,0 -0.0625,0.031 -0.0313,0 -0.0625,0.031 -0.0313,0 -0.0625,0.031 -0.0625,0.031 -0.0313,0.031 -0.0625,0 0,0.031 -0.0625,0.031 -0.0937,0.063 -0.0313,0.031 -0.0625,0.031 -0.0937,0.1875 0,0.2187 0.125,0.1563 0.21875,0.063 0.1875,-0.063 0.0313,0 0.0313,-0.063 0.0625,-0.031 0.0313,-0.031 0.0313,0 0.0313,0 0.0313,-0.031 0.0313,0 0,-0.031 0.0625,0 0.0625,-0.031 0.0313,0 0.0313,0 0.0313,0 0.0313,0 0.0625,0 0.0313,0 0.0625,0.031 0.0313,0 0.0625,0.031 0.0625,0.031 0.0313,0 0.0313,0.031 0.21875,0.063 0.1875,-0.063 0.125,-0.1875 0,-0.2187 -0.125,-0.1563 0,-0.031 -0.0943,-0.031 -0.0313,-0.031 -0.0937,-0.031 0,-0.031 -0.0937,-0.031 -0.0313,0 -0.0937,-0.031 -0.0313,0 -0.0625,-0.031 -0.0313,0 -0.0937,-0.031 -0.0313,0 -0.0625,0 -0.0313,0 -0.0937,0 -0.0313,0 z m 0.90625,0.8437 -0.0625,0.2188 0.0625,0.1875 0,0.031 0.0625,0.063 0.0625,0.125 0.0313,0 0.0625,0.125 0.0625,0.125 0.0313,0 0.0625,0.125 0.0625,0.125 0.0937,0.125 0.0625,0.125 0,0.031 0.0625,0.125 0.0313,0.063 0.15625,0.1562 0.1875,0.031 0.21875,-0.063 0.0937,-0.1875 0,-0.2188 0,-0.031 -0.0625,-0.063 -0.0625,-0.1563 -0.0625,-0.125 0,-0.031 -0.0937,-0.125 -0.0625,-0.1563 -0.0937,-0.125 -0.0937,-0.1562 -0.0937,-0.125 -0.0937,-0.125 -0.0625,-0.094 -0.15625,-0.125 -0.21875,0 -0.1875,0.125 z m -2.0625,0 -0.1875,0.125 0,0.031 -0.0937,0.094 -0.15625,0.25 0,0.031 -0.15625,0.25 -0.0313,0 -0.15625,0.2812 -0.125,0.2813 -0.0313,0 -0.0313,0.063 -0.0313,0.2187 0.0937,0.1875 0.21875,0.125 0.1875,-0.031 0.1875,-0.1563 0.0313,-0.063 0.125,-0.2812 0.15625,-0.25 0.15625,-0.25 0.15625,-0.25 0.0625,-0.094 0.0625,-0.2187 -0.0625,-0.1875 -0.15625,-0.125 -0.21875,-0.031 z m -1.6875,0.7813 -0.21875,0.063 -0.15625,0.1875 -0.0313,0.063 0,0.031 -0.15625,0.5625 -0.125,0.5625 -0.0937,0.4063 0.0313,0.2187 0.125,0.1875 0.21875,0.063 0.21875,-0.063 0.15625,-0.1562 0.0313,-0.094 0.0937,-0.375 0.125,-0.5625 0.125,-0.5312 0.0313,-0.063 -0.0313,-0.2188 -0.125,-0.1875 -0.21875,-0.094 z m -8.3125001,0.9687 -0.21875,0.031 -0.15625,0.1562 0,0.031 -0.0313,0.094 -0.0937,0.25 0,0.031 -0.0937,0.2187 -0.0937,0.2188 -0.0625,0.1875 -0.0625,0.2812 -0.0313,0.094 0,0.2187 0.125,0.1563 0.21875,0.063 0.21875,-0.063 0.125,-0.1563 0,-0.031 0.0313,-0.094 0.0625,-0.25 0.0625,-0.1875 0.0625,-0.1875 0.0937,-0.2187 0,-0.031 0.0937,-0.2187 0,-0.031 0.0313,-0.094 0.0313,-0.2188 -0.125,-0.1875 -0.1875,-0.063 z m 13.3437501,0 -0.21875,0.063 -0.125,0.1875 0.0313,0.2188 0.0313,0.094 0,0.031 0.0937,0.2187 0,0.031 0.0937,0.2187 0.0625,0.1875 0.0625,0.1875 0.0937,0.25 0,0.094 0.125,0.1875 0.21875,0.063 0.1875,-0.031 0.15625,-0.1875 0,-0.2187 -0.0313,-0.094 -0.0625,-0.2812 -0.0625,-0.1875 -0.0937,-0.2188 -0.0625,-0.2187 -0.0313,-0.031 -0.0937,-0.25 -0.0313,-0.094 -0.125,-0.1875 -0.21875,-0.031 z m -4.25,0.125 -0.1875,0.031 -0.15625,0.1562 -0.0313,0 -0.0625,0.1563 0,0.031 -0.125,0.2813 -0.125,0.3125 -0.125,0.3125 -0.0937,0.25 0,0.2187 0.0937,0.1875 0.21875,0.063 0.1875,-0.031 0.15625,-0.1563 0,-0.031 0.0937,-0.25 0.125,-0.2813 0,-0.031 0.125,-0.2813 0.125,-0.2812 0.0625,-0.1563 0.0313,-0.2187 -0.0937,-0.1875 -0.21875,-0.094 z m -1.78125,3.5625 0.15625,0.031 0.0625,0 0,0.063 -0.21875,-0.063 0,-0.031 z m -0.6875,0.9063 0.1875,0.063 0,0.1562 -0.0313,0.2813 0,0.094 -0.0937,0 0,-0.094 -0.0313,-0.2813 -0.0313,-0.2187 z"
       id="path121-4" />
  </g>
</svg>
