<?xml version="1.0" encoding="UTF-8" standalone="no"?>
<!-- Created with Inkscape (http://www.inkscape.org/) -->

<svg
   xmlns:dc="http://purl.org/dc/elements/1.1/"
   xmlns:cc="http://creativecommons.org/ns#"
   xmlns:rdf="http://www.w3.org/1999/02/22-rdf-syntax-ns#"
   xmlns:svg="http://www.w3.org/2000/svg"
   xmlns="http://www.w3.org/2000/svg"
   xmlns:sodipodi="http://sodipodi.sourceforge.net/DTD/sodipodi-0.dtd"
   xmlns:inkscape="http://www.inkscape.org/namespaces/inkscape"
   width="30"
   height="30"
   id="svg2"
   sodipodi:version="0.32"
   inkscape:version="0.48.4 r9939"
   sodipodi:docname="male.svg"
   inkscape:output_extension="org.inkscape.output.svg.inkscape"
   version="1.1">
  <defs
     id="defs4" />
  <sodipodi:namedview
     id="base"
     pagecolor="#ffffff"
     bordercolor="#666666"
     borderopacity="1.0"
     inkscape:pageopacity="0.0"
     inkscape:pageshadow="2"
     inkscape:zoom="10.276087"
     inkscape:cx="15.344828"
     inkscape:cy="14.482759"
     inkscape:document-units="px"
     inkscape:current-layer="layer1"
     inkscape:window-width="656"
     inkscape:window-height="1029"
     inkscape:window-x="0"
     inkscape:window-y="19"
     showgrid="false"
     inkscape:window-maximized="0" />
  <metadata
     id="metadata7">
    <rdf:RDF>
      <cc:Work
         rdf:about="">
        <dc:format>image/svg+xml</dc:format>
        <dc:type
           rdf:resource="http://purl.org/dc/dcmitype/StillImage" />
        <dc:title></dc:title>
      </cc:Work>
    </rdf:RDF>
  </metadata>
  <g
     inkscape:label="Capa 1"
     inkscape:groupmode="layer"
     id="layer1"
     transform="translate(0,-1022.3622)">
    <path
       sodipodi:type="arc"
       style="color:#000000;fill:#1a1a1a;stroke:#d4d4d4;stroke-width:1.02777779;stroke-opacity:1;marker:none;visibility:visible;display:inline;overflow:visible;enable-background:accumulate"
       id="path16617-6-6"
       sodipodi:cx="15.16226"
       sodipodi:cy="16.56851"
       sodipodi:rx="14.008413"
       sodipodi:ry="14.008413"
       d="m 29.170673,16.56851 a 14.008413,14.008413 0 1 1 -28.0168263,0 14.008413,14.008413 0 1 1 28.0168263,0 z"
       transform="matrix(0.97297297,0,0,0.97297297,330.50795,953.63241)" />
    <path
       style="fill:#1a1a1a;stroke:#d4d4d4;stroke-width:1px;stroke-linecap:butt;stroke-linejoin:miter;stroke-opacity:1"
       d="m 345.29648,957.89011 0,11.863 0,0"
       id="path16623-6-2"
       inkscape:connector-curvature="0"
       inkscape:transform-center-y="-5.9314904" />
    <path
       style="fill:#1a1a1a;stroke:#d4d4d4;stroke-width:1px;stroke-linecap:butt;stroke-linejoin:miter;stroke-opacity:1"
       d="m 357.15947,969.75311 -1.70877,0 0,0"
       id="path16623-4-2-0"
       inkscape:connector-curvature="0"
       inkscape:transform-center-x="-0.854382" />
    <path
       style="fill:#1a1a1a;stroke:#d4d4d4;stroke-width:0.99999994px;stroke-linecap:butt;stroke-linejoin:miter;stroke-opacity:1"
       d="m 345.29648,981.61611 0,-2.0181 0,0"
       id="path16623-4-3-9-0"
       inkscape:connector-curvature="0"
       inkscape:transform-center-y="1.0091015" />
    <path
       style="fill:#1a1a1a;stroke:#d4d4d4;stroke-width:1px;stroke-linecap:butt;stroke-linejoin:miter;stroke-opacity:1"
       d="m 333.43348,969.75311 11.863,0 0,0"
       id="path16623-4-3-4-1-0"
       inkscape:connector-curvature="0"
       inkscape:transform-center-x="5.9315" />
    <path
       inkscape:connector-curvature="0"
       sodipodi:nodetypes="cccccccccccccc"
       id="path9518-0-7"
       d="m 14.999994,1025.9915 -11.2422196,9.9235 2.2484301,0 0,12.8177 6.7453475,0 0,-7.5644 4.651059,0 1.3e-5,7.5644 6.591159,0 0,-12.8177 2.248444,0 -11.242237,-9.9235 0,0 0,0 z"
       style="font-size:12px;fill:none;stroke:none" />
    <path
       style="color:#000000;fill:#1a1a1a;fill-opacity:1;fill-rule:nonzero;stroke:none;stroke-width:2;marker:none;visibility:visible;display:inline;overflow:visible;enable-background:accumulate"
       d="m 19.059265,1024.608 0,1.7792 1.45331,0 -3.88386,3.8838 c -0.0971,-0.074 -0.20053,-0.1333 -0.30068,-0.2005 -0.16928,-0.1134 -0.34916,-0.2053 -0.5262,-0.3006 -0.16411,-0.088 -0.33149,-0.1778 -0.50115,-0.2507 -0.0169,-0.012 -0.0332,-0.017 -0.0501,-0.024 -0.0417,-0.017 -0.0831,-0.034 -0.12528,-0.051 -0.34168,-0.1345 -0.69648,-0.2534 -1.0524,-0.3258 -0.008,0 -0.0169,0 -0.0251,0 -0.0579,-0.012 -0.11723,-0.015 -0.1754,-0.025 -0.12509,-0.022 -0.24834,-0.036 -0.37586,-0.051 -0.18391,-0.02 -0.36649,-0.021 -0.55126,-0.025 -0.0505,0 -0.0996,-0.025 -0.15034,-0.025 -0.10926,0 -0.21787,0.02 -0.32574,0.025 -0.0247,0 -0.0505,0 -0.0752,0 -0.18449,0.012 -0.36819,0.046 -0.55126,0.075 -0.18784,0.028 -0.36929,0.056 -0.55126,0.1007 -0.18657,0.046 -0.37166,0.089 -0.55125,0.1503 -0.92423,0.3167 -1.73232,0.8515 -2.40549,1.5284 -0.58855,0.592 -1.06075,1.2918 -1.37815,2.0798 -0.2175,0.5402 -0.3901,1.1262 -0.45102,1.7289 -0.002,0.016 0.002,0.034 0,0.051 -0.0182,0.1961 -0.0251,0.3752 -0.0251,0.5763 0,0.2 0.007,0.4061 0.0251,0.6013 10e-4,0.016 -0.002,0.034 0,0.051 0.0178,0.1781 0.043,0.3526 0.0752,0.5261 0.0339,0.1897 0.0739,0.3649 0.12528,0.5512 0.009,0.035 0.0151,0.067 0.0251,0.1007 0.0978,0.3328 0.24702,0.6608 0.40092,0.9772 0.027,0.056 0.0464,0.1206 0.0752,0.1752 0.0563,0.1065 0.11327,0.1979 0.1754,0.3008 0.0989,0.1649 0.21035,0.3187 0.32574,0.476 0.1038,0.1416 0.2086,0.2915 0.32574,0.426 0.0956,0.11 0.19625,0.2213 0.30069,0.3258 0.0286,0.029 0.071,0.047 0.10023,0.075 0.12618,0.1213 0.2425,0.2421 0.37586,0.3508 0.14897,0.1205 0.31632,0.2443 0.47608,0.3508 0.01,0.012 0.0152,0.019 0.0251,0.025 0.14525,0.096 0.29766,0.1669 0.45103,0.2506 0.16708,0.091 0.3281,0.1751 0.50114,0.2506 0.17484,0.076 0.34647,0.1408 0.5262,0.2004 0.18023,0.059 0.3673,0.1076 0.55126,0.1505 0.19107,0.045 0.38254,0.098 0.57631,0.1252 l 0,3.3827 -3.63329,0 0,1.754 3.63329,0 0,3.3827 1.754,0 0,-3.3827 3.63329,0 0,-1.754 -3.63329,0 0,-3.3827 c 0.19377,-0.028 0.38525,-0.08 0.57632,-0.1252 0.18395,-0.044 0.37103,-0.09 0.55125,-0.1505 0.17696,-0.059 0.35399,-0.125 0.5262,-0.2004 0.14449,-0.063 0.28741,-0.1273 0.42598,-0.2005 0.0273,-0.014 0.048,-0.036 0.0752,-0.051 0.16355,-0.089 0.32178,-0.1728 0.47608,-0.2757 0.29781,-0.1994 0.58404,-0.4466 0.85194,-0.7017 0.0375,-0.036 0.0887,-0.064 0.12529,-0.1006 0.0986,-0.098 0.18486,-0.1974 0.27563,-0.3007 0.11887,-0.1352 0.22031,-0.2835 0.32574,-0.4259 0.11632,-0.157 0.22579,-0.3113 0.32575,-0.4761 0.0933,-0.1537 0.17153,-0.3167 0.25057,-0.4761 0.17415,-0.3513 0.32115,-0.7059 0.42597,-1.0775 0.0507,-0.1795 0.0908,-0.3687 0.12528,-0.5512 0.0361,-0.1911 0.0569,-0.3832 0.0752,-0.5763 0.0389,-0.4107 0.0416,-0.8176 0,-1.2278 -0.002,-0.016 0.002,-0.035 0,-0.051 -0.0221,-0.2024 -0.0585,-0.4013 -0.10022,-0.6014 -0.0428,-0.2051 -0.0869,-0.4004 -0.15034,-0.6013 -0.0447,-0.1444 -0.0957,-0.2864 -0.15034,-0.4259 -0.021,-0.053 -0.0527,-0.097 -0.0752,-0.1504 -0.0502,-0.1191 -0.0932,-0.2356 -0.15035,-0.3507 -0.06,-0.1196 -0.13236,-0.2346 -0.20045,-0.3509 -0.0276,-0.048 -0.0464,-0.1042 -0.0752,-0.1503 -0.0475,-0.076 -0.0992,-0.1509 -0.15035,-0.2255 -0.0586,-0.087 -0.11268,-0.1669 -0.1754,-0.2506 l 3.90892,-3.9089 0,1.4532 1.754,0 0,-4.4351 -0.0251,0.025 -1.754,-0.025 -2.68112,-0.025 z m -6.46475,5.9888 c 0.54154,-0.025 1.08055,0.041 1.60366,0.2004 0.0255,0.012 0.0497,0.016 0.0752,0.025 0.12276,0.041 0.25779,0.075 0.37586,0.1253 0.0101,0.012 0.0151,0.021 0.0251,0.024 0.13056,0.057 0.25171,0.1076 0.37586,0.1755 0.13836,0.074 0.26887,0.1621 0.40091,0.2505 0.12283,0.082 0.2344,0.1807 0.3508,0.2757 l 0.65149,0.6264 0.0251,0.051 c 0.0608,0.075 0.11979,0.1482 0.1754,0.2255 0.0237,0.034 0.0523,0.066 0.0752,0.1007 0.007,0.012 0.0186,0.015 0.0251,0.024 0.0775,0.1168 0.13333,0.2272 0.20045,0.3509 0.006,0.012 0.0196,0.015 0.0251,0.024 0.0668,0.1255 0.11979,0.2694 0.1754,0.4011 0.0569,0.1329 0.10612,0.2642 0.15034,0.4008 0.0512,0.158 0.0911,0.3146 0.12529,0.4761 0.009,0.042 0.0173,0.083 0.0251,0.1252 0.0202,0.1146 0.0382,0.2337 0.0501,0.3508 0.005,0.051 -0.003,0.1 0,0.1504 0.0106,0.142 0.0272,0.2837 0.0251,0.426 -0.002,0.1064 -0.0161,0.2216 -0.0251,0.3257 -0.005,0.059 -0.018,0.117 -0.0251,0.1755 -0.0307,0.2472 -0.058,0.4928 -0.12528,0.7265 -0.009,0.032 -0.0153,0.07 -0.0251,0.1007 -0.019,0.061 -0.0536,0.1146 -0.0752,0.1755 -0.0823,0.231 -0.18518,0.4637 -0.30069,0.6765 -0.0731,0.1347 -0.13839,0.2724 -0.22551,0.4009 -0.0818,0.1202 -0.18336,0.239 -0.27563,0.3508 -0.0918,0.1111 -0.19716,0.2215 -0.30069,0.3258 -0.31642,0.3164 -0.68189,0.61 -1.07746,0.8269 -0.006,0 -0.019,0 -0.0251,0 -0.13562,0.073 -0.26022,0.1413 -0.40091,0.2004 -0.0165,0.012 -0.0335,0.018 -0.0501,0.024 -0.12588,0.051 -0.27194,0.086 -0.40091,0.1253 -0.0174,0.012 -0.0326,0.02 -0.0501,0.025 -0.42978,0.1279 -0.88131,0.1753 -1.35309,0.1753 -0.32734,0 -0.64367,-0.012 -0.95217,-0.075 -0.12818,-0.027 -0.25171,-0.064 -0.37586,-0.1007 -0.0244,-0.011 -0.0509,-0.017 -0.0752,-0.024 -0.12364,-0.038 -0.25681,-0.078 -0.37586,-0.1253 -0.0249,-0.012 -0.0504,-0.014 -0.0752,-0.024 -0.11689,-0.05 -0.21389,-0.1171 -0.32574,-0.1755 -0.15317,-0.081 -0.30556,-0.1519 -0.45103,-0.2505 -0.0192,-0.013 -0.0311,-0.037 -0.0501,-0.051 -0.23108,-0.1587 -0.45252,-0.3302 -0.65148,-0.5263 -0.008,-0.012 -0.0169,-0.017 -0.0251,-0.025 -0.11172,-0.1111 -0.20055,-0.2285 -0.30069,-0.3508 -0.0969,-0.1187 -0.19199,-0.2254 -0.27563,-0.3508 -0.004,-0.012 0.004,-0.02 0,-0.025 -0.0765,-0.1159 -0.16021,-0.2302 -0.22551,-0.3508 -0.009,-0.016 -0.0166,-0.034 -0.0251,-0.051 -0.0637,-0.1211 -0.1229,-0.2507 -0.1754,-0.3758 -0.007,-0.017 -0.018,-0.032 -0.0251,-0.051 -0.0102,-0.024 -0.0154,-0.05 -0.0251,-0.075 -0.0456,-0.1181 -0.0895,-0.23 -0.12529,-0.3507 -0.0411,-0.1387 -0.0721,-0.2847 -0.10023,-0.4259 -0.002,-0.012 0.002,-0.017 0,-0.025 -0.0274,-0.1412 -0.0607,-0.2833 -0.0752,-0.426 -8e-4,-0.012 7.7e-4,-0.016 0,-0.024 -0.0145,-0.1509 -0.0251,-0.2996 -0.0251,-0.4511 -4e-5,-0.012 0,-0.016 0,-0.024 8.5e-4,-0.1595 0.008,-0.3175 0.0251,-0.4763 0.0137,-0.1347 0.0505,-0.2696 0.0752,-0.4008 0.0579,-0.2984 0.13484,-0.592 0.25057,-0.8769 0.01,-0.024 0.015,-0.051 0.0251,-0.075 0.0498,-0.1179 0.1165,-0.2378 0.1754,-0.3507 0.217,-0.4124 0.50475,-0.8054 0.85195,-1.1526 0.21229,-0.2123 0.43753,-0.4129 0.67654,-0.5763 0.006,0 0.0194,0 0.0251,0 0.73448,-0.4979 1.57856,-0.7624 2.43054,-0.8018 z"
       id="path19839-4-2-4-8"
       inkscape:connector-curvature="0" />
  </g>
</svg>
