<?xml version="1.0" encoding="UTF-8" standalone="no"?>
<!-- Created with Inkscape (http://www.inkscape.org/) -->

<svg
   xmlns:dc="http://purl.org/dc/elements/1.1/"
   xmlns:cc="http://creativecommons.org/ns#"
   xmlns:rdf="http://www.w3.org/1999/02/22-rdf-syntax-ns#"
   xmlns:svg="http://www.w3.org/2000/svg"
   xmlns="http://www.w3.org/2000/svg"
   xmlns:sodipodi="http://sodipodi.sourceforge.net/DTD/sodipodi-0.dtd"
   xmlns:inkscape="http://www.inkscape.org/namespaces/inkscape"
   width="30"
   height="30"
   id="svg2"
   sodipodi:version="0.32"
   inkscape:version="0.48.4 r9939"
   sodipodi:docname="hammer.svg"
   inkscape:output_extension="org.inkscape.output.svg.inkscape"
   version="1.1">
  <defs
     id="defs4">
    <clipPath
       clipPathUnits="userSpaceOnUse"
       id="clipPath17670-8">
      <path
         inkscape:connector-curvature="0"
         d="m 0,288.75 201.25,0 L 201.25,0 0,0 0,288.75 z"
         id="path17672-4" />
    </clipPath>
    <clipPath
       clipPathUnits="userSpaceOnUse"
       id="clipPath18098-9">
      <path
         inkscape:connector-curvature="0"
         d="m 0,288.75 201.25,0 L 201.25,0 0,0 0,288.75 z"
         id="path18100-2" />
    </clipPath>
    <clipPath
       clipPathUnits="userSpaceOnUse"
       id="clipPath17356-3">
      <path
         inkscape:connector-curvature="0"
         d="m 0,288.75 201.25,0 L 201.25,0 0,0 0,288.75 z"
         id="path17358-6" />
    </clipPath>
    <clipPath
       clipPathUnits="userSpaceOnUse"
       id="clipPath18256-8">
      <path
         inkscape:connector-curvature="0"
         d="m 0,288.75 201.25,0 L 201.25,0 0,0 0,288.75 z"
         id="path18258-5" />
    </clipPath>
    <clipPath
       clipPathUnits="userSpaceOnUse"
       id="clipPath17038-7">
      <path
         inkscape:connector-curvature="0"
         d="m 0,288.75 201.25,0 L 201.25,0 0,0 0,288.75 z"
         id="path17040-4" />
    </clipPath>
    <clipPath
       clipPathUnits="userSpaceOnUse"
       id="clipPath18818-4">
      <path
         inkscape:connector-curvature="0"
         d="m 0,288.75 201.25,0 L 201.25,0 0,0 0,288.75 z"
         id="path18820-5" />
    </clipPath>
    <clipPath
       clipPathUnits="userSpaceOnUse"
       id="clipPath18850-8">
      <path
         inkscape:connector-curvature="0"
         d="m 0,288.75 201.25,0 L 201.25,0 0,0 0,288.75 z"
         id="path18852-1" />
    </clipPath>
    <clipPath
       clipPathUnits="userSpaceOnUse"
       id="clipPath18840-2">
      <path
         inkscape:connector-curvature="0"
         d="m 0,288.75 201.25,0 L 201.25,0 0,0 0,288.75 z"
         id="path18842-2" />
    </clipPath>
    <clipPath
       clipPathUnits="userSpaceOnUse"
       id="clipPath18828-1">
      <path
         inkscape:connector-curvature="0"
         d="m 0,288.75 201.25,0 L 201.25,0 0,0 0,288.75 z"
         id="path18830-8" />
    </clipPath>
    <clipPath
       clipPathUnits="userSpaceOnUse"
       id="clipPath17450-4">
      <path
         inkscape:connector-curvature="0"
         d="m 0,288.75 201.25,0 L 201.25,0 0,0 0,288.75 z"
         id="path17452-2" />
    </clipPath>
    <clipPath
       clipPathUnits="userSpaceOnUse"
       id="clipPath18356-2">
      <path
         inkscape:connector-curvature="0"
         d="m 0,288.75 201.25,0 L 201.25,0 0,0 0,288.75 z"
         id="path18358-6" />
    </clipPath>
    <clipPath
       clipPathUnits="userSpaceOnUse"
       id="clipPath18344-1">
      <path
         inkscape:connector-curvature="0"
         d="m 0,288.75 201.25,0 L 201.25,0 0,0 0,288.75 z"
         id="path18346-5" />
    </clipPath>
    <clipPath
       clipPathUnits="userSpaceOnUse"
       id="clipPath17196-7">
      <path
         inkscape:connector-curvature="0"
         d="m 0,288.75 201.25,0 L 201.25,0 0,0 0,288.75 z"
         id="path17198-7" />
    </clipPath>
    <clipPath
       clipPathUnits="userSpaceOnUse"
       id="clipPath18206-3">
      <path
         inkscape:connector-curvature="0"
         d="m 0,288.75 201.25,0 L 201.25,0 0,0 0,288.75 z"
         id="path18208-2" />
    </clipPath>
    <clipPath
       clipPathUnits="userSpaceOnUse"
       id="clipPath18876-0">
      <path
         inkscape:connector-curvature="0"
         d="m 0,288.75 201.25,0 L 201.25,0 0,0 0,288.75 z"
         id="path18878-2" />
    </clipPath>
    <clipPath
       clipPathUnits="userSpaceOnUse"
       id="clipPath19100-4">
      <path
         inkscape:connector-curvature="0"
         d="m 0,288.75 201.25,0 L 201.25,0 0,0 0,288.75 z"
         id="path19102-3" />
    </clipPath>
    <clipPath
       clipPathUnits="userSpaceOnUse"
       id="clipPath19144-3">
      <path
         inkscape:connector-curvature="0"
         d="m 0,288.75 201.25,0 L 201.25,0 0,0 0,288.75 z"
         id="path19146-9" />
    </clipPath>
    <clipPath
       clipPathUnits="userSpaceOnUse"
       id="clipPath16862-5">
      <path
         inkscape:connector-curvature="0"
         d="m 0,288.75 201.25,0 L 201.25,0 0,0 0,288.75 z"
         id="path16864-3" />
    </clipPath>
    <clipPath
       clipPathUnits="userSpaceOnUse"
       id="clipPath18228-0">
      <path
         inkscape:connector-curvature="0"
         d="m 0,288.75 201.25,0 L 201.25,0 0,0 0,288.75 z"
         id="path18230-3" />
    </clipPath>
    <clipPath
       clipPathUnits="userSpaceOnUse"
       id="clipPath17296-6">
      <path
         inkscape:connector-curvature="0"
         d="m 0,288.75 201.25,0 L 201.25,0 0,0 0,288.75 z"
         id="path17298-6" />
    </clipPath>
    <clipPath
       clipPathUnits="userSpaceOnUse"
       id="clipPath18086-6">
      <path
         inkscape:connector-curvature="0"
         d="m 0,288.75 201.25,0 L 201.25,0 0,0 0,288.75 z"
         id="path18088-1" />
    </clipPath>
    <clipPath
       clipPathUnits="userSpaceOnUse"
       id="clipPath17686-1">
      <path
         inkscape:connector-curvature="0"
         d="m 0,288.75 201.25,0 L 201.25,0 0,0 0,288.75 z"
         id="path17688-5" />
    </clipPath>
    <clipPath
       clipPathUnits="userSpaceOnUse"
       id="clipPath17698-8">
      <path
         inkscape:connector-curvature="0"
         d="m 0,288.75 201.25,0 L 201.25,0 0,0 0,288.75 z"
         id="path17700-0" />
    </clipPath>
    <clipPath
       clipPathUnits="userSpaceOnUse"
       id="clipPath17916-1">
      <path
         inkscape:connector-curvature="0"
         d="m 0,288.75 201.25,0 L 201.25,0 0,0 0,288.75 z"
         id="path17918-3" />
    </clipPath>
    <clipPath
       clipPathUnits="userSpaceOnUse"
       id="clipPath17244-5">
      <path
         inkscape:connector-curvature="0"
         d="m 0,288.75 201.25,0 L 201.25,0 0,0 0,288.75 z"
         id="path17246-6" />
    </clipPath>
    <clipPath
       clipPathUnits="userSpaceOnUse"
       id="clipPath17956-8-7">
      <path
         inkscape:connector-curvature="0"
         d="m 0,288.75 201.25,0 L 201.25,0 0,0 0,288.75 z"
         id="path17958-2-9" />
    </clipPath>
    <clipPath
       clipPathUnits="userSpaceOnUse"
       id="clipPath17956-8">
      <path
         inkscape:connector-curvature="0"
         d="m 0,288.75 201.25,0 L 201.25,0 0,0 0,288.75 z"
         id="path17958-2" />
    </clipPath>
    <clipPath
       clipPathUnits="userSpaceOnUse"
       id="clipPath18046-2">
      <path
         inkscape:connector-curvature="0"
         d="m 0,288.75 201.25,0 L 201.25,0 0,0 0,288.75 z"
         id="path18048-4" />
    </clipPath>
    <clipPath
       clipPathUnits="userSpaceOnUse"
       id="clipPath18034-6">
      <path
         inkscape:connector-curvature="0"
         d="m 0,288.75 201.25,0 L 201.25,0 0,0 0,288.75 z"
         id="path18036-4" />
    </clipPath>
    <clipPath
       clipPathUnits="userSpaceOnUse"
       id="clipPath17462-9">
      <path
         inkscape:connector-curvature="0"
         d="m 0,288.75 201.25,0 L 201.25,0 0,0 0,288.75 z"
         id="path17464-1" />
    </clipPath>
    <clipPath
       clipPathUnits="userSpaceOnUse"
       id="clipPath17734-2">
      <path
         inkscape:connector-curvature="0"
         d="m 0,288.75 201.25,0 L 201.25,0 0,0 0,288.75 z"
         id="path17736-2" />
    </clipPath>
    <clipPath
       clipPathUnits="userSpaceOnUse"
       id="clipPath16892-4">
      <path
         inkscape:connector-curvature="0"
         d="m 0,288.75 201.25,0 L 201.25,0 0,0 0,288.75 z"
         id="path16894-5" />
    </clipPath>
  </defs>
  <sodipodi:namedview
     id="base"
     pagecolor="#ffffff"
     bordercolor="#666666"
     borderopacity="1.0"
     inkscape:pageopacity="0.0"
     inkscape:pageshadow="2"
     inkscape:zoom="10.2"
     inkscape:cx="15"
     inkscape:cy="15"
     inkscape:document-units="px"
     inkscape:current-layer="layer1"
     inkscape:window-width="656"
     inkscape:window-height="1029"
     inkscape:window-x="0"
     inkscape:window-y="19"
     showgrid="false"
     inkscape:window-maximized="0" />
  <metadata
     id="metadata7">
    <rdf:RDF>
      <cc:Work
         rdf:about="">
        <dc:format>image/svg+xml</dc:format>
        <dc:type
           rdf:resource="http://purl.org/dc/dcmitype/StillImage" />
        <dc:title></dc:title>
      </cc:Work>
    </rdf:RDF>
  </metadata>
  <g
     inkscape:label="Capa 1"
     inkscape:groupmode="layer"
     id="layer1"
     transform="translate(0,-1022.3622)">
    <path
       sodipodi:type="arc"
       style="color:#000000;fill:#1a1a1a;stroke:#d4d4d4;stroke-width:1.02777779;stroke-opacity:1;marker:none;visibility:visible;display:inline;overflow:visible;enable-background:accumulate"
       id="path16617-6-6"
       sodipodi:cx="15.16226"
       sodipodi:cy="16.56851"
       sodipodi:rx="14.008413"
       sodipodi:ry="14.008413"
       d="m 29.170673,16.56851 a 14.008413,14.008413 0 1 1 -28.0168263,0 14.008413,14.008413 0 1 1 28.0168263,0 z"
       transform="matrix(0.97297297,0,0,0.97297297,330.50795,953.63241)" />
    <path
       style="fill:#1a1a1a;stroke:#d4d4d4;stroke-width:1px;stroke-linecap:butt;stroke-linejoin:miter;stroke-opacity:1"
       d="m 345.29648,957.89011 0,11.863 0,0"
       id="path16623-6-2"
       inkscape:connector-curvature="0"
       inkscape:transform-center-y="-5.9314904" />
    <path
       style="fill:#1a1a1a;stroke:#d4d4d4;stroke-width:1px;stroke-linecap:butt;stroke-linejoin:miter;stroke-opacity:1"
       d="m 357.15947,969.75311 -1.70877,0 0,0"
       id="path16623-4-2-0"
       inkscape:connector-curvature="0"
       inkscape:transform-center-x="-0.854382" />
    <path
       style="fill:#1a1a1a;stroke:#d4d4d4;stroke-width:0.99999994px;stroke-linecap:butt;stroke-linejoin:miter;stroke-opacity:1"
       d="m 345.29648,981.61611 0,-2.0181 0,0"
       id="path16623-4-3-9-0"
       inkscape:connector-curvature="0"
       inkscape:transform-center-y="1.0091015" />
    <path
       style="fill:#1a1a1a;stroke:#d4d4d4;stroke-width:1px;stroke-linecap:butt;stroke-linejoin:miter;stroke-opacity:1"
       d="m 333.43348,969.75311 11.863,0 0,0"
       id="path16623-4-3-4-1-0"
       inkscape:connector-curvature="0"
       inkscape:transform-center-x="5.9315" />
    <path
       inkscape:connector-curvature="0"
       sodipodi:nodetypes="cccccccccccccc"
       id="path9518-0-7"
       d="m 14.999994,1025.9915 -11.2422196,9.9235 2.2484301,0 0,12.8177 6.7453475,0 0,-7.5644 4.651059,0 1.3e-5,7.5644 6.591159,0 0,-12.8177 2.248444,0 -11.242237,-9.9235 0,0 0,0 z"
       style="font-size:12px;fill:none;stroke:none" />
    <path
       style="fill:#1a1a1a;fill-opacity:1"
       inkscape:connector-curvature="0"
       d="m 21.03877,1032.7556 c 0.42178,-0.2998 0.82634,-0.6333 1.19706,-1.0041 0.77725,-0.7772 1.29718,-1.7335 1.46392,-2.6928 0.18286,-1.0514 -0.0854,-2.0276 -0.736,-2.6783 -0.51891,-0.5188 -1.22188,-0.7931 -2.03291,-0.7931 -1.1549,0 -2.37165,0.5544 -3.33821,1.5209 -1.54686,1.5469 -2.44854,3.6821 -2.93371,5.2059 -0.35928,-1.5312 -1.07518,-3.5986 -2.46696,-4.9904 -0.74681,-0.7467 -1.70132,-1.1302 -2.60259,-1.1302 -0.73657,0 -1.43757,0.2561 -1.96067,0.7792 -1.1631399,1.1632 -1.0059799,3.2063 0.35104,4.5633 0.48381,0.4838 1.0494,0.8857 1.6456,1.2195 l -5.0499999,0 0,5.9571 1.4892399,0 0,10.4246 17.87084,0 0,-10.4247 1.48924,0 0,-5.9569 -4.38589,0 z m -2.26155,-4.4627 c 0.64512,-0.6451 1.45019,-1.0302 2.15358,-1.0302 0.24898,0 0.5982,0.053 0.84816,0.3024 0.60571,0.6057 0.26556,2.0084 -0.72786,3.0017 -1.02259,1.0226 -2.39813,1.7259 -3.59353,2.1888 l -1.1791,0 c 0.43206,-1.3392 1.21135,-3.1753 2.49875,-4.4627 z m -10.24763,0.7603 c -0.0163,-0.2123 -0.001,-0.6108 0.2838,-0.8957 0.23837,-0.2384 0.55353,-0.2885 0.77598,-0.2885 l 0,0 c 0.49466,0 1.01148,0.2331 1.41785,0.6394 0.78818,0.7882 1.43725,2.0424 1.87709,3.6272 0.0118,0.043 0.0234,0.085 0.0349,0.1276 -0.0423,-0.011 -0.0848,-0.022 -0.12766,-0.034 -1.58473,-0.4399 -2.8389,-1.0889 -3.62708,-1.877 -0.3683,-0.3684 -0.59965,-0.8415 -0.63479,-1.2981 z m 4.98117,18.5947 -5.95694,0 0,-9.68 5.95694,0 0,9.68 z m 0,-10.4246 -7.4461799,0 0,-2.9785 7.4461799,0 0,2.9785 z m 8.93543,10.4246 -5.95695,0 0,-9.68 5.95695,0 0,9.68 z m 1.48923,-10.4246 -7.44618,0 0,-2.9785 7.44618,0 0,2.9785 z"
       id="path63308-4" />
  </g>
</svg>
