<?xml version="1.0" encoding="UTF-8" standalone="no"?>
<!-- Created with Inkscape (http://www.inkscape.org/) -->

<svg
   xmlns:dc="http://purl.org/dc/elements/1.1/"
   xmlns:cc="http://creativecommons.org/ns#"
   xmlns:rdf="http://www.w3.org/1999/02/22-rdf-syntax-ns#"
   xmlns:svg="http://www.w3.org/2000/svg"
   xmlns="http://www.w3.org/2000/svg"
   xmlns:sodipodi="http://sodipodi.sourceforge.net/DTD/sodipodi-0.dtd"
   xmlns:inkscape="http://www.inkscape.org/namespaces/inkscape"
   width="30"
   height="30"
   id="svg2"
   sodipodi:version="0.32"
   inkscape:version="0.48.4 r9939"
   sodipodi:docname="bowling.svg"
   inkscape:output_extension="org.inkscape.output.svg.inkscape"
   version="1.1">
  <defs
     id="defs4" />
  <sodipodi:namedview
     id="base"
     pagecolor="#ffffff"
     bordercolor="#666666"
     borderopacity="1.0"
     inkscape:pageopacity="0.0"
     inkscape:pageshadow="2"
     inkscape:zoom="10.276087"
     inkscape:cx="15.344828"
     inkscape:cy="14.482759"
     inkscape:document-units="px"
     inkscape:current-layer="layer1"
     inkscape:window-width="656"
     inkscape:window-height="1029"
     inkscape:window-x="0"
     inkscape:window-y="19"
     showgrid="false"
     inkscape:window-maximized="0" />
  <metadata
     id="metadata7">
    <rdf:RDF>
      <cc:Work
         rdf:about="">
        <dc:format>image/svg+xml</dc:format>
        <dc:type
           rdf:resource="http://purl.org/dc/dcmitype/StillImage" />
        <dc:title></dc:title>
      </cc:Work>
    </rdf:RDF>
  </metadata>
  <g
     inkscape:label="Capa 1"
     inkscape:groupmode="layer"
     id="layer1"
     transform="translate(0,-1022.3622)">
    <path
       sodipodi:type="arc"
       style="color:#000000;fill:#1a1a1a;stroke:#d4d4d4;stroke-width:1.02777779;stroke-opacity:1;marker:none;visibility:visible;display:inline;overflow:visible;enable-background:accumulate"
       id="path16617-6-6"
       sodipodi:cx="15.16226"
       sodipodi:cy="16.56851"
       sodipodi:rx="14.008413"
       sodipodi:ry="14.008413"
       d="m 29.170673,16.56851 a 14.008413,14.008413 0 1 1 -28.0168263,0 14.008413,14.008413 0 1 1 28.0168263,0 z"
       transform="matrix(0.97297297,0,0,0.97297297,330.50795,953.63241)" />
    <path
       style="fill:#1a1a1a;stroke:#d4d4d4;stroke-width:1px;stroke-linecap:butt;stroke-linejoin:miter;stroke-opacity:1"
       d="m 345.29648,957.89011 0,11.863 0,0"
       id="path16623-6-2"
       inkscape:connector-curvature="0"
       inkscape:transform-center-y="-5.9314904" />
    <path
       style="fill:#1a1a1a;stroke:#d4d4d4;stroke-width:1px;stroke-linecap:butt;stroke-linejoin:miter;stroke-opacity:1"
       d="m 357.15947,969.75311 -1.70877,0 0,0"
       id="path16623-4-2-0"
       inkscape:connector-curvature="0"
       inkscape:transform-center-x="-0.854382" />
    <path
       style="fill:#1a1a1a;stroke:#d4d4d4;stroke-width:0.99999994px;stroke-linecap:butt;stroke-linejoin:miter;stroke-opacity:1"
       d="m 345.29648,981.61611 0,-2.0181 0,0"
       id="path16623-4-3-9-0"
       inkscape:connector-curvature="0"
       inkscape:transform-center-y="1.0091015" />
    <path
       style="fill:#1a1a1a;stroke:#d4d4d4;stroke-width:1px;stroke-linecap:butt;stroke-linejoin:miter;stroke-opacity:1"
       d="m 333.43348,969.75311 11.863,0 0,0"
       id="path16623-4-3-4-1-0"
       inkscape:connector-curvature="0"
       inkscape:transform-center-x="5.9315" />
    <path
       inkscape:connector-curvature="0"
       sodipodi:nodetypes="cccccccccccccc"
       id="path9518-0-7"
       d="m 14.999994,1025.9915 -11.2422196,9.9235 2.2484301,0 0,12.8177 6.7453475,0 0,-7.5644 4.651059,0 1.3e-5,7.5644 6.591159,0 0,-12.8177 2.248444,0 -11.242237,-9.9235 0,0 0,0 z"
       style="font-size:12px;fill:none;stroke:none" />
    <path
       style="fill:#1a1a1a;fill-opacity:1;fill-rule:evenodd;stroke:none"
       d="m 24.196016,1026.2906 c -0.12328,0 -0.12328,0 -0.14794,0 -0.34519,0.4192 -0.24656,0.3082 -0.43149,0.5301 -0.16026,0.1849 -0.29587,0.3205 -0.3945,0.4315 l 0,-0.1233 c -0.12328,0 -0.12328,0 -0.12328,0 0.12328,-0.1233 0.12328,-0.1726 0.12328,-0.2465 0,0 -0.14794,-0.1357 -0.19725,-0.148 -0.12328,0 -0.12328,0 -0.14794,0.1233 0,0 0,0 0,0 -0.12328,0.1233 -0.12328,0.1233 -0.12328,0.1233 0,0 -0.12328,0.1233 0,0.1479 0,0.1233 0.12328,0.1233 0.14794,0.148 0,0.1232 0.13561,0 0.19725,-0.1233 0,0 -0.12328,0.1233 0,0.1233 l 0,0.1232 c 0,0 0,0 0.12328,0 -0.12328,0.1233 -0.33286,0.3945 -0.3945,0.4808 -0.12328,0 -0.19725,0.2343 -0.24657,0.2959 -0.16026,0.3082 -0.14793,0.4068 -0.19725,0.4808 0,0 -0.12328,0 -0.12328,0 l -6.21217,6.6461 c -1.01091,-0.8383 -1.68034,-1.4461 -2.45578,-1.3967 -0.27122,0 -0.54244,0.1232 -0.86297,0.2958 -1.311721,0.8877 -1.060231,1.779 -2.167301,2.6494 -1.3560995,1.255 -3.3347695,1.0109 -5.2012595,2.7923 -1.6988199,2.1932 -1.0109099,3.8291 0.19725,5.2493 1.19584,1.2711 1.77156,1.7667 2.88973,2.6494 2.1956495,1.6359 4.1336405,1.467 5.5859005,-0.1233 1.84923,-2.0354 0.98626,-3.9463 2.64933,-5.8756 0.53011,-0.5548 1.31295,-0.974 1.87758,-1.7334 0.73969,-1.4362 0.14794,-2.1291 -1.29939,-3.5641 l 5.92246,-6.8384 0,0 0.4808,-0.2466 c 0.12328,-0.1232 0.14794,-0.1602 0.23424,-0.2342 0,0 0.12328,0 0.12328,0 l 0,0.1233 c 0,0 0,0.1233 0,0.1479 0.12328,0.1233 0.12328,0.1233 0.14794,0.148 0.12328,0.1232 0.12328,0 0.14794,0 0,0 0,-0.1233 0,-0.1233 0.12328,0 0.12328,-0.1233 0.12328,-0.1849 0,0 -0.14794,-0.1357 -0.19725,-0.148 -0.12328,0 -0.14794,0.1233 -0.19725,0.1233 0,0 0.12328,0 0,0 l 0,-0.1233 c 0.13561,-0.1233 0.25889,-0.2589 0.38217,-0.3822 l 0.12328,0 c 0,0.1233 0,0.148 0,0.1973 0,0 0.12328,0 0.14794,0.1233 0.12328,0.1233 0.12328,0.1233 0.12328,0.1233 0,0 0.12328,-0.1233 0.12328,-0.1233 0,0 0.12329,-0.1233 0.12329,-0.148 0,-0.1232 0,-0.1232 0,-0.1232 l 0,0 c 0,0 0.12328,0 0.12328,-0.1233 0,0 -0.12328,-0.1233 -0.14794,-0.1356 0,0 -0.17259,0 -0.23424,0.1232 0,0 0,-0.1232 0,-0.1232 l -0.12328,0 c 0.12328,-0.1233 0.27122,-0.2219 0.3945,-0.3452 l 0.12329,0 c 0,0 0,0 0,0 -0.12329,0.1233 -0.1726,0.2219 -0.14794,0.2959 0.002,0 0,0 0,0 0,0.1232 0.12328,0.1232 0.14794,0.1479 0,0 0,0 0,0 0,0 0.12328,0 0.12328,0 0,0 0,-0.1233 0.12328,-0.1233 0,0 0.12328,-0.1233 0.14794,-0.1479 0,0 0.12328,-0.148 0,-0.185 0,-0.1232 -0.12328,-0.1356 -0.14794,-0.1479 -0.12328,-0.1233 -0.16027,0 -0.23424,0.1233 l -0.12328,-0.1233 c 0,0 0,0 0,0 0.16027,-0.1726 0.32054,-0.3575 0.4808,-0.5301 0.12328,-0.1233 0,-0.1233 -0.12328,-0.1479 l -1.06022,-0.9616 c 0,-0.1233 -0.12329,-0.1233 -0.14794,-0.1233 z m -1.39679,1.5891 c 0,0 0,-0.1233 0,-0.1233 l -0.12328,-0.1233 c 0,0 0,0 0,0 0,0 0,-0.1356 0,-0.1972 0,-0.1233 -0.12328,-0.1479 -0.14794,-0.1479 -0.12328,0 -0.12328,0.1232 -0.14793,0.1232 0,0 -0.12329,0 -0.12329,0 0,0.1233 -0.12328,0.1233 -0.12328,0.1233 0,0.1233 -0.12328,0.1233 0,0.148 0,0.1232 0.14794,0.1232 0.19725,0.1232 0,0 0.12328,0.1233 0.14794,0 l 0,0 c 0,0.1233 0.12328,0.1233 0.12328,0.1233 z m 0.81366,-1.0109 c 0,-0.1233 0.12329,-0.1233 0,-0.1233 l 0,0 c -0.12328,0 -0.12328,0 -0.12328,0 0,0 -0.002,0.1233 0,0.1233 l 0.12328,0 0,0 c 0.12329,0.1233 0.12329,0.1233 0.12329,0 z m -0.14793,-0.1233 c 0.12328,0 0.12328,-0.1233 0.12328,-0.1972 0,0 -10e-4,-0.1233 0,-0.1233 0,0 -0.12328,-0.1233 -0.14794,-0.148 -0.12328,-0.1232 -0.12328,0 -0.14794,0 -0.12328,0.1233 -0.12328,0.1233 -0.12328,0.1233 0,0 0,0 0,0 -0.002,0 0,0 0,0.1233 0,0 0,0 0,0.1233 0,0.1233 0.16027,0.1356 0.19725,0.1479 0,0 0.12328,0 0.14794,-0.1233 z m -9.53586,10.6429 c 0.36985,0 0.76435,0.1233 1.06023,0.3945 0.59175,0.5302 0.62873,1.4313 0.12328,2.0219 -0.53011,0.5917 -1.42761,0.641 -2.02306,0.1232 -0.60408,-0.5301 -0.67805,-1.4313 -0.14794,-2.0218 0.2589,-0.2959 0.64107,-0.4684 1.01091,-0.4808 z m -4.0929605,2.7443 c 0.1725995,0.1233 2.2178405,1.9935 3.3224505,2.9859 -0.13561,0.2465 -0.30821,0.4191 -0.53011,0.5794 l -0.43149,-0.3945 c -0.20958,-0.1356 -0.443811,-0.1479 -0.628741,-0.2959 l -1.54102,-1.3955 c -0.1356095,-0.1356 -0.2095795,-0.3329 -0.3328595,-0.5301 l -0.43149,-0.3822 c 0,-0.1233 0.44382,-0.5671 0.57943,-0.5794 z"
       id="path4325-7"
       inkscape:connector-curvature="0" />
  </g>
</svg>
