<?xml version="1.0" encoding="UTF-8" standalone="no"?>
<!-- Created with Inkscape (http://www.inkscape.org/) -->

<svg
   xmlns:dc="http://purl.org/dc/elements/1.1/"
   xmlns:cc="http://creativecommons.org/ns#"
   xmlns:rdf="http://www.w3.org/1999/02/22-rdf-syntax-ns#"
   xmlns:svg="http://www.w3.org/2000/svg"
   xmlns="http://www.w3.org/2000/svg"
   xmlns:sodipodi="http://sodipodi.sourceforge.net/DTD/sodipodi-0.dtd"
   xmlns:inkscape="http://www.inkscape.org/namespaces/inkscape"
   width="30"
   height="30"
   id="svg2"
   sodipodi:version="0.32"
   inkscape:version="0.48.4 r9939"
   sodipodi:docname="fish.svg"
   inkscape:output_extension="org.inkscape.output.svg.inkscape"
   version="1.1">
  <defs
     id="defs4" />
  <sodipodi:namedview
     id="base"
     pagecolor="#ffffff"
     bordercolor="#666666"
     borderopacity="1.0"
     inkscape:pageopacity="0.0"
     inkscape:pageshadow="2"
     inkscape:zoom="10.276087"
     inkscape:cx="15.344828"
     inkscape:cy="14.482759"
     inkscape:document-units="px"
     inkscape:current-layer="layer1"
     inkscape:window-width="656"
     inkscape:window-height="1029"
     inkscape:window-x="0"
     inkscape:window-y="19"
     showgrid="false"
     inkscape:window-maximized="0" />
  <metadata
     id="metadata7">
    <rdf:RDF>
      <cc:Work
         rdf:about="">
        <dc:format>image/svg+xml</dc:format>
        <dc:type
           rdf:resource="http://purl.org/dc/dcmitype/StillImage" />
        <dc:title></dc:title>
      </cc:Work>
    </rdf:RDF>
  </metadata>
  <g
     inkscape:label="Capa 1"
     inkscape:groupmode="layer"
     id="layer1"
     transform="translate(0,-1022.3622)">
    <path
       sodipodi:type="arc"
       style="color:#000000;fill:#1a1a1a;stroke:#d4d4d4;stroke-width:1.02777779;stroke-opacity:1;marker:none;visibility:visible;display:inline;overflow:visible;enable-background:accumulate"
       id="path16617-6-6"
       sodipodi:cx="15.16226"
       sodipodi:cy="16.56851"
       sodipodi:rx="14.008413"
       sodipodi:ry="14.008413"
       d="m 29.170673,16.56851 a 14.008413,14.008413 0 1 1 -28.0168263,0 14.008413,14.008413 0 1 1 28.0168263,0 z"
       transform="matrix(0.97297297,0,0,0.97297297,330.50795,953.63241)" />
    <path
       style="fill:#1a1a1a;stroke:#d4d4d4;stroke-width:1px;stroke-linecap:butt;stroke-linejoin:miter;stroke-opacity:1"
       d="m 345.29648,957.89011 0,11.863 0,0"
       id="path16623-6-2"
       inkscape:connector-curvature="0"
       inkscape:transform-center-y="-5.9314904" />
    <path
       style="fill:#1a1a1a;stroke:#d4d4d4;stroke-width:1px;stroke-linecap:butt;stroke-linejoin:miter;stroke-opacity:1"
       d="m 357.15947,969.75311 -1.70877,0 0,0"
       id="path16623-4-2-0"
       inkscape:connector-curvature="0"
       inkscape:transform-center-x="-0.854382" />
    <path
       style="fill:#1a1a1a;stroke:#d4d4d4;stroke-width:0.99999994px;stroke-linecap:butt;stroke-linejoin:miter;stroke-opacity:1"
       d="m 345.29648,981.61611 0,-2.0181 0,0"
       id="path16623-4-3-9-0"
       inkscape:connector-curvature="0"
       inkscape:transform-center-y="1.0091015" />
    <path
       style="fill:#1a1a1a;stroke:#d4d4d4;stroke-width:1px;stroke-linecap:butt;stroke-linejoin:miter;stroke-opacity:1"
       d="m 333.43348,969.75311 11.863,0 0,0"
       id="path16623-4-3-4-1-0"
       inkscape:connector-curvature="0"
       inkscape:transform-center-x="5.9315" />
    <path
       inkscape:connector-curvature="0"
       sodipodi:nodetypes="cccccccccccccc"
       id="path9518-0-7"
       d="m 14.999994,1025.9915 -11.2422196,9.9235 2.2484301,0 0,12.8177 6.7453475,0 0,-7.5644 4.651059,0 1.3e-5,7.5644 6.591159,0 0,-12.8177 2.248444,0 -11.242237,-9.9235 0,0 0,0 z"
       style="font-size:12px;fill:none;stroke:none" />
    <path
       inkscape:connector-curvature="0"
       style="fill:#1a1a1a;fill-opacity:1;fill-rule:evenodd;stroke:none"
       d="m 17.788731,1024.861 c -0.0389,0.014 -0.0944,0.043 -0.125,0.063 -0.0612,0.039 -0.096,0.087 -0.125,0.125 -0.058,0.075 -0.0809,0.1156 -0.0937,0.1563 -0.0258,0.081 -0.0279,0.1424 -0.0313,0.1875 -0.007,0.09 -0.005,0.1792 0,0.2812 0.0106,0.2041 0.0557,0.4569 0.0937,0.7813 0.0763,0.6487 0.19993,1.5191 0.34375,2.4375 0.28764,1.8368 0.65098,3.8564 0.875,4.7187 0.31618,1.2171 0.30321,1.2337 0.34375,1.5 0.0405,0.2663 0.0962,0.7036 0.5625,2.6563 0.0986,0.4126 0.18887,0.7599 0.28125,1.125 l -1.1875,4.3437 c -0.19083,-0.1043 -0.20368,-0.1645 -0.5,-0.25 -0.66671,-0.1922 -1.60999,-0.2221 -2.5,0.4063 -0.87413,0.6171 -1.28752,1.4806 -1.375,2.3125 -0.0875,0.8319 0.10862,1.6528 0.34375,2.3125 0.6897,1.9351 3.01061,2.4258 4.21875,1.125 0.22574,-0.243 0.34474,-0.5323 0.53125,-0.9688 0.18651,-0.4364 0.40223,-0.9924 0.625,-1.6562 0.30513,-0.9092 0.64872,-2.219 1,-3.4688 0.34565,1.2285 0.70104,2.5149 1,3.4063 0.21943,0.6542 0.40972,1.2261 0.59375,1.6562 0.18403,0.4302 0.30754,0.6967 0.53125,0.9375 1.2047,1.2971 3.52837,0.8433 4.21875,-1.0937 0.23513,-0.6597 0.43123,-1.4806 0.34375,-2.3125 -0.0875,-0.8319 -0.50087,-1.6954 -1.375,-2.3125 -0.88814,-0.627 -1.83359,-0.5894 -2.5,-0.4063 -0.29221,0.08 -0.30982,0.1186 -0.5,0.2188 l -1.15625,-4.2813 c 0.0848,-0.3378 0.16061,-0.6569 0.25,-1.0312 0.46634,-1.9526 0.52196,-2.3899 0.5625,-2.6563 0.0405,-0.2663 0.0276,-0.2829 0.34375,-1.5 0.22479,-0.8652 0.59518,-2.8818 0.875,-4.7187 0.13991,-0.9185 0.23919,-1.7887 0.3125,-2.4375 0.0367,-0.3244 0.0842,-0.5771 0.0937,-0.7813 0.005,-0.1021 0.007,-0.1912 0,-0.2812 -0.004,-0.045 -0.005,-0.1066 -0.0313,-0.1875 -0.013,-0.04 -0.036,-0.082 -0.0937,-0.1563 -0.0289,-0.037 -0.0642,-0.086 -0.125,-0.125 -0.0304,-0.019 -0.0863,-0.018 -0.125,-0.031 -0.0387,-0.014 -0.0929,-0.031 -0.0937,-0.031 l -0.0313,0 -0.0313,0 c -0.0581,0 -0.15009,-0.02 -0.25,0.031 -0.0928,0.048 -0.17835,0.149 -0.21875,0.2188 l -0.0313,0.063 0,0.063 -2.5625,9.375 -2.59375,-9.4688 0,-0.063 -0.0313,-0.063 c -0.0822,-0.1335 -0.27676,-0.2035 -0.375,-0.2187 -0.0786,-0.012 -0.0989,0 -0.125,0 l 0,0.5 -0.0313,-0.5 c -8.1e-4,0 -0.0861,-0.014 -0.125,0 z m -10.4687502,1.0313 c -0.26027,0.024 -0.44757,0.056 -0.6875,0.1875 -0.2051,0.1124 -0.20399,0.1991 -0.25,0.2812 -0.046,0.082 -0.0866,0.1525 -0.125,0.25 -0.0767,0.195 -0.1613,0.4458 -0.25,0.75 -0.1774,0.6085 -0.39508,1.4494 -0.625,2.4375 -0.45984,1.9763 -0.9962,4.5743 -1.5,7.1875 -0.5038,2.6133 -0.9701301,5.2183 -1.2812501,7.25 -0.15556,1.0159 -0.28045,1.8812 -0.34375,2.5313 -0.0317,0.325 -0.029,0.5935 -0.0313,0.8125 -10e-4,0.1095 -0.0104,0.2183 0,0.3125 0.0104,0.094 0.002,0.1895 0.0937,0.3437 0.18518,0.3107 0.4507,0.3756 0.71875,0.4688 0.2680501,0.093 0.5843201,0.1601 0.9375001,0.2187 0.70635,0.1173 1.55983,0.2032 2.40625,0.25 1.69285,0.094 3.3125,0.094 3.3125,0.094 l 0.0625,-1 -0.0625,0 -6.09375,-0.875 0.1875,-0.9062 6.2500002,0.125 0.0625,-1 -0.0625,0 -5.9375002,-0.8125 0.15625,-0.7188 6.1562502,0.125 0.0625,-1 -0.0625,0 -5.8437502,-0.8125 0.125,-0.6875 6.3125002,0.125 0.0625,-1 -0.0625,0 -5.9687502,-0.8125 0.125,-0.7187 6.2187502,0.125 0.0625,-1 -0.0625,0 -5.8750002,-0.8125 0.125,-0.7188 6.1875002,0.125 0.0625,-1 -0.0625,0 -5.8437502,-0.8125 0.125,-0.6875 6.1875002,0.125 0.0625,-1 -0.0625,0 -5.8750002,-0.8125 0.15625,-0.7187 6.1562502,0.125 0.0625,-1 -0.0625,0 -5.8437502,-0.8125 0.125,-0.7188 6.0937502,0.125 0.0625,-1 -0.0625,0 -5.7500002,-0.8125 0.15625,-0.8437 6.0000002,0.1875 0.0625,-1 c 0,0 -0.0616,10e-5 -0.0625,0 -0.0754,-0.01 -3.28877,-0.418 -5.2812502,-0.4688 -0.34193,-0.01 -0.64598,-0.024 -0.90625,0 z m 17.6250002,18.5937 c 0.24995,0 0.57442,0.1625 0.84375,0.5 0.26933,0.3376 0.46886,0.8286 0.46875,1.375 -4.1e-4,0.5475 -0.19617,1.0518 -0.46875,1.4063 -0.27258,0.3545 -0.60553,0.5318 -0.84375,0.5312 -0.20406,0 -0.55439,-0.2188 -0.84375,-0.625 -0.28936,-0.4061 -0.50061,-0.957 -0.5,-1.5 8.2e-4,-1.0871 0.77403,-1.6889 1.34375,-1.6875 z m -7.78125,0.063 c 0.57141,0 1.34293,0.6004 1.34375,1.6875 4.1e-4,0.5431 -0.21067,1.0941 -0.5,1.5 -0.28933,0.406 -0.63891,0.6246 -0.84375,0.625 -0.23905,0 -0.57117,-0.177 -0.84375,-0.5312 -0.27258,-0.3543 -0.46834,-0.8588 -0.46875,-1.4063 -1.1e-4,-0.5464 0.19942,-1.0376 0.46875,-1.375 0.26933,-0.3373 0.59304,-0.4994 0.84375,-0.5 z"
       id="path3292-9" />
  </g>
</svg>
