<?xml version="1.0" encoding="UTF-8" standalone="no"?>
<!-- Created with Inkscape (http://www.inkscape.org/) -->

<svg
   xmlns:dc="http://purl.org/dc/elements/1.1/"
   xmlns:cc="http://creativecommons.org/ns#"
   xmlns:rdf="http://www.w3.org/1999/02/22-rdf-syntax-ns#"
   xmlns:svg="http://www.w3.org/2000/svg"
   xmlns="http://www.w3.org/2000/svg"
   xmlns:sodipodi="http://sodipodi.sourceforge.net/DTD/sodipodi-0.dtd"
   xmlns:inkscape="http://www.inkscape.org/namespaces/inkscape"
   width="30"
   height="30"
   id="svg2"
   sodipodi:version="0.32"
   inkscape:version="0.48.4 r9939"
   sodipodi:docname="paper_bin.svg"
   inkscape:output_extension="org.inkscape.output.svg.inkscape"
   version="1.1">
  <defs
     id="defs4" />
  <sodipodi:namedview
     id="base"
     pagecolor="#ffffff"
     bordercolor="#666666"
     borderopacity="1.0"
     inkscape:pageopacity="0.0"
     inkscape:pageshadow="2"
     inkscape:zoom="11.6"
     inkscape:cx="15"
     inkscape:cy="15"
     inkscape:document-units="px"
     inkscape:current-layer="layer1"
     inkscape:window-width="698"
     inkscape:window-height="1029"
     inkscape:window-x="0"
     inkscape:window-y="19"
     showgrid="false"
     inkscape:window-maximized="0" />
  <metadata
     id="metadata7">
    <rdf:RDF>
      <cc:Work
         rdf:about="">
        <dc:format>image/svg+xml</dc:format>
        <dc:type
           rdf:resource="http://purl.org/dc/dcmitype/StillImage" />
        <dc:title></dc:title>
      </cc:Work>
    </rdf:RDF>
  </metadata>
  <g
     inkscape:label="Capa 1"
     inkscape:groupmode="layer"
     id="layer1"
     transform="translate(0,-1022.3622)">
    <path
       sodipodi:type="arc"
       style="color:#000000;fill:#1a1a1a;stroke:#d4d4d4;stroke-width:1.02777779;stroke-opacity:1;marker:none;visibility:visible;display:inline;overflow:visible;enable-background:accumulate"
       id="path16617-6-6"
       sodipodi:cx="15.16226"
       sodipodi:cy="16.56851"
       sodipodi:rx="14.008413"
       sodipodi:ry="14.008413"
       d="m 29.170673,16.56851 a 14.008413,14.008413 0 1 1 -28.0168263,0 14.008413,14.008413 0 1 1 28.0168263,0 z"
       transform="matrix(0.97297297,0,0,0.97297297,330.50795,953.63241)" />
    <path
       style="fill:#1a1a1a;stroke:#d4d4d4;stroke-width:1px;stroke-linecap:butt;stroke-linejoin:miter;stroke-opacity:1"
       d="m 345.29648,957.89011 0,11.863 0,0"
       id="path16623-6-2"
       inkscape:connector-curvature="0"
       inkscape:transform-center-y="-5.9314904" />
    <path
       style="fill:#1a1a1a;stroke:#d4d4d4;stroke-width:1px;stroke-linecap:butt;stroke-linejoin:miter;stroke-opacity:1"
       d="m 357.15947,969.75311 -1.70877,0 0,0"
       id="path16623-4-2-0"
       inkscape:connector-curvature="0"
       inkscape:transform-center-x="-0.854382" />
    <path
       style="fill:#1a1a1a;stroke:#d4d4d4;stroke-width:0.99999994px;stroke-linecap:butt;stroke-linejoin:miter;stroke-opacity:1"
       d="m 345.29648,981.61611 0,-2.0181 0,0"
       id="path16623-4-3-9-0"
       inkscape:connector-curvature="0"
       inkscape:transform-center-y="1.0091015" />
    <path
       style="fill:#1a1a1a;stroke:#d4d4d4;stroke-width:1px;stroke-linecap:butt;stroke-linejoin:miter;stroke-opacity:1"
       d="m 333.43348,969.75311 11.863,0 0,0"
       id="path16623-4-3-4-1-0"
       inkscape:connector-curvature="0"
       inkscape:transform-center-x="5.9315" />
    <path
       inkscape:connector-curvature="0"
       sodipodi:nodetypes="cccccccccccccc"
       id="path9518-0-7"
       d="m 14.999994,1025.9915 -11.2422196,9.9235 2.2484301,0 0,12.8177 6.7453475,0 0,-7.5644 4.651059,0 1.3e-5,7.5644 6.591159,0 0,-12.8177 2.248444,0 -11.242237,-9.9235 0,0 0,0 z"
       style="font-size:12px;fill:none;stroke:none" />
    <path
       inkscape:connector-curvature="0"
       style="fill:#1a1a1a;fill-opacity:1;stroke:none"
       d="m 25.304983,1024.0409 c -1.030121,0 -1.811926,0.3061 -2.375,0.875 -0.563073,0.569 -0.84375,1.3783 -0.84375,2.4375 0,0.7944 0.148655,1.4282 0.46875,1.9375 0.320091,0.5093 0.715392,0.8916 1.15625,1.0938 0.440854,0.2022 0.99202,0.2812 1.6875,0.2812 0.573252,0 1.066474,-0.084 1.4375,-0.25 0.371009,-0.1659 0.687242,-0.3929 0.9375,-0.7187 0.25025,-0.3259 0.414846,-0.7328 0.53125,-1.2188 l -1.71875,-0.5312 c -0.0873,0.4044 -0.243992,0.725 -0.4375,0.9375 -0.193516,0.2124 -0.465462,0.3125 -0.84375,0.3125 -0.389936,0 -0.690916,-0.1429 -0.90625,-0.4063 -0.215338,-0.2634 -0.34375,-0.7587 -0.34375,-1.4687 0,-0.5733 0.100833,-0.9823 0.28125,-1.25 0.238612,-0.3608 0.583116,-0.5313 1.03125,-0.5313 0.197871,0 0.371198,0.044 0.53125,0.125 0.160039,0.082 0.295669,0.1925 0.40625,0.3438 0.06692,0.09 0.12639,0.2426 0.1875,0.4375 l 1.75,-0.4063 c -0.224073,-0.6751 -0.57003,-1.1741 -1.03125,-1.5 -0.461228,-0.326 -1.100201,-0.5 -1.90625,-0.5 z m -12.59375,0.125 1.4375,6.4063 1.9375,0 1.09375,-4.0313 1.125,4.0313 1.9375,0 1.4375,-6.4063 -1.875,0 -0.6875,3.5625 -1,-3.5625 -1.875,0 -0.96875,3.5625 -0.6875,-3.5625 -1.875,0 z m -3.0624996,2.5938 c -0.179597,0.016 -0.357384,0.056 -0.53125,0.125 -1.404966,0.3987 -1.947637,2.2546 -0.9375,3.2812 0.02988,3.4123 0.0437,6.8067 0.09375,10.2188 1.623383,3e-4 7.2404676,-0.1734 8.3124996,0.063 1.07867,2.1459 3.679049,7.4209 3.96875,7.875 1.148959,-0.3803 2.951209,-1.2584 4.09375,-1.6563 0.05899,0.049 0.03283,-1.5757 -0.5,-1.5312 -0.486287,0.03 -1.408162,0.7254 -2.6875,0.875 -1.217898,-2.3847 -2.387301,-4.8205 -3.59375,-7.2188 -2.103322,0 -5.521697,0.01 -7.625,0 0.101007,0.094 -0.3657906,-0.754 0.09375,-1.7812 l 5.59375,0 0,-1.7813 c -1.902459,-0.025 -3.827716,0.085 -5.71875,-0.063 -0.08517,-1.3482 -0.06493,-2.7125 -0.03125,-4.0625 0.468885,-0.6374 1.87342,-0.9065 1.8125,-2.0625 0.19811,-1.2804 -1.086574,-2.394 -2.3437496,-2.2812 z m -3.2812502,8.625 c -2.554349,1.2273 -4.4821291,3.7674 -4.6250001,6.5625 -0.294791,2.4652 0.804296,4.9484 2.7187501,6.5625 1.33878,1.1631 3.1158592,1.8862 5.6249998,2.1562 2.789651,0.1863 5.526803,-1.1253 7.25,-3.2187 1.019482,-0.6847 0.03492,-2.2273 -0.4375,-2.5938 -1.129964,1.784 -2.853243,3.3532 -5,3.875 -2.8632506,0.7791 -6.0438528,-0.8291 -7.3124998,-3.375 -1.199219,-2.2406 -0.803419,-5.2418 1.09375,-7 0.268807,-0.3704 1.0143252,-0.5267 0.9062502,-1.0625 -0.07253,-0.6176 0.18663,-1.5431 -0.2187502,-1.9062 z"
       id="path1631-4-1" />
  </g>
</svg>
