<?xml version="1.0" encoding="UTF-8" standalone="no"?>
<!-- Created with Inkscape (http://www.inkscape.org/) -->

<svg
   xmlns:dc="http://purl.org/dc/elements/1.1/"
   xmlns:cc="http://creativecommons.org/ns#"
   xmlns:rdf="http://www.w3.org/1999/02/22-rdf-syntax-ns#"
   xmlns:svg="http://www.w3.org/2000/svg"
   xmlns="http://www.w3.org/2000/svg"
   xmlns:sodipodi="http://sodipodi.sourceforge.net/DTD/sodipodi-0.dtd"
   xmlns:inkscape="http://www.inkscape.org/namespaces/inkscape"
   width="30"
   height="30"
   id="svg2"
   sodipodi:version="0.32"
   inkscape:version="0.48.4 r9939"
   sodipodi:docname="info.svg"
   inkscape:output_extension="org.inkscape.output.svg.inkscape"
   version="1.1">
  <defs
     id="defs4" />
  <sodipodi:namedview
     id="base"
     pagecolor="#ffffff"
     bordercolor="#666666"
     borderopacity="1.0"
     inkscape:pageopacity="0.0"
     inkscape:pageshadow="2"
     inkscape:zoom="11.6"
     inkscape:cx="15"
     inkscape:cy="15"
     inkscape:document-units="px"
     inkscape:current-layer="layer1"
     inkscape:window-width="698"
     inkscape:window-height="1029"
     inkscape:window-x="0"
     inkscape:window-y="19"
     showgrid="false"
     inkscape:window-maximized="0" />
  <metadata
     id="metadata7">
    <rdf:RDF>
      <cc:Work
         rdf:about="">
        <dc:format>image/svg+xml</dc:format>
        <dc:type
           rdf:resource="http://purl.org/dc/dcmitype/StillImage" />
        <dc:title></dc:title>
      </cc:Work>
    </rdf:RDF>
  </metadata>
  <g
     inkscape:label="Capa 1"
     inkscape:groupmode="layer"
     id="layer1"
     transform="translate(0,-1022.3622)">
    <path
       sodipodi:type="arc"
       style="color:#000000;fill:#1a1a1a;stroke:#d4d4d4;stroke-width:1.02777779;stroke-opacity:1;marker:none;visibility:visible;display:inline;overflow:visible;enable-background:accumulate"
       id="path16617-6-6"
       sodipodi:cx="15.16226"
       sodipodi:cy="16.56851"
       sodipodi:rx="14.008413"
       sodipodi:ry="14.008413"
       d="m 29.170673,16.56851 a 14.008413,14.008413 0 1 1 -28.0168263,0 14.008413,14.008413 0 1 1 28.0168263,0 z"
       transform="matrix(0.97297297,0,0,0.97297297,330.50795,953.63241)" />
    <path
       style="fill:#1a1a1a;stroke:#d4d4d4;stroke-width:1px;stroke-linecap:butt;stroke-linejoin:miter;stroke-opacity:1"
       d="m 345.29648,957.89011 0,11.863 0,0"
       id="path16623-6-2"
       inkscape:connector-curvature="0"
       inkscape:transform-center-y="-5.9314904" />
    <path
       style="fill:#1a1a1a;stroke:#d4d4d4;stroke-width:1px;stroke-linecap:butt;stroke-linejoin:miter;stroke-opacity:1"
       d="m 357.15947,969.75311 -1.70877,0 0,0"
       id="path16623-4-2-0"
       inkscape:connector-curvature="0"
       inkscape:transform-center-x="-0.854382" />
    <path
       style="fill:#1a1a1a;stroke:#d4d4d4;stroke-width:0.99999994px;stroke-linecap:butt;stroke-linejoin:miter;stroke-opacity:1"
       d="m 345.29648,981.61611 0,-2.0181 0,0"
       id="path16623-4-3-9-0"
       inkscape:connector-curvature="0"
       inkscape:transform-center-y="1.0091015" />
    <path
       style="fill:#1a1a1a;stroke:#d4d4d4;stroke-width:1px;stroke-linecap:butt;stroke-linejoin:miter;stroke-opacity:1"
       d="m 333.43348,969.75311 11.863,0 0,0"
       id="path16623-4-3-4-1-0"
       inkscape:connector-curvature="0"
       inkscape:transform-center-x="5.9315" />
    <path
       inkscape:connector-curvature="0"
       sodipodi:nodetypes="cccccccccccccc"
       id="path9518-0-7"
       d="m 14.999994,1025.9915 -11.2422196,9.9235 2.2484301,0 0,12.8177 6.7453475,0 0,-7.5644 4.651059,0 1.3e-5,7.5644 6.591159,0 0,-12.8177 2.248444,0 -11.242237,-9.9235 0,0 0,0 z"
       style="font-size:12px;fill:none;stroke:none" />
    <path
       style="fill:#1a1a1a;fill-opacity:1;stroke:none"
       d="m 2.1945419,1024.7006 0,19.0938 2.53125,0 0,-7.75 4.90625,0 c 2.7014801,0 4.5600401,-0.5626 5.5937501,-1.6875 1.03367,-1.1249 1.56249,-2.5006 1.5625,-4.125 -10e-6,-0.9468 -0.20722,-1.8346 -0.59375,-2.625 -0.38656,-0.7905 -0.89715,-1.4052 -1.53125,-1.8438 -0.63412,-0.4387 -1.40563,-0.7187 -2.34375,-0.875 -0.66887,-0.1215 -1.63803,-0.1875 -2.9062501,-0.1875 l -7.21875,0 z m 2.53125,2.25 4.90625,0 c 1.1466001,0 1.9181101,0.043 2.3437501,0.1563 0.66016,0.1824 1.18982,0.5561 1.59375,1.125 0.40391,0.569 0.62499,1.2633 0.625,2.0625 -10e-6,1.1032 -0.34504,1.9545 -1.03125,2.5625 -0.68625,0.6081 -1.86696,0.9062 -3.5000001,0.9062 l -4.9375,0 0,-6.8125 z m 13.9062501,8.4375 c -0.109835,0.01 -0.23742,0.051 -0.34375,0.094 -0.859227,0.2438 -1.180264,1.3722 -0.5625,2 0.01828,2.0868 0.03189,4.1633 0.0625,6.25 0.992803,0 4.406883,-0.113 5.0625,0.031 0.659676,1.3124 2.260329,4.5348 2.4375,4.8125 0.702663,-0.2325 1.801261,-0.7567 2.5,-1 0.03607,0.03 0.04461,-0.9645 -0.28125,-0.9375 -0.297397,0.018 -0.873852,0.4403 -1.65625,0.5313 -0.744824,-1.4583 -1.449678,-2.9396 -2.1875,-4.4063 -1.286317,0 -3.401194,0.01 -4.6875,0 0.06177,0.058 -0.218539,-0.4654 0.0625,-1.0937 l 3.40625,0 0,-1.0938 c -1.163477,-0.015 -2.312261,0.059 -3.46875,-0.031 -0.05208,-0.8245 -0.05185,-1.6432 -0.03125,-2.4688 0.286754,-0.3898 1.16225,-0.5742 1.125,-1.2812 0.121157,-0.7831 -0.668655,-1.4752 -1.4375,-1.4063 z m -2,5.2813 c -1.56215,0.7506 -2.75637,2.3218 -2.84375,4.0312 -0.180284,1.5076 0.485438,3.0129 1.65625,4 0.818751,0.7114 1.902998,1.1473 3.4375,1.3125 1.706052,0.1139 3.383653,-0.6885 4.4375,-1.9687 0.623479,-0.4187 0.0077,-1.3697 -0.28125,-1.5938 -0.691046,1.091 -1.718369,2.0558 -3.03125,2.375 -1.751063,0.4764 -3.724141,-0.5055 -4.5,-2.0625 -0.7334,-1.3703 -0.472742,-3.1747 0.6875,-4.25 0.164393,-0.2265 0.6286,-0.3286 0.5625,-0.6562 -0.04436,-0.3777 0.122916,-0.9654 -0.125,-1.1875 z"
       id="path1631-5"
       inkscape:connector-curvature="0" />
  </g>
</svg>
