<?xml version="1.0" encoding="UTF-8" standalone="no"?>
<!-- Created with Inkscape (http://www.inkscape.org/) -->

<svg
   xmlns:dc="http://purl.org/dc/elements/1.1/"
   xmlns:cc="http://creativecommons.org/ns#"
   xmlns:rdf="http://www.w3.org/1999/02/22-rdf-syntax-ns#"
   xmlns:svg="http://www.w3.org/2000/svg"
   xmlns="http://www.w3.org/2000/svg"
   xmlns:sodipodi="http://sodipodi.sourceforge.net/DTD/sodipodi-0.dtd"
   xmlns:inkscape="http://www.inkscape.org/namespaces/inkscape"
   width="30"
   height="30"
   id="svg2"
   sodipodi:version="0.32"
   inkscape:version="0.48.4 r9939"
   sodipodi:docname="mobile_phone.svg"
   inkscape:output_extension="org.inkscape.output.svg.inkscape"
   version="1.1">
  <defs
     id="defs4" />
  <sodipodi:namedview
     id="base"
     pagecolor="#ffffff"
     bordercolor="#666666"
     borderopacity="1.0"
     inkscape:pageopacity="0.0"
     inkscape:pageshadow="2"
     inkscape:zoom="10.276087"
     inkscape:cx="15.344828"
     inkscape:cy="14.482759"
     inkscape:document-units="px"
     inkscape:current-layer="layer1"
     inkscape:window-width="656"
     inkscape:window-height="1029"
     inkscape:window-x="0"
     inkscape:window-y="19"
     showgrid="false"
     inkscape:window-maximized="0" />
  <metadata
     id="metadata7">
    <rdf:RDF>
      <cc:Work
         rdf:about="">
        <dc:format>image/svg+xml</dc:format>
        <dc:type
           rdf:resource="http://purl.org/dc/dcmitype/StillImage" />
        <dc:title></dc:title>
      </cc:Work>
    </rdf:RDF>
  </metadata>
  <g
     inkscape:label="Capa 1"
     inkscape:groupmode="layer"
     id="layer1"
     transform="translate(0,-1022.3622)">
    <path
       sodipodi:type="arc"
       style="color:#000000;fill:#1a1a1a;stroke:#d4d4d4;stroke-width:1.02777779;stroke-opacity:1;marker:none;visibility:visible;display:inline;overflow:visible;enable-background:accumulate"
       id="path16617-6-6"
       sodipodi:cx="15.16226"
       sodipodi:cy="16.56851"
       sodipodi:rx="14.008413"
       sodipodi:ry="14.008413"
       d="m 29.170673,16.56851 a 14.008413,14.008413 0 1 1 -28.0168263,0 14.008413,14.008413 0 1 1 28.0168263,0 z"
       transform="matrix(0.97297297,0,0,0.97297297,330.50795,953.63241)" />
    <path
       style="fill:#1a1a1a;stroke:#d4d4d4;stroke-width:1px;stroke-linecap:butt;stroke-linejoin:miter;stroke-opacity:1"
       d="m 345.29648,957.89011 0,11.863 0,0"
       id="path16623-6-2"
       inkscape:connector-curvature="0"
       inkscape:transform-center-y="-5.9314904" />
    <path
       style="fill:#1a1a1a;stroke:#d4d4d4;stroke-width:1px;stroke-linecap:butt;stroke-linejoin:miter;stroke-opacity:1"
       d="m 357.15947,969.75311 -1.70877,0 0,0"
       id="path16623-4-2-0"
       inkscape:connector-curvature="0"
       inkscape:transform-center-x="-0.854382" />
    <path
       style="fill:#1a1a1a;stroke:#d4d4d4;stroke-width:0.99999994px;stroke-linecap:butt;stroke-linejoin:miter;stroke-opacity:1"
       d="m 345.29648,981.61611 0,-2.0181 0,0"
       id="path16623-4-3-9-0"
       inkscape:connector-curvature="0"
       inkscape:transform-center-y="1.0091015" />
    <path
       style="fill:#1a1a1a;stroke:#d4d4d4;stroke-width:1px;stroke-linecap:butt;stroke-linejoin:miter;stroke-opacity:1"
       d="m 333.43348,969.75311 11.863,0 0,0"
       id="path16623-4-3-4-1-0"
       inkscape:connector-curvature="0"
       inkscape:transform-center-x="5.9315" />
    <path
       inkscape:connector-curvature="0"
       sodipodi:nodetypes="cccccccccccccc"
       id="path9518-0-7"
       d="m 14.999994,1025.9915 -11.2422196,9.9235 2.2484301,0 0,12.8177 6.7453475,0 0,-7.5644 4.651059,0 1.3e-5,7.5644 6.591159,0 0,-12.8177 2.248444,0 -11.242237,-9.9235 0,0 0,0 z"
       style="font-size:12px;fill:none;stroke:none" />
    <path
       style="fill:#1a1a1a;fill-opacity:1;stroke:none"
       d="m 4.8853148,1030.913 0.58786,0.7953 11.3076802,0.5187 0,1.9711 c -0.94002,-0.1728 -2.06664,0.6836 -2.97389,1.072 l 1.62527,0.1037 c -1.2464,0.2083 -2.50033,0.4283 -3.76923,0.4496 -2.5014602,0.1643 -5.4603402,0.2904 -8.0225702,0.2074 -0.25194,-0.2433 -0.60555,-0.4062 -1.00282,-0.3803 -0.0835,0 -0.16374,0.018 -0.24206,0.034 -0.24886,-0.6668 -0.47798,-1.3383 -0.72619,-2.0056 l -0.5187,0 c 0.32938,0.6869 0.67557,1.4186 1.00283,2.1094 -0.67486,0.3097 -1.06067,1.1946 -0.65703,1.8673 0.29506,0.6076 1.05687,0.8494 1.65985,0.657 l 0.6916,2.0403 c 0.12853,-0.041 0.5247,0.087 0.55328,-0.069 -0.38108,-0.6676 -0.69518,-1.3968 -1.00282,-2.1094 0.13255,-0.075 0.24759,-0.1876 0.3458,-0.3112 0.009,0.028 0.0331,0.02 0.0692,0.035 3.39276,0.2122 8.0080402,2.064 11.6534802,3.5963 1.85959,0.6391 3.87602,0.5138 5.80945,0.3458 1.00949,-0.1684 2.28343,-0.2683 2.83556,-1.2795 0.24467,-0.6963 0.0133,-1.4533 -0.24206,-2.1093 -0.82871,-1.9183 -2.82789,-3.0141 -4.84121,-3.2852 l 0.76076,-0.1037 c -0.61132,-0.3172 -1.82375,-0.8909 -2.80098,-0.8645 l 0,-1.9711 11.30768,-0.6224 0.55328,-0.657 -12.17218,1.0374 -11.7918002,-1.072 z m 14.0395002,5.0833 c 0.26188,-0.014 0.52906,-0.018 0.8645,0 0.92321,0.08 1.85949,0.5477 2.45519,1.2449 0.65875,0.6172 1.00609,1.512 1.07198,2.4206 -1.19669,0.04 -2.18157,0 -3.31969,0 -0.59093,-1.2268 -1.24785,-2.4012 -1.83274,-3.631 0.2761,-0.022 0.49889,-0.021 0.76076,-0.034 z m -3.70006,0.1383 c 0.61907,-0.011 1.3174,0.01 1.93648,0 0.55061,0.5362 1.29921,2.9616 1.59068,3.6309 -0.98111,-0.011 -2.51149,0.047 -3.49258,0.035 -0.0103,-0.608 -0.0245,-3.0576 -0.0346,-3.6655 z m -12.5525602,0.1383 c 0.6376,-0.06 1.04861,0.8001 0.58786,1.2449 -0.40816,0.4935 -1.32083,0.1537 -1.31405,-0.4841 -0.0231,-0.4008 0.3247,-0.7512 0.72619,-0.7608 z m 10.0282102,6.2244 c -0.30122,0 -0.55328,0.2521 -0.55328,0.5533 0,0.3012 0.25206,0.5533 0.55328,0.5533 l 10.71982,0 c 0.30122,0 0.55328,-0.2521 0.55328,-0.5533 0,-0.3012 -0.25206,-0.5533 -0.55328,-0.5533 l -10.71982,0 z m 0.5187,1.3141 10.16654,0 -10.16654,0 z"
       id="path2872-4"
       inkscape:connector-curvature="0" />
  </g>
</svg>
