<?xml version="1.0" encoding="UTF-8" standalone="no"?>
<!-- Created with Inkscape (http://www.inkscape.org/) -->

<svg
   xmlns:dc="http://purl.org/dc/elements/1.1/"
   xmlns:cc="http://creativecommons.org/ns#"
   xmlns:rdf="http://www.w3.org/1999/02/22-rdf-syntax-ns#"
   xmlns:svg="http://www.w3.org/2000/svg"
   xmlns="http://www.w3.org/2000/svg"
   xmlns:sodipodi="http://sodipodi.sourceforge.net/DTD/sodipodi-0.dtd"
   xmlns:inkscape="http://www.inkscape.org/namespaces/inkscape"
   width="30"
   height="30"
   id="svg2"
   sodipodi:version="0.32"
   inkscape:version="0.48.4 r9939"
   sodipodi:docname="iune_web.svg"
   inkscape:output_extension="org.inkscape.output.svg.inkscape"
   version="1.1">
  <defs
     id="defs4">
    <clipPath
       clipPathUnits="userSpaceOnUse"
       id="clipPath17670-8">
      <path
         inkscape:connector-curvature="0"
         d="m 0,288.75 201.25,0 L 201.25,0 0,0 0,288.75 z"
         id="path17672-4" />
    </clipPath>
    <clipPath
       clipPathUnits="userSpaceOnUse"
       id="clipPath18098-9">
      <path
         inkscape:connector-curvature="0"
         d="m 0,288.75 201.25,0 L 201.25,0 0,0 0,288.75 z"
         id="path18100-2" />
    </clipPath>
    <clipPath
       clipPathUnits="userSpaceOnUse"
       id="clipPath17356-3">
      <path
         inkscape:connector-curvature="0"
         d="m 0,288.75 201.25,0 L 201.25,0 0,0 0,288.75 z"
         id="path17358-6" />
    </clipPath>
    <clipPath
       clipPathUnits="userSpaceOnUse"
       id="clipPath18256-8">
      <path
         inkscape:connector-curvature="0"
         d="m 0,288.75 201.25,0 L 201.25,0 0,0 0,288.75 z"
         id="path18258-5" />
    </clipPath>
    <clipPath
       clipPathUnits="userSpaceOnUse"
       id="clipPath17038-7">
      <path
         inkscape:connector-curvature="0"
         d="m 0,288.75 201.25,0 L 201.25,0 0,0 0,288.75 z"
         id="path17040-4" />
    </clipPath>
  </defs>
  <sodipodi:namedview
     id="base"
     pagecolor="#ffffff"
     bordercolor="#666666"
     borderopacity="1.0"
     inkscape:pageopacity="0.0"
     inkscape:pageshadow="2"
     inkscape:zoom="10.2"
     inkscape:cx="15"
     inkscape:cy="15"
     inkscape:document-units="px"
     inkscape:current-layer="layer1"
     inkscape:window-width="656"
     inkscape:window-height="1029"
     inkscape:window-x="0"
     inkscape:window-y="19"
     showgrid="false"
     inkscape:window-maximized="0" />
  <metadata
     id="metadata7">
    <rdf:RDF>
      <cc:Work
         rdf:about="">
        <dc:format>image/svg+xml</dc:format>
        <dc:type
           rdf:resource="http://purl.org/dc/dcmitype/StillImage" />
        <dc:title></dc:title>
      </cc:Work>
    </rdf:RDF>
  </metadata>
  <g
     inkscape:label="Capa 1"
     inkscape:groupmode="layer"
     id="layer1"
     transform="translate(0,-1022.3622)">
    <path
       sodipodi:type="arc"
       style="color:#000000;fill:#1a1a1a;stroke:#d4d4d4;stroke-width:1.02777779;stroke-opacity:1;marker:none;visibility:visible;display:inline;overflow:visible;enable-background:accumulate"
       id="path16617-6-6"
       sodipodi:cx="15.16226"
       sodipodi:cy="16.56851"
       sodipodi:rx="14.008413"
       sodipodi:ry="14.008413"
       d="m 29.170673,16.56851 c 0,7.736633 -6.27178,14.008413 -14.008413,14.008413 -7.736633,0 -14.0084133,-6.27178 -14.0084133,-14.008413 0,-7.736633 6.2717803,-14.0084133 14.0084133,-14.0084133 7.736633,0 14.008413,6.2717803 14.008413,14.0084133 z"
       transform="matrix(0.97297297,0,0,0.97297297,330.50795,953.63241)" />
    <path
       style="fill:#1a1a1a;stroke:#d4d4d4;stroke-width:1px;stroke-linecap:butt;stroke-linejoin:miter;stroke-opacity:1"
       d="m 345.29648,957.89011 0,11.863 0,0"
       id="path16623-6-2"
       inkscape:connector-curvature="0"
       inkscape:transform-center-y="-5.9314904" />
    <path
       style="fill:#1a1a1a;stroke:#d4d4d4;stroke-width:1px;stroke-linecap:butt;stroke-linejoin:miter;stroke-opacity:1"
       d="m 357.15947,969.75311 -1.70877,0 0,0"
       id="path16623-4-2-0"
       inkscape:connector-curvature="0"
       inkscape:transform-center-x="-0.854382" />
    <path
       style="fill:#1a1a1a;stroke:#d4d4d4;stroke-width:0.99999994px;stroke-linecap:butt;stroke-linejoin:miter;stroke-opacity:1"
       d="m 345.29648,981.61611 0,-2.0181 0,0"
       id="path16623-4-3-9-0"
       inkscape:connector-curvature="0"
       inkscape:transform-center-y="1.0091015" />
    <path
       style="fill:#1a1a1a;stroke:#d4d4d4;stroke-width:1px;stroke-linecap:butt;stroke-linejoin:miter;stroke-opacity:1"
       d="m 333.43348,969.75311 11.863,0 0,0"
       id="path16623-4-3-4-1-0"
       inkscape:connector-curvature="0"
       inkscape:transform-center-x="5.9315" />
    <path
       inkscape:connector-curvature="0"
       sodipodi:nodetypes="cccccccccccccc"
       id="path9518-0-7"
       d="m 14.999994,1025.9915 -11.2422196,9.9235 2.2484301,0 0,12.8177 6.7453475,0 0,-7.5644 4.651059,0 1.3e-5,7.5644 6.591159,0 0,-12.8177 2.248444,0 -11.242237,-9.9235 0,0 0,0 z"
       style="font-size:12px;fill:none;stroke:none" />
    <path
       style="font-size:medium;font-style:normal;font-variant:normal;font-weight:normal;font-stretch:normal;text-indent:0;text-align:start;text-decoration:none;line-height:normal;letter-spacing:normal;word-spacing:normal;text-transform:none;direction:ltr;block-progression:tb;writing-mode:lr-tb;text-anchor:start;baseline-shift:baseline;color:#000000;fill:#1a1a1a;fill-opacity:1;stroke:none;stroke-width:1.77165353;marker:none;visibility:visible;display:inline;overflow:visible;enable-background:accumulate;font-family:Sans;-inkscape-font-specification:Sans"
       d="m 5.4469048,1030.6195 0,0.1636 0,9.8452 0,0.1695 0,3.1376 0,0.1695 0.16361,0 18.7789802,0 0.1636,0 0,-0.1695 0,-3.1376 0,-0.1695 0,-9.8452 0,-0.1636 -0.1636,0 -18.7789802,0 -0.16361,0 z m 0.33305,0.3272 18.4459402,0 0,9.6816 -5.206,0 0,-6.9588 0,-0.1636 -0.1636,0 -2.94481,0 -0.16944,0 0,0.1636 0,6.9588 -2.49491,0 0,-6.6667 0,-0.1636 -0.1636,0 -4.7327202,0 -0.1636,0 0,0.1636 0,6.6667 -2.40726,0 0,-9.6816 z m 10.2951302,2.8864 2.61177,0 0,6.7952 -2.61177,0 0,-6.7952 z m -7.5606702,0.298 4.3996802,0 0,6.4972 -4.3996802,0 0,-6.4972 z m -2.73446,6.8303 2.40726,0 0,1.4432 0,0.1694 0.1636,0 4.7327202,0 0.1636,0 0,-0.1694 0,-1.4432 2.49491,0 0,0.023 0.16944,0 2.94481,0 0.1636,0 0,-0.023 5.206,0 0,2.8104 -18.4459402,0 0,-2.8104 z m 2.73446,0 4.3996802,0 0,1.2796 -4.3996802,0 0,-1.2796 z"
       id="rect6403-1-4-2-0"
       inkscape:connector-curvature="0" />
  </g>
</svg>
