<?xml version="1.0" encoding="UTF-8" standalone="no"?>
<!-- Created with Inkscape (http://www.inkscape.org/) -->

<svg
   xmlns:dc="http://purl.org/dc/elements/1.1/"
   xmlns:cc="http://creativecommons.org/ns#"
   xmlns:rdf="http://www.w3.org/1999/02/22-rdf-syntax-ns#"
   xmlns:svg="http://www.w3.org/2000/svg"
   xmlns="http://www.w3.org/2000/svg"
   xmlns:sodipodi="http://sodipodi.sourceforge.net/DTD/sodipodi-0.dtd"
   xmlns:inkscape="http://www.inkscape.org/namespaces/inkscape"
   width="30"
   height="30"
   id="svg2"
   sodipodi:version="0.32"
   inkscape:version="0.48.4 r9939"
   sodipodi:docname="iune.svg"
   inkscape:output_extension="org.inkscape.output.svg.inkscape"
   version="1.1">
  <defs
     id="defs4">
    <clipPath
       clipPathUnits="userSpaceOnUse"
       id="clipPath17670-8">
      <path
         inkscape:connector-curvature="0"
         d="m 0,288.75 201.25,0 L 201.25,0 0,0 0,288.75 z"
         id="path17672-4" />
    </clipPath>
    <clipPath
       clipPathUnits="userSpaceOnUse"
       id="clipPath18098-9">
      <path
         inkscape:connector-curvature="0"
         d="m 0,288.75 201.25,0 L 201.25,0 0,0 0,288.75 z"
         id="path18100-2" />
    </clipPath>
    <clipPath
       clipPathUnits="userSpaceOnUse"
       id="clipPath17356-3">
      <path
         inkscape:connector-curvature="0"
         d="m 0,288.75 201.25,0 L 201.25,0 0,0 0,288.75 z"
         id="path17358-6" />
    </clipPath>
    <clipPath
       clipPathUnits="userSpaceOnUse"
       id="clipPath18256-8">
      <path
         inkscape:connector-curvature="0"
         d="m 0,288.75 201.25,0 L 201.25,0 0,0 0,288.75 z"
         id="path18258-5" />
    </clipPath>
    <clipPath
       clipPathUnits="userSpaceOnUse"
       id="clipPath17038-7">
      <path
         inkscape:connector-curvature="0"
         d="m 0,288.75 201.25,0 L 201.25,0 0,0 0,288.75 z"
         id="path17040-4" />
    </clipPath>
  </defs>
  <sodipodi:namedview
     id="base"
     pagecolor="#ffffff"
     bordercolor="#666666"
     borderopacity="1.0"
     inkscape:pageopacity="0.0"
     inkscape:pageshadow="2"
     inkscape:zoom="10.2"
     inkscape:cx="15"
     inkscape:cy="15"
     inkscape:document-units="px"
     inkscape:current-layer="layer1"
     inkscape:window-width="656"
     inkscape:window-height="1029"
     inkscape:window-x="0"
     inkscape:window-y="19"
     showgrid="false"
     inkscape:window-maximized="0" />
  <metadata
     id="metadata7">
    <rdf:RDF>
      <cc:Work
         rdf:about="">
        <dc:format>image/svg+xml</dc:format>
        <dc:type
           rdf:resource="http://purl.org/dc/dcmitype/StillImage" />
        <dc:title></dc:title>
      </cc:Work>
    </rdf:RDF>
  </metadata>
  <g
     inkscape:label="Capa 1"
     inkscape:groupmode="layer"
     id="layer1"
     transform="translate(0,-1022.3622)">
    <path
       sodipodi:type="arc"
       style="color:#000000;fill:#1a1a1a;stroke:#d4d4d4;stroke-width:1.02777779;stroke-opacity:1;marker:none;visibility:visible;display:inline;overflow:visible;enable-background:accumulate"
       id="path16617-6-6"
       sodipodi:cx="15.16226"
       sodipodi:cy="16.56851"
       sodipodi:rx="14.008413"
       sodipodi:ry="14.008413"
       d="m 29.170673,16.56851 c 0,7.736633 -6.27178,14.008413 -14.008413,14.008413 -7.736633,0 -14.0084133,-6.27178 -14.0084133,-14.008413 0,-7.736633 6.2717803,-14.0084133 14.0084133,-14.0084133 7.736633,0 14.008413,6.2717803 14.008413,14.0084133 z"
       transform="matrix(0.97297297,0,0,0.97297297,330.50795,953.63241)" />
    <path
       style="fill:#1a1a1a;stroke:#d4d4d4;stroke-width:1px;stroke-linecap:butt;stroke-linejoin:miter;stroke-opacity:1"
       d="m 345.29648,957.89011 0,11.863 0,0"
       id="path16623-6-2"
       inkscape:connector-curvature="0"
       inkscape:transform-center-y="-5.9314904" />
    <path
       style="fill:#1a1a1a;stroke:#d4d4d4;stroke-width:1px;stroke-linecap:butt;stroke-linejoin:miter;stroke-opacity:1"
       d="m 357.15947,969.75311 -1.70877,0 0,0"
       id="path16623-4-2-0"
       inkscape:connector-curvature="0"
       inkscape:transform-center-x="-0.854382" />
    <path
       style="fill:#1a1a1a;stroke:#d4d4d4;stroke-width:0.99999994px;stroke-linecap:butt;stroke-linejoin:miter;stroke-opacity:1"
       d="m 345.29648,981.61611 0,-2.0181 0,0"
       id="path16623-4-3-9-0"
       inkscape:connector-curvature="0"
       inkscape:transform-center-y="1.0091015" />
    <path
       style="fill:#1a1a1a;stroke:#d4d4d4;stroke-width:1px;stroke-linecap:butt;stroke-linejoin:miter;stroke-opacity:1"
       d="m 333.43348,969.75311 11.863,0 0,0"
       id="path16623-4-3-4-1-0"
       inkscape:connector-curvature="0"
       inkscape:transform-center-x="5.9315" />
    <path
       inkscape:connector-curvature="0"
       sodipodi:nodetypes="cccccccccccccc"
       id="path9518-0-7"
       d="m 14.999994,1025.9915 -11.2422196,9.9235 2.2484301,0 0,12.8177 6.7453475,0 0,-7.5644 4.651059,0 1.3e-5,7.5644 6.591159,0 0,-12.8177 2.248444,0 -11.242237,-9.9235 0,0 0,0 z"
       style="font-size:12px;fill:none;stroke:none" />
    <path
       inkscape:connector-curvature="0"
       style="font-size:medium;font-style:normal;font-variant:normal;font-weight:normal;font-stretch:normal;text-indent:0;text-align:start;text-decoration:none;line-height:normal;letter-spacing:normal;word-spacing:normal;text-transform:none;direction:ltr;block-progression:tb;writing-mode:lr-tb;text-anchor:start;baseline-shift:baseline;color:#000000;fill:#1a1a1a;fill-opacity:1;stroke:none;stroke-width:3.54330707;marker:none;visibility:visible;display:inline;overflow:visible;enable-background:accumulate;font-family:Sans;-inkscape-font-specification:Sans"
       d="m 5.7656251,1024.5028 0,0.2813 0,25.125 0,0.3125 0.28125,0 17.9062499,0 0.28125,0 0,-0.3125 0,-25.125 0,-0.2813 -0.28125,0 -17.9062499,0 -0.28125,0 z m 0.59375,0.5938 17.2812499,0 0,24.5312 -17.2812499,0 0,-24.5312 z m 4.6562499,9.9375 c -0.18016,0 -0.3125,0.1323 -0.3125,0.3125 0,0.1801 0.13234,0.3437 0.3125,0.3437 0.18017,0 0.34375,-0.1636 0.34375,-0.3437 0,-0.1802 -0.16358,-0.3125 -0.34375,-0.3125 z m 1.84375,0.031 c -0.005,0 0,0.025 0,0.031 l 0,0.1562 c -0.0314,-0.031 -0.0494,-0.063 -0.0937,-0.063 -0.0444,0 -0.0936,0.031 -0.125,0.063 -0.0314,0.031 -0.0625,0.049 -0.0625,0.094 0,0.044 0.0311,0.094 0.0625,0.125 0.0314,0.031 0.0806,0.063 0.125,0.063 0.0444,0 0.0623,-0.031 0.0937,-0.063 0.0314,-0.031 0.0625,-0.081 0.0625,-0.125 l 0,-0.25 c 0,-0.01 0.005,-0.027 0,-0.031 -0.004,-0.01 -0.0253,0 -0.0313,0 -0.006,0 -0.0263,-0.01 -0.0313,0 z m 1.78125,0 c -0.005,0 0,0.025 0,0.031 l 0,0.094 -0.0313,0 c -0.006,0 0.005,0.026 0,0.031 10e-4,0 -0.002,0.029 0,0.031 l 0.0313,0 0,0.1562 c 0,0.076 0.0485,0.125 0.125,0.125 0.006,0 -0.004,-0.027 0,-0.031 0,-0.01 0.005,-0.027 0,-0.031 -0.0459,0 -0.0937,-0.017 -0.0937,-0.063 l 0,-0.1562 0.0625,0 c 0.002,0 -10e-4,-0.028 0,-0.031 -0.004,0 0.006,-0.031 0,-0.031 l -0.0625,0 0,-0.094 c 0,-0.01 0.005,-0.027 0,-0.031 -0.006,0 -0.0263,-0.01 -0.0313,0 z m 1,0 c -0.005,0 0,0.025 0,0.031 l 0,0.4062 c 0.005,0 -0.006,0.031 0,0.031 l 0.0625,0 c 0.006,0 -0.004,-0.027 0,-0.031 -10e-4,0 0.002,-0.029 0,-0.031 l -0.0313,0 0,-0.375 c 0,-0.01 0.005,-0.027 0,-0.031 -0.004,-0.01 -0.0253,0 -0.0313,0 z m 1.84375,0 c -0.0918,0 -0.125,0.033 -0.125,0.125 l 0,0.031 -0.0313,0 c -0.006,0 -0.0263,-0.01 -0.0313,0 -0.005,0 0,0.025 0,0.031 0.005,0.01 0.0253,0 0.0313,0 l 0.0313,0 0,0.25 c 0.003,-10e-4 0.0292,0 0.0313,0 l 0,-0.25 0.0625,0 c 0.006,0 0.0272,0 0.0313,0 0,-0.01 0.005,-0.027 0,-0.031 -0.004,-0.01 -0.0253,0 -0.0313,0 l -0.0625,0 0,-0.031 c 0,-0.061 0.0326,-0.094 0.0937,-0.094 -0.001,0 0.002,-0.029 0,-0.031 z m 0.1875,0 c -0.005,0 0,0.025 0,0.031 l 0,0.4062 c 0.002,0 0.0285,-0 0.0313,0 l 0,-0.125 0.0625,-0.031 0.125,0.1563 c 0.002,0 0.0284,-10e-4 0.0313,0 -0.001,0 0.002,-0.029 0,-0.031 l -0.125,-0.1563 0.125,-0.063 c 0.002,0 -0.001,-0.029 0,-0.031 -0.004,0 0.006,-0.031 0,-0.031 l -0.21875,0.125 0,-0.2187 c 0,-0.01 0.005,-0.027 0,-0.031 -0.006,0 -0.0263,-0.01 -0.0313,0 z m 1.5,0 c -0.005,0 0,0.025 0,0.031 l 0,0.4062 c 0.005,0 0.0253,0.031 0.0313,0.031 0.006,0 0.0272,-0.027 0.0313,-0.031 l 0,-0.125 0.0313,-0.031 0.15625,0.1563 c 0.003,-10e-4 0.0292,0 0.0313,0 0,-0.01 0.004,-0.026 0,-0.031 l -0.125,-0.1563 0.125,-0.063 c 0.005,0 0,-0.025 0,-0.031 -0.004,0 -0.0253,-0.031 -0.0313,-0.031 l -0.1875,0.125 0,-0.2187 c 0,-0.01 0.005,-0.027 0,-0.031 -0.004,-0.01 -0.0253,0 -0.0313,0 -0.006,0 -0.0263,-0.01 -0.0313,0 z m -6.1875,0.031 c -0.005,0.01 0,0.023 0,0.031 0,0.01 -0.006,0.025 0,0.031 0.006,0 0.0233,0 0.0313,0 0.006,-0.01 0.0313,-0.023 0.0313,-0.031 0,-0.01 -0.0253,-0.025 -0.0313,-0.031 -0.008,0 -0.0253,-0.01 -0.0313,0 z m 0.8125,0 c -0.005,0.01 0,0.023 0,0.031 0,0.01 -0.006,0.025 0,0.031 0.006,0 0.0233,0 0.0313,0 0.006,-0.01 0,-0.023 0,-0.031 0,-0.01 0.006,-0.025 0,-0.031 -0.008,0 -0.0253,-0.01 -0.0313,0 z m 1.71875,0 c -0.005,0.01 0,0.023 0,0.031 0,0.01 -0.006,0.025 0,0.031 0.006,0 0.0233,0 0.0313,0 0.006,-0.01 0.0313,-0.023 0.0313,-0.031 0,-0.01 -0.0253,-0.025 -0.0313,-0.031 -0.008,0 -0.0253,-0.01 -0.0313,0 z m 2.03125,0 c -0.005,0.01 0,0.023 0,0.031 0,0.01 -0.006,0.025 0,0.031 0.006,0 0.0233,0 0.0313,0 0.008,0 0.0253,0.01 0.0313,0 0.006,-0.01 0,-0.023 0,-0.031 0,-0.01 0.006,-0.025 0,-0.031 -0.006,-0.01 -0.0233,0 -0.0313,0 -0.008,0 -0.0253,-0.01 -0.0313,0 z m -4.3125,0.094 c -0.0444,0 -0.0975,0.034 -0.125,0.063 -0.0142,0.014 0,0.012 0,0.031 0,0.019 -0.0136,0.049 0,0.063 0.007,0.01 0.0138,-0.01 0.0313,0 l 0.15625,0.063 c 0.009,0 -6.3e-4,0.022 0,0.031 -0.0189,0.02 -0.0307,0.031 -0.0625,0.031 -0.0318,0 -0.0713,-0.01 -0.0937,-0.031 -0.004,0 -0.0253,0 -0.0313,0 0,0.01 -0.003,0.027 0,0.031 0.0341,0.038 0.0768,0.063 0.125,0.063 0.0444,0 0.0663,-0.034 0.0937,-0.063 0.0142,-0.014 0.0313,-0.012 0.0313,-0.031 0,-0.019 -0.0177,-0.049 -0.0313,-0.063 -0.007,-0.01 -0.0138,-0.024 -0.0313,-0.031 l -0.125,-0.031 c -0.009,0 -0.0306,-0.022 -0.0313,-0.031 0.0189,-0.02 0.062,-0.031 0.0937,-0.031 0.0318,0 0.0401,0.01 0.0625,0.031 10e-4,0 0.0272,0 0.0313,0 0.006,0 0.0272,0 0.0313,0 0,0 0.003,-0.027 0,-0.031 -0.0343,-0.038 -0.077,-0.063 -0.125,-0.063 z m 0.3125,0 c -0.0444,0 -0.0623,0.031 -0.0937,0.063 -0.0313,0.031 -0.0625,0.049 -0.0625,0.094 0,0.044 0.0311,0.094 0.0625,0.125 0.0314,0.031 0.0494,0.063 0.0937,0.063 0.0401,0 0.0953,-0.037 0.125,-0.063 0,-0.01 0.005,-0.027 0,-0.031 -0.004,-0.01 -0.0253,0 -0.0313,0 -0.0206,0.018 -0.065,0.031 -0.0937,0.031 -0.0318,0 -0.0401,-0.01 -0.0625,-0.031 -0.0169,-0.017 -0.0272,-0.041 -0.0313,-0.063 l 0.25,0 c 0.005,-0.01 0.0313,-0.025 0.0313,-0.031 0,-0.044 -0.0311,-0.062 -0.0625,-0.094 -0.0314,-0.031 -0.0806,-0.063 -0.125,-0.063 z m 0.46875,0 c -0.0186,0 -0.0156,0.021 -0.0313,0.031 -0.007,0 -0.0247,0.025 -0.0313,0.031 -0.0293,0.029 -0.0313,0.053 -0.0313,0.094 l 0,0.1562 c 0.004,0 -0.006,0.031 0,0.031 0.003,0 0.0283,10e-4 0.0313,0 0.003,0 -0.003,-0.029 0,-0.031 l 0,-0.1562 c 0,-0.029 0.0111,-0.042 0.0313,-0.063 0.0152,-0.015 0.0427,-0.028 0.0625,-0.031 0.0285,0 0.0734,0.011 0.0937,0.031 0.004,0.01 -0.003,0.025 0,0.031 0.005,0.012 0.0313,0.017 0.0313,0.031 l 0,0.1562 c 0.002,-10e-4 0.029,0 0.0313,0 l 0,-0.1562 c -10e-6,-0.041 -0.002,-0.065 -0.0313,-0.094 -0.007,-0.01 -0.0233,-0.026 -0.0313,-0.031 -0.008,-0.01 -0.0224,0 -0.0313,0 -0.017,-0.01 -0.0427,-0.031 -0.0625,-0.031 -0.0103,0 -0.0217,0 -0.0313,0 z m 0.40625,0 c -0.0444,0 -0.0936,0.031 -0.125,0.063 -0.0314,0.031 -0.0625,0.049 -0.0625,0.094 0,0.044 0.0311,0.094 0.0625,0.125 0.0314,0.031 0.0806,0.063 0.125,0.063 0.0444,0 0.0616,-0.03 0.0937,-0.063 l 0,0.031 c 0,0.01 0.0272,-0.01 0.0313,0 0.003,-10e-4 0.0292,0 0.0313,0 l 0,-0.1563 c 0,-0.044 -0.0311,-0.062 -0.0625,-0.094 -0.0314,-0.031 -0.0494,-0.063 -0.0937,-0.063 z m 0.4375,0 c -0.006,0 -0.0263,0.026 -0.0313,0.031 0,0.01 -0.004,0.026 0,0.031 0.005,0.01 0.0253,0 0.0313,0 l 0.15625,0 -0.1875,0.2187 c -0.003,0 0,0.026 0,0.031 0.005,0.01 0.0253,0.031 0.0313,0.031 l 0.21875,0 c 0.006,0 -0.004,-0.027 0,-0.031 -10e-4,0 0.002,-0.029 0,-0.031 l -0.1875,0 0.1875,-0.2187 c 0.002,0 -8.8e-4,-0.029 0,-0.031 -0.004,-0.01 0.006,-0.031 0,-0.031 l -0.21875,0 z m 0.4375,0 c -0.0444,0 -0.0936,0.031 -0.125,0.063 -0.0314,0.031 -0.0625,0.049 -0.0625,0.094 0,0.044 0.0311,0.094 0.0625,0.125 0.0314,0.031 0.0806,0.063 0.125,0.063 0.0444,0 0.0616,-0.03 0.0937,-0.063 l 0,0.031 c 0.005,0 0.0253,0.031 0.0313,0.031 0.006,0 0.0272,-0.027 0.0313,-0.031 l 0,-0.1563 c 0,-0.044 -0.0311,-0.062 -0.0625,-0.094 -0.0314,-0.031 -0.0494,-0.063 -0.0937,-0.063 z m 0.625,0 c -0.0444,0 -0.0623,0.031 -0.0937,0.063 -0.0314,0.031 -0.0625,0.049 -0.0625,0.094 0,0.044 0.0311,0.094 0.0625,0.125 0.0314,0.031 0.0494,0.063 0.0937,0.063 0.0402,0 0.0953,-0.037 0.125,-0.063 0,-0.01 0.005,-0.027 0,-0.031 -0.004,-0.01 -0.0253,0 -0.0313,0 -0.0206,0.018 -0.065,0.031 -0.0937,0.031 -0.0318,0 -0.0401,-0.01 -0.0625,-0.031 -0.0169,-0.017 -0.0272,-0.041 -0.0313,-0.063 l 0.25,0 c 0.005,-0.01 0,-0.025 0,-0.031 0,-0.044 1.5e-4,-0.062 -0.0313,-0.094 -0.0314,-0.031 -0.0806,-0.063 -0.125,-0.063 z m 0.53125,0 c -0.0444,0 -0.0623,0.031 -0.0937,0.063 -0.0314,0.031 -0.0625,0.049 -0.0625,0.094 0,0.044 0.0311,0.094 0.0625,0.125 0.0313,0.031 0.0494,0.063 0.0937,0.063 0.0444,0 0.0936,-0.031 0.125,-0.063 l 0,0.063 c 0,0.018 -0.0159,0.013 -0.0313,0.031 -0.0247,0.025 -0.0277,0.063 -0.0625,0.063 -0.0348,0 -0.0691,-0.038 -0.0937,-0.063 -0.009,-0.01 -0.0253,-0.021 -0.0313,-0.031 -0.005,0 -0.0253,0 -0.0313,0 -0.005,0.01 0,0.025 0,0.031 0.008,0.014 0.0188,0.019 0.0313,0.031 0.0335,0.034 0.0774,0.063 0.125,0.063 0.0476,0 0.06,-0.029 0.0937,-0.063 0.0241,-0.025 0.0625,-0.029 0.0625,-0.063 l 0,-0.1875 c 0,-0.044 -0.0311,-0.062 -0.0625,-0.094 -0.0314,-0.031 -0.0806,-0.063 -0.125,-0.063 z m 0.375,0 c -0.0444,0 -0.0616,0.03 -0.0937,0.063 l 0,-0.031 c 0,-0.01 -0.0263,0 -0.0313,0 -0.003,0 -0.0288,0 -0.0313,0 l 0,0.2812 c 0.002,0 0.0285,-10e-4 0.0313,0 0.005,-0.01 0.0313,0.01 0.0313,0 l 0,-0.1562 c 0,-0.032 0.009,-0.04 0.0313,-0.063 0.0224,-0.022 0.0308,-0.031 0.0625,-0.031 0.0163,0 0.0489,-0.01 0.0625,0 0.002,0 -0.001,-0.029 0,-0.031 -0.0188,-0.01 -0.0401,-0.031 -0.0625,-0.031 z m 0.28125,0 c -0.0444,0 -0.0936,0.031 -0.125,0.063 -0.0314,0.031 -0.0313,0.049 -0.0313,0.094 0,0.044 -1.5e-4,0.094 0.0313,0.125 0.0314,0.031 0.0806,0.063 0.125,0.063 0.0444,0 0.0929,-0.03 0.125,-0.063 l 0,0.031 c 0.003,-10e-4 0.0292,0 0.0313,0 l 0,-0.1563 c 0,-0.044 1.5e-4,-0.062 -0.0313,-0.094 -0.0314,-0.031 -0.0806,-0.063 -0.125,-0.063 z m 1.03125,0 c -0.0444,0 -0.0936,0.031 -0.125,0.063 -0.0314,0.031 -0.0313,0.049 -0.0313,0.094 0,0.044 -1.5e-4,0.094 0.0313,0.125 0.0314,0.031 0.0806,0.063 0.125,0.063 0.0444,0 0.0623,-0.031 0.0937,-0.063 0.0313,-0.031 0.0625,-0.081 0.0625,-0.125 0,-0.044 -0.0311,-0.062 -0.0625,-0.094 -0.0314,-0.031 -0.0494,-0.063 -0.0937,-0.063 z m 0.53125,0 c -0.0444,0 -0.0936,0.031 -0.125,0.063 -0.0314,0.031 -0.0313,0.049 -0.0313,0.094 0,0.044 -1.5e-4,0.094 0.0313,0.125 0.0313,0.031 0.0806,0.063 0.125,0.063 0.0444,0 0.0929,-0.03 0.125,-0.063 l 0,0.031 c 0.003,-10e-4 0.0292,0 0.0313,0 l 0,-0.1563 c 0,-0.044 1.5e-4,-0.062 -0.0313,-0.094 -0.0314,-0.031 -0.0806,-0.063 -0.125,-0.063 z m 0.34375,0 c -0.0444,0 -0.0975,0.034 -0.125,0.063 -0.0142,0.014 0,0.012 0,0.031 0,0.019 -0.0136,0.049 0,0.063 0.007,0.01 0.0138,-0.01 0.0313,0 l 0.15625,0.063 c 0.009,0 -6.3e-4,0.022 0,0.031 -0.0189,0.02 -0.0308,0.031 -0.0625,0.031 -0.0318,0 -0.0713,-0.01 -0.0937,-0.031 -0.004,0 -0.0253,0 -0.0313,0 0,0.01 -0.003,0.027 0,0.031 0.0341,0.038 0.0768,0.063 0.125,0.063 0.0444,0 0.0663,-0.034 0.0937,-0.063 0.0142,-0.014 0.0313,-0.012 0.0313,-0.031 0,-0.019 -0.0177,-0.049 -0.0313,-0.063 -0.007,-0.01 -0.0138,-0.024 -0.0313,-0.031 l -0.15625,-0.031 c -0.009,0 6.2e-4,-0.022 0,-0.031 0.0189,-0.02 0.062,-0.031 0.0937,-0.031 0.0317,0 0.0401,0.01 0.0625,0.031 0.001,0 0.0272,0 0.0313,0 0.006,0 0.0272,0 0.0313,0 0,0 0.003,-0.027 0,-0.031 -0.0343,-0.038 -0.077,-0.063 -0.125,-0.063 z m 0.625,0 c -0.0444,0 -0.0936,0.031 -0.125,0.063 -0.0314,0.031 -0.0313,0.049 -0.0313,0.094 0,0.044 -1.5e-4,0.094 0.0313,0.125 0.0314,0.031 0.0806,0.063 0.125,0.063 0.0402,0 0.0641,-0.037 0.0937,-0.063 -10e-4,0 0.002,-0.029 0,-0.031 -0.005,0 -0.0272,0 -0.0313,0 -0.0206,0.018 -0.0338,0.031 -0.0625,0.031 -0.0318,0 -0.0401,-0.01 -0.0625,-0.031 -0.0169,-0.017 -0.0272,-0.041 -0.0313,-0.063 l 0.25,0 c 0.005,-0.01 0,-0.025 0,-0.031 0,-0.044 1.5e-4,-0.062 -0.0313,-0.094 -0.0313,-0.031 -0.0806,-0.063 -0.125,-0.063 z m 0.375,0 c -0.0444,0 -0.0936,0.031 -0.125,0.063 -0.0314,0.031 -0.0313,0.049 -0.0313,0.094 0,0.044 -1.5e-4,0.094 0.0313,0.125 0.0314,0.031 0.0806,0.063 0.125,0.063 0.0444,0 0.0929,-0.03 0.125,-0.063 l 0,0.031 c 0.003,-10e-4 0.0292,0 0.0313,0 l 0,-0.1563 c 0,-0.044 1.5e-4,-0.062 -0.0313,-0.094 -0.0314,-0.031 -0.0806,-0.063 -0.125,-0.063 z m -7.03125,0.031 0,0.2812 c 0.002,0 0.0285,-0 0.0313,0 l 0,-0.2812 c -0.003,10e-4 -0.0288,0 -0.0313,0 z m 0.8125,0 0,0.2812 c 0.002,0 0.0285,-0 0.0313,0 l 0,-0.2812 c -0.003,10e-4 -0.0288,0 -0.0313,0 z m 1.71875,0 0,0.2812 c 0.002,0 0.0285,-0 0.0313,0 l 0,-0.2812 c -0.003,10e-4 -0.0288,0 -0.0313,0 z m 2.03125,0 0,0.2812 c 0.002,0 0.0285,-0 0.0313,0 0.005,-0.01 0.0313,0.01 0.0313,0 l 0,-0.2812 c 0,-0.01 -0.0263,0 -0.0313,0 -0.003,10e-4 -0.0288,0 -0.0313,0 z m -4.78125,0.032 c 0.0317,0 0.0401,0.01 0.0625,0.031 0.0224,0.022 0.0313,0.031 0.0313,0.063 0,0.032 -0.009,0.071 -0.0313,0.094 -0.0224,0.022 -0.0308,0.031 -0.0625,0.031 -0.0318,0 -0.0713,-0.01 -0.0937,-0.031 -0.0224,-0.022 -0.0313,-0.062 -0.0313,-0.094 0,-0.032 0.009,-0.04 0.0313,-0.063 0.0224,-0.022 0.062,-0.031 0.0937,-0.031 z m 0.78125,0 c 0.0318,0 0.0713,0.01 0.0937,0.031 0.0169,0.017 0.0272,0.04 0.0313,0.063 l -0.21875,0 c 0.004,-0.022 0.0145,-0.046 0.0313,-0.063 0.0224,-0.022 0.0308,-0.031 0.0625,-0.031 z m 0.875,0 c 0.0318,0 0.0401,0.01 0.0625,0.031 0.0224,0.022 0.0313,0.031 0.0313,0.063 0,0.032 -0.009,0.071 -0.0313,0.094 -0.0224,0.022 -0.0308,0.031 -0.0625,0.031 -0.0318,0 -0.0713,-0.01 -0.0937,-0.031 -0.0224,-0.022 -0.0313,-0.062 -0.0313,-0.094 0,-0.032 0.009,-0.04 0.0313,-0.063 0.0224,-0.022 0.062,-0.031 0.0937,-0.031 z m 0.875,0 c 0.0317,0 0.0401,0.01 0.0625,0.031 0.0224,0.022 0.0313,0.031 0.0313,0.063 0,0.032 -0.009,0.071 -0.0313,0.094 -0.0224,0.022 -0.0308,0.031 -0.0625,0.031 -0.0318,0 -0.0713,-0.01 -0.0937,-0.031 -0.0224,-0.022 -0.0313,-0.062 -0.0313,-0.094 0,-0.032 0.009,-0.04 0.0313,-0.063 0.0224,-0.022 0.062,-0.031 0.0937,-0.031 z m 0.625,0 c 0.0317,0 0.0713,0.01 0.0937,0.031 0.0169,0.017 0.0272,0.04 0.0313,0.063 l -0.21875,0 c 0.004,-0.022 0.0145,-0.046 0.0313,-0.063 0.0224,-0.022 0.0308,-0.031 0.0625,-0.031 z m 0.53125,0 c 0.0318,0 0.0713,0.01 0.0937,0.031 0.0224,0.022 0.0313,0.031 0.0313,0.063 0,0.032 -0.009,0.071 -0.0313,0.094 -0.0224,0.022 -0.062,0.031 -0.0937,0.031 -0.0318,0 -0.0401,-0.01 -0.0625,-0.031 -0.0224,-0.022 -0.0313,-0.062 -0.0313,-0.094 0,-0.032 0.009,-0.04 0.0313,-0.063 0.0224,-0.022 0.0307,-0.031 0.0625,-0.031 z m 0.65625,0 c 0.0318,0 0.0713,0.01 0.0937,0.031 0.0224,0.022 0.0313,0.031 0.0313,0.063 0,0.032 -0.009,0.071 -0.0313,0.094 -0.0224,0.022 -0.062,0.031 -0.0937,0.031 -0.0318,0 -0.0713,-0.01 -0.0937,-0.031 -0.0224,-0.022 -0.0313,-0.062 -0.0313,-0.094 0,-0.032 0.009,-0.04 0.0313,-0.063 0.0224,-0.022 0.062,-0.031 0.0937,-0.031 z m 1.03125,0 c 0.0317,0 0.0401,0.01 0.0625,0.031 0.0224,0.022 0.0313,0.031 0.0313,0.063 0,0.032 -0.009,0.071 -0.0313,0.094 -0.0224,0.022 -0.0308,0.031 -0.0625,0.031 -0.0318,0 -0.0713,-0.01 -0.0937,-0.031 -0.0224,-0.022 -0.0313,-0.062 -0.0313,-0.094 0,-0.032 0.009,-0.04 0.0313,-0.063 0.0224,-0.022 0.062,-0.031 0.0937,-0.031 z m 0.53125,0 c 0.0318,0 0.0713,0.01 0.0937,0.031 0.0224,0.022 0.0313,0.031 0.0313,0.063 0,0.032 -0.009,0.071 -0.0313,0.094 -0.0224,0.022 -0.062,0.031 -0.0937,0.031 -0.0318,0 -0.0713,-0.01 -0.0937,-0.031 -0.0224,-0.022 -0.0313,-0.062 -0.0313,-0.094 0,-0.032 0.009,-0.04 0.0313,-0.063 0.0224,-0.022 0.062,-0.031 0.0937,-0.031 z m 0.96875,0 c 0.0318,0 0.0713,0.01 0.0937,0.031 0.0169,0.017 0.0272,0.04 0.0313,0.063 l -0.21875,0 c 0.004,-0.022 0.0145,-0.046 0.0313,-0.063 0.0224,-0.022 0.0308,-0.031 0.0625,-0.031 z m 0.375,0 c 0.0318,0 0.0401,0.01 0.0625,0.031 0.0224,0.022 0.0625,0.031 0.0625,0.063 0,0.032 -0.0401,0.071 -0.0625,0.094 -0.0224,0.022 -0.0308,0.031 -0.0625,0.031 -0.0318,0 -0.0713,-0.01 -0.0937,-0.031 -0.0224,-0.022 -0.0313,-0.062 -0.0313,-0.094 0,-0.032 0.009,-0.04 0.0313,-0.063 0.0224,-0.022 0.062,-0.031 0.0937,-0.031 z m -9,0.875 c -0.33346,0 -0.60802,0.1393 -0.84375,0.375 -0.2357199,0.2356 -0.3437399,0.5103 -0.3437499,0.8437 1e-5,0.3334 0.10803,0.6081 0.3437499,0.8438 0.23573,0.2356 0.51029,0.375 0.84375,0.375 0.33347,0 0.63928,-0.1394 0.875,-0.375 0.23573,-0.2357 0.34375,-0.5104 0.34375,-0.8438 0,-0.3018 -0.0872,-0.5585 -0.28125,-0.7812 -0.0345,-0.033 -0.0776,-0.063 -0.125,-0.063 -0.0474,0 -0.0919,0.028 -0.125,0.063 -0.0345,0.033 -0.0625,0.078 -0.0625,0.125 0,0.04 0.0381,0.062 0.0625,0.094 0.13652,0.1551 0.1875,0.3469 0.1875,0.5625 0,0.2385 -0.0818,0.4568 -0.25,0.625 -0.12649,0.1264 -0.2722,0.1871 -0.4375,0.2187 l 0,-1.875 c 0,-0.047 -0.0294,-0.092 -0.0625,-0.125 -0.0345,-0.034 -0.0776,-0.063 -0.125,-0.063 z m 1.71875,0 c -0.0344,0 -0.0675,0.041 -0.0937,0.063 -0.0172,0.017 -0.0226,0.042 -0.0313,0.063 -0.009,0.021 -0.0313,0.039 -0.0313,0.063 l 0,1.125 c 0,0.3089 0.12384,0.5628 0.34375,0.7812 0.0273,0.027 0.0338,0.07 0.0625,0.094 0.0287,0.024 0.0636,0.042 0.0937,0.063 0.0151,0.01 0.0471,0.022 0.0625,0.031 0.0154,0.01 0.0154,0.023 0.0313,0.031 0.0158,0.01 0.0464,-0.01 0.0625,0 0.0161,0.01 0.0147,0.024 0.0313,0.031 0.0165,0.01 0.0456,0.025 0.0625,0.031 0.0168,0.01 0.0453,0 0.0625,0 0.0111,0 0.0199,0 0.0313,0 0.006,0 -0.006,0.029 0,0.031 0.0157,0 0.0466,0 0.0625,0 0.031,0.01 0.0616,0 0.0937,0 0.005,7e-4 -0.005,0.03 0,0.031 0.0179,0 0.0443,0 0.0625,0 0.0185,8e-4 0.0436,0 0.0625,0 0.0386,0 0.0878,-0.027 0.125,-0.031 0.0173,0 0.0143,0 0.0313,0 0.0344,-0.01 0.0918,0.01 0.125,0 0.01,0 0.0218,-0.029 0.0313,-0.031 0.0101,0 0.0213,0 0.0313,0 0.0172,0 0.0143,0.01 0.0313,0 0.0337,-0.012 0.0616,-0.047 0.0937,-0.063 0.0161,-0.01 0.0467,0.01 0.0625,0 0.0158,-0.01 0.0159,-0.022 0.0313,-0.031 0.0771,-0.047 0.15047,-0.1188 0.21875,-0.1875 0.21991,-0.2184 0.34375,-0.4723 0.34375,-0.7812 l 0,-1.125 c 0,-0.018 0.004,-0.046 0,-0.063 -0.008,-0.027 -0.0409,-0.041 -0.0625,-0.063 -0.008,-0.01 -0.0224,-0.025 -0.0313,-0.031 -0.0203,-0.01 -0.0697,-0.031 -0.0937,-0.031 -0.0344,0 -0.0675,0.041 -0.0937,0.063 -0.0172,0.017 -0.0539,0.042 -0.0625,0.063 -0.009,0.021 0,0.039 0,0.063 l 0,1.125 c 0,0.013 5.6e-4,0.018 0,0.031 -0.002,0.053 -0.019,0.1076 -0.0313,0.1562 -0.006,0.024 0.008,0.039 0,0.063 -0.008,0.023 -0.0206,0.04 -0.0313,0.063 -0.0371,0.078 -0.0903,0.1527 -0.15625,0.2188 -0.019,0.019 -0.0425,0.046 -0.0625,0.063 -0.0102,0.01 -0.0208,0.023 -0.0313,0.031 -0.0203,0.015 -0.0413,0.018 -0.0625,0.031 -0.0215,0.013 -0.0401,0.02 -0.0625,0.031 -0.0221,0.011 -0.0707,0.023 -0.0937,0.031 -0.0117,0 -0.0192,0.027 -0.0313,0.031 -0.0714,0.021 -0.13843,0.031 -0.21875,0.031 -0.0937,0 -0.16813,-0.033 -0.25,-0.063 -0.035,-0.013 -0.0922,-0.013 -0.125,-0.031 -0.0107,-0.01 -0.0208,-0.025 -0.0313,-0.031 -0.0104,-0.01 -0.0211,0.01 -0.0313,0 -0.042,-0.029 -0.0869,-0.087 -0.125,-0.125 -0.0566,-0.057 -0.0896,-0.1221 -0.125,-0.1875 -0.0177,-0.033 -0.0188,-0.059 -0.0313,-0.094 -0.004,-0.012 -0.0272,-0.019 -0.0313,-0.031 -0.007,-0.024 0.005,-0.038 0,-0.063 -0.01,-0.05 -0.0313,-0.1028 -0.0313,-0.1563 l 0,-1.125 c 0,-0.012 0.002,-0.02 0,-0.031 -0.006,-0.033 -0.005,-0.068 -0.0313,-0.094 -0.008,-0.01 -0.0224,-0.025 -0.0313,-0.031 -0.005,0 -0.0265,0 -0.0313,0 -0.0244,-0.013 -0.0332,-0.031 -0.0625,-0.031 -0.006,0 -0.0256,-2e-4 -0.0313,0 z m 3.5,0 c -0.0337,0 -0.0611,0.027 -0.0937,0.031 -0.0195,0 -0.0434,0 -0.0625,0 -0.0135,0 -0.0492,0 -0.0625,0 -0.008,0 -0.0231,0.029 -0.0313,0.031 -0.0237,0.01 -0.0395,-0.01 -0.0625,0 -0.0147,0.01 -0.0168,0.025 -0.0313,0.031 -0.002,7e-4 -0.0292,0 -0.0313,0 -0.0149,0.01 -0.0167,0.024 -0.0313,0.031 -0.0123,0.01 -0.0504,-0.01 -0.0625,0 -0.031,0.016 -0.0641,0.043 -0.0937,0.063 -0.0148,0.01 -0.0168,0.021 -0.0313,0.031 -0.0145,0.011 -0.0172,0.02 -0.0313,0.031 -0.0283,0.023 -0.0668,0.036 -0.0937,0.063 -0.006,0.01 -0.0254,0.026 -0.0313,0.031 -0.21848,0.2198 -0.3125,0.4723 -0.3125,0.7812 l 0,1.125 c 0,0.018 -0.004,0.047 0,0.063 0.008,0.026 0.0409,0.042 0.0625,0.063 0.008,0.01 -0.009,0.025 0,0.031 0.004,0 0.0265,0 0.0313,0 0.024,0.014 0.0329,0.031 0.0625,0.031 0.006,0 0.0254,2e-4 0.0313,0 0.0171,0 0.0475,-0.024 0.0625,-0.031 0.0151,-0.01 0.0179,-0.02 0.0313,-0.031 0.0172,-0.016 0.0538,-0.042 0.0625,-0.063 0.009,-0.02 0,-0.039 0,-0.063 l 0,-1.125 c 0,-0.013 -5.6e-4,-0.018 0,-0.031 10e-4,-0.026 -0.003,-0.037 0,-0.063 0.004,-0.025 0.0256,-0.069 0.0313,-0.094 0.006,-0.024 -0.008,-0.039 0,-0.063 0.008,-0.023 0.0206,-0.04 0.0313,-0.063 0.0371,-0.078 0.0902,-0.1521 0.15625,-0.2187 0.0286,-0.028 0.063,-0.071 0.0937,-0.094 0.0203,-0.015 0.0413,-0.019 0.0625,-0.031 0.1175,-0.072 0.25874,-0.125 0.40625,-0.125 0.0934,0 0.16837,0.034 0.25,0.063 0.0114,0 0.0201,-0.01 0.0313,0 0.0112,0 0.0204,0.027 0.0313,0.031 0.011,0 0.0206,-0.01 0.0313,0 l 0.0313,0 c 0.0107,0.01 0.0208,0.025 0.0313,0.031 0.0105,0.01 0.021,-0.01 0.0313,0 0.042,0.028 0.0557,0.087 0.0937,0.125 0.0849,0.086 0.15036,0.176 0.1875,0.2812 0.004,0.012 0.0272,0.019 0.0313,0.031 0.007,0.024 -0.005,0.038 0,0.063 0.009,0.05 0.0313,0.1027 0.0313,0.1563 l 0,1.125 c 0,0.018 -0.004,0.047 0,0.063 0.008,0.026 0.01,0.042 0.0313,0.063 0.008,0.01 0.0224,0.025 0.0313,0.031 0.004,0 0.0265,0 0.0313,0 0.024,0.014 0.0329,0.031 0.0625,0.031 0.0412,0 0.0936,-0.036 0.125,-0.063 0.0172,-0.016 0.0226,-0.042 0.0313,-0.063 0.008,-0.02 0.0313,-0.039 0.0313,-0.063 l 0,-1.125 c 0,-0.309 -0.12527,-0.5614 -0.34375,-0.7813 -0.005,0 0.005,-0.026 0,-0.031 -0.0269,-0.026 -0.0654,-0.04 -0.0937,-0.063 -0.0142,-0.011 -0.0168,-0.021 -0.0313,-0.031 -0.0145,-0.011 -0.0477,-0.022 -0.0625,-0.031 -0.0297,-0.02 -0.0629,-0.046 -0.0937,-0.063 -0.0155,-0.01 -0.0154,0.01 -0.0313,0 -0.0151,-0.01 -0.0471,-0.025 -0.0625,-0.031 -0.0144,-0.01 -0.0165,-0.026 -0.0313,-0.031 -0.0139,0 -0.0483,0 -0.0625,0 -0.0149,0 -0.0161,-0.027 -0.0313,-0.031 -0.013,0 -0.0494,0 -0.0625,0 -0.0225,-0.01 -0.0394,0 -0.0625,0 -0.0338,-0.01 -0.0587,-0.029 -0.0937,-0.031 -0.0187,-8e-4 -0.0435,0 -0.0625,0 -0.0223,0 -0.0407,-10e-4 -0.0625,0 z m 2.71875,0 c -0.33347,0 -0.60803,0.1393 -0.84375,0.375 -0.23573,0.2356 -0.34375,0.5103 -0.34375,0.8437 0,0.3018 0.0872,0.5585 0.28125,0.7813 0.0345,0.033 0.0776,0.063 0.125,0.063 0.0474,0 0.0919,-0.028 0.125,-0.063 0.0345,-0.033 0.0625,-0.078 0.0625,-0.125 0,-0.04 -0.0381,-0.062 -0.0625,-0.094 -0.13652,-0.1552 -0.1875,-0.347 -0.1875,-0.5625 0,-0.2386 0.0818,-0.4257 0.25,-0.5938 0.12649,-0.1265 0.2722,-0.2184 0.4375,-0.25 l 0,1.875 c 0,0.047 -0.002,0.092 0.0313,0.125 0.0345,0.034 0.0776,0.063 0.125,0.063 0.33346,0 0.63927,-0.1393 0.875,-0.375 0.23572,-0.2357 0.34374,-0.5104 0.34375,-0.8437 -1e-5,-0.3334 -0.10803,-0.6081 -0.34375,-0.8438 -0.23573,-0.2357 -0.54154,-0.375 -0.875,-0.375 z m -8.09375,0.375 0,1.6875 c -0.16529,-0.032 -0.31101,-0.092 -0.4375,-0.2188 -0.16815,-0.1681 -0.25,-0.3865 -0.25,-0.625 0,-0.2385 0.0818,-0.4256 0.25,-0.5937 0.12649,-0.1265 0.27221,-0.2184 0.4375,-0.25 z m 8.28125,0 c 0.16529,0.032 0.31101,0.1235 0.4375,0.25 0.16816,0.1681 0.24999,0.3552 0.25,0.5937 -10e-6,0.2385 -0.0818,0.4569 -0.25,0.625 -0.12649,0.1265 -0.27221,0.1872 -0.4375,0.2188 l 0,-1.6875 z m -0.1875,2.5312 c -0.18017,0 -0.3125,0.1324 -0.3125,0.3125 0,0.1801 0.13233,0.3438 0.3125,0.3438 0.18016,0 0.34375,-0.1637 0.34375,-0.3438 0,-0.1801 -0.16359,-0.3125 -0.34375,-0.3125 z m -5.4375,0.031 c -0.0476,0 -0.0913,0.029 -0.125,0.063 -0.0241,0.025 -0.0313,0.029 -0.0313,0.063 l 0,0.1563 c 0,0.044 0.0311,0.094 0.0625,0.125 0.0314,0.031 0.0494,0.063 0.0937,0.063 0.0444,0 0.0936,-0.031 0.125,-0.063 0.0313,-0.031 0.0625,-0.081 0.0625,-0.125 0,-0.044 -0.0311,-0.062 -0.0625,-0.094 -0.0314,-0.031 -0.0806,-0.063 -0.125,-0.063 -0.0444,0 -0.0623,0.031 -0.0937,0.063 l 0,-0.063 c 0,-0.018 -0.0153,-0.013 0,-0.031 0.0247,-0.025 0.0589,-0.063 0.0937,-0.063 0.0348,0 0.0691,0.038 0.0937,0.063 0.009,0.01 0.0253,0.021 0.0313,0.031 0.005,0.01 0.0253,0 0.0313,0 0.005,0 0,-0.025 0,-0.031 -0.008,-0.014 -0.0188,-0.019 -0.0313,-0.031 -0.0335,-0.034 -0.0774,-0.063 -0.125,-0.063 z m -3.5312499,0.125 c -0.0444,0 -0.0929,0.03 -0.125,0.063 l 0,-0.031 c -0.003,0 -0.0292,0 -0.0313,0 l 0,0.125 c 0,0.044 -1.5e-4,0.094 0.0313,0.125 0.0314,0.031 0.0806,0.063 0.125,0.063 0.0444,0 0.0936,-0.031 0.1249999,-0.063 0.0314,-0.031 0.0313,-0.081 0.0313,-0.125 0,-0.044 1.5e-4,-0.062 -0.0313,-0.094 -0.0314,-0.031 -0.0806,-0.063 -0.1249999,-0.063 z m 0.3749999,0 c -0.0402,0 -0.0953,0.037 -0.125,0.063 0,0.01 -0.005,0.027 0,0.031 0.004,0 0.0253,0 0.0313,0 0.0206,-0.018 0.065,-0.031 0.0937,-0.031 0.0318,0 0.0401,0.01 0.0625,0.031 0.0169,0.017 0.0272,0.04 0.0313,0.063 l -0.25,0 c 0,0.044 -1.5e-4,0.094 0.0313,0.125 0.0314,0.031 0.0806,0.063 0.125,0.063 0.0444,0 0.0623,-0.031 0.0937,-0.063 0.0314,-0.031 0.0625,-0.081 0.0625,-0.125 0,-0.044 -0.0311,-0.062 -0.0625,-0.094 -0.0313,-0.031 -0.0494,-0.063 -0.0937,-0.063 z m 0.625,0 c -0.0444,0 -0.0663,0.034 -0.0937,0.063 -0.0142,0.014 -0.0313,0.012 -0.0313,0.031 0,0.019 0.0177,0.049 0.0313,0.063 0.007,0.01 0.0138,-0.01 0.0313,0 l 0.125,0.063 c 0.009,0 0.0306,0.022 0.0313,0.031 -0.0189,0.02 -0.062,0.031 -0.0937,0.031 -0.0318,0 -0.0401,-0.01 -0.0625,-0.031 -10e-4,0 -0.0272,0 -0.0313,0 -0.006,0 -0.0272,0 -0.0313,0 0,0.01 -0.003,0.027 0,0.031 0.0343,0.038 0.077,0.063 0.125,0.063 0.0444,0 0.0975,-0.034 0.125,-0.063 0.0142,-0.014 0,-0.012 0,-0.031 0,-0.019 0.0136,-0.049 0,-0.063 -0.007,-0.01 -0.0451,-0.024 -0.0625,-0.031 l -0.125,-0.031 c -0.009,0 6.3e-4,-0.022 0,-0.031 0.0189,-0.02 0.0307,-0.031 0.0625,-0.031 0.0318,0 0.0713,0.01 0.0937,0.031 0.004,0 0.0253,0 0.0313,0 0,-0.01 0.003,-0.027 0,-0.031 -0.0341,-0.039 -0.0768,-0.063 -0.125,-0.063 z m 0.34375,0 c -0.0444,0 -0.0929,0.03 -0.125,0.063 l 0,-0.031 c -0.003,0 -0.0292,0 -0.0313,0 l 0,0.125 c 0,0.044 -1.5e-4,0.094 0.0313,0.125 0.0314,0.031 0.0806,0.063 0.125,0.063 0.0444,0 0.0936,-0.031 0.125,-0.063 0.0313,-0.031 0.0313,-0.081 0.0313,-0.125 0,-0.044 1.5e-4,-0.062 -0.0313,-0.094 -0.0314,-0.031 -0.0806,-0.063 -0.125,-0.063 z m 0.53125,0 c -0.0444,0 -0.0623,0.031 -0.0937,0.063 -0.0314,0.031 -0.0625,0.049 -0.0625,0.094 0,0.044 0.0311,0.094 0.0625,0.125 0.0314,0.031 0.0494,0.063 0.0937,0.063 0.0444,0 0.0936,-0.031 0.125,-0.063 0.0314,-0.031 0.0313,-0.081 0.0313,-0.125 0,-0.044 1.5e-4,-0.062 -0.0313,-0.094 -0.0314,-0.031 -0.0806,-0.063 -0.125,-0.063 z m 1.03125,0 c -0.0444,0 -0.0929,0.03 -0.125,0.063 l 0,-0.031 c -0.002,0 -0.0285,0 -0.0313,0 l 0,0.125 c 0,0.044 -1.5e-4,0.094 0.0313,0.125 0.0314,0.031 0.0806,0.063 0.125,0.063 0.0444,0 0.0936,-0.031 0.125,-0.063 0.0314,-0.031 0.0313,-0.081 0.0313,-0.125 0,-0.044 1.5e-4,-0.062 -0.0313,-0.094 -0.0313,-0.031 -0.0806,-0.063 -0.125,-0.063 z m 1.1875,0 c -0.0401,0 -0.0953,0.037 -0.125,0.063 0,0.01 -0.005,0.027 0,0.031 0.004,0 0.0253,0 0.0313,0 0.0206,-0.018 0.065,-0.031 0.0937,-0.031 0.0318,0 0.0401,0.01 0.0625,0.031 0.0169,0.017 0.0272,0.04 0.0313,0.063 l -0.25,0 c 0,0.044 -1.5e-4,0.094 0.0313,0.125 0.0313,0.031 0.0806,0.063 0.125,0.063 0.0444,0 0.0623,-0.031 0.0937,-0.063 0.0314,-0.031 0.0625,-0.081 0.0625,-0.125 0,-0.044 -0.0311,-0.062 -0.0625,-0.094 -0.0314,-0.031 -0.0494,-0.063 -0.0937,-0.063 z m 0.21875,0 c -0.006,0 0.004,0.027 0,0.031 10e-4,0 -0.002,0.029 0,0.031 l 0.0313,0 0,0.375 c 0,0.01 -0.005,0.027 0,0.031 0.004,0 0.0253,0 0.0313,0 0.005,0 0,-0.025 0,-0.031 l 0,-0.4062 c -0.005,-0.01 -0.0253,-0.031 -0.0313,-0.031 l -0.0313,0 z m 0.40625,0 c -0.0444,0 -0.0616,0.03 -0.0937,0.063 l 0,-0.031 c 0,-0.01 -0.0272,0 -0.0313,0 -0.003,0 -0.0292,0 -0.0313,0 l 0,0.125 c 0,0.044 0.0311,0.094 0.0625,0.125 0.0313,0.031 0.0494,0.063 0.0937,0.063 0.0444,0 0.0936,-0.031 0.125,-0.063 0.0314,-0.031 0.0313,-0.081 0.0313,-0.125 0,-0.044 1.5e-4,-0.062 -0.0313,-0.094 -0.0314,-0.031 -0.0806,-0.063 -0.125,-0.063 z m 0.21875,0 c -0.006,0 0.004,0.027 0,0.031 10e-4,0 -0.002,0.029 0,0.031 l 0.1875,0 -0.21875,0.2188 c -0.003,0 0,0.025 0,0.031 0,0.01 0.0263,0 0.0313,0 0.004,0.01 -0.006,0.031 0,0.031 l 0.21875,0 c 0.006,0 0.0263,-0.026 0.0313,-0.031 0,-0.01 0.004,-0.026 0,-0.031 -0.005,-0.01 -0.0253,0 -0.0313,0 l -0.15625,0 0.1875,-0.2188 c 0.003,0 0,-0.026 0,-0.031 -0.005,-0.01 -0.0253,-0.031 -0.0313,-0.031 l -0.21875,0 z m 0.3125,0 c -0.006,0 0.004,0.027 0,0.031 0,0.01 -0.005,0.027 0,0.031 0.0459,0 0.0625,0.017 0.0625,0.063 l 0,0.1563 -0.0313,0 c -0.006,0 -0.0272,0 -0.0313,0 -0.005,0 0,0.025 0,0.031 0.004,0.01 0.0253,0.031 0.0313,0.031 l 0.0313,0 0,0.094 c 0,0.01 0.0263,0.027 0.0313,0.031 0.006,0 0.0263,0 0.0313,0 0.005,0 0,-0.025 0,-0.031 l 0,-0.094 0.0313,0 c 0.006,0 -0.005,-0.026 0,-0.031 0,-0.01 0.004,-0.026 0,-0.031 l -0.0313,0 0,-0.1563 c 0,-0.076 -0.0485,-0.125 -0.125,-0.125 z m 0.34375,0 c -0.0444,0 -0.0616,0.03 -0.0937,0.063 l 0,-0.031 c 0,-0.01 -0.0272,0 -0.0313,0 -0.003,0 -0.0292,0 -0.0313,0 l 0,0.125 c 0,0.044 0.0311,0.094 0.0625,0.125 0.0314,0.031 0.0494,0.063 0.0937,0.063 0.0444,0 0.0936,-0.031 0.125,-0.063 0.0314,-0.031 0.0313,-0.081 0.0313,-0.125 0,-0.044 1.5e-4,-0.062 -0.0313,-0.094 -0.0314,-0.031 -0.0806,-0.063 -0.125,-0.063 z m -5.03125,0.031 c 0,0.01 -0.004,0.026 0,0.031 l 0.125,0.125 -0.125,0.094 c -0.005,0 0,0.025 0,0.031 0.004,0.01 0.0253,0.031 0.0313,0.031 l 0.15625,-0.1562 -0.15625,-0.1563 c -0.003,10e-4 -0.0292,0 -0.0313,0 z m 0.21875,0 0,0.125 0,0.031 0,0.25 c 0,0.01 -0.005,0.027 0,0.031 0.004,0 0.0253,0 0.0313,0 0.005,0 0.0313,-0.025 0.0313,-0.031 l 0,-0.4062 c 0,-0.01 -0.0272,0 -0.0313,0 -0.003,0 -0.0292,0 -0.0313,0 z m 1.28125,0 c 0,0.01 -0.004,0.026 0,0.031 l 0.15625,0.125 -0.125,-0.1562 c -0.003,0 -0.0292,0 -0.0313,0 z m 0.15625,0.1563 -0.125,0.094 -0.0313,0 c -0.005,0 0,0.025 0,0.031 0.004,0.01 0.0253,0.031 0.0313,0.031 l 0.21875,-0.1563 0,0.25 c 0,0.01 -0.005,0.027 0,0.031 0.006,0 0.0263,0 0.0313,0 0.005,0 0,-0.025 0,-0.031 l 0,-0.4062 c -0.002,0 -0.0285,0 -0.0313,0 l 0,0.125 -0.0625,0.031 -0.0313,0 z m 0.1875,-0.1563 0,0.2813 c 0.002,0 0.0285,-10e-4 0.0313,0 0.005,0 0.0313,0.01 0.0313,0 l 0,-0.2813 c 0,-0.01 -0.0272,0 -0.0313,0 -0.003,10e-4 -0.0292,0 -0.0313,0 z m 0.21875,0 0,0.25 -0.0625,0 c -0.006,0 -0.0272,0 -0.0313,0 0,0.01 -0.005,0.027 0,0.031 0.004,0.01 0.0253,0 0.0313,0 l 0.0625,0 0,0.031 c 0,0.061 -0.0326,0.094 -0.0937,0.094 -0.006,0 -0.0272,0 -0.0313,0 0,0.01 -0.005,0.027 0,0.031 0.004,0 0.0253,0 0.0313,0 0.0918,0 0.125,-0.033 0.125,-0.125 l 0,-0.031 0.0313,0 c 0.006,0 0.0263,0.01 0.0313,0 0.005,0 0,-0.025 0,-0.031 -0.005,-0.01 -0.0253,0 -0.0313,0 l -0.0313,0 0,-0.25 c -0.003,10e-4 -0.0292,0 -0.0313,0 z m 0.65625,0 0,0.125 c 0,0.032 -0.009,0.071 -0.0313,0.094 -0.0224,0.022 -0.0308,0.031 -0.0625,0.031 -0.0163,0 -0.0489,0.01 -0.0625,0 -0.006,0 -0.0272,0 -0.0313,0 -0.005,0 0,0.025 0,0.031 0.002,0 0.0283,-0 0.0313,0 0.0188,0.01 0.0401,0.031 0.0625,0.031 0.0444,0 0.0616,-0.03 0.0937,-0.063 l 0,0.031 c 0,0.01 0.0263,0 0.0313,0 0.003,-10e-4 0.0288,0 0.0313,0 l 0,-0.2812 c -0.002,0 -0.0285,0 -0.0313,0 -0.005,0 -0.0313,-0.01 -0.0313,0 z m 1.15625,0 0,0.2813 c 0,0.01 0.0263,0 0.0313,0 0.003,-10e-4 0.0288,0 0.0313,0 l 0,-0.2813 c -0.002,0 -0.0285,10e-4 -0.0313,0 -0.005,0 -0.0313,-0.01 -0.0313,0 z m 1.75,0 0,0.2813 c 0.003,-10e-4 0.0288,0 0.0313,0 l 0,-0.2813 c -0.002,0 -0.0285,10e-4 -0.0313,0 z m -6.1874999,0.031 c 0.0318,0 0.0713,0.01 0.0937,0.031 0.0224,0.022 0.0313,0.031 0.0313,0.063 0,0.032 -0.009,0.071 -0.0313,0.094 -0.0224,0.022 -0.062,0.031 -0.0937,0.031 -0.0317,0 -0.0713,-0.01 -0.0937,-0.031 -0.0224,-0.022 -0.0312,-0.062 -0.0313,-0.094 0,-0.032 0.009,-0.04 0.0313,-0.063 0.0224,-0.022 0.062,-0.031 0.0937,-0.031 z m 1.3437499,0 c 0.0317,0 0.0713,0.01 0.0937,0.031 0.0224,0.022 0.0313,0.031 0.0313,0.063 0,0.032 -0.009,0.071 -0.0313,0.094 -0.0224,0.022 -0.062,0.031 -0.0937,0.031 -0.0318,0 -0.0713,-0.01 -0.0937,-0.031 -0.0224,-0.022 -0.0313,-0.062 -0.0313,-0.094 0,-0.032 0.009,-0.04 0.0313,-0.063 0.0224,-0.022 0.062,-0.031 0.0937,-0.031 z m 0.53125,0 c 0.0318,0 0.0713,0.01 0.0937,0.031 0.0224,0.022 0.0313,0.031 0.0313,0.063 0,0.032 -0.009,0.071 -0.0313,0.094 -0.0224,0.022 -0.062,0.031 -0.0937,0.031 -0.0317,0 -0.0401,-0.01 -0.0625,-0.031 -0.0224,-0.022 -0.0313,-0.062 -0.0313,-0.094 0,-0.032 0.009,-0.04 0.0313,-0.063 0.0224,-0.022 0.0308,-0.031 0.0625,-0.031 z m 1.03125,0 c 0.0318,0 0.0401,0.01 0.0625,0.031 0.0224,0.022 0.0625,0.031 0.0625,0.063 0,0.032 -0.0401,0.071 -0.0625,0.094 -0.0224,0.022 -0.0307,0.031 -0.0625,0.031 -0.0318,0 -0.0713,-0.01 -0.0937,-0.031 -0.0224,-0.022 -0.0313,-0.062 -0.0313,-0.093 0,-0.032 0.009,-0.04 0.0313,-0.063 0.0224,-0.022 0.062,-0.031 0.0937,-0.031 z m 0.625,0 c 0.0317,0 0.0713,0.01 0.0937,0.031 0.0224,0.022 0.0313,0.031 0.0313,0.063 0,0.032 -0.009,0.071 -0.0313,0.094 -0.0224,0.022 -0.062,0.031 -0.0937,0.031 -0.0318,0 -0.0401,-0.01 -0.0625,-0.031 -0.0224,-0.022 -0.0313,-0.062 -0.0313,-0.094 0,-0.032 0.009,-0.04 0.0313,-0.063 0.0224,-0.022 0.0308,-0.031 0.0625,-0.031 z m 1.1875,0 c 0.0318,0 0.0713,0.01 0.0937,0.031 0.0224,0.022 0.0313,0.031 0.0313,0.063 0,0.032 -0.009,0.071 -0.0313,0.094 -0.0224,0.022 -0.062,0.031 -0.0937,0.031 -0.0318,0 -0.0401,-0.01 -0.0625,-0.031 -0.0224,-0.022 -0.0313,-0.062 -0.0313,-0.094 0,-0.032 0.009,-0.04 0.0313,-0.063 0.0224,-0.022 0.0307,-0.031 0.0625,-0.031 z m 0.875,0 c 0.0318,0 0.0713,0.01 0.0937,0.031 0.0224,0.022 0.0313,0.031 0.0313,0.063 0,0.032 -0.009,0.071 -0.0313,0.094 -0.0224,0.022 -0.062,0.031 -0.0937,0.031 -0.0317,0 -0.0401,-0.01 -0.0625,-0.031 -0.0224,-0.022 -0.0313,-0.062 -0.0313,-0.094 0,-0.032 0.009,-0.04 0.0313,-0.063 0.0224,-0.022 0.0308,-0.031 0.0625,-0.031 z m -5.34375,0.125 0.21875,0 c -0.004,0.022 -0.0145,0.046 -0.0313,0.063 -0.0224,0.022 -0.0307,0.031 -0.0625,0.031 -0.0318,0 -0.0713,-0.01 -0.0937,-0.031 -0.0169,-0.017 -0.0272,-0.041 -0.0313,-0.063 z m 3.71875,0 0.21875,0 c -0.004,0.022 -0.0145,0.046 -0.0313,0.063 -0.0224,0.022 -0.0308,0.031 -0.0625,0.031 -0.0317,0 -0.0713,-0.01 -0.0937,-0.031 -0.0169,-0.017 -0.0272,-0.041 -0.0313,-0.063 z m -1.5625,0.1875 c -0.006,0.01 0,0.023 0,0.031 0.006,0.01 0.0233,0.031 0.0313,0.031 0.008,0 0.0253,-0.025 0.0313,-0.031 0,-0.01 0.006,-0.025 0,-0.031 -0.006,0 -0.0233,0 -0.0313,0 -0.008,0 -0.0253,-0.01 -0.0313,0 z m 2.0625,0 c -0.003,0 0.002,0.028 0,0.031 0.003,-10e-4 0.0283,0 0.0313,0 0,-0.01 0.006,-0.025 0,-0.031 -0.006,0 -0.0233,0 -0.0313,0 z m 1.71875,0 c -0.003,0 0.002,0.028 0,0.031 0.003,-10e-4 0.0283,0 0.0313,0 0,-0.01 0.006,-0.025 0,-0.031 -0.006,0 -0.0233,0 -0.0313,0 z m 0.8125,0 c -0.003,0 0.002,0.028 0,0.031 0.003,-10e-4 0.0283,0 0.0313,0 0,-0.01 0.006,-0.025 0,-0.031 -0.006,0 -0.0233,0 -0.0313,0 z"
       id="path5362-2-2-5" />
  </g>
</svg>
