<?xml version="1.0" encoding="UTF-8" standalone="no"?>
<!-- Created with Inkscape (http://www.inkscape.org/) -->

<svg
   xmlns:dc="http://purl.org/dc/elements/1.1/"
   xmlns:cc="http://creativecommons.org/ns#"
   xmlns:rdf="http://www.w3.org/1999/02/22-rdf-syntax-ns#"
   xmlns:svg="http://www.w3.org/2000/svg"
   xmlns="http://www.w3.org/2000/svg"
   xmlns:sodipodi="http://sodipodi.sourceforge.net/DTD/sodipodi-0.dtd"
   xmlns:inkscape="http://www.inkscape.org/namespaces/inkscape"
   width="30"
   height="30"
   id="svg2"
   sodipodi:version="0.32"
   inkscape:version="0.48.4 r9939"
   sodipodi:docname="wc.svg"
   inkscape:output_extension="org.inkscape.output.svg.inkscape"
   version="1.1">
  <defs
     id="defs4" />
  <sodipodi:namedview
     id="base"
     pagecolor="#ffffff"
     bordercolor="#666666"
     borderopacity="1.0"
     inkscape:pageopacity="0.0"
     inkscape:pageshadow="2"
     inkscape:zoom="11.6"
     inkscape:cx="15"
     inkscape:cy="15"
     inkscape:document-units="px"
     inkscape:current-layer="layer1"
     inkscape:window-width="698"
     inkscape:window-height="1029"
     inkscape:window-x="0"
     inkscape:window-y="19"
     showgrid="false"
     inkscape:window-maximized="0" />
  <metadata
     id="metadata7">
    <rdf:RDF>
      <cc:Work
         rdf:about="">
        <dc:format>image/svg+xml</dc:format>
        <dc:type
           rdf:resource="http://purl.org/dc/dcmitype/StillImage" />
        <dc:title></dc:title>
      </cc:Work>
    </rdf:RDF>
  </metadata>
  <g
     inkscape:label="Capa 1"
     inkscape:groupmode="layer"
     id="layer1"
     transform="translate(0,-1022.3622)">
    <path
       sodipodi:type="arc"
       style="color:#000000;fill:#1a1a1a;stroke:#d4d4d4;stroke-width:1.02777779;stroke-opacity:1;marker:none;visibility:visible;display:inline;overflow:visible;enable-background:accumulate"
       id="path16617-6-6"
       sodipodi:cx="15.16226"
       sodipodi:cy="16.56851"
       sodipodi:rx="14.008413"
       sodipodi:ry="14.008413"
       d="m 29.170673,16.56851 a 14.008413,14.008413 0 1 1 -28.0168263,0 14.008413,14.008413 0 1 1 28.0168263,0 z"
       transform="matrix(0.97297297,0,0,0.97297297,330.50795,953.63241)" />
    <path
       style="fill:#1a1a1a;stroke:#d4d4d4;stroke-width:1px;stroke-linecap:butt;stroke-linejoin:miter;stroke-opacity:1"
       d="m 345.29648,957.89011 0,11.863 0,0"
       id="path16623-6-2"
       inkscape:connector-curvature="0"
       inkscape:transform-center-y="-5.9314904" />
    <path
       style="fill:#1a1a1a;stroke:#d4d4d4;stroke-width:1px;stroke-linecap:butt;stroke-linejoin:miter;stroke-opacity:1"
       d="m 357.15947,969.75311 -1.70877,0 0,0"
       id="path16623-4-2-0"
       inkscape:connector-curvature="0"
       inkscape:transform-center-x="-0.854382" />
    <path
       style="fill:#1a1a1a;stroke:#d4d4d4;stroke-width:0.99999994px;stroke-linecap:butt;stroke-linejoin:miter;stroke-opacity:1"
       d="m 345.29648,981.61611 0,-2.0181 0,0"
       id="path16623-4-3-9-0"
       inkscape:connector-curvature="0"
       inkscape:transform-center-y="1.0091015" />
    <path
       style="fill:#1a1a1a;stroke:#d4d4d4;stroke-width:1px;stroke-linecap:butt;stroke-linejoin:miter;stroke-opacity:1"
       d="m 333.43348,969.75311 11.863,0 0,0"
       id="path16623-4-3-4-1-0"
       inkscape:connector-curvature="0"
       inkscape:transform-center-x="5.9315" />
    <path
       inkscape:connector-curvature="0"
       sodipodi:nodetypes="cccccccccccccc"
       id="path9518-0-7"
       d="m 14.999994,1025.9915 -11.2422196,9.9235 2.2484301,0 0,12.8177 6.7453475,0 0,-7.5644 4.651059,0 1.3e-5,7.5644 6.591159,0 0,-12.8177 2.248444,0 -11.242237,-9.9235 0,0 0,0 z"
       style="font-size:12px;fill:none;stroke:none" />
    <path
       inkscape:connector-curvature="0"
       style="fill:#1a1a1a;fill-opacity:1;stroke:none"
       d="m 15.09375,1025.2531 c -0.175298,0 -0.360574,1.2837 -0.5,3.1563 -1.415097,0.1737 -2.718801,0.5584 -3.84375,1.3125 -1.3491218,0.8785 -2.6754928,1.367 -3.9375002,1.375 -1.0899288,0.086 -3.65625,-1.8821 -3.65625,-1.4375 0,0.3889 1.272642,1.6187 2.9375,2.0625 l -4.28125,10.3437 -0.09375,0 c 0.266905,1.7712 2.237649,3.1563 4.625,3.1563 2.3873524,0 4.3580952,-1.3851 4.6250002,-3.1563 l -0.09375,0 -4.1875002,-10.25 c 0.044005,0.01 0.080621,0.027 0.125,0.031 1.9482404,-0.031 2.9178304,-0.587 3.9375002,-1.125 1.252649,-0.4627 2.334889,-1.3169 3.78125,-1.3437 -0.406654,6.3347 -0.642655,17.5556 -0.65625,18.25 l -5.2499998,0 c -0.254936,0 -0.46875,0.2138 -0.46875,0.4687 l 0,0.9063 c 0,0.2549 0.213814,0.4687 0.46875,0.4687 l 12.9999998,0 c 0.254936,0 0.46875,-0.2138 0.46875,-0.4687 l 0,-0.9063 c 0,-0.255 -0.213814,-0.4688 -0.46875,-0.4688 l -5.34375,0 c -0.0136,-0.6944 -0.249596,-11.9152 -0.65625,-18.25 1.446361,0.027 2.528601,0.8811 3.78125,1.3438 1.019669,0.538 1.95801,1.0935 3.90625,1.125 0.02043,0 0.04215,0 0.0625,0 l -4.25,10.2187 -0.09375,0 c 0.266905,1.7712 2.237648,3.1563 4.625,3.1563 2.387352,0 4.358095,-1.3851 4.625,-3.1563 l -0.09375,0 -4.21875,-10.3125 c 1.710282,-0.4219 3,-1.6976 3,-2.0937 0,-0.4446 -2.566321,1.5231 -3.65625,1.4375 -1.262007,-0.01 -2.557128,-0.4965 -3.90625,-1.375 -1.121678,-0.7519 -2.433411,-1.1381 -3.84375,-1.3125 -0.139426,-1.8726 -0.293452,-3.1563 -0.46875,-3.1563 z m -8.7187502,7 4.0312502,9.8125 -8.1250002,0 4.09375,-9.8125 z m 17.3125002,0 4.03125,9.8125 -8.125,0 4.09375,-9.8125 z"
       id="path3431-5" />
  </g>
</svg>
