<?xml version="1.0" encoding="UTF-8" standalone="no"?>
<!-- Created with Inkscape (http://www.inkscape.org/) -->

<svg
   xmlns:dc="http://purl.org/dc/elements/1.1/"
   xmlns:cc="http://creativecommons.org/ns#"
   xmlns:rdf="http://www.w3.org/1999/02/22-rdf-syntax-ns#"
   xmlns:svg="http://www.w3.org/2000/svg"
   xmlns="http://www.w3.org/2000/svg"
   xmlns:sodipodi="http://sodipodi.sourceforge.net/DTD/sodipodi-0.dtd"
   xmlns:inkscape="http://www.inkscape.org/namespaces/inkscape"
   width="30"
   height="30"
   id="svg2"
   sodipodi:version="0.32"
   inkscape:version="0.48.4 r9939"
   sodipodi:docname="bottle.svg"
   inkscape:output_extension="org.inkscape.output.svg.inkscape"
   version="1.1">
  <defs
     id="defs4" />
  <sodipodi:namedview
     id="base"
     pagecolor="#ffffff"
     bordercolor="#666666"
     borderopacity="1.0"
     inkscape:pageopacity="0.0"
     inkscape:pageshadow="2"
     inkscape:zoom="10.276087"
     inkscape:cx="15.344828"
     inkscape:cy="14.482759"
     inkscape:document-units="px"
     inkscape:current-layer="layer1"
     inkscape:window-width="656"
     inkscape:window-height="1029"
     inkscape:window-x="0"
     inkscape:window-y="19"
     showgrid="false"
     inkscape:window-maximized="0" />
  <metadata
     id="metadata7">
    <rdf:RDF>
      <cc:Work
         rdf:about="">
        <dc:format>image/svg+xml</dc:format>
        <dc:type
           rdf:resource="http://purl.org/dc/dcmitype/StillImage" />
        <dc:title></dc:title>
      </cc:Work>
    </rdf:RDF>
  </metadata>
  <g
     inkscape:label="Capa 1"
     inkscape:groupmode="layer"
     id="layer1"
     transform="translate(0,-1022.3622)">
    <path
       sodipodi:type="arc"
       style="color:#000000;fill:#1a1a1a;stroke:#d4d4d4;stroke-width:1.02777779;stroke-opacity:1;marker:none;visibility:visible;display:inline;overflow:visible;enable-background:accumulate"
       id="path16617-6-6"
       sodipodi:cx="15.16226"
       sodipodi:cy="16.56851"
       sodipodi:rx="14.008413"
       sodipodi:ry="14.008413"
       d="m 29.170673,16.56851 a 14.008413,14.008413 0 1 1 -28.0168263,0 14.008413,14.008413 0 1 1 28.0168263,0 z"
       transform="matrix(0.97297297,0,0,0.97297297,330.50795,953.63241)" />
    <path
       style="fill:#1a1a1a;stroke:#d4d4d4;stroke-width:1px;stroke-linecap:butt;stroke-linejoin:miter;stroke-opacity:1"
       d="m 345.29648,957.89011 0,11.863 0,0"
       id="path16623-6-2"
       inkscape:connector-curvature="0"
       inkscape:transform-center-y="-5.9314904" />
    <path
       style="fill:#1a1a1a;stroke:#d4d4d4;stroke-width:1px;stroke-linecap:butt;stroke-linejoin:miter;stroke-opacity:1"
       d="m 357.15947,969.75311 -1.70877,0 0,0"
       id="path16623-4-2-0"
       inkscape:connector-curvature="0"
       inkscape:transform-center-x="-0.854382" />
    <path
       style="fill:#1a1a1a;stroke:#d4d4d4;stroke-width:0.99999994px;stroke-linecap:butt;stroke-linejoin:miter;stroke-opacity:1"
       d="m 345.29648,981.61611 0,-2.0181 0,0"
       id="path16623-4-3-9-0"
       inkscape:connector-curvature="0"
       inkscape:transform-center-y="1.0091015" />
    <path
       style="fill:#1a1a1a;stroke:#d4d4d4;stroke-width:1px;stroke-linecap:butt;stroke-linejoin:miter;stroke-opacity:1"
       d="m 333.43348,969.75311 11.863,0 0,0"
       id="path16623-4-3-4-1-0"
       inkscape:connector-curvature="0"
       inkscape:transform-center-x="5.9315" />
    <path
       inkscape:connector-curvature="0"
       sodipodi:nodetypes="cccccccccccccc"
       id="path9518-0-7"
       d="m 14.999994,1025.9915 -11.2422196,9.9235 2.2484301,0 0,12.8177 6.7453475,0 0,-7.5644 4.651059,0 1.3e-5,7.5644 6.591159,0 0,-12.8177 2.248444,0 -11.242237,-9.9235 0,0 0,0 z"
       style="font-size:12px;fill:none;stroke:none" />
    <path
       style="fill:#1a1a1a;fill-opacity:1"
       d="m 7.3177942,1025.2584 c -0.101325,0.021 -0.14984,0.1162 -0.112104,0.2467 l 1.076201,3.7218 c 0.05031,0.1742 0.112111,0.469 0.112111,0.6503 l 0,1.39 c 0,0.062 0.01421,0.1076 0.04484,0.157 -3.271734,1.4273 -5.67736,4.4849 -6.14331,8.1612 -0.05471,0.4316 -0.06726,0.8537 -0.06726,1.3003 0,3.5645 1.795012,6.7258 4.529009,8.5872 l 11.5691508,0 c 2.734087,-1.8614 4.529009,-5.0227 4.529009,-8.5872 -8.9e-5,-0.4466 -0.03488,-0.8687 -0.08968,-1.3003 -0.46582,-3.6763 -2.855613,-6.7339 -6.120889,-8.1612 0.029,-0.049 0.04484,-0.096 0.04484,-0.157 l 0,-0.5381 4.932584,-0.5829 c 0.179995,-0.022 0.34259,0.1148 0.381154,0.2915 l 2.062717,9.4615 c 0.03857,0.1772 0.208515,0.4144 0.358734,0.5157 l 2.040296,1.3676 c 0.15022,0.1019 0.377119,0.095 0.515679,-0.023 l 0.695046,-0.5605 c 0.138643,-0.1177 0.123045,-0.318 -0.02243,-0.426 l -1.793667,-1.3229 c -0.145467,-0.1076 -0.285014,-0.3592 -0.313892,-0.5381 l -1.748825,-10.8068 c -0.02888,-0.1791 -0.199815,-0.3139 -0.381154,-0.3139 l -6.726251,0 0,-0.112 c 0,-0.1812 -0.159457,-0.3633 -0.336313,-0.4035 l -8.9010708,-2.0181 c -0.04419,-0.014 -0.100751,0 -0.134525,0 z m 5.2240548,6.4796 c 4.640307,0 8.465481,3.2567 9.035597,7.4662 l -18.0936148,0 c 0.570297,-4.2095 4.417712,-7.4662 9.0580178,-7.4662 z"
       id="path11524-1"
       inkscape:connector-curvature="0" />
  </g>
</svg>
