<?xml version="1.0" encoding="UTF-8" standalone="no"?>
<!-- Created with Inkscape (http://www.inkscape.org/) -->

<svg
   xmlns:dc="http://purl.org/dc/elements/1.1/"
   xmlns:cc="http://creativecommons.org/ns#"
   xmlns:rdf="http://www.w3.org/1999/02/22-rdf-syntax-ns#"
   xmlns:svg="http://www.w3.org/2000/svg"
   xmlns="http://www.w3.org/2000/svg"
   xmlns:sodipodi="http://sodipodi.sourceforge.net/DTD/sodipodi-0.dtd"
   xmlns:inkscape="http://www.inkscape.org/namespaces/inkscape"
   width="30"
   height="30"
   id="svg2"
   sodipodi:version="0.32"
   inkscape:version="0.48.4 r9939"
   sodipodi:docname="phone.svg"
   inkscape:output_extension="org.inkscape.output.svg.inkscape"
   version="1.1">
  <defs
     id="defs4" />
  <sodipodi:namedview
     id="base"
     pagecolor="#ffffff"
     bordercolor="#666666"
     borderopacity="1.0"
     inkscape:pageopacity="0.0"
     inkscape:pageshadow="2"
     inkscape:zoom="11.6"
     inkscape:cx="15"
     inkscape:cy="15"
     inkscape:document-units="px"
     inkscape:current-layer="layer1"
     inkscape:window-width="698"
     inkscape:window-height="1029"
     inkscape:window-x="0"
     inkscape:window-y="19"
     showgrid="false"
     inkscape:window-maximized="0" />
  <metadata
     id="metadata7">
    <rdf:RDF>
      <cc:Work
         rdf:about="">
        <dc:format>image/svg+xml</dc:format>
        <dc:type
           rdf:resource="http://purl.org/dc/dcmitype/StillImage" />
        <dc:title></dc:title>
      </cc:Work>
    </rdf:RDF>
  </metadata>
  <g
     inkscape:label="Capa 1"
     inkscape:groupmode="layer"
     id="layer1"
     transform="translate(0,-1022.3622)">
    <path
       sodipodi:type="arc"
       style="color:#000000;fill:#1a1a1a;stroke:#d4d4d4;stroke-width:1.02777779;stroke-opacity:1;marker:none;visibility:visible;display:inline;overflow:visible;enable-background:accumulate"
       id="path16617-6-6"
       sodipodi:cx="15.16226"
       sodipodi:cy="16.56851"
       sodipodi:rx="14.008413"
       sodipodi:ry="14.008413"
       d="m 29.170673,16.56851 a 14.008413,14.008413 0 1 1 -28.0168263,0 14.008413,14.008413 0 1 1 28.0168263,0 z"
       transform="matrix(0.97297297,0,0,0.97297297,330.50795,953.63241)" />
    <path
       style="fill:#1a1a1a;stroke:#d4d4d4;stroke-width:1px;stroke-linecap:butt;stroke-linejoin:miter;stroke-opacity:1"
       d="m 345.29648,957.89011 0,11.863 0,0"
       id="path16623-6-2"
       inkscape:connector-curvature="0"
       inkscape:transform-center-y="-5.9314904" />
    <path
       style="fill:#1a1a1a;stroke:#d4d4d4;stroke-width:1px;stroke-linecap:butt;stroke-linejoin:miter;stroke-opacity:1"
       d="m 357.15947,969.75311 -1.70877,0 0,0"
       id="path16623-4-2-0"
       inkscape:connector-curvature="0"
       inkscape:transform-center-x="-0.854382" />
    <path
       style="fill:#1a1a1a;stroke:#d4d4d4;stroke-width:0.99999994px;stroke-linecap:butt;stroke-linejoin:miter;stroke-opacity:1"
       d="m 345.29648,981.61611 0,-2.0181 0,0"
       id="path16623-4-3-9-0"
       inkscape:connector-curvature="0"
       inkscape:transform-center-y="1.0091015" />
    <path
       style="fill:#1a1a1a;stroke:#d4d4d4;stroke-width:1px;stroke-linecap:butt;stroke-linejoin:miter;stroke-opacity:1"
       d="m 333.43348,969.75311 11.863,0 0,0"
       id="path16623-4-3-4-1-0"
       inkscape:connector-curvature="0"
       inkscape:transform-center-x="5.9315" />
    <path
       inkscape:connector-curvature="0"
       d="m 12.855975,1043.8131 c 0,0 -2.34939,-2.755 -4.7922497,-6.7626 -1.93821,-3.1797 -3.73079,-7.3678 -3.89496,-7.8129 1.32316,-0.962 8.0754497,-4.0029 9.4444597,-4.3009 0.39808,1.5377 1.02129,4.5494 2.338,7.475 1.36037,3.0229 2.99793,5.3795 3.60742,6.176 -1.45849,1.3758 -6.70267,5.2254 -6.70267,5.2254 z m 4.60112,-1.6852 c 0.16975,1.409 4.91725,7.9593 6.52236,9.1473 0.61955,0.4585 1.05273,0.084 2.10503,-0.6591 1.05227,-0.7437 1.44842,-1.3772 1.06496,-2.2728 -0.78707,-1.8384 -4.22994,-8.4383 -5.84637,-9.496 -1.55523,-2.2639 -2.85838,-3.9754 -4.13994,-7.1141 -1.32597,-3.2473 -2.17224,-6.5462 -2.67963,-8.4842 -1.80509,0.5237 -4.7943198,1.7907 -6.6333497,2.6388 -2.04898,0.9449 -3.51473,1.8673 -5.14295,2.7407 0.51502,1.4976 1.74645,5.1862 4.31814,9.1711 2.0320399,3.1487 3.7403897,5.6556 5.6668397,7.5628 l 4.76491,-3.2345 z m -7.13903,-13.1029 c 0,-0.7285 0.62362,-1.3195 1.39291,-1.3195 0.76928,0 1.39291,0.591 1.39291,1.3195 0,0.7288 -0.62363,1.3197 -1.39291,1.3197 -0.76929,0 -1.39291,-0.5909 -1.39291,-1.3197 z"
       id="path4036-2"
       style="fill:#1a1a1a;fill-opacity:1;fill-rule:evenodd;stroke:none" />
  </g>
</svg>
