<?xml version="1.0" encoding="UTF-8" standalone="no"?>
<!-- Created with Inkscape (http://www.inkscape.org/) -->

<svg
   xmlns:dc="http://purl.org/dc/elements/1.1/"
   xmlns:cc="http://creativecommons.org/ns#"
   xmlns:rdf="http://www.w3.org/1999/02/22-rdf-syntax-ns#"
   xmlns:svg="http://www.w3.org/2000/svg"
   xmlns="http://www.w3.org/2000/svg"
   xmlns:sodipodi="http://sodipodi.sourceforge.net/DTD/sodipodi-0.dtd"
   xmlns:inkscape="http://www.inkscape.org/namespaces/inkscape"
   width="30"
   height="30"
   id="svg2"
   sodipodi:version="0.32"
   inkscape:version="0.48.4 r9939"
   sodipodi:docname="link2.svg"
   inkscape:output_extension="org.inkscape.output.svg.inkscape"
   version="1.1">
  <defs
     id="defs4">
    <clipPath
       clipPathUnits="userSpaceOnUse"
       id="clipPath17670-8">
      <path
         inkscape:connector-curvature="0"
         d="m 0,288.75 201.25,0 L 201.25,0 0,0 0,288.75 z"
         id="path17672-4" />
    </clipPath>
    <clipPath
       clipPathUnits="userSpaceOnUse"
       id="clipPath18098-9">
      <path
         inkscape:connector-curvature="0"
         d="m 0,288.75 201.25,0 L 201.25,0 0,0 0,288.75 z"
         id="path18100-2" />
    </clipPath>
    <clipPath
       clipPathUnits="userSpaceOnUse"
       id="clipPath17356-3">
      <path
         inkscape:connector-curvature="0"
         d="m 0,288.75 201.25,0 L 201.25,0 0,0 0,288.75 z"
         id="path17358-6" />
    </clipPath>
    <clipPath
       clipPathUnits="userSpaceOnUse"
       id="clipPath18256-8">
      <path
         inkscape:connector-curvature="0"
         d="m 0,288.75 201.25,0 L 201.25,0 0,0 0,288.75 z"
         id="path18258-5" />
    </clipPath>
    <clipPath
       clipPathUnits="userSpaceOnUse"
       id="clipPath17038-7">
      <path
         inkscape:connector-curvature="0"
         d="m 0,288.75 201.25,0 L 201.25,0 0,0 0,288.75 z"
         id="path17040-4" />
    </clipPath>
  </defs>
  <sodipodi:namedview
     id="base"
     pagecolor="#ffffff"
     bordercolor="#666666"
     borderopacity="1.0"
     inkscape:pageopacity="0.0"
     inkscape:pageshadow="2"
     inkscape:zoom="10.2"
     inkscape:cx="15"
     inkscape:cy="15"
     inkscape:document-units="px"
     inkscape:current-layer="layer1"
     inkscape:window-width="656"
     inkscape:window-height="1029"
     inkscape:window-x="0"
     inkscape:window-y="19"
     showgrid="false"
     inkscape:window-maximized="0" />
  <metadata
     id="metadata7">
    <rdf:RDF>
      <cc:Work
         rdf:about="">
        <dc:format>image/svg+xml</dc:format>
        <dc:type
           rdf:resource="http://purl.org/dc/dcmitype/StillImage" />
        <dc:title></dc:title>
      </cc:Work>
    </rdf:RDF>
  </metadata>
  <g
     inkscape:label="Capa 1"
     inkscape:groupmode="layer"
     id="layer1"
     transform="translate(0,-1022.3622)">
    <path
       sodipodi:type="arc"
       style="color:#000000;fill:#1a1a1a;stroke:#d4d4d4;stroke-width:1.02777779;stroke-opacity:1;marker:none;visibility:visible;display:inline;overflow:visible;enable-background:accumulate"
       id="path16617-6-6"
       sodipodi:cx="15.16226"
       sodipodi:cy="16.56851"
       sodipodi:rx="14.008413"
       sodipodi:ry="14.008413"
       d="m 29.170673,16.56851 c 0,7.736633 -6.27178,14.008413 -14.008413,14.008413 -7.736633,0 -14.0084133,-6.27178 -14.0084133,-14.008413 0,-7.736633 6.2717803,-14.0084133 14.0084133,-14.0084133 7.736633,0 14.008413,6.2717803 14.008413,14.0084133 z"
       transform="matrix(0.97297297,0,0,0.97297297,330.50795,953.63241)" />
    <path
       style="fill:#1a1a1a;stroke:#d4d4d4;stroke-width:1px;stroke-linecap:butt;stroke-linejoin:miter;stroke-opacity:1"
       d="m 345.29648,957.89011 0,11.863 0,0"
       id="path16623-6-2"
       inkscape:connector-curvature="0"
       inkscape:transform-center-y="-5.9314904" />
    <path
       style="fill:#1a1a1a;stroke:#d4d4d4;stroke-width:1px;stroke-linecap:butt;stroke-linejoin:miter;stroke-opacity:1"
       d="m 357.15947,969.75311 -1.70877,0 0,0"
       id="path16623-4-2-0"
       inkscape:connector-curvature="0"
       inkscape:transform-center-x="-0.854382" />
    <path
       style="fill:#1a1a1a;stroke:#d4d4d4;stroke-width:0.99999994px;stroke-linecap:butt;stroke-linejoin:miter;stroke-opacity:1"
       d="m 345.29648,981.61611 0,-2.0181 0,0"
       id="path16623-4-3-9-0"
       inkscape:connector-curvature="0"
       inkscape:transform-center-y="1.0091015" />
    <path
       style="fill:#1a1a1a;stroke:#d4d4d4;stroke-width:1px;stroke-linecap:butt;stroke-linejoin:miter;stroke-opacity:1"
       d="m 333.43348,969.75311 11.863,0 0,0"
       id="path16623-4-3-4-1-0"
       inkscape:connector-curvature="0"
       inkscape:transform-center-x="5.9315" />
    <path
       inkscape:connector-curvature="0"
       sodipodi:nodetypes="cccccccccccccc"
       id="path9518-0-7"
       d="m 14.999994,1025.9915 -11.2422196,9.9235 2.2484301,0 0,12.8177 6.7453475,0 0,-7.5644 4.651059,0 1.3e-5,7.5644 6.591159,0 0,-12.8177 2.248444,0 -11.242237,-9.9235 0,0 0,0 z"
       style="font-size:12px;fill:none;stroke:none" />
    <path
       inkscape:connector-curvature="0"
       style="font-size:45.13967896px;font-style:normal;font-variant:normal;font-weight:bold;font-stretch:normal;text-indent:0;text-align:start;text-decoration:none;line-height:125%;letter-spacing:0px;word-spacing:0px;text-transform:none;direction:ltr;block-progression:tb;writing-mode:lr-tb;text-anchor:start;color:#000000;fill:#1a1a1a;fill-opacity:1;fill-rule:nonzero;stroke:none;stroke-width:1px;marker:none;visibility:visible;font-family:Aleo;-inkscape-font-specification:Aleo Bold"
       d="m 5.6719832,1033.1278 c -0.11849,0 -0.23654,0.017 -0.34375,0.063 -0.10721,0.045 -0.20226,0.1085 -0.28125,0.1875 -0.079,0.079 -0.13672,0.1684 -0.1875,0.2813 -0.0451,0.1072 -0.0937,0.2452 -0.0937,0.375 0,0.1184 0.0487,0.2365 0.0937,0.3437 0.0508,0.1016 0.1085,0.171 0.1875,0.25 0.079,0.073 0.17404,0.1424 0.28125,0.1875 0.10721,0.045 0.22526,0.088 0.34375,0.094 0.12413,0 0.23655,-0.049 0.34375,-0.094 0.10721,-0.045 0.20226,-0.1085 0.28125,-0.1875 0.0846,-0.079 0.13672,-0.1484 0.1875,-0.25 0.0508,-0.1072 0.0937,-0.2196 0.0937,-0.3437 0,-0.1242 -0.043,-0.2622 -0.0937,-0.375 -0.0508,-0.1073 -0.10286,-0.2023 -0.1875,-0.2813 -0.079,-0.079 -0.17404,-0.1424 -0.28125,-0.1875 -0.1072,-0.045 -0.21962,-0.063 -0.34375,-0.063 z m 10.2187498,0.125 c -0.37804,0 -0.71527,0.043 -1.03125,0.1563 -0.31598,0.1128 -0.5868,0.2712 -0.8125,0.4687 -0.2257,0.1975 -0.40712,0.4167 -0.53125,0.6875 -0.12414,0.2652 -0.1875,0.5647 -0.1875,0.875 0,0.4288 0.115,0.7891 0.3125,1.0938 0.19749,0.3047 0.47439,0.5494 0.875,0.7187 -0.50217,0.158 -0.85676,0.3859 -1.09375,0.7188 -0.23698,0.3329 -0.34375,0.7647 -0.34375,1.25 0,0.3611 0.0521,0.6753 0.1875,0.9687 0.13542,0.2934 0.34548,0.5412 0.59375,0.75 0.24827,0.2031 0.52517,0.3559 0.875,0.4688 0.34983,0.1128 0.73871,0.1875 1.15625,0.1875 0.42318,0 0.80642,-0.075 1.15625,-0.1875 0.34984,-0.1129 0.65799,-0.26 0.90625,-0.4688 0.24827,-0.2031 0.42708,-0.4566 0.5625,-0.75 0.13542,-0.2934 0.21875,-0.6389 0.21875,-1 0,-0.4796 -0.13802,-0.8858 -0.375,-1.2187 -0.23134,-0.3329 -0.59721,-0.5552 -1.09375,-0.7188 0.39497,-0.1636 0.70312,-0.4084 0.90625,-0.7187 0.19748,-0.3047 0.27561,-0.665 0.28125,-1.0938 0,-0.3047 -0.0634,-0.6042 -0.1875,-0.875 -0.12414,-0.2652 -0.30556,-0.49 -0.53125,-0.6875 -0.2257,-0.1975 -0.49652,-0.3559 -0.8125,-0.4687 -0.31597,-0.1129 -0.65885,-0.1563 -1.03125,-0.1563 z m -5.84375,0.063 -2.4687498,2.125 0.4375,0.5938 c 0.0339,0.045 0.0629,0.091 0.125,0.125 0.0621,0.034 0.1454,0.031 0.21875,0.031 0.0508,0 0.10547,0.017 0.15625,0 0.0508,-0.011 0.11111,-0.049 0.15625,-0.094 l 1.15625,-0.9688 c -0.006,0.2031 0.006,0.3819 0,0.5625 l 0,4.75 c -0.86894,0.068 -1.36415,0.1137 -1.4375,0.125 -0.15235,0.034 -0.21875,0.1233 -0.21875,0.2813 l 0,0.6562 2.2187498,0 0.0625,0 2.21875,0 0,-0.6562 c 0,-0.158 -0.0664,-0.2474 -0.21875,-0.2813 -0.0677,-0.011 -0.49391,-0.063 -1.25,-0.125 l 0,-7.125 -1.15625,0 z m 5.5625,1 c 0.0896,-0.015 0.17687,0 0.28125,0 0.20313,-0.01 0.3789,0.026 0.53125,0.094 0.1467,0.062 0.27343,0.1428 0.375,0.25 0.0959,0.1072 0.16797,0.2339 0.21875,0.375 0.0451,0.1354 0.0937,0.2795 0.0937,0.4375 0,0.158 -0.023,0.3164 -0.0625,0.4688 -0.0395,0.1523 -0.12847,0.2877 -0.21875,0.4062 -0.0959,0.1185 -0.1914,0.2079 -0.34375,0.2813 -0.15799,0.068 -0.36805,0.088 -0.59375,0.094 -0.2257,0 -0.41015,-0.026 -0.5625,-0.094 -0.15798,-0.073 -0.28472,-0.1628 -0.375,-0.2813 -0.0959,-0.1185 -0.148,-0.2539 -0.1875,-0.4062 -0.0395,-0.1524 -0.0625,-0.3108 -0.0625,-0.4688 0,-0.158 0.0174,-0.3021 0.0625,-0.4375 0.0451,-0.1411 0.11719,-0.2678 0.21875,-0.375 0.10157,-0.1072 0.22265,-0.1879 0.375,-0.25 0.0734,-0.034 0.16043,-0.078 0.25,-0.094 z m 7.46875,1.3125 c -0.19748,0 -0.36762,0.023 -0.53125,0.063 -0.16363,0.034 -0.32204,0.083 -0.46875,0.1563 -0.14106,0.068 -0.27647,0.1484 -0.40625,0.25 -0.12977,0.096 -0.2565,0.1883 -0.375,0.3125 l -0.0937,-0.4375 c -0.0564,-0.1693 -0.19444,-0.25 -0.375,-0.25 l -0.84375,0 -0.84375,0 0,0.6562 c -0.006,0.1975 0.0894,0.3043 0.28125,0.3438 0.0113,0 0.0343,0.026 0.0625,0.031 0.0338,0.01 0.0716,-0.011 0.15625,0 0.079,0.017 0.20269,0.034 0.34375,0.063 l 0,3.5625 c -0.14106,0.028 -0.26475,0.045 -0.34375,0.063 -0.0846,0.011 -0.1224,0.026 -0.15625,0.031 -0.0282,0.01 -0.0512,0 -0.0625,0 -0.19185,0.045 -0.28689,0.1775 -0.28125,0.375 l 0,0.6562 0.84375,0 1.40625,0 0.84375,0 0,-0.6562 c 0,-0.1975 -0.0894,-0.3299 -0.28125,-0.375 -0.0169,0 -0.0343,0 -0.0625,0 -0.0338,-0.01 -0.10853,-0.02 -0.1875,-0.031 -0.079,-0.017 -0.17143,-0.034 -0.3125,-0.063 l 0,-3.0625 c 0.1862,-0.1919 0.38498,-0.3303 0.59375,-0.4375 0.20878,-0.1129 0.44487,-0.1875 0.6875,-0.1875 0.32726,0 0.55512,0.1206 0.71875,0.3125 0.16363,0.1918 0.25,0.457 0.25,0.8125 l 0,3.6875 1.40625,0 0.84375,0 0,-0.6563 c 0,-0.1975 -0.0894,-0.3299 -0.28125,-0.375 -0.0169,0 -0.0343,0.01 -0.0625,0 -0.0338,-0.01 -0.10853,-0.02 -0.1875,-0.031 -0.079,-0.017 -0.17144,-0.034 -0.3125,-0.063 l 0,-2.5625 c 0,-0.3273 -0.0716,-0.6354 -0.15625,-0.9062 -0.0846,-0.2709 -0.21137,-0.4957 -0.375,-0.6875 -0.16363,-0.1919 -0.35112,-0.3303 -0.59375,-0.4375 -0.24262,-0.1072 -0.52777,-0.1563 -0.84375,-0.1563 z m -18.9687498,0.063 0,0.6875 c -0.006,0.1975 0.0894,0.2986 0.28125,0.3438 0.0113,0 0.0343,0.026 0.0625,0.031 0.0338,0.01 0.10283,-0.011 0.1875,0 0.079,0.017 0.17144,0.034 0.3125,0.063 l 0,3.5625 c -0.14106,0.028 -0.23351,0.045 -0.3125,0.063 -0.0846,0.011 -0.15365,0.026 -0.1875,0.031 -0.0282,0.01 -0.0512,0 -0.0625,0 -0.19185,0.045 -0.28689,0.1775 -0.28125,0.375 l 0,0.6562 0.84375,0 1.40625,0 0.84375,0 0,-0.6562 c 0,-0.1975 -0.0894,-0.3299 -0.28125,-0.375 -0.0113,0 -0.0343,0 -0.0625,0 -0.0339,-0.01 -0.10283,-0.02 -0.1875,-0.031 -0.079,-0.017 -0.17144,-0.034 -0.3125,-0.063 l 0,-4.6875 -1.40625,0 -0.84375,0 z m 11.7812498,2.124 c 0.43447,0 0.78298,0.1181 1.03125,0.3438 0.24827,0.2313 0.375,0.5854 0.375,1.0312 0,0.1918 -0.0374,0.3733 -0.0937,0.5313 -0.0621,0.1636 -0.13151,0.2934 -0.25,0.4062 -0.1185,0.1185 -0.26823,0.2135 -0.4375,0.2813 -0.17492,0.068 -0.3993,0.094 -0.625,0.094 -0.23134,0 -0.42448,-0.026 -0.59375,-0.094 -0.17492,-0.068 -0.31901,-0.1628 -0.4375,-0.2813 -0.11849,-0.1128 -0.22482,-0.2426 -0.28125,-0.4062 -0.0621,-0.158 -0.0625,-0.3395 -0.0625,-0.5313 0,-0.4458 0.0955,-0.7999 0.34375,-1.0312 0.24827,-0.2257 0.59114,-0.3438 1.03125,-0.3438 z"
       id="path4074-0-9" />
  </g>
</svg>
