<?xml version="1.0" encoding="UTF-8" standalone="no"?>
<!-- Created with Inkscape (http://www.inkscape.org/) -->

<svg
   xmlns:dc="http://purl.org/dc/elements/1.1/"
   xmlns:cc="http://creativecommons.org/ns#"
   xmlns:rdf="http://www.w3.org/1999/02/22-rdf-syntax-ns#"
   xmlns:svg="http://www.w3.org/2000/svg"
   xmlns="http://www.w3.org/2000/svg"
   xmlns:sodipodi="http://sodipodi.sourceforge.net/DTD/sodipodi-0.dtd"
   xmlns:inkscape="http://www.inkscape.org/namespaces/inkscape"
   width="30"
   height="30"
   id="svg2"
   sodipodi:version="0.32"
   inkscape:version="0.48.4 r9939"
   sodipodi:docname="nodes.svg"
   inkscape:output_extension="org.inkscape.output.svg.inkscape"
   version="1.1">
  <defs
     id="defs4">
    <clipPath
       clipPathUnits="userSpaceOnUse"
       id="clipPath17670-8">
      <path
         inkscape:connector-curvature="0"
         d="m 0,288.75 201.25,0 L 201.25,0 0,0 0,288.75 z"
         id="path17672-4" />
    </clipPath>
    <clipPath
       clipPathUnits="userSpaceOnUse"
       id="clipPath18098-9">
      <path
         inkscape:connector-curvature="0"
         d="m 0,288.75 201.25,0 L 201.25,0 0,0 0,288.75 z"
         id="path18100-2" />
    </clipPath>
    <clipPath
       clipPathUnits="userSpaceOnUse"
       id="clipPath17356-3">
      <path
         inkscape:connector-curvature="0"
         d="m 0,288.75 201.25,0 L 201.25,0 0,0 0,288.75 z"
         id="path17358-6" />
    </clipPath>
    <clipPath
       clipPathUnits="userSpaceOnUse"
       id="clipPath18256-8">
      <path
         inkscape:connector-curvature="0"
         d="m 0,288.75 201.25,0 L 201.25,0 0,0 0,288.75 z"
         id="path18258-5" />
    </clipPath>
    <clipPath
       clipPathUnits="userSpaceOnUse"
       id="clipPath17038-7">
      <path
         inkscape:connector-curvature="0"
         d="m 0,288.75 201.25,0 L 201.25,0 0,0 0,288.75 z"
         id="path17040-4" />
    </clipPath>
    <clipPath
       clipPathUnits="userSpaceOnUse"
       id="clipPath18818-4">
      <path
         inkscape:connector-curvature="0"
         d="m 0,288.75 201.25,0 L 201.25,0 0,0 0,288.75 z"
         id="path18820-5" />
    </clipPath>
    <clipPath
       clipPathUnits="userSpaceOnUse"
       id="clipPath18850-8">
      <path
         inkscape:connector-curvature="0"
         d="m 0,288.75 201.25,0 L 201.25,0 0,0 0,288.75 z"
         id="path18852-1" />
    </clipPath>
    <clipPath
       clipPathUnits="userSpaceOnUse"
       id="clipPath18840-2">
      <path
         inkscape:connector-curvature="0"
         d="m 0,288.75 201.25,0 L 201.25,0 0,0 0,288.75 z"
         id="path18842-2" />
    </clipPath>
    <clipPath
       clipPathUnits="userSpaceOnUse"
       id="clipPath18828-1">
      <path
         inkscape:connector-curvature="0"
         d="m 0,288.75 201.25,0 L 201.25,0 0,0 0,288.75 z"
         id="path18830-8" />
    </clipPath>
    <clipPath
       clipPathUnits="userSpaceOnUse"
       id="clipPath17450-4">
      <path
         inkscape:connector-curvature="0"
         d="m 0,288.75 201.25,0 L 201.25,0 0,0 0,288.75 z"
         id="path17452-2" />
    </clipPath>
    <clipPath
       clipPathUnits="userSpaceOnUse"
       id="clipPath18356-2">
      <path
         inkscape:connector-curvature="0"
         d="m 0,288.75 201.25,0 L 201.25,0 0,0 0,288.75 z"
         id="path18358-6" />
    </clipPath>
    <clipPath
       clipPathUnits="userSpaceOnUse"
       id="clipPath18344-1">
      <path
         inkscape:connector-curvature="0"
         d="m 0,288.75 201.25,0 L 201.25,0 0,0 0,288.75 z"
         id="path18346-5" />
    </clipPath>
    <clipPath
       clipPathUnits="userSpaceOnUse"
       id="clipPath17196-7">
      <path
         inkscape:connector-curvature="0"
         d="m 0,288.75 201.25,0 L 201.25,0 0,0 0,288.75 z"
         id="path17198-7" />
    </clipPath>
    <clipPath
       clipPathUnits="userSpaceOnUse"
       id="clipPath18206-3">
      <path
         inkscape:connector-curvature="0"
         d="m 0,288.75 201.25,0 L 201.25,0 0,0 0,288.75 z"
         id="path18208-2" />
    </clipPath>
    <clipPath
       clipPathUnits="userSpaceOnUse"
       id="clipPath18876-0">
      <path
         inkscape:connector-curvature="0"
         d="m 0,288.75 201.25,0 L 201.25,0 0,0 0,288.75 z"
         id="path18878-2" />
    </clipPath>
    <clipPath
       clipPathUnits="userSpaceOnUse"
       id="clipPath19100-4">
      <path
         inkscape:connector-curvature="0"
         d="m 0,288.75 201.25,0 L 201.25,0 0,0 0,288.75 z"
         id="path19102-3" />
    </clipPath>
    <clipPath
       clipPathUnits="userSpaceOnUse"
       id="clipPath19144-3">
      <path
         inkscape:connector-curvature="0"
         d="m 0,288.75 201.25,0 L 201.25,0 0,0 0,288.75 z"
         id="path19146-9" />
    </clipPath>
    <clipPath
       clipPathUnits="userSpaceOnUse"
       id="clipPath16862-5">
      <path
         inkscape:connector-curvature="0"
         d="m 0,288.75 201.25,0 L 201.25,0 0,0 0,288.75 z"
         id="path16864-3" />
    </clipPath>
    <clipPath
       clipPathUnits="userSpaceOnUse"
       id="clipPath18228-0">
      <path
         inkscape:connector-curvature="0"
         d="m 0,288.75 201.25,0 L 201.25,0 0,0 0,288.75 z"
         id="path18230-3" />
    </clipPath>
    <clipPath
       clipPathUnits="userSpaceOnUse"
       id="clipPath17296-6">
      <path
         inkscape:connector-curvature="0"
         d="m 0,288.75 201.25,0 L 201.25,0 0,0 0,288.75 z"
         id="path17298-6" />
    </clipPath>
    <clipPath
       clipPathUnits="userSpaceOnUse"
       id="clipPath18086-6">
      <path
         inkscape:connector-curvature="0"
         d="m 0,288.75 201.25,0 L 201.25,0 0,0 0,288.75 z"
         id="path18088-1" />
    </clipPath>
    <clipPath
       clipPathUnits="userSpaceOnUse"
       id="clipPath17686-1">
      <path
         inkscape:connector-curvature="0"
         d="m 0,288.75 201.25,0 L 201.25,0 0,0 0,288.75 z"
         id="path17688-5" />
    </clipPath>
    <clipPath
       clipPathUnits="userSpaceOnUse"
       id="clipPath17698-8">
      <path
         inkscape:connector-curvature="0"
         d="m 0,288.75 201.25,0 L 201.25,0 0,0 0,288.75 z"
         id="path17700-0" />
    </clipPath>
    <clipPath
       clipPathUnits="userSpaceOnUse"
       id="clipPath17916-1">
      <path
         inkscape:connector-curvature="0"
         d="m 0,288.75 201.25,0 L 201.25,0 0,0 0,288.75 z"
         id="path17918-3" />
    </clipPath>
    <clipPath
       clipPathUnits="userSpaceOnUse"
       id="clipPath17244-5">
      <path
         inkscape:connector-curvature="0"
         d="m 0,288.75 201.25,0 L 201.25,0 0,0 0,288.75 z"
         id="path17246-6" />
    </clipPath>
    <clipPath
       clipPathUnits="userSpaceOnUse"
       id="clipPath17956-8-7">
      <path
         inkscape:connector-curvature="0"
         d="m 0,288.75 201.25,0 L 201.25,0 0,0 0,288.75 z"
         id="path17958-2-9" />
    </clipPath>
    <clipPath
       clipPathUnits="userSpaceOnUse"
       id="clipPath17956-8">
      <path
         inkscape:connector-curvature="0"
         d="m 0,288.75 201.25,0 L 201.25,0 0,0 0,288.75 z"
         id="path17958-2" />
    </clipPath>
    <clipPath
       clipPathUnits="userSpaceOnUse"
       id="clipPath18046-2">
      <path
         inkscape:connector-curvature="0"
         d="m 0,288.75 201.25,0 L 201.25,0 0,0 0,288.75 z"
         id="path18048-4" />
    </clipPath>
    <clipPath
       clipPathUnits="userSpaceOnUse"
       id="clipPath18034-6">
      <path
         inkscape:connector-curvature="0"
         d="m 0,288.75 201.25,0 L 201.25,0 0,0 0,288.75 z"
         id="path18036-4" />
    </clipPath>
    <clipPath
       clipPathUnits="userSpaceOnUse"
       id="clipPath17462-9">
      <path
         inkscape:connector-curvature="0"
         d="m 0,288.75 201.25,0 L 201.25,0 0,0 0,288.75 z"
         id="path17464-1" />
    </clipPath>
    <clipPath
       clipPathUnits="userSpaceOnUse"
       id="clipPath17734-2">
      <path
         inkscape:connector-curvature="0"
         d="m 0,288.75 201.25,0 L 201.25,0 0,0 0,288.75 z"
         id="path17736-2" />
    </clipPath>
    <clipPath
       clipPathUnits="userSpaceOnUse"
       id="clipPath16892-4">
      <path
         inkscape:connector-curvature="0"
         d="m 0,288.75 201.25,0 L 201.25,0 0,0 0,288.75 z"
         id="path16894-5" />
    </clipPath>
  </defs>
  <sodipodi:namedview
     id="base"
     pagecolor="#ffffff"
     bordercolor="#666666"
     borderopacity="1.0"
     inkscape:pageopacity="0.0"
     inkscape:pageshadow="2"
     inkscape:zoom="10.2"
     inkscape:cx="15"
     inkscape:cy="15"
     inkscape:document-units="px"
     inkscape:current-layer="layer1"
     inkscape:window-width="656"
     inkscape:window-height="1029"
     inkscape:window-x="0"
     inkscape:window-y="19"
     showgrid="false"
     inkscape:window-maximized="0" />
  <metadata
     id="metadata7">
    <rdf:RDF>
      <cc:Work
         rdf:about="">
        <dc:format>image/svg+xml</dc:format>
        <dc:type
           rdf:resource="http://purl.org/dc/dcmitype/StillImage" />
        <dc:title></dc:title>
      </cc:Work>
    </rdf:RDF>
  </metadata>
  <g
     inkscape:label="Capa 1"
     inkscape:groupmode="layer"
     id="layer1"
     transform="translate(0,-1022.3622)">
    <path
       sodipodi:type="arc"
       style="color:#000000;fill:#1a1a1a;stroke:#d4d4d4;stroke-width:1.02777779;stroke-opacity:1;marker:none;visibility:visible;display:inline;overflow:visible;enable-background:accumulate"
       id="path16617-6-6"
       sodipodi:cx="15.16226"
       sodipodi:cy="16.56851"
       sodipodi:rx="14.008413"
       sodipodi:ry="14.008413"
       d="m 29.170673,16.56851 a 14.008413,14.008413 0 1 1 -28.0168263,0 14.008413,14.008413 0 1 1 28.0168263,0 z"
       transform="matrix(0.97297297,0,0,0.97297297,330.50795,953.63241)" />
    <path
       style="fill:#1a1a1a;stroke:#d4d4d4;stroke-width:1px;stroke-linecap:butt;stroke-linejoin:miter;stroke-opacity:1"
       d="m 345.29648,957.89011 0,11.863 0,0"
       id="path16623-6-2"
       inkscape:connector-curvature="0"
       inkscape:transform-center-y="-5.9314904" />
    <path
       style="fill:#1a1a1a;stroke:#d4d4d4;stroke-width:1px;stroke-linecap:butt;stroke-linejoin:miter;stroke-opacity:1"
       d="m 357.15947,969.75311 -1.70877,0 0,0"
       id="path16623-4-2-0"
       inkscape:connector-curvature="0"
       inkscape:transform-center-x="-0.854382" />
    <path
       style="fill:#1a1a1a;stroke:#d4d4d4;stroke-width:0.99999994px;stroke-linecap:butt;stroke-linejoin:miter;stroke-opacity:1"
       d="m 345.29648,981.61611 0,-2.0181 0,0"
       id="path16623-4-3-9-0"
       inkscape:connector-curvature="0"
       inkscape:transform-center-y="1.0091015" />
    <path
       style="fill:#1a1a1a;stroke:#d4d4d4;stroke-width:1px;stroke-linecap:butt;stroke-linejoin:miter;stroke-opacity:1"
       d="m 333.43348,969.75311 11.863,0 0,0"
       id="path16623-4-3-4-1-0"
       inkscape:connector-curvature="0"
       inkscape:transform-center-x="5.9315" />
    <path
       inkscape:connector-curvature="0"
       sodipodi:nodetypes="cccccccccccccc"
       id="path9518-0-7"
       d="m 14.999994,1025.9915 -11.2422196,9.9235 2.2484301,0 0,12.8177 6.7453475,0 0,-7.5644 4.651059,0 1.3e-5,7.5644 6.591159,0 0,-12.8177 2.248444,0 -11.242237,-9.9235 0,0 0,0 z"
       style="font-size:12px;fill:none;stroke:none" />
    <path
       style="font-size:medium;font-style:normal;font-variant:normal;font-weight:normal;font-stretch:normal;text-indent:0;text-align:start;text-decoration:none;line-height:normal;letter-spacing:normal;word-spacing:normal;text-transform:none;direction:ltr;block-progression:tb;writing-mode:lr-tb;text-anchor:start;baseline-shift:baseline;color:#000000;fill:#1a1a1a;fill-opacity:1;stroke:none;stroke-width:0.03543307;marker:none;visibility:visible;display:inline;overflow:visible;enable-background:accumulate;font-family:Sans;-inkscape-font-specification:Sans"
       d="m 3.4414951,1029.6024 0,0.033 -0.0331,0 0,15.4885 0.0993,0 0,-0.016 3.73975,0 0,0.016 0.0993,0 0,-0.016 3.7397499,0 0,0.016 0.13238,0 0,-0.016 3.7232,0 0,0.016 0.11584,0 0,-0.016 3.7232,0 0,0.016 0.0993,0 0,-0.016 3.77284,0 0,0.016 0.0993,0 0,-0.016 3.73975,0 0,0.016 0.0993,0 0,-0.016 0,-0.1 0,-3.7232 0,-0.1159 0,-3.7563 0,-0.1 0,-3.7398 0,-0.1 0,-3.7398 0,-0.1324 -23.1500399,0 z m 0.0662,0.1324 3.73975,0 0,3.7397 -3.73975,0 0,-3.7397 z m 3.83904,0 3.7397499,0 0,0.033 c -0.0284,0 -0.0536,0 -0.0827,0 -0.51645,0 -0.94321,0.4102 -0.94321,0.9267 0,0.5164 0.42676,0.9432 0.94321,0.9432 0.0291,0 0.0543,0 0.0827,0 l 0,1.8368 -3.7397499,0 0,-3.7398 z m 3.8721299,0 3.7232,0 0,3.7397 -3.7232,0 0,-1.8698 c 0.40885,-0.1 0.71155,-0.4705 0.71155,-0.9102 0,-0.4395 -0.30293,-0.7934 -0.71155,-0.8935 l 0,-0.067 z m 3.83904,0 3.7232,0 0,3.7397 -3.7232,0 0,-3.7397 z m 3.82248,0 3.77285,0 0,3.7397 -3.77285,0 0,-3.7397 z m 3.87214,0 3.73975,0 0,3.7397 -3.73975,0 0,-3.7397 z m -19.2448299,3.8391 3.73975,0 0,3.7397 -3.73975,0 0,-3.7397 z m 3.83904,0 3.7397499,0 0,0.1323 c -0.0279,-0.011 -0.0531,-0.017 -0.0827,-0.017 -1.0108001,0 -1.8834301,0.3619 -2.5979699,1.0756 -0.70643,0.7056 -1.05103,1.5534 -1.05904,2.5482 l 0,-3.7397 z m 3.8721299,0 3.7232,0 0,3.7397 -0.2813,0 c -0.007,-0.8996 -0.29622,-1.6836 -0.87703,-2.3498 -0.10452,-0.1006 -0.23682,-0.1489 -0.38059,-0.1489 -0.14376,0 -0.26386,0.062 -0.36405,0.1655 -0.10442,0.1006 -0.14892,0.2205 -0.14892,0.3641 0,0.1218 0.0253,0.2352 0.0993,0.3309 0.40667,0.4617 0.62163,1.0001 0.6288,1.6382 l -2.10154,0 0,-3.0944 c 0,-0.1436 -0.0487,-0.264 -0.14893,-0.3641 -0.0463,-0.045 -0.0949,-0.073 -0.14892,-0.1 l 0,-0.1821 z m 3.83904,0 3.7232,0 0,3.7397 -2.03535,0 0,-3.0944 c -10e-6,-0.1438 -0.0445,-0.2638 -0.14893,-0.3641 -0.10009,-0.1048 -0.23698,-0.1654 -0.38059,-0.1654 -0.14361,0 -0.25961,0.061 -0.36405,0.1654 -0.1001,0.1006 -0.14893,0.2203 -0.14893,0.3641 l 0,3.0944 -0.64535,0 0,-3.7397 z m 3.82248,0 3.77285,0 0,3.7397 -0.16547,0 0,-3.0944 c -10e-6,-0.1438 -0.0445,-0.2638 -0.14893,-0.3641 -0.1001,-0.1048 -0.22045,-0.1654 -0.36405,-0.1654 -0.14362,0 -0.27615,0.061 -0.38059,0.1654 -0.1001,0.1006 -0.14894,0.2203 -0.14893,0.3641 l 0,3.0944 -2.56488,0 0,-3.7397 z m 3.87214,0 3.73975,0 0,3.7397 -3.73975,0 0,-3.7397 z m -12.2783,1.2079 0,2.5318 -2.0849899,0 c 0.008,-0.7076 0.25956,-1.3028 0.7611798,-1.8037 0.38343,-0.383 0.82278,-0.6324 1.3238101,-0.7281 z m -6.9665299,2.6311 3.73975,0 0,3.7563 -3.73975,0 0,-3.7563 z m 3.83904,0 c 0.0152,0.9814 0.36001,1.8335 1.05904,2.5317 0.7145398,0.7137 1.5871698,1.0591 2.5979699,1.0591 0.0287,0 0.0543,0 0.0827,0 l 0,0.1655 -3.7397499,0 0,-3.7563 z m 1.0425,0 2.0849899,0 0,2.4987 c -0.5010301,-0.095 -0.9403801,-0.3286 -1.3238101,-0.7116 -0.4939798,-0.4934 -0.7458898,-1.0934 -0.7611798,-1.7871 z m 3.1274899,0 2.10154,0 c -0.0153,0.6937 -0.26726,1.2937 -0.76119,1.7871 -0.38337,0.383 -0.83931,0.6159 -1.34035,0.7116 l 0,-2.4987 z m 3.14404,0 0.2813,0 0,3.7563 -3.7232,0 0,-0.182 c 0.9157,-0.049 1.70461,-0.3816 2.3663,-1.0426 0.69903,-0.6982 1.06043,-1.5503 1.0756,-2.5317 z m 0.39714,0 0.64535,0 0,0.1986 c 0,0.9367 0.33137,1.7493 0.99286,2.4159 0.59051,0.5873 1.28225,0.9099 2.08499,0.9763 l 0,0.1655 -3.7232,0 0,-3.7563 z m 1.68785,0 2.03535,0 0,2.5317 c -0.51224,-0.065 -0.97376,-0.2819 -1.3569,-0.6619 -0.45695,-0.4617 -0.67846,-1.022 -0.67845,-1.6712 l 0,-0.1986 z m 2.13463,0 2.56488,0 0,0.1986 c -10e-6,0.6492 -0.23371,1.2095 -0.695,1.6712 -0.45695,0.4575 -1.00633,0.6785 -1.65476,0.6785 -0.0753,0 -0.14234,-0.011 -0.21512,-0.016 l 0,-2.5318 z m 3.60738,0 0.16547,0 0,3.7563 -3.77285,0 0,-0.1655 c 0.0709,0 0.14262,0.016 0.21512,0.016 0.91389,0 1.69697,-0.328 2.34976,-0.9597 l 0,0.4301 c -10e-6,0.1439 0.0488,0.2596 0.14893,0.3641 0.10444,0.1 0.23697,0.1655 0.38059,0.1655 0.1436,0 0.26395,-0.066 0.36405,-0.1655 0.10445,-0.1048 0.14892,-0.2202 0.14893,-0.3641 l 0,-3.0777 z m 0.26476,0 3.73975,0 0,3.7563 -3.73975,0 0,-3.7563 z m -19.2448299,3.8721 3.73975,0 0,3.7233 -3.73975,0 0,-3.7233 z m 3.83904,0 3.7397499,0 0,3.7233 -3.7397499,0 0,-3.7233 z m 3.8721299,0 3.7232,0 0,3.7233 -3.7232,0 0,-3.7233 z m 3.83904,0 3.7232,0 0,3.7233 -3.7232,0 0,-3.7233 z m 3.82248,0 3.77285,0 0,3.7233 -3.77285,0 0,-3.7233 z m 3.87214,0 3.73975,0 0,3.7233 -3.73975,0 0,-3.7233 z"
       id="path7248-6-3-7-2-1-8"
       inkscape:connector-curvature="0" />
  </g>
</svg>
