<?xml version="1.0" encoding="UTF-8" standalone="no"?>
<!-- Created with Inkscape (http://www.inkscape.org/) -->

<svg
   xmlns:dc="http://purl.org/dc/elements/1.1/"
   xmlns:cc="http://creativecommons.org/ns#"
   xmlns:rdf="http://www.w3.org/1999/02/22-rdf-syntax-ns#"
   xmlns:svg="http://www.w3.org/2000/svg"
   xmlns="http://www.w3.org/2000/svg"
   xmlns:sodipodi="http://sodipodi.sourceforge.net/DTD/sodipodi-0.dtd"
   xmlns:inkscape="http://www.inkscape.org/namespaces/inkscape"
   width="30"
   height="30"
   id="svg2"
   sodipodi:version="0.32"
   inkscape:version="0.48.4 r9939"
   sodipodi:docname="brush.svg"
   inkscape:output_extension="org.inkscape.output.svg.inkscape"
   version="1.1">
  <defs
     id="defs4" />
  <sodipodi:namedview
     id="base"
     pagecolor="#ffffff"
     bordercolor="#666666"
     borderopacity="1.0"
     inkscape:pageopacity="0.0"
     inkscape:pageshadow="2"
     inkscape:zoom="9.9647651"
     inkscape:cx="14.161105"
     inkscape:cy="12.658297"
     inkscape:document-units="px"
     inkscape:current-layer="layer1"
     inkscape:window-width="698"
     inkscape:window-height="1029"
     inkscape:window-x="0"
     inkscape:window-y="19"
     showgrid="false"
     inkscape:window-maximized="0" />
  <metadata
     id="metadata7">
    <rdf:RDF>
      <cc:Work
         rdf:about="">
        <dc:format>image/svg+xml</dc:format>
        <dc:type
           rdf:resource="http://purl.org/dc/dcmitype/StillImage" />
        <dc:title></dc:title>
      </cc:Work>
    </rdf:RDF>
  </metadata>
  <g
     inkscape:label="Capa 1"
     inkscape:groupmode="layer"
     id="layer1"
     transform="translate(0,-1022.3622)">
    <path
       inkscape:connector-curvature="0"
       id="path13039-7"
       d="m 15.000005,1029.4656 c 0,0 -3.15862,-3.1586 -12.63445,-3.1586 v 18.9518 c 9.57454,0 12.63445,3.1586 12.63445,3.1586 0,0 3.0599,-3.1586 12.63444,-3.1586 v -18.9518 c -9.47583,0 -12.63444,3.1587 -12.63444,3.1587 z m -9.47584,0 c 4.0146,0.3364 6.47752,1.2652 7.89653,2.0176 v 12.7206 c -1.41901,-0.7494 -3.88193,-1.6781 -7.89653,-2.0175 v -12.7207 z m 18.95167,12.7207 c -4.01618,0.3395 -6.4791,1.2674 -7.89653,2.0175 v -12.7206 c 1.41743,-0.7525 3.88035,-1.6812 7.89653,-2.0176 v 12.7207 z"
       style="fill:#1a1a1a;fill-opacity:1" />
  </g>
</svg>
