<?xml version="1.0" encoding="UTF-8" standalone="no"?>
<!-- Created with Inkscape (http://www.inkscape.org/) -->

<svg
   xmlns:dc="http://purl.org/dc/elements/1.1/"
   xmlns:cc="http://creativecommons.org/ns#"
   xmlns:rdf="http://www.w3.org/1999/02/22-rdf-syntax-ns#"
   xmlns:svg="http://www.w3.org/2000/svg"
   xmlns="http://www.w3.org/2000/svg"
   xmlns:sodipodi="http://sodipodi.sourceforge.net/DTD/sodipodi-0.dtd"
   xmlns:inkscape="http://www.inkscape.org/namespaces/inkscape"
   width="30"
   height="30"
   id="svg2"
   sodipodi:version="0.32"
   inkscape:version="0.48.4 r9939"
   sodipodi:docname="daisy.svg"
   inkscape:output_extension="org.inkscape.output.svg.inkscape"
   version="1.1">
  <defs
     id="defs4" />
  <sodipodi:namedview
     id="base"
     pagecolor="#ffffff"
     bordercolor="#666666"
     borderopacity="1.0"
     inkscape:pageopacity="0.0"
     inkscape:pageshadow="2"
     inkscape:zoom="10.276087"
     inkscape:cx="15.344828"
     inkscape:cy="14.482759"
     inkscape:document-units="px"
     inkscape:current-layer="layer1"
     inkscape:window-width="656"
     inkscape:window-height="1029"
     inkscape:window-x="0"
     inkscape:window-y="19"
     showgrid="false"
     inkscape:window-maximized="0" />
  <metadata
     id="metadata7">
    <rdf:RDF>
      <cc:Work
         rdf:about="">
        <dc:format>image/svg+xml</dc:format>
        <dc:type
           rdf:resource="http://purl.org/dc/dcmitype/StillImage" />
        <dc:title></dc:title>
      </cc:Work>
    </rdf:RDF>
  </metadata>
  <g
     inkscape:label="Capa 1"
     inkscape:groupmode="layer"
     id="layer1"
     transform="translate(0,-1022.3622)">
    <path
       sodipodi:type="arc"
       style="color:#000000;fill:#1a1a1a;stroke:#d4d4d4;stroke-width:1.02777779;stroke-opacity:1;marker:none;visibility:visible;display:inline;overflow:visible;enable-background:accumulate"
       id="path16617-6-6"
       sodipodi:cx="15.16226"
       sodipodi:cy="16.56851"
       sodipodi:rx="14.008413"
       sodipodi:ry="14.008413"
       d="m 29.170673,16.56851 a 14.008413,14.008413 0 1 1 -28.0168263,0 14.008413,14.008413 0 1 1 28.0168263,0 z"
       transform="matrix(0.97297297,0,0,0.97297297,330.50795,953.63241)" />
    <path
       style="fill:#1a1a1a;stroke:#d4d4d4;stroke-width:1px;stroke-linecap:butt;stroke-linejoin:miter;stroke-opacity:1"
       d="m 345.29648,957.89011 0,11.863 0,0"
       id="path16623-6-2"
       inkscape:connector-curvature="0"
       inkscape:transform-center-y="-5.9314904" />
    <path
       style="fill:#1a1a1a;stroke:#d4d4d4;stroke-width:1px;stroke-linecap:butt;stroke-linejoin:miter;stroke-opacity:1"
       d="m 357.15947,969.75311 -1.70877,0 0,0"
       id="path16623-4-2-0"
       inkscape:connector-curvature="0"
       inkscape:transform-center-x="-0.854382" />
    <path
       style="fill:#1a1a1a;stroke:#d4d4d4;stroke-width:0.99999994px;stroke-linecap:butt;stroke-linejoin:miter;stroke-opacity:1"
       d="m 345.29648,981.61611 0,-2.0181 0,0"
       id="path16623-4-3-9-0"
       inkscape:connector-curvature="0"
       inkscape:transform-center-y="1.0091015" />
    <path
       style="fill:#1a1a1a;stroke:#d4d4d4;stroke-width:1px;stroke-linecap:butt;stroke-linejoin:miter;stroke-opacity:1"
       d="m 333.43348,969.75311 11.863,0 0,0"
       id="path16623-4-3-4-1-0"
       inkscape:connector-curvature="0"
       inkscape:transform-center-x="5.9315" />
    <path
       inkscape:connector-curvature="0"
       sodipodi:nodetypes="cccccccccccccc"
       id="path9518-0-7"
       d="m 14.999994,1025.9915 -11.2422196,9.9235 2.2484301,0 0,12.8177 6.7453475,0 0,-7.5644 4.651059,0 1.3e-5,7.5644 6.591159,0 0,-12.8177 2.248444,0 -11.242237,-9.9235 0,0 0,0 z"
       style="font-size:12px;fill:none;stroke:none" />
    <path
       style="fill:#1a1a1a;fill-opacity:1"
       d="m 18.916615,1050.7063 c -0.13962,-0.089 -0.2081,-0.1062 -0.22462,-0.056 -0.007,0.02 -0.0291,0.011 -0.0672,-0.023 -0.0378,-0.035 -0.0757,-0.049 -0.11121,-0.04 -0.0407,0.01 -0.0698,-0.01 -0.11881,-0.068 -0.0598,-0.075 -0.067,-0.077 -0.0911,-0.036 -0.0249,0.043 -0.029,0.042 -0.0849,-0.01 -0.0323,-0.031 -0.0587,-0.075 -0.0587,-0.1 0,-0.064 -0.0364,-0.055 -0.0698,0.019 -0.0386,0.085 -0.0817,0.065 -0.12505,-0.059 -0.0197,-0.056 -0.0427,-0.1021 -0.0511,-0.1021 -0.008,0 -0.0288,0.03 -0.0456,0.066 l -0.0304,0.066 -0.0589,-0.097 c -0.0324,-0.053 -0.0592,-0.1139 -0.0596,-0.134 0,-0.026 -0.0143,-0.019 -0.0447,0.021 l -0.0441,0.057 -0.0409,-0.063 c -0.0225,-0.034 -0.0411,-0.077 -0.0413,-0.094 -0.002,-0.017 -0.0108,-0.048 -0.0235,-0.068 -0.0199,-0.032 -0.0277,-0.03 -0.0568,0.01 -0.0314,0.043 -0.0363,0.039 -0.0741,-0.055 -0.0368,-0.092 -0.0897,-0.1371 -0.0897,-0.077 0,0.013 -0.009,0.025 -0.0199,0.025 -0.0243,0 -0.10229,-0.159 -0.10229,-0.2087 0,-0.052 -0.0431,-0.044 -0.0611,0.013 -0.008,0.027 -0.0237,0.049 -0.0338,0.049 -0.0231,0 -0.10064,-0.1607 -0.10064,-0.2086 0,-0.047 -0.0243,-0.045 -0.061,0.01 -0.0258,0.035 -0.0354,0.026 -0.0732,-0.074 -0.0436,-0.1142 -0.0727,-0.1405 -0.092,-0.083 -0.0119,0.035 -0.0915,-0.1071 -0.0915,-0.1638 0,-0.044 -0.0279,-0.049 -0.0652,-0.012 -0.0305,0.03 -0.10595,-0.1363 -0.10595,-0.2343 0,-0.071 -0.0194,-0.077 -0.0615,-0.02 -0.0273,0.038 -0.0338,0.034 -0.067,-0.03 -0.0202,-0.039 -0.0449,-0.1208 -0.0549,-0.1805 -0.0164,-0.099 -0.021,-0.1046 -0.0512,-0.063 -0.0307,0.042 -0.0368,0.038 -0.0821,-0.063 -0.0269,-0.059 -0.0495,-0.1297 -0.0502,-0.1566 -0.002,-0.046 -0.003,-0.046 -0.034,-0.01 -0.044,0.058 -0.0767,0.017 -0.11917,-0.1487 -0.0229,-0.09 -0.04,-0.1189 -0.0584,-0.1005 -0.0313,0.031 -0.10594,-0.1373 -0.10594,-0.2392 0,-0.051 -0.007,-0.059 -0.0293,-0.036 -0.0403,0.041 -0.0684,0.037 -0.0684,-0.01 0,-0.073 -0.1948,-0.6224 -0.28736,-0.8111 -0.11054,-0.2254 -0.34449,-0.6176 -0.36815,-0.6171 -0.0929,0.01 -0.1472,0.2025 -0.17534,0.6476 -0.0493,0.7801 -0.057,1.1956 -0.0272,1.4803 0.0435,0.4157 0.18735,1.0568 0.31375,1.3978 0.034,0.092 0.0574,0.1711 0.0521,0.1764 -0.006,0.01 -0.095,0.042 -0.1992,0.083 l -0.18947,0.073 -0.0379,-0.09 c -0.0863,-0.204 -0.25647,-0.7305 -0.33078,-1.0232 -0.0767,-0.3021 -0.0795,-0.331 -0.0804,-0.8143 0,-0.33 0.0137,-0.6261 0.0422,-0.8677 0.10345,-0.8785 0.11788,-1.0193 0.10577,-1.0314 -0.007,-0.01 -0.0674,0.073 -0.1341,0.1794 -0.0667,0.1056 -0.16109,0.2546 -0.20974,0.3311 -0.0487,0.077 -0.12511,0.2416 -0.16991,0.3667 -0.0587,0.1641 -0.0919,0.2258 -0.11887,0.221 -0.0233,-0.01 -0.0438,0.019 -0.0543,0.061 -0.0304,0.1218 -0.0894,0.2239 -0.12216,0.2113 -0.0206,-0.01 -0.0372,0.018 -0.0476,0.073 -0.009,0.047 -0.0368,0.1107 -0.0623,0.1419 -0.0428,0.053 -0.0476,0.053 -0.0635,0.013 -0.0133,-0.034 -0.03,-0.013 -0.0733,0.094 -0.0623,0.1532 -0.0856,0.1852 -0.1018,0.1397 -0.019,-0.053 -0.0491,-0.034 -0.064,0.042 -0.008,0.04 -0.032,0.1138 -0.0535,0.1649 -0.0377,0.09 -0.0404,0.091 -0.0752,0.044 -0.0309,-0.041 -0.0393,-0.044 -0.0591,-0.012 -0.0127,0.02 -0.0233,0.051 -0.0235,0.068 0,0.017 -0.0172,0.071 -0.0376,0.1204 -0.0286,0.068 -0.0439,0.082 -0.066,0.06 -0.0383,-0.038 -0.0679,-0.036 -0.0679,0.01 0,0.018 -0.0176,0.068 -0.0391,0.1113 -0.0365,0.073 -0.0414,0.075 -0.0726,0.034 -0.0184,-0.024 -0.0346,-0.039 -0.036,-0.032 -0.002,0.01 -0.007,0.037 -0.0129,0.068 -0.006,0.031 -0.0287,0.084 -0.0512,0.1181 l -0.0409,0.063 -0.0298,-0.055 c -0.0286,-0.053 -0.0319,-0.051 -0.0844,0.071 -0.03,0.07 -0.0626,0.1269 -0.0723,0.1269 -0.01,0 -0.0287,-0.025 -0.0421,-0.055 -0.023,-0.052 -0.0274,-0.048 -0.0743,0.058 -0.0586,0.1326 -0.0925,0.1603 -0.12484,0.1024 -0.0202,-0.036 -0.0289,-0.03 -0.0601,0.045 -0.0431,0.1032 -0.085,0.136 -0.10544,0.083 -0.022,-0.057 -0.051,-0.046 -0.0694,0.027 -0.009,0.036 -0.037,0.092 -0.0622,0.1236 -0.0458,0.058 -0.0458,0.058 -0.073,0.01 -0.0301,-0.056 -0.0732,-0.045 -0.0745,0.019 0,0.023 -0.0232,0.068 -0.0506,0.1012 -0.0411,0.049 -0.0537,0.054 -0.0721,0.025 -0.0123,-0.019 -0.0225,-0.044 -0.0227,-0.054 -0.002,-0.047 -0.0466,-0.01 -0.0755,0.061 -0.0515,0.1274 -0.10651,0.1506 -0.13048,0.055 -0.0182,-0.072 -0.0541,-0.08 -0.0745,-0.015 -0.008,0.025 -0.036,0.065 -0.0623,0.089 -0.0409,0.038 -0.0536,0.038 -0.088,0.01 -0.0352,-0.029 -0.0492,-0.023 -0.11186,0.052 -0.0691,0.082 -0.0729,0.083 -0.10684,0.038 -0.0344,-0.046 -0.0367,-0.046 -0.10249,0.015 -0.037,0.034 -0.0823,0.057 -0.10068,0.051 -0.0192,-0.01 -0.0885,0.046 -0.16238,0.1253 -0.0709,0.076 -0.1346,0.1374 -0.14148,0.1374 -0.0236,0 0.0155,-0.1072 0.097,-0.2664 0.0448,-0.087 0.0814,-0.1623 0.0814,-0.1663 0,-0.01 -0.0241,-0.01 -0.0535,-0.01 -0.0521,0 -0.0518,0 0.0123,-0.069 0.0692,-0.072 0.0828,-0.1172 0.0398,-0.1315 -0.043,-0.015 -0.002,-0.081 0.0803,-0.1293 0.0763,-0.045 0.0766,-0.046 0.023,-0.07 -0.0706,-0.032 -0.0581,-0.064 0.053,-0.1367 l 0.0906,-0.06 -0.0768,-0.032 c -0.0657,-0.027 -0.0722,-0.037 -0.0453,-0.07 0.0174,-0.02 0.0709,-0.055 0.11905,-0.077 l 0.0875,-0.039 -0.0672,-0.026 c -0.037,-0.014 -0.0671,-0.032 -0.0669,-0.039 0.002,-0.024 0.1683,-0.1237 0.20712,-0.1237 0.0559,0 0.0444,-0.042 -0.0158,-0.057 -0.0442,-0.011 -0.0478,-0.02 -0.022,-0.051 0.017,-0.02 0.0683,-0.051 0.11402,-0.067 0.0849,-0.031 0.10212,-0.055 0.0587,-0.081 -0.0465,-0.029 -0.024,-0.06 0.0768,-0.1061 0.0919,-0.042 0.097,-0.049 0.055,-0.074 -0.0452,-0.027 -0.0451,-0.028 0.003,-0.066 0.0269,-0.021 0.0791,-0.045 0.11612,-0.052 0.0809,-0.017 0.0823,-0.024 0.0151,-0.079 -0.0518,-0.042 -0.0513,-0.042 0.0751,-0.097 0.10995,-0.047 0.12301,-0.06 0.0959,-0.093 -0.0262,-0.031 -0.0234,-0.044 0.0166,-0.073 0.0264,-0.019 0.0727,-0.042 0.10297,-0.049 0.0583,-0.014 0.076,-0.057 0.0244,-0.058 -0.042,0 0.0516,-0.072 0.13522,-0.1021 0.051,-0.019 0.0616,-0.033 0.0423,-0.056 -0.0329,-0.04 0.0667,-0.1085 0.18495,-0.1277 0.0914,-0.015 0.10753,-0.041 0.0408,-0.067 -0.039,-0.015 -0.038,-0.02 0.0113,-0.061 0.0298,-0.024 0.10401,-0.052 0.165,-0.061 0.10767,-0.016 0.14259,-0.047 0.0803,-0.07 -0.0458,-0.017 0.0488,-0.084 0.16437,-0.1169 0.0866,-0.024 0.0925,-0.031 0.0547,-0.058 -0.0371,-0.027 -0.0379,-0.034 -0.006,-0.061 0.0199,-0.016 0.0833,-0.045 0.14082,-0.062 0.0576,-0.018 0.10197,-0.044 0.0987,-0.059 -0.007,-0.033 0.1684,-0.1251 0.23721,-0.1251 0.0274,0 0.0499,-0.011 0.0499,-0.024 0,-0.013 -0.011,-0.025 -0.0244,-0.025 -0.0708,0 -0.007,-0.042 0.12208,-0.08 0.31932,-0.094 0.80203,-0.3316 1.06611,-0.5252 l 0.0706,-0.052 -0.0856,-0.036 c -0.0471,-0.02 -0.0966,-0.028 -0.11,-0.018 -0.0135,0.01 -0.0794,0.038 -0.14665,0.063 -0.38006,0.1389 -1.27703,0.5909 -1.51,0.761 -0.12402,0.091 -0.23106,0.1729 -0.23788,0.1828 -0.0219,0.032 -0.20141,0.1689 -0.22153,0.1689 -0.0108,0 -0.0229,-0.027 -0.0272,-0.06 -0.007,-0.059 -0.0125,-0.056 -0.13401,0.062 -0.0694,0.067 -0.16568,0.1386 -0.21387,0.1587 -0.0855,0.036 -0.0876,0.035 -0.0877,-0.019 0,-0.051 -0.007,-0.048 -0.0819,0.034 -0.0908,0.099 -0.26422,0.2165 -0.31917,0.2165 -0.0243,0 -0.0321,-0.019 -0.0247,-0.059 0.017,-0.093 -0.0234,-0.093 -0.11404,0.01 -0.071,0.073 -0.23489,0.1802 -0.27789,0.1802 -0.007,0 -0.0131,-0.021 -0.0131,-0.048 0,-0.083 -0.0436,-0.078 -0.11204,0.011 -0.053,0.07 -0.3195,0.2561 -0.36577,0.2561 -0.006,0 -0.006,-0.038 0,-0.085 0.0145,-0.1131 -0.0199,-0.1281 -0.0849,-0.037 -0.0492,0.069 -0.2807405,0.2438 -0.3231205,0.2438 -0.0102,0 -0.0186,-0.027 -0.0186,-0.061 0,-0.034 -0.006,-0.061 -0.0121,-0.061 -0.007,0 -0.0644,0.037 -0.12831,0.083 -0.0639,0.045 -0.14134,0.09 -0.17212,0.1 -0.0505,0.016 -0.0544,0.011 -0.0401,-0.046 0.009,-0.034 0.009,-0.063 0.002,-0.063 -0.008,0 -0.0724,0.044 -0.1432,0.098 -0.1643,0.1245 -0.21437,0.1273 -0.21437,0.012 l 0,-0.086 -0.1354,0.1102 c -0.0745,0.061 -0.14505,0.1103 -0.15687,0.1103 -0.0119,0 -0.0406,0.01 -0.064,0.016 -0.037,0.014 -0.0407,0.01 -0.0281,-0.073 0.0176,-0.1079 -0.0123,-0.1335 -0.0784,-0.067 -0.0628,0.063 -0.23677,0.1729 -0.27331,0.1729 -0.0186,0 -0.0234,-0.029 -0.0143,-0.086 0.0162,-0.1003 -0.004,-0.107 -0.0836,-0.027 -0.0527,0.052 -0.19459,0.1378 -0.22822,0.1378 -0.007,0 -0.0135,-0.039 -0.0135,-0.086 0,-0.092 -0.0244,-0.1078 -0.0748,-0.047 -0.0345,0.041 -0.19867,0.1345 -0.28239,0.1598 -0.0482,0.015 -0.0508,0.01 -0.0396,-0.091 0.007,-0.059 0.007,-0.1069 0,-0.1069 -0.007,0 -0.0433,0.029 -0.0817,0.065 -0.0788,0.073 -0.26901,0.1645 -0.30097,0.1448 -0.0115,-0.01 -0.0129,-0.057 -0.003,-0.1113 0.0186,-0.1015 0.003,-0.1214 -0.0531,-0.066 -0.0473,0.046 -0.19441,0.1313 -0.26211,0.1519 -0.0575,0.017 -0.0584,0.016 -0.0431,-0.096 0.0174,-0.1276 -0.0246,-0.1719 -0.10074,-0.1062 -0.0395,0.034 -0.18344,0.092 -0.22885,0.092 -0.0115,0 -0.0208,-0.033 -0.0208,-0.072 0,-0.094 -0.0255,-0.1065 -0.13105,-0.063 -0.048,0.019 -0.12071,0.037 -0.16148,0.037 -0.0625,0 -0.0741,-0.01 -0.0741,-0.06 0,-0.059 -0.002,-0.06 -0.15949,-0.045 -0.14153,0.013 -0.15776,0.01 -0.14406,-0.026 0.0208,-0.054 -0.0127,-0.052 -0.2597,0.019 -0.28319,0.081 -0.36559,0.096 -0.36559,0.068 0,-0.031 0.2293,-0.1999 0.36665,-0.2695 0.0605,-0.03 0.13134,-0.072 0.15743,-0.091 0.047,-0.035 0.047,-0.036 0,-0.07 -0.0441,-0.033 -0.0446,-0.038 -0.007,-0.076 0.0221,-0.023 0.0909,-0.047 0.15278,-0.054 0.0619,-0.01 0.1125,-0.017 0.1125,-0.023 0,-0.01 -0.0178,-0.037 -0.0395,-0.07 -0.039,-0.06 -0.0382,-0.061 0.0543,-0.1 0.0588,-0.025 0.13286,-0.034 0.19838,-0.027 0.0575,0.01 0.10462,0.01 0.10462,0 0,-0.01 -0.0232,-0.05 -0.0517,-0.096 -0.0284,-0.046 -0.0461,-0.089 -0.0394,-0.096 0.0192,-0.019 0.29369,-0.019 0.35448,0 0.0663,0.021 0.0693,0 0.009,-0.07 -0.0251,-0.027 -0.0656,-0.082 -0.0901,-0.1203 l -0.0444,-0.07 0.2221,0.01 c 0.21186,0.01 0.22081,0.01 0.19396,-0.037 -0.0979,-0.159 -0.10092,-0.1491 0.0489,-0.1572 0.0753,-0.01 0.16821,0 0.20654,0.016 0.0928,0.033 0.11228,-0.01 0.0465,-0.088 l -0.0519,-0.066 0.0564,-0.021 c 0.0567,-0.022 0.24879,-0.01 0.36147,0.023 0.0605,0.017 0.0605,0.017 0.0184,-0.047 -0.0232,-0.035 -0.0423,-0.077 -0.0423,-0.092 0,-0.031 0.1972,-0.027 0.28469,0 0.0727,0.026 0.0861,0.01 0.0449,-0.077 -0.0313,-0.06 -0.0308,-0.07 0.005,-0.083 0.0435,-0.017 0.28589,0.027 0.3557,0.063 0.0546,0.029 0.0538,0.016 -0.007,-0.1023 l -0.0494,-0.097 0.10517,0 c 0.0578,0 0.16187,0.015 0.23117,0.033 l 0.12601,0.033 -0.0479,-0.094 -0.0478,-0.094 0.1235,0 c 0.0679,0 0.1614,0.016 0.20773,0.035 0.0892,0.037 0.13405,0.016 0.0728,-0.035 -0.02,-0.017 -0.0364,-0.04 -0.0364,-0.052 0,-0.029 0.18788,-0.027 0.29185,0.01 0.097,0.027 0.11907,0.017 0.0748,-0.037 -0.0663,-0.08 0.0469,-0.1013 0.25415,-0.049 0.0818,0.02 0.15927,0.049 0.17216,0.062 0.0129,0.012 0.038,0.024 0.0557,0.024 0.0238,0 0.0192,-0.026 -0.0176,-0.098 l -0.0499,-0.098 0.0945,0 c 0.052,0 0.1594205,0.023 0.2388005,0.05 0.25569,0.089 0.23752,0.089 0.21797,0 l -0.0174,-0.079 0.16741,0.017 c 0.0921,0.01 0.17786,0.027 0.19063,0.038 0.0308,0.029 0.11123,0.027 0.11123,0 0,-0.013 -0.0109,-0.03 -0.0244,-0.038 -0.0135,-0.01 -0.0244,-0.031 -0.0244,-0.05 0,-0.052 0.16875,-0.045 0.33585,0.013 0.0765,0.027 0.14094,0.049 0.14319,0.049 0.002,0 0.01,-0.022 0.0168,-0.049 0.01,-0.038 0.0333,-0.049 0.10124,-0.049 0.0487,0 0.15104,0.022 0.22753,0.049 0.1714,0.06 0.16139,0.061 0.14283,-0.013 -0.0137,-0.054 -0.009,-0.06 0.0401,-0.05 0.0306,0.01 0.16011,0.034 0.28782,0.062 0.49715,0.1075 0.7631,0.1385 1.23438,0.1438 0.28244,0.01 0.45004,0 0.42775,-0.016 -0.0473,-0.028 -0.31287,-0.1181 -0.75773,-0.2564 -0.42479,-0.1321 -0.58463,-0.1798 -1.16105,-0.3464 -0.13262,-0.038 -0.52064,-0.092 -0.9655,-0.1344 -0.1546,-0.014 -0.3172,-0.032 -0.36131,-0.038 l -0.0802,-0.013 0.0523,-0.073 c 0.0288,-0.041 0.0461,-0.08 0.0384,-0.087 -0.008,-0.01 -0.13061,-0.012 -0.27328,-0.01 -0.18477,0 -0.2939605,-0.01 -0.3795905,-0.036 -0.14754,-0.049 -0.16558,-0.074 -0.0973,-0.1383 0.0292,-0.027 0.0487,-0.054 0.0434,-0.059 -0.006,-0.01 -0.0713,0 -0.1466,0.016 -0.15375,0.028 -0.52112,-0.017 -0.64027,-0.08 l -0.0663,-0.034 0.0885,-0.077 c 0.0487,-0.043 0.0853,-0.079 0.0815,-0.08 -0.004,0 -0.11695,0 -0.25139,-0.01 -0.23833,-0.01 -0.48034,-0.06 -0.51561,-0.1172 -0.008,-0.013 0.008,-0.046 0.0369,-0.073 0.0286,-0.027 0.046,-0.058 0.0386,-0.07 -0.007,-0.012 -0.13137,-0.021 -0.27553,-0.021 -0.25479,10e-5 -0.52425,-0.048 -0.57953,-0.1027 -0.0158,-0.016 0.003,-0.045 0.055,-0.086 0.0435,-0.034 0.0791,-0.072 0.0791,-0.085 0,-0.013 -0.093,-0.023 -0.20655,-0.023 -0.27017,0 -0.60007,-0.067 -0.60007,-0.1214 0,-0.01 0.022,-0.038 0.0489,-0.062 0.0269,-0.024 0.0489,-0.052 0.0489,-0.06 0,-0.01 -0.10021,-0.03 -0.2227,-0.046 -0.24657,-0.033 -0.4012,-0.085 -0.37525,-0.1273 0.009,-0.015 0.0512,-0.048 0.0934,-0.073 0.0422,-0.026 0.0713,-0.048 0.0645,-0.048 -0.007,0 -0.10022,-0.01 -0.20777,-0.01 -0.18807,-0.01 -0.47664,-0.077 -0.47664,-0.1167 0,-0.011 0.0382,-0.054 0.0849,-0.097 0.0467,-0.042 0.0791,-0.087 0.0719,-0.098 -0.007,-0.012 -0.0984,-0.021 -0.2027,-0.021 -0.18098,0 -0.4282,-0.052 -0.47901,-0.1006 -0.0152,-0.015 0.0112,-0.054 0.0729,-0.1089 0.11869,-0.1056 0.10178,-0.1209 -0.15513,-0.14 -0.10301,-0.01 -0.24742,-0.032 -0.32091,-0.055 l -0.13361,-0.041 0.10156,-0.095 c 0.0558,-0.052 0.0912,-0.1011 0.0786,-0.1089 -0.0125,-0.01 -0.0315,-0.01 -0.042,0 -0.0259,0.016 -0.387,-0.048 -0.47362,-0.084 -0.0899,-0.037 -0.0876,-0.056 0.0168,-0.135 0.0474,-0.036 0.0801,-0.072 0.0727,-0.079 -0.007,-0.01 -0.0655,-0.017 -0.12898,-0.02 -0.14766,-0.01 -0.33002,-0.052 -0.46989,-0.1118 l -0.1099999,-0.047 0.1200999,-0.1017 0.12013,-0.1017 -0.2301199,-0.027 c -0.13056,-0.015 -0.28604,-0.051 -0.35945,-0.083 l -0.12933,-0.056 0.056,-0.059 c 0.0308,-0.033 0.0863,-0.077 0.12323,-0.1 0.037,-0.022 0.0672,-0.047 0.0672,-0.056 0,-0.01 -0.0876,-0.03 -0.19476,-0.045 -0.21365,-0.031 -0.44561,-0.1017 -0.45809,-0.1391 -0.004,-0.013 0.0417,-0.061 0.10247,-0.1066 0.0607,-0.045 0.1104,-0.09 0.1104,-0.099 0,-0.037 -0.0919,-0.092 -0.17998,-0.1078 -0.0927,-0.017 -0.35776,-0.1303 -0.35776,-0.1534 0,-0.01 0.0343,-0.044 0.0761,-0.083 0.0931,-0.087 0.0732,-0.123 -0.10002,-0.1805 -0.12281,-0.041 -0.34278,-0.1739 -0.34278,-0.2075 0,-0.011 0.0275,-0.037 0.0611,-0.059 0.0846,-0.056 0.0772,-0.078 -0.0428,-0.1325 -0.0571,-0.026 -0.15301,-0.083 -0.21306,-0.1274 -0.10501,-0.077 -0.10712,-0.081 -0.055,-0.1045 0.0298,-0.013 0.0542,-0.034 0.0542,-0.046 0,-0.023 -0.88167,-0.4593 -0.92757,-0.4593 -0.0141,0 -0.0257,-0.011 -0.0257,-0.025 0,-0.014 0.0737,-0.024 0.1722,-0.024 0.15994,0 0.29287,0.023 0.63442,0.1109 0.0739,0.019 0.17729,0.041 0.22963,0.049 l 0.0952,0.015 -0.0147,-0.091 -0.0147,-0.091 0.0836,0.013 c 0.046,0.01 0.15063,0.053 0.23249,0.1008 0.0819,0.048 0.15373,0.087 0.15974,0.087 0.006,0 0.011,-0.044 0.011,-0.098 0,-0.077 0.009,-0.098 0.0428,-0.098 0.0836,0 0.29498,0.1185 0.4107,0.2294 0.0646,0.062 0.121,0.1126 0.12532,0.1126 0.004,0 0.008,-0.064 0.008,-0.1426 0,-0.078 0.006,-0.1485 0.0133,-0.1559 0.0292,-0.03 0.28407,0.137 0.38879,0.2534 0.0611,0.068 0.11118,0.1336 0.11118,0.1455 0,0.012 0.0109,0.022 0.0244,0.022 0.0143,0 0.0244,-0.084 0.0244,-0.2037 0,-0.112 0.007,-0.2109 0.016,-0.2197 0.0445,-0.045 0.4726199,0.3314 0.5094199,0.4474 0.0304,0.096 0.049,0.048 0.0459,-0.1191 -0.002,-0.093 0.005,-0.1811 0.0143,-0.1965 0.0257,-0.041 0.29543,0.1656 0.41778,0.321 0.056,0.071 0.11023,0.1327 0.12044,0.1365 0.0102,0 0.02,-0.055 0.0217,-0.1323 0.002,-0.077 0.009,-0.145 0.0155,-0.1517 0.038,-0.037 0.42781,0.2989 0.49854,0.4311 0.0383,0.071 0.0754,0.047 0.0776,-0.052 0.004,-0.1939 0.0224,-0.1907 0.26287,0.047 l 0.22366,0.2209 0.0145,-0.087 c 0.02,-0.1213 0.0302,-0.1485 0.0554,-0.1485 0.0381,0 0.34005,0.3088 0.40951,0.4188 0.0592,0.094 0.0688,0.1002 0.0856,0.057 0.0104,-0.027 0.0198,-0.081 0.021,-0.1217 0.004,-0.1353 0.035,-0.1517 0.13995,-0.073 0.11965,0.089 0.23199,0.2127 0.33194,0.3661 0.0435,0.067 0.0812,0.1053 0.0838,0.086 0.003,-0.02 0.0115,-0.088 0.02,-0.152 0.0141,-0.1074 0.019,-0.1142 0.0648,-0.09 0.0901,0.048 0.24709,0.2037 0.3547,0.3512 l 0.10604,0.1455 0,-0.128 c 0,-0.1236 0.002,-0.127 0.0528,-0.1 0.0602,0.032 0.30061,0.2688 0.37879,0.3728 l 0.0522,0.07 0.0168,-0.1 c 0.0153,-0.09 0.0214,-0.097 0.0658,-0.073 0.13348,0.071 0.37111,0.3395 0.46923,0.5293 0.0544,0.1052 0.0886,0.1005 0.0891,-0.012 0.002,-0.1552 0.0274,-0.1697 0.15327,-0.083 0.12734,0.088 0.23831,0.2194 0.35984,0.4274 0.0471,0.081 0.0979,0.1507 0.11283,0.1557 0.0155,0.01 0.0341,-0.034 0.0433,-0.092 l 0.0162,-0.1011 0.0666,0.043 c 0.12394,0.081 0.2531,0.2175 0.37175,0.3943 0.1203205,0.1791 0.1469905,0.1852 0.1469905,0.034 0,-0.093 0.0223,-0.1068 0.0958,-0.059 0.15173,0.097 0.35807,0.3472 0.43626,0.5281 0.0292,0.067 0.0846,0.094 0.0772,0.037 -0.009,-0.068 0.003,-0.1161 0.029,-0.1161 0.0534,0 0.35492,0.319 0.43808,0.4634 0.0466,0.081 0.0921,0.1473 0.10116,0.1474 0.009,2e-4 0.0291,-0.038 0.0447,-0.085 0.025,-0.076 0.0733,-0.1189 0.0733,-0.066 0,0.011 0.0194,0.041 0.0432,0.067 0.0238,0.027 0.11304,0.1334 0.1984,0.2384 0.17947,0.2209 0.85699,0.9438 1.06953,1.1411 0.18733,0.1741 0.39778,0.3533 0.54338,0.4629 0.0637,0.048 0.14275,0.1129 0.17562,0.1444 0.0329,0.032 0.10927,0.091 0.16977,0.1324 0.0605,0.041 0.1265,0.09 0.14666,0.1081 0.13416,0.1205 0.53593,0.3989 0.5757,0.3989 0.0155,0 -0.0678,-0.1181 -0.16382,-0.2323 -0.0226,-0.027 -0.0856,-0.1038 -0.13996,-0.171 -0.3657,-0.4524 -0.81974,-0.9717 -1.26079,-1.4422 -0.16385,-0.1747 -0.4231,-0.4537 -0.57613,-0.62 -0.23618,-0.2565 -0.44241,-0.4381 -0.92869,-0.8176 -0.11101,-0.087 -0.42576,-0.3134 -0.58176,-0.4191 -0.19596,-0.1329 -0.19672,-0.1469 -0.0117,-0.2139 0.10323,-0.037 0.10158,-0.057 -0.008,-0.093 -0.22832,-0.075 -0.61192,-0.353 -0.7440305,-0.5385 l -0.0496,-0.07 0.1124605,-0.033 0.11246,-0.033 -0.1298405,-0.059 c -0.2267,-0.1027 -0.45416,-0.262 -0.6181,-0.4329 l -0.15896,-0.1657 0.11584,-0.034 c 0.0637,-0.019 0.13027,-0.037 0.14793,-0.042 0.0515,-0.014 0.0104,-0.055 -0.1255,-0.1224 -0.24834,-0.1239 -0.62768,-0.4535 -0.62768,-0.5453 0,-0.014 0.044,-0.033 0.0978,-0.041 0.16536,-0.027 0.12732,-0.089 -0.12773,-0.2094 -0.0839,-0.04 -0.15819,-0.08 -0.16515,-0.089 -0.007,-0.01 -0.062,-0.049 -0.1224,-0.09 -0.13459,-0.09 -0.3669,-0.3223 -0.3669,-0.3672 0,-0.035 0.0319,-0.048 0.17846,-0.074 0.12732,-0.023 0.11068,-0.08 -0.0443,-0.1531 -0.0671,-0.031 -0.18242,-0.097 -0.25638,-0.1452 -0.13989,-0.091 -0.43997,-0.3761 -0.43997,-0.4175 0,-0.013 0.0415,-0.031 0.0922,-0.039 0.14986,-0.026 0.17128,-0.051 0.0814,-0.098 -0.0429,-0.022 -0.0968,-0.055 -0.11968,-0.074 -0.0229,-0.019 -0.10491,-0.085 -0.18225,-0.1468 -0.0773,-0.062 -0.16826,-0.1536 -0.20205,-0.2031 l -0.0614,-0.09 0.16539,-0.025 0.16539,-0.025 -0.12221,-0.061 c -0.0672,-0.034 -0.12771,-0.067 -0.13444,-0.074 -0.007,-0.01 -0.063,-0.049 -0.12515,-0.091 -0.13066,-0.089 -0.34494,-0.3185 -0.33241,-0.3561 0.005,-0.014 0.0766,-0.041 0.15973,-0.059 0.0831,-0.019 0.15117,-0.043 0.15117,-0.054 0,-0.011 -0.0577,-0.053 -0.12832,-0.093 -0.28856,-0.1633 -0.61964,-0.4695 -0.56223,-0.5201 0.0102,-0.01 0.0835,-0.028 0.16299,-0.044 0.0796,-0.015 0.14942,-0.033 0.15524,-0.038 0.0194,-0.02 -0.10205,-0.1283 -0.23876,-0.2147 -0.14251,-0.09 -0.4152,-0.354 -0.41541,-0.4021 0,-0.016 0.0329,-0.034 0.0732,-0.043 0.0403,-0.01 0.10622,-0.02 0.14638,-0.028 0.0892,-0.017 0.11669,-0.054 0.0568,-0.076 -0.0825,-0.03 -0.3966,-0.2792 -0.47124,-0.3734 -0.0938,-0.1185 -0.093,-0.142 0.005,-0.1602 0.14703,-0.027 0.17714,-0.033 0.19554,-0.034 0.0467,-0.01 0.008,-0.051 -0.10999,-0.1302 -0.21649,-0.1459 -0.53163,-0.4715 -0.53163,-0.5493 0,-0.014 0.0825,-0.034 0.18332,-0.042 0.10083,-0.01 0.18333,-0.026 0.18333,-0.035 0,-0.01 -0.0577,-0.056 -0.12834,-0.1002 -0.1455,-0.093 -0.44915,-0.3919 -0.51299,-0.5053 l -0.0425,-0.075 0.20736,-0.017 c 0.11406,-0.01 0.21314,-0.026 0.22018,-0.038 0.007,-0.011 -0.0397,-0.056 -0.1038,-0.1006 -0.15393,-0.1056 -0.33358,-0.2736 -0.45251,-0.4231 -0.0867,-0.1091 -0.0918,-0.1229 -0.0513,-0.1389 0.0247,-0.01 0.10184,-0.019 0.17131,-0.019 0.16598,0 0.20366,-0.019 0.20366,-0.091 0,-0.04 -0.0372,-0.094 -0.11325,-0.1624 -0.12629,-0.1143 -0.28648,-0.3198 -0.31204,-0.4002 -0.0153,-0.048 -0.005,-0.055 0.11264,-0.074 0.12169,-0.02 0.12904,-0.025 0.12454,-0.089 -0.003,-0.037 -0.0398,-0.1076 -0.0826,-0.1564 -0.11357,-0.1292 -0.24159,-0.3372 -0.25794,-0.419 -0.0135,-0.067 -0.009,-0.072 0.086,-0.088 0.0551,-0.01 0.10495,-0.025 0.1108,-0.034 0.006,-0.01 -0.0234,-0.072 -0.0649,-0.1384 -0.0884,-0.1419 -0.18987,-0.3638 -0.18987,-0.4153 0,-0.024 0.0251,-0.036 0.0733,-0.036 0.0403,0 0.0733,-0.01 0.0733,-0.012 0,-0.01 -0.10503,-0.1687 -0.23338,-0.3605 -0.12838,-0.1918 -0.26205,-0.4074 -0.2971,-0.4789 -0.0634,-0.1297 -0.10623,-0.3721 -0.0654,-0.3699 0.0117,0 0.0544,0.044 0.0948,0.096 0.0917,0.1191 0.86645,0.8436 0.90198,0.8436 0.0145,0 0.0304,-0.022 0.0356,-0.049 0.005,-0.027 0.0192,-0.074 0.0309,-0.1055 0.019,-0.05 0.0258,-0.052 0.0577,-0.021 0.0199,0.02 0.0462,0.04 0.0586,0.045 0.0397,0.015 0.27181,0.3699 0.27181,0.4159 0,0.074 0.0439,0.051 0.10315,-0.053 0.0307,-0.054 0.0674,-0.098 0.0817,-0.098 0.0351,-2e-4 0.13814,0.1126 0.21168,0.232 0.0658,0.1068 0.16565,0.377 0.16565,0.4482 0,0.092 0.0358,0.074 0.12397,-0.066 0.10554,-0.1669 0.13749,-0.1927 0.1818,-0.1467 0.10397,0.108 0.25642,0.5302 0.25642,0.7102 0,0.095 0.0568,0.087 0.0932,-0.013 0.035,-0.097 0.21734,-0.3579 0.24998,-0.3579 0.0633,0 0.2432,0.4978 0.24383,0.6748 0.002,0.1074 0.0221,0.2056 0.0453,0.2041 0.008,0 0.0412,-0.054 0.0726,-0.1183 0.0314,-0.065 0.088,-0.1537 0.12579,-0.198 l 0.0687,-0.081 0.0856,0.1806 c 0.10156,0.2143 0.16388,0.4531 0.16388,0.6282 0,0.07 0.009,0.1267 0.0199,0.1267 0.011,0 0.0436,-0.041 0.0724,-0.092 0.0289,-0.05 0.0796,-0.1247 0.11283,-0.165 0.0593,-0.072 0.061,-0.073 0.0977,-0.024 0.0974,0.1273 0.23479,0.5959 0.23481,0.8006 0,0.037 0.009,0.067 0.0192,0.067 0.0106,0 0.0372,-0.03 0.0592,-0.067 0.0496,-0.083 0.13659,-0.1772 0.16399,-0.1772 0.0567,0 0.19654,0.4606 0.19722,0.6497 0.002,0.1256 0.0226,0.1489 0.0719,0.075 0.0584,-0.087 0.17392,-0.2191 0.18286,-0.2088 0.0836,0.097 0.21007,0.5819 0.21007,0.8052 0,0.1377 0.0206,0.1507 0.0796,0.051 0.0227,-0.038 0.0795,-0.1127 0.12605,-0.165 l 0.0848,-0.095 0.0494,0.1115 c 0.08,0.1805 0.12691,0.3861 0.1446,0.634 l 0.0166,0.2322 0.10335,-0.1388 c 0.0568,-0.077 0.1148205,-0.1458 0.1288805,-0.1545 0.0345,-0.021 0.14328,0.2296 0.18536,0.4277 0.0186,0.087 0.034,0.2277 0.0342,0.3117 0,0.084 0.009,0.1524 0.0188,0.1521 0.0102,-2e-4 0.0378,-0.041 0.0615,-0.092 0.0535,-0.1129 0.11091,-0.1895 0.12867,-0.1717 0.0354,0.035 0.15493,0.4457 0.18262,0.627 l 0.0312,0.204 0.0904,-0.1049 0.0904,-0.1051 0.0632,0.1698 c 0.11144,0.2997 0.11748,0.3307 0.12585,0.6465 0.008,0.2979 0.0328,0.3255 0.14892,0.1657 0.0403,-0.056 0.0866,-0.1052 0.10286,-0.1106 0.0356,-0.012 0.0927,0.1166 0.1553,0.3482 0.0314,0.116 0.0464,0.2543 0.0468,0.4292 0.002,0.1907 0.0102,0.2705 0.037,0.3056 0.0353,0.046 0.0388,0.045 0.11019,-0.038 0.0707,-0.082 0.0752,-0.084 0.10935,-0.039 0.0846,0.1099 0.16217,0.4219 0.17179,0.6909 0.005,0.1453 0.0184,0.2667 0.0292,0.2699 0.0108,0.01 0.0567,-0.043 0.10197,-0.1035 0.0453,-0.06 0.0904,-0.1092 0.10022,-0.1092 0.0363,0 0.14676,0.3121 0.18596,0.5256 0.0269,0.1463 0.0353,0.2752 0.0252,0.3849 -0.008,0.091 -0.009,0.165 -0.003,0.165 0.007,0 0.0448,-0.035 0.0841,-0.079 l 0.0714,-0.08 0.0597,0.1345 c 0.0328,0.074 0.0769,0.2169 0.0978,0.3177 0.041,0.1973 0.0406,0.1925 0.0398,0.4611 l 0,0.18 0.10317,-0.088 c 0.0567,-0.049 0.11219,-0.088 0.12322,-0.088 0.011,0 0.02,0.038 0.02,0.082 0,0.045 0.0113,0.1415 0.0252,0.2138 0.0139,0.073 0.0359,0.2087 0.049,0.3028 0.0131,0.094 0.0403,0.2481 0.0606,0.3422 0.0202,0.094 0.0639,0.2976 0.0971,0.4523 0.0332,0.1545 0.10009,0.435 0.14871,0.6232 0.0486,0.1883 0.1034,0.404 0.12174,0.4796 0.0362,0.1488 0.28937,0.8626 0.44555,1.2559 0.27951,0.704 0.65582,1.5505 0.67682,1.5226 0.0162,-0.021 -0.0877,-0.8766 -0.14501,-1.1926 -0.0184,-0.1009 -0.0521,-0.2989 -0.0751,-0.44 -0.023,-0.1411 -0.0577,-0.3282 -0.0771,-0.4155 -0.0194,-0.087 -0.045,-0.2139 -0.0569,-0.2811 -0.0588,-0.333 -0.17959,-0.8547 -0.24326,-1.0511 -0.0393,-0.121 -0.12034,-0.3739 -0.18024,-0.5622 -0.18226,-0.5728 -0.53299,-1.5177 -0.64048,-1.7256 -0.019,-0.037 -0.0566,-0.1228 -0.0837,-0.1916 l -0.0493,-0.1251 0.16255,0.017 c 0.17992,0.019 0.1784,0.022 0.0558,-0.1375 -0.16556,-0.2158 -0.34075,-0.689 -0.34075,-0.9206 0,-0.094 -0.002,-0.093 0.11453,-0.045 0.0487,0.02 0.0936,0.032 0.0997,0.026 0.006,-0.01 -0.0381,-0.086 -0.0985,-0.1774 -0.0603,-0.091 -0.12638,-0.1994 -0.14674,-0.2397 -0.0709,-0.1404 -0.16083,-0.441 -0.17724,-0.5923 l -0.0164,-0.1523 0.0818,0.027 c 0.045,0.015 0.11645,0.042 0.1588,0.061 0.0424,0.019 0.0836,0.034 0.0917,0.034 0.0318,0 0.0119,-0.069 -0.0358,-0.1241 -0.0971,-0.112 -0.24476,-0.4527 -0.3089,-0.7129 -0.0356,-0.1445 -0.0575,-0.2698 -0.0488,-0.2785 0.009,-0.01 0.0633,0.01 0.12118,0.024 0.14509,0.055 0.16472,0.052 0.16472,-0.034 0,-0.041 -0.008,-0.074 -0.0188,-0.074 -0.0256,0 -0.21085,-0.3034 -0.27077,-0.4433 -0.0957,-0.2237 -0.18881,-0.6207 -0.15103,-0.644 0.0211,-0.013 0.14046,0.021 0.25731,0.074 0.12451,0.056 0.12423,0 -0.002,-0.1995 -0.0648,-0.1039 -0.1482,-0.2637 -0.1853,-0.3548 -0.0666,-0.1636 -0.16185,-0.5733 -0.1387,-0.5966 0.007,-0.01 0.0518,0.01 0.10046,0.025 0.0487,0.02 0.11155,0.037 0.13971,0.037 0.0506,0 0.0505,0 -0.01,-0.116 -0.10422,-0.1988 -0.25906,-0.7485 -0.22141,-0.7861 0.006,-0.01 0.0722,0.018 0.14603,0.054 0.0739,0.037 0.14423,0.066 0.1564,0.066 0.0121,0 -0.016,-0.063 -0.0625,-0.1405 -0.0465,-0.077 -0.11066,-0.223 -0.1425,-0.3238 -0.0635,-0.2011 -0.12427,-0.4843 -0.10757,-0.501 0.0147,-0.015 0.21948,0.049 0.31299,0.097 0.0426,0.022 0.0871,0.037 0.0989,0.033 0.0117,-0.01 -0.0247,-0.085 -0.0812,-0.1788 -0.14003,-0.2335 -0.24138,-0.5219 -0.27163,-0.7729 -0.0135,-0.1121 -0.0235,-0.112 0.26099,0 0.16909,0.065 0.2225,0.06 0.17027,-0.013 -0.13477,-0.1899 -0.25945,-0.5242 -0.31078,-0.8331 l -0.0178,-0.1071 0.0935,0.018 c 0.0514,0.01 0.12358,0.034 0.16034,0.052 0.13204,0.068 0.14977,0.047 0.0784,-0.094 -0.14382,-0.2837 -0.26025,-0.7774 -0.17599,-0.7463 0.0178,0.01 0.09,0.03 0.16049,0.054 0.0704,0.023 0.13432,0.052 0.14198,0.065 0.008,0.013 0.0243,0.023 0.037,0.023 0.0274,0 0.0311,-0.066 0.004,-0.077 -0.0393,-0.017 -0.17699,-0.3594 -0.22456,-0.5581 -0.0485,-0.2028 -0.0666,-0.44 -0.0335,-0.44 0.009,0 0.10743,0.044 0.21854,0.098 0.11109,0.054 0.20604,0.098 0.21097,0.098 0.005,0 -0.0331,-0.085 -0.0845,-0.1895 -0.11292,-0.2288 -0.18768,-0.4906 -0.2044,-0.7161 l -0.0123,-0.167 0.076,0.022 c 0.0418,0.012 0.15771,0.066 0.25763,0.1197 0.0999,0.054 0.18166,0.092 0.18166,0.085 0,-0.01 -0.0268,-0.059 -0.0597,-0.1151 -0.0934,-0.1598 -0.20356,-0.5232 -0.22257,-0.7342 l -0.0174,-0.192 0.0581,0.018 c 0.11342,0.036 0.31217,0.1302 0.40406,0.1927 0.0512,0.034 0.10162,0.063 0.11194,0.063 0.0348,0 0.0192,-0.074 -0.0405,-0.1919 -0.0869,-0.1714 -0.13625,-0.3888 -0.13625,-0.5999 0,-0.2221 -0.002,-0.2217 0.25937,-0.098 0.10155,0.049 0.19011,0.082 0.1968,0.075 0.007,-0.01 -0.004,-0.038 -0.0245,-0.07 -0.0989,-0.154 -0.15517,-0.5226 -0.11346,-0.7437 0.0332,-0.1757 0.043,-0.1795 0.21487,-0.081 0.0445,0.026 0.0847,0.046 0.0894,0.046 0.005,0 0.003,-0.087 -0.005,-0.1926 -0.0127,-0.1844 0.0223,-0.4689 0.0664,-0.5401 0.0164,-0.027 0.0283,-0.025 0.0626,0.01 0.0675,0.067 0.15776,0.1203 0.17542,0.1027 0.009,-0.01 0.019,-0.035 0.0224,-0.059 0.003,-0.024 0.0222,-0.097 0.0418,-0.1643 0.0196,-0.067 0.0806,-0.2906 0.13547,-0.4965 0.10356,-0.3884 0.20237,-0.6449 0.29193,-0.7577 l 0.0522,-0.066 -0.0156,0.7883 c -0.01,0.5006 -0.007,0.7883 0.008,0.7883 0.0129,0 0.0478,-0.023 0.0774,-0.05 0.0392,-0.037 0.0565,-0.042 0.0639,-0.018 0.006,0.017 0.0238,0.076 0.0405,0.1296 0.0168,0.054 0.0323,0.1996 0.0346,0.3241 0.002,0.1244 0.0115,0.2337 0.0207,0.2427 0.009,0.01 0.0628,-0.01 0.11956,-0.036 0.0953,-0.049 0.10483,-0.049 0.1262,-0.011 0.0378,0.067 0.0477,0.4162 0.0158,0.5584 -0.0227,0.1012 -0.0229,0.1522 -0.002,0.2183 0.0308,0.093 0.0524,0.095 0.20347,0.018 0.10997,-0.056 0.13846,-0.028 0.13742,0.1324 -0.002,0.1598 -0.0496,0.4357 -0.089,0.5056 -0.0216,0.038 -0.004,0.1944 0.0264,0.2277 0.003,0 0.0757,-0.031 0.16244,-0.075 0.0867,-0.045 0.18247,-0.087 0.21272,-0.095 0.0533,-0.013 0.055,-0.01 0.0538,0.1608 -0.002,0.1658 -0.0719,0.4254 -0.19557,0.7179 -0.0182,0.043 -0.027,0.085 -0.0194,0.092 0.008,0.01 0.0965,-0.025 0.19774,-0.073 0.19996,-0.094 0.23674,-0.1021 0.24183,-0.055 0.0208,0.1909 -0.0574,0.5325 -0.18911,0.826 -0.0362,0.081 -0.0598,0.1526 -0.0525,0.16 0.007,0.01 0.0777,-0.019 0.15633,-0.059 0.0787,-0.039 0.16948,-0.08 0.20183,-0.09 l 0.0588,-0.019 -0.0156,0.1556 c -0.0221,0.2197 -0.10224,0.5169 -0.19185,0.7114 -0.0421,0.091 -0.0708,0.1717 -0.0638,0.1786 0.007,0.01 0.0857,-0.014 0.17485,-0.046 0.10386,-0.038 0.16307,-0.049 0.16465,-0.031 0.0135,0.1499 -0.0624,0.4655 -0.16134,0.6705 -0.0952,0.1973 -0.0922,0.2008 0.10997,0.1269 0.0736,-0.027 0.14216,-0.049 0.15243,-0.049 0.0662,0 -0.0268,0.4083 -0.15667,0.6878 -0.0905,0.1947 -0.11201,0.3101 -0.0554,0.2966 0.0127,0 0.0972,-0.033 0.18799,-0.066 l 0.16499,-0.061 0,0.079 c -0.002,0.1675 -0.13419,0.5744 -0.2637,0.8049 -0.0355,0.063 -0.0575,0.1217 -0.049,0.1302 0.008,0.01 0.0941,-0.013 0.19021,-0.048 0.0961,-0.034 0.17802,-0.063 0.18209,-0.063 0.017,0 -0.0577,0.3886 -0.0963,0.5012 -0.0486,0.1414 -0.14435,0.3378 -0.21086,0.432 -0.0254,0.036 -0.036,0.072 -0.0234,0.08 0.0125,0.01 0.0265,0.01 0.031,-0.01 0.008,-0.02 0.24764,-0.1499 0.27803,-0.1499 0.0288,0 -0.0178,0.2837 -0.0783,0.4767 -0.0337,0.1075 -0.0896,0.2478 -0.12423,0.3117 -0.0346,0.064 -0.0572,0.122 -0.0502,0.129 0.007,0.01 0.0446,0 0.0834,-0.015 0.0388,-0.015 0.099,-0.036 0.13367,-0.047 l 0.0631,-0.019 -0.021,0.1376 c -0.0469,0.307 -0.1436,0.5567 -0.35528,0.9174 -0.0166,0.028 -0.0303,0.07 -0.0305,0.094 0,0.04 0.008,0.039 0.12796,-0.01 0.23139,-0.088 0.24383,-0.073 0.1767,0.2201 -0.0541,0.2355 -0.16668,0.4956 -0.29643,0.6844 -0.0782,0.1139 -0.12835,0.2689 -0.0869,0.2689 0.0129,0 0.0692,-0.016 0.12521,-0.036 0.0914,-0.032 0.1034,-0.032 0.11666,0 0.0441,0.1149 -0.14478,0.6531 -0.33931,0.9666 -0.0307,0.049 -0.0494,0.096 -0.0415,0.1042 0.008,0.01 0.0517,0 0.0975,-0.02 0.0458,-0.019 0.11842,-0.042 0.16148,-0.051 l 0.0783,-0.016 -0.011,0.1056 c -0.0324,0.3122 -0.28704,0.895 -0.43808,1.0025 -0.0477,0.034 0.0108,0.049 0.0871,0.023 0.14168,-0.049 0.14958,-0.042 0.13135,0.1132 -0.032,0.274 -0.257,0.7999 -0.38904,0.9094 -0.0582,0.049 -0.0479,0.1018 0.017,0.089 0.0302,-0.01 0.10135,-0.017 0.15802,-0.025 l 0.10302,-0.013 -0.0847,0.2018 c -0.0466,0.111 -0.0956,0.2208 -0.1089,0.2439 -0.0363,0.063 -0.30855,0.7739 -0.41915,1.0945 -0.0898,0.2606 -0.13147,0.4297 -0.23155,0.9411 -0.021,0.1075 -0.0537,0.267 -0.0726,0.3544 -0.0188,0.087 -0.0387,0.1864 -0.0441,0.22 -0.005,0.034 -0.0434,0.2371 -0.0843,0.4522 -0.11247,0.5906 -0.21119,1.1778 -0.23625,1.4055 -0.007,0.06 -0.0279,0.209 -0.0472,0.33 -0.0194,0.1209 -0.0411,0.3134 -0.0484,0.4277 l -0.0135,0.2078 0.10559,-0.2149 c 0.21647,-0.4407 0.53464,-1.1865 0.70079,-1.6428 0.0245,-0.067 0.0678,-0.1827 0.0962,-0.2567 0.15863,-0.4124 0.2187,-0.5915 0.28268,-0.8429 0.0309,-0.1212 0.0793,-0.3084 0.10769,-0.4159 0.11576,-0.4387 0.28452,-1.2797 0.34578,-1.7232 0.0391,-0.283 0.042,-0.2864 0.16187,-0.1838 0.0552,0.048 0.10421,0.086 0.10879,0.086 0.005,-10e-5 0.009,-0.1238 0.01,-0.275 0.002,-0.2868 0.0357,-0.4649 0.13349,-0.6905 l 0.053,-0.1222 0.0834,0.096 c 0.0459,0.052 0.0834,0.091 0.0834,0.086 0.003,-0.4236 0.0239,-0.7115 0.0583,-0.8046 0.0643,-0.1743 0.11895,-0.2933 0.13481,-0.2935 0.008,-10e-5 0.061,0.052 0.11756,0.1161 l 0.10296,0.1163 0,-0.1907 c 0.002,-0.2196 0.053,-0.4742 0.14267,-0.6997 l 0.0625,-0.1571 0.0777,0.09 c 0.0427,0.049 0.0895,0.09 0.10401,0.09 0.0411,0 0.0604,-0.092 0.0432,-0.2068 -0.0325,-0.2171 0.13854,-0.9717 0.21023,-0.9274 0.0125,0.01 0.0651,0.067 0.1167,0.1329 0.0517,0.065 0.10063,0.1121 0.10888,0.1038 0.008,-0.01 0.0151,-0.1108 0.0151,-0.2278 0,-0.23 0.08,-0.6035 0.16467,-0.7685 l 0.0469,-0.091 0.0858,0.1003 c 0.0472,0.055 0.0931,0.093 0.10198,0.084 0.009,-0.01 0.0162,-0.066 0.0166,-0.1281 0,-0.1757 0.15285,-0.6864 0.20456,-0.6864 0.007,0 0.0431,0.055 0.0808,0.1222 0.0377,0.067 0.0769,0.1221 0.087,0.1221 0.0102,10e-5 0.019,-0.047 0.0198,-0.1038 0.004,-0.2541 0.0592,-0.5071 0.15109,-0.6891 l 0.0486,-0.096 0.10714,0.1184 c 0.0589,0.065 0.10714,0.1277 0.10714,0.1391 0,0.011 0.009,0.02 0.0211,0.02 0.0115,0 0.0289,-0.1065 0.0385,-0.2366 0.017,-0.2322 0.10149,-0.5624 0.1666,-0.6514 0.0299,-0.041 0.0374,-0.038 0.11062,0.042 0.0432,0.048 0.099,0.1199 0.124,0.1611 0.0664,0.1092 0.093,0.055 0.10775,-0.2199 0.009,-0.1732 0.0306,-0.2815 0.0838,-0.4261 0.0392,-0.1067 0.0835,-0.1981 0.0983,-0.203 0.0149,-0.01 0.0714,0.053 0.12557,0.1287 l 0.0985,0.1376 0.0145,-0.094 c 0.0391,-0.2538 0.0943,-0.4731 0.14954,-0.5937 l 0.061,-0.1336 0.0602,0.073 c 0.0331,0.04 0.079,0.1027 0.10201,0.1397 0.023,0.037 0.049,0.067 0.0579,0.067 0.0203,0 0.0467,-0.1289 0.0467,-0.2276 0,-0.1713 0.18278,-0.6768 0.24469,-0.6768 0.0289,0 0.16686,0.185 0.1984,0.2661 0.0125,0.032 0.0269,0.054 0.0321,0.049 0.005,-0.01 0.0278,-0.1174 0.0502,-0.2493 0.0384,-0.226 0.13874,-0.5192 0.21463,-0.6275 0.0336,-0.048 0.0346,-0.048 0.0832,0.01 0.0271,0.031 0.0892,0.1272 0.13813,0.2135 0.0807,0.1424 0.089,0.1501 0.0896,0.083 0.002,-0.214 0.12812,-0.6442 0.23782,-0.8116 l 0.0356,-0.055 0.0561,0.066 c 0.0308,0.037 0.0971,0.1413 0.14723,0.2325 0.0501,0.091 0.10362,0.1616 0.11885,0.1566 0.0153,-0.01 0.0364,-0.096 0.047,-0.2016 0.0194,-0.1937 0.10284,-0.4081 0.21377,-0.5491 l 0.0481,-0.061 0.0821,0.09 c 0.0452,0.05 0.096,0.1241 0.11295,0.1651 0.0409,0.099 0.065,0.094 0.0845,-0.017 0.0321,-0.1822 0.0944,-0.3307 0.21359,-0.5089 0.0668,-0.1 0.13142,-0.1816 0.14363,-0.1816 0.0121,0 0.053,0.054 0.0907,0.12 l 0.0686,0.1201 0.0781,-0.1506 c 0.0874,-0.1685 0.26261,-0.3829 0.31299,-0.3829 0.0182,0 0.0462,0.044 0.0623,0.098 0.016,0.054 0.034,0.098 0.0396,0.098 0.006,0 0.17689,-0.1553 0.38049,-0.3451 0.20358,-0.1898 0.40344,-0.3701 0.44412,-0.4004 0.0905,-0.068 0.31213,-0.1855 0.32486,-0.1728 0.0121,0.012 -0.0594,0.1252 -0.43795,0.6918 -0.17272,0.2587 -0.31404,0.4759 -0.31404,0.4828 0,0.01 0.0382,0.013 0.0848,0.013 0.0954,0 0.0956,-0.01 -0.005,0.22 -0.0326,0.074 -0.0873,0.1754 -0.12151,0.2255 -0.0751,0.1098 -0.0612,0.1656 0.0413,0.1656 0.0445,0 0.0806,0.015 0.0892,0.038 0.0223,0.058 -0.0697,0.2439 -0.20405,0.4126 -0.0673,0.084 -0.12947,0.1819 -0.13821,0.2167 -0.0172,0.069 -0.008,0.075 0.16142,0.1048 0.0504,0.01 0.0917,0.021 0.0917,0.027 0,0.053 -0.13295,0.2438 -0.25472,0.3655 -0.12243,0.1224 -0.2097,0.2424 -0.2097,0.2884 0,0 0.0663,0.015 0.14726,0.023 0.20382,0.021 0.26827,0.041 0.26827,0.079 0,0.048 -0.38348,0.4316 -0.50881,0.5095 -0.11799,0.074 -0.12315,0.1154 -0.0156,0.1263 0.13716,0.013 0.29223,0.039 0.31172,0.052 0.0535,0.033 -0.27753,0.3866 -0.50251,0.5368 -0.0908,0.061 -0.15986,0.119 -0.15331,0.1296 0.007,0.011 0.0891,0.027 0.18352,0.036 0.11602,0.011 0.17165,0.027 0.17165,0.048 0,0.081 -0.30155,0.39 -0.53165,0.5454 -0.0706,0.048 -0.12831,0.095 -0.12831,0.1043 0,0.01 0.0723,0.033 0.16074,0.052 l 0.16073,0.034 -0.0823,0.1041 c -0.0453,0.057 -0.13686,0.1478 -0.2035,0.2013 -0.0667,0.054 -0.13451,0.1084 -0.15082,0.1219 -0.0162,0.013 -0.0575,0.037 -0.0916,0.053 -0.0995,0.045 -0.0726,0.082 0.0846,0.1143 0.0807,0.017 0.14666,0.039 0.14666,0.05 0,0.022 -0.11213,0.1684 -0.17171,0.2241 -0.0562,0.053 -0.21743,0.1749 -0.34772,0.2637 -0.0639,0.044 -0.11609,0.094 -0.11609,0.1115 0,0.019 0.0557,0.043 0.14587,0.061 0.0802,0.016 0.15155,0.038 0.15849,0.049 0.0357,0.058 -0.28111,0.3518 -0.55492,0.515 -0.15328,0.091 -0.16926,0.1161 -0.0855,0.1318 0.17916,0.034 0.2478,0.055 0.25544,0.078 0.0235,0.072 -0.33928,0.3889 -0.60374,0.5272 l -0.10999,0.058 0.10999,0.01 c 0.18929,0.011 0.22454,0.025 0.19666,0.077 -0.0438,0.082 -0.29228,0.3125 -0.44058,0.4088 -0.16453,0.107 -0.18552,0.1553 -0.0677,0.1558 0.0437,0 0.0955,0.011 0.11521,0.024 0.0817,0.052 -0.31154,0.4113 -0.62212,0.5689 -0.0805,0.041 -0.15937,0.092 -0.17527,0.1138 -0.0252,0.034 -0.0106,0.044 0.11582,0.072 0.0929,0.021 0.14472,0.045 0.14472,0.067 0,0.092 -0.3771,0.3982 -0.66796,0.5418 -0.24181,0.1195 -0.27517,0.1901 -0.10199,0.2161 0.0605,0.01 0.10999,0.025 0.10999,0.035 0,0.01 -0.0739,0.093 -0.16435,0.1846 -0.15945,0.161 -0.45863,0.3771 -0.52434,0.3787 -0.0344,0 -0.11793,0.056 -0.11793,0.079 0,0.02 0.14695,0.067 0.2114,0.067 0.0934,0 0.0678,0.059 -0.0953,0.2216 -0.1836,0.1825 -0.46195,0.3707 -0.61536,0.4159 -0.0615,0.018 -0.11181,0.041 -0.11181,0.049 0,0.01 0.05,0.029 0.11119,0.045 l 0.11118,0.028 -0.0508,0.071 c -0.12675,0.1781 -0.51743,0.4636 -0.73986,0.5409 -0.10886,0.038 -0.11594,0.062 -0.0244,0.082 0.037,0.01 0.0917,0.034 0.12165,0.057 l 0.0544,0.041 -0.12298,0.086 c -0.17828,0.1241 -0.85764,0.6328 -1.0858,0.8131 -0.18458,0.1459 -0.92293,0.9218 -1.49416,1.5701 -0.14216,0.1613 -0.29932,0.3373 -0.34926,0.3911 -0.05,0.054 -0.16134,0.1858 -0.24754,0.2933 -0.0862,0.1076 -0.17114,0.2105 -0.18878,0.2288 -0.0415,0.043 -0.30861,0.3877 -0.42992,0.5548 -0.11367,0.1566 -0.10982,0.2089 0.009,0.1238 0.0468,-0.034 0.1401,-0.095 0.20731,-0.1367 0.14339,-0.089 0.22633,-0.1481 0.68441,-0.4885 0.18821,-0.14 0.35321,-0.2672 0.36664,-0.2829 0.0135,-0.016 0.0959,-0.082 0.18333,-0.1475 0.0874,-0.066 0.23588,-0.1859 0.32998,-0.2676 0.25831,-0.2241 1.01515,-1.0125 1.29028,-1.3441 0.13385,-0.1613 0.2518,-0.3025 0.26209,-0.3138 0.0104,-0.011 0.0347,0.027 0.0542,0.086 l 0.0355,0.106 0.0444,-0.086 c 0.10254,-0.1978 0.3373,-0.4632 0.47465,-0.5367 0.0473,-0.026 0.0511,-0.021 0.0511,0.059 0,0.048 0.008,0.086 0.0184,0.086 0.0102,0 0.0455,-0.052 0.0787,-0.1162 0.0332,-0.064 0.0931,-0.1601 0.13316,-0.2138 0.0811,-0.1088 0.29588,-0.3055 0.33362,-0.3055 0.0252,0 0.0282,0.01 0.0632,0.1444 l 0.0212,0.083 0.0894,-0.1444 c 0.0959,-0.155 0.26739,-0.3453 0.37404,-0.4152 0.0558,-0.037 0.0691,-0.038 0.0877,-0.01 0.0121,0.019 0.0221,0.065 0.0223,0.1012 0.002,0.1042 0.0624,0.06 0.15309,-0.1109 0.0883,-0.1657 0.29043,-0.3962 0.40697,-0.4641 0.0731,-0.042 0.076,-0.042 0.0796,0 0.002,0.024 0.006,0.055 0.009,0.069 0.003,0.014 0.007,0.049 0.009,0.08 0.004,0.083 0.0618,0.066 0.10859,-0.032 0.0662,-0.1388 0.23709,-0.3513 0.35489,-0.4412 0.0597,-0.045 0.11701,-0.083 0.12734,-0.083 0.0104,0 0.0265,0.046 0.0361,0.1022 0.0154,0.092 0.0201,0.097 0.0449,0.053 0.0775,-0.1366 0.37568,-0.4244 0.43974,-0.4244 0.009,0 0.0156,0.058 0.0156,0.128 l 0,0.1281 0.11056,-0.1648 c 0.0939,-0.14 0.37027,-0.4008 0.39666,-0.3744 0.005,0.01 0.016,0.077 0.0256,0.1596 l 0.0172,0.1512 0.10419,-0.1587 c 0.0961,-0.1464 0.27754,-0.3314 0.3774,-0.3849 0.0349,-0.019 0.0439,-0.01 0.0561,0.07 0.008,0.051 0.0222,0.1234 0.0317,0.162 l 0.0172,0.07 0.0958,-0.139 c 0.0918,-0.1333 0.37789,-0.4157 0.39936,-0.3943 0.006,0.01 0.0231,0.067 0.0387,0.1367 l 0.0283,0.1264 0.0856,-0.1145 c 0.0945,-0.1264 0.33657,-0.3438 0.35845,-0.3219 0.008,0.01 0.0196,0.064 0.0265,0.1251 0.007,0.061 0.0194,0.1112 0.0277,0.1112 0.008,0 0.0802,-0.073 0.15963,-0.1616 0.15063,-0.1685 0.31594,-0.3029 0.37249,-0.3029 0.0236,0 0.033,0.037 0.033,0.1304 0,0.072 0.007,0.1374 0.0155,0.1458 0.008,0.01 0.0453,-0.025 0.0817,-0.075 0.11612,-0.1592 0.39064,-0.3964 0.45892,-0.3964 0.0119,0 0.021,0.083 0.02,0.1834 0,0.1008 0.006,0.1833 0.016,0.1833 0.01,0 0.0337,-0.03 0.0532,-0.067 0.0392,-0.074 0.2757,-0.3066 0.40005,-0.3928 0.10057,-0.07 0.1104,-0.05 0.0994,0.2017 -0.009,0.2094 0.0172,0.2363 0.10026,0.1021 0.0867,-0.1404 0.38446,-0.3557 0.44232,-0.32 0.0131,0.01 0.0237,0.08 0.0237,0.1599 0,0.08 0.003,0.1452 0.007,0.1452 0.004,0 0.063,-0.053 0.13066,-0.1187 0.10937,-0.1053 0.35224,-0.2479 0.42246,-0.2479 0.0143,0 0.026,0.044 0.026,0.098 0,0.054 0.004,0.098 0.009,0.098 0.005,0 0.0606,-0.028 0.12339,-0.064 0.10932,-0.061 0.33142,-0.1403 0.34771,-0.124 0.004,0.01 -0.002,0.042 -0.0145,0.085 -0.0123,0.042 -0.0133,0.083 -0.002,0.09 0.011,0.01 0.10087,-0.01 0.19987,-0.034 0.52613,-0.1332 0.85672,-0.1775 0.91214,-0.122 0.007,0.01 -0.202,0.1152 -0.46383,0.2411 -0.26184,0.126 -0.47608,0.2375 -0.47608,0.2479 0,0.01 0.019,0.03 0.0423,0.042 0.04,0.023 0.04,0.027 0,0.07 -0.0233,0.026 -0.11384,0.089 -0.20121,0.1397 l -0.15888,0.093 0.0623,0.063 0.0623,0.063 -0.0636,0.059 c -0.035,0.033 -0.1317,0.086 -0.21496,0.1201 -0.0833,0.034 -0.17167,0.079 -0.19647,0.1013 -0.0433,0.039 -0.0419,0.043 0.0367,0.1088 l 0.0817,0.069 -0.0587,0.045 c -0.0635,0.048 -0.33235,0.1495 -0.39582,0.149 -0.0214,0 -0.0569,0.02 -0.0789,0.044 -0.0375,0.042 -0.0327,0.049 0.0818,0.135 0.0669,0.05 0.12165,0.1001 0.12165,0.1114 0,0.05 -0.375,0.1495 -0.56409,0.1495 -0.0511,0 -0.0998,0.011 -0.1081,0.024 -0.008,0.013 -0.005,0.025 0.007,0.025 0.0296,0 0.22584,0.17 0.22584,0.1957 0,0.042 -0.28647,0.1272 -0.47128,0.1402 -0.1046,0.01 -0.19557,0.022 -0.20216,0.033 -0.007,0.011 0.0377,0.053 0.0985,0.095 0.0608,0.042 0.11051,0.085 0.11051,0.097 0,0.049 -0.41878,0.1726 -0.58406,0.1726 -0.0552,0 -0.10035,0.01 -0.10035,0.017 0,0.01 0.0342,0.052 0.0759,0.095 0.0737,0.076 0.0745,0.079 0.0264,0.1049 -0.0731,0.039 -0.34518,0.099 -0.45062,0.1 -0.11075,0 -0.11601,0.029 -0.0184,0.098 0.0914,0.065 0.0937,0.1169 0.006,0.136 -0.037,0.01 -0.10017,0.025 -0.14044,0.038 -0.0403,0.013 -0.15301,0.031 -0.25053,0.038 -0.11021,0.01 -0.17734,0.026 -0.17734,0.044 0,0.016 0.033,0.06 0.0733,0.099 0.0403,0.039 0.0733,0.077 0.0733,0.086 0,0.037 -0.29351,0.1032 -0.48182,0.1095 -0.11273,0 -0.21089,0.013 -0.21817,0.02 -0.007,0.01 0.0329,0.055 0.0892,0.1057 l 0.10237,0.092 -0.13074,0.047 c -0.0895,0.032 -0.20206,0.048 -0.35671,0.05 -0.12427,0 -0.22601,0.01 -0.22609,0.02 0,0.01 0.0384,0.04 0.0854,0.07 0.0471,0.029 0.0856,0.062 0.0856,0.072 0,0.049 -0.30961,0.1232 -0.51663,0.1232 -0.13524,0 -0.14809,0.023 -0.0517,0.094 0.0455,0.034 0.0592,0.057 0.0425,0.074 -0.0489,0.05 -0.34653,0.1082 -0.56198,0.1104 -0.12098,0.01 -0.21999,0.01 -0.21999,0.019 0,0.01 0.0296,0.049 0.0658,0.09 0.0831,0.093 0.0664,0.1081 -0.18547,0.1636 -0.13442,0.03 -0.25022,0.039 -0.38155,0.03 -0.23514,-0.016 -0.278,0 -0.1954,0.092 0.0505,0.054 0.0542,0.067 0.0238,0.087 -0.0824,0.053 -0.22267,0.079 -0.48429,0.09 l -0.27717,0.012 0.0813,0.084 c 0.0984,0.1015 0.088,0.1117 -0.17221,0.17 -0.12492,0.028 -0.24011,0.037 -0.37275,0.027 -0.19195,-0.013 -0.22419,0 -0.15532,0.055 0.0588,0.049 0.0444,0.067 -0.0917,0.1141 -0.096,0.034 -0.20032,0.045 -0.41446,0.045 -0.28164,0 -0.28557,0 -0.25075,0.049 0.0962,0.1329 0.10929,0.1249 -0.25248,0.1566 -0.18426,0.016 -0.43951,0.045 -0.56724,0.065 -0.12771,0.02 -0.27376,0.041 -0.32456,0.047 -0.0998,0.012 -0.12281,0.019 -0.79982,0.2236 -0.24869,0.075 -0.49068,0.1476 -0.53775,0.1608 -0.34105,0.095 -1.40968,0.4776 -1.35659,0.4851 0.0135,0 0.15094,0 0.30554,0 0.36537,-0.01 0.87876,-0.078 1.48759,-0.2147 0.0519,-0.012 0.055,-0.01 0.0305,0.037 -0.0377,0.07 -0.0358,0.1159 0.004,0.084 0.0418,-0.034 0.31328,-0.1029 0.40849,-0.1029 0.0683,0 0.0756,0.01 0.0609,0.052 -0.0141,0.044 -0.01,0.05 0.0289,0.034 0.079,-0.034 0.31164,-0.085 0.38168,-0.086 0.0725,0 0.0822,0.024 0.0408,0.1011 -0.0309,0.058 -0.0129,0.087 0.032,0.052 0.0732,-0.057 0.43437,-0.1083 0.43437,-0.061 0,0.01 -0.0182,0.045 -0.0406,0.077 -0.0396,0.056 -0.0392,0.058 0.0184,0.044 0.0324,-0.01 0.10289,-0.031 0.15667,-0.052 0.0538,-0.02 0.16228,-0.038 0.24112,-0.039 l 0.14338,0 -0.041,0.063 c -0.0575,0.088 -0.0386,0.1147 0.0476,0.068 0.0819,-0.044 0.42775,-0.077 0.42775,-0.041 0,0.012 -0.0131,0.035 -0.0289,0.052 -0.0454,0.045 -0.0201,0.048 0.16909,0.021 0.17963,-0.026 0.23422,-0.014 0.18207,0.038 -0.0716,0.071 -0.0309,0.077 0.23366,0.028 0.0436,-0.01 0.0966,-0.01 0.11783,0 0.0338,0.013 0.0322,0.024 -0.0125,0.087 -0.0545,0.077 -0.0287,0.1283 0.0368,0.073 0.0393,-0.033 0.37744,-0.065 0.37744,-0.036 0,0.01 -0.0232,0.05 -0.0515,0.09 -0.0631,0.089 -0.0485,0.1081 0.054,0.073 0.043,-0.015 0.13825,-0.027 0.21162,-0.027 0.11747,0 0.13131,0.01 0.1158,0.043 -0.0495,0.1203 -0.0466,0.1278 0.0402,0.103 0.0971,-0.027 0.29021,-0.031 0.28943,-0.01 0,0.01 -0.0221,0.046 -0.0483,0.079 -0.0697,0.089 -0.0606,0.1 0.052,0.06 0.10886,-0.038 0.32846,-0.049 0.34866,-0.016 0.007,0.011 -0.009,0.056 -0.0352,0.098 -0.0603,0.099 -0.0597,0.105 0.008,0.079 0.0523,-0.02 0.24589,-0.037 0.34146,-0.03 0.0573,0.01 0.054,0.029 -0.0184,0.1353 -0.0336,0.049 -0.0611,0.094 -0.0611,0.098 0,0.01 0.0412,-0.01 0.0917,-0.025 0.0968,-0.034 0.24583,-0.045 0.3081,-0.02 0.0479,0.019 0.0268,0.075 -0.0619,0.1677 -0.0754,0.078 -0.0599,0.1344 0.0246,0.089 0.0894,-0.048 0.32255,-0.025 0.32145,0.031 0,0.015 -0.0221,0.055 -0.0483,0.089 -0.0263,0.034 -0.048,0.066 -0.0484,0.074 -0.002,0.01 0.0483,0.01 0.10808,0.01 0.18324,-0.015 0.35347,0.071 0.25804,0.1305 -0.0487,0.03 -0.022,0.053 0.10999,0.094 0.13002,0.041 0.16102,0.07 0.11,0.101 -0.0588,0.036 -0.0102,0.088 0.20172,0.2145 0.22582,0.1347 0.33317,0.2242 0.30398,0.2535 -0.008,0.01 -0.13951,-0.02 -0.29113,-0.064 -0.33583,-0.097 -0.32621,-0.096 -0.31739,-0.043 0.005,0.027 -0.009,0.044 -0.0367,0.045 -0.0606,0.01 -0.0558,0.01 -0.1755,-0.015 l -0.10722,-0.018 0.0166,0.067 c 0.0164,0.066 0.0154,0.066 -0.0884,0.055 -0.0577,-0.01 -0.13528,-0.026 -0.17229,-0.043 -0.0804,-0.038 -0.0997,-0.024 -0.0997,0.074 0,0.07 -0.004,0.073 -0.0817,0.059 -0.045,-0.01 -0.12175,-0.035 -0.17065,-0.061 -0.0489,-0.025 -0.0971,-0.04 -0.10716,-0.034 -0.01,0.01 -0.008,0.057 0.005,0.1124 0.0125,0.056 0.017,0.1068 0.0102,0.1137 -0.0255,0.026 -0.22758,-0.071 -0.2943,-0.1408 -0.038,-0.04 -0.077,-0.067 -0.0868,-0.061 -0.01,0.01 -0.0121,0.061 -0.005,0.1214 0.009,0.08 0.004,0.1104 -0.0192,0.1104 -0.0363,0 -0.24009,-0.1156 -0.28815,-0.1634 -0.0559,-0.056 -0.0735,-0.035 -0.0596,0.069 0.0129,0.097 0.0113,0.1 -0.0451,0.084 -0.0322,-0.01 -0.12185,-0.06 -0.19915,-0.1115 l -0.14055,-0.095 0,0.084 c 0,0.046 -0.006,0.084 -0.0135,0.084 -0.0269,0 -0.17183,-0.081 -0.24932,-0.1386 l -0.0795,-0.059 0,0.089 c 0,0.08 -0.005,0.087 -0.055,0.072 -0.0303,-0.01 -0.10789,-0.06 -0.17253,-0.1143 -0.0646,-0.054 -0.12267,-0.093 -0.12894,-0.086 -0.006,0.01 -0.0129,0.052 -0.0149,0.1004 -0.002,0.049 -0.0135,0.089 -0.0258,0.089 -0.0372,0 -0.29096,-0.1763 -0.30449,-0.2116 -0.024,-0.063 -0.0562,-0.033 -0.0562,0.053 0,0.1166 -0.057,0.1128 -0.21678,-0.015 l -0.12542,-0.1 0,0.063 c 0,0.035 -0.006,0.063 -0.0131,0.063 -0.0397,0 -0.26025,-0.1296 -0.27183,-0.1598 -0.0219,-0.057 -0.0574,-0.041 -0.0574,0.026 0,0.034 -0.006,0.061 -0.0131,0.061 -0.0468,0 -0.22407,-0.1155 -0.30468,-0.1986 -0.105,-0.1082 -0.15835,-0.1063 -0.13396,0.01 0.0153,0.069 0.0141,0.07 -0.0573,0.045 -0.04,-0.013 -0.092,-0.047 -0.11559,-0.073 -0.0236,-0.027 -0.0521,-0.047 -0.0635,-0.047 -0.0113,0 -0.0605,-0.044 -0.10903,-0.098 -0.096,-0.1062 -0.14377,-0.1258 -0.11938,-0.049 0.008,0.026 0.009,0.059 0,0.073 -0.0207,0.034 -0.17646,-0.057 -0.29494,-0.1722 -0.11852,-0.1147 -0.1426,-0.1192 -0.1213,-0.022 0.0119,0.054 0.007,0.074 -0.0178,0.074 -0.0469,0 -0.23882,-0.1264 -0.31041,-0.2043 -0.0668,-0.073 -0.0996,-0.082 -0.0996,-0.027 0,0.02 -0.009,0.037 -0.0197,0.037 -0.0427,0 -0.24124,-0.1429 -0.31414,-0.2262 -0.0824,-0.094 -0.10618,-0.094 -0.10618,0 0,0.059 0,0.059 -0.0988,-0.023 -0.40492,-0.334 -0.54454,-0.4254 -0.97667,-0.6401 -0.55402,-0.2753 -0.8557,-0.4109 -0.88904,-0.3998 -0.024,0.01 0.15561,0.1585 0.40489,0.3393 0.41806,0.3034 0.55904,0.3842 0.88701,0.5089 0.0576,0.022 0.0649,0.032 0.0363,0.05 -0.0314,0.02 -0.0313,0.027 0,0.047 0.0202,0.013 0.0531,0.024 0.0733,0.025 0.0644,0.01 0.20708,0.1002 0.17353,0.121 -0.019,0.012 0.011,0.031 0.0802,0.049 0.11856,0.034 0.20798,0.1067 0.16336,0.1343 -0.0387,0.024 -0.0315,0.062 0.0119,0.062 0.0321,0 0.17352,0.061 0.20391,0.088 0.005,0.01 -0.004,0.025 -0.0205,0.045 -0.0252,0.03 -0.0188,0.039 0.0393,0.052 0.0871,0.02 0.2527,0.1102 0.2527,0.1368 0,0.011 -0.022,0.02 -0.0489,0.02 -0.0719,0 -0.0595,0.041 0.0184,0.06 0.14277,0.035 0.22809,0.09 0.21326,0.1372 -0.0108,0.034 0.01,0.057 0.0886,0.097 0.08,0.041 0.0952,0.058 0.0685,0.077 -0.0196,0.013 -0.0237,0.028 -0.01,0.034 0.0135,0.01 0.0602,0.032 0.10388,0.059 0.0838,0.051 0.1043,0.098 0.0428,0.098 -0.0652,0 -0.0374,0.035 0.067,0.086 0.11944,0.057 0.14042,0.098 0.0623,0.1195 -0.0505,0.014 -0.0444,0.021 0.0613,0.074 0.1507,0.074 0.15706,0.082 0.10235,0.1219 -0.043,0.031 -0.0407,0.036 0.0384,0.076 0.11177,0.057 0.11015,0.054 0.0624,0.1067 -0.0396,0.044 -0.0389,0.047 0.0145,0.061 0.0309,0.01 0.0836,0.037 0.11725,0.064 0.0584,0.047 0.0591,0.051 0.0162,0.084 -0.0428,0.033 -0.0423,0.035 0.0123,0.064 0.0314,0.016 0.0826,0.052 0.11388,0.081 l 0.0568,0.052 -0.055,0.013 c -0.0755,0.018 -0.085,0.063 -0.017,0.082 0.0308,0.01 0.0836,0.037 0.11717,0.063 l 0.0611,0.048 -0.078,0.031 -0.078,0.03 0.0902,0.079 c 0.0871,0.076 0.0885,0.08 0.0426,0.1145 -0.0462,0.034 -0.0453,0.038 0.0306,0.1137 0.0854,0.085 0.0981,0.1233 0.0415,0.1233 -0.051,0 -0.0458,0.033 0.0137,0.087 0.0319,0.029 0.0456,0.064 0.0374,0.095 -0.009,0.036 0.0153,0.077 0.0907,0.1477 0.057,0.054 0.1185,0.1173 0.13667,0.1408 0.0577,0.075 -0.046,0.052 -0.19406,-0.042 z"
       id="path8299-4"
       inkscape:connector-curvature="0" />
  </g>
</svg>
