<?xml version="1.0" encoding="UTF-8" standalone="no"?>
<!-- Created with Inkscape (http://www.inkscape.org/) -->

<svg
   xmlns:dc="http://purl.org/dc/elements/1.1/"
   xmlns:cc="http://creativecommons.org/ns#"
   xmlns:rdf="http://www.w3.org/1999/02/22-rdf-syntax-ns#"
   xmlns:svg="http://www.w3.org/2000/svg"
   xmlns="http://www.w3.org/2000/svg"
   xmlns:sodipodi="http://sodipodi.sourceforge.net/DTD/sodipodi-0.dtd"
   xmlns:inkscape="http://www.inkscape.org/namespaces/inkscape"
   width="30"
   height="30"
   id="svg2"
   sodipodi:version="0.32"
   inkscape:version="0.48.4 r9939"
   sodipodi:docname="kettle.svg"
   inkscape:output_extension="org.inkscape.output.svg.inkscape"
   version="1.1">
  <defs
     id="defs4" />
  <sodipodi:namedview
     id="base"
     pagecolor="#ffffff"
     bordercolor="#666666"
     borderopacity="1.0"
     inkscape:pageopacity="0.0"
     inkscape:pageshadow="2"
     inkscape:zoom="10.276087"
     inkscape:cx="15.344828"
     inkscape:cy="14.482759"
     inkscape:document-units="px"
     inkscape:current-layer="layer1"
     inkscape:window-width="656"
     inkscape:window-height="1029"
     inkscape:window-x="0"
     inkscape:window-y="19"
     showgrid="false"
     inkscape:window-maximized="0" />
  <metadata
     id="metadata7">
    <rdf:RDF>
      <cc:Work
         rdf:about="">
        <dc:format>image/svg+xml</dc:format>
        <dc:type
           rdf:resource="http://purl.org/dc/dcmitype/StillImage" />
        <dc:title></dc:title>
      </cc:Work>
    </rdf:RDF>
  </metadata>
  <g
     inkscape:label="Capa 1"
     inkscape:groupmode="layer"
     id="layer1"
     transform="translate(0,-1022.3622)">
    <path
       sodipodi:type="arc"
       style="color:#000000;fill:#1a1a1a;stroke:#d4d4d4;stroke-width:1.02777779;stroke-opacity:1;marker:none;visibility:visible;display:inline;overflow:visible;enable-background:accumulate"
       id="path16617-6-6"
       sodipodi:cx="15.16226"
       sodipodi:cy="16.56851"
       sodipodi:rx="14.008413"
       sodipodi:ry="14.008413"
       d="m 29.170673,16.56851 a 14.008413,14.008413 0 1 1 -28.0168263,0 14.008413,14.008413 0 1 1 28.0168263,0 z"
       transform="matrix(0.97297297,0,0,0.97297297,330.50795,953.63241)" />
    <path
       style="fill:#1a1a1a;stroke:#d4d4d4;stroke-width:1px;stroke-linecap:butt;stroke-linejoin:miter;stroke-opacity:1"
       d="m 345.29648,957.89011 0,11.863 0,0"
       id="path16623-6-2"
       inkscape:connector-curvature="0"
       inkscape:transform-center-y="-5.9314904" />
    <path
       style="fill:#1a1a1a;stroke:#d4d4d4;stroke-width:1px;stroke-linecap:butt;stroke-linejoin:miter;stroke-opacity:1"
       d="m 357.15947,969.75311 -1.70877,0 0,0"
       id="path16623-4-2-0"
       inkscape:connector-curvature="0"
       inkscape:transform-center-x="-0.854382" />
    <path
       style="fill:#1a1a1a;stroke:#d4d4d4;stroke-width:0.99999994px;stroke-linecap:butt;stroke-linejoin:miter;stroke-opacity:1"
       d="m 345.29648,981.61611 0,-2.0181 0,0"
       id="path16623-4-3-9-0"
       inkscape:connector-curvature="0"
       inkscape:transform-center-y="1.0091015" />
    <path
       style="fill:#1a1a1a;stroke:#d4d4d4;stroke-width:1px;stroke-linecap:butt;stroke-linejoin:miter;stroke-opacity:1"
       d="m 333.43348,969.75311 11.863,0 0,0"
       id="path16623-4-3-4-1-0"
       inkscape:connector-curvature="0"
       inkscape:transform-center-x="5.9315" />
    <path
       inkscape:connector-curvature="0"
       sodipodi:nodetypes="cccccccccccccc"
       id="path9518-0-7"
       d="m 14.999994,1025.9915 -11.2422196,9.9235 2.2484301,0 0,12.8177 6.7453475,0 0,-7.5644 4.651059,0 1.3e-5,7.5644 6.591159,0 0,-12.8177 2.248444,0 -11.242237,-9.9235 0,0 0,0 z"
       style="font-size:12px;fill:none;stroke:none" />
    <path
       inkscape:connector-curvature="0"
       style="fill:#1a1a1a;fill-opacity:1"
       d="m 2.984375,1027.0028 c -0.272747,0 -0.46875,0.2304 -0.46875,0.5 l 0,16.6563 c 0,0.2694 0.196003,0.4687 0.46875,0.4687 l 24,0 c 0.272659,0 0.5,-0.1993 0.5,-0.4687 l 0,-16.6563 c 0,-0.2696 -0.227341,-0.5 -0.5,-0.5 l -24,0 z m 1.3749999,1.375 15.0937501,0 c 0.104306,0 0.20753,0.052 0.28125,0.125 0.07372,0.073 0.09375,0.178 0.09375,0.2813 l 0,14.0937 c 0,0.1032 -0.02003,0.2086 -0.09375,0.2813 -0.07372,0.073 -0.176944,0.094 -0.28125,0.094 l -15.0937501,0 c -0.104393,0 -0.207443,-0.021 -0.28125,-0.094 -0.07363,-0.073 -0.09375,-0.1781 -0.09375,-0.2813 l 0,-14.0937 c 0,-0.1033 0.02012,-0.2081 0.09375,-0.2813 0.07389,-0.073 0.176857,-0.125 0.28125,-0.125 z m 17.0312501,0 4.8125,0 c 0.04165,0 0.06412,0 0.09375,0.031 0.02911,0.029 0.06259,0.084 0.0625,0.125 l 0,2.6563 c 0,0.041 -0.03322,0.065 -0.0625,0.094 -0.02945,0.029 -0.05201,0.063 -0.09375,0.063 l -4.8125,0 c -0.04148,0 -0.09554,-0.034 -0.125,-0.063 -0.02963,-0.029 -0.03125,-0.053 -0.03125,-0.094 l 0,-2.6563 c 0,-0.041 0.0016,-0.096 0.03125,-0.125 0.02945,-0.029 0.08343,-0.031 0.125,-0.031 z m -4.1875,2 c -0.219068,0 -0.375,0.1587 -0.375,0.375 l 0,10.125 c 0,0.2165 0.155932,0.4063 0.375,0.4063 0.218546,0 0.40625,-0.1898 0.40625,-0.4063 l 0,-10.125 c 0,-0.2164 -0.187704,-0.375 -0.40625,-0.375 z m 4.28125,2.2188 0.3125,0 c 0.14805,0 0.25,0.1039 0.25,0.25 l 0,0.3125 c 0,0.1459 -0.10195,0.25 -0.25,0.25 l -0.3125,0 c -0.147875,0 -0.25,-0.1041 -0.25,-0.25 l 0,-0.3125 c 0,-0.1461 0.102125,-0.25 0.25,-0.25 z m 2.15625,0 0.28125,0 c 0.147527,0 0.28125,0.1351 0.28125,0.2812 l 0,0.2813 c 0,0.146 -0.133723,0.2812 -0.28125,0.2812 l -0.28125,0 c -0.147876,0 -0.28125,-0.1352 -0.28125,-0.2812 l 0,-0.2813 c 0,-0.1461 0.133374,-0.2812 0.28125,-0.2812 z m 2.125,0 0.3125,0 c 0.147701,0 0.28125,0.1351 0.28125,0.2812 l 0,0.2813 c 0,0.146 -0.133549,0.2812 -0.28125,0.2812 l -0.3125,0 c -0.147876,0 -0.25,-0.1352 -0.25,-0.2812 l 0,-0.2813 c 0,-0.1461 0.102124,-0.2812 0.25,-0.2812 z m -6.3125,9.875 0,0.4062 0,-0.4062 z m -16.25,2.7812 c -0.379666,0 -0.6875,0.308 -0.6875,0.6875 l 0,1.0938 c 0,0.3795 0.307921,0.6875 0.6875,0.6875 l 23.59375,0 c 0.379579,0 0.6875,-0.3081 0.6875,-0.6875 l 0,-1.0938 c 0,-0.3796 -0.308008,-0.6875 -0.6875,-0.6875 l -23.59375,0 z"
       id="path239-2" />
  </g>
</svg>
