<?xml version="1.0" encoding="UTF-8" standalone="no"?>
<!-- Created with Inkscape (http://www.inkscape.org/) -->

<svg
   xmlns:dc="http://purl.org/dc/elements/1.1/"
   xmlns:cc="http://creativecommons.org/ns#"
   xmlns:rdf="http://www.w3.org/1999/02/22-rdf-syntax-ns#"
   xmlns:svg="http://www.w3.org/2000/svg"
   xmlns="http://www.w3.org/2000/svg"
   xmlns:sodipodi="http://sodipodi.sourceforge.net/DTD/sodipodi-0.dtd"
   xmlns:inkscape="http://www.inkscape.org/namespaces/inkscape"
   width="30"
   height="30"
   id="svg2"
   sodipodi:version="0.32"
   inkscape:version="0.48.4 r9939"
   sodipodi:docname="candy.svg"
   inkscape:output_extension="org.inkscape.output.svg.inkscape"
   version="1.1">
  <defs
     id="defs4" />
  <sodipodi:namedview
     id="base"
     pagecolor="#ffffff"
     bordercolor="#666666"
     borderopacity="1.0"
     inkscape:pageopacity="0.0"
     inkscape:pageshadow="2"
     inkscape:zoom="10.276087"
     inkscape:cx="15.344828"
     inkscape:cy="14.482759"
     inkscape:document-units="px"
     inkscape:current-layer="layer1"
     inkscape:window-width="656"
     inkscape:window-height="1029"
     inkscape:window-x="0"
     inkscape:window-y="19"
     showgrid="false"
     inkscape:window-maximized="0" />
  <metadata
     id="metadata7">
    <rdf:RDF>
      <cc:Work
         rdf:about="">
        <dc:format>image/svg+xml</dc:format>
        <dc:type
           rdf:resource="http://purl.org/dc/dcmitype/StillImage" />
        <dc:title></dc:title>
      </cc:Work>
    </rdf:RDF>
  </metadata>
  <g
     inkscape:label="Capa 1"
     inkscape:groupmode="layer"
     id="layer1"
     transform="translate(0,-1022.3622)">
    <path
       sodipodi:type="arc"
       style="color:#000000;fill:#1a1a1a;stroke:#d4d4d4;stroke-width:1.02777779;stroke-opacity:1;marker:none;visibility:visible;display:inline;overflow:visible;enable-background:accumulate"
       id="path16617-6-6"
       sodipodi:cx="15.16226"
       sodipodi:cy="16.56851"
       sodipodi:rx="14.008413"
       sodipodi:ry="14.008413"
       d="m 29.170673,16.56851 a 14.008413,14.008413 0 1 1 -28.0168263,0 14.008413,14.008413 0 1 1 28.0168263,0 z"
       transform="matrix(0.97297297,0,0,0.97297297,330.50795,953.63241)" />
    <path
       style="fill:#1a1a1a;stroke:#d4d4d4;stroke-width:1px;stroke-linecap:butt;stroke-linejoin:miter;stroke-opacity:1"
       d="m 345.29648,957.89011 0,11.863 0,0"
       id="path16623-6-2"
       inkscape:connector-curvature="0"
       inkscape:transform-center-y="-5.9314904" />
    <path
       style="fill:#1a1a1a;stroke:#d4d4d4;stroke-width:1px;stroke-linecap:butt;stroke-linejoin:miter;stroke-opacity:1"
       d="m 357.15947,969.75311 -1.70877,0 0,0"
       id="path16623-4-2-0"
       inkscape:connector-curvature="0"
       inkscape:transform-center-x="-0.854382" />
    <path
       style="fill:#1a1a1a;stroke:#d4d4d4;stroke-width:0.99999994px;stroke-linecap:butt;stroke-linejoin:miter;stroke-opacity:1"
       d="m 345.29648,981.61611 0,-2.0181 0,0"
       id="path16623-4-3-9-0"
       inkscape:connector-curvature="0"
       inkscape:transform-center-y="1.0091015" />
    <path
       style="fill:#1a1a1a;stroke:#d4d4d4;stroke-width:1px;stroke-linecap:butt;stroke-linejoin:miter;stroke-opacity:1"
       d="m 333.43348,969.75311 11.863,0 0,0"
       id="path16623-4-3-4-1-0"
       inkscape:connector-curvature="0"
       inkscape:transform-center-x="5.9315" />
    <path
       inkscape:connector-curvature="0"
       sodipodi:nodetypes="cccccccccccccc"
       id="path9518-0-7"
       d="m 14.999994,1025.9915 -11.2422196,9.9235 2.2484301,0 0,12.8177 6.7453475,0 0,-7.5644 4.651059,0 1.3e-5,7.5644 6.591159,0 0,-12.8177 2.248444,0 -11.242237,-9.9235 0,0 0,0 z"
       style="font-size:12px;fill:none;stroke:none" />
    <path
       id="path3292-8"
       style="fill:#1a1a1a;fill-opacity:1;fill-rule:nonzero;stroke:none"
       d="m 15.16717,1027.5606 a 0.46705715,1.8932049 85.789243 1 1 -3.70018,0.069 0.46705715,1.8932049 85.789243 1 1 3.70018,-0.069 z m 6.26282,3.966 a 0.71824744,0.44490032 55.426554 0 1 -1.08313,-0.3575 0.71824744,0.44490032 55.426554 1 1 1.08313,0.3575 z m -6.38192,-0.799 a 0.62201841,0.74162052 65.587958 0 1 -1.41304,-0.1017 0.62201841,0.74162052 65.587958 0 1 1.41304,0.1017 z m -2.49406,5.2223 a 1.6538932,1.5607089 78.506095 0 1 -2.8773495,1.2277 1.6538932,1.5607089 78.506095 0 1 2.8773495,-1.2277 z m 11.20624,-0.089 a 1.6445629,1.0186831 81.797416 0 1 -1.85841,-1.8349 1.6445629,1.0186831 81.797416 1 1 1.85841,1.8349 z m -3.64589,-7.0012 a 1.6754549,0.67084128 21.501496 1 1 -2.26446,0.2614 1.6754549,0.67084128 21.501496 0 1 2.26446,-0.2614 z m -1.30443,4.9022 a 1.8765817,1.4193778 10.704645 1 1 -3.5675,0.5409 1.8765817,1.4193778 10.704645 1 1 3.5675,-0.5409 z m -7.43727,-2.6163 a 1.1483502,1.3843635 44.184966 0 1 -1.7287595,-1.5135 1.1483502,1.3843635 44.184966 0 1 1.7287595,1.5135 z m -3.9605495,2.3664 a 0.92045045,1.5149079 18.042134 1 1 -1.75037,-0.5701 0.92045045,1.5149079 18.042134 0 1 1.75037,0.5701 z m 7.1619795,-6.8615 c -4.9585795,-0.025 -7.9505495,2.2866 -9.5661895,4.8034 -0.80783,1.2584 -1.27702,2.566 -1.49493,3.6645 -0.21791,1.0985 -0.21161,1.9686 0.0441,2.4644 0.44945,0.8715 1.53683,1.2816 2.72884,1.5153 0.78313,0.1535 1.62368,0.2299 2.39324,0.2745 0.38282,1.4002 -0.31647,4.2366 -1.23053,6.0374 -1.09526,2.1578 4.0876595,2.7122 7.9729595,2.661 3.88531,-0.051 8.74677,-0.1658 7.43058,-2.8983 -1.23995,-2.5743 -1.69198,-4.7938 -1.30509,-5.9831 0.65578,-0.033 1.32979,-0.069 1.97289,-0.1593 1.18526,-0.1661 2.28478,-0.5284 2.87122,-1.4848 0.32912,-0.5368 0.32481,-1.4384 0.0508,-2.5356 -0.27396,-1.0972 -0.8446,-2.3836 -1.76273,-3.617 -1.83625,-2.4668 -5.08175,-4.7162 -10.10517,-4.7424 z m -0.003,0.4339 c 4.89544,0.026 7.99331,2.197 9.75941,4.5696 0.88305,1.1862 1.42917,2.4237 1.68816,3.461 0.25898,1.0372 0.20227,1.879 0.003,2.2034 -0.48486,0.7907 -1.42718,1.1256 -2.56274,1.2848 -1.13557,0.1591 -2.43281,0.1341 -3.54918,0.2678 -2.10237,0.2515 -8.09629,0.2029 -10.0848495,0.1186 -1.00344,-0.043 -2.31491,-0.091 -3.45766,-0.3153 -1.14275,-0.224 -2.08444,-0.6336 -2.42375,-1.2915 -0.14563,-0.2824 -0.21089,-1.1336 -0.003,-2.1797 0.2075,-1.046 0.65866,-2.3042 1.43391,-3.5119 1.55048,-2.4154 4.37297,-4.6319 9.1966995,-4.6068 z"
       inkscape:connector-curvature="0" />
  </g>
</svg>
