<?xml version="1.0" encoding="UTF-8" standalone="no"?>
<!-- Created with Inkscape (http://www.inkscape.org/) -->

<svg
   xmlns:dc="http://purl.org/dc/elements/1.1/"
   xmlns:cc="http://creativecommons.org/ns#"
   xmlns:rdf="http://www.w3.org/1999/02/22-rdf-syntax-ns#"
   xmlns:svg="http://www.w3.org/2000/svg"
   xmlns="http://www.w3.org/2000/svg"
   xmlns:sodipodi="http://sodipodi.sourceforge.net/DTD/sodipodi-0.dtd"
   xmlns:inkscape="http://www.inkscape.org/namespaces/inkscape"
   width="30"
   height="30"
   id="svg2"
   sodipodi:version="0.32"
   inkscape:version="0.48.4 r9939"
   sodipodi:docname="squatter.svg"
   inkscape:output_extension="org.inkscape.output.svg.inkscape"
   version="1.1">
  <defs
     id="defs4" />
  <sodipodi:namedview
     id="base"
     pagecolor="#ffffff"
     bordercolor="#666666"
     borderopacity="1.0"
     inkscape:pageopacity="0.0"
     inkscape:pageshadow="2"
     inkscape:zoom="10.276087"
     inkscape:cx="15.344828"
     inkscape:cy="14.482759"
     inkscape:document-units="px"
     inkscape:current-layer="layer1"
     inkscape:window-width="656"
     inkscape:window-height="1029"
     inkscape:window-x="0"
     inkscape:window-y="19"
     showgrid="false"
     inkscape:window-maximized="0" />
  <metadata
     id="metadata7">
    <rdf:RDF>
      <cc:Work
         rdf:about="">
        <dc:format>image/svg+xml</dc:format>
        <dc:type
           rdf:resource="http://purl.org/dc/dcmitype/StillImage" />
        <dc:title></dc:title>
      </cc:Work>
    </rdf:RDF>
  </metadata>
  <g
     inkscape:label="Capa 1"
     inkscape:groupmode="layer"
     id="layer1"
     transform="translate(0,-1022.3622)">
    <path
       sodipodi:type="arc"
       style="color:#000000;fill:#1a1a1a;stroke:#d4d4d4;stroke-width:1.02777779;stroke-opacity:1;marker:none;visibility:visible;display:inline;overflow:visible;enable-background:accumulate"
       id="path16617-6-6"
       sodipodi:cx="15.16226"
       sodipodi:cy="16.56851"
       sodipodi:rx="14.008413"
       sodipodi:ry="14.008413"
       d="m 29.170673,16.56851 a 14.008413,14.008413 0 1 1 -28.0168263,0 14.008413,14.008413 0 1 1 28.0168263,0 z"
       transform="matrix(0.97297297,0,0,0.97297297,330.50795,953.63241)" />
    <path
       style="fill:#1a1a1a;stroke:#d4d4d4;stroke-width:1px;stroke-linecap:butt;stroke-linejoin:miter;stroke-opacity:1"
       d="m 345.29648,957.89011 0,11.863 0,0"
       id="path16623-6-2"
       inkscape:connector-curvature="0"
       inkscape:transform-center-y="-5.9314904" />
    <path
       style="fill:#1a1a1a;stroke:#d4d4d4;stroke-width:1px;stroke-linecap:butt;stroke-linejoin:miter;stroke-opacity:1"
       d="m 357.15947,969.75311 -1.70877,0 0,0"
       id="path16623-4-2-0"
       inkscape:connector-curvature="0"
       inkscape:transform-center-x="-0.854382" />
    <path
       style="fill:#1a1a1a;stroke:#d4d4d4;stroke-width:0.99999994px;stroke-linecap:butt;stroke-linejoin:miter;stroke-opacity:1"
       d="m 345.29648,981.61611 0,-2.0181 0,0"
       id="path16623-4-3-9-0"
       inkscape:connector-curvature="0"
       inkscape:transform-center-y="1.0091015" />
    <path
       style="fill:#1a1a1a;stroke:#d4d4d4;stroke-width:1px;stroke-linecap:butt;stroke-linejoin:miter;stroke-opacity:1"
       d="m 333.43348,969.75311 11.863,0 0,0"
       id="path16623-4-3-4-1-0"
       inkscape:connector-curvature="0"
       inkscape:transform-center-x="5.9315" />
    <path
       inkscape:connector-curvature="0"
       sodipodi:nodetypes="cccccccccccccc"
       id="path9518-0-7"
       d="m 14.999994,1025.9915 -11.2422196,9.9235 2.2484301,0 0,12.8177 6.7453475,0 0,-7.5644 4.651059,0 1.3e-5,7.5644 6.591159,0 0,-12.8177 2.248444,0 -11.242237,-9.9235 0,0 0,0 z"
       style="font-size:12px;fill:none;stroke:none" />
    <path
       style="fill:#1a1a1a;fill-opacity:1;fill-rule:evenodd;stroke:none"
       d="m 10.569979,1030.3557 c -1.5233504,2.3429 -3.8999704,2.629 -6.3426404,3.7182 -1.48788,0.6635 -2.18012,2.1928 -1.38984,3.7587 3.79342,1.0063 7.2186904,2.5899 13.1709204,6.4083 0.63217,0.4055 2.67259,-0.2606 3.13973,-0.5149 0.60702,-0.3305 4.09996,-3.7836 8.28107,-4.1571 0.15888,-0.016 -0.93971,-0.3744 -1.92487,-0.7058 0.44825,-0.163 0.91152,-0.2896 1.38575,-0.367 0.0697,-0.016 -0.13027,-0.147 -0.46957,-0.3473 0.34731,-0.066 0.70496,-0.1099 1.07231,-0.1244 -0.21933,-0.1709 -0.44391,-0.3286 -0.67212,-0.476 0.21444,-0.042 0.43093,-0.076 0.64986,-0.1017 -0.30813,-0.1716 -1.04329,-0.3845 -1.89443,-0.5944 0.52659,-0.3618 1.0874,-0.7389 1.70549,-1.1377 -0.28698,0.016 -0.89874,-0.057 -1.5863,-0.139 0.25746,-0.2736 0.51129,-0.5539 0.76247,-0.8421 -0.20501,0 -0.41905,0 -0.64135,0 0.0968,-0.1083 0.19279,-0.2171 0.2889,-0.3275 -0.47103,0 -0.99015,-0.016 -1.54801,-0.048 0.21971,-0.2853 0.43535,-0.5748 0.6483,-0.8682 -0.47466,0.052 -1.00078,0.084 -1.56856,0.094 0.27731,-0.4139 0.55464,-0.8307 0.8407,-1.2483 -3.81983,0.5241 -7.54203,1.1898 -13.90781,-1.9783 z"
       id="path4959-1"
       sodipodi:nodetypes="cscssccsccccccccccccccc"
       inkscape:connector-curvature="0" />
  </g>
</svg>
