<?xml version="1.0" encoding="UTF-8" standalone="no"?>
<!-- Created with Inkscape (http://www.inkscape.org/) -->

<svg
   xmlns:dc="http://purl.org/dc/elements/1.1/"
   xmlns:cc="http://creativecommons.org/ns#"
   xmlns:rdf="http://www.w3.org/1999/02/22-rdf-syntax-ns#"
   xmlns:svg="http://www.w3.org/2000/svg"
   xmlns="http://www.w3.org/2000/svg"
   xmlns:sodipodi="http://sodipodi.sourceforge.net/DTD/sodipodi-0.dtd"
   xmlns:inkscape="http://www.inkscape.org/namespaces/inkscape"
   width="30"
   height="30"
   id="svg2"
   sodipodi:version="0.32"
   inkscape:version="0.48.4 r9939"
   sodipodi:docname="lemon.svg"
   inkscape:output_extension="org.inkscape.output.svg.inkscape"
   version="1.1">
  <defs
     id="defs4" />
  <sodipodi:namedview
     id="base"
     pagecolor="#ffffff"
     bordercolor="#666666"
     borderopacity="1.0"
     inkscape:pageopacity="0.0"
     inkscape:pageshadow="2"
     inkscape:zoom="10.276087"
     inkscape:cx="15.344828"
     inkscape:cy="14.482759"
     inkscape:document-units="px"
     inkscape:current-layer="layer1"
     inkscape:window-width="656"
     inkscape:window-height="1029"
     inkscape:window-x="0"
     inkscape:window-y="19"
     showgrid="false"
     inkscape:window-maximized="0" />
  <metadata
     id="metadata7">
    <rdf:RDF>
      <cc:Work
         rdf:about="">
        <dc:format>image/svg+xml</dc:format>
        <dc:type
           rdf:resource="http://purl.org/dc/dcmitype/StillImage" />
        <dc:title></dc:title>
      </cc:Work>
    </rdf:RDF>
  </metadata>
  <g
     inkscape:label="Capa 1"
     inkscape:groupmode="layer"
     id="layer1"
     transform="translate(0,-1022.3622)">
    <path
       sodipodi:type="arc"
       style="color:#000000;fill:#1a1a1a;stroke:#d4d4d4;stroke-width:1.02777779;stroke-opacity:1;marker:none;visibility:visible;display:inline;overflow:visible;enable-background:accumulate"
       id="path16617-6-6"
       sodipodi:cx="15.16226"
       sodipodi:cy="16.56851"
       sodipodi:rx="14.008413"
       sodipodi:ry="14.008413"
       d="m 29.170673,16.56851 a 14.008413,14.008413 0 1 1 -28.0168263,0 14.008413,14.008413 0 1 1 28.0168263,0 z"
       transform="matrix(0.97297297,0,0,0.97297297,330.50795,953.63241)" />
    <path
       style="fill:#1a1a1a;stroke:#d4d4d4;stroke-width:1px;stroke-linecap:butt;stroke-linejoin:miter;stroke-opacity:1"
       d="m 345.29648,957.89011 0,11.863 0,0"
       id="path16623-6-2"
       inkscape:connector-curvature="0"
       inkscape:transform-center-y="-5.9314904" />
    <path
       style="fill:#1a1a1a;stroke:#d4d4d4;stroke-width:1px;stroke-linecap:butt;stroke-linejoin:miter;stroke-opacity:1"
       d="m 357.15947,969.75311 -1.70877,0 0,0"
       id="path16623-4-2-0"
       inkscape:connector-curvature="0"
       inkscape:transform-center-x="-0.854382" />
    <path
       style="fill:#1a1a1a;stroke:#d4d4d4;stroke-width:0.99999994px;stroke-linecap:butt;stroke-linejoin:miter;stroke-opacity:1"
       d="m 345.29648,981.61611 0,-2.0181 0,0"
       id="path16623-4-3-9-0"
       inkscape:connector-curvature="0"
       inkscape:transform-center-y="1.0091015" />
    <path
       style="fill:#1a1a1a;stroke:#d4d4d4;stroke-width:1px;stroke-linecap:butt;stroke-linejoin:miter;stroke-opacity:1"
       d="m 333.43348,969.75311 11.863,0 0,0"
       id="path16623-4-3-4-1-0"
       inkscape:connector-curvature="0"
       inkscape:transform-center-x="5.9315" />
    <path
       inkscape:connector-curvature="0"
       sodipodi:nodetypes="cccccccccccccc"
       id="path9518-0-7"
       d="m 14.999994,1025.9915 -11.2422196,9.9235 2.2484301,0 0,12.8177 6.7453475,0 0,-7.5644 4.651059,0 1.3e-5,7.5644 6.591159,0 0,-12.8177 2.248444,0 -11.242237,-9.9235 0,0 0,0 z"
       style="font-size:12px;fill:none;stroke:none" />
    <path
       style="color:#000000;fill:#1a1a1a;fill-opacity:1;fill-rule:nonzero;stroke:none;stroke-width:5;marker:none;visibility:visible;display:inline;overflow:visible;enable-background:accumulate"
       d="m 14.99496,1029.2179 c -5.5968399,0 -10.1262199,3.6513 -10.1262199,8.1494 0,4.4982 4.52938,8.1393 10.1262199,8.1393 5.59675,0 10.1363,-3.6411 10.1363,-8.1393 0,-4.4981 -4.53955,-8.1494 -10.1363,-8.1494 z m 0,0.7867 0.6455,1.0892 1.79525,0 -1.42209,0.7566 0.52447,1.0489 -1.50278,-0.8675 -1.61374,0.6354 0.37316,-0.8572 -1.35151,-0.6052 1.72467,-0.071 0.82707,-1.1297 z m 4.0545,0.4538 c 0.18654,0 0.34295,0.1463 0.34295,0.3328 0,0.1867 -0.15641,0.343 -0.34295,0.343 -0.18655,0 -0.33282,-0.1563 -0.33282,-0.343 0,-0.1865 0.14627,-0.3328 0.33282,-0.3328 z m -9.7933798,1.9466 c 0.18652,0 0.33285,0.1564 0.33285,0.343 0,0.1865 -0.14633,0.3328 -0.33285,0.3328 -0.18658,0 -0.34292,-0.1463 -0.34292,-0.3328 0,-0.1866 0.15634,-0.343 0.34292,-0.343 z m 9.7933798,1.5028 c 0.18654,0 0.34295,0.1564 0.34295,0.3429 0,0.1866 -0.15641,0.3328 -0.34295,0.3328 -0.18655,0 -0.33282,-0.1462 -0.33282,-0.3328 0,-0.1865 0.14627,-0.3429 0.33282,-0.3429 z m -6.82813,0.1513 c 0.18652,0 0.33282,0.1564 0.33282,0.3429 0,0.1866 -0.1463,0.3328 -0.33282,0.3328 -0.18658,0 -0.34292,-0.1462 -0.34292,-0.3328 0,-0.1865 0.15634,-0.3429 0.34292,-0.3429 z m 4.3571,1.654 c 0.18652,0 0.33282,0.1463 0.33282,0.333 0,0.1865 -0.1463,0.3429 -0.33282,0.3429 -0.18658,0 -0.34292,-0.1564 -0.34292,-0.3429 0,-0.1867 0.15634,-0.333 0.34292,-0.333 z m 4.4983,0.6355 c 0.18652,0 0.34292,0.1563 0.34292,0.343 0,0.1865 -0.1564,0.3328 -0.34292,0.3328 -0.18658,0 -0.33285,-0.1463 -0.33285,-0.3328 0,-0.1866 0.14627,-0.343 0.33285,-0.343 z m -12.3047698,0.4135 c 0.18651,0 0.33285,0.1564 0.33285,0.343 0,0.1865 -0.14634,0.3328 -0.33285,0.3328 -0.18658,0 -0.34292,-0.1463 -0.34292,-0.3328 0,-0.1866 0.15634,-0.343 0.34292,-0.343 z m 2.2087898,1.4221 c 0.18655,0 0.34295,0.1564 0.34295,0.3429 0,0.1866 -0.1564,0.3328 -0.34295,0.3328 -0.18655,0 -0.33282,-0.1462 -0.33282,-0.3328 0,-0.1865 0.14627,-0.3429 0.33282,-0.3429 z m 12.05265,0.1214 c 0.18651,0 0.33281,0.1463 0.33281,0.3328 0,0.1866 -0.1463,0.3429 -0.33281,0.3429 -0.18659,0 -0.34292,-0.1563 -0.34292,-0.3429 0,-0.1865 0.15633,-0.3328 0.34292,-0.3328 z m -16.3694098,0.2218 c 0.18655,0 0.34295,0.1462 0.34295,0.3328 0,0.1867 -0.1564,0.3429 -0.34295,0.3429 -0.18655,0 -0.33282,-0.1562 -0.33282,-0.3429 0,-0.1866 0.14627,-0.3328 0.33282,-0.3328 z m 7.8871898,0.041 c 0.18652,0 0.33282,0.1463 0.33282,0.3327 0,0.1867 -0.1463,0.3429 -0.33282,0.3429 -0.18658,0 -0.34295,-0.1562 -0.34295,-0.3429 0,-0.1864 0.15637,-0.3327 0.34295,-0.3327 z m 4.42769,1.5733 c 0.18652,0 0.33285,0.1463 0.33285,0.3328 0,0.1866 -0.14633,0.3429 -0.33285,0.3429 -0.18658,0 -0.34292,-0.1563 -0.34292,-0.3429 0,-0.1865 0.15634,-0.3328 0.34292,-0.3328 z m -10.2069098,0.6052 c 0.18651,0 0.33285,0.1463 0.33285,0.3327 0,0.1867 -0.14634,0.3429 -0.33285,0.3429 -0.18658,0 -0.34292,-0.1562 -0.34292,-0.3429 0,-0.1864 0.15634,-0.3327 0.34292,-0.3327 z m 4.1957198,1.4927 c 0.18652,0 0.34292,0.1563 0.34292,0.3429 0,0.1865 -0.1564,0.3328 -0.34292,0.3328 -0.18658,0 -0.33285,-0.1463 -0.33285,-0.3328 0,-0.1866 0.14627,-0.3429 0.33285,-0.3429 z"
       id="path16797-9"
       inkscape:connector-curvature="0" />
  </g>
</svg>
