<?xml version="1.0" encoding="UTF-8" standalone="no"?>
<!-- Created with Inkscape (http://www.inkscape.org/) -->

<svg
   xmlns:dc="http://purl.org/dc/elements/1.1/"
   xmlns:cc="http://creativecommons.org/ns#"
   xmlns:rdf="http://www.w3.org/1999/02/22-rdf-syntax-ns#"
   xmlns:svg="http://www.w3.org/2000/svg"
   xmlns="http://www.w3.org/2000/svg"
   xmlns:sodipodi="http://sodipodi.sourceforge.net/DTD/sodipodi-0.dtd"
   xmlns:inkscape="http://www.inkscape.org/namespaces/inkscape"
   width="30"
   height="30"
   id="svg2"
   sodipodi:version="0.32"
   inkscape:version="0.48.4 r9939"
   sodipodi:docname="refrigerator.svg"
   inkscape:output_extension="org.inkscape.output.svg.inkscape"
   version="1.1">
  <defs
     id="defs4" />
  <sodipodi:namedview
     id="base"
     pagecolor="#ffffff"
     bordercolor="#666666"
     borderopacity="1.0"
     inkscape:pageopacity="0.0"
     inkscape:pageshadow="2"
     inkscape:zoom="10.276087"
     inkscape:cx="15.344828"
     inkscape:cy="14.482759"
     inkscape:document-units="px"
     inkscape:current-layer="layer1"
     inkscape:window-width="656"
     inkscape:window-height="1029"
     inkscape:window-x="0"
     inkscape:window-y="19"
     showgrid="false"
     inkscape:window-maximized="0" />
  <metadata
     id="metadata7">
    <rdf:RDF>
      <cc:Work
         rdf:about="">
        <dc:format>image/svg+xml</dc:format>
        <dc:type
           rdf:resource="http://purl.org/dc/dcmitype/StillImage" />
        <dc:title></dc:title>
      </cc:Work>
    </rdf:RDF>
  </metadata>
  <g
     inkscape:label="Capa 1"
     inkscape:groupmode="layer"
     id="layer1"
     transform="translate(0,-1022.3622)">
    <path
       sodipodi:type="arc"
       style="color:#000000;fill:#1a1a1a;stroke:#d4d4d4;stroke-width:1.02777779;stroke-opacity:1;marker:none;visibility:visible;display:inline;overflow:visible;enable-background:accumulate"
       id="path16617-6-6"
       sodipodi:cx="15.16226"
       sodipodi:cy="16.56851"
       sodipodi:rx="14.008413"
       sodipodi:ry="14.008413"
       d="m 29.170673,16.56851 a 14.008413,14.008413 0 1 1 -28.0168263,0 14.008413,14.008413 0 1 1 28.0168263,0 z"
       transform="matrix(0.97297297,0,0,0.97297297,330.50795,953.63241)" />
    <path
       style="fill:#1a1a1a;stroke:#d4d4d4;stroke-width:1px;stroke-linecap:butt;stroke-linejoin:miter;stroke-opacity:1"
       d="m 345.29648,957.89011 0,11.863 0,0"
       id="path16623-6-2"
       inkscape:connector-curvature="0"
       inkscape:transform-center-y="-5.9314904" />
    <path
       style="fill:#1a1a1a;stroke:#d4d4d4;stroke-width:1px;stroke-linecap:butt;stroke-linejoin:miter;stroke-opacity:1"
       d="m 357.15947,969.75311 -1.70877,0 0,0"
       id="path16623-4-2-0"
       inkscape:connector-curvature="0"
       inkscape:transform-center-x="-0.854382" />
    <path
       style="fill:#1a1a1a;stroke:#d4d4d4;stroke-width:0.99999994px;stroke-linecap:butt;stroke-linejoin:miter;stroke-opacity:1"
       d="m 345.29648,981.61611 0,-2.0181 0,0"
       id="path16623-4-3-9-0"
       inkscape:connector-curvature="0"
       inkscape:transform-center-y="1.0091015" />
    <path
       style="fill:#1a1a1a;stroke:#d4d4d4;stroke-width:1px;stroke-linecap:butt;stroke-linejoin:miter;stroke-opacity:1"
       d="m 333.43348,969.75311 11.863,0 0,0"
       id="path16623-4-3-4-1-0"
       inkscape:connector-curvature="0"
       inkscape:transform-center-x="5.9315" />
    <path
       inkscape:connector-curvature="0"
       sodipodi:nodetypes="cccccccccccccc"
       id="path9518-0-7"
       d="m 14.999994,1025.9915 -11.2422196,9.9235 2.2484301,0 0,12.8177 6.7453475,0 0,-7.5644 4.651059,0 1.3e-5,7.5644 6.591159,0 0,-12.8177 2.248444,0 -11.242237,-9.9235 0,0 0,0 z"
       style="font-size:12px;fill:none;stroke:none" />
    <path
       inkscape:connector-curvature="0"
       style="fill:#1a1a1a;fill-opacity:1"
       d="m 5.0468748,1024.7685 c -0.21413,0 -0.53234,0.1135 -0.71875,0.2188 l -1.71875,0.9375 c -0.18649,0.105 -0.15163,0.2187 0.0625,0.2187 l 24.6875002,0 c 0.21396,0 0.24402,-0.1054 0.0625,-0.2187 l -1.5,-0.9375 c -0.18152,-0.1135 -0.50479,-0.2188 -0.71875,-0.2188 l -20.1562502,0 z m -2.25,1.8125 c -0.27651,0 -0.53125,0.2236 -0.53125,0.5 l 0,20.125 c 0,0.2763 0.25474,0.5 0.53125,0.5 l 24.4375002,0 c 0.27642,0 0.5,-0.2237 0.5,-0.5 l 0,-20.125 c 0,-0.2765 -0.22358,-0.5 -0.5,-0.5 l -24.4375002,0 z m 4.8125,0.9063 c 0.77221,0 1.40625,0.6121 1.40625,1.375 0,0.7632 -0.63404,1.375 -1.40625,1.375 -0.7723,0 -1.40625,-0.6118 -1.40625,-1.375 0,-0.7629 0.63395,-1.375 1.40625,-1.375 z m 3.5312502,0 c 0.77212,0 1.375,0.6121 1.375,1.375 0,0.7632 -0.60288,1.375 -1.375,1.375 -0.7722,0 -1.4062502,-0.6118 -1.4062502,-1.375 0,-0.7629 0.6340502,-1.375 1.4062502,-1.375 z m 7.75,0 c 0.77203,0 1.40625,0.6121 1.40625,1.375 0,0.7632 -0.63422,1.375 -1.40625,1.375 -0.77238,0 -1.40625,-0.6118 -1.40625,-1.375 0,-0.7629 0.63387,-1.375 1.40625,-1.375 z m 3.53125,0 c 0.77221,0 1.375,0.6121 1.375,1.375 0,0.7632 -0.60279,1.375 -1.375,1.375 -0.77203,0 -1.40625,-0.6118 -1.40625,-1.375 0,-0.7629 0.63422,-1.375 1.40625,-1.375 z m -17.5937502,3.9062 20.3750002,0 c 0.11017,0 0.20315,0.017 0.28125,0.094 0.0779,0.077 0.125,0.2034 0.125,0.3125 l 0,13.375 c 0,0.1088 -0.0471,0.2353 -0.125,0.3125 -0.0781,0.077 -0.17108,0.125 -0.28125,0.125 l -20.3750002,0 c -0.11026,0 -0.23457,-0.048 -0.3125,-0.125 -0.078,-0.077 -0.125,-0.2037 -0.125,-0.3125 l 0,-13.375 c 0,-0.1091 0.047,-0.2356 0.125,-0.3125 0.0778,-0.077 0.20215,-0.094 0.3125,-0.094 z m 2.90625,1.9688 c -0.22337,0 -0.40625,0.1858 -0.40625,0.4062 0,0.2209 0.18288,0.4063 0.40625,0.4063 l 14.5625002,0 c 0.22301,0 0.40625,-0.1854 0.40625,-0.4063 0,-0.2205 -0.18324,-0.4062 -0.40625,-0.4062 l -14.5625002,0 z m 17.4687502,11.4062 0,0.4063 0,-0.4063 z m -19.6875002,3.375 c -0.27642,0 -0.5,0.2235 -0.5,0.5 l 0,0.8125 c 0,0.2764 0.22358,0.5 0.5,0.5 l 1.71875,0 c 0.27642,0 0.5,-0.2236 0.5,-0.5 l 0,-0.8125 c 0,-0.2765 -0.22358,-0.5 -0.5,-0.5 l -1.71875,0 z m 17.2812502,0 c -0.2766,0 -0.5,0.2235 -0.5,0.5 l 0,0.8125 c 0,0.2764 0.2234,0.5 0.5,0.5 l 1.71875,0 c 0.2766,0 0.5,-0.2236 0.5,-0.5 l 0,-0.8125 c 0,-0.2765 -0.2234,-0.5 -0.5,-0.5 l -1.71875,0 z"
       id="path237-6" />
  </g>
</svg>
