<?xml version="1.0" encoding="UTF-8" standalone="no"?>
<!-- Created with Inkscape (http://www.inkscape.org/) -->

<svg
   xmlns:dc="http://purl.org/dc/elements/1.1/"
   xmlns:cc="http://creativecommons.org/ns#"
   xmlns:rdf="http://www.w3.org/1999/02/22-rdf-syntax-ns#"
   xmlns:svg="http://www.w3.org/2000/svg"
   xmlns="http://www.w3.org/2000/svg"
   xmlns:sodipodi="http://sodipodi.sourceforge.net/DTD/sodipodi-0.dtd"
   xmlns:inkscape="http://www.inkscape.org/namespaces/inkscape"
   width="30"
   height="30"
   id="svg2"
   sodipodi:version="0.32"
   inkscape:version="0.48.4 r9939"
   sodipodi:docname="flower.svg"
   inkscape:output_extension="org.inkscape.output.svg.inkscape"
   version="1.1">
  <defs
     id="defs4" />
  <sodipodi:namedview
     id="base"
     pagecolor="#ffffff"
     bordercolor="#666666"
     borderopacity="1.0"
     inkscape:pageopacity="0.0"
     inkscape:pageshadow="2"
     inkscape:zoom="10.276087"
     inkscape:cx="15.344828"
     inkscape:cy="14.482759"
     inkscape:document-units="px"
     inkscape:current-layer="layer1"
     inkscape:window-width="656"
     inkscape:window-height="1029"
     inkscape:window-x="0"
     inkscape:window-y="19"
     showgrid="false"
     inkscape:window-maximized="0" />
  <metadata
     id="metadata7">
    <rdf:RDF>
      <cc:Work
         rdf:about="">
        <dc:format>image/svg+xml</dc:format>
        <dc:type
           rdf:resource="http://purl.org/dc/dcmitype/StillImage" />
        <dc:title></dc:title>
      </cc:Work>
    </rdf:RDF>
  </metadata>
  <g
     inkscape:label="Capa 1"
     inkscape:groupmode="layer"
     id="layer1"
     transform="translate(0,-1022.3622)">
    <path
       sodipodi:type="arc"
       style="color:#000000;fill:#1a1a1a;stroke:#d4d4d4;stroke-width:1.02777779;stroke-opacity:1;marker:none;visibility:visible;display:inline;overflow:visible;enable-background:accumulate"
       id="path16617-6-6"
       sodipodi:cx="15.16226"
       sodipodi:cy="16.56851"
       sodipodi:rx="14.008413"
       sodipodi:ry="14.008413"
       d="m 29.170673,16.56851 a 14.008413,14.008413 0 1 1 -28.0168263,0 14.008413,14.008413 0 1 1 28.0168263,0 z"
       transform="matrix(0.97297297,0,0,0.97297297,330.50795,953.63241)" />
    <path
       style="fill:#1a1a1a;stroke:#d4d4d4;stroke-width:1px;stroke-linecap:butt;stroke-linejoin:miter;stroke-opacity:1"
       d="m 345.29648,957.89011 0,11.863 0,0"
       id="path16623-6-2"
       inkscape:connector-curvature="0"
       inkscape:transform-center-y="-5.9314904" />
    <path
       style="fill:#1a1a1a;stroke:#d4d4d4;stroke-width:1px;stroke-linecap:butt;stroke-linejoin:miter;stroke-opacity:1"
       d="m 357.15947,969.75311 -1.70877,0 0,0"
       id="path16623-4-2-0"
       inkscape:connector-curvature="0"
       inkscape:transform-center-x="-0.854382" />
    <path
       style="fill:#1a1a1a;stroke:#d4d4d4;stroke-width:0.99999994px;stroke-linecap:butt;stroke-linejoin:miter;stroke-opacity:1"
       d="m 345.29648,981.61611 0,-2.0181 0,0"
       id="path16623-4-3-9-0"
       inkscape:connector-curvature="0"
       inkscape:transform-center-y="1.0091015" />
    <path
       style="fill:#1a1a1a;stroke:#d4d4d4;stroke-width:1px;stroke-linecap:butt;stroke-linejoin:miter;stroke-opacity:1"
       d="m 333.43348,969.75311 11.863,0 0,0"
       id="path16623-4-3-4-1-0"
       inkscape:connector-curvature="0"
       inkscape:transform-center-x="5.9315" />
    <path
       inkscape:connector-curvature="0"
       sodipodi:nodetypes="cccccccccccccc"
       id="path9518-0-7"
       d="m 14.999994,1025.9915 -11.2422196,9.9235 2.2484301,0 0,12.8177 6.7453475,0 0,-7.5644 4.651059,0 1.3e-5,7.5644 6.591159,0 0,-12.8177 2.248444,0 -11.242237,-9.9235 0,0 0,0 z"
       style="font-size:12px;fill:none;stroke:none" />
    <path
       style="fill:#1a1a1a;fill-opacity:1"
       d="m 12.275963,1024.9893 c -0.35769,0.742 -0.8707,1.6848 -0.125,2.8125 l 1.15625,-0.094 c 0.0293,-0.4354 0.34752,-0.7394 0,-1.2813 -0.48617,-0.7582 -0.72878,-1.0059 -1.03125,-1.4375 z m -3.75,0.5625 c -0.0926,0.8011 -0.24563,1.8022 0.75,2.6875 l 1,-0.375 c -0.1048,-0.4235 0.0627,-0.7904 -0.40625,-1.2187 -0.656,-0.599 -0.94764,-0.7594 -1.34375,-1.0938 z m 4.8125,2.25 -1.1875,0.1563 0.40625,2.1562 c -0.33118,0.053 -0.68223,0.1413 -1.03125,0.2813 l -1.1875,-2.4375 -1.03125,0.4375 1.34375,2.5937 c -0.12973,0.1637 -0.26634,0.345 -0.40625,0.5 -0.904,1.0016 -1.08255,2.4252 -0.4375,3.625 0.67048,1.2471 0.58771,2.1072 -0.28125,2.375 -0.368,0.1134 -0.53152,0.1005 -1.34375,-0.2187 -0.50802,-0.1996 -1.12115,-0.3764 -1.34375,-0.375 -0.62895,0 -1.23241,0.3771 -1.5625,0.9687 -0.24775,0.4439 -0.27849,0.6678 -0.28125,1.4375 -0.004,0.9842 0.10562,1.3314 0.90625,2.6875 0.81331,1.3775 2.0183,2.5854 3.40625,3.4688 0.95427,0.6074 2.70469,1.2696 3.75,1.4062 0.61929,0.081 1.47737,0.1714 2.593751,0.1563 l 0.4375,2.4687 c 0.0514,0.3939 0.92132,0.2801 0.90625,-0.094 l -0.40625,-2.4063 c 0.53466,-0.042 1.12532,-0.1038 1.78125,-0.2187 0.082,-0.019 0.16818,-0.041 0.25,-0.063 l 0.65625,1.25 c 0.1635,0.3632 0.90668,0.04 0.78125,-0.3125 l -0.625,-1.2188 c 1.6023,-0.5913 3.10021,-1.5979 3.96875,-2.5937 1.05855,-1.2136 1.23595,-1.7595 1.5,-3.0625 0.32167,-1.5875 -0.11563,-3.7467 -1.09375,-5.4063 -0.64243,-1.09 -1.81783,-2.3806 -2.6875,-2.9687 -1.48645,-1.0053 -4.16563,-2.0367 -5.90625,-2.25 -0.509021,-0.028 -1.002221,-0.08 -1.500001,-0.094 l -0.375,-2.25 z m -0.6875,3.8125 c 0.0479,-0.01 0.10717,0.01 0.15625,0 l 0.40625,2.1875 -1,-2.0312 c 0.14369,-0.07 0.27646,-0.1233 0.4375,-0.1563 z m 1.375,0.2188 c 0.5652,0.3347 0.9375,0.9519 0.9375,1.6562 0,0.4725 -0.15463,0.9149 -0.4375,1.25 l -0.5,-2.9062 z m 4.250001,0.625 c 0.0513,-0.012 0.086,4e-4 0.15625,0 0.0402,-2e-4 0.10745,0 0.15625,0 0.57043,0.026 1.06436,0.2257 1.28125,0.5 0.24862,0.3144 0.6054,1.8914 0.53125,2.3437 -0.0591,0.3604 -0.83254,1.3438 -1.0625,1.3438 -0.0539,0 -0.17362,0.035 -0.25,0.063 -0.0764,0.028 -0.29927,0 -0.5,-0.094 -0.20074,-0.088 -0.50124,-0.1825 -0.65625,-0.1875 -0.47447,-0.015 -0.76818,-0.25 -1,-0.7812 -0.35805,-0.8205 -0.30433,-1.3067 0.21875,-1.9063 0.24374,-0.2794 0.57059,-0.6848 0.71875,-0.9062 0.15566,-0.2327 0.25227,-0.3389 0.40625,-0.375 z m -6.875001,0.063 1.46875,2.875 c -0.97632,-0.092 -1.75,-0.9063 -1.75,-1.9063 0,-0.3571 0.11132,-0.6822 0.28125,-0.9687 z m 10.437501,4.7187 c 0.0734,0 0.15763,0.028 0.25,0.031 1.17387,0.092 1.52506,0.5394 1.21875,1.625 -0.0923,0.3271 -0.19017,0.8079 -0.21875,1.0625 -0.11746,1.0459 -0.75639,1.5129 -1.5625,1.1562 -1.39459,-0.6172 -1.39161,-0.6138 -1.5625,-1.3437 -0.17327,-0.7401 -0.10204,-0.899 0.65625,-1.6563 0.20555,-0.2052 0.46717,-0.5125 0.59375,-0.6562 0.14464,-0.1642 0.30705,-0.2219 0.625,-0.2188 z m -13.906251,1.8125 0.0313,0 c 0.13424,0.01 0.56728,0.014 0.96875,0.031 0.40147,0.017 0.80222,0.073 0.875,0.125 0.17549,0.1254 0.65625,1.1947 0.65625,1.4687 0,0.3418 -0.28299,0.7414 -0.96875,1.3125 -0.54292,0.4521 -0.7291,0.5313 -1.15625,0.5313 -0.51228,0 -0.90625,-0.2998 -0.90625,-0.6563 0,-0.089 -0.13264,-0.4301 -0.28125,-0.75 -0.23608,-0.5081 -0.25362,-0.628 -0.15625,-1 0.13612,-0.5199 0.61477,-1.0462 0.9375,-1.0625 z m 9.187501,1.6875 0.0625,0 c 0.20467,0 0.45658,0.086 0.875,0.25 0.25809,0.1011 0.60919,0.2277 0.78125,0.2813 0.24197,0.075 0.37662,0.2424 0.59375,0.75 0.51734,1.2095 0.34966,1.792 -0.625,2.0312 -0.29363,0.072 -0.69932,0.2135 -0.90625,0.3125 -0.85019,0.4065 -1.52314,0.01 -1.65625,-0.9687 -0.2303,-1.6908 -0.21686,-1.6844 0.25,-2.2188 0.25148,-0.2878 0.38669,-0.4254 0.625,-0.4375 z m -4.250001,0.125 c 0.22521,0 0.39454,0.075 0.75,0.2813 0.56003,0.3243 1.09374,0.9537 1.09375,1.2812 0,0.089 -0.0728,0.3675 -0.1875,0.625 -0.11471,0.2576 -0.21694,0.5553 -0.21875,0.6563 -0.002,0.101 -0.13558,0.3416 -0.28125,0.5312 -0.23197,0.302 -0.33768,0.3546 -0.96875,0.4063 -0.5978,0.049 -0.72772,0 -0.78125,-0.1563 -0.0355,-0.1058 -0.30128,-0.3197 -0.5625,-0.4687 -0.32234,-0.1839 -0.49846,-0.3956 -0.59375,-0.6563 -0.30205,-0.8262 -0.0217,-1.9472 0.5,-2.0312 0.13905,-0.023 0.31871,-0.098 0.40625,-0.1875 0.0875,-0.089 0.35223,-0.2058 0.59375,-0.25 0.0904,-0.016 0.17493,-0.03 0.25,-0.031 z"
       id="path4864-0"
       inkscape:connector-curvature="0" />
  </g>
</svg>
