<?xml version="1.0" encoding="UTF-8" standalone="no"?>
<!-- Created with Inkscape (http://www.inkscape.org/) -->

<svg
   xmlns:dc="http://purl.org/dc/elements/1.1/"
   xmlns:cc="http://creativecommons.org/ns#"
   xmlns:rdf="http://www.w3.org/1999/02/22-rdf-syntax-ns#"
   xmlns:svg="http://www.w3.org/2000/svg"
   xmlns="http://www.w3.org/2000/svg"
   xmlns:sodipodi="http://sodipodi.sourceforge.net/DTD/sodipodi-0.dtd"
   xmlns:inkscape="http://www.inkscape.org/namespaces/inkscape"
   width="30"
   height="30"
   id="svg2"
   sodipodi:version="0.32"
   inkscape:version="0.48.4 r9939"
   sodipodi:docname="school.svg"
   inkscape:output_extension="org.inkscape.output.svg.inkscape"
   version="1.1">
  <defs
     id="defs4" />
  <sodipodi:namedview
     id="base"
     pagecolor="#ffffff"
     bordercolor="#666666"
     borderopacity="1.0"
     inkscape:pageopacity="0.0"
     inkscape:pageshadow="2"
     inkscape:zoom="11.6"
     inkscape:cx="15.344828"
     inkscape:cy="14.482759"
     inkscape:document-units="px"
     inkscape:current-layer="layer1"
     inkscape:window-width="698"
     inkscape:window-height="1029"
     inkscape:window-x="0"
     inkscape:window-y="19"
     showgrid="false"
     inkscape:window-maximized="0" />
  <metadata
     id="metadata7">
    <rdf:RDF>
      <cc:Work
         rdf:about="">
        <dc:format>image/svg+xml</dc:format>
        <dc:type
           rdf:resource="http://purl.org/dc/dcmitype/StillImage" />
        <dc:title></dc:title>
      </cc:Work>
    </rdf:RDF>
  </metadata>
  <g
     inkscape:label="Capa 1"
     inkscape:groupmode="layer"
     id="layer1"
     transform="translate(0,-1022.3622)">
    <path
       sodipodi:type="arc"
       style="color:#000000;fill:#1a1a1a;stroke:#d4d4d4;stroke-width:1.02777779;stroke-opacity:1;marker:none;visibility:visible;display:inline;overflow:visible;enable-background:accumulate"
       id="path16617-6-6"
       sodipodi:cx="15.16226"
       sodipodi:cy="16.56851"
       sodipodi:rx="14.008413"
       sodipodi:ry="14.008413"
       d="m 29.170673,16.56851 a 14.008413,14.008413 0 1 1 -28.0168263,0 14.008413,14.008413 0 1 1 28.0168263,0 z"
       transform="matrix(0.97297297,0,0,0.97297297,330.50795,953.63241)" />
    <path
       style="fill:#1a1a1a;stroke:#d4d4d4;stroke-width:1px;stroke-linecap:butt;stroke-linejoin:miter;stroke-opacity:1"
       d="m 345.29648,957.89011 0,11.863 0,0"
       id="path16623-6-2"
       inkscape:connector-curvature="0"
       inkscape:transform-center-y="-5.9314904" />
    <path
       style="fill:#1a1a1a;stroke:#d4d4d4;stroke-width:1px;stroke-linecap:butt;stroke-linejoin:miter;stroke-opacity:1"
       d="m 357.15947,969.75311 -1.70877,0 0,0"
       id="path16623-4-2-0"
       inkscape:connector-curvature="0"
       inkscape:transform-center-x="-0.854382" />
    <path
       style="fill:#1a1a1a;stroke:#d4d4d4;stroke-width:0.99999994px;stroke-linecap:butt;stroke-linejoin:miter;stroke-opacity:1"
       d="m 345.29648,981.61611 0,-2.0181 0,0"
       id="path16623-4-3-9-0"
       inkscape:connector-curvature="0"
       inkscape:transform-center-y="1.0091015" />
    <path
       style="fill:#1a1a1a;stroke:#d4d4d4;stroke-width:1px;stroke-linecap:butt;stroke-linejoin:miter;stroke-opacity:1"
       d="m 333.43348,969.75311 11.863,0 0,0"
       id="path16623-4-3-4-1-0"
       inkscape:connector-curvature="0"
       inkscape:transform-center-x="5.9315" />
    <path
       inkscape:connector-curvature="0"
       sodipodi:nodetypes="cccccccccccccc"
       id="path9518-0-7"
       d="m 14.999994,1025.9915 -11.2422196,9.9235 2.2484301,0 0,12.8177 6.7453475,0 0,-7.5644 4.651059,0 1.3e-5,7.5644 6.591159,0 0,-12.8177 2.248444,0 -11.242237,-9.9235 0,0 0,0 z"
       style="font-size:12px;fill:none;stroke:none" />
    <path
       inkscape:connector-curvature="0"
       style="fill:#1a1a1a;fill-opacity:1;fill-rule:evenodd;stroke:none"
       d="m 8.1568966,1028.5246 c -1.229871,0 -2.2500001,0.9889 -2.2500001,2.2188 0,1.2298 1.0201291,2.2187 2.2500001,2.2187 1.2298709,0 2.2187504,-0.9889 2.2187504,-2.2187 0,-1.2299 -0.9888795,-2.2188 -2.2187504,-2.2188 z m 17.0937494,3.4688 c -0.711535,0.069 -1.3831,0.4808 -1.75,1.1562 -0.58704,1.0807 -0.174475,2.413 0.90625,3 1.080725,0.587 2.41296,0.2057 3,-0.875 0.58704,-1.0807 0.205725,-2.4442 -0.875,-3.0312 -0.405272,-0.2202 -0.854329,-0.2914 -1.28125,-0.25 z m -18.9062494,0.3437 c -0.8199201,-0.1706 -3.0066561,2.6958 -4.0000001,4.0938 l -0.0625,0 c -0.488847,-0.096 -0.966308,0.2299 -1.0625,0.7187 -0.09619,0.4889 0.198653,0.9663 0.6875,1.0625 l 3.5625,0.6875 c -0.413313,0.5777 -1.020325,1.4367 -1.65625,2.25 -0.586564,0.7502 0.196219,1.3925 1,0.625 1.069246,-1.021 1.9005511,-1.9603 2.3750001,-2.5312 l 7.5625004,1.5 -2.46875,5.125 5.499999,0 -2.406249,-5 6.906249,1.3437 c 0.152593,0.7586 0.379564,1.9339 0.8125,3.2813 0.339972,1.058 1.344872,0.8454 1.1875,-0.094 -0.184261,-1.0997 -0.294001,-2.2139 -0.375,-2.875 l 3.8125,0.75 c 0.488847,0.096 0.966308,-0.1987 1.0625,-0.6875 0.09619,-0.4889 -0.229903,-0.9664 -0.71875,-1.0625 l -0.3125,-0.063 c -0.238338,-1.8185 -0.736566,-4.7796 -1.46875,-5 -0.8142,-0.2452 -2.652346,2.5063 -3.59375,4 l -15.0937494,-2.968 c -0.117488,-1.7749 -0.426181,-4.9849 -1.25,-5.1563 z"
       id="path2385-6" />
  </g>
</svg>
