<?xml version="1.0" encoding="UTF-8" standalone="no"?>
<!-- Created with Inkscape (http://www.inkscape.org/) -->

<svg
   xmlns:dc="http://purl.org/dc/elements/1.1/"
   xmlns:cc="http://creativecommons.org/ns#"
   xmlns:rdf="http://www.w3.org/1999/02/22-rdf-syntax-ns#"
   xmlns:svg="http://www.w3.org/2000/svg"
   xmlns="http://www.w3.org/2000/svg"
   xmlns:sodipodi="http://sodipodi.sourceforge.net/DTD/sodipodi-0.dtd"
   xmlns:inkscape="http://www.inkscape.org/namespaces/inkscape"
   width="30"
   height="30"
   id="svg2"
   sodipodi:version="0.32"
   inkscape:version="0.48.4 r9939"
   sodipodi:docname="aubergine.svg"
   inkscape:output_extension="org.inkscape.output.svg.inkscape"
   version="1.1">
  <defs
     id="defs4" />
  <sodipodi:namedview
     id="base"
     pagecolor="#ffffff"
     bordercolor="#666666"
     borderopacity="1.0"
     inkscape:pageopacity="0.0"
     inkscape:pageshadow="2"
     inkscape:zoom="10.276087"
     inkscape:cx="15.344828"
     inkscape:cy="14.482759"
     inkscape:document-units="px"
     inkscape:current-layer="layer1"
     inkscape:window-width="656"
     inkscape:window-height="1029"
     inkscape:window-x="0"
     inkscape:window-y="19"
     showgrid="false"
     inkscape:window-maximized="0" />
  <metadata
     id="metadata7">
    <rdf:RDF>
      <cc:Work
         rdf:about="">
        <dc:format>image/svg+xml</dc:format>
        <dc:type
           rdf:resource="http://purl.org/dc/dcmitype/StillImage" />
        <dc:title></dc:title>
      </cc:Work>
    </rdf:RDF>
  </metadata>
  <g
     inkscape:label="Capa 1"
     inkscape:groupmode="layer"
     id="layer1"
     transform="translate(0,-1022.3622)">
    <path
       sodipodi:type="arc"
       style="color:#000000;fill:#1a1a1a;stroke:#d4d4d4;stroke-width:1.02777779;stroke-opacity:1;marker:none;visibility:visible;display:inline;overflow:visible;enable-background:accumulate"
       id="path16617-6-6"
       sodipodi:cx="15.16226"
       sodipodi:cy="16.56851"
       sodipodi:rx="14.008413"
       sodipodi:ry="14.008413"
       d="m 29.170673,16.56851 a 14.008413,14.008413 0 1 1 -28.0168263,0 14.008413,14.008413 0 1 1 28.0168263,0 z"
       transform="matrix(0.97297297,0,0,0.97297297,330.50795,953.63241)" />
    <path
       style="fill:#1a1a1a;stroke:#d4d4d4;stroke-width:1px;stroke-linecap:butt;stroke-linejoin:miter;stroke-opacity:1"
       d="m 345.29648,957.89011 0,11.863 0,0"
       id="path16623-6-2"
       inkscape:connector-curvature="0"
       inkscape:transform-center-y="-5.9314904" />
    <path
       style="fill:#1a1a1a;stroke:#d4d4d4;stroke-width:1px;stroke-linecap:butt;stroke-linejoin:miter;stroke-opacity:1"
       d="m 357.15947,969.75311 -1.70877,0 0,0"
       id="path16623-4-2-0"
       inkscape:connector-curvature="0"
       inkscape:transform-center-x="-0.854382" />
    <path
       style="fill:#1a1a1a;stroke:#d4d4d4;stroke-width:0.99999994px;stroke-linecap:butt;stroke-linejoin:miter;stroke-opacity:1"
       d="m 345.29648,981.61611 0,-2.0181 0,0"
       id="path16623-4-3-9-0"
       inkscape:connector-curvature="0"
       inkscape:transform-center-y="1.0091015" />
    <path
       style="fill:#1a1a1a;stroke:#d4d4d4;stroke-width:1px;stroke-linecap:butt;stroke-linejoin:miter;stroke-opacity:1"
       d="m 333.43348,969.75311 11.863,0 0,0"
       id="path16623-4-3-4-1-0"
       inkscape:connector-curvature="0"
       inkscape:transform-center-x="5.9315" />
    <path
       inkscape:connector-curvature="0"
       sodipodi:nodetypes="cccccccccccccc"
       id="path9518-0-7"
       d="m 14.999994,1025.9915 -11.2422196,9.9235 2.2484301,0 0,12.8177 6.7453475,0 0,-7.5644 4.651059,0 1.3e-5,7.5644 6.591159,0 0,-12.8177 2.248444,0 -11.242237,-9.9235 0,0 0,0 z"
       style="font-size:12px;fill:none;stroke:none" />
    <path
       style="fill:#1a1a1a;fill-opacity:1;fill-rule:evenodd;stroke:none"
       d="m 26.125033,1030.0482 c -0.0344,0.022 -0.071,0.022 -0.1011,0.022 -0.11615,0.032 -0.20864,0.2316 -0.26886,0.3865 -0.0602,0.1549 -0.0903,0.3343 -0.0839,0.5377 -0.13766,0.2373 -0.45557,0.4704 -0.95781,0.7058 -0.50439,0.2372 -1.14106,0.5043 -2.03348,0.7057 -0.74056,0.1656 -1.75021,0.285 -2.68865,0.4033 -0.0817,0.022 -0.15917,0.022 -0.2351,0.032 -0.11615,0.022 -0.24112,0.037 -0.35297,0.052 -0.79455,0.1032 -1.4609,0.1785 -2.2518,0.252 l 0,-0.4033 c 0.16132,-0.022 0.32307,-0.028 0.4874,-0.069 l 0,-0.5042 -0.15056,-0.1011 -0.0215,-0.022 c 0,0 -0.0215,0 -0.0323,0 -0.18283,-0.043 -0.36652,-0.052 -0.55451,-0.052 -0.18928,0 -0.35512,0.024 -0.53773,0.069 -0.0215,0 -0.0344,-0.022 -0.0516,-0.022 l 0,0.022 -0.15057,0.1011 0,0.5042 c 0.15487,0.037 0.30156,0.054 0.45363,0.069 l 0,0.4539 c -0.11184,0.022 -0.18067,0.024 -0.30242,0.034 -0.43857,0.034 -1.03244,0.067 -1.59641,0.1011 l 0,-0.5883 c 0.16132,-0.021 0.32156,-0.028 0.4874,-0.069 l 0,-0.5042 -0.16777,-0.1011 0,-0.021 c -0.0215,0 -0.0215,0.021 -0.0323,0.021 -0.18713,-0.047 -0.3605,-0.069 -0.55451,-0.069 -0.19358,0 -0.36802,0.022 -0.55451,0.069 -0.0215,0 -0.0215,-0.021 -0.0344,-0.021 l 0,0.021 -0.15056,0.1011 c -0.0215,0 -0.0215,0 -0.0215,0 l 0,0.5042 c 0.15486,0.037 0.31855,0.054 0.4704,0.069 l 0,0.6218 c -0.70572,0.039 -1.30819,0.08 -1.89883,0.1183 l 0,-0.7394 c 0.15702,-0.022 0.30887,-0.028 0.47062,-0.069 l 0,-0.5041 -0.15057,-0.1011 0,-0.022 c -0.0215,0 -0.0344,0.022 -0.0516,0.022 -0.18282,-0.041 -0.34887,-0.069 -0.53773,-0.069 -0.19358,0 -0.36802,0.024 -0.5545,0.069 -0.0215,0 -0.0215,-0.022 -0.0323,-0.022 l 0,0.022 -0.16778,0.1011 0,0.5041 c 0.15917,0.039 0.31425,0.054 0.47041,0.069 l 0,0.773 c -0.0301,0 -0.086,0 -0.1183,0 -1.18881,0.092 -1.9601396,0.1742 -2.3692396,0.2521 -1.23162,0.1506 -2.25847,0.6614 -3.00807,1.3947 -0.12905,0.021 -0.24714,0.024 -0.33597,0.032 -0.14626,0.022 -0.22456,0.03 -0.25209,0.032 l -0.10109,-0.1011 c -0.0237,0.037 -0.0602,0.069 -0.1183,0.084 -0.0581,0 -0.15272,0 -0.23531,0 l -0.28565,0 c 0,-0.071 -0.0215,-0.1226 -0.0667,-0.185 -0.0516,-0.071 -0.13121,-0.1463 -0.21854,-0.185 -0.0882,-0.043 -0.18498,-0.039 -0.30242,-0.052 -0.11615,-0.021 -0.25703,-0.032 -0.4033,-0.032 0.0215,-0.045 0.0215,-0.082 -0.0215,-0.1011 -0.0237,-0.024 -0.0602,-0.022 -0.1183,-0.022 0,-0.06 -0.0215,-0.114 -0.0323,-0.1505 -0.028,-0.039 -0.0473,-0.054 -0.10109,-0.069 -0.0559,-0.022 -0.15487,-0.022 -0.21854,0 -0.0731,-0.022 -0.13551,-0.032 -0.18498,-0.022 -0.0473,0.022 -0.071,0.065 -0.0839,0.1183 -0.0215,0.039 -0.0215,-0.1979 -0.0215,0.1678 0,0.3751 0.0215,1.6519 0.0215,2.0333 0,0.3602 -4.3e-4,0.1247 0.0215,0.1677 0.0215,0.045 0.0366,0.075 0.0839,0.1011 0.0452,0.022 0.11185,0 0.18498,0 0.0602,0 0.14626,0 0.20219,0 0.0516,-0.022 0.0903,-0.049 0.1183,-0.084 0.0215,-0.036 0.0237,-0.077 0.0215,-0.1355 0.0559,0 0.11184,-0.022 0.13551,-0.034 0.0215,-0.026 0.0301,-0.052 0.0215,-0.1011 0.14627,-0.022 0.26994,0 0.38653,-0.022 0.11615,-0.021 0.21552,-0.03 0.30242,-0.069 0.0882,-0.045 0.16562,-0.1054 0.21853,-0.1678 0.0516,-0.064 0.0753,-0.1333 0.0839,-0.2022 l 0.28564,0 c 0.0839,0 0.15486,0 0.21832,0.022 0,0 0.0215,0 0.0215,0 -0.38265,0.6946 -0.60484,1.5014 -0.60484,2.3695 0,1.5682 0.45449,3.0567 1.59641,3.9489 0.54375,0.8317 1.50414,1.2247 2.90697,1.2266 l 0,0.022 0.0516,0 1.1931096,0 0,-0.022 0.36974,0 0,0.4369 -0.0323,0.032 0,0.2688 c 0,0 0.5287,0.1678 1.07547,0.1678 0.54676,0 1.10901,-0.1678 1.10901,-0.1678 l 0,-0.2688 -0.0323,-0.032 0,-0.4369 0.33598,0 0,0.4369 -0.0323,0.032 0,0.2688 c 0,0 0.54568,0.1678 1.09245,0.1678 0.54676,0 1.09224,-0.1678 1.09224,-0.1678 l 0,-0.2688 -0.0323,-0.032 0,-0.4369 0.35296,0 0,0.4369 c 0,0 -0.0215,0 -0.0215,0 l -0.0323,0.032 0,0.2688 c 0,0 0.54548,0.1678 1.09224,0.1678 0.54677,0 1.10902,-0.1678 1.10902,-0.1678 l 0,-0.2688 -0.0323,-0.022 0,-0.4536 1.29399,0 c 0.29855,0 0.57989,-0.03 0.84015,-0.069 l 0.0323,0.1355 0.13551,-0.032 0.0688,0.2521 c -0.0581,0 -0.10969,0 -0.1355,0.032 -0.0495,0.054 -0.043,0.2108 0,0.2689 -0.0215,0.1118 0.0215,0.2021 0.0667,0.252 0.0731,0.065 0.17852,0.071 0.35296,0.032 0,0.05 0.0323,0.082 0.10109,0.1011 0.0559,0.022 0.14197,0.041 0.28565,0 0.14841,-0.045 0.33597,-0.1312 0.58827,-0.2689 0.25016,-0.1462 0.62786,-0.3549 0.89049,-0.588 0.0215,-0.022 0.0323,-0.032 0.0516,-0.052 0.0215,9e-4 0.0237,0 0.0323,0 0.17852,0 0.31919,-0.1419 0.31919,-0.3194 0,-0.032 -0.0215,-0.056 -0.0215,-0.084 0.0774,-0.1096 0.15487,-0.2155 0.23531,-0.3359 0.19144,-0.3052 0.4147,-0.7118 0.55451,-1.0084 0.13766,-0.303 0.23918,-0.6732 0.26887,-0.7898 0.0215,-0.1226 -0.0602,-0.047 -0.13551,0.1011 -0.0731,0.157 -0.16562,0.5121 -0.30242,0.8066 -0.15272,0.2882 -0.3491,0.6659 -0.53773,0.9075 -0.0602,0.075 -0.114,0.129 -0.16777,0.1849 -0.0581,-0.058 -0.12906,-0.101 -0.21854,-0.101 -0.0409,0 -0.0839,0.022 -0.1183,0.032 l -0.26886,-0.3194 0.0688,-0.052 -0.0839,-0.084 c 0.0215,-0.022 0.0323,-0.034 0.0516,-0.052 0.48933,-0.405 0.75777,-0.9662 0.89069,-1.5964 0.043,-0.1528 0.0882,-0.3106 0.11831,-0.4704 0.0624,-0.022 0.11615,-0.039 0.16777,-0.069 0.0581,-0.037 0.12045,-0.086 0.16777,-0.1505 0.043,-0.073 0.10324,-0.1786 0.1183,-0.2689 0.0215,-0.1011 -0.0215,-0.1957 -0.0344,-0.2856 -0.0366,-0.092 -0.0946,-0.1657 -0.15056,-0.2186 -0.0516,-0.043 -0.1097,-0.071 -0.16778,-0.084 2.2e-4,-0.028 0,-0.056 0,-0.084 0,-1.0367 -0.16132,-1.9984 -0.63861,-2.7557 0.27511,0.082 0.55774,0.157 0.78982,0.2353 1.08278,0.3665 1.7943,0.7584 2.20126,1.1929 0,0.142 0.0344,0.2697 0.0839,0.4203 0.0473,0.1484 0.0989,0.411 0.21853,0.4704 0.12045,0.054 0.34544,0.114 0.4874,-0.1183 0.14196,-0.2373 0.285,-0.847 0.35275,-1.277 0.0688,-0.4302 0.0387,-0.7578 0.0516,-1.294 0.0215,-0.5403 0.0387,-1.3159 0.0344,-1.9156 0,-0.5978 -0.0495,-1.1977 -0.0688,-1.63 -0.0215,-0.4282 0.0215,-0.5003 -0.0516,-0.9242 -0.0667,-0.4259 -0.19143,-1.308 -0.3192,-1.6132 -0.0946,-0.2259 -0.22993,-0.236 -0.33597,-0.2186 z m -17.6444496,6.1166 0,0.101 0.16777,0 2.2683596,0 0,0.4203 c -0.26908,0.041 -0.50589,0.1162 -0.70571,0.2184 l -0.8569296,0 -0.0516,0 0,0.049 c -1.46457,0.021 -2.36537,0.6016 -2.87342,1.3779 0.14626,-0.8234 0.55945,-1.6211 1.24345,-2.1004 0.0903,-0.022 0.18282,-0.022 0.26886,-0.022 0.20004,-0.021 0.37663,-0.034 0.53773,-0.052 z m 4.5539296,0.069 0.33619,0 0,0.7057 -0.33619,0 0,-0.7057 z m 2.45334,0 0.35297,0 0,0.7057 -0.35297,0 0,-0.7057 z m 2.47034,0 1.29378,0 c 1.12644,0 1.83882,0.2729 2.28535,0.7395 -0.40824,-0.1657 -0.89865,-0.267 -1.51231,-0.2689 l -2.06682,0 0,-0.4706 z m -8.6542396,1.7141 0,0.034 0.0323,0 c -0.1054,0.2918 -0.18068,0.6091 -0.20219,0.9578 -0.0215,0.062 -0.0323,0.1269 -0.0323,0.2022 0,0.047 0.0215,0.1054 0.0215,0.1505 0,0.4689 0.12906,0.8978 0.3192,1.2772 -0.19358,0.1011 -0.33619,0.2754 -0.33619,0.5378 0,0.3815 0.30414,0.6848 0.84037,0.6889 l 0.9072596,0 c 0.0215,0.022 0.0452,0.022 0.0688,0.022 l 0,0.3362 -1.7138596,0 c -0.9492,-0.1247 -1.76204,-0.6354 -2.26858,-1.3611 -0.0215,-0.1398 -0.0323,-0.2742 -0.0323,-0.4203 0,-1.5811 0.86467,-2.3802 2.40279,-2.4198 z m 1.5460796,0.022 0.0688,0 0,0.5377 c -0.0215,0 -0.0215,0 -0.0215,0 l -0.52095,0 c 0.086,-0.2375 0.23467,-0.4218 0.47041,-0.5377 z m 2.18448,0 0.33619,0 0,0.8904 c -0.10109,-0.022 -0.21832,-0.026 -0.33619,-0.032 l 0,-0.8569 z m 2.45334,0 0.35297,0 0,1.697 -0.35297,0 0,-1.697 z m 2.47034,0 1.83151,0 c 0.9834,0 1.22689,0.542 1.22689,1.2266 0,0.6823 -0.18283,1.2641 -1.22689,1.277 l -0.92404,0 0,-0.032 -0.90747,0 0,-2.4701 z m 4.11686,1.7979 c 0,0.09 0.0215,0.1764 0.0215,0.2689 0,1.1613 -0.38437,2.0748 -2.06682,2.1174 l -2.06703,0 0,-0.6387 0.90747,0 0,-0.022 0.92425,0 0.1011,0 c 1.06728,0 1.93884,-0.7392 2.18447,-1.7308 z m -11.76275,0.069 0.60484,0 0,0.6387 c -0.0215,0 -0.0215,0 -0.0215,0 l -0.21831,0 c -0.19789,-0.1592 -0.31705,-0.373 -0.36975,-0.6387 z m 2.72221,0.022 c 0.14196,0.022 0.25704,0.071 0.33619,0.1505 l 0,0.5713 c -0.0796,0.099 -0.19358,0.1592 -0.33619,0.185 l 0,-0.9073 z m 2.45334,0.8904 0.35297,0 0,1.4117 -0.35297,0 0,-1.4117 z m -2.11715,1.0084 0,0.4033 -0.33619,0 0,-0.353 c 0.1183,-0.022 0.23531,-0.026 0.33619,-0.052 z m 8.51959,1.2267 0.0839,0.084 0.0516,-0.052 0.26886,0.3192 c -0.0344,0.052 -0.0516,0.1011 -0.0516,0.1678 0,0.067 0.0215,0.1334 0.0516,0.185 -0.24671,0.1462 -0.5801,0.3 -0.75626,0.3863 -0.19573,0.09 -0.29403,0.1226 -0.30242,0.1011 -0.0366,-0.052 -0.071,-0.088 -0.10109,-0.1011 -0.0215,0 -0.0366,0 -0.0495,0 0.0215,-0.041 0,-0.082 0,-0.1183 -0.0215,-0.05 -0.0301,-0.1334 -0.13551,-0.1183 -0.0258,0 -0.0796,0.021 -0.1183,0.032 l -0.0323,-0.1849 0.15056,-0.032 -0.0323,-0.1678 c 0.37512,-0.129 0.69755,-0.2927 0.97459,-0.5042 z m -0.90747,1.1931 c -0.028,0.026 -0.0495,0.047 -0.0839,0.069 -0.0237,0.022 -0.0581,0.024 -0.0839,0.032 0.0602,-0.032 0.1183,-0.062 0.16777,-0.1011 z"
       id="polygon7-0"
       inkscape:connector-curvature="0" />
  </g>
</svg>
