<?xml version="1.0" encoding="UTF-8" standalone="no"?>
<!-- Created with Inkscape (http://www.inkscape.org/) -->

<svg
   xmlns:dc="http://purl.org/dc/elements/1.1/"
   xmlns:cc="http://creativecommons.org/ns#"
   xmlns:rdf="http://www.w3.org/1999/02/22-rdf-syntax-ns#"
   xmlns:svg="http://www.w3.org/2000/svg"
   xmlns="http://www.w3.org/2000/svg"
   xmlns:sodipodi="http://sodipodi.sourceforge.net/DTD/sodipodi-0.dtd"
   xmlns:inkscape="http://www.inkscape.org/namespaces/inkscape"
   width="30"
   height="30"
   id="svg2"
   sodipodi:version="0.32"
   inkscape:version="0.48.4 r9939"
   sodipodi:docname="playground.svg"
   inkscape:output_extension="org.inkscape.output.svg.inkscape"
   version="1.1">
  <defs
     id="defs4" />
  <sodipodi:namedview
     id="base"
     pagecolor="#ffffff"
     bordercolor="#666666"
     borderopacity="1.0"
     inkscape:pageopacity="0.0"
     inkscape:pageshadow="2"
     inkscape:zoom="10.276087"
     inkscape:cx="15.344828"
     inkscape:cy="14.482759"
     inkscape:document-units="px"
     inkscape:current-layer="layer1"
     inkscape:window-width="656"
     inkscape:window-height="1029"
     inkscape:window-x="0"
     inkscape:window-y="19"
     showgrid="false"
     inkscape:window-maximized="0" />
  <metadata
     id="metadata7">
    <rdf:RDF>
      <cc:Work
         rdf:about="">
        <dc:format>image/svg+xml</dc:format>
        <dc:type
           rdf:resource="http://purl.org/dc/dcmitype/StillImage" />
        <dc:title></dc:title>
      </cc:Work>
    </rdf:RDF>
  </metadata>
  <g
     inkscape:label="Capa 1"
     inkscape:groupmode="layer"
     id="layer1"
     transform="translate(0,-1022.3622)">
    <path
       sodipodi:type="arc"
       style="color:#000000;fill:#1a1a1a;stroke:#d4d4d4;stroke-width:1.02777779;stroke-opacity:1;marker:none;visibility:visible;display:inline;overflow:visible;enable-background:accumulate"
       id="path16617-6-6"
       sodipodi:cx="15.16226"
       sodipodi:cy="16.56851"
       sodipodi:rx="14.008413"
       sodipodi:ry="14.008413"
       d="m 29.170673,16.56851 a 14.008413,14.008413 0 1 1 -28.0168263,0 14.008413,14.008413 0 1 1 28.0168263,0 z"
       transform="matrix(0.97297297,0,0,0.97297297,330.50795,953.63241)" />
    <path
       style="fill:#1a1a1a;stroke:#d4d4d4;stroke-width:1px;stroke-linecap:butt;stroke-linejoin:miter;stroke-opacity:1"
       d="m 345.29648,957.89011 0,11.863 0,0"
       id="path16623-6-2"
       inkscape:connector-curvature="0"
       inkscape:transform-center-y="-5.9314904" />
    <path
       style="fill:#1a1a1a;stroke:#d4d4d4;stroke-width:1px;stroke-linecap:butt;stroke-linejoin:miter;stroke-opacity:1"
       d="m 357.15947,969.75311 -1.70877,0 0,0"
       id="path16623-4-2-0"
       inkscape:connector-curvature="0"
       inkscape:transform-center-x="-0.854382" />
    <path
       style="fill:#1a1a1a;stroke:#d4d4d4;stroke-width:0.99999994px;stroke-linecap:butt;stroke-linejoin:miter;stroke-opacity:1"
       d="m 345.29648,981.61611 0,-2.0181 0,0"
       id="path16623-4-3-9-0"
       inkscape:connector-curvature="0"
       inkscape:transform-center-y="1.0091015" />
    <path
       style="fill:#1a1a1a;stroke:#d4d4d4;stroke-width:1px;stroke-linecap:butt;stroke-linejoin:miter;stroke-opacity:1"
       d="m 333.43348,969.75311 11.863,0 0,0"
       id="path16623-4-3-4-1-0"
       inkscape:connector-curvature="0"
       inkscape:transform-center-x="5.9315" />
    <path
       inkscape:connector-curvature="0"
       sodipodi:nodetypes="cccccccccccccc"
       id="path9518-0-7"
       d="m 14.999994,1025.9915 -11.2422196,9.9235 2.2484301,0 0,12.8177 6.7453475,0 0,-7.5644 4.651059,0 1.3e-5,7.5644 6.591159,0 0,-12.8177 2.248444,0 -11.242237,-9.9235 0,0 0,0 z"
       style="font-size:12px;fill:none;stroke:none" />
    <path
       inkscape:connector-curvature="0"
       style="font-size:40px;font-style:normal;font-variant:normal;font-weight:normal;font-stretch:normal;text-align:start;line-height:125%;writing-mode:lr-tb;text-anchor:start;fill:#1a1a1a;fill-opacity:1;stroke:none;font-family:NPSPICT3;-inkscape-font-specification:NPSPICT3"
       d="m 2.5758156,1023.6298 c -0.11912,0.01 -0.20192,0.024 -0.28125,0.063 l 0,27.4062 c 0.2325,-0.023 0.53542,-0.01 0.8125,0 l 24.2500004,0 c 0.14242,-0.01 0.25222,-0.019 0.34375,-0.063 l 0,-26.7187 c 0.004,-0.1395 0.008,-0.2551 0,-0.375 l 0,-0.3125 c -0.0179,0 -0.0439,0 -0.0625,0 l -24.6562504,0 c -0.13854,0 -0.28713,-0.01 -0.40625,0 z m 1.21875,1.5 7.0625004,0 0,9.7812 c -1.3375704,0.4417 -2.2840004,1.7068 -2.2500004,3.1875 l 0.0625,7.6875 c -0.007,1.1855 0.62723,2.2551 1.6562504,2.8438 0.16998,0.097 0.35041,0.1856 0.53125,0.25 l 0,0.7187 -7.0625004,0 0,-24.4687 z m 8.8125004,0 6.375,0 0,3.0625 c -0.094,-0.1136 -0.17151,-0.2368 -0.28125,-0.3438 -0.76734,-0.7479 -1.68283,-1.0936 -2.71875,-1.0937 l -0.125,0 c -0.0378,-10e-4 -0.0555,0 -0.0937,0 -1.03592,10e-5 -1.95141,0.3458 -2.71875,1.0937 -0.17006,0.1658 -0.30519,0.3497 -0.4375,0.5313 l 0,-3.25 z m 8.0625,0 5.53125,0 0,24.4687 -5.4375,0 0,-0.8125 c 0.10977,-0.05 0.20747,-0.094 0.3125,-0.1562 1.01844,-0.6068 1.62157,-1.7212 1.59375,-2.9063 l -0.0625,-7.6875 c 0.005,-0.888 -0.33509,-1.7216 -0.96875,-2.3437 -0.28542,-0.2803 -0.60987,-0.4982 -0.96875,-0.6563 l 0,-9.9062 z m -8.0625,7.6562 c 0.13231,0.1821 0.26744,0.3655 0.4375,0.5313 0.76734,0.748 1.68283,1.125 2.71875,1.125 0.0382,0 0.0559,-10e-4 0.0937,0 0.0382,9e-4 0.0864,0 0.125,0 1.03592,0 1.95141,-0.377 2.71875,-1.125 0.10974,-0.107 0.18723,-0.23 0.28125,-0.3438 l 0,1.7188 c -0.0223,-5e-4 -0.0398,0 -0.0625,0 l -6.09375,0 c -0.0781,0 -0.14545,0.026 -0.21875,0.031 l 0,-1.9375 z"
       id="flowRoot3192-7" />
  </g>
</svg>
