<?xml version="1.0" encoding="UTF-8" standalone="no"?>
<!-- Created with Inkscape (http://www.inkscape.org/) -->

<svg
   xmlns:dc="http://purl.org/dc/elements/1.1/"
   xmlns:cc="http://creativecommons.org/ns#"
   xmlns:rdf="http://www.w3.org/1999/02/22-rdf-syntax-ns#"
   xmlns:svg="http://www.w3.org/2000/svg"
   xmlns="http://www.w3.org/2000/svg"
   xmlns:sodipodi="http://sodipodi.sourceforge.net/DTD/sodipodi-0.dtd"
   xmlns:inkscape="http://www.inkscape.org/namespaces/inkscape"
   width="30"
   height="30"
   id="svg2"
   sodipodi:version="0.32"
   inkscape:version="0.48.4 r9939"
   sodipodi:docname="snow.svg"
   inkscape:output_extension="org.inkscape.output.svg.inkscape"
   version="1.1">
  <defs
     id="defs4" />
  <sodipodi:namedview
     id="base"
     pagecolor="#ffffff"
     bordercolor="#666666"
     borderopacity="1.0"
     inkscape:pageopacity="0.0"
     inkscape:pageshadow="2"
     inkscape:zoom="10.276087"
     inkscape:cx="15.344828"
     inkscape:cy="14.482759"
     inkscape:document-units="px"
     inkscape:current-layer="layer1"
     inkscape:window-width="656"
     inkscape:window-height="1029"
     inkscape:window-x="0"
     inkscape:window-y="19"
     showgrid="false"
     inkscape:window-maximized="0" />
  <metadata
     id="metadata7">
    <rdf:RDF>
      <cc:Work
         rdf:about="">
        <dc:format>image/svg+xml</dc:format>
        <dc:type
           rdf:resource="http://purl.org/dc/dcmitype/StillImage" />
        <dc:title></dc:title>
      </cc:Work>
    </rdf:RDF>
  </metadata>
  <g
     inkscape:label="Capa 1"
     inkscape:groupmode="layer"
     id="layer1"
     transform="translate(0,-1022.3622)">
    <path
       sodipodi:type="arc"
       style="color:#000000;fill:#1a1a1a;stroke:#d4d4d4;stroke-width:1.02777779;stroke-opacity:1;marker:none;visibility:visible;display:inline;overflow:visible;enable-background:accumulate"
       id="path16617-6-6"
       sodipodi:cx="15.16226"
       sodipodi:cy="16.56851"
       sodipodi:rx="14.008413"
       sodipodi:ry="14.008413"
       d="m 29.170673,16.56851 a 14.008413,14.008413 0 1 1 -28.0168263,0 14.008413,14.008413 0 1 1 28.0168263,0 z"
       transform="matrix(0.97297297,0,0,0.97297297,330.50795,953.63241)" />
    <path
       style="fill:#1a1a1a;stroke:#d4d4d4;stroke-width:1px;stroke-linecap:butt;stroke-linejoin:miter;stroke-opacity:1"
       d="m 345.29648,957.89011 0,11.863 0,0"
       id="path16623-6-2"
       inkscape:connector-curvature="0"
       inkscape:transform-center-y="-5.9314904" />
    <path
       style="fill:#1a1a1a;stroke:#d4d4d4;stroke-width:1px;stroke-linecap:butt;stroke-linejoin:miter;stroke-opacity:1"
       d="m 357.15947,969.75311 -1.70877,0 0,0"
       id="path16623-4-2-0"
       inkscape:connector-curvature="0"
       inkscape:transform-center-x="-0.854382" />
    <path
       style="fill:#1a1a1a;stroke:#d4d4d4;stroke-width:0.99999994px;stroke-linecap:butt;stroke-linejoin:miter;stroke-opacity:1"
       d="m 345.29648,981.61611 0,-2.0181 0,0"
       id="path16623-4-3-9-0"
       inkscape:connector-curvature="0"
       inkscape:transform-center-y="1.0091015" />
    <path
       style="fill:#1a1a1a;stroke:#d4d4d4;stroke-width:1px;stroke-linecap:butt;stroke-linejoin:miter;stroke-opacity:1"
       d="m 333.43348,969.75311 11.863,0 0,0"
       id="path16623-4-3-4-1-0"
       inkscape:connector-curvature="0"
       inkscape:transform-center-x="5.9315" />
    <path
       inkscape:connector-curvature="0"
       sodipodi:nodetypes="cccccccccccccc"
       id="path9518-0-7"
       d="m 14.999994,1025.9915 -11.2422196,9.9235 2.2484301,0 0,12.8177 6.7453475,0 0,-7.5644 4.651059,0 1.3e-5,7.5644 6.591159,0 0,-12.8177 2.248444,0 -11.242237,-9.9235 0,0 0,0 z"
       style="font-size:12px;fill:none;stroke:none" />
    <path
       inkscape:connector-curvature="0"
       style="color:#000000;fill:#1a1a1a;fill-opacity:1;fill-rule:nonzero;stroke:none;stroke-width:3;marker:none;visibility:visible;display:inline;overflow:visible;enable-background:accumulate"
       d="m 20.484375,1026.1433 c -1.29838,0 -2.41155,0.7332 -2.96875,1.8125 -0.54337,-0.9339 -1.52917,-1.5625 -2.6875,-1.5625 -1.4025,0 -2.56722,0.9178 -2.96875,2.1875 -0.54359,-0.7109 -1.37975,-1.1875 -2.3437503,-1.1875 -1.5348899,0 -2.778,1.1638 -2.9375,2.6563 -1.84844,0.1143 -3.3125,1.6228 -3.3125,3.5 0,1.9516 1.57966,3.5312 3.53125,3.5312 0.3115,0 0.58725,-0.049 0.8750001,-0.125 0.51318,1.4595 1.8650999,2.5313 3.5000002,2.5313 0.98718,0 1.89285,-0.4078 2.5625,-1.0313 0.45361,0.2389 0.95168,0.375 1.5,0.375 1.11038,0 2.09807,-0.5589 2.6875,-1.4062 0.63692,0.5132 1.43089,0.8125 2.3125,0.8125 1.91742,0 3.48988,-1.4474 3.6875,-3.3125 1.55777,-0.084 2.8125,-1.3276 2.8125,-2.9063 0,-1.6223 -1.31921,-2.9517 -2.9375,-2.9687 -0.21282,-1.6471 -1.60755,-2.9063 -3.3125,-2.9063 z m 2.15625,14.3125 c -0.12351,1.0442 -0.369,0.8842 -0.375,1.3438 -0.003,0.2091 0.16582,0.375 0.375,0.375 0.20918,0 0.41025,-0.1659 0.40625,-0.375 -0.008,-0.4944 -0.30295,-0.2849 -0.40625,-1.3438 z m -14.7500002,0.8125 c -0.12351,1.0442 -0.369,0.8842 -0.375,1.3438 -0.003,0.2091 0.16582,0.375 0.375,0.375 0.20918,0 0.379,-0.1659 0.375,-0.375 -0.008,-0.4944 -0.2717,-0.2849 -0.375,-1.3438 z m 7.1250002,0.125 c -0.12351,1.0442 -0.369,0.8842 -0.375,1.3438 -0.003,0.2091 0.16582,0.375 0.375,0.375 0.20918,0 0.379,-0.1659 0.375,-0.375 -0.008,-0.4944 -0.2717,-0.2849 -0.375,-1.3438 z m 9.375,4.2813 c -0.12351,1.0442 -0.369,0.8529 -0.375,1.3125 -0.003,0.2091 0.16582,0.375 0.375,0.375 0.20918,0 0.379,-0.1659 0.375,-0.375 -0.008,-0.4944 -0.2717,-0.2536 -0.375,-1.3125 z m -13.0625,1.125 c -0.12351,1.0442 -0.369,0.8841 -0.375,1.3437 -0.003,0.2091 0.16582,0.375 0.375,0.375 0.20918,0 0.379,-0.1659 0.375,-0.375 -0.008,-0.4944 -0.2717,-0.2848 -0.375,-1.3437 z m 7.15625,0.094 c -0.12351,1.0442 -0.40025,0.8529 -0.40625,1.3125 -0.003,0.2091 0.19707,0.375 0.40625,0.375 0.20918,0 0.379,-0.1659 0.375,-0.375 -0.008,-0.4944 -0.2717,-0.2536 -0.375,-1.3125 z"
       id="path8488-8" />
  </g>
</svg>
