<?xml version="1.0" encoding="UTF-8" standalone="no"?>
<!-- Created with Inkscape (http://www.inkscape.org/) -->

<svg
   xmlns:dc="http://purl.org/dc/elements/1.1/"
   xmlns:cc="http://creativecommons.org/ns#"
   xmlns:rdf="http://www.w3.org/1999/02/22-rdf-syntax-ns#"
   xmlns:svg="http://www.w3.org/2000/svg"
   xmlns="http://www.w3.org/2000/svg"
   xmlns:sodipodi="http://sodipodi.sourceforge.net/DTD/sodipodi-0.dtd"
   xmlns:inkscape="http://www.inkscape.org/namespaces/inkscape"
   width="30"
   height="30"
   id="svg2"
   sodipodi:version="0.32"
   inkscape:version="0.48.4 r9939"
   sodipodi:docname="plate.svg"
   inkscape:output_extension="org.inkscape.output.svg.inkscape"
   version="1.1">
  <defs
     id="defs4" />
  <sodipodi:namedview
     id="base"
     pagecolor="#ffffff"
     bordercolor="#666666"
     borderopacity="1.0"
     inkscape:pageopacity="0.0"
     inkscape:pageshadow="2"
     inkscape:zoom="10.276087"
     inkscape:cx="15.344828"
     inkscape:cy="14.482759"
     inkscape:document-units="px"
     inkscape:current-layer="layer1"
     inkscape:window-width="656"
     inkscape:window-height="1029"
     inkscape:window-x="0"
     inkscape:window-y="19"
     showgrid="false"
     inkscape:window-maximized="0" />
  <metadata
     id="metadata7">
    <rdf:RDF>
      <cc:Work
         rdf:about="">
        <dc:format>image/svg+xml</dc:format>
        <dc:type
           rdf:resource="http://purl.org/dc/dcmitype/StillImage" />
        <dc:title></dc:title>
      </cc:Work>
    </rdf:RDF>
  </metadata>
  <g
     inkscape:label="Capa 1"
     inkscape:groupmode="layer"
     id="layer1"
     transform="translate(0,-1022.3622)">
    <path
       sodipodi:type="arc"
       style="color:#000000;fill:#1a1a1a;stroke:#d4d4d4;stroke-width:1.02777779;stroke-opacity:1;marker:none;visibility:visible;display:inline;overflow:visible;enable-background:accumulate"
       id="path16617-6-6"
       sodipodi:cx="15.16226"
       sodipodi:cy="16.56851"
       sodipodi:rx="14.008413"
       sodipodi:ry="14.008413"
       d="m 29.170673,16.56851 a 14.008413,14.008413 0 1 1 -28.0168263,0 14.008413,14.008413 0 1 1 28.0168263,0 z"
       transform="matrix(0.97297297,0,0,0.97297297,330.50795,953.63241)" />
    <path
       style="fill:#1a1a1a;stroke:#d4d4d4;stroke-width:1px;stroke-linecap:butt;stroke-linejoin:miter;stroke-opacity:1"
       d="m 345.29648,957.89011 0,11.863 0,0"
       id="path16623-6-2"
       inkscape:connector-curvature="0"
       inkscape:transform-center-y="-5.9314904" />
    <path
       style="fill:#1a1a1a;stroke:#d4d4d4;stroke-width:1px;stroke-linecap:butt;stroke-linejoin:miter;stroke-opacity:1"
       d="m 357.15947,969.75311 -1.70877,0 0,0"
       id="path16623-4-2-0"
       inkscape:connector-curvature="0"
       inkscape:transform-center-x="-0.854382" />
    <path
       style="fill:#1a1a1a;stroke:#d4d4d4;stroke-width:0.99999994px;stroke-linecap:butt;stroke-linejoin:miter;stroke-opacity:1"
       d="m 345.29648,981.61611 0,-2.0181 0,0"
       id="path16623-4-3-9-0"
       inkscape:connector-curvature="0"
       inkscape:transform-center-y="1.0091015" />
    <path
       style="fill:#1a1a1a;stroke:#d4d4d4;stroke-width:1px;stroke-linecap:butt;stroke-linejoin:miter;stroke-opacity:1"
       d="m 333.43348,969.75311 11.863,0 0,0"
       id="path16623-4-3-4-1-0"
       inkscape:connector-curvature="0"
       inkscape:transform-center-x="5.9315" />
    <path
       inkscape:connector-curvature="0"
       sodipodi:nodetypes="cccccccccccccc"
       id="path9518-0-7"
       d="m 14.999994,1025.9915 -11.2422196,9.9235 2.2484301,0 0,12.8177 6.7453475,0 0,-7.5644 4.651059,0 1.3e-5,7.5644 6.591159,0 0,-12.8177 2.248444,0 -11.242237,-9.9235 0,0 0,0 z"
       style="font-size:12px;fill:none;stroke:none" />
    <path
       inkscape:connector-curvature="0"
       style="fill:#1a1a1a;fill-opacity:1"
       d="m 8.9531249,1023.7528 c -0.19578,0 -0.34375,0.1502 -0.34375,0.3438 l 0,6.9062 c 0,0.1936 0.14797,0.3438 0.34375,0.3438 l 12.0937501,0 c 0.19596,0 0.34375,-0.1502 0.34375,-0.3438 l 0,-6.9062 c 0,-0.1936 -0.14788,-0.3438 -0.34375,-0.3438 l -12.0937501,0 z m 0.9375,0.6563 c 0.1720301,0 0.2812501,0.1111 0.2812501,0.2812 l 0,5.7188 c 0,0.1702 -0.10922,0.3125 -0.2812501,0.3125 -0.17221,0 -0.3125,-0.1423 -0.3125,-0.3125 l 0,-5.7188 c 0,-0.1701 0.14029,-0.2812 0.3125,-0.2812 z m -0.9375,7.25 c -0.19578,0 -0.34375,0.1814 -0.34375,0.375 l 0,17 c 0,0.1934 0.14797,0.3437 0.34375,0.3437 l 12.0937501,0 c 0.19596,0 0.34375,-0.1503 0.34375,-0.3437 l 0,-17 c 0,-0.1936 -0.14788,-0.375 -0.34375,-0.375 l -12.0937501,0 z m 0.9375,1 c 0.1571201,0 0.2812501,0.126 0.2812501,0.2812 l 0,15.1875 c 0,0.1556 -0.12413,0.2813 -0.2812501,0.2813 -0.15739,0 -0.3125,-0.1257 -0.3125,-0.2813 l 0,-15.1875 c 0,-0.1552 0.15511,-0.2812 0.3125,-0.2812 z m -0.9375,17.0625 c -0.19578,0 -0.34375,0.1503 -0.34375,0.3437 l 0,0.5625 c 0,0.1936 0.14797,0.3438 0.34375,0.3438 l 12.0937501,0 c 0.19587,0 0.34375,-0.1502 0.34375,-0.3438 l 0,-0.5625 c 0,-0.1934 -0.14779,-0.3437 -0.34375,-0.3437 l -12.0937501,0 z m 0.15625,0.3125 0.25,0 c 0.11285,0 0.1875,0.076 0.1875,0.1875 l 0,0.25 c 0,0.1113 -0.0748,0.1875 -0.1875,0.1875 l -0.25,0 c -0.11285,0 -0.1875,-0.076 -0.1875,-0.1875 l 0,-0.25 c 0,-0.1116 0.0747,-0.1875 0.1875,-0.1875 z m 1.4375001,0 0.25,0 c 0.11275,0 0.1875,0.076 0.1875,0.1875 l 0,0.25 c 0,0.1113 -0.0749,0.1875 -0.1875,0.1875 l -0.25,0 c -0.11257,0 -0.1875,-0.076 -0.1875,-0.1875 l 0,-0.25 c 0,-0.1116 0.075,-0.1875 0.1875,-0.1875 z m 1.46875,0 0.21875,0 c 0.11284,0 0.1875,0.076 0.1875,0.1875 l 0,0.25 c 0,0.1113 -0.0748,0.1875 -0.1875,0.1875 l -0.21875,0 c -0.11285,0 -0.21875,-0.076 -0.21875,-0.1875 l 0,-0.25 c 0,-0.1116 0.10603,-0.1875 0.21875,-0.1875 z m 1.4375,0 0.21875,0 c 0.11275,0 0.21875,0.076 0.21875,0.1875 l 0,0.25 c 0,0.1113 -0.10596,0.1875 -0.21875,0.1875 l -0.21875,0 c -0.11276,0 -0.21875,-0.076 -0.21875,-0.1875 l 0,-0.25 c 0,-0.1116 0.10612,-0.1875 0.21875,-0.1875 z m 1.4375,0 0.21875,0 c 0.11266,0 0.21875,0.076 0.21875,0.1875 l 0,0.25 c 0,0.1113 -0.10623,0.1875 -0.21875,0.1875 l -0.21875,0 c -0.11276,0 -0.21875,-0.076 -0.21875,-0.1875 l 0,-0.25 c 0,-0.1116 0.10603,-0.1875 0.21875,-0.1875 z m 1.4375,0 0.21875,0 c 0.11285,0 0.21875,0.076 0.21875,0.1875 l 0,0.25 c 0,0.1113 -0.10602,0.1875 -0.21875,0.1875 l -0.21875,0 c -0.11285,0 -0.21875,-0.076 -0.21875,-0.1875 l 0,-0.25 c 0,-0.1116 0.10602,-0.1875 0.21875,-0.1875 z m 1.4375,0 0.21875,0 c 0.11276,0 0.21875,0.076 0.21875,0.1875 l 0,0.25 c 0,0.1113 -0.10612,0.1875 -0.21875,0.1875 l -0.21875,0 c -0.11265,0 -0.21875,-0.076 -0.21875,-0.1875 l 0,-0.25 c 0,-0.1116 0.10623,-0.1875 0.21875,-0.1875 z m 1.4375,0 0.21875,0 c 0.11266,0 0.21875,0.076 0.21875,0.1875 l 0,0.25 c 0,0.1113 -0.10623,0.1875 -0.21875,0.1875 l -0.21875,0 c -0.11285,0 -0.1875,-0.076 -0.1875,-0.1875 l 0,-0.25 c 0,-0.1116 0.0748,-0.1875 0.1875,-0.1875 z m 1.4375,0 0.25,0 c 0.11276,0 0.1875,0.076 0.1875,0.1875 l 0,0.25 c 0,0.1113 -0.0749,0.1875 -0.1875,0.1875 l -0.25,0 c -0.11276,0 -0.1875,-0.076 -0.1875,-0.1875 l 0,-0.25 c 0,-0.1116 0.0749,-0.1875 0.1875,-0.1875 z"
       id="path241-9" />
  </g>
</svg>
