<?xml version="1.0" encoding="UTF-8" standalone="no"?>
<!-- Created with Inkscape (http://www.inkscape.org/) -->

<svg
   xmlns:dc="http://purl.org/dc/elements/1.1/"
   xmlns:cc="http://creativecommons.org/ns#"
   xmlns:rdf="http://www.w3.org/1999/02/22-rdf-syntax-ns#"
   xmlns:svg="http://www.w3.org/2000/svg"
   xmlns="http://www.w3.org/2000/svg"
   xmlns:sodipodi="http://sodipodi.sourceforge.net/DTD/sodipodi-0.dtd"
   xmlns:inkscape="http://www.inkscape.org/namespaces/inkscape"
   width="30"
   height="30"
   id="svg2"
   sodipodi:version="0.32"
   inkscape:version="0.48.4 r9939"
   sodipodi:docname="train2.svg"
   inkscape:output_extension="org.inkscape.output.svg.inkscape"
   version="1.1">
  <defs
     id="defs4" />
  <sodipodi:namedview
     id="base"
     pagecolor="#ffffff"
     bordercolor="#666666"
     borderopacity="1.0"
     inkscape:pageopacity="0.0"
     inkscape:pageshadow="2"
     inkscape:zoom="10.276087"
     inkscape:cx="15.344828"
     inkscape:cy="14.482759"
     inkscape:document-units="px"
     inkscape:current-layer="layer1"
     inkscape:window-width="656"
     inkscape:window-height="1029"
     inkscape:window-x="0"
     inkscape:window-y="19"
     showgrid="false"
     inkscape:window-maximized="0" />
  <metadata
     id="metadata7">
    <rdf:RDF>
      <cc:Work
         rdf:about="">
        <dc:format>image/svg+xml</dc:format>
        <dc:type
           rdf:resource="http://purl.org/dc/dcmitype/StillImage" />
        <dc:title></dc:title>
      </cc:Work>
    </rdf:RDF>
  </metadata>
  <g
     inkscape:label="Capa 1"
     inkscape:groupmode="layer"
     id="layer1"
     transform="translate(0,-1022.3622)">
    <path
       sodipodi:type="arc"
       style="color:#000000;fill:#1a1a1a;stroke:#d4d4d4;stroke-width:1.02777779;stroke-opacity:1;marker:none;visibility:visible;display:inline;overflow:visible;enable-background:accumulate"
       id="path16617-6-6"
       sodipodi:cx="15.16226"
       sodipodi:cy="16.56851"
       sodipodi:rx="14.008413"
       sodipodi:ry="14.008413"
       d="m 29.170673,16.56851 a 14.008413,14.008413 0 1 1 -28.0168263,0 14.008413,14.008413 0 1 1 28.0168263,0 z"
       transform="matrix(0.97297297,0,0,0.97297297,330.50795,953.63241)" />
    <path
       style="fill:#1a1a1a;stroke:#d4d4d4;stroke-width:1px;stroke-linecap:butt;stroke-linejoin:miter;stroke-opacity:1"
       d="m 345.29648,957.89011 0,11.863 0,0"
       id="path16623-6-2"
       inkscape:connector-curvature="0"
       inkscape:transform-center-y="-5.9314904" />
    <path
       style="fill:#1a1a1a;stroke:#d4d4d4;stroke-width:1px;stroke-linecap:butt;stroke-linejoin:miter;stroke-opacity:1"
       d="m 357.15947,969.75311 -1.70877,0 0,0"
       id="path16623-4-2-0"
       inkscape:connector-curvature="0"
       inkscape:transform-center-x="-0.854382" />
    <path
       style="fill:#1a1a1a;stroke:#d4d4d4;stroke-width:0.99999994px;stroke-linecap:butt;stroke-linejoin:miter;stroke-opacity:1"
       d="m 345.29648,981.61611 0,-2.0181 0,0"
       id="path16623-4-3-9-0"
       inkscape:connector-curvature="0"
       inkscape:transform-center-y="1.0091015" />
    <path
       style="fill:#1a1a1a;stroke:#d4d4d4;stroke-width:1px;stroke-linecap:butt;stroke-linejoin:miter;stroke-opacity:1"
       d="m 333.43348,969.75311 11.863,0 0,0"
       id="path16623-4-3-4-1-0"
       inkscape:connector-curvature="0"
       inkscape:transform-center-x="5.9315" />
    <path
       inkscape:connector-curvature="0"
       sodipodi:nodetypes="cccccccccccccc"
       id="path9518-0-7"
       d="m 14.999994,1025.9915 -11.2422196,9.9235 2.2484301,0 0,12.8177 6.7453475,0 0,-7.5644 4.651059,0 1.3e-5,7.5644 6.591159,0 0,-12.8177 2.248444,0 -11.242237,-9.9235 0,0 0,0 z"
       style="font-size:12px;fill:none;stroke:none" />
    <path
       style="font-size:medium;font-style:normal;font-variant:normal;font-weight:normal;font-stretch:normal;text-indent:0;text-align:start;text-decoration:none;line-height:normal;letter-spacing:normal;word-spacing:normal;text-transform:none;direction:ltr;block-progression:tb;writing-mode:lr-tb;text-anchor:start;baseline-shift:baseline;color:#000000;fill:#1a1a1a;fill-opacity:1;stroke:none;stroke-width:0.40000001;marker:none;visibility:visible;display:inline;overflow:visible;enable-background:accumulate;font-family:Sans;-inkscape-font-specification:Sans"
       d="m 15.028404,1026.0955 -0.04556,0.047 c -0.477019,0.3795 -2.52853,2.1356 -3.772807,5.3094 -0.885962,2.2596 -1.3480248,5.235 -0.562893,8.9299 -0.0849,4e-4 -3.0697689,0.095 -1.3691529,7.7737 0.002,0.099 0,0.3804 0,0.3804 l 0.03038,-0.213 c 0.02376,0.1052 0.03525,0.1967 0.06095,0.3044 0,0 0.04557,-0.8938 0.09133,-1.3388 0.08743,-0.8503 0.162985,-1.7063 0.349902,-2.5405 0.137087,-0.6121 0.2741929,-1.2385 0.5628739,-1.7952 0.04985,-0.097 0.10593,-0.2008 0.197763,-0.2586 0.188494,-0.1188 0.654161,-0.1363 0.654161,-0.1363 0.09892,0.3032 0.220273,0.6167 0.334674,0.928 0.208182,0.5661 0.428747,1.1396 0.699805,1.7343 l 0.03038,0.062 0.06095,0 2.449277,0 0,3.3467 0.562873,0 0,-3.3467 2.418861,0 0.03038,0 0.06095,0 0.03038,-0.062 c 0.363553,-0.8527 0.678871,-1.7681 0.943211,-2.7079 1.58781,-0.4087 1.764699,6.1156 1.764699,6.1156 1.96702,-8.2774 -1.277886,-8.2457 -1.277886,-8.2457 0.315008,-1.7465 0.43897,-3.5541 0.289031,-5.3092 -0.296313,-3.4682 -1.639587,-6.7373 -4.533442,-8.9301 l -0.06095,-0.047 z m -3.651102,5.4766 7.363057,0.029 c 0.375566,1.1106 0.5973,2.2842 0.699784,3.4839 0.240739,2.8179 -0.232736,5.7777 -1.110538,8.3975 l -2.966526,0 0,-3.1643 -0.562873,0 0,3.1643 -3.027378,0 c -1.9275678,-5.1228 -1.493272,-9.083 -0.395526,-11.9117 z m 3.696727,2.3428 c -1.069374,0 -1.932028,0.8628 -1.932028,1.932 0,1.0693 0.862654,1.9319 1.932028,1.9319 1.069393,0 1.947254,-0.8626 1.947254,-1.9319 0,-1.0692 -0.877861,-1.932 -1.947254,-1.932 z m 0,0.6694 c 0.695948,0 1.262678,0.5667 1.262678,1.2626 0,0.696 -0.56673,1.2628 -1.262678,1.2628 -0.695949,0 -1.247451,-0.5668 -1.247451,-1.2628 0,-0.6959 0.551502,-1.2626 1.247451,-1.2626 z"
       id="path3217-0"
       inkscape:connector-curvature="0"
       sodipodi:nodetypes="ccscccccaaaaccccccccccccccccscccccsccccccccssssssssss" />
  </g>
</svg>
