<?xml version="1.0" encoding="UTF-8" standalone="no"?>
<!-- Created with Inkscape (http://www.inkscape.org/) -->

<svg
   xmlns:dc="http://purl.org/dc/elements/1.1/"
   xmlns:cc="http://creativecommons.org/ns#"
   xmlns:rdf="http://www.w3.org/1999/02/22-rdf-syntax-ns#"
   xmlns:svg="http://www.w3.org/2000/svg"
   xmlns="http://www.w3.org/2000/svg"
   xmlns:sodipodi="http://sodipodi.sourceforge.net/DTD/sodipodi-0.dtd"
   xmlns:inkscape="http://www.inkscape.org/namespaces/inkscape"
   width="30"
   height="30"
   id="svg2"
   sodipodi:version="0.32"
   inkscape:version="0.48.4 r9939"
   sodipodi:docname="cup1.svg"
   inkscape:output_extension="org.inkscape.output.svg.inkscape"
   version="1.1">
  <defs
     id="defs4">
    <clipPath
       clipPathUnits="userSpaceOnUse"
       id="clipPath17670-8">
      <path
         inkscape:connector-curvature="0"
         d="m 0,288.75 201.25,0 L 201.25,0 0,0 0,288.75 z"
         id="path17672-4" />
    </clipPath>
    <clipPath
       clipPathUnits="userSpaceOnUse"
       id="clipPath18098-9">
      <path
         inkscape:connector-curvature="0"
         d="m 0,288.75 201.25,0 L 201.25,0 0,0 0,288.75 z"
         id="path18100-2" />
    </clipPath>
    <clipPath
       clipPathUnits="userSpaceOnUse"
       id="clipPath17356-3">
      <path
         inkscape:connector-curvature="0"
         d="m 0,288.75 201.25,0 L 201.25,0 0,0 0,288.75 z"
         id="path17358-6" />
    </clipPath>
    <clipPath
       clipPathUnits="userSpaceOnUse"
       id="clipPath18256-8">
      <path
         inkscape:connector-curvature="0"
         d="m 0,288.75 201.25,0 L 201.25,0 0,0 0,288.75 z"
         id="path18258-5" />
    </clipPath>
    <clipPath
       clipPathUnits="userSpaceOnUse"
       id="clipPath17038-7">
      <path
         inkscape:connector-curvature="0"
         d="m 0,288.75 201.25,0 L 201.25,0 0,0 0,288.75 z"
         id="path17040-4" />
    </clipPath>
  </defs>
  <sodipodi:namedview
     id="base"
     pagecolor="#ffffff"
     bordercolor="#666666"
     borderopacity="1.0"
     inkscape:pageopacity="0.0"
     inkscape:pageshadow="2"
     inkscape:zoom="10.276087"
     inkscape:cx="15.344828"
     inkscape:cy="14.482759"
     inkscape:document-units="px"
     inkscape:current-layer="layer1"
     inkscape:window-width="656"
     inkscape:window-height="1029"
     inkscape:window-x="0"
     inkscape:window-y="19"
     showgrid="false"
     inkscape:window-maximized="0" />
  <metadata
     id="metadata7">
    <rdf:RDF>
      <cc:Work
         rdf:about="">
        <dc:format>image/svg+xml</dc:format>
        <dc:type
           rdf:resource="http://purl.org/dc/dcmitype/StillImage" />
        <dc:title></dc:title>
      </cc:Work>
    </rdf:RDF>
  </metadata>
  <g
     inkscape:label="Capa 1"
     inkscape:groupmode="layer"
     id="layer1"
     transform="translate(0,-1022.3622)">
    <path
       sodipodi:type="arc"
       style="color:#000000;fill:#1a1a1a;stroke:#d4d4d4;stroke-width:1.02777779;stroke-opacity:1;marker:none;visibility:visible;display:inline;overflow:visible;enable-background:accumulate"
       id="path16617-6-6"
       sodipodi:cx="15.16226"
       sodipodi:cy="16.56851"
       sodipodi:rx="14.008413"
       sodipodi:ry="14.008413"
       d="m 29.170673,16.56851 a 14.008413,14.008413 0 1 1 -28.0168263,0 14.008413,14.008413 0 1 1 28.0168263,0 z"
       transform="matrix(0.97297297,0,0,0.97297297,330.50795,953.63241)" />
    <path
       style="fill:#1a1a1a;stroke:#d4d4d4;stroke-width:1px;stroke-linecap:butt;stroke-linejoin:miter;stroke-opacity:1"
       d="m 345.29648,957.89011 0,11.863 0,0"
       id="path16623-6-2"
       inkscape:connector-curvature="0"
       inkscape:transform-center-y="-5.9314904" />
    <path
       style="fill:#1a1a1a;stroke:#d4d4d4;stroke-width:1px;stroke-linecap:butt;stroke-linejoin:miter;stroke-opacity:1"
       d="m 357.15947,969.75311 -1.70877,0 0,0"
       id="path16623-4-2-0"
       inkscape:connector-curvature="0"
       inkscape:transform-center-x="-0.854382" />
    <path
       style="fill:#1a1a1a;stroke:#d4d4d4;stroke-width:0.99999994px;stroke-linecap:butt;stroke-linejoin:miter;stroke-opacity:1"
       d="m 345.29648,981.61611 0,-2.0181 0,0"
       id="path16623-4-3-9-0"
       inkscape:connector-curvature="0"
       inkscape:transform-center-y="1.0091015" />
    <path
       style="fill:#1a1a1a;stroke:#d4d4d4;stroke-width:1px;stroke-linecap:butt;stroke-linejoin:miter;stroke-opacity:1"
       d="m 333.43348,969.75311 11.863,0 0,0"
       id="path16623-4-3-4-1-0"
       inkscape:connector-curvature="0"
       inkscape:transform-center-x="5.9315" />
    <path
       inkscape:connector-curvature="0"
       sodipodi:nodetypes="cccccccccccccc"
       id="path9518-0-7"
       d="m 14.999994,1025.9915 -11.2422196,9.9235 2.2484301,0 0,12.8177 6.7453475,0 0,-7.5644 4.651059,0 1.3e-5,7.5644 6.591159,0 0,-12.8177 2.248444,0 -11.242237,-9.9235 0,0 0,0 z"
       style="font-size:12px;fill:none;stroke:none" />
    <path
       style="color:#000000;fill:#1a1a1a;fill-opacity:1;fill-rule:nonzero;stroke:none;stroke-width:2;marker:none;visibility:visible;display:inline;overflow:visible;enable-background:accumulate"
       d="m 7.0725049,1025.5942 -3.84048,3.8405 19.6954601,19.6955 3.84049,-3.8406 -0.18165,-0.1816 -2.44783,2.4479 -0.25084,-0.2509 2.44783,-2.4478 -0.38924,-0.3893 -1.89425,1.8943 -0.25084,-0.2508 1.89425,-1.8943 -0.38059,-0.3806 -1.89425,1.8943 -0.25949,-0.2595 1.89425,-1.8943 -0.38059,-0.3806 -1.89425,1.8943 -0.25084,-0.2508 1.89425,-1.8943 -0.38924,-0.3892 -1.89425,1.8942 -0.25085,-0.2508 1.89426,-1.8943 -0.38924,-0.3892 -2.44784,2.4478 -0.25084,-0.2508 2.44784,-2.4479 -0.38059,-0.3805 -1.89426,1.8942 -0.25084,-0.2509 1.89425,-1.8942 -0.38923,-0.3892 -1.89426,1.8942 -0.25084,-0.2509 1.89425,-1.8942 -0.38923,-0.3892 -1.89426,1.8943 -0.25084,-0.2509 1.89425,-1.8942 -0.38059,-0.3807 -1.89425,1.8943 -0.25949,-0.2595 1.89425,-1.8942 -0.38059,-0.3807 -2.44783,2.4479 -0.25085,-0.2509 2.44784,-2.4478 -0.38924,-0.3892 -1.89425,1.8942 -0.25084,-0.2508 1.89425,-1.8943 -0.38059,-0.3806 -1.89425,1.8943 -0.25949,-0.2595 1.89425,-1.8942 -0.38059,-0.3806 -1.89425,1.8942 -0.25085,-0.2508 1.89426,-1.8943 -0.38924,-0.3892 -1.89425,1.8942 -0.25085,-0.2508 1.89426,-1.8943 -0.38059,-0.3805 -2.44784,2.4478 -0.25949,-0.2595 2.44784,-2.4479 -0.38059,-0.3805 -1.89426,1.8943 -0.25084,-0.2509 1.89425,-1.8942 -0.38923,-0.3893 -1.89426,1.8943 -0.25084,-0.2509 1.89425,-1.8942 -0.38924,-0.3893 -1.89425,1.8943 -0.25084,-0.2509 1.89425,-1.8942 -0.38059,-0.3806 -1.89425,1.8942 -0.25084,-0.2508 1.89425,-1.8942 -0.38924,-0.3893 -2.44783,2.4479 -0.25085,-0.2509 2.44784,-2.4478 -0.38924,-0.3893 -1.89425,1.8943 -0.25084,-0.2509 1.89425,-1.8942 -0.38059,-0.3806 -1.89425,1.8942 -0.25949,-0.2594 1.89425,-1.8943 -0.38059,-0.3806 -1.89425,1.8942 -0.2508499,-0.2508 1.8942599,-1.8943 -0.38924,-0.3892 -1.8942499,1.8943 -0.25085,-0.2509 1.8942599,-1.8942 -0.38059,-0.3806 -2.4478402,2.4478 -0.25949,-0.2595 2.4478302,-2.4478 -0.38058,-0.3806 -1.8942602,1.8943 -0.25084,-0.2509 1.8942503,-1.8942 -0.38923,-0.3893 -1.8942603,1.8943 -0.25084,-0.2508 1.8942503,-1.8943 -0.38924,-0.3893 -1.8942503,1.8943 -0.25084,-0.2508 1.8942503,-1.8943 -0.3805903,-0.3806 -1.89425,1.8943 -0.25084,-0.2508 1.89425,-1.8943 -0.38924,-0.3892 -2.44783,2.4478 -0.25085,-0.2508 2.44784,-2.4479 -0.1384,-0.1384 z"
       id="rect27658-0"
       inkscape:connector-curvature="0" />
  </g>
</svg>
