<?xml version="1.0" encoding="UTF-8" standalone="no"?>
<!-- Created with Inkscape (http://www.inkscape.org/) -->

<svg
   xmlns:dc="http://purl.org/dc/elements/1.1/"
   xmlns:cc="http://creativecommons.org/ns#"
   xmlns:rdf="http://www.w3.org/1999/02/22-rdf-syntax-ns#"
   xmlns:svg="http://www.w3.org/2000/svg"
   xmlns="http://www.w3.org/2000/svg"
   xmlns:sodipodi="http://sodipodi.sourceforge.net/DTD/sodipodi-0.dtd"
   xmlns:inkscape="http://www.inkscape.org/namespaces/inkscape"
   width="30"
   height="30"
   id="svg2"
   sodipodi:version="0.32"
   inkscape:version="0.48.4 r9939"
   sodipodi:docname="tree.svg"
   inkscape:output_extension="org.inkscape.output.svg.inkscape"
   version="1.1">
  <defs
     id="defs4" />
  <sodipodi:namedview
     id="base"
     pagecolor="#ffffff"
     bordercolor="#666666"
     borderopacity="1.0"
     inkscape:pageopacity="0.0"
     inkscape:pageshadow="2"
     inkscape:zoom="10.276087"
     inkscape:cx="15.344828"
     inkscape:cy="14.482759"
     inkscape:document-units="px"
     inkscape:current-layer="layer1"
     inkscape:window-width="656"
     inkscape:window-height="1029"
     inkscape:window-x="0"
     inkscape:window-y="19"
     showgrid="false"
     inkscape:window-maximized="0" />
  <metadata
     id="metadata7">
    <rdf:RDF>
      <cc:Work
         rdf:about="">
        <dc:format>image/svg+xml</dc:format>
        <dc:type
           rdf:resource="http://purl.org/dc/dcmitype/StillImage" />
        <dc:title></dc:title>
      </cc:Work>
    </rdf:RDF>
  </metadata>
  <g
     inkscape:label="Capa 1"
     inkscape:groupmode="layer"
     id="layer1"
     transform="translate(0,-1022.3622)">
    <path
       sodipodi:type="arc"
       style="color:#000000;fill:#1a1a1a;stroke:#d4d4d4;stroke-width:1.02777779;stroke-opacity:1;marker:none;visibility:visible;display:inline;overflow:visible;enable-background:accumulate"
       id="path16617-6-6"
       sodipodi:cx="15.16226"
       sodipodi:cy="16.56851"
       sodipodi:rx="14.008413"
       sodipodi:ry="14.008413"
       d="m 29.170673,16.56851 a 14.008413,14.008413 0 1 1 -28.0168263,0 14.008413,14.008413 0 1 1 28.0168263,0 z"
       transform="matrix(0.97297297,0,0,0.97297297,330.50795,953.63241)" />
    <path
       style="fill:#1a1a1a;stroke:#d4d4d4;stroke-width:1px;stroke-linecap:butt;stroke-linejoin:miter;stroke-opacity:1"
       d="m 345.29648,957.89011 0,11.863 0,0"
       id="path16623-6-2"
       inkscape:connector-curvature="0"
       inkscape:transform-center-y="-5.9314904" />
    <path
       style="fill:#1a1a1a;stroke:#d4d4d4;stroke-width:1px;stroke-linecap:butt;stroke-linejoin:miter;stroke-opacity:1"
       d="m 357.15947,969.75311 -1.70877,0 0,0"
       id="path16623-4-2-0"
       inkscape:connector-curvature="0"
       inkscape:transform-center-x="-0.854382" />
    <path
       style="fill:#1a1a1a;stroke:#d4d4d4;stroke-width:0.99999994px;stroke-linecap:butt;stroke-linejoin:miter;stroke-opacity:1"
       d="m 345.29648,981.61611 0,-2.0181 0,0"
       id="path16623-4-3-9-0"
       inkscape:connector-curvature="0"
       inkscape:transform-center-y="1.0091015" />
    <path
       style="fill:#1a1a1a;stroke:#d4d4d4;stroke-width:1px;stroke-linecap:butt;stroke-linejoin:miter;stroke-opacity:1"
       d="m 333.43348,969.75311 11.863,0 0,0"
       id="path16623-4-3-4-1-0"
       inkscape:connector-curvature="0"
       inkscape:transform-center-x="5.9315" />
    <path
       inkscape:connector-curvature="0"
       sodipodi:nodetypes="cccccccccccccc"
       id="path9518-0-7"
       d="m 14.999994,1025.9915 -11.2422196,9.9235 2.2484301,0 0,12.8177 6.7453475,0 0,-7.5644 4.651059,0 1.3e-5,7.5644 6.591159,0 0,-12.8177 2.248444,0 -11.242237,-9.9235 0,0 0,0 z"
       style="font-size:12px;fill:none;stroke:none" />
    <path
       inkscape:connector-curvature="0"
       style="font-size:40px;font-style:normal;font-variant:normal;font-weight:normal;font-stretch:normal;text-align:start;line-height:125%;writing-mode:lr-tb;text-anchor:start;fill:#1a1a1a;fill-opacity:1;stroke:none;font-family:NPSPICT3;-inkscape-font-specification:NPSPICT3"
       d="m 24.028785,1047.4987 c -0.3637,0 -0.86429,0.1113 -1.50179,0.3339 -0.63753,0.2226 -1.13844,0.3339 -1.50271,0.3339 -0.3637,0 -0.86939,-0.1113 -1.51707,-0.3339 -0.64772,-0.2226 -1.14353,-0.3339 -1.48743,-0.3339 -0.36369,0 -0.86938,0.1113 -1.51707,0.3339 -0.64772,0.2226 -1.15341,0.3339 -1.51707,0.3339 -0.34455,0 -0.84051,-0.1113 -1.48789,-0.3339 -0.64741,-0.2226 -1.15294,-0.3339 -1.51661,-0.3339 -0.3643,0 -0.86521,0.1113 -1.50271,0.3339 -0.6375302,0.2226 -1.1384302,0.3339 -1.5027202,0.3339 -0.36368,0 -0.86428,-0.1113 -1.5017801,-0.3339 -0.63753,-0.2226 -1.13843,-0.3339 -1.50272,-0.3339 -0.36368,0 -0.86937,0.1113 -1.51707,0.3339 -0.6477,0.2226 -1.1435099,0.3339 -1.4874299,0.3339 l 0,2.2154 c 0.34392,0 0.83973,-0.1113 1.4874299,-0.3339 0.6477,-0.2225 1.15339,-0.3339 1.51707,-0.3339 0.36429,0 0.86519,0.1114 1.50272,0.3339 0.6375001,0.2226 1.1381001,0.3339 1.5017801,0.3339 0.36429,0 0.86519,-0.1113 1.5027202,-0.3339 0.6375,-0.2225 1.13841,-0.3339 1.50271,-0.3339 0.36367,0 0.8692,0.1114 1.51661,0.3339 0.64738,0.2226 1.14334,0.3339 1.48789,0.3339 0.36366,0 0.86935,-0.1113 1.51707,-0.3339 0.64769,-0.2225 1.15338,-0.3339 1.51707,-0.3339 0.3439,0 0.83971,0.1114 1.48743,0.3339 0.64768,0.2226 1.15337,0.3339 1.51707,0.3339 0.36427,0 0.86518,-0.1113 1.50271,-0.3339 0.6375,-0.2225 1.13809,-0.3339 1.50179,-0.3339 0.36427,0 0.86518,0.1114 1.50272,0.3339 0.63748,0.2226 1.13808,0.3339 1.50178,0.3339 l 0,-2.2154 c -0.3637,0 -0.8643,-0.1113 -1.50178,-0.3339 -0.63754,-0.2226 -1.13845,-0.3339 -1.50272,-0.3339 l 0,0 z m -6.64621,-23.1561 -13.7175302,16.7526 13.7175302,0 0,-16.7526 z m 1.27442,3.8547 0,12.8979 8.22533,0 c 0.0401,-0.3643 0.0602,-0.7184 0.0602,-1.0623 -3e-5,-2.5692 -0.91046,-5.0072 -2.73128,-7.3141 -1.55785,-2.0029 -3.40926,-3.5101 -5.55425,-4.5215 l 0,0 z m -11.7447902,14.1121 0,3.3083 c 0.32416,0.1006 0.65819,0.2117 1.00212,0.3334 0.34391,0.1216 0.69771,0.1824 1.06139,0.1824 0.36429,0 0.87013,-0.1112 1.5175402,-0.3338 0.64738,-0.2228 1.14334,-0.3341 1.48789,-0.3341 0.36367,0 0.8692,0.1113 1.51661,0.3341 0.64738,0.2226 1.14334,0.3338 1.48789,0.3338 0.36366,0 0.86935,-0.1112 1.51707,-0.3338 0.64769,-0.2228 1.15338,-0.3341 1.51707,-0.3341 0.3439,0 0.83971,0.1113 1.48743,0.3341 0.64768,0.2226 1.15337,0.3338 1.51707,0.3338 -2e-5,0 0.10124,-0.01 0.30379,-0.031 -3e-5,0 -3e-5,0 0,0 -3e-5,0 0.005,0 0.0153,0 0.0102,0 0.0353,0 0.0755,0 0.0407,-0.021 0.0864,-0.031 0.13707,-0.031 0.0506,0 0.15681,-0.021 0.3186,-0.061 0.48529,-0.2223 1.07187,-0.5761 1.75973,-1.0614 l 2.12464,-2.6405 -18.8466702,0 z"
       id="flowRoot3192-70-7" />
  </g>
</svg>
