<?xml version="1.0" encoding="UTF-8" standalone="no"?>
<!-- Created with Inkscape (http://www.inkscape.org/) -->

<svg
   xmlns:dc="http://purl.org/dc/elements/1.1/"
   xmlns:cc="http://creativecommons.org/ns#"
   xmlns:rdf="http://www.w3.org/1999/02/22-rdf-syntax-ns#"
   xmlns:svg="http://www.w3.org/2000/svg"
   xmlns="http://www.w3.org/2000/svg"
   xmlns:sodipodi="http://sodipodi.sourceforge.net/DTD/sodipodi-0.dtd"
   xmlns:inkscape="http://www.inkscape.org/namespaces/inkscape"
   width="30"
   height="30"
   id="svg2"
   sodipodi:version="0.32"
   inkscape:version="0.48.4 r9939"
   sodipodi:docname="justice.svg"
   inkscape:output_extension="org.inkscape.output.svg.inkscape"
   version="1.1">
  <defs
     id="defs4" />
  <sodipodi:namedview
     id="base"
     pagecolor="#ffffff"
     bordercolor="#666666"
     borderopacity="1.0"
     inkscape:pageopacity="0.0"
     inkscape:pageshadow="2"
     inkscape:zoom="11.6"
     inkscape:cx="15"
     inkscape:cy="15"
     inkscape:document-units="px"
     inkscape:current-layer="layer1"
     inkscape:window-width="698"
     inkscape:window-height="1029"
     inkscape:window-x="0"
     inkscape:window-y="19"
     showgrid="false"
     inkscape:window-maximized="0" />
  <metadata
     id="metadata7">
    <rdf:RDF>
      <cc:Work
         rdf:about="">
        <dc:format>image/svg+xml</dc:format>
        <dc:type
           rdf:resource="http://purl.org/dc/dcmitype/StillImage" />
        <dc:title></dc:title>
      </cc:Work>
    </rdf:RDF>
  </metadata>
  <g
     inkscape:label="Capa 1"
     inkscape:groupmode="layer"
     id="layer1"
     transform="translate(0,-1022.3622)">
    <path
       sodipodi:type="arc"
       style="color:#000000;fill:#1a1a1a;stroke:#d4d4d4;stroke-width:1.02777779;stroke-opacity:1;marker:none;visibility:visible;display:inline;overflow:visible;enable-background:accumulate"
       id="path16617-6-6"
       sodipodi:cx="15.16226"
       sodipodi:cy="16.56851"
       sodipodi:rx="14.008413"
       sodipodi:ry="14.008413"
       d="m 29.170673,16.56851 a 14.008413,14.008413 0 1 1 -28.0168263,0 14.008413,14.008413 0 1 1 28.0168263,0 z"
       transform="matrix(0.97297297,0,0,0.97297297,330.50795,953.63241)" />
    <path
       style="fill:#1a1a1a;stroke:#d4d4d4;stroke-width:1px;stroke-linecap:butt;stroke-linejoin:miter;stroke-opacity:1"
       d="m 345.29648,957.89011 0,11.863 0,0"
       id="path16623-6-2"
       inkscape:connector-curvature="0"
       inkscape:transform-center-y="-5.9314904" />
    <path
       style="fill:#1a1a1a;stroke:#d4d4d4;stroke-width:1px;stroke-linecap:butt;stroke-linejoin:miter;stroke-opacity:1"
       d="m 357.15947,969.75311 -1.70877,0 0,0"
       id="path16623-4-2-0"
       inkscape:connector-curvature="0"
       inkscape:transform-center-x="-0.854382" />
    <path
       style="fill:#1a1a1a;stroke:#d4d4d4;stroke-width:0.99999994px;stroke-linecap:butt;stroke-linejoin:miter;stroke-opacity:1"
       d="m 345.29648,981.61611 0,-2.0181 0,0"
       id="path16623-4-3-9-0"
       inkscape:connector-curvature="0"
       inkscape:transform-center-y="1.0091015" />
    <path
       style="fill:#1a1a1a;stroke:#d4d4d4;stroke-width:1px;stroke-linecap:butt;stroke-linejoin:miter;stroke-opacity:1"
       d="m 333.43348,969.75311 11.863,0 0,0"
       id="path16623-4-3-4-1-0"
       inkscape:connector-curvature="0"
       inkscape:transform-center-x="5.9315" />
    <path
       inkscape:connector-curvature="0"
       sodipodi:nodetypes="cccccccccccccc"
       id="path9518-0-7"
       d="m 14.999994,1025.9915 -11.2422196,9.9235 2.2484301,0 0,12.8177 6.7453475,0 0,-7.5644 4.651059,0 1.3e-5,7.5644 6.591159,0 0,-12.8177 2.248444,0 -11.242237,-9.9235 0,0 0,0 z"
       style="font-size:12px;fill:none;stroke:none" />
    <path
       style="fill:#1a1a1a;fill-opacity:1;stroke:none"
       d="m 15.02771,1025.0859 c -1.043066,0 -2.0864,1.8843 -3.564032,5.6469 l -7.246593,0 0,13.4988 2.364729,0 c -0.743526,2.1522 -1.319692,3.9336 -1.704268,5.4069 l 1.300909,0 c 0.247137,-1.356 0.78367,-3.1207 1.564165,-5.4069 l 14.570181,0 c 0.780471,2.2862 1.316965,4.0509 1.564166,5.4069 l 1.302453,0 c -0.384631,-1.4734 -0.960757,-3.2547 -1.704268,-5.4069 l 2.307763,0 0,-13.4988 -7.19118,0 c -1.47738,-3.7626 -2.520975,-5.6469 -3.564025,-5.6469 z m 0,2.5172 c 0.71202,0 1.424859,1.0444 2.332395,3.13 l -4.664798,0 c 0.907757,-2.0856 1.620368,-3.13 2.332403,-3.13 z m -7.363607,4.4047 c 0.604046,0 1.090006,0.036 1.456405,0.1025 0.366383,0.068 0.671756,0.2089 0.916024,0.4232 0.171632,0.1483 0.30587,0.3575 0.404897,0.6298 0.09902,0.2721 0.149325,0.5328 0.149341,0.7803 l 0,2.3217 c -8e-6,0.2477 0.01632,0.4418 0.04777,0.5821 0.03129,0.1403 0.09913,0.3194 0.204761,0.5371 l -1.890553,0 c -0.07591,-0.1356 -0.126229,-0.2384 -0.14934,-0.3093 -0.0231,-0.071 -0.04619,-0.1822 -0.06929,-0.3341 -0.264069,0.2542 -0.527477,0.4361 -0.788243,0.5448 -0.356491,0.1451 -0.770389,0.2171 -1.242405,0.2171 -0.627157,0 -1.102018,-0.145 -1.427145,-0.4356 -0.325134,-0.2905 -0.488033,-0.6488 -0.488033,-1.0745 0,-0.3995 0.116652,-0.7279 0.351013,-0.9853 0.234352,-0.2576 0.667366,-0.449 1.297826,-0.5743 0.755885,-0.1513 1.244257,-0.2576 1.468717,-0.3188 0.224452,-0.06 0.463479,-0.1419 0.714345,-0.2401 0,-0.2475 -0.05005,-0.4212 -0.152415,-0.5202 -0.102329,-0.099 -0.282916,-0.1482 -0.54038,-0.1482 -0.330076,0 -0.578554,0.054 -0.743589,0.1586 -0.128735,0.082 -0.233312,0.2371 -0.312529,0.4649 l -1.925962,-0.2032 c 0.0726,-0.3369 0.177087,-0.6013 0.314068,-0.7944 0.136988,-0.1931 0.335255,-0.3615 0.592727,-0.5035 0.184843,-0.1025 0.438586,-0.1794 0.762065,-0.2356 0.323479,-0.055 0.673672,-0.087 1.049963,-0.087 z m 13.841979,0 c 0.858207,0 1.512339,0.1545 1.962906,0.4618 0.45056,0.3071 0.766811,0.7546 0.948359,1.3455 l -1.89671,0.2525 c -0.05943,-0.2244 -0.166516,-0.3925 -0.323305,-0.5065 -0.156798,-0.1135 -0.368685,-0.1709 -0.632747,-0.1709 -0.333387,0 -0.601957,0.1197 -0.808256,0.3588 -0.206307,0.2393 -0.309449,0.6015 -0.309449,1.0869 0,0.4323 0.101715,0.7593 0.306367,0.9837 0.204651,0.2245 0.466742,0.3388 0.783624,0.3388 0.264061,0 0.485179,-0.068 0.66508,-0.2032 0.179893,-0.1356 0.314233,-0.3445 0.403359,-0.6251 l 1.915187,0.2187 c -0.105625,0.3993 -0.277872,0.7455 -0.51883,1.0376 -0.240966,0.292 -0.549082,0.5187 -0.923718,0.6804 -0.374652,0.1616 -0.849513,0.2417 -1.427154,0.2417 -0.557839,0 -1.023478,-0.052 -1.394819,-0.1561 -0.371341,-0.104 -0.691762,-0.2721 -0.959134,-0.5048 -0.267364,-0.2327 -0.476296,-0.5054 -0.628127,-0.8191 -0.151848,-0.3136 -0.22785,-0.7302 -0.22785,-1.2484 0,-0.5414 0.09227,-0.9905 0.277115,-1.3503 0.135325,-0.2642 0.319877,-0.5018 0.554229,-0.7113 0.234361,-0.2097 0.47602,-0.3656 0.723584,-0.4679 0.392797,-0.1618 0.896326,-0.2433 1.510289,-0.2433 z m -12.885927,2.8818 c -0.277273,0.099 -0.566384,0.1857 -0.86676,0.2619 -0.409303,0.1088 -0.668541,0.2177 -0.777468,0.3233 -0.11223,0.1088 -0.167808,0.2324 -0.1678,0.371 -8e-6,0.1584 0.05573,0.2872 0.166263,0.3879 0.110575,0.1009 0.271936,0.153 0.486496,0.153 0.224452,0 0.433486,-0.055 0.62659,-0.1648 0.193096,-0.1088 0.330179,-0.242 0.411053,-0.3987 0.08087,-0.1576 0.121626,-0.3604 0.121626,-0.6112 l 0,-0.3219 z m 3.833446,1.0317 2.035267,0 0,2.5154 c 0.201348,-0.2112 0.429276,-0.37 0.6851,-0.4756 0.255809,-0.1056 0.538,-0.1586 0.848284,-0.1586 0.640353,0 1.169587,0.2308 1.588798,0.6913 0.419196,0.4605 0.629664,1.1215 0.629672,1.9829 -8e-6,0.5743 -0.09645,1.0805 -0.287898,1.518 -0.191448,0.4375 -0.456069,0.7629 -0.794399,0.979 -0.338337,0.2163 -0.714337,0.3263 -1.126943,0.3263 -0.353188,0 -0.676131,-0.077 -0.969901,-0.2292 -0.221157,-0.1182 -0.461287,-0.3415 -0.722046,-0.6681 l 0,0.7774 -1.885934,0 0,-7.259 z m 2.949754,3.3869 c -0.27397,0 -0.496404,0.1009 -0.669698,0.3033 -0.173296,0.2029 -0.261721,0.5127 -0.261721,0.9253 0,0.4523 0.08712,0.7792 0.257101,0.9823 0.169993,0.2029 0.382763,0.3047 0.643529,0.3047 0.240958,0 0.443182,-0.1009 0.606577,-0.3002 0.163387,-0.1997 0.246318,-0.5363 0.246326,-1.0084 0,-0.4159 -0.07851,-0.7197 -0.238625,-0.9144 -0.1601,-0.1949 -0.355734,-0.2926 -0.583489,-0.2926 z"
       id="rect3530-7"
       inkscape:connector-curvature="0" />
  </g>
</svg>
