<?xml version="1.0" encoding="UTF-8" standalone="no"?>
<!-- Created with Inkscape (http://www.inkscape.org/) -->

<svg
   xmlns:dc="http://purl.org/dc/elements/1.1/"
   xmlns:cc="http://creativecommons.org/ns#"
   xmlns:rdf="http://www.w3.org/1999/02/22-rdf-syntax-ns#"
   xmlns:svg="http://www.w3.org/2000/svg"
   xmlns="http://www.w3.org/2000/svg"
   xmlns:sodipodi="http://sodipodi.sourceforge.net/DTD/sodipodi-0.dtd"
   xmlns:inkscape="http://www.inkscape.org/namespaces/inkscape"
   width="30"
   height="30"
   id="svg2"
   sodipodi:version="0.32"
   inkscape:version="0.48.4 r9939"
   sodipodi:docname="washing_machine.svg"
   inkscape:output_extension="org.inkscape.output.svg.inkscape"
   version="1.1">
  <defs
     id="defs4" />
  <sodipodi:namedview
     id="base"
     pagecolor="#ffffff"
     bordercolor="#666666"
     borderopacity="1.0"
     inkscape:pageopacity="0.0"
     inkscape:pageshadow="2"
     inkscape:zoom="10.276087"
     inkscape:cx="15.344828"
     inkscape:cy="14.482759"
     inkscape:document-units="px"
     inkscape:current-layer="layer1"
     inkscape:window-width="656"
     inkscape:window-height="1029"
     inkscape:window-x="0"
     inkscape:window-y="19"
     showgrid="false"
     inkscape:window-maximized="0" />
  <metadata
     id="metadata7">
    <rdf:RDF>
      <cc:Work
         rdf:about="">
        <dc:format>image/svg+xml</dc:format>
        <dc:type
           rdf:resource="http://purl.org/dc/dcmitype/StillImage" />
        <dc:title></dc:title>
      </cc:Work>
    </rdf:RDF>
  </metadata>
  <g
     inkscape:label="Capa 1"
     inkscape:groupmode="layer"
     id="layer1"
     transform="translate(0,-1022.3622)">
    <path
       sodipodi:type="arc"
       style="color:#000000;fill:#1a1a1a;stroke:#d4d4d4;stroke-width:1.02777779;stroke-opacity:1;marker:none;visibility:visible;display:inline;overflow:visible;enable-background:accumulate"
       id="path16617-6-6"
       sodipodi:cx="15.16226"
       sodipodi:cy="16.56851"
       sodipodi:rx="14.008413"
       sodipodi:ry="14.008413"
       d="m 29.170673,16.56851 a 14.008413,14.008413 0 1 1 -28.0168263,0 14.008413,14.008413 0 1 1 28.0168263,0 z"
       transform="matrix(0.97297297,0,0,0.97297297,330.50795,953.63241)" />
    <path
       style="fill:#1a1a1a;stroke:#d4d4d4;stroke-width:1px;stroke-linecap:butt;stroke-linejoin:miter;stroke-opacity:1"
       d="m 345.29648,957.89011 0,11.863 0,0"
       id="path16623-6-2"
       inkscape:connector-curvature="0"
       inkscape:transform-center-y="-5.9314904" />
    <path
       style="fill:#1a1a1a;stroke:#d4d4d4;stroke-width:1px;stroke-linecap:butt;stroke-linejoin:miter;stroke-opacity:1"
       d="m 357.15947,969.75311 -1.70877,0 0,0"
       id="path16623-4-2-0"
       inkscape:connector-curvature="0"
       inkscape:transform-center-x="-0.854382" />
    <path
       style="fill:#1a1a1a;stroke:#d4d4d4;stroke-width:0.99999994px;stroke-linecap:butt;stroke-linejoin:miter;stroke-opacity:1"
       d="m 345.29648,981.61611 0,-2.0181 0,0"
       id="path16623-4-3-9-0"
       inkscape:connector-curvature="0"
       inkscape:transform-center-y="1.0091015" />
    <path
       style="fill:#1a1a1a;stroke:#d4d4d4;stroke-width:1px;stroke-linecap:butt;stroke-linejoin:miter;stroke-opacity:1"
       d="m 333.43348,969.75311 11.863,0 0,0"
       id="path16623-4-3-4-1-0"
       inkscape:connector-curvature="0"
       inkscape:transform-center-x="5.9315" />
    <path
       inkscape:connector-curvature="0"
       sodipodi:nodetypes="cccccccccccccc"
       id="path9518-0-7"
       d="m 14.999994,1025.9915 -11.2422196,9.9235 2.2484301,0 0,12.8177 6.7453475,0 0,-7.5644 4.651059,0 1.3e-5,7.5644 6.591159,0 0,-12.8177 2.248444,0 -11.242237,-9.9235 0,0 0,0 z"
       style="font-size:12px;fill:none;stroke:none" />
    <path
       style="fill:#1a1a1a;fill-opacity:1;stroke:none"
       d="m 17.648429,1025.8503 c -0.279289,0 -0.539719,0.1768 -0.648545,0.454 l -3.286824,8.3704 c -0.01204,0.03 -0.0218,0.062 -0.02941,0.094 l -11.2292168,0 c -0.822718,0.1185 -0.978885,0.6084 -0.819409,1.2731 l 2.9138642,12.1479 c 0.153978,0.4021 0.491452,0.7911 1.230952,0.6577 l 18.7582276,0 c 0.793387,0.041 1.001348,-0.5023 1.148276,-1.1079 l 2.709931,-11.6573 c 0.158465,-1.0989 -0.484321,-1.1681 -1.067437,-1.3135 l -10.696416,0 2.926725,-7.4593 c 0.145108,-0.3695 -0.0364,-0.7827 -0.406031,-0.9277 l -1.225439,-0.4815 c -0.09241,-0.036 -0.186158,-0.051 -0.279262,-0.049 z m -13.7094907,9.9028 2.6217441,0 0,3.9813 -2.6364411,0 -0.714687,-2.8864 c -0.141399,-0.5717 -7.7e-5,-0.9924 0.729384,-1.0949 z m 3.6873431,0 4.0639776,0 0,3.9813 -4.0639776,0 0,-3.9813 z m 5.1314146,0 4.26791,0 0,3.9813 -4.26791,0 0,-3.9813 z m 5.335346,0 4.146653,0 0,3.9813 -4.146653,0 0,-3.9813 z m 5.21409,0 2.684208,0 c 0.517021,0.1241 1.086681,0.1844 0.946179,1.1299 l -0.683453,2.8514 -2.946934,0 0,-3.9813 z m -19.1201656,5.0487 2.373716,0 0,3.5716 -1.490003,0 -0.883713,-3.5716 z m 3.439315,0 4.0639776,0 0,3.5716 -4.0639776,0 0,-3.5716 z m 5.1314146,0 4.26791,0 0,3.5716 -4.26791,0 0,-3.5716 z m 5.335346,0 4.146653,0 0,3.5716 -4.146653,0 0,-3.5716 z m 5.21409,0 2.691558,0 -0.854318,3.5716 -1.83724,0 0,-3.5716 z m -17.9718906,4.639 1.225441,0 0,2.4454 c -0.434338,-0.028 -0.654595,-0.3035 -0.76613,-0.5861 l -0.459311,-1.8593 z m 2.29104,0 4.0639776,0 0,2.4253 -4.0639776,0 0,-2.4253 z m 5.1314146,0 4.26791,0 0,2.4253 -4.26791,0 0,-2.4253 z m 5.335346,0 4.146653,0 0,2.4253 -4.146653,0 0,-2.4253 z m 5.21409,0 1.581864,0 -0.35275,1.4718 c -0.130283,0.5209 -0.316213,0.9886 -1.019668,0.9535 l -0.209446,0 0,-2.4253 z"
       id="path17529-1"
       inkscape:connector-curvature="0" />
  </g>
</svg>
