<?xml version="1.0" encoding="UTF-8" standalone="no"?>
<!-- Created with Inkscape (http://www.inkscape.org/) -->

<svg
   xmlns:dc="http://purl.org/dc/elements/1.1/"
   xmlns:cc="http://creativecommons.org/ns#"
   xmlns:rdf="http://www.w3.org/1999/02/22-rdf-syntax-ns#"
   xmlns:svg="http://www.w3.org/2000/svg"
   xmlns="http://www.w3.org/2000/svg"
   xmlns:sodipodi="http://sodipodi.sourceforge.net/DTD/sodipodi-0.dtd"
   xmlns:inkscape="http://www.inkscape.org/namespaces/inkscape"
   width="30"
   height="30"
   id="svg2"
   sodipodi:version="0.32"
   inkscape:version="0.48.4 r9939"
   sodipodi:docname="sun.svg"
   inkscape:output_extension="org.inkscape.output.svg.inkscape"
   version="1.1">
  <defs
     id="defs4" />
  <sodipodi:namedview
     id="base"
     pagecolor="#ffffff"
     bordercolor="#666666"
     borderopacity="1.0"
     inkscape:pageopacity="0.0"
     inkscape:pageshadow="2"
     inkscape:zoom="10.276087"
     inkscape:cx="15.344828"
     inkscape:cy="14.482759"
     inkscape:document-units="px"
     inkscape:current-layer="layer1"
     inkscape:window-width="656"
     inkscape:window-height="1029"
     inkscape:window-x="0"
     inkscape:window-y="19"
     showgrid="false"
     inkscape:window-maximized="0" />
  <metadata
     id="metadata7">
    <rdf:RDF>
      <cc:Work
         rdf:about="">
        <dc:format>image/svg+xml</dc:format>
        <dc:type
           rdf:resource="http://purl.org/dc/dcmitype/StillImage" />
        <dc:title></dc:title>
      </cc:Work>
    </rdf:RDF>
  </metadata>
  <g
     inkscape:label="Capa 1"
     inkscape:groupmode="layer"
     id="layer1"
     transform="translate(0,-1022.3622)">
    <path
       sodipodi:type="arc"
       style="color:#000000;fill:#1a1a1a;stroke:#d4d4d4;stroke-width:1.02777779;stroke-opacity:1;marker:none;visibility:visible;display:inline;overflow:visible;enable-background:accumulate"
       id="path16617-6-6"
       sodipodi:cx="15.16226"
       sodipodi:cy="16.56851"
       sodipodi:rx="14.008413"
       sodipodi:ry="14.008413"
       d="m 29.170673,16.56851 a 14.008413,14.008413 0 1 1 -28.0168263,0 14.008413,14.008413 0 1 1 28.0168263,0 z"
       transform="matrix(0.97297297,0,0,0.97297297,330.50795,953.63241)" />
    <path
       style="fill:#1a1a1a;stroke:#d4d4d4;stroke-width:1px;stroke-linecap:butt;stroke-linejoin:miter;stroke-opacity:1"
       d="m 345.29648,957.89011 0,11.863 0,0"
       id="path16623-6-2"
       inkscape:connector-curvature="0"
       inkscape:transform-center-y="-5.9314904" />
    <path
       style="fill:#1a1a1a;stroke:#d4d4d4;stroke-width:1px;stroke-linecap:butt;stroke-linejoin:miter;stroke-opacity:1"
       d="m 357.15947,969.75311 -1.70877,0 0,0"
       id="path16623-4-2-0"
       inkscape:connector-curvature="0"
       inkscape:transform-center-x="-0.854382" />
    <path
       style="fill:#1a1a1a;stroke:#d4d4d4;stroke-width:0.99999994px;stroke-linecap:butt;stroke-linejoin:miter;stroke-opacity:1"
       d="m 345.29648,981.61611 0,-2.0181 0,0"
       id="path16623-4-3-9-0"
       inkscape:connector-curvature="0"
       inkscape:transform-center-y="1.0091015" />
    <path
       style="fill:#1a1a1a;stroke:#d4d4d4;stroke-width:1px;stroke-linecap:butt;stroke-linejoin:miter;stroke-opacity:1"
       d="m 333.43348,969.75311 11.863,0 0,0"
       id="path16623-4-3-4-1-0"
       inkscape:connector-curvature="0"
       inkscape:transform-center-x="5.9315" />
    <path
       inkscape:connector-curvature="0"
       sodipodi:nodetypes="cccccccccccccc"
       id="path9518-0-7"
       d="m 14.999994,1025.9915 -11.2422196,9.9235 2.2484301,0 0,12.8177 6.7453475,0 0,-7.5644 4.651059,0 1.3e-5,7.5644 6.591159,0 0,-12.8177 2.248444,0 -11.242237,-9.9235 0,0 0,0 z"
       style="font-size:12px;fill:none;stroke:none" />
    <path
       id="path1074-64-9"
       style="fill:#1a1a1a;fill-opacity:1;fill-rule:evenodd;stroke:none"
       d="m 26.405605,1045.7434 -0.0798,0.1332 -0.0419,-0.093 -0.0897,0.041 0.0707,0.1547 -0.1275,0.2138 -0.0469,-0.1135 0.0535,-0.057 -0.0724,-0.067 -0.023,0.025 -0.0156,-0.038 -0.0913,0.037 0.0123,0.03 -0.0214,0 -0.0165,0.098 0.0831,0.014 0.0748,0.1826 -0.0814,0.1366 -0.0115,-0.029 -0.0921,0.035 0.0395,0.1013 -0.0872,0.1455 -0.065,-0.1135 0.065,-0.1102 -0.0847,-0.05 -0.037,0.062 -0.0765,-0.1333 0.12832,-0.2113 0.10364,-0.01 -0.006,-0.099 -0.0362,0 0.0362,-0.059 -0.0847,-0.051 -0.0395,0.065 -0.0181,-0.031 -0.0855,0.05 0.0444,0.079 -0.0995,0.1645 -0.14642,-0.255 0.0691,-0.1588 -0.0897,-0.04 -0.0403,0.093 -0.0699,-0.1209 c -0.0285,0.016 -0.057,0.033 -0.0855,0.05 l 0.0773,0.134 -0.102,-0.01 -0.007,0.098 0.16945,0.014 0.12421,0.2156 -0.12174,-0.014 -0.0247,-0.076 -0.0938,0.03 0.0107,0.033 -0.0411,-0.01 -0.0115,0.098 0.0329,0 -0.014,0.018 0.0765,0.062 0.0526,-0.066 0.19577,0.023 0.079,0.1373 -0.0304,-0.01 -0.0132,0.098 0.10611,0.014 0.0897,0.1562 -0.13984,0 -0.0625,-0.1118 -0.0864,0.048 0.0345,0.062 -0.153,0 -0.11762,-0.2171 0.0477,-0.093 -0.088,-0.046 -0.0165,0.032 -0.0329,-0.061 -0.0872,0.047 0.037,0.067 -0.037,0 -8.5e-4,0.099 0.0913,0.01 0.0913,0.1695 -0.29448,-0.01 -0.102,-0.1398 -0.0798,0.057 0.0592,0.082 -0.13902,0 -8.4e-4,0.099 0.15547,0 -0.0592,0.084 0.0806,0.056 0.0979,-0.1389 0.24924,0 -0.074,0.098 -0.0773,-0.017 -0.0214,0.096 0.0329,0.01 -0.0247,0.033 0.0781,0.06 0.0197,-0.027 0.008,0.02 0.093,-0.035 -0.0304,-0.078 0.11927,-0.1571 0.15876,0.01 -0.0189,0.024 0.0773,0.062 0.0666,-0.085 0.12832,0.01 -0.0757,0.1349 -0.12832,0 0,0.099 0.0724,0 -0.0757,0.1341 -0.24759,-0.01 -0.0576,-0.086 -0.0823,0.054 0.0197,0.03 -0.0691,0 -8.5e-4,0.099 0.0765,0.01 -0.0181,0.032 0.0855,0.049 0.0452,-0.08 0.19331,0 -0.14477,0.2566 -0.17274,0.02 0.0123,0.098 0.10036,-0.013 -0.0683,0.1218 0.0855,0.049 0.0765,-0.1349 0.0436,0.091 0.0888,-0.043 -0.074,-0.1529 0.12174,-0.2164 0.0502,0.1119 -0.0526,0.059 0.074,0.065 0.0222,-0.026 0.0173,0.039 0.0905,-0.041 -0.0132,-0.03 0.0214,0.01 0.014,-0.098 -0.0831,-0.013 -0.0798,-0.1793 0.0781,-0.139 0.0123,0.029 0.0913,-0.038 -0.0419,-0.1 0.0798,-0.1407 0.0765,0.1325 -0.0576,0.1012 0.0855,0.049 0.0296,-0.051 0.0773,0.1341 -0.11763,0.1999 -0.10364,0.01 0.007,0.098 0.037,-0.01 -0.0362,0.061 0.0855,0.05 0.0387,-0.066 0.0189,0.031 0.0847,-0.05 -0.0461,-0.079 0.0888,-0.1505 0.14971,0.2591 -0.0584,0.1381 0.0913,0.039 0.0296,-0.07 0.0502,0.087 0.0855,-0.05 -0.0724,-0.1259 0.12421,0.01 0.007,-0.099 -0.18591,-0.013 c -0.002,0 -0.003,0 -0.005,0 l -0.12503,-0.2155 0.14066,0.014 0.0247,0.076 0.0938,-0.032 -0.0107,-0.032 0.0411,0 0.0107,-0.098 -0.0337,-0.01 0.014,-0.018 -0.0781,-0.061 -0.0518,0.067 -0.2114,-0.022 -0.079,-0.1365 0.0444,0.01 0.0123,-0.098 -0.11927,-0.015 -0.074,-0.1284 0.14642,-0.01 0.0658,0.1094 0.0847,-0.051 -0.037,-0.062 0.15382,-0.01 0.12421,0.2139 -0.0452,0.094 0.0888,0.043 0.0156,-0.034 0.0354,0.061 0.0855,-0.05 -0.0387,-0.066 0.0362,0 -0.002,-0.099 -0.0913,0 -0.0962,-0.1661 0.29366,-0.01 0.10611,0.1374 0.0781,-0.06 -0.0617,-0.081 0.13901,-0.01 -0.002,-0.099 -0.15382,0 0.0559,-0.084 -0.0831,-0.054 -0.0929,0.1416 -0.25006,0.01 0.0716,-0.1 0.0781,0.014 0.0181,-0.097 -0.0337,-0.01 0.0247,-0.034 -0.0806,-0.057 -0.0197,0.027 -0.008,-0.02 -0.0913,0.038 0.0329,0.078 -0.11434,0.1613 -0.15958,0.01 0.0189,-0.025 -0.079,-0.059 -0.065,0.087 -0.1711,0.01 0.10283,-0.1719 0.1275,0.01 0.002,-0.099 -0.0716,0 0.079,-0.1316 0.24677,0.01 0.0551,0.087 0.0839,-0.053 -0.0189,-0.03 0.0691,0.01 0.003,-0.099 -0.0773,0 0.0189,-0.031 -0.0839,-0.052 -0.0469,0.079 -0.19248,-0.01 0.15053,-0.2526 0.17274,-0.016 -0.009,-0.099 -0.10118,0.01 0.0716,-0.1193 -0.0847,-0.051 z m -3.57694,-4.8317 -0.0798,0.1332 -0.0419,-0.093 -0.0897,0.041 0.0707,0.1547 -0.1275,0.2138 -0.0469,-0.1135 0.0535,-0.057 -0.0724,-0.067 -0.023,0.025 -0.0156,-0.038 -0.0913,0.037 0.0123,0.03 -0.0214,0 -0.0165,0.098 0.0831,0.014 0.0748,0.1826 -0.0814,0.1366 -0.0115,-0.029 -0.0921,0.035 0.0395,0.1013 -0.0872,0.1455 -0.065,-0.1135 0.065,-0.1102 -0.0847,-0.05 -0.037,0.062 -0.0765,-0.1333 0.12833,-0.2113 0.10364,-0.01 -0.006,-0.099 -0.0362,0 0.0362,-0.059 -0.0847,-0.051 -0.0395,0.065 -0.0181,-0.031 -0.0855,0.05 0.0444,0.079 -0.0995,0.1645 -0.14642,-0.255 0.0691,-0.1588 -0.0897,-0.04 -0.0403,0.093 -0.0699,-0.1209 c -0.0285,0.016 -0.057,0.033 -0.0855,0.05 l 0.0773,0.134 -0.102,-0.01 -0.007,0.098 0.16945,0.014 0.12421,0.2156 -0.12174,-0.014 -0.0247,-0.076 -0.0938,0.03 0.0107,0.033 -0.0411,-0.01 -0.0115,0.098 0.0329,0 -0.014,0.018 0.0765,0.062 0.0526,-0.066 0.19577,0.023 0.079,0.1373 -0.0305,-0.01 -0.0132,0.098 0.10612,0.014 0.0897,0.1562 -0.13984,0 -0.0625,-0.1118 -0.0864,0.048 0.0346,0.062 -0.153,0 -0.11763,-0.2171 0.0477,-0.093 -0.088,-0.046 -0.0165,0.032 -0.0329,-0.061 -0.0872,0.047 0.037,0.067 -0.037,0 -8.4e-4,0.099 0.0913,0.01 0.0913,0.1695 -0.29448,-0.01 -0.102,-0.1398 -0.0798,0.057 0.0592,0.082 -0.13902,0 -8.4e-4,0.099 0.15547,0 -0.0592,0.084 0.0806,0.056 0.0979,-0.1389 0.24924,0 -0.074,0.098 -0.0773,-0.017 -0.0214,0.096 0.0329,0.01 -0.0247,0.033 0.0781,0.06 0.0197,-0.027 0.008,0.02 0.093,-0.035 -0.0304,-0.078 0.11927,-0.1571 0.15876,0.01 -0.0189,0.024 0.0773,0.062 0.0666,-0.085 0.12832,0.01 -0.0757,0.1349 -0.12832,0 0,0.099 0.0724,0 -0.0757,0.1341 -0.2476,-0.01 -0.0576,-0.086 -0.0823,0.054 0.0197,0.03 -0.0691,0 -8.4e-4,0.099 0.0765,0.01 -0.0181,0.032 0.0855,0.049 0.0452,-0.08 0.19331,0 -0.14478,0.2567 -0.17274,0.02 0.0123,0.098 0.10036,-0.013 -0.0683,0.1217 0.0855,0.049 0.0765,-0.1349 0.0436,0.091 0.0888,-0.043 -0.074,-0.1529 0.12175,-0.2164 0.0502,0.1119 -0.0526,0.059 0.074,0.065 0.0222,-0.026 0.0173,0.039 0.0905,-0.041 -0.0132,-0.03 0.0214,0.01 0.014,-0.098 -0.0831,-0.013 -0.0798,-0.1793 0.0781,-0.139 0.0123,0.029 0.0913,-0.038 -0.0419,-0.1 0.0798,-0.1407 0.0765,0.1325 -0.0576,0.1012 0.0855,0.049 0.0296,-0.051 0.0773,0.1341 -0.11763,0.1999 -0.10365,0.01 0.007,0.098 0.037,-0.01 -0.0362,0.061 0.0856,0.05 0.0387,-0.066 0.0189,0.031 0.0847,-0.05 -0.0461,-0.079 0.0888,-0.1505 0.14971,0.2591 -0.0584,0.1381 0.0913,0.039 0.0296,-0.07 0.0502,0.087 0.0856,-0.05 -0.0724,-0.1259 0.12421,0.01 0.007,-0.099 -0.1859,-0.013 c -0.002,0 -0.003,0 -0.005,0 l -0.12503,-0.2155 0.14066,0.014 0.0247,0.076 0.0938,-0.032 -0.0107,-0.032 0.0411,0 0.0107,-0.098 -0.0337,-0.01 0.014,-0.018 -0.0781,-0.061 -0.0518,0.067 -0.2114,-0.022 -0.079,-0.1365 0.0444,0.01 0.0123,-0.098 -0.11928,-0.015 -0.074,-0.1284 0.14642,-0.01 0.0658,0.1094 0.0847,-0.051 -0.037,-0.062 0.15382,-0.01 0.12421,0.2139 -0.0452,0.094 0.0888,0.043 0.0156,-0.034 0.0354,0.061 0.0855,-0.05 -0.0387,-0.066 0.0362,0 -0.002,-0.099 -0.0913,0 -0.0962,-0.1661 0.29366,-0.01 0.10612,0.1374 0.0781,-0.06 -0.0617,-0.081 0.13901,-0.01 -0.002,-0.099 -0.15382,0 0.0559,-0.084 -0.0831,-0.054 -0.0929,0.1416 -0.25006,0.01 0.0716,-0.1 0.0781,0.014 0.0181,-0.097 -0.0337,-0.01 0.0247,-0.034 -0.0806,-0.057 -0.0197,0.027 -0.008,-0.02 -0.0913,0.038 0.0329,0.078 -0.11434,0.1613 -0.15958,0.01 0.0189,-0.025 -0.079,-0.059 -0.065,0.087 -0.1711,0.01 0.10282,-0.1719 0.1275,0.01 0.003,-0.099 -0.0716,0 0.079,-0.1316 0.24678,0.01 0.0551,0.087 0.0839,-0.053 -0.0189,-0.03 0.0691,0.01 0.003,-0.099 -0.0773,0 0.0189,-0.031 -0.0839,-0.052 -0.0469,0.079 -0.19249,-0.01 0.15053,-0.2526 0.17275,-0.016 -0.009,-0.099 -0.10118,0.01 0.0716,-0.1193 -0.0847,-0.051 z m -3.57697,4.8317 -0.0798,0.1332 -0.0419,-0.093 -0.0897,0.041 0.0707,0.1547 -0.1275,0.2138 -0.0469,-0.1135 0.0535,-0.057 -0.0724,-0.067 -0.023,0.025 -0.0156,-0.038 -0.0913,0.037 0.0123,0.03 -0.0214,0 -0.0165,0.098 0.0831,0.014 0.0748,0.1826 -0.0814,0.1366 -0.0115,-0.029 -0.0921,0.035 0.0395,0.1013 -0.0872,0.1455 -0.065,-0.1135 0.065,-0.1102 -0.0847,-0.05 -0.037,0.062 -0.0765,-0.1333 0.12832,-0.2113 0.10365,-0.01 -0.006,-0.099 -0.0362,0 0.0362,-0.059 -0.0847,-0.051 -0.0395,0.065 -0.0181,-0.031 -0.0855,0.05 0.0444,0.079 -0.0995,0.1645 -0.14642,-0.255 0.0691,-0.1588 -0.0897,-0.04 -0.0403,0.093 -0.0699,-0.1209 c -0.0285,0.016 -0.057,0.033 -0.0855,0.05 l 0.0773,0.134 -0.102,-0.01 -0.007,0.098 0.16945,0.014 0.12421,0.2156 -0.12174,-0.014 -0.0247,-0.076 -0.0938,0.03 0.0107,0.033 -0.0411,-0.01 -0.0115,0.098 0.0329,0 -0.014,0.018 0.0765,0.062 0.0526,-0.066 0.19577,0.023 0.079,0.1373 -0.0304,-0.01 -0.0132,0.098 0.10611,0.014 0.0897,0.1562 -0.13984,0 -0.0625,-0.1118 -0.0864,0.048 0.0346,0.062 -0.15301,0 -0.11762,-0.2171 0.0477,-0.093 -0.088,-0.046 -0.0165,0.032 -0.0329,-0.061 -0.0872,0.047 0.037,0.067 -0.037,0 -8.5e-4,0.099 0.0913,0.01 0.0913,0.1695 -0.29448,-0.01 -0.102,-0.1398 -0.0798,0.057 0.0592,0.082 -0.13901,0 -8.5e-4,0.099 0.15547,0 -0.0592,0.084 0.0806,0.056 0.0979,-0.1389 0.24924,0 -0.074,0.098 -0.0773,-0.017 -0.0214,0.096 0.0329,0.01 -0.0247,0.033 0.0781,0.06 0.0197,-0.027 0.008,0.02 0.093,-0.035 -0.0304,-0.078 0.11928,-0.1571 0.15875,0.01 -0.0189,0.024 0.0773,0.062 0.0666,-0.085 0.12833,0.01 -0.0757,0.1349 -0.12832,0 0,0.099 0.0724,0 -0.0757,0.1341 -0.24759,-0.01 -0.0576,-0.086 -0.0823,0.054 0.0197,0.03 -0.0691,0 -8.5e-4,0.099 0.0765,0.01 -0.0181,0.032 0.0856,0.049 0.0452,-0.08 0.19331,0 -0.14477,0.2566 -0.17274,0.02 0.0123,0.098 0.10035,-0.013 -0.0683,0.1218 0.0855,0.049 0.0765,-0.1349 0.0436,0.091 0.0888,-0.043 -0.074,-0.1529 0.12174,-0.2164 0.0502,0.1119 -0.0526,0.059 0.074,0.065 0.0222,-0.026 0.0173,0.039 0.0905,-0.041 -0.0132,-0.03 0.0214,0.01 0.014,-0.098 -0.0831,-0.013 -0.0798,-0.1793 0.0782,-0.139 0.0123,0.029 0.0913,-0.038 -0.0419,-0.1 0.0798,-0.1407 0.0765,0.1325 -0.0576,0.1012 0.0855,0.049 0.0296,-0.051 0.0773,0.1341 -0.11763,0.1999 -0.10364,0.01 0.007,0.098 0.037,-0.01 -0.0362,0.061 0.0855,0.05 0.0387,-0.066 0.0189,0.031 0.0847,-0.05 -0.0461,-0.079 0.0888,-0.1505 0.14971,0.2591 -0.0584,0.1381 0.0913,0.039 0.0296,-0.07 0.0502,0.087 0.0855,-0.05 -0.0724,-0.1259 0.12421,0.01 0.007,-0.099 -0.18591,-0.013 c -0.002,0 -0.003,0 -0.005,0 l -0.12503,-0.2155 0.14066,0.014 0.0247,0.076 0.0938,-0.032 -0.0107,-0.032 0.0411,0 0.0107,-0.098 -0.0337,-0.01 0.014,-0.018 -0.0781,-0.061 -0.0518,0.067 -0.2114,-0.022 -0.079,-0.1365 0.0444,0.01 0.0123,-0.098 -0.11927,-0.015 -0.074,-0.1284 0.14642,-0.01 0.0658,0.1094 0.0847,-0.051 -0.037,-0.062 0.15382,-0.01 0.12421,0.2139 -0.0452,0.094 0.0888,0.043 0.0156,-0.034 0.0354,0.061 0.0855,-0.05 -0.0387,-0.066 0.0362,0 -0.002,-0.099 -0.0913,0 -0.0962,-0.1661 0.29366,-0.01 0.10611,0.1374 0.0781,-0.06 -0.0617,-0.081 0.13901,-0.01 -0.002,-0.099 -0.15382,0 0.0559,-0.084 -0.0831,-0.054 -0.093,0.1416 -0.25006,0.01 0.0716,-0.1 0.0781,0.014 0.0181,-0.097 -0.0337,-0.01 0.0247,-0.034 -0.0806,-0.057 -0.0197,0.027 -0.008,-0.02 -0.0913,0.038 0.0329,0.078 -0.11434,0.1613 -0.15958,0.01 0.0189,-0.025 -0.079,-0.059 -0.065,0.087 -0.1711,0.01 0.10283,-0.1719 0.1275,0.01 0.002,-0.099 -0.0716,0 0.079,-0.1316 0.24677,0.01 0.0551,0.087 0.0839,-0.053 -0.0189,-0.03 0.0691,0.01 0.003,-0.099 -0.0773,0 0.0189,-0.031 -0.0839,-0.052 -0.0469,0.079 -0.19248,-0.01 0.15053,-0.2526 0.17274,-0.016 -0.009,-0.099 -0.10118,0.01 0.0716,-0.1193 -0.0847,-0.051 z m -3.57694,-4.8317 -0.0798,0.1332 -0.0419,-0.093 -0.0897,0.041 0.0707,0.1547 -0.1275,0.2138 -0.0469,-0.1135 0.0535,-0.057 -0.0724,-0.067 -0.023,0.025 -0.0156,-0.038 -0.0913,0.037 0.0123,0.03 -0.0214,0 -0.0165,0.098 0.0831,0.014 0.0748,0.1826 -0.0814,0.1366 -0.0115,-0.029 -0.0921,0.035 0.0395,0.1013 -0.0872,0.1455 -0.065,-0.1135 0.065,-0.1102 -0.0847,-0.05 -0.037,0.062 -0.0765,-0.1333 0.12832,-0.2113 0.10364,-0.01 -0.006,-0.099 -0.0362,0 0.0362,-0.059 -0.0847,-0.051 -0.0395,0.065 -0.0181,-0.031 -0.0855,0.05 0.0444,0.079 -0.0995,0.1645 -0.14642,-0.255 0.0691,-0.1588 -0.0897,-0.04 -0.0403,0.093 -0.0699,-0.1209 c -0.0285,0.016 -0.057,0.033 -0.0856,0.05 l 0.0773,0.134 -0.10199,-0.01 -0.007,0.098 0.16945,0.014 0.12421,0.2156 -0.12175,-0.014 -0.0247,-0.076 -0.0938,0.03 0.0107,0.033 -0.0411,-0.01 -0.0115,0.098 0.0329,0 -0.014,0.018 0.0765,0.062 0.0526,-0.066 0.19578,0.023 0.079,0.1373 -0.0304,-0.01 -0.0132,0.098 0.10611,0.014 0.0897,0.1562 -0.13984,0 -0.0625,-0.1118 -0.0864,0.048 0.0345,0.062 -0.153,0 -0.11763,-0.2171 0.0477,-0.093 -0.088,-0.046 -0.0165,0.032 -0.0329,-0.061 -0.0872,0.047 0.037,0.067 -0.037,0 -8.4e-4,0.099 0.0913,0.01 0.0913,0.1695 -0.29448,-0.01 -0.102,-0.1398 -0.0798,0.057 0.0592,0.082 -0.13902,0 -8.4e-4,0.099 0.15547,0 -0.0592,0.084 0.0806,0.056 0.0979,-0.1389 0.24924,0 -0.074,0.098 -0.0773,-0.017 -0.0214,0.096 0.0329,0.01 -0.0247,0.033 0.0781,0.06 0.0197,-0.027 0.008,0.02 0.093,-0.035 -0.0304,-0.078 0.11927,-0.1571 0.15876,0.01 -0.0189,0.024 0.0773,0.062 0.0666,-0.085 0.12832,0.01 -0.0757,0.1349 -0.12832,0 0,0.099 0.0724,0 -0.0757,0.1341 -0.2476,-0.01 -0.0576,-0.086 -0.0823,0.054 0.0197,0.03 -0.0691,0 -8.4e-4,0.099 0.0765,0.01 -0.0181,0.032 0.0855,0.049 0.0452,-0.08 0.19331,0 -0.14478,0.2567 -0.17274,0.02 0.0123,0.098 0.10036,-0.013 -0.0683,0.1217 0.0855,0.049 0.0765,-0.1349 0.0436,0.091 0.0888,-0.043 -0.074,-0.1529 0.12174,-0.2164 0.0502,0.1119 -0.0526,0.059 0.074,0.065 0.0222,-0.026 0.0173,0.039 0.0905,-0.041 -0.0132,-0.03 0.0214,0.01 0.014,-0.098 -0.0831,-0.013 -0.0798,-0.1793 0.0781,-0.139 0.0123,0.029 0.0913,-0.038 -0.0419,-0.1 0.0798,-0.1407 0.0765,0.1325 -0.0576,0.1012 0.0855,0.049 0.0296,-0.051 0.0773,0.1341 -0.11763,0.1999 -0.10364,0.01 0.007,0.098 0.037,-0.01 -0.0362,0.061 0.0855,0.05 0.0387,-0.066 0.0189,0.031 0.0847,-0.05 -0.0461,-0.079 0.0888,-0.1505 0.1497,0.2591 -0.0584,0.1381 0.0913,0.039 0.0296,-0.07 0.0502,0.087 0.0855,-0.05 -0.0724,-0.1259 0.12421,0.01 0.007,-0.099 -0.1859,-0.013 c -0.002,0 -0.003,0 -0.005,0 l -0.12503,-0.2155 0.14066,0.014 0.0247,0.076 0.0938,-0.032 -0.0107,-0.032 0.0411,0 0.0107,-0.098 -0.0337,-0.01 0.014,-0.018 -0.0781,-0.061 -0.0518,0.067 -0.2114,-0.022 -0.079,-0.1365 0.0444,0.01 0.0123,-0.098 -0.11928,-0.015 -0.074,-0.1284 0.14642,-0.01 0.0658,0.1094 0.0847,-0.051 -0.037,-0.062 0.15382,-0.01 0.12421,0.2139 -0.0452,0.094 0.0888,0.043 0.0156,-0.034 0.0354,0.061 0.0855,-0.05 -0.0387,-0.066 0.0362,0 -0.002,-0.099 -0.0913,0 -0.0962,-0.1661 0.29366,-0.01 0.10612,0.1374 0.0781,-0.06 -0.0617,-0.081 0.13901,-0.01 -0.002,-0.099 -0.15382,0 0.0559,-0.084 -0.0831,-0.054 -0.093,0.1416 -0.25006,0.01 0.0716,-0.1 0.0781,0.014 0.0181,-0.097 -0.0337,-0.01 0.0247,-0.034 -0.0806,-0.057 -0.0197,0.027 -0.008,-0.02 -0.0913,0.038 0.0329,0.078 -0.11434,0.1613 -0.15958,0.01 0.0189,-0.025 -0.079,-0.059 -0.065,0.087 -0.1711,0.01 0.10282,-0.1719 0.1275,0.01 0.002,-0.099 -0.0716,0 0.079,-0.1316 0.24678,0.01 0.0551,0.087 0.0839,-0.053 -0.0189,-0.03 0.0691,0.01 0.003,-0.099 -0.0773,0 0.0189,-0.031 -0.0839,-0.052 -0.0469,0.079 -0.19249,-0.01 0.15054,-0.2526 0.17274,-0.016 -0.009,-0.099 -0.10118,0.01 0.0716,-0.1193 -0.0847,-0.051 z m -3.57697,4.8317 -0.0798,0.1332 -0.0419,-0.093 -0.0897,0.041 0.0707,0.1547 -0.1275,0.2138 -0.0469,-0.1135 0.0535,-0.057 -0.0724,-0.067 -0.023,0.025 -0.0156,-0.038 -0.0913,0.037 0.0123,0.03 -0.0214,0 -0.0165,0.098 0.0831,0.014 0.0749,0.1826 -0.0814,0.1366 -0.0115,-0.029 -0.0921,0.035 0.0395,0.1013 -0.0872,0.1455 -0.065,-0.1135 0.065,-0.1102 -0.0847,-0.05 -0.037,0.062 -0.0765,-0.1333 0.12832,-0.2113 0.10365,-0.01 -0.006,-0.099 -0.0362,0 0.0362,-0.059 -0.0847,-0.051 -0.0395,0.065 -0.0181,-0.031 -0.0855,0.05 0.0444,0.079 -0.0995,0.1645 -0.14642,-0.255 0.0691,-0.1588 -0.0897,-0.04 -0.0403,0.093 -0.0699,-0.1209 c -0.0285,0.016 -0.057,0.033 -0.0855,0.05 l 0.0773,0.134 -0.102,-0.01 -0.007,0.098 0.169449,0.014 0.12421,0.2156 -0.12174,-0.014 -0.0247,-0.076 -0.0938,0.03 0.0107,0.033 -0.0411,-0.01 -0.0115,0.098 0.0329,0 -0.014,0.018 0.0765,0.062 0.0526,-0.066 0.19577,0.023 0.079,0.1373 -0.0304,-0.01 -0.0132,0.098 0.10612,0.014 0.0897,0.1562 -0.13984,0 -0.0625,-0.1118 -0.0864,0.048 0.0345,0.062 -0.153,0 -0.11763,-0.2171 0.0477,-0.093 -0.088,-0.046 -0.0164,0.032 -0.0329,-0.061 -0.0872,0.047 0.037,0.067 -0.037,0 -8.4e-4,0.099 0.0913,0.01 0.0913,0.1695 -0.294489,-0.01 -0.102,-0.1398 -0.0798,0.057 0.0592,0.082 -0.13901,0 -8.4e-4,0.099 0.15546,0 -0.0592,0.084 0.0806,0.056 0.0979,-0.1389 0.249239,0 -0.074,0.098 -0.0773,-0.017 -0.0214,0.096 0.0329,0.01 -0.0247,0.033 0.0781,0.06 0.0197,-0.027 0.008,0.02 0.093,-0.035 -0.0304,-0.078 0.11928,-0.1571 0.15876,0.01 -0.0189,0.024 0.0773,0.062 0.0666,-0.085 0.12832,0.01 -0.0757,0.1349 -0.12832,0 0,0.099 0.0724,0 -0.0757,0.1341 -0.2476,-0.01 -0.0576,-0.086 -0.0823,0.054 0.0197,0.03 -0.0691,0 -8.4e-4,0.099 0.0765,0.01 -0.0181,0.032 0.0855,0.049 0.0452,-0.08 0.1933,0 -0.14477,0.2566 -0.172739,0.02 0.0123,0.098 0.100349,-0.013 -0.0683,0.1218 0.0855,0.049 0.0765,-0.1349 0.0436,0.091 0.0888,-0.043 -0.074,-0.1529 0.12174,-0.2164 0.0502,0.1119 -0.0526,0.059 0.074,0.065 0.0222,-0.026 0.0173,0.039 0.0905,-0.041 -0.0132,-0.03 0.0214,0.01 0.014,-0.098 -0.0831,-0.013 -0.0798,-0.1793 0.0781,-0.139 0.0123,0.029 0.0913,-0.038 -0.0419,-0.1 0.0798,-0.1407 0.0765,0.1325 -0.0576,0.1012 0.0855,0.049 0.0296,-0.051 0.0773,0.1341 -0.11763,0.1999 -0.10364,0.01 0.007,0.098 0.037,-0.01 -0.0362,0.061 0.0855,0.05 0.0387,-0.066 0.0189,0.031 0.0847,-0.05 -0.0461,-0.079 0.0888,-0.1505 0.14971,0.2591 -0.0584,0.1381 0.0913,0.039 0.0296,-0.07 0.0502,0.087 0.0855,-0.05 -0.0724,-0.1259 0.12421,0.01 0.007,-0.099 -0.1859,-0.013 c -0.002,0 -0.003,0 -0.005,0 l -0.12504,-0.2155 0.14067,0.014 0.0247,0.076 0.0938,-0.032 -0.0107,-0.032 0.0411,0 0.0107,-0.098 -0.0337,-0.01 0.014,-0.018 -0.0781,-0.061 -0.0518,0.067 -0.21141,-0.022 -0.079,-0.1365 0.0444,0.01 0.0123,-0.098 -0.11927,-0.015 -0.074,-0.1284 0.14642,-0.01 0.0658,0.1094 0.0847,-0.051 -0.037,-0.062 0.15382,-0.01 0.12421,0.2139 -0.0452,0.094 0.0888,0.043 0.0156,-0.034 0.0354,0.061 0.0855,-0.05 -0.0387,-0.066 0.0362,0 -0.002,-0.099 -0.0913,0 -0.0962,-0.1661 0.29366,-0.01 0.10611,0.1374 0.0781,-0.06 -0.0617,-0.081 0.13902,-0.01 -0.002,-0.099 -0.15382,0 0.0559,-0.084 -0.0831,-0.054 -0.0929,0.1416 -0.25007,0.01 0.0716,-0.1 0.0781,0.014 0.0181,-0.097 -0.0337,-0.01 0.0247,-0.034 -0.0806,-0.057 -0.0197,0.027 -0.008,-0.02 -0.0913,0.038 0.0329,0.078 -0.11434,0.1613 -0.15958,0.01 0.0189,-0.025 -0.079,-0.059 -0.065,0.087 -0.17109,0.01 0.10282,-0.1719 0.1275,0.01 0.002,-0.099 -0.0716,0 0.079,-0.1316 0.24677,0.01 0.0551,0.087 0.0839,-0.053 -0.0189,-0.03 0.0691,0.01 0.003,-0.099 -0.0773,0 0.0189,-0.031 -0.0839,-0.052 -0.0469,0.079 -0.19248,-0.01 0.15053,-0.2526 0.17274,-0.016 -0.009,-0.099 -0.10117,0.01 0.0716,-0.1193 -0.0847,-0.051 z m -3.5769498,-4.8317 -0.0798,0.1332 -0.042,-0.093 -0.0897,0.041 0.0707,0.1547 -0.1275,0.2138 -0.0469,-0.1135 0.0535,-0.057 -0.0724,-0.067 -0.023,0.025 -0.0156,-0.038 -0.0913,0.037 0.0123,0.03 -0.0214,0 -0.0165,0.098 0.0831,0.014 0.0749,0.1826 -0.0814,0.1366 -0.0115,-0.029 -0.0921,0.035 0.0395,0.1013 -0.0872,0.1455 -0.065,-0.1135 0.065,-0.1102 -0.0847,-0.05 -0.037,0.062 -0.0765,-0.1333 0.12832,-0.2113 0.10364,-0.01 -0.006,-0.099 -0.0362,0 0.0362,-0.059 -0.0847,-0.051 -0.0395,0.065 -0.0181,-0.031 -0.0856,0.05 0.0444,0.079 -0.0995,0.1645 -0.14641,-0.255 0.0691,-0.1588 -0.0897,-0.04 -0.0403,0.093 -0.0699,-0.1209 c -0.0285,0.016 -0.057,0.033 -0.0855,0.05 l 0.0773,0.134 -0.102,-0.01 -0.007,0.098 0.16945,0.014 0.12421,0.2156 -0.12174,-0.014 -0.0247,-0.076 -0.0938,0.03 0.0107,0.033 -0.0411,-0.01 -0.0115,0.098 0.0329,0 -0.014,0.018 0.0765,0.062 0.0526,-0.066 0.19578,0.023 0.079,0.1373 -0.0304,-0.01 -0.0132,0.098 0.10611,0.014 0.0897,0.1562 -0.13984,0 -0.0625,-0.1118 -0.0864,0.048 0.0345,0.062 -0.153,0 -0.11762,-0.2171 0.0477,-0.093 -0.088,-0.046 -0.0165,0.032 -0.0329,-0.061 -0.0872,0.047 0.037,0.067 -0.037,0 -8.5e-4,0.099 0.0913,0.01 0.0913,0.1695 -0.29449,-0.01 -0.102,-0.1398 -0.0798,0.057 0.0592,0.082 -0.13902,0 -8.4e-4,0.099 0.15547,0 -0.0592,0.084 0.0806,0.056 0.0979,-0.1389 0.24924,0 -0.074,0.098 -0.0773,-0.017 -0.0214,0.096 0.0329,0.01 -0.0247,0.033 0.0781,0.06 0.0197,-0.027 0.008,0.02 0.093,-0.035 -0.0304,-0.078 0.11927,-0.1571 0.15876,0.01 -0.0189,0.024 0.0773,0.062 0.0666,-0.085 0.12832,0.01 -0.0757,0.1349 -0.12832,0 0,0.099 0.0724,0 -0.0757,0.1341 -0.2476,-0.01 -0.0576,-0.086 -0.0823,0.054 0.0197,0.03 -0.0691,0 -8.4e-4,0.099 0.0765,0.01 -0.0181,0.032 0.0855,0.049 0.0452,-0.08 0.1933,0 -0.14477,0.2567 -0.17274,0.02 0.0123,0.098 0.10035,-0.013 -0.0683,0.1217 0.0855,0.049 0.0765,-0.1349 0.0436,0.091 0.0888,-0.043 -0.074,-0.1529 0.12174,-0.2164 0.0502,0.1119 -0.0526,0.059 0.074,0.065 0.0222,-0.026 0.0173,0.039 0.0905,-0.041 -0.0132,-0.03 0.0214,0.01 0.014,-0.098 -0.0831,-0.013 -0.0798,-0.1793 0.0781,-0.139 0.0123,0.029 0.0913,-0.038 -0.0419,-0.1 0.0798,-0.1407 0.0765,0.1325 -0.0576,0.1012 0.0855,0.049 0.0296,-0.051 0.0773,0.1341 -0.11762,0.1999 -0.10365,0.01 0.007,0.098 0.037,-0.01 -0.0362,0.061 0.0855,0.05 0.0387,-0.066 0.0189,0.031 0.0847,-0.05 -0.0461,-0.079 0.0888,-0.1505 0.14971,0.2591 -0.0584,0.1381 0.0913,0.039 0.0296,-0.07 0.0502,0.087 0.0855,-0.05 -0.0724,-0.1259 0.12421,0.01 0.007,-0.099 -0.1859,-0.013 c -0.002,0 -0.003,0 -0.005,0 l -0.12503,-0.2155 0.14066,0.014 0.0247,0.076 0.0938,-0.032 -0.0107,-0.032 0.0411,0 0.0107,-0.098 -0.0337,-0.01 0.014,-0.018 -0.0781,-0.061 -0.0518,0.067 -0.2114,-0.022 -0.079,-0.1365 0.0444,0.01 0.0123,-0.098 -0.11927,-0.015 -0.074,-0.1284 0.14642,-0.01 0.0658,0.1094 0.0847,-0.051 -0.037,-0.062 0.15382,-0.01 0.12421,0.2139 -0.0452,0.094 0.0888,0.043 0.0156,-0.034 0.0354,0.061 0.0855,-0.05 -0.0387,-0.066 0.0362,0 -0.002,-0.099 -0.0913,0 -0.0962,-0.1661 0.29366,-0.01 0.10611,0.1374 0.0781,-0.06 -0.0617,-0.081 0.13902,-0.01 -0.002,-0.099 -0.15383,0 0.0559,-0.084 -0.0831,-0.054 -0.093,0.1416 -0.25007,0.01 0.0716,-0.1 0.0781,0.014 0.0181,-0.097 -0.0337,-0.01 0.0247,-0.034 -0.0806,-0.057 -0.0197,0.027 -0.008,-0.02 -0.0913,0.038 0.0329,0.078 -0.11434,0.1613 -0.15958,0.01 0.0189,-0.025 -0.079,-0.059 -0.065,0.087 -0.17109,0.01 0.10282,-0.1719 0.1275,0.01 0.002,-0.099 -0.0716,0 0.079,-0.1316 0.24678,0.01 0.0551,0.087 0.0839,-0.053 -0.0189,-0.03 0.0691,0.01 0.003,-0.099 -0.0773,0 0.0189,-0.031 -0.0839,-0.052 -0.0469,0.079 -0.19249,-0.01 0.15053,-0.2526 0.17275,-0.016 -0.009,-0.099 -0.10118,0.01 0.0716,-0.1193 -0.0847,-0.051 z m 2.3739898,-0.72 c -1.6348998,0 -2.9868198,-1.0717 -3.4999998,-2.5312 -0.28775,0.076 -0.5635,0.125 -0.875,0.125 -1.95159,0 -3.53125,-1.5797 -3.53125,-3.5313 0,-1.8772 1.46406,-3.3857 3.3125,-3.5 0.1595,-1.4925 1.40261,-2.6562 2.9375,-2.6562 0.9639998,0 1.8001598,0.4766 2.3437498,1.1875 0.40153,-1.2697 1.56625,-2.1875 2.96875,-2.1875 1.15833,0 2.14413,0.6286 2.6875,1.5625 0.5572,-1.0793 1.67037,-1.8125 2.96875,-1.8125 1.70495,0 3.09968,1.2592 3.3125,2.9062 1.61829,0.017 2.9375,1.3465 2.9375,2.9688 0,1.5787 -1.25473,2.8223 -2.8125,2.9062 -0.19762,1.8651 -1.77008,3.3125 -3.6875,3.3125 -0.8816,0 -1.67558,-0.2993 -2.3125,-0.8125 -0.58943,0.8473 -1.57712,1.4063 -2.6875,1.4063 -0.54832,0 -1.04639,-0.1361 -1.5,-0.375 -0.66965,0.6235 -1.57532,1.0312 -2.5625,1.0312 z"
       inkscape:connector-curvature="0" />
  </g>
</svg>
