<?xml version="1.0" encoding="UTF-8" standalone="no"?>
<!-- Created with Inkscape (http://www.inkscape.org/) -->

<svg
   xmlns:dc="http://purl.org/dc/elements/1.1/"
   xmlns:cc="http://creativecommons.org/ns#"
   xmlns:rdf="http://www.w3.org/1999/02/22-rdf-syntax-ns#"
   xmlns:svg="http://www.w3.org/2000/svg"
   xmlns="http://www.w3.org/2000/svg"
   xmlns:sodipodi="http://sodipodi.sourceforge.net/DTD/sodipodi-0.dtd"
   xmlns:inkscape="http://www.inkscape.org/namespaces/inkscape"
   width="30"
   height="30"
   id="svg2"
   sodipodi:version="0.32"
   inkscape:version="0.48.4 r9939"
   sodipodi:docname="airplane.svg"
   inkscape:output_extension="org.inkscape.output.svg.inkscape"
   version="1.1">
  <defs
     id="defs4" />
  <sodipodi:namedview
     id="base"
     pagecolor="#ffffff"
     bordercolor="#666666"
     borderopacity="1.0"
     inkscape:pageopacity="0.0"
     inkscape:pageshadow="2"
     inkscape:zoom="10.276087"
     inkscape:cx="15.344828"
     inkscape:cy="14.482759"
     inkscape:document-units="px"
     inkscape:current-layer="layer1"
     inkscape:window-width="656"
     inkscape:window-height="1029"
     inkscape:window-x="0"
     inkscape:window-y="19"
     showgrid="false"
     inkscape:window-maximized="0" />
  <metadata
     id="metadata7">
    <rdf:RDF>
      <cc:Work
         rdf:about="">
        <dc:format>image/svg+xml</dc:format>
        <dc:type
           rdf:resource="http://purl.org/dc/dcmitype/StillImage" />
        <dc:title></dc:title>
      </cc:Work>
    </rdf:RDF>
  </metadata>
  <g
     inkscape:label="Capa 1"
     inkscape:groupmode="layer"
     id="layer1"
     transform="translate(0,-1022.3622)">
    <path
       sodipodi:type="arc"
       style="color:#000000;fill:#1a1a1a;stroke:#d4d4d4;stroke-width:1.02777779;stroke-opacity:1;marker:none;visibility:visible;display:inline;overflow:visible;enable-background:accumulate"
       id="path16617-6-6"
       sodipodi:cx="15.16226"
       sodipodi:cy="16.56851"
       sodipodi:rx="14.008413"
       sodipodi:ry="14.008413"
       d="m 29.170673,16.56851 a 14.008413,14.008413 0 1 1 -28.0168263,0 14.008413,14.008413 0 1 1 28.0168263,0 z"
       transform="matrix(0.97297297,0,0,0.97297297,330.50795,953.63241)" />
    <path
       style="fill:#1a1a1a;stroke:#d4d4d4;stroke-width:1px;stroke-linecap:butt;stroke-linejoin:miter;stroke-opacity:1"
       d="m 345.29648,957.89011 0,11.863 0,0"
       id="path16623-6-2"
       inkscape:connector-curvature="0"
       inkscape:transform-center-y="-5.9314904" />
    <path
       style="fill:#1a1a1a;stroke:#d4d4d4;stroke-width:1px;stroke-linecap:butt;stroke-linejoin:miter;stroke-opacity:1"
       d="m 357.15947,969.75311 -1.70877,0 0,0"
       id="path16623-4-2-0"
       inkscape:connector-curvature="0"
       inkscape:transform-center-x="-0.854382" />
    <path
       style="fill:#1a1a1a;stroke:#d4d4d4;stroke-width:0.99999994px;stroke-linecap:butt;stroke-linejoin:miter;stroke-opacity:1"
       d="m 345.29648,981.61611 0,-2.0181 0,0"
       id="path16623-4-3-9-0"
       inkscape:connector-curvature="0"
       inkscape:transform-center-y="1.0091015" />
    <path
       style="fill:#1a1a1a;stroke:#d4d4d4;stroke-width:1px;stroke-linecap:butt;stroke-linejoin:miter;stroke-opacity:1"
       d="m 333.43348,969.75311 11.863,0 0,0"
       id="path16623-4-3-4-1-0"
       inkscape:connector-curvature="0"
       inkscape:transform-center-x="5.9315" />
    <path
       inkscape:connector-curvature="0"
       sodipodi:nodetypes="cccccccccccccc"
       id="path9518-0-7"
       d="m 14.999994,1025.9915 -11.2422196,9.9235 2.2484301,0 0,12.8177 6.7453475,0 0,-7.5644 4.651059,0 1.3e-5,7.5644 6.591159,0 0,-12.8177 2.248444,0 -11.242237,-9.9235 0,0 0,0 z"
       style="font-size:12px;fill:none;stroke:none" />
    <path
       inkscape:connector-curvature="0"
       style="fill:#1a1a1a;fill-opacity:1;fill-rule:evenodd;stroke:none"
       d="m 14.999995,1024.5501 c -7.4269202,0 -13.4553002,5.7403 -13.4553002,12.8128 0,7.0724 6.02813,12.8114 13.4553002,12.8114 7.42718,0 13.45531,-5.739 13.45531,-12.8114 0,-7.0725 -6.02838,-12.8128 -13.45531,-12.8128 z m -1.00965,1.0643 2.80703,2.321 -0.74239,2.9617 -3.11806,1.4489 -3.9448502,-1.0457 -0.5861,-2.4116 1.51292,-2.2835 4.0714502,-0.9908 z m 6.98944,1.2378 3.61351,2.9634 -1.01747,3.7056 -3.30248,0.4939 -3.08993,-3.0899 0.49389,-2.8071 3.30248,-1.2659 z m -13.0051802,0.5502 c -0.1284,0.5045 -0.25743,1.0101 -0.37666,1.5145 l -1.81613,0.4673 c 0.14674,-0.2659 0.33159,-0.5131 0.55171,-0.7424 0.19261,-0.2476 0.394,-0.4873 0.67832,-0.6799 0.28431,-0.22 0.56839,-0.3945 0.96276,-0.5595 z m 0.57829,4.8623 3.6400702,1.0174 0.92682,3.9434 -3.7963602,2.9352 -3.30248,-0.093 -0.83461,-4.3841 3.36656,-3.4197 z m 15.4808702,2.2365 1.85207,3.1197 -2.55852,4.2278 -3.21027,-0.3033 -1.17376,-2.6867 1.97242,-3.798 3.11806,-0.5595 z m -21.7826202,1.0644 1.91772,0.6143 1.01747,4.2557 -1.23785,2.2288 c -0.29349,0.1184 -0.56925,-0.1928 -0.86274,-0.8346 -0.321,-0.697 -0.75194,-2.1006 -0.89868,-3.1462 -0.13758,-1.055 -0.12853,-2.0817 0.0641,-3.118 z m 25.3695502,1.7146 c 0.009,1.0638 -0.0742,1.9628 -0.24851,2.871 -0.21094,0.8987 -0.52302,1.7152 -0.8346,2.3756 -0.31158,0.6235 -0.59665,1.0648 -0.92682,1.3583 l -1.48479,-1.7256 2.59447,-4.384 0.90025,-0.4953 z m -13.76789,0.7064 4.13709,1.0831 1.32068,3.1087 -2.28345,2.9992 -5.15456,-1.0814 -1.69734,-3.3947 3.67758,-2.7149 z m -2.40223,6.8784 5.46714,0.9645 1.56763,2.4021 -0.39386,1.055 c -0.76124,0.1104 -1.53282,0.1927 -2.34909,0.2111 -0.84378,0.019 -1.74226,-8e-4 -2.55852,-0.093 -0.8713,-0.1281 -1.67883,-0.3581 -2.38504,-0.5877 -0.70621,-0.2473 -1.2470002,-0.5218 -1.7239202,-0.8611 l -0.0641,-1.2379 2.4397402,-1.8537 z"
       id="path10456-7" />
  </g>
</svg>
