<?xml version="1.0" encoding="UTF-8" standalone="no"?>
<!-- Created with Inkscape (http://www.inkscape.org/) -->

<svg
   xmlns:dc="http://purl.org/dc/elements/1.1/"
   xmlns:cc="http://creativecommons.org/ns#"
   xmlns:rdf="http://www.w3.org/1999/02/22-rdf-syntax-ns#"
   xmlns:svg="http://www.w3.org/2000/svg"
   xmlns="http://www.w3.org/2000/svg"
   xmlns:sodipodi="http://sodipodi.sourceforge.net/DTD/sodipodi-0.dtd"
   xmlns:inkscape="http://www.inkscape.org/namespaces/inkscape"
   width="30"
   height="30"
   id="svg2"
   sodipodi:version="0.32"
   inkscape:version="0.48.4 r9939"
   sodipodi:docname="toilet.svg"
   inkscape:output_extension="org.inkscape.output.svg.inkscape"
   version="1.1">
  <defs
     id="defs4" />
  <sodipodi:namedview
     id="base"
     pagecolor="#ffffff"
     bordercolor="#666666"
     borderopacity="1.0"
     inkscape:pageopacity="0.0"
     inkscape:pageshadow="2"
     inkscape:zoom="10.276087"
     inkscape:cx="15.344828"
     inkscape:cy="14.482759"
     inkscape:document-units="px"
     inkscape:current-layer="layer1"
     inkscape:window-width="656"
     inkscape:window-height="1029"
     inkscape:window-x="0"
     inkscape:window-y="19"
     showgrid="false"
     inkscape:window-maximized="0" />
  <metadata
     id="metadata7">
    <rdf:RDF>
      <cc:Work
         rdf:about="">
        <dc:format>image/svg+xml</dc:format>
        <dc:type
           rdf:resource="http://purl.org/dc/dcmitype/StillImage" />
        <dc:title></dc:title>
      </cc:Work>
    </rdf:RDF>
  </metadata>
  <g
     inkscape:label="Capa 1"
     inkscape:groupmode="layer"
     id="layer1"
     transform="translate(0,-1022.3622)">
    <path
       sodipodi:type="arc"
       style="color:#000000;fill:#1a1a1a;stroke:#d4d4d4;stroke-width:1.02777779;stroke-opacity:1;marker:none;visibility:visible;display:inline;overflow:visible;enable-background:accumulate"
       id="path16617-6-6"
       sodipodi:cx="15.16226"
       sodipodi:cy="16.56851"
       sodipodi:rx="14.008413"
       sodipodi:ry="14.008413"
       d="m 29.170673,16.56851 a 14.008413,14.008413 0 1 1 -28.0168263,0 14.008413,14.008413 0 1 1 28.0168263,0 z"
       transform="matrix(0.97297297,0,0,0.97297297,330.50795,953.63241)" />
    <path
       style="fill:#1a1a1a;stroke:#d4d4d4;stroke-width:1px;stroke-linecap:butt;stroke-linejoin:miter;stroke-opacity:1"
       d="m 345.29648,957.89011 0,11.863 0,0"
       id="path16623-6-2"
       inkscape:connector-curvature="0"
       inkscape:transform-center-y="-5.9314904" />
    <path
       style="fill:#1a1a1a;stroke:#d4d4d4;stroke-width:1px;stroke-linecap:butt;stroke-linejoin:miter;stroke-opacity:1"
       d="m 357.15947,969.75311 -1.70877,0 0,0"
       id="path16623-4-2-0"
       inkscape:connector-curvature="0"
       inkscape:transform-center-x="-0.854382" />
    <path
       style="fill:#1a1a1a;stroke:#d4d4d4;stroke-width:0.99999994px;stroke-linecap:butt;stroke-linejoin:miter;stroke-opacity:1"
       d="m 345.29648,981.61611 0,-2.0181 0,0"
       id="path16623-4-3-9-0"
       inkscape:connector-curvature="0"
       inkscape:transform-center-y="1.0091015" />
    <path
       style="fill:#1a1a1a;stroke:#d4d4d4;stroke-width:1px;stroke-linecap:butt;stroke-linejoin:miter;stroke-opacity:1"
       d="m 333.43348,969.75311 11.863,0 0,0"
       id="path16623-4-3-4-1-0"
       inkscape:connector-curvature="0"
       inkscape:transform-center-x="5.9315" />
    <path
       inkscape:connector-curvature="0"
       sodipodi:nodetypes="cccccccccccccc"
       id="path9518-0-7"
       d="m 14.999994,1025.9915 -11.2422196,9.9235 2.2484301,0 0,12.8177 6.7453475,0 0,-7.5644 4.651059,0 1.3e-5,7.5644 6.591159,0 0,-12.8177 2.248444,0 -11.242237,-9.9235 0,0 0,0 z"
       style="font-size:12px;fill:none;stroke:none" />
    <path
       inkscape:connector-curvature="0"
       style="color:#000000;fill:#1a1a1a;fill-opacity:1;fill-rule:nonzero;stroke:none;stroke-width:1.10000002;marker:none;visibility:visible;display:inline;overflow:visible;enable-background:accumulate"
       d="m 4.2656248,1025.2685 c -0.7590899,0 -1.3749999,0.6159 -1.3749999,1.375 l 0,21.4375 c 0,0.7591 0.61591,1.375 1.3749999,1.375 l 21.4687502,0 c 0.7591,0 1.375,-0.6159 1.375,-1.375 l 0,-21.4375 c 0,-0.7591 -0.6159,-1.375 -1.375,-1.375 l -21.4687502,0 z m 0.59375,0.625 20.2812502,0 c 0.71837,0 1.3125,0.5941 1.3125,1.3125 l 0,20.3125 c 0,0.7184 -0.59413,1.2813 -1.3125,1.2813 l -20.2812502,0 c -0.71836,0 -1.3124999,-0.5629 -1.3124999,-1.2813 l 0,-20.3125 c 0,-0.7184 0.5941399,-1.3125 1.3124999,-1.3125 z m 10.1250002,3.0938 c -4.6187,0 -8.3437502,3.7562 -8.3437502,8.375 0,4.6187 3.7250502,8.375 8.3437502,8.375 4.6187,0 8.375,-3.7563 8.375,-8.375 0,-4.6188 -3.7563,-8.375 -8.375,-8.375 z m 0,0.7187 c 4.22442,0 7.65625,3.4318 7.65625,7.6563 0,4.2244 -3.43183,7.6562 -7.65625,7.6562 -4.22442,0 -7.6250002,-3.4318 -7.6250002,-7.6562 0,-4.2245 3.4005802,-7.6563 7.6250002,-7.6563 z m -3.4375,6.375 c -0.70407,0 -1.28125,0.5772 -1.28125,1.2813 0,0.704 0.57718,1.2812 1.28125,1.2812 0.70407,0 1.28125,-0.5772 1.28125,-1.2812 0,-0.7041 -0.57718,-1.2813 -1.28125,-1.2813 z m 6.90625,0 c -0.70407,0 -1.28125,0.5772 -1.28125,1.2813 0,0.704 0.57718,1.2812 1.28125,1.2812 0.70407,0 1.25,-0.5772 1.25,-1.2812 0,-0.7041 -0.54593,-1.2813 -1.25,-1.2813 z"
       id="path16422-0-4" />
  </g>
</svg>
