<?xml version="1.0" encoding="UTF-8" standalone="no"?>
<!-- Created with Inkscape (http://www.inkscape.org/) -->

<svg
   xmlns:dc="http://purl.org/dc/elements/1.1/"
   xmlns:cc="http://creativecommons.org/ns#"
   xmlns:rdf="http://www.w3.org/1999/02/22-rdf-syntax-ns#"
   xmlns:svg="http://www.w3.org/2000/svg"
   xmlns="http://www.w3.org/2000/svg"
   xmlns:sodipodi="http://sodipodi.sourceforge.net/DTD/sodipodi-0.dtd"
   xmlns:inkscape="http://www.inkscape.org/namespaces/inkscape"
   width="30"
   height="30"
   id="svg2"
   sodipodi:version="0.32"
   inkscape:version="0.48.4 r9939"
   sodipodi:docname="leaf.svg"
   inkscape:output_extension="org.inkscape.output.svg.inkscape"
   version="1.1">
  <defs
     id="defs4" />
  <sodipodi:namedview
     id="base"
     pagecolor="#ffffff"
     bordercolor="#666666"
     borderopacity="1.0"
     inkscape:pageopacity="0.0"
     inkscape:pageshadow="2"
     inkscape:zoom="10.276087"
     inkscape:cx="15.344828"
     inkscape:cy="14.482759"
     inkscape:document-units="px"
     inkscape:current-layer="layer1"
     inkscape:window-width="656"
     inkscape:window-height="1029"
     inkscape:window-x="0"
     inkscape:window-y="19"
     showgrid="false"
     inkscape:window-maximized="0" />
  <metadata
     id="metadata7">
    <rdf:RDF>
      <cc:Work
         rdf:about="">
        <dc:format>image/svg+xml</dc:format>
        <dc:type
           rdf:resource="http://purl.org/dc/dcmitype/StillImage" />
        <dc:title></dc:title>
      </cc:Work>
    </rdf:RDF>
  </metadata>
  <g
     inkscape:label="Capa 1"
     inkscape:groupmode="layer"
     id="layer1"
     transform="translate(0,-1022.3622)">
    <path
       sodipodi:type="arc"
       style="color:#000000;fill:#1a1a1a;stroke:#d4d4d4;stroke-width:1.02777779;stroke-opacity:1;marker:none;visibility:visible;display:inline;overflow:visible;enable-background:accumulate"
       id="path16617-6-6"
       sodipodi:cx="15.16226"
       sodipodi:cy="16.56851"
       sodipodi:rx="14.008413"
       sodipodi:ry="14.008413"
       d="m 29.170673,16.56851 a 14.008413,14.008413 0 1 1 -28.0168263,0 14.008413,14.008413 0 1 1 28.0168263,0 z"
       transform="matrix(0.97297297,0,0,0.97297297,330.50795,953.63241)" />
    <path
       style="fill:#1a1a1a;stroke:#d4d4d4;stroke-width:1px;stroke-linecap:butt;stroke-linejoin:miter;stroke-opacity:1"
       d="m 345.29648,957.89011 0,11.863 0,0"
       id="path16623-6-2"
       inkscape:connector-curvature="0"
       inkscape:transform-center-y="-5.9314904" />
    <path
       style="fill:#1a1a1a;stroke:#d4d4d4;stroke-width:1px;stroke-linecap:butt;stroke-linejoin:miter;stroke-opacity:1"
       d="m 357.15947,969.75311 -1.70877,0 0,0"
       id="path16623-4-2-0"
       inkscape:connector-curvature="0"
       inkscape:transform-center-x="-0.854382" />
    <path
       style="fill:#1a1a1a;stroke:#d4d4d4;stroke-width:0.99999994px;stroke-linecap:butt;stroke-linejoin:miter;stroke-opacity:1"
       d="m 345.29648,981.61611 0,-2.0181 0,0"
       id="path16623-4-3-9-0"
       inkscape:connector-curvature="0"
       inkscape:transform-center-y="1.0091015" />
    <path
       style="fill:#1a1a1a;stroke:#d4d4d4;stroke-width:1px;stroke-linecap:butt;stroke-linejoin:miter;stroke-opacity:1"
       d="m 333.43348,969.75311 11.863,0 0,0"
       id="path16623-4-3-4-1-0"
       inkscape:connector-curvature="0"
       inkscape:transform-center-x="5.9315" />
    <path
       inkscape:connector-curvature="0"
       sodipodi:nodetypes="cccccccccccccc"
       id="path9518-0-7"
       d="m 14.999994,1025.9915 -11.2422196,9.9235 2.2484301,0 0,12.8177 6.7453475,0 0,-7.5644 4.651059,0 1.3e-5,7.5644 6.591159,0 0,-12.8177 2.248444,0 -11.242237,-9.9235 0,0 0,0 z"
       style="font-size:12px;fill:none;stroke:none" />
    <path
       style="font-size:medium;font-style:normal;font-variant:normal;font-weight:normal;font-stretch:normal;text-indent:0;text-align:start;text-decoration:none;line-height:normal;letter-spacing:normal;word-spacing:normal;text-transform:none;direction:ltr;block-progression:tb;writing-mode:lr-tb;text-anchor:start;baseline-shift:baseline;color:#000000;fill:#1a1a1a;fill-opacity:1;stroke:none;stroke-width:1px;marker:none;visibility:visible;display:inline;overflow:visible;enable-background:accumulate;font-family:Sans;-inkscape-font-specification:Sans"
       d="m 20.521564,1027.4827 -1.89767,2.2105 -0.20533,-0.9195 -0.51846,0.8315 c -0.12395,-0.059 -0.24802,-0.1139 -0.38148,-0.1663 l -1.62374,-1.7508 0,1.3009 c -0.20357,-0.04 -0.41403,-0.079 -0.64553,-0.1177 -0.37448,-0.063 -0.75196,-0.091 -1.1248,-0.088 -2.61007,0.02 -5.1162098,1.6443 -6.6122398,4.8613 -0.91396,1.9659 -1.28506,4.5709 -0.97807,6.984 0.307,2.413 1.29871,4.6482 3.14956,5.8296 1.6073198,1.026 3.6929198,0.9564 5.6829898,0.3032 1.98994,-0.6531 3.899,-1.8953 5.1743,-3.267 1.75669,-1.8894 3.15043,-4.0835 3.02235,-6.4948 -0.0951,-1.7903 -0.67471,-3.0254 -1.47687,-4.0005 -0.16026,-0.1946 -0.33379,-0.371 -0.50869,-0.5478 l 1.26177,-0.8509 -2.55284,-0.3033 c -0.0313,-0.025 -0.0664,-0.044 -0.0977,-0.069 l 0.33265,-0.8608 -0.87064,0 1.95626,-1.3888 -1.08562,-1.4967 z m -6.39701,1.6139 c 0.35532,0 0.7189,0.029 1.07597,0.088 0.24978,0.043 0.4799,0.085 0.69436,0.1271 l 0,0.5379 -1.5943,0.362 2.21054,0.4108 -1.13457,2.3182 1.85848,-1.2912 -0.1565,2.1617 1.59431,-0.8217 0.0488,1.4966 0.97807,-1.2423 c 0,0 1.69685,1.7505 1.79976,1.9563 0.10267,0.2059 -0.41078,-2.4159 -0.41078,-2.4159 l 0.23475,-0.1565 c 0.18317,0.182 0.36434,0.3682 0.52822,0.5673 0.76736,0.9327 1.30672,2.0831 1.39862,3.8147 0.12145,2.2801 -1.21357,4.4085 -2.9441,6.2698 -1.23322,1.3264 -3.10297,2.544 -5.03745,3.1789 -1.93436,0.635 -3.92079,0.6921 -5.4188198,-0.2641 -1.74204,-1.112 -2.70334,-3.2514 -3.00282,-5.6047 -0.29948,-2.3533 0.0664,-4.9086 0.94877,-6.8078 1.45697,-3.1333 3.8416698,-4.6709 6.3285298,-4.6853 z m -2.02475,1.0173 c -0.15125,0.019 -0.33942,0.1189 -0.48904,0.2836 -0.23951,0.2626 -0.30887,0.5849 -0.1565,0.7238 0.15225,0.1389 0.47451,0.037 0.71402,-0.2249 0.23939,-0.2627 0.30875,-0.5849 0.1565,-0.7239 -0.0576,-0.053 -0.13421,-0.07 -0.22498,-0.059 z m 0.95853,2.0345 c -0.15124,0.019 -0.32965,0.119 -0.47926,0.2836 -0.23951,0.2627 -0.30875,0.5849 -0.1565,0.7238 0.15224,0.1389 0.46474,0.037 0.70425,-0.2249 0.23951,-0.2627 0.31864,-0.5849 0.16627,-0.7239 -0.0563,-0.053 -0.14398,-0.07 -0.23476,-0.059 z m -3.3940698,0.5673 c -0.15124,0.019 -0.32965,0.1202 -0.47926,0.2836 -0.23951,0.2626 -0.30887,0.5849 -0.1565,0.7239 0.15224,0.1388 0.46474,0.038 0.70425,-0.225 0.23938,-0.2627 0.3087498,-0.5849 0.1565,-0.7238 -0.0563,-0.053 -0.13421,-0.07 -0.22499,-0.059 z m 12.8721598,2.9833 c -0.15125,0.019 -0.33942,0.1189 -0.48904,0.2837 -0.23951,0.2625 -0.30874,0.5849 -0.1565,0.7238 0.15224,0.1388 0.47464,0.037 0.71402,-0.225 0.23951,-0.2626 0.30887,-0.585 0.1565,-0.7238 -0.0563,-0.053 -0.13421,-0.07 -0.22498,-0.059 z m -2.54309,0.3032 c -0.16476,-0.017 -0.38774,0.096 -0.56728,0.2935 -0.23951,0.2625 -0.30887,0.5849 -0.1565,0.7238 0.15224,0.1388 0.46475,0.038 0.70425,-0.225 0.23939,-0.2626 0.31852,-0.5849 0.16627,-0.7238 -0.0388,-0.035 -0.0914,-0.063 -0.14674,-0.069 z m -8.2163,0.2641 c -0.15124,0.019 -0.32965,0.1189 -0.47927,0.2837 -0.23951,0.2625 -0.31863,0.5849 -0.16627,0.7238 0.15225,0.1388 0.47451,0.037 0.71402,-0.225 0.23939,-0.2626 0.30875,-0.585 0.15651,-0.7238 -0.0563,-0.053 -0.13422,-0.07 -0.22499,-0.059 z m 3.43326,0.714 c -0.16489,-0.017 -0.38775,0.086 -0.56741,0.2837 -0.23939,0.2625 -0.31851,0.5947 -0.16627,0.7335 0.15237,0.139 0.47464,0.038 0.71402,-0.2249 0.23951,-0.2626 0.30887,-0.585 0.1565,-0.7238 -0.0388,-0.035 -0.0826,-0.063 -0.13684,-0.069 z m -6.2112198,0.626 c -0.15124,0.019 -0.33942,0.1189 -0.48903,0.2837 -0.23951,0.2625 -0.30875,0.5849 -0.1565,0.7238 0.15224,0.1388 0.47463,0.038 0.71402,-0.225 0.23951,-0.2625 0.30887,-0.5849 0.1565,-0.7238 -0.0563,-0.053 -0.13422,-0.07 -0.22499,-0.059 z m 12.7646098,1.389 c -0.15125,0.019 -0.33942,0.1202 -0.48904,0.2837 -0.23938,0.2625 -0.30875,0.5849 -0.1565,0.7238 0.15237,0.1388 0.47464,0.037 0.71402,-0.225 0.23951,-0.2626 0.30887,-0.585 0.1565,-0.7238 -0.0563,-0.053 -0.13421,-0.07 -0.22498,-0.059 z m -4.80258,0.3522 c -0.16477,-0.018 -0.38775,0.096 -0.56729,0.2933 -0.23951,0.2627 -0.31864,0.5849 -0.16627,0.7239 0.15225,0.1389 0.47452,0.038 0.71403,-0.225 0.23938,-0.2626 0.30874,-0.5849 0.1565,-0.7239 -0.0388,-0.035 -0.0826,-0.063 -0.13697,-0.069 z m -4.00055,1.8095 c -0.15124,0.019 -0.32965,0.1189 -0.47927,0.2836 -0.2395,0.2626 -0.31863,0.5849 -0.16626,0.7239 0.15224,0.1388 0.47451,0.038 0.71402,-0.225 0.23938,-0.2627 0.30874,-0.5849 0.1565,-0.7239 -0.0576,-0.053 -0.13422,-0.07 -0.22499,-0.059 z m -4.1179798,0.3618 c -0.15124,0.019 -0.32965,0.119 -0.47927,0.2837 -0.23938,0.2626 -0.31851,0.585 -0.16626,0.7238 0.15224,0.1389 0.47463,0.038 0.71402,-0.225 0.23951,-0.2625 0.30887,-0.5849 0.1565,-0.7238 -0.0563,-0.053 -0.13422,-0.07 -0.22499,-0.059 z m 9.0575298,0.714 c -0.15124,0.019 -0.32965,0.1202 -0.47927,0.2837 -0.23951,0.2626 -0.30887,0.5947 -0.1565,0.7336 0.15225,0.139 0.46475,0.038 0.70426,-0.2249 0.23938,-0.2626 0.30874,-0.5948 0.1565,-0.7336 -0.0563,-0.053 -0.13422,-0.07 -0.22499,-0.059 z m -3.41372,1.7998 c -0.16477,-0.018 -0.38763,0.086 -0.56729,0.2837 -0.23938,0.2626 -0.30874,0.5947 -0.1565,0.7336 0.15237,0.1389 0.46487,0.037 0.70426,-0.2249 0.2395,-0.2627 0.30886,-0.5849 0.1565,-0.7239 -0.0376,-0.035 -0.0814,-0.063 -0.13697,-0.069 z m -4.04938,0.362 c -0.15136,0.019 -0.32965,0.1201 -0.4792598,0.2837 -0.23951,0.2625 -0.30887,0.5947 -0.1565,0.7335 0.15224,0.1389 0.4647398,0.038 0.7042498,-0.225 0.23938,-0.2625 0.30874,-0.5947 0.1565,-0.7335 -0.0563,-0.053 -0.13421,-0.07 -0.22499,-0.059 z"
       id="path18657-7"
       inkscape:connector-curvature="0" />
  </g>
</svg>
