<?xml version="1.0" encoding="UTF-8" standalone="no"?>
<!-- Created with Inkscape (http://www.inkscape.org/) -->

<svg
   xmlns:dc="http://purl.org/dc/elements/1.1/"
   xmlns:cc="http://creativecommons.org/ns#"
   xmlns:rdf="http://www.w3.org/1999/02/22-rdf-syntax-ns#"
   xmlns:svg="http://www.w3.org/2000/svg"
   xmlns="http://www.w3.org/2000/svg"
   xmlns:sodipodi="http://sodipodi.sourceforge.net/DTD/sodipodi-0.dtd"
   xmlns:inkscape="http://www.inkscape.org/namespaces/inkscape"
   width="30"
   height="30"
   id="svg2"
   sodipodi:version="0.32"
   inkscape:version="0.48.4 r9939"
   sodipodi:docname="van1.svg"
   inkscape:output_extension="org.inkscape.output.svg.inkscape"
   version="1.1">
  <defs
     id="defs4" />
  <sodipodi:namedview
     id="base"
     pagecolor="#ffffff"
     bordercolor="#666666"
     borderopacity="1.0"
     inkscape:pageopacity="0.0"
     inkscape:pageshadow="2"
     inkscape:zoom="10.276087"
     inkscape:cx="15.344828"
     inkscape:cy="14.482759"
     inkscape:document-units="px"
     inkscape:current-layer="layer1"
     inkscape:window-width="656"
     inkscape:window-height="1029"
     inkscape:window-x="0"
     inkscape:window-y="19"
     showgrid="false"
     inkscape:window-maximized="0" />
  <metadata
     id="metadata7">
    <rdf:RDF>
      <cc:Work
         rdf:about="">
        <dc:format>image/svg+xml</dc:format>
        <dc:type
           rdf:resource="http://purl.org/dc/dcmitype/StillImage" />
        <dc:title></dc:title>
      </cc:Work>
    </rdf:RDF>
  </metadata>
  <g
     inkscape:label="Capa 1"
     inkscape:groupmode="layer"
     id="layer1"
     transform="translate(0,-1022.3622)">
    <path
       sodipodi:type="arc"
       style="color:#000000;fill:#1a1a1a;stroke:#d4d4d4;stroke-width:1.02777779;stroke-opacity:1;marker:none;visibility:visible;display:inline;overflow:visible;enable-background:accumulate"
       id="path16617-6-6"
       sodipodi:cx="15.16226"
       sodipodi:cy="16.56851"
       sodipodi:rx="14.008413"
       sodipodi:ry="14.008413"
       d="m 29.170673,16.56851 a 14.008413,14.008413 0 1 1 -28.0168263,0 14.008413,14.008413 0 1 1 28.0168263,0 z"
       transform="matrix(0.97297297,0,0,0.97297297,330.50795,953.63241)" />
    <path
       style="fill:#1a1a1a;stroke:#d4d4d4;stroke-width:1px;stroke-linecap:butt;stroke-linejoin:miter;stroke-opacity:1"
       d="m 345.29648,957.89011 0,11.863 0,0"
       id="path16623-6-2"
       inkscape:connector-curvature="0"
       inkscape:transform-center-y="-5.9314904" />
    <path
       style="fill:#1a1a1a;stroke:#d4d4d4;stroke-width:1px;stroke-linecap:butt;stroke-linejoin:miter;stroke-opacity:1"
       d="m 357.15947,969.75311 -1.70877,0 0,0"
       id="path16623-4-2-0"
       inkscape:connector-curvature="0"
       inkscape:transform-center-x="-0.854382" />
    <path
       style="fill:#1a1a1a;stroke:#d4d4d4;stroke-width:0.99999994px;stroke-linecap:butt;stroke-linejoin:miter;stroke-opacity:1"
       d="m 345.29648,981.61611 0,-2.0181 0,0"
       id="path16623-4-3-9-0"
       inkscape:connector-curvature="0"
       inkscape:transform-center-y="1.0091015" />
    <path
       style="fill:#1a1a1a;stroke:#d4d4d4;stroke-width:1px;stroke-linecap:butt;stroke-linejoin:miter;stroke-opacity:1"
       d="m 333.43348,969.75311 11.863,0 0,0"
       id="path16623-4-3-4-1-0"
       inkscape:connector-curvature="0"
       inkscape:transform-center-x="5.9315" />
    <path
       inkscape:connector-curvature="0"
       sodipodi:nodetypes="cccccccccccccc"
       id="path9518-0-7"
       d="m 14.999994,1025.9915 -11.2422196,9.9235 2.2484301,0 0,12.8177 6.7453475,0 0,-7.5644 4.651059,0 1.3e-5,7.5644 6.591159,0 0,-12.8177 2.248444,0 -11.242237,-9.9235 0,0 0,0 z"
       style="font-size:12px;fill:none;stroke:none" />
    <path
       style="fill:#1a1a1a;fill-opacity:1;stroke:none"
       d="m 6.8810352,1025.8097 c -1.00927,0 -1.82513,0.8045 -1.82513,1.8137 l 0,14.0421 c 0,1.0093 0.81586,1.8138 1.82513,1.8138 l 0.65591,0 1.69394,1.8251 1.3631498,0 c -0.7162598,1.2401 -1.7966198,3.1084 -1.7966198,3.1084 l 0.86694,0.5019 c 0,0 0.9711398,-1.6772 2.0874898,-3.6103 l 6.49061,0 c 0.15727,0.2719 0.028,0.043 2.08749,3.6103 l 0.87264,-0.5019 c -1.773,-3.0709 -1.54455,-2.6723 -1.79661,-3.1084 l 1.35744,0 1.69965,-1.8251 0.6559,0 c 1.00928,0 1.82513,-0.8045 1.82513,-1.8138 l 0,-14.0421 c 0,-1.0092 -0.81585,-1.8137 -1.82513,-1.8137 l -16.2379298,0 z m 6.0457298,1.9278 4.14647,0 c 0.0613,0 0.10837,0.052 0.10837,0.114 l 0,0.7985 c 0,0.061 -0.0471,0.1141 -0.10837,0.1141 l -4.14647,0 c -0.0613,0 -0.10836,-0.052 -0.10836,-0.1141 l 0,-0.7985 c 0,-0.061 0.0471,-0.114 0.10836,-0.114 z m -3.9411298,3.3879 12.0287298,0 c 0.38688,0 0.70153,0.3147 0.70153,0.7015 l 0,4.6028 c 0,0.3868 -0.31465,0.7014 -0.70153,0.7014 l -12.0287298,0 c -0.38688,0 -0.69583,-0.3146 -0.69583,-0.7014 l 0,-4.6028 c 0,-0.3868 0.30895,-0.7015 0.69583,-0.7015 z m 0.94108,7.8081 c 0.7810598,0 1.4144798,0.6334 1.4144798,1.4144 0,0.7811 -0.63342,1.4146 -1.4144798,1.4146 -0.78105,0 -1.41447,-0.6335 -1.41447,-1.4146 0,-0.781 0.63342,-1.4144 1.41447,-1.4144 z m 10.1465698,0 c 0.78105,0 1.41447,0.6334 1.41447,1.4144 0,0.7811 -0.63342,1.4146 -1.41447,1.4146 -0.78106,0 -1.41448,-0.6335 -1.41448,-1.4146 0,-0.781 0.63342,-1.4144 1.41448,-1.4144 z"
       id="rect7100-7-7"
       inkscape:connector-curvature="0" />
  </g>
</svg>
