<?xml version="1.0" encoding="UTF-8" standalone="no"?>
<!-- Created with Inkscape (http://www.inkscape.org/) -->

<svg
   xmlns:dc="http://purl.org/dc/elements/1.1/"
   xmlns:cc="http://creativecommons.org/ns#"
   xmlns:rdf="http://www.w3.org/1999/02/22-rdf-syntax-ns#"
   xmlns:svg="http://www.w3.org/2000/svg"
   xmlns="http://www.w3.org/2000/svg"
   xmlns:sodipodi="http://sodipodi.sourceforge.net/DTD/sodipodi-0.dtd"
   xmlns:inkscape="http://www.inkscape.org/namespaces/inkscape"
   width="30"
   height="30"
   id="svg2"
   sodipodi:version="0.32"
   inkscape:version="0.48.4 r9939"
   sodipodi:docname="handicapped_parking.svg"
   inkscape:output_extension="org.inkscape.output.svg.inkscape"
   version="1.1">
  <defs
     id="defs4" />
  <sodipodi:namedview
     id="base"
     pagecolor="#ffffff"
     bordercolor="#666666"
     borderopacity="1.0"
     inkscape:pageopacity="0.0"
     inkscape:pageshadow="2"
     inkscape:zoom="11.6"
     inkscape:cx="15"
     inkscape:cy="15"
     inkscape:document-units="px"
     inkscape:current-layer="layer1"
     inkscape:window-width="698"
     inkscape:window-height="1029"
     inkscape:window-x="0"
     inkscape:window-y="19"
     showgrid="false"
     inkscape:window-maximized="0" />
  <metadata
     id="metadata7">
    <rdf:RDF>
      <cc:Work
         rdf:about="">
        <dc:format>image/svg+xml</dc:format>
        <dc:type
           rdf:resource="http://purl.org/dc/dcmitype/StillImage" />
        <dc:title></dc:title>
      </cc:Work>
    </rdf:RDF>
  </metadata>
  <g
     inkscape:label="Capa 1"
     inkscape:groupmode="layer"
     id="layer1"
     transform="translate(0,-1022.3622)">
    <path
       sodipodi:type="arc"
       style="color:#000000;fill:#1a1a1a;stroke:#d4d4d4;stroke-width:1.02777779;stroke-opacity:1;marker:none;visibility:visible;display:inline;overflow:visible;enable-background:accumulate"
       id="path16617-6-6"
       sodipodi:cx="15.16226"
       sodipodi:cy="16.56851"
       sodipodi:rx="14.008413"
       sodipodi:ry="14.008413"
       d="m 29.170673,16.56851 a 14.008413,14.008413 0 1 1 -28.0168263,0 14.008413,14.008413 0 1 1 28.0168263,0 z"
       transform="matrix(0.97297297,0,0,0.97297297,330.50795,953.63241)" />
    <path
       style="fill:#1a1a1a;stroke:#d4d4d4;stroke-width:1px;stroke-linecap:butt;stroke-linejoin:miter;stroke-opacity:1"
       d="m 345.29648,957.89011 0,11.863 0,0"
       id="path16623-6-2"
       inkscape:connector-curvature="0"
       inkscape:transform-center-y="-5.9314904" />
    <path
       style="fill:#1a1a1a;stroke:#d4d4d4;stroke-width:1px;stroke-linecap:butt;stroke-linejoin:miter;stroke-opacity:1"
       d="m 357.15947,969.75311 -1.70877,0 0,0"
       id="path16623-4-2-0"
       inkscape:connector-curvature="0"
       inkscape:transform-center-x="-0.854382" />
    <path
       style="fill:#1a1a1a;stroke:#d4d4d4;stroke-width:0.99999994px;stroke-linecap:butt;stroke-linejoin:miter;stroke-opacity:1"
       d="m 345.29648,981.61611 0,-2.0181 0,0"
       id="path16623-4-3-9-0"
       inkscape:connector-curvature="0"
       inkscape:transform-center-y="1.0091015" />
    <path
       style="fill:#1a1a1a;stroke:#d4d4d4;stroke-width:1px;stroke-linecap:butt;stroke-linejoin:miter;stroke-opacity:1"
       d="m 333.43348,969.75311 11.863,0 0,0"
       id="path16623-4-3-4-1-0"
       inkscape:connector-curvature="0"
       inkscape:transform-center-x="5.9315" />
    <path
       inkscape:connector-curvature="0"
       sodipodi:nodetypes="cccccccccccccc"
       id="path9518-0-7"
       d="m 14.999994,1025.9915 -11.2422196,9.9235 2.2484301,0 0,12.8177 6.7453475,0 0,-7.5644 4.651059,0 1.3e-5,7.5644 6.591159,0 0,-12.8177 2.248444,0 -11.242237,-9.9235 0,0 0,0 z"
       style="font-size:12px;fill:none;stroke:none" />
    <path
       inkscape:connector-curvature="0"
       style="fill:#1a1a1a;fill-opacity:1;stroke:none"
       d="m 3.0625002,1024.7841 0,2.0937 23.8749998,0 0,-2.0937 -23.8749998,0 z m 11.7499998,3.375 c -6.0170698,0 -10.9062498,4.8579 -10.9062498,10.875 0,6.0171 4.88918,10.9063 10.9062498,10.9063 6.01706,0 10.90625,-4.8892 10.90625,-10.9063 0,-6.0171 -4.88919,-10.875 -10.90625,-10.875 z m 0,1.1875 c 5.34955,0 9.6875,4.3379 9.6875,9.6875 0,5.3496 -4.33795,9.6875 -9.6875,9.6875 -5.3495598,0 -9.6874999,-4.3379 -9.6874999,-9.6875 0,-5.3496 4.3379401,-9.6875 9.6874999,-9.6875 z m -3.8125,3.25 c -1.7008798,0 -3.0624999,1.3927 -3.0624999,3.0938 l 0,6.2812 c 0,1.3607 0.8723701,2.5012 2.0937499,2.9063 l 0,0.9687 1.09375,0 0,-0.75 7.59375,0 0,0.75 1.0625,0 0,-0.9375 C 21.05701,1044.5329 22,1043.3735 22,1041.9716 l 0,-6.2812 c 0,-1.701 -1.36159,-3.0938 -3.0625,-3.0938 l -1.59375,0 -4.9375,0 -1.40625,0 z m -0.6875,1.5 9.09375,0 c 0.64695,0 1.1875,0.5093 1.1875,1.1563 l 0,4.2812 c 0,0.647 -0.54055,1.1563 -1.1875,1.1563 l -9.09375,0 c -0.6469598,0 -1.1874998,-0.5093 -1.1874998,-1.1563 l 0,-4.2812 c 0,-0.647 0.54054,-1.1563 1.1874998,-1.1563 z m 0.34375,7.4688 c 0.53373,0 0.9375,0.435 0.9375,0.9687 0,0.5337 -0.40377,0.9688 -0.9375,0.9688 -0.53372,0 -0.9687498,-0.4351 -0.9687498,-0.9688 0,-0.5337 0.4350298,-0.9687 0.9687498,-0.9687 z m 8.40625,0 c 0.53373,0 0.96875,0.435 0.96875,0.9687 0,0.5337 -0.43502,0.9688 -0.96875,0.9688 -0.53372,0 -0.96875,-0.4351 -0.96875,-0.9688 0,-0.5337 0.43503,-0.9687 0.96875,-0.9687 z"
       id="rect4085-5" />
  </g>
</svg>
