<?xml version="1.0" encoding="UTF-8" standalone="no"?>
<!-- Created with Inkscape (http://www.inkscape.org/) -->

<svg
   xmlns:dc="http://purl.org/dc/elements/1.1/"
   xmlns:cc="http://creativecommons.org/ns#"
   xmlns:rdf="http://www.w3.org/1999/02/22-rdf-syntax-ns#"
   xmlns:svg="http://www.w3.org/2000/svg"
   xmlns="http://www.w3.org/2000/svg"
   xmlns:sodipodi="http://sodipodi.sourceforge.net/DTD/sodipodi-0.dtd"
   xmlns:inkscape="http://www.inkscape.org/namespaces/inkscape"
   width="30"
   height="30"
   id="svg2"
   sodipodi:version="0.32"
   inkscape:version="0.48.4 r9939"
   sodipodi:docname="sun_clouds.svg"
   inkscape:output_extension="org.inkscape.output.svg.inkscape"
   version="1.1">
  <defs
     id="defs4" />
  <sodipodi:namedview
     id="base"
     pagecolor="#ffffff"
     bordercolor="#666666"
     borderopacity="1.0"
     inkscape:pageopacity="0.0"
     inkscape:pageshadow="2"
     inkscape:zoom="10.276087"
     inkscape:cx="15.344828"
     inkscape:cy="14.482759"
     inkscape:document-units="px"
     inkscape:current-layer="layer1"
     inkscape:window-width="656"
     inkscape:window-height="1029"
     inkscape:window-x="0"
     inkscape:window-y="19"
     showgrid="false"
     inkscape:window-maximized="0" />
  <metadata
     id="metadata7">
    <rdf:RDF>
      <cc:Work
         rdf:about="">
        <dc:format>image/svg+xml</dc:format>
        <dc:type
           rdf:resource="http://purl.org/dc/dcmitype/StillImage" />
        <dc:title></dc:title>
      </cc:Work>
    </rdf:RDF>
  </metadata>
  <g
     inkscape:label="Capa 1"
     inkscape:groupmode="layer"
     id="layer1"
     transform="translate(0,-1022.3622)">
    <path
       sodipodi:type="arc"
       style="color:#000000;fill:#1a1a1a;stroke:#d4d4d4;stroke-width:1.02777779;stroke-opacity:1;marker:none;visibility:visible;display:inline;overflow:visible;enable-background:accumulate"
       id="path16617-6-6"
       sodipodi:cx="15.16226"
       sodipodi:cy="16.56851"
       sodipodi:rx="14.008413"
       sodipodi:ry="14.008413"
       d="m 29.170673,16.56851 a 14.008413,14.008413 0 1 1 -28.0168263,0 14.008413,14.008413 0 1 1 28.0168263,0 z"
       transform="matrix(0.97297297,0,0,0.97297297,330.50795,953.63241)" />
    <path
       style="fill:#1a1a1a;stroke:#d4d4d4;stroke-width:1px;stroke-linecap:butt;stroke-linejoin:miter;stroke-opacity:1"
       d="m 345.29648,957.89011 0,11.863 0,0"
       id="path16623-6-2"
       inkscape:connector-curvature="0"
       inkscape:transform-center-y="-5.9314904" />
    <path
       style="fill:#1a1a1a;stroke:#d4d4d4;stroke-width:1px;stroke-linecap:butt;stroke-linejoin:miter;stroke-opacity:1"
       d="m 357.15947,969.75311 -1.70877,0 0,0"
       id="path16623-4-2-0"
       inkscape:connector-curvature="0"
       inkscape:transform-center-x="-0.854382" />
    <path
       style="fill:#1a1a1a;stroke:#d4d4d4;stroke-width:0.99999994px;stroke-linecap:butt;stroke-linejoin:miter;stroke-opacity:1"
       d="m 345.29648,981.61611 0,-2.0181 0,0"
       id="path16623-4-3-9-0"
       inkscape:connector-curvature="0"
       inkscape:transform-center-y="1.0091015" />
    <path
       style="fill:#1a1a1a;stroke:#d4d4d4;stroke-width:1px;stroke-linecap:butt;stroke-linejoin:miter;stroke-opacity:1"
       d="m 333.43348,969.75311 11.863,0 0,0"
       id="path16623-4-3-4-1-0"
       inkscape:connector-curvature="0"
       inkscape:transform-center-x="5.9315" />
    <path
       inkscape:connector-curvature="0"
       sodipodi:nodetypes="cccccccccccccc"
       id="path9518-0-7"
       d="m 14.999994,1025.9915 -11.2422196,9.9235 2.2484301,0 0,12.8177 6.7453475,0 0,-7.5644 4.651059,0 1.3e-5,7.5644 6.591159,0 0,-12.8177 2.248444,0 -11.242237,-9.9235 0,0 0,0 z"
       style="font-size:12px;fill:none;stroke:none" />
    <path
       style="color:#000000;fill:#1a1a1a;fill-opacity:1;fill-rule:nonzero;stroke:none;marker:none;visibility:visible;display:inline;overflow:visible;enable-background:accumulate"
       d="m 15,1025.0966 c -0.488923,0 -1.246487,5.7485 -1.71875,5.875 -0.472263,0.1265 -3.9828298,-4.4632 -4.4062498,-4.2187 -0.42342,0.2444 1.7832208,5.5917 1.4374998,5.9375 -0.3457208,0.3457 -5.6930399,-1.8922 -5.9374999,-1.4688 -0.24446,0.4233 4.3452931,3.9652 4.2187501,4.4375 -0.126543,0.4722 -5.84375,1.1986 -5.84375,1.6875 0,0.4889 5.717207,1.2465 5.84375,1.7188 0.126543,0.4722 -4.4632101,4.014 -4.2187501,4.4375 0.24446,0.4234 5.5917791,-1.8145 5.9374999,-1.4688 0.345721,0.3457 -1.8609198,5.693 -1.4374998,5.9375 0.42342,0.2445 3.9339868,-4.3453 4.4062498,-4.2187 0.472263,0.1265 1.229827,5.875 1.71875,5.875 0.488923,0 1.246487,-5.7485 1.71875,-5.875 0.472263,-0.1266 3.98283,4.4632 4.40625,4.2187 0.42342,-0.2445 -1.783221,-5.5918 -1.4375,-5.9375 0.345721,-0.3457 5.693039,1.8922 5.9375,1.4688 0.244461,-0.4235 -4.345293,-3.9653 -4.21875,-4.4375 0.126543,-0.4723 5.84375,-1.2299 5.84375,-1.7188 0,-0.4889 -5.717207,-1.2153 -5.84375,-1.6875 -0.126543,-0.4723 4.463211,-4.0142 4.21875,-4.4375 -0.244461,-0.4234 -5.591779,1.8145 -5.9375,1.4688 -0.345721,-0.3458 1.86092,-5.6931 1.4375,-5.9375 -0.42342,-0.2445 -3.933987,4.3452 -4.40625,4.2187 -0.472263,-0.1265 -1.229827,-5.875 -1.71875,-5.875 z m 0,7.3125 c 2.728234,0 4.9375,2.2093 4.9375,4.9375 0,2.7282 -2.209266,4.9688 -4.9375,4.9688 -2.728234,0 -4.9375,-2.2406 -4.9375,-4.9688 0,-2.7282 2.209266,-4.9375 4.9375,-4.9375 z"
       id="path56823"
       inkscape:connector-curvature="0" />
  </g>
</svg>
