<?xml version="1.0" encoding="UTF-8" standalone="no"?>
<!-- Created with Inkscape (http://www.inkscape.org/) -->

<svg
   xmlns:dc="http://purl.org/dc/elements/1.1/"
   xmlns:cc="http://creativecommons.org/ns#"
   xmlns:rdf="http://www.w3.org/1999/02/22-rdf-syntax-ns#"
   xmlns:svg="http://www.w3.org/2000/svg"
   xmlns="http://www.w3.org/2000/svg"
   xmlns:sodipodi="http://sodipodi.sourceforge.net/DTD/sodipodi-0.dtd"
   xmlns:inkscape="http://www.inkscape.org/namespaces/inkscape"
   width="30"
   height="30"
   id="svg2"
   sodipodi:version="0.32"
   inkscape:version="0.48.4 r9939"
   sodipodi:docname="newspaper.svg"
   inkscape:output_extension="org.inkscape.output.svg.inkscape"
   version="1.1">
  <defs
     id="defs4" />
  <sodipodi:namedview
     id="base"
     pagecolor="#ffffff"
     bordercolor="#666666"
     borderopacity="1.0"
     inkscape:pageopacity="0.0"
     inkscape:pageshadow="2"
     inkscape:zoom="10.276087"
     inkscape:cx="15.344828"
     inkscape:cy="14.482759"
     inkscape:document-units="px"
     inkscape:current-layer="layer1"
     inkscape:window-width="656"
     inkscape:window-height="1029"
     inkscape:window-x="0"
     inkscape:window-y="19"
     showgrid="false"
     inkscape:window-maximized="0" />
  <metadata
     id="metadata7">
    <rdf:RDF>
      <cc:Work
         rdf:about="">
        <dc:format>image/svg+xml</dc:format>
        <dc:type
           rdf:resource="http://purl.org/dc/dcmitype/StillImage" />
        <dc:title></dc:title>
      </cc:Work>
    </rdf:RDF>
  </metadata>
  <g
     inkscape:label="Capa 1"
     inkscape:groupmode="layer"
     id="layer1"
     transform="translate(0,-1022.3622)">
    <path
       sodipodi:type="arc"
       style="color:#000000;fill:#1a1a1a;stroke:#d4d4d4;stroke-width:1.02777779;stroke-opacity:1;marker:none;visibility:visible;display:inline;overflow:visible;enable-background:accumulate"
       id="path16617-6-6"
       sodipodi:cx="15.16226"
       sodipodi:cy="16.56851"
       sodipodi:rx="14.008413"
       sodipodi:ry="14.008413"
       d="m 29.170673,16.56851 a 14.008413,14.008413 0 1 1 -28.0168263,0 14.008413,14.008413 0 1 1 28.0168263,0 z"
       transform="matrix(0.97297297,0,0,0.97297297,330.50795,953.63241)" />
    <path
       style="fill:#1a1a1a;stroke:#d4d4d4;stroke-width:1px;stroke-linecap:butt;stroke-linejoin:miter;stroke-opacity:1"
       d="m 345.29648,957.89011 0,11.863 0,0"
       id="path16623-6-2"
       inkscape:connector-curvature="0"
       inkscape:transform-center-y="-5.9314904" />
    <path
       style="fill:#1a1a1a;stroke:#d4d4d4;stroke-width:1px;stroke-linecap:butt;stroke-linejoin:miter;stroke-opacity:1"
       d="m 357.15947,969.75311 -1.70877,0 0,0"
       id="path16623-4-2-0"
       inkscape:connector-curvature="0"
       inkscape:transform-center-x="-0.854382" />
    <path
       style="fill:#1a1a1a;stroke:#d4d4d4;stroke-width:0.99999994px;stroke-linecap:butt;stroke-linejoin:miter;stroke-opacity:1"
       d="m 345.29648,981.61611 0,-2.0181 0,0"
       id="path16623-4-3-9-0"
       inkscape:connector-curvature="0"
       inkscape:transform-center-y="1.0091015" />
    <path
       style="fill:#1a1a1a;stroke:#d4d4d4;stroke-width:1px;stroke-linecap:butt;stroke-linejoin:miter;stroke-opacity:1"
       d="m 333.43348,969.75311 11.863,0 0,0"
       id="path16623-4-3-4-1-0"
       inkscape:connector-curvature="0"
       inkscape:transform-center-x="5.9315" />
    <path
       inkscape:connector-curvature="0"
       sodipodi:nodetypes="cccccccccccccc"
       id="path9518-0-7"
       d="m 14.999994,1025.9915 -11.2422196,9.9235 2.2484301,0 0,12.8177 6.7453475,0 0,-7.5644 4.651059,0 1.3e-5,7.5644 6.591159,0 0,-12.8177 2.248444,0 -11.242237,-9.9235 0,0 0,0 z"
       style="font-size:12px;fill:none;stroke:none" />
    <path
       inkscape:connector-curvature="0"
       style="fill:#1a1a1a;fill-opacity:1;fill-rule:evenodd"
       d="m 24.640625,1029.652 c -0.97782,0.059 -3.96707,1.294 -4.96875,1.7187 -1.00178,0.4091 -0.83719,0.4409 -0.96875,0.75 -0.12858,0.2998 -0.0398,0.4317 0.1875,1.0625 0.22131,0.634 0.61812,1.5383 1.15625,2.7188 l -6.84375,3.6562 c 0.63099,-0.2999 1.29737,-0.4126 2,-0.3437 0.69978,0.069 1.35019,0.747 2.1875,0.75 0.83426,-0.015 1.86917,-0.8095 2.78125,-0.8125 0.91499,0 1.92061,0.7096 2.65625,0.7812 0.72364,0.053 1.25261,-0.091 1.65625,-0.4375 l -3.125,-6.875 c 0.87019,-0.3248 1.62763,-0.6439 2.3125,-0.9062 0.67579,-0.2749 1.54523,-0.3409 1.71875,-0.6875 0.15847,-0.3561 0.20695,-1.425 -0.75,-1.375 z m 0.84375,3.9375 c -1.05482,0 -1.90625,0.8985 -1.90625,2 0,1.1015 0.85149,2 1.90625,2 1.05475,0 1.9375,-0.8985 1.9375,-2 0,-1.1015 -0.88268,-2 -1.9375,-2 z m -21.5937503,2.8125 c -0.73572,0.041 -1.02105,0.9285 -0.65625,1.375 0.36487,0.4341 1.90937,0.8879 2.8125,1.2187 0.89709,0.3126 1.72085,0.5376 2.53125,0.6875 0.63396,-0.2966 1.22503,-0.4465 1.7812503,-0.4375 0.55324,0.012 1.10063,0.3969 1.53125,0.4688 0.42465,0.063 0.7488,0.044 1,-0.094 -2.04247,-0.84 -3.7681603,-1.5253 -5.2812503,-2.0625 -1.52212,-0.5434 -2.9802,-1.1969 -3.71875,-1.1563 z m 6.2812503,3.5312 c -0.8074203,0.031 -1.6793003,0.6501 -2.4687503,0.6875 -0.79543,0.013 -1.51605,-0.5873 -2.21875,-0.5937 -0.70866,-0.013 -1.52153,0.4313 -2,0.5312 -0.47847,0.091 -0.7926497,0.1032 -0.9062497,0.031 l 0,1.6563 c 0.1136,0.072 0.4277797,0.059 0.9062497,-0.031 0.47847,-0.1 1.29127,-0.5437 2,-0.5313 0.70277,0.01 1.42332,0.6064 2.21875,0.5938 0.78945,-0.031 1.66133,-0.6656 2.4687503,-0.6875 0.78647,-0.031 1.48875,0.55 2.28125,0.5625 0.80444,0.01 1.60752,-0.5468 2.46875,-0.5313 0.84924,0.012 1.72654,0.5968 2.59375,0.5938 0.85222,-0.019 1.67435,-0.6188 2.5625,-0.625 0.89113,0 1.84545,0.578 2.71875,0.5937 0.86111,0 1.77533,-0.5407 2.40625,-0.5625 0.616,-0.028 0.94173,0.3563 1.3125,0.4375 0.3648,0.078 0.62841,0.097 0.84375,0.031 l 0,-1.6562 c -0.21534,0.066 -0.47895,0.047 -0.84375,-0.031 -0.37077,-0.084 -0.6965,-0.4905 -1.3125,-0.4688 -0.63099,0.022 -1.54514,0.5938 -2.40625,0.5938 -0.8733,-0.019 -1.82762,-0.5938 -2.71875,-0.5938 -0.88815,0.01 -1.71028,0.6063 -2.5625,0.625 -0.86721,0 -1.74451,-0.5812 -2.59375,-0.5937 -0.86123,-0.022 -1.66431,0.5376 -2.46875,0.5312 -0.79244,-0.015 -1.49478,-0.5874 -2.28125,-0.5625 z m 0,2.75 c -0.8074203,0.031 -1.6793003,0.6812 -2.4687503,0.7188 -0.79543,0.012 -1.51605,-0.5875 -2.21875,-0.5938 -0.70866,-0.012 -1.52153,0.4313 -2,0.5313 -0.47847,0.097 -0.7926497,0.1 -0.9062497,0.031 l 0,1.6562 c 0.1136,0.069 0.4277797,0.066 0.9062497,-0.031 0.47847,-0.1 1.29127,-0.5436 2,-0.5312 0.70277,0.01 1.42332,0.5749 2.21875,0.5625 0.78945,-0.038 1.66133,-0.6563 2.4687503,-0.6875 0.78647,-0.025 1.48875,0.5469 2.28125,0.5625 0.80444,0.01 1.60752,-0.5219 2.46875,-0.5 0.84924,0.013 1.72654,0.5969 2.59375,0.5937 0.85222,-0.019 1.67435,-0.6501 2.5625,-0.6562 0.89113,0 1.84545,0.6063 2.71875,0.625 0.86111,0 1.77533,-0.5719 2.40625,-0.5938 0.616,-0.022 0.94173,0.3843 1.3125,0.4688 0.3648,0.078 0.62841,0.065 0.84375,0 l 0,-1.625 c -0.21534,0.059 -0.47895,0.047 -0.84375,-0.031 -0.37077,-0.081 -0.6965,-0.4969 -1.3125,-0.4688 -0.63099,0.022 -1.54514,0.5938 -2.40625,0.5938 -0.8733,-0.019 -1.82762,-0.625 -2.71875,-0.625 -0.88815,0.01 -1.71028,0.6376 -2.5625,0.6562 -0.86721,0 -1.74451,-0.5812 -2.59375,-0.5937 -0.86123,-0.022 -1.66431,0.5062 -2.46875,0.5 -0.79244,-0.016 -1.49478,-0.5875 -2.28125,-0.5625 z"
       id="path113-9-0-4" />
  </g>
</svg>
