<?xml version="1.0" encoding="UTF-8" standalone="no"?>
<!-- Created with Inkscape (http://www.inkscape.org/) -->

<svg
   xmlns:dc="http://purl.org/dc/elements/1.1/"
   xmlns:cc="http://creativecommons.org/ns#"
   xmlns:rdf="http://www.w3.org/1999/02/22-rdf-syntax-ns#"
   xmlns:svg="http://www.w3.org/2000/svg"
   xmlns="http://www.w3.org/2000/svg"
   xmlns:sodipodi="http://sodipodi.sourceforge.net/DTD/sodipodi-0.dtd"
   xmlns:inkscape="http://www.inkscape.org/namespaces/inkscape"
   width="30"
   height="30"
   id="svg2"
   sodipodi:version="0.32"
   inkscape:version="0.48.4 r9939"
   sodipodi:docname="tennis.svg"
   inkscape:output_extension="org.inkscape.output.svg.inkscape"
   version="1.1">
  <defs
     id="defs4" />
  <sodipodi:namedview
     id="base"
     pagecolor="#ffffff"
     bordercolor="#666666"
     borderopacity="1.0"
     inkscape:pageopacity="0.0"
     inkscape:pageshadow="2"
     inkscape:zoom="10.276087"
     inkscape:cx="15.344828"
     inkscape:cy="14.482759"
     inkscape:document-units="px"
     inkscape:current-layer="layer1"
     inkscape:window-width="656"
     inkscape:window-height="1029"
     inkscape:window-x="0"
     inkscape:window-y="19"
     showgrid="false"
     inkscape:window-maximized="0" />
  <metadata
     id="metadata7">
    <rdf:RDF>
      <cc:Work
         rdf:about="">
        <dc:format>image/svg+xml</dc:format>
        <dc:type
           rdf:resource="http://purl.org/dc/dcmitype/StillImage" />
        <dc:title></dc:title>
      </cc:Work>
    </rdf:RDF>
  </metadata>
  <g
     inkscape:label="Capa 1"
     inkscape:groupmode="layer"
     id="layer1"
     transform="translate(0,-1022.3622)">
    <path
       sodipodi:type="arc"
       style="color:#000000;fill:#1a1a1a;stroke:#d4d4d4;stroke-width:1.02777779;stroke-opacity:1;marker:none;visibility:visible;display:inline;overflow:visible;enable-background:accumulate"
       id="path16617-6-6"
       sodipodi:cx="15.16226"
       sodipodi:cy="16.56851"
       sodipodi:rx="14.008413"
       sodipodi:ry="14.008413"
       d="m 29.170673,16.56851 a 14.008413,14.008413 0 1 1 -28.0168263,0 14.008413,14.008413 0 1 1 28.0168263,0 z"
       transform="matrix(0.97297297,0,0,0.97297297,330.50795,953.63241)" />
    <path
       style="fill:#1a1a1a;stroke:#d4d4d4;stroke-width:1px;stroke-linecap:butt;stroke-linejoin:miter;stroke-opacity:1"
       d="m 345.29648,957.89011 0,11.863 0,0"
       id="path16623-6-2"
       inkscape:connector-curvature="0"
       inkscape:transform-center-y="-5.9314904" />
    <path
       style="fill:#1a1a1a;stroke:#d4d4d4;stroke-width:1px;stroke-linecap:butt;stroke-linejoin:miter;stroke-opacity:1"
       d="m 357.15947,969.75311 -1.70877,0 0,0"
       id="path16623-4-2-0"
       inkscape:connector-curvature="0"
       inkscape:transform-center-x="-0.854382" />
    <path
       style="fill:#1a1a1a;stroke:#d4d4d4;stroke-width:0.99999994px;stroke-linecap:butt;stroke-linejoin:miter;stroke-opacity:1"
       d="m 345.29648,981.61611 0,-2.0181 0,0"
       id="path16623-4-3-9-0"
       inkscape:connector-curvature="0"
       inkscape:transform-center-y="1.0091015" />
    <path
       style="fill:#1a1a1a;stroke:#d4d4d4;stroke-width:1px;stroke-linecap:butt;stroke-linejoin:miter;stroke-opacity:1"
       d="m 333.43348,969.75311 11.863,0 0,0"
       id="path16623-4-3-4-1-0"
       inkscape:connector-curvature="0"
       inkscape:transform-center-x="5.9315" />
    <path
       inkscape:connector-curvature="0"
       sodipodi:nodetypes="cccccccccccccc"
       id="path9518-0-7"
       d="m 14.999994,1025.9915 -11.2422196,9.9235 2.2484301,0 0,12.8177 6.7453475,0 0,-7.5644 4.651059,0 1.3e-5,7.5644 6.591159,0 0,-12.8177 2.248444,0 -11.242237,-9.9235 0,0 0,0 z"
       style="font-size:12px;fill:none;stroke:none" />
    <path
       inkscape:connector-curvature="0"
       style="fill:#1a1a1a;fill-opacity:1;fill-rule:evenodd;stroke:none"
       d="m 2.9843728,1026.5927 c 3.89228,2.405 7.1798902,4.8269 10.0625002,7.2813 -0.29212,0.2647 -0.58931,0.5016 -0.875,0.7812 -1.77233,1.7347 -3.4070503,3.4508 -4.9375002,5.1563 -0.43048,-0.3746 -1.34618,-1.002 -2.625,-0.875 -1.35699,0.1347 -2.51151,1.6281 -2.625,3.4375 -0.0765,1.22 0.64011,1.9659 1.125,2.3437 -0.31036,0.3947 -0.63855,0.7945 -0.9375,1.1875 0,0 -0.68094,1.0053 0,1.8438 0.68096,0.8385 1.69408,0.044 1.65625,0 1.20341,-1.4806 2.43813,-2.9579 3.71875,-4.4375 0.1632,0.1657 0.36039,0.2812 0.5937499,0.2812 0.51322,0 0.9375,-0.495 0.9375,-1.0937 0,-0.258 -0.0898,-0.4702 -0.21875,-0.6563 1.8714703,-2.089 3.8821703,-4.1774 6.1562503,-6.25 2.26789,2.068 4.25768,4.1656 6.125,6.25 -0.12761,0.1856 -0.21875,0.3998 -0.21875,0.6563 0,0.5987 0.42428,1.0937 0.9375,1.0937 0.23194,0 0.43094,-0.1173 0.59375,-0.2812 1.28225,1.4813 2.51394,2.9552 3.71875,4.4375 -0.0378,0.044 0.9753,0.8385 1.65625,0 0.68095,-0.8385 0,-1.8438 0,-1.8438 -0.29895,-0.393 -0.62714,-0.7928 -0.9375,-1.1875 0.48483,-0.3762 1.23306,-1.1193 1.15625,-2.3437 -0.11349,-1.8094 -1.26801,-3.3028 -2.625,-3.4375 -1.2657,-0.1257 -2.18848,0.4988 -2.625,0.875 -1.53045,-1.7055 -3.16517,-3.4216 -4.9375,-5.1563 -0.28276,-0.2768 -0.58594,-0.5191 -0.875,-0.7812 2.88074,-2.4521 6.14248,-4.8784 10.03125,-7.2813 -4.26134,1.032 -8.32415,2.8196 -12,5.625 -3.67745,-2.8081 -7.7675302,-4.5925 -12.0312502,-5.625 z m 1.53125,14.4063 c 0.43833,0.01 0.86252,0.305 1.1875,0.5625 -0.6645,0.7754 -1.31852,1.5433 -1.9375,2.3125 -0.22724,-0.7242 -0.48418,-1.8129 0.0313,-2.5 0.19861,-0.2648 0.46162,-0.3792 0.71875,-0.375 z m 21.0000002,0 c 0.25713,0 0.48889,0.1102 0.6875,0.375 0.5222,0.6961 0.29244,1.8091 0.0625,2.5312 -0.62987,-0.7835 -1.29166,-1.5538 -1.96875,-2.3437 0.32536,-0.2598 0.7742,-0.5554 1.21875,-0.5625 z"
       id="path10062-7" />
  </g>
</svg>
