<?xml version="1.0" encoding="UTF-8" standalone="no"?>
<!-- Created with Inkscape (http://www.inkscape.org/) -->

<svg
   xmlns:dc="http://purl.org/dc/elements/1.1/"
   xmlns:cc="http://creativecommons.org/ns#"
   xmlns:rdf="http://www.w3.org/1999/02/22-rdf-syntax-ns#"
   xmlns:svg="http://www.w3.org/2000/svg"
   xmlns="http://www.w3.org/2000/svg"
   xmlns:sodipodi="http://sodipodi.sourceforge.net/DTD/sodipodi-0.dtd"
   xmlns:inkscape="http://www.inkscape.org/namespaces/inkscape"
   width="30"
   height="30"
   id="svg2"
   sodipodi:version="0.32"
   inkscape:version="0.48.4 r9939"
   sodipodi:docname="smoking.svg"
   inkscape:output_extension="org.inkscape.output.svg.inkscape"
   version="1.1">
  <defs
     id="defs4" />
  <sodipodi:namedview
     id="base"
     pagecolor="#ffffff"
     bordercolor="#666666"
     borderopacity="1.0"
     inkscape:pageopacity="0.0"
     inkscape:pageshadow="2"
     inkscape:zoom="10.276087"
     inkscape:cx="15.344828"
     inkscape:cy="14.482759"
     inkscape:document-units="px"
     inkscape:current-layer="layer1"
     inkscape:window-width="656"
     inkscape:window-height="1029"
     inkscape:window-x="0"
     inkscape:window-y="19"
     showgrid="false"
     inkscape:window-maximized="0" />
  <metadata
     id="metadata7">
    <rdf:RDF>
      <cc:Work
         rdf:about="">
        <dc:format>image/svg+xml</dc:format>
        <dc:type
           rdf:resource="http://purl.org/dc/dcmitype/StillImage" />
        <dc:title></dc:title>
      </cc:Work>
    </rdf:RDF>
  </metadata>
  <g
     inkscape:label="Capa 1"
     inkscape:groupmode="layer"
     id="layer1"
     transform="translate(0,-1022.3622)">
    <path
       sodipodi:type="arc"
       style="color:#000000;fill:#1a1a1a;stroke:#d4d4d4;stroke-width:1.02777779;stroke-opacity:1;marker:none;visibility:visible;display:inline;overflow:visible;enable-background:accumulate"
       id="path16617-6-6"
       sodipodi:cx="15.16226"
       sodipodi:cy="16.56851"
       sodipodi:rx="14.008413"
       sodipodi:ry="14.008413"
       d="m 29.170673,16.56851 a 14.008413,14.008413 0 1 1 -28.0168263,0 14.008413,14.008413 0 1 1 28.0168263,0 z"
       transform="matrix(0.97297297,0,0,0.97297297,330.50795,953.63241)" />
    <path
       style="fill:#1a1a1a;stroke:#d4d4d4;stroke-width:1px;stroke-linecap:butt;stroke-linejoin:miter;stroke-opacity:1"
       d="m 345.29648,957.89011 0,11.863 0,0"
       id="path16623-6-2"
       inkscape:connector-curvature="0"
       inkscape:transform-center-y="-5.9314904" />
    <path
       style="fill:#1a1a1a;stroke:#d4d4d4;stroke-width:1px;stroke-linecap:butt;stroke-linejoin:miter;stroke-opacity:1"
       d="m 357.15947,969.75311 -1.70877,0 0,0"
       id="path16623-4-2-0"
       inkscape:connector-curvature="0"
       inkscape:transform-center-x="-0.854382" />
    <path
       style="fill:#1a1a1a;stroke:#d4d4d4;stroke-width:0.99999994px;stroke-linecap:butt;stroke-linejoin:miter;stroke-opacity:1"
       d="m 345.29648,981.61611 0,-2.0181 0,0"
       id="path16623-4-3-9-0"
       inkscape:connector-curvature="0"
       inkscape:transform-center-y="1.0091015" />
    <path
       style="fill:#1a1a1a;stroke:#d4d4d4;stroke-width:1px;stroke-linecap:butt;stroke-linejoin:miter;stroke-opacity:1"
       d="m 333.43348,969.75311 11.863,0 0,0"
       id="path16623-4-3-4-1-0"
       inkscape:connector-curvature="0"
       inkscape:transform-center-x="5.9315" />
    <path
       inkscape:connector-curvature="0"
       sodipodi:nodetypes="cccccccccccccc"
       id="path9518-0-7"
       d="m 14.999994,1025.9915 -11.2422196,9.9235 2.2484301,0 0,12.8177 6.7453475,0 0,-7.5644 4.651059,0 1.3e-5,7.5644 6.591159,0 0,-12.8177 2.248444,0 -11.242237,-9.9235 0,0 0,0 z"
       style="font-size:12px;fill:none;stroke:none" />
    <path
       id="path3360-4"
       style="fill:#1a1a1a;fill-opacity:1"
       d="m 9.7135085,1042.9328 c -0.79737,-0.111 -1.55904,-0.5836 -1.9425,-1.302 0.42462,-0.4718 1.03101,0.012 1.52677,0.052 1.1562905,0.1462 2.2369205,-0.6141 2.8001805,-1.5796 0.36514,-0.3499 0.41272,-1.3043 1.04777,-1.1645 0.458,0.2536 0.37169,0.8368 0.25981,1.2605 -0.0724,0.565 -0.34699,1.073 -0.70993,1.5036 -0.28591,0.3831 -0.56983,0.8212 -1.06433,0.948 -0.63239,0.1172 -1.26166,0.4165 -1.9177705,0.2827 z m -2.82515,-6.1818 c -0.6095301,-0.3597 -1.3442501,-0.581 -1.7763301,-1.1782 -0.0964,-0.6796 0.76084,-1.1225 1.33104,-0.8573 0.6714701,0.2102 1.3064501,0.5947 1.7313801,1.1642 0.28206,0.5124 -0.20751,1.3216 -0.81665,1.0577 -0.16154,-0.049 -0.31206,-0.1265 -0.46944,-0.1864 z m 3.8876105,-1.2579 c -0.42632,-0.5599 -0.43031,-1.5345 0.2322,-1.9186 0.43513,-0.2874 1.05956,-0.485 1.52204,-0.1457 0.24277,0.5003 -0.18479,0.9587 -0.37771,1.3916 -0.11655,0.4371 -0.40321,0.9281 -0.90275,0.9716 -0.20113,0.012 -0.37971,-0.1286 -0.47378,-0.2989 z m 4.59732,-8.0896 c -0.40872,0.1048 -0.39687,0.5951 -0.50035,0.9432 -0.084,-0.1893 -0.16998,-0.5018 -0.35169,-0.5676 -0.89673,0.6041 -1.7654,1.2701 -2.65685,1.8944 -0.96697,0.6879 -2.0692605,1.1961 -3.2435305,1.3747 -2.0365601,0.4208 -4.1311201,0.2708 -6.1657301,-0.088 -0.29045,-0.02 -0.59925,0.014 -0.85044,0.1711 -0.32851,0.3217 0.016,0.7922 0.0575,1.1589 0.48121,2.1476 0.9797,4.3286 2.06696,6.2649 1.4929,2.9899 3.3263801,5.91 5.9099701,8.0616 1.3053805,0.8898 3.2427905,0.9582 4.4216805,-0.187 0.28601,-0.2545 0.54221,-0.5332 0.77371,-0.8296 0.79957,1.2038 2.28561,1.9974 3.73269,1.632 2.28731,-0.4716 4.11023,-2.1927 5.2977,-4.1404 2.22625,-3.4782 3.48368,-7.4454 4.6231,-11.3849 0.0219,-0.2096 0.10664,-0.533 -0.0208,-0.6842 -1.09805,0.076 -2.20382,0.2215 -3.30746,0.318 -1.20271,0.1147 -2.4323,0.012 -3.55845,-0.4379 -2.00961,-0.6657 -3.78085,-1.8646 -5.39202,-3.2163 -0.24629,-0.1648 -0.53441,-0.2942 -0.83606,-0.2831 z m -1.26448,1.8512 c 0.15724,0.057 0.23112,0.3281 0.30373,0.4907 0.003,0.016 0.007,0.031 0.0111,0.047 -0.509,1.7085 -0.93615,3.4473 -0.95755,5.2386 -0.19396,3.2015 -0.0861,6.5023 0.91759,9.5611 -0.2002,0.2569 -0.42377,0.4975 -0.67141,0.7178 -1.01481,0.9857 -2.68252,0.9274 -3.8062305,0.1614 -2.224,-1.8521 -3.8031701,-4.3656 -5.0882801,-6.9394 -0.93594,-1.6667 -1.36339,-3.5448 -1.77763,-5.3936 -0.0358,-0.3157 -0.33394,-0.7206 -0.0512,-0.9976 0.21623,-0.1356 0.48213,-0.1635 0.73215,-0.147 1.75144,0.3087 3.5557801,0.4388 5.3088901,0.077 1.0108305,-0.1538 1.9587405,-0.5923 2.7911305,-1.1845 0.76737,-0.5375 1.51565,-1.1107 2.28757,-1.6306 z m 4.85809,3.4848 c 0.9529,-0.03 1.38874,1.3324 0.74015,1.9552 -0.87365,0.9416 -2.24539,1.573 -3.53607,1.2388 -0.79265,-0.2849 -1.23981,-1.4268 -0.63623,-2.0957 0.95065,-0.8258 2.31473,-0.6868 3.43215,-1.0983 z m 3.85579,0.8474 c 1.00033,-0.03 1.72926,0.916 1.85915,1.8318 0.26125,0.6306 0.72357,1.3398 0.39645,2.0351 -0.24008,0.5236 -0.9203,0.6195 -1.41155,0.4267 -1.1752,-0.2729 -1.95914,-1.4358 -1.98225,-2.6168 -0.10683,-0.6774 0.21113,-1.5456 0.96395,-1.6577 0.0571,-0.012 0.1158,-0.018 0.17425,-0.02 z m -3.88136,6.1704 c 1.23458,0.02 2.36356,0.7726 3.08686,1.7328 0.45964,0.7887 0.24062,2.053 -0.69219,2.3755 -0.64067,0.1413 -1.06491,-0.4719 -1.5746,-0.7352 -0.81613,-0.5227 -1.85789,-0.5296 -2.74956,-0.2175 -0.26695,0.084 -0.59164,0.079 -0.84246,-0.047 0.19807,-0.7209 0.30966,-1.468 0.3501,-2.2077 0.69251,-0.534 1.53812,-0.8988 2.42185,-0.9016 z"
       inkscape:connector-curvature="0" />
  </g>
</svg>
