<?xml version="1.0" encoding="UTF-8" standalone="no"?>
<!-- Created with Inkscape (http://www.inkscape.org/) -->

<svg
   xmlns:dc="http://purl.org/dc/elements/1.1/"
   xmlns:cc="http://creativecommons.org/ns#"
   xmlns:rdf="http://www.w3.org/1999/02/22-rdf-syntax-ns#"
   xmlns:svg="http://www.w3.org/2000/svg"
   xmlns="http://www.w3.org/2000/svg"
   xmlns:sodipodi="http://sodipodi.sourceforge.net/DTD/sodipodi-0.dtd"
   xmlns:inkscape="http://www.inkscape.org/namespaces/inkscape"
   width="30"
   height="30"
   id="svg2"
   sodipodi:version="0.32"
   inkscape:version="0.48.4 r9939"
   sodipodi:docname="swimming.svg"
   inkscape:output_extension="org.inkscape.output.svg.inkscape"
   version="1.1">
  <defs
     id="defs4" />
  <sodipodi:namedview
     id="base"
     pagecolor="#ffffff"
     bordercolor="#666666"
     borderopacity="1.0"
     inkscape:pageopacity="0.0"
     inkscape:pageshadow="2"
     inkscape:zoom="10.276087"
     inkscape:cx="15.344828"
     inkscape:cy="14.482759"
     inkscape:document-units="px"
     inkscape:current-layer="layer1"
     inkscape:window-width="656"
     inkscape:window-height="1029"
     inkscape:window-x="0"
     inkscape:window-y="19"
     showgrid="false"
     inkscape:window-maximized="0" />
  <metadata
     id="metadata7">
    <rdf:RDF>
      <cc:Work
         rdf:about="">
        <dc:format>image/svg+xml</dc:format>
        <dc:type
           rdf:resource="http://purl.org/dc/dcmitype/StillImage" />
        <dc:title></dc:title>
      </cc:Work>
    </rdf:RDF>
  </metadata>
  <g
     inkscape:label="Capa 1"
     inkscape:groupmode="layer"
     id="layer1"
     transform="translate(0,-1022.3622)">
    <path
       sodipodi:type="arc"
       style="color:#000000;fill:#1a1a1a;stroke:#d4d4d4;stroke-width:1.02777779;stroke-opacity:1;marker:none;visibility:visible;display:inline;overflow:visible;enable-background:accumulate"
       id="path16617-6-6"
       sodipodi:cx="15.16226"
       sodipodi:cy="16.56851"
       sodipodi:rx="14.008413"
       sodipodi:ry="14.008413"
       d="m 29.170673,16.56851 a 14.008413,14.008413 0 1 1 -28.0168263,0 14.008413,14.008413 0 1 1 28.0168263,0 z"
       transform="matrix(0.97297297,0,0,0.97297297,330.50795,953.63241)" />
    <path
       style="fill:#1a1a1a;stroke:#d4d4d4;stroke-width:1px;stroke-linecap:butt;stroke-linejoin:miter;stroke-opacity:1"
       d="m 345.29648,957.89011 0,11.863 0,0"
       id="path16623-6-2"
       inkscape:connector-curvature="0"
       inkscape:transform-center-y="-5.9314904" />
    <path
       style="fill:#1a1a1a;stroke:#d4d4d4;stroke-width:1px;stroke-linecap:butt;stroke-linejoin:miter;stroke-opacity:1"
       d="m 357.15947,969.75311 -1.70877,0 0,0"
       id="path16623-4-2-0"
       inkscape:connector-curvature="0"
       inkscape:transform-center-x="-0.854382" />
    <path
       style="fill:#1a1a1a;stroke:#d4d4d4;stroke-width:0.99999994px;stroke-linecap:butt;stroke-linejoin:miter;stroke-opacity:1"
       d="m 345.29648,981.61611 0,-2.0181 0,0"
       id="path16623-4-3-9-0"
       inkscape:connector-curvature="0"
       inkscape:transform-center-y="1.0091015" />
    <path
       style="fill:#1a1a1a;stroke:#d4d4d4;stroke-width:1px;stroke-linecap:butt;stroke-linejoin:miter;stroke-opacity:1"
       d="m 333.43348,969.75311 11.863,0 0,0"
       id="path16623-4-3-4-1-0"
       inkscape:connector-curvature="0"
       inkscape:transform-center-x="5.9315" />
    <path
       inkscape:connector-curvature="0"
       sodipodi:nodetypes="cccccccccccccc"
       id="path9518-0-7"
       d="m 14.999994,1025.9915 -11.2422196,9.9235 2.2484301,0 0,12.8177 6.7453475,0 0,-7.5644 4.651059,0 1.3e-5,7.5644 6.591159,0 0,-12.8177 2.248444,0 -11.242237,-9.9235 0,0 0,0 z"
       style="font-size:12px;fill:none;stroke:none" />
    <path
       id="rect9563-76-6-8-5"
       style="color:#000000;fill:#1a1a1a;fill-opacity:1;fill-rule:nonzero;stroke:none;stroke-width:1.10000002;marker:none;visibility:visible;display:inline;overflow:visible;enable-background:accumulate"
       d="m 13.769385,1039.3005 0.51918,0 c 0.0329,0 0.0594,0.026 0.0594,0.06 l 0,0.079 c 0,0.033 -0.0265,0.06 -0.0594,0.06 l -0.51918,0 c -0.0329,0 -0.0594,-0.026 -0.0594,-0.06 l 0,-0.079 c 0,-0.033 0.0265,-0.06 0.0594,-0.06 z m 0,-0.8519 0.51918,0 c 0.0329,0 0.0594,0.026 0.0594,0.06 l 0,0.079 c 0,0.033 -0.0265,0.06 -0.0594,0.06 l -0.51918,0 c -0.0329,0 -0.0594,-0.026 -0.0594,-0.06 l 0,-0.079 c 0,-0.033 0.0265,-0.06 0.0594,-0.06 z m 0,-0.852 0.51918,0 c 0.0329,0 0.0594,0.026 0.0594,0.06 l 0,0.079 c 0,0.033 -0.0265,0.06 -0.0594,0.06 l -0.51918,0 c -0.0329,0 -0.0594,-0.026 -0.0594,-0.06 l 0,-0.079 c 0,-0.033 0.0265,-0.06 0.0594,-0.06 z m 0,-0.852 0.51918,0 c 0.0329,0 0.0594,0.026 0.0594,0.06 l 0,0.079 c 0,0.032 -0.0265,0.06 -0.0594,0.06 l -0.51918,0 c -0.0329,0 -0.0594,-0.026 -0.0594,-0.06 l 0,-0.079 c 0,-0.033 0.0265,-0.06 0.0594,-0.06 z m 0,-0.8518 0.51918,0 c 0.0329,0 0.0594,0.026 0.0594,0.06 l 0,0.079 c 0,0.033 -0.0265,0.06 -0.0594,0.06 l -0.51918,0 c -0.0329,0 -0.0594,-0.027 -0.0594,-0.06 l 0,-0.079 c 0,-0.033 0.0265,-0.06 0.0594,-0.06 z m 0,-0.8519 0.51918,0 c 0.0329,0 0.0594,0.026 0.0594,0.06 l 0,0.079 c 0,0.033 -0.0265,0.06 -0.0594,0.06 l -0.51918,0 c -0.0329,0 -0.0594,-0.026 -0.0594,-0.06 l 0,-0.079 c 0,-0.033 0.0265,-0.06 0.0594,-0.06 z m 0,-0.852 0.51918,0 c 0.0329,0 0.0594,0.026 0.0594,0.06 l 0,0.079 c 0,0.033 -0.0265,0.06 -0.0594,0.06 l -0.51918,0 c -0.0329,0 -0.0594,-0.026 -0.0594,-0.06 l 0,-0.079 c 0,-0.033 0.0265,-0.06 0.0594,-0.06 z m 0,-0.8519 0.51918,0 c 0.0329,0 0.0594,0.026 0.0594,0.06 l 0,0.079 c 0,0.032 -0.0265,0.06 -0.0594,0.06 l -0.51918,0 c -0.0329,0 -0.0594,-0.026 -0.0594,-0.06 l 0,-0.079 c 0,-0.033 0.0265,-0.06 0.0594,-0.06 z m 0,-0.8519 0.51918,0 c 0.0329,0 0.0594,0.026 0.0594,0.06 l 0,0.079 c 0,0.033 -0.0265,0.06 -0.0594,0.06 l -0.51918,0 c -0.0329,0 -0.0594,-0.026 -0.0594,-0.06 l 0,-0.079 c 0,-0.033 0.0265,-0.06 0.0594,-0.06 z m 0,-0.852 0.51918,0 c 0.0329,0 0.0594,0.026 0.0594,0.06 l 0,0.079 c 0,0.033 -0.0265,0.06 -0.0594,0.06 l -0.51918,0 c -0.0329,0 -0.0594,-0.026 -0.0594,-0.06 l 0,-0.079 c 0,-0.033 0.0265,-0.06 0.0594,-0.06 z m 0,-0.8518 0.51918,0 c 0.0329,0 0.0594,0.026 0.0594,0.06 l 0,0.079 c 0,0.033 -0.0265,0.06 -0.0594,0.06 l -0.51918,0 c -0.0329,0 -0.0594,-0.026 -0.0594,-0.06 l 0,-0.079 c 0,-0.033 0.0265,-0.06 0.0594,-0.06 z m 0,-0.852 0.51918,0 c 0.0329,0 0.0594,0.026 0.0594,0.06 l 0,0.079 c 0,0.033 -0.0265,0.06 -0.0594,0.06 l -0.51918,0 c -0.0329,0 -0.0594,-0.026 -0.0594,-0.06 l 0,-0.079 c 0,-0.033 0.0265,-0.06 0.0594,-0.06 z m 0,-0.8519 0.51918,0 c 0.0329,0 0.0594,0.026 0.0594,0.06 l 0,0.079 c 0,0.033 -0.0265,0.06 -0.0594,0.06 l -0.51918,0 c -0.0329,0 -0.0594,-0.026 -0.0594,-0.06 l 0,-0.079 c 0,-0.032 0.0265,-0.06 0.0594,-0.06 z m 0,-0.852 0.51918,0 c 0.0329,0 0.0594,0.026 0.0594,0.06 l 0,0.079 c 0,0.033 -0.0265,0.06 -0.0594,0.06 l -0.51918,0 c -0.0329,0 -0.0594,-0.026 -0.0594,-0.06 l 0,-0.079 c 0,-0.033 0.0265,-0.06 0.0594,-0.06 z m 0.007,-0.632 c 0.065,0 0.11728,0.046 0.11728,0.103 l 0,12.4593 c 0,0.057 -0.0523,0.103 -0.11728,0.103 -0.065,0 -0.11728,-0.046 -0.11728,-0.103 l 0,-12.4593 c 0,-0.057 0.0523,-0.103 0.11728,-0.103 z m 0.97372,-2.7735 c -0.92973,0 -1.67705,0.7474 -1.67705,1.6771 l 0,16.8635 c -0.97789,0.6333 -1.62623,1.7304 -1.62623,2.9815 0,0.2481 0.0193,0.4947 0.0678,0.7284 0.28636,1.4929 1.530911,2.6392 3.06612,2.7951 0.0198,0 0.0394,0.011 0.0593,0.011 0.0979,0.011 0.196451,0.017 0.29645,0.017 0.0205,0 0.0387,0.011 0.0593,0.011 1.962048,0 3.557378,-1.5953 3.557378,-3.5573 0,-1.2784 -0.680389,-2.3977 -1.693989,-3.0238 l 0,-16.8213 c 0,-0.9297 -0.74732,-1.6771 -1.67705,-1.6771 l -0.431969,0 z m 0,0.144 0.431969,0 c 0.8499,0 1.53307,0.683 1.53306,1.5331 l 0,13.5942 c -0.5229,0.1073 -1.15914,0.1693 -1.846449,0.1693 -0.60545,0 -1.16792,-0.05 -1.65164,-0.1355 l 0,-13.628 c 0,-0.8501 0.68316,-1.5331 1.53306,-1.5331 z m 1.973499,18.439 0.0254,0.017 c 0.80579,0.4837 1.39163,1.2927 1.58388,2.2445 -0.20723,-0.9512 -0.79909,-1.7588 -1.60929,-2.2445 l 0,-0.017 z"
       inkscape:connector-curvature="0" />
  </g>
</svg>
