<?xml version="1.0" encoding="UTF-8" standalone="no"?>
<!-- Created with Inkscape (http://www.inkscape.org/) -->

<svg
   xmlns:dc="http://purl.org/dc/elements/1.1/"
   xmlns:cc="http://creativecommons.org/ns#"
   xmlns:rdf="http://www.w3.org/1999/02/22-rdf-syntax-ns#"
   xmlns:svg="http://www.w3.org/2000/svg"
   xmlns="http://www.w3.org/2000/svg"
   xmlns:sodipodi="http://sodipodi.sourceforge.net/DTD/sodipodi-0.dtd"
   xmlns:inkscape="http://www.inkscape.org/namespaces/inkscape"
   width="30"
   height="30"
   id="svg2"
   sodipodi:version="0.32"
   inkscape:version="0.48.4 r9939"
   sodipodi:docname="speaking.svg"
   inkscape:output_extension="org.inkscape.output.svg.inkscape"
   version="1.1">
  <defs
     id="defs4" />
  <sodipodi:namedview
     id="base"
     pagecolor="#ffffff"
     bordercolor="#666666"
     borderopacity="1.0"
     inkscape:pageopacity="0.0"
     inkscape:pageshadow="2"
     inkscape:zoom="10.276087"
     inkscape:cx="15.344828"
     inkscape:cy="14.482759"
     inkscape:document-units="px"
     inkscape:current-layer="layer1"
     inkscape:window-width="656"
     inkscape:window-height="1029"
     inkscape:window-x="0"
     inkscape:window-y="19"
     showgrid="false"
     inkscape:window-maximized="0" />
  <metadata
     id="metadata7">
    <rdf:RDF>
      <cc:Work
         rdf:about="">
        <dc:format>image/svg+xml</dc:format>
        <dc:type
           rdf:resource="http://purl.org/dc/dcmitype/StillImage" />
        <dc:title></dc:title>
      </cc:Work>
    </rdf:RDF>
  </metadata>
  <g
     inkscape:label="Capa 1"
     inkscape:groupmode="layer"
     id="layer1"
     transform="translate(0,-1022.3622)">
    <path
       sodipodi:type="arc"
       style="color:#000000;fill:#1a1a1a;stroke:#d4d4d4;stroke-width:1.02777779;stroke-opacity:1;marker:none;visibility:visible;display:inline;overflow:visible;enable-background:accumulate"
       id="path16617-6-6"
       sodipodi:cx="15.16226"
       sodipodi:cy="16.56851"
       sodipodi:rx="14.008413"
       sodipodi:ry="14.008413"
       d="m 29.170673,16.56851 a 14.008413,14.008413 0 1 1 -28.0168263,0 14.008413,14.008413 0 1 1 28.0168263,0 z"
       transform="matrix(0.97297297,0,0,0.97297297,330.50795,953.63241)" />
    <path
       style="fill:#1a1a1a;stroke:#d4d4d4;stroke-width:1px;stroke-linecap:butt;stroke-linejoin:miter;stroke-opacity:1"
       d="m 345.29648,957.89011 0,11.863 0,0"
       id="path16623-6-2"
       inkscape:connector-curvature="0"
       inkscape:transform-center-y="-5.9314904" />
    <path
       style="fill:#1a1a1a;stroke:#d4d4d4;stroke-width:1px;stroke-linecap:butt;stroke-linejoin:miter;stroke-opacity:1"
       d="m 357.15947,969.75311 -1.70877,0 0,0"
       id="path16623-4-2-0"
       inkscape:connector-curvature="0"
       inkscape:transform-center-x="-0.854382" />
    <path
       style="fill:#1a1a1a;stroke:#d4d4d4;stroke-width:0.99999994px;stroke-linecap:butt;stroke-linejoin:miter;stroke-opacity:1"
       d="m 345.29648,981.61611 0,-2.0181 0,0"
       id="path16623-4-3-9-0"
       inkscape:connector-curvature="0"
       inkscape:transform-center-y="1.0091015" />
    <path
       style="fill:#1a1a1a;stroke:#d4d4d4;stroke-width:1px;stroke-linecap:butt;stroke-linejoin:miter;stroke-opacity:1"
       d="m 333.43348,969.75311 11.863,0 0,0"
       id="path16623-4-3-4-1-0"
       inkscape:connector-curvature="0"
       inkscape:transform-center-x="5.9315" />
    <path
       inkscape:connector-curvature="0"
       sodipodi:nodetypes="cccccccccccccc"
       id="path9518-0-7"
       d="m 14.999994,1025.9915 -11.2422196,9.9235 2.2484301,0 0,12.8177 6.7453475,0 0,-7.5644 4.651059,0 1.3e-5,7.5644 6.591159,0 0,-12.8177 2.248444,0 -11.242237,-9.9235 0,0 0,0 z"
       style="font-size:12px;fill:none;stroke:none" />
    <path
       style="color:#000000;fill:#1a1a1a;fill-opacity:1;fill-rule:nonzero;stroke:none;stroke-width:0.1;marker:none;visibility:visible;display:inline;overflow:visible;enable-background:accumulate"
       d="m 15.00003,1027.5346 c -1.03933,0 -1.92689,0.6031 -2.35516,1.4774 -0.60468,-0.6575 -1.47711,-1.0702 -2.44082,-1.0702 -1.8272701,0 -3.2972301,1.4911 -3.2972301,3.3185 0,0.4328 0.0844,0.8414 0.23542,1.2204 -1.51556,0.058 -2.74056,1.2966 -2.74056,2.8264 0,1.3702 0.97723,2.4974 2.26951,2.7619 -0.32188,0.4599 -0.51386,1.023 -0.51386,1.6271 0,1.5662 1.28138,2.8263 2.84761,2.8263 0.17348,0 0.32758,-0.036 0.49245,-0.066 0.42608,1.0277 1.4303301,1.7556 2.6121101,1.7556 0.69331,0 1.3058,-0.2713 1.7985,-0.6851 0.50593,0.7764 1.3808,1.2848 2.37655,1.2848 1.27258,0 2.33869,-0.837 2.69776,-1.9913 0.43594,0.274 0.94631,0.4497 1.49873,0.4497 1.56623,0 2.8262,-1.2815 2.8262,-2.8477 0,-0.4188 -0.094,-0.7986 -0.25679,-1.1563 1.43562,-0.1397 2.54787,-1.3538 2.54787,-2.826 0,-0.8918 -0.40555,-1.6641 -1.04911,-2.184 0.24035,-0.3557 0.38538,-0.8019 0.38538,-1.2631 0,-1.2308 -0.99609,-2.2267 -2.22671,-2.2267 -0.0299,0 -0.0562,0.027 -0.0858,0.027 0.003,-0.052 0.0219,-0.099 0.0219,-0.1507 0,-1.5663 -1.28138,-2.8264 -2.84761,-2.8264 -0.99575,0 -1.87062,0.5084 -2.37658,1.2848 -0.40977,-0.9219 -1.34543,-1.5629 -2.4194,-1.5629 z m -4.88163,16.7434 c -0.8390501,0 -1.5201301,0.4949 -1.5201301,1.0918 0,0.5967 0.68108,1.0708 1.5201301,1.0708 0.83905,0 1.52017,-0.4741 1.52017,-1.0708 0,-0.5966 -0.68112,-1.0918 -1.52017,-1.0918 z m -2.7405601,1.1562 c -0.48477,0 -0.87783,0.393 -0.87783,0.8778 0,0.4849 0.39306,0.8778 0.87783,0.8778 0.48481,0 0.87786,-0.3929 0.87786,-0.8778 0,-0.4848 -0.39305,-0.8778 -0.87786,-0.8778 z"
       id="path24229-6"
       inkscape:connector-curvature="0" />
  </g>
</svg>
