<?xml version="1.0" encoding="UTF-8" standalone="no"?>
<!-- Created with Inkscape (http://www.inkscape.org/) -->

<svg
   xmlns:dc="http://purl.org/dc/elements/1.1/"
   xmlns:cc="http://creativecommons.org/ns#"
   xmlns:rdf="http://www.w3.org/1999/02/22-rdf-syntax-ns#"
   xmlns:svg="http://www.w3.org/2000/svg"
   xmlns="http://www.w3.org/2000/svg"
   xmlns:sodipodi="http://sodipodi.sourceforge.net/DTD/sodipodi-0.dtd"
   xmlns:inkscape="http://www.inkscape.org/namespaces/inkscape"
   width="30"
   height="30"
   id="svg2"
   sodipodi:version="0.32"
   inkscape:version="0.48.4 r9939"
   sodipodi:docname="oven.svg"
   inkscape:output_extension="org.inkscape.output.svg.inkscape"
   version="1.1">
  <defs
     id="defs4" />
  <sodipodi:namedview
     id="base"
     pagecolor="#ffffff"
     bordercolor="#666666"
     borderopacity="1.0"
     inkscape:pageopacity="0.0"
     inkscape:pageshadow="2"
     inkscape:zoom="10.276087"
     inkscape:cx="15.344828"
     inkscape:cy="14.482759"
     inkscape:document-units="px"
     inkscape:current-layer="layer1"
     inkscape:window-width="656"
     inkscape:window-height="1029"
     inkscape:window-x="0"
     inkscape:window-y="19"
     showgrid="false"
     inkscape:window-maximized="0" />
  <metadata
     id="metadata7">
    <rdf:RDF>
      <cc:Work
         rdf:about="">
        <dc:format>image/svg+xml</dc:format>
        <dc:type
           rdf:resource="http://purl.org/dc/dcmitype/StillImage" />
        <dc:title></dc:title>
      </cc:Work>
    </rdf:RDF>
  </metadata>
  <g
     inkscape:label="Capa 1"
     inkscape:groupmode="layer"
     id="layer1"
     transform="translate(0,-1022.3622)">
    <path
       sodipodi:type="arc"
       style="color:#000000;fill:#1a1a1a;stroke:#d4d4d4;stroke-width:1.02777779;stroke-opacity:1;marker:none;visibility:visible;display:inline;overflow:visible;enable-background:accumulate"
       id="path16617-6-6"
       sodipodi:cx="15.16226"
       sodipodi:cy="16.56851"
       sodipodi:rx="14.008413"
       sodipodi:ry="14.008413"
       d="m 29.170673,16.56851 a 14.008413,14.008413 0 1 1 -28.0168263,0 14.008413,14.008413 0 1 1 28.0168263,0 z"
       transform="matrix(0.97297297,0,0,0.97297297,330.50795,953.63241)" />
    <path
       style="fill:#1a1a1a;stroke:#d4d4d4;stroke-width:1px;stroke-linecap:butt;stroke-linejoin:miter;stroke-opacity:1"
       d="m 345.29648,957.89011 0,11.863 0,0"
       id="path16623-6-2"
       inkscape:connector-curvature="0"
       inkscape:transform-center-y="-5.9314904" />
    <path
       style="fill:#1a1a1a;stroke:#d4d4d4;stroke-width:1px;stroke-linecap:butt;stroke-linejoin:miter;stroke-opacity:1"
       d="m 357.15947,969.75311 -1.70877,0 0,0"
       id="path16623-4-2-0"
       inkscape:connector-curvature="0"
       inkscape:transform-center-x="-0.854382" />
    <path
       style="fill:#1a1a1a;stroke:#d4d4d4;stroke-width:0.99999994px;stroke-linecap:butt;stroke-linejoin:miter;stroke-opacity:1"
       d="m 345.29648,981.61611 0,-2.0181 0,0"
       id="path16623-4-3-9-0"
       inkscape:connector-curvature="0"
       inkscape:transform-center-y="1.0091015" />
    <path
       style="fill:#1a1a1a;stroke:#d4d4d4;stroke-width:1px;stroke-linecap:butt;stroke-linejoin:miter;stroke-opacity:1"
       d="m 333.43348,969.75311 11.863,0 0,0"
       id="path16623-4-3-4-1-0"
       inkscape:connector-curvature="0"
       inkscape:transform-center-x="5.9315" />
    <path
       inkscape:connector-curvature="0"
       sodipodi:nodetypes="cccccccccccccc"
       id="path9518-0-7"
       d="m 14.999994,1025.9915 -11.2422196,9.9235 2.2484301,0 0,12.8177 6.7453475,0 0,-7.5644 4.651059,0 1.3e-5,7.5644 6.591159,0 0,-12.8177 2.248444,0 -11.242237,-9.9235 0,0 0,0 z"
       style="font-size:12px;fill:none;stroke:none" />
    <path
       inkscape:connector-curvature="0"
       style="fill:#1a1a1a;fill-opacity:1;stroke:none"
       d="m 4.7499498,1025.5497 c -0.63345,0 -1.1562499,0.4818 -1.1562499,1.0938 0,0.3622 0.19158,0.6737 0.4687499,0.875 l 0,9.7812 -0.0937,0 c -0.20953,0 -0.375,0.1677 -0.375,0.375 l 0,1.0313 c 0,0.2072 0.16547,0.375 0.375,0.375 l 1.2812499,0 c -0.0346,0.1974 -0.0625,0.3909 -0.0625,0.5937 0,0.7709 0.2536801,1.5139 0.71875,2.1875 0.10173,0.5863 0.38355,1.6546 1.09375,2.875 0.0734,0.1261 0.0369,1.9763 0.0313,2.5625 -0.55336,0.068 -1,0.4236 -1,0.9063 0,0.5304 0.5228,0.9687 1.15625,0.9687 l 12.8437503,0 c 0.63345,0 1.15625,-0.4383 1.15625,-0.9687 0,-0.5304 -0.5228,-0.9375 -1.15625,-0.9375 l -0.4375,0 0,-1.3125 c 0,-1.0634 0.66521,-1.2485 0.90625,-1.3125 0.99351,-0.2641 1.85745,-0.8947 2.28125,-1.25 1.41706,-1.0064 2.25,-2.3132 2.25,-3.7188 0,-0.2028 -0.0279,-0.3963 -0.0625,-0.5937 l 0.9375,0 c 0.27856,0 0.5,-0.2237 0.5,-0.5 l 0,-0.7813 c 0,-0.2763 -0.22145,-0.5 -0.5,-0.5 l -1.15625,0 c -0.0331,0 -0.0625,-0.01 -0.0937,0 l -14,0 0,-9.5937 c 0.48972,-0.125 0.875,-0.5491 0.875,-1.0625 0,-0.612 -0.5228,-1.0938 -1.15625,-1.0938 l -5.6250002,0 z m 6.1875002,2.375 c -0.11143,0 -0.1875,0.1082 -0.1875,0.2188 l 0,0.7812 c 0,0.1105 0.0761,0.1875 0.1875,0.1875 l 0.125,0 0,0.1875 c 0,0.069 0.0554,0.125 0.125,0.125 l 0.125,0 c 0.0696,0 0.125,-0.056 0.125,-0.125 l 0,-0.2187 c 0,-0.011 0.003,-0.021 0,-0.031 0.0363,-0.036 0.0625,-0.07 0.0625,-0.125 l 0,-0.7813 c 0,-0.1105 -0.10732,-0.2187 -0.21875,-0.2187 l -0.34375,0 z m 2.0625,7.8125 c -0.5527,0 -0.53849,0.2497 -0.5625,0.5625 l 12.84375,0 c -0.024,-0.3128 -0.47856,-0.5625 -1.03125,-0.5625 l -11.25,0 z m -0.65625,0.094 c -0.40562,0.041 -0.73289,0.4082 -0.875,0.5938 0.0219,-0.01 0.0703,0 0.0937,0 0.17306,0 0.305,0.1361 0.3125,0.3125 0.11156,-0.1947 0.3155,-0.4855 0.46875,-0.4688 0.002,0 -0.002,-0.4388 0,-0.4375 z m 0.34375,0.6563 c -0.60494,0 -0.62997,0.2952 -0.65625,0.6562 l 14.09375,0 c -0.0263,-0.361 -0.52005,-0.6562 -1.125,-0.6562 l -12.3125,0 z m -1.21875,0.063 c -0.18184,0 -0.3125,0.1292 -0.3125,0.3125 0,0.1832 0.13066,0.3437 0.3125,0.3437 0.18184,0 0.34375,-0.1605 0.34375,-0.3437 0,-0.1833 -0.16191,-0.3125 -0.34375,-0.3125 z"
       id="path2555-1" />
  </g>
</svg>
