<?xml version="1.0" encoding="UTF-8" standalone="no"?>
<!-- Created with Inkscape (http://www.inkscape.org/) -->

<svg
   xmlns:dc="http://purl.org/dc/elements/1.1/"
   xmlns:cc="http://creativecommons.org/ns#"
   xmlns:rdf="http://www.w3.org/1999/02/22-rdf-syntax-ns#"
   xmlns:svg="http://www.w3.org/2000/svg"
   xmlns="http://www.w3.org/2000/svg"
   xmlns:sodipodi="http://sodipodi.sourceforge.net/DTD/sodipodi-0.dtd"
   xmlns:inkscape="http://www.inkscape.org/namespaces/inkscape"
   width="30"
   height="30"
   id="svg2"
   sodipodi:version="0.32"
   inkscape:version="0.48.4 r9939"
   sodipodi:docname="signal.svg"
   inkscape:output_extension="org.inkscape.output.svg.inkscape"
   version="1.1">
  <defs
     id="defs4" />
  <sodipodi:namedview
     id="base"
     pagecolor="#ffffff"
     bordercolor="#666666"
     borderopacity="1.0"
     inkscape:pageopacity="0.0"
     inkscape:pageshadow="2"
     inkscape:zoom="11.6"
     inkscape:cx="15"
     inkscape:cy="15"
     inkscape:document-units="px"
     inkscape:current-layer="layer1"
     inkscape:window-width="698"
     inkscape:window-height="1029"
     inkscape:window-x="0"
     inkscape:window-y="19"
     showgrid="false"
     inkscape:window-maximized="0" />
  <metadata
     id="metadata7">
    <rdf:RDF>
      <cc:Work
         rdf:about="">
        <dc:format>image/svg+xml</dc:format>
        <dc:type
           rdf:resource="http://purl.org/dc/dcmitype/StillImage" />
        <dc:title></dc:title>
      </cc:Work>
    </rdf:RDF>
  </metadata>
  <g
     inkscape:label="Capa 1"
     inkscape:groupmode="layer"
     id="layer1"
     transform="translate(0,-1022.3622)">
    <path
       sodipodi:type="arc"
       style="color:#000000;fill:#1a1a1a;stroke:#d4d4d4;stroke-width:1.02777779;stroke-opacity:1;marker:none;visibility:visible;display:inline;overflow:visible;enable-background:accumulate"
       id="path16617-6-6"
       sodipodi:cx="15.16226"
       sodipodi:cy="16.56851"
       sodipodi:rx="14.008413"
       sodipodi:ry="14.008413"
       d="m 29.170673,16.56851 a 14.008413,14.008413 0 1 1 -28.0168263,0 14.008413,14.008413 0 1 1 28.0168263,0 z"
       transform="matrix(0.97297297,0,0,0.97297297,330.50795,953.63241)" />
    <path
       style="fill:#1a1a1a;stroke:#d4d4d4;stroke-width:1px;stroke-linecap:butt;stroke-linejoin:miter;stroke-opacity:1"
       d="m 345.29648,957.89011 0,11.863 0,0"
       id="path16623-6-2"
       inkscape:connector-curvature="0"
       inkscape:transform-center-y="-5.9314904" />
    <path
       style="fill:#1a1a1a;stroke:#d4d4d4;stroke-width:1px;stroke-linecap:butt;stroke-linejoin:miter;stroke-opacity:1"
       d="m 357.15947,969.75311 -1.70877,0 0,0"
       id="path16623-4-2-0"
       inkscape:connector-curvature="0"
       inkscape:transform-center-x="-0.854382" />
    <path
       style="fill:#1a1a1a;stroke:#d4d4d4;stroke-width:0.99999994px;stroke-linecap:butt;stroke-linejoin:miter;stroke-opacity:1"
       d="m 345.29648,981.61611 0,-2.0181 0,0"
       id="path16623-4-3-9-0"
       inkscape:connector-curvature="0"
       inkscape:transform-center-y="1.0091015" />
    <path
       style="fill:#1a1a1a;stroke:#d4d4d4;stroke-width:1px;stroke-linecap:butt;stroke-linejoin:miter;stroke-opacity:1"
       d="m 333.43348,969.75311 11.863,0 0,0"
       id="path16623-4-3-4-1-0"
       inkscape:connector-curvature="0"
       inkscape:transform-center-x="5.9315" />
    <path
       inkscape:connector-curvature="0"
       style="fill:#1a1a1a;fill-opacity:1;stroke:none"
       d="m 20.296875,1028.6747 0,4.9063 -4.21875,0 c -0.11791,-1.0539 -0.65637,-2.2366 -1.8125,-2.4063 -1.19464,-0.3027 -2.66418,0.3427 -2.9375,1.625 0.0225,0.8106 -0.47426,0.9352 -1.125,0.8438 l -2.3437503,0 0,-4.6875 -2.6249995,0 0,4.5625 -1.3749999,0 c -0.87774,0.6706 -1.21609,1.5573 -1.25,2.8125 0.0843,1.0562 0.5793099,2.234 1.25,2.7187 l -1.3125,0 0,2.0938 1.9062499,0 c -0.6790199,0.4502 -1.1247899,1.2249 -1.1249999,2.125 -3.3e-4,1.4013 1.0910999,2.5309 2.4374999,2.5312 1.3463996,3e-4 2.4371695,-1.1299 2.4374996,-2.5312 4.99e-5,-0.9 -0.4462401,-1.6745 -1.1250001,-2.125 l 4.3750003,0 c -0.62791,0.4588 -1.03105,1.2033 -1.03125,2.0625 -3.3e-4,1.4013 1.0911,2.5309 2.4375,2.5312 1.3464,3e-4 2.43717,-1.1299 2.4375,-2.5312 5e-5,-0.8591 -0.4036,-1.6035 -1.03125,-2.0625 l 3.9375,0 c -0.5871,0.4631 -0.96855,1.174 -0.96875,2 -3.3e-4,1.4013 1.0911,2.5621 2.4375,2.5625 1.3464,3e-4 2.43717,-1.1612 2.4375,-2.5625 5e-5,-0.8198 -0.38924,-1.5361 -0.96875,-2 l 2.21875,0 0,1.7812 0.8125,0 c -0.34797,0.3271 -0.56238,0.7861 -0.5625,1.3125 -2.3e-4,0.9873 0.77015,1.8123 1.71875,1.8125 0.9486,2e-4 1.71852,-0.8252 1.71875,-1.8125 3e-5,-0.5325 -0.23883,-0.985 -0.59375,-1.3125 l 1,0 0,-9 -1.90625,0 0,5.6563 -2.9375,0 0,-9.2188 2.75,0 0,-1.6875 -5.0625,0 z"
       id="path3349-3" />
  </g>
</svg>
