<?xml version="1.0" encoding="UTF-8" standalone="no"?>
<!-- Created with Inkscape (http://www.inkscape.org/) -->

<svg
   xmlns:dc="http://purl.org/dc/elements/1.1/"
   xmlns:cc="http://creativecommons.org/ns#"
   xmlns:rdf="http://www.w3.org/1999/02/22-rdf-syntax-ns#"
   xmlns:svg="http://www.w3.org/2000/svg"
   xmlns="http://www.w3.org/2000/svg"
   xmlns:sodipodi="http://sodipodi.sourceforge.net/DTD/sodipodi-0.dtd"
   xmlns:inkscape="http://www.inkscape.org/namespaces/inkscape"
   width="30"
   height="30"
   id="svg2"
   sodipodi:version="0.32"
   inkscape:version="0.48.4 r9939"
   sodipodi:docname="firefighter.svg"
   inkscape:output_extension="org.inkscape.output.svg.inkscape"
   version="1.1">
  <defs
     id="defs4" />
  <sodipodi:namedview
     id="base"
     pagecolor="#ffffff"
     bordercolor="#666666"
     borderopacity="1.0"
     inkscape:pageopacity="0.0"
     inkscape:pageshadow="2"
     inkscape:zoom="10.276087"
     inkscape:cx="15.344828"
     inkscape:cy="14.482759"
     inkscape:document-units="px"
     inkscape:current-layer="layer1"
     inkscape:window-width="656"
     inkscape:window-height="1029"
     inkscape:window-x="0"
     inkscape:window-y="19"
     showgrid="false"
     inkscape:window-maximized="0" />
  <metadata
     id="metadata7">
    <rdf:RDF>
      <cc:Work
         rdf:about="">
        <dc:format>image/svg+xml</dc:format>
        <dc:type
           rdf:resource="http://purl.org/dc/dcmitype/StillImage" />
        <dc:title></dc:title>
      </cc:Work>
    </rdf:RDF>
  </metadata>
  <g
     inkscape:label="Capa 1"
     inkscape:groupmode="layer"
     id="layer1"
     transform="translate(0,-1022.3622)">
    <path
       sodipodi:type="arc"
       style="color:#000000;fill:#1a1a1a;stroke:#d4d4d4;stroke-width:1.02777779;stroke-opacity:1;marker:none;visibility:visible;display:inline;overflow:visible;enable-background:accumulate"
       id="path16617-6-6"
       sodipodi:cx="15.16226"
       sodipodi:cy="16.56851"
       sodipodi:rx="14.008413"
       sodipodi:ry="14.008413"
       d="m 29.170673,16.56851 a 14.008413,14.008413 0 1 1 -28.0168263,0 14.008413,14.008413 0 1 1 28.0168263,0 z"
       transform="matrix(0.97297297,0,0,0.97297297,330.50795,953.63241)" />
    <path
       style="fill:#1a1a1a;stroke:#d4d4d4;stroke-width:1px;stroke-linecap:butt;stroke-linejoin:miter;stroke-opacity:1"
       d="m 345.29648,957.89011 0,11.863 0,0"
       id="path16623-6-2"
       inkscape:connector-curvature="0"
       inkscape:transform-center-y="-5.9314904" />
    <path
       style="fill:#1a1a1a;stroke:#d4d4d4;stroke-width:1px;stroke-linecap:butt;stroke-linejoin:miter;stroke-opacity:1"
       d="m 357.15947,969.75311 -1.70877,0 0,0"
       id="path16623-4-2-0"
       inkscape:connector-curvature="0"
       inkscape:transform-center-x="-0.854382" />
    <path
       style="fill:#1a1a1a;stroke:#d4d4d4;stroke-width:0.99999994px;stroke-linecap:butt;stroke-linejoin:miter;stroke-opacity:1"
       d="m 345.29648,981.61611 0,-2.0181 0,0"
       id="path16623-4-3-9-0"
       inkscape:connector-curvature="0"
       inkscape:transform-center-y="1.0091015" />
    <path
       style="fill:#1a1a1a;stroke:#d4d4d4;stroke-width:1px;stroke-linecap:butt;stroke-linejoin:miter;stroke-opacity:1"
       d="m 333.43348,969.75311 11.863,0 0,0"
       id="path16623-4-3-4-1-0"
       inkscape:connector-curvature="0"
       inkscape:transform-center-x="5.9315" />
    <path
       inkscape:connector-curvature="0"
       sodipodi:nodetypes="cccccccccccccc"
       id="path9518-0-7"
       d="m 14.999994,1025.9915 -11.2422196,9.9235 2.2484301,0 0,12.8177 6.7453475,0 0,-7.5644 4.651059,0 1.3e-5,7.5644 6.591159,0 0,-12.8177 2.248444,0 -11.242237,-9.9235 0,0 0,0 z"
       style="font-size:12px;fill:none;stroke:none" />
    <path
       style="fill:#1a1a1a;fill-opacity:1;stroke:none"
       d="m 15.478985,1027.2728 c -2.01796,0.017 -1.69034,0.8731 -1.5475,2.0756 l 10.86939,0 0,7.1603 -0.78604,0 0,-4.1882 c -0.82934,0.09 -1.49192,-0.3341 -2.32125,1.4371 l 0,1.2773 -2.25985,0 -0.87201,1.4738 -8.32707,0 0,-4.6794 c -0.82785,-2.026 -1.6211501,-1.4411 -2.5177601,-1.4493 l 0,6.1287 -0.83517,0 -1.89139,1.7808 13.3257501,0 c 1.00466,-0.8684 2.31383,-1.4001 3.74594,-1.4001 2.02054,0 3.79374,1.0488 4.81447,2.6282 l 0,-2.1983 -1.0194,-0.8106 0,-7.2955 1.5598,0 c -0.24003,-1.6867 -0.75787,-1.7573 -1.46154,-1.9404 l -10.47637,0 z m 6.58304,10.5132 c -2.6697,0 -4.83902,2.1693 -4.83902,4.839 0,2.6697 2.16932,4.8267 4.83902,4.8267 2.66971,0 4.82675,-2.157 4.82675,-4.8267 0,-2.6697 -2.15704,-4.839 -4.82675,-4.839 z m -18.5086701,1.8546 -0.44214,0.4172 -0.52811,1.9777 0.0983,1.9896 2.84938,0 c 0.2415,-1.89 1.8518,-3.3532 3.80735,-3.3532 1.9555401,0 3.5781201,1.4629 3.8196401,3.3532 l 3.35293,0 c -0.11288,-0.4487 -0.18423,-0.9167 -0.18423,-1.4001 0,-1.0943 0.31542,-2.1148 0.84745,-2.9844 l -13.6205201,0 z m 0.22108,0.1718 0.85972,0 0,1.7073 -0.85972,0 0,-1.7073 z m 18.2875901,0.6633 c 1.18278,0 2.13704,0.9665 2.13704,2.1493 0,1.1828 -0.95426,2.1371 -2.13704,2.1371 -1.18277,0 -2.14931,-0.9543 -2.14931,-2.1371 0,-1.183 0.96654,-2.1493 2.14931,-2.1493 z m -12.7239401,1.4123 c -1.44896,0 -2.61602,1.1794 -2.61602,2.6283 0,1.449 1.16706,2.6161 2.61602,2.6161 1.4489801,0 2.6283101,-1.1671 2.6283101,-2.6161 0,-1.4489 -1.17933,-2.6283 -2.6283101,-2.6283 z m -5.93211,0.6142 0.73691,0 0,1.0931 -0.73691,0 0,-1.0931 z m 5.93211,0.7614 c 0.6878901,0 1.2527501,0.5648 1.2527501,1.2527 0,0.688 -0.56486,1.2406 -1.2527501,1.2406 -0.6878899,0 -1.2404499,-0.5526 -1.2404499,-1.2406 0,-0.6879 0.55256,-1.2527 1.2404499,-1.2527 z"
       id="path14305-4"
       inkscape:connector-curvature="0" />
  </g>
</svg>
