<?xml version="1.0" encoding="UTF-8" standalone="no"?>
<!-- Created with Inkscape (http://www.inkscape.org/) -->

<svg
   xmlns:dc="http://purl.org/dc/elements/1.1/"
   xmlns:cc="http://creativecommons.org/ns#"
   xmlns:rdf="http://www.w3.org/1999/02/22-rdf-syntax-ns#"
   xmlns:svg="http://www.w3.org/2000/svg"
   xmlns="http://www.w3.org/2000/svg"
   xmlns:sodipodi="http://sodipodi.sourceforge.net/DTD/sodipodi-0.dtd"
   xmlns:inkscape="http://www.inkscape.org/namespaces/inkscape"
   width="30"
   height="30"
   id="svg2"
   sodipodi:version="0.32"
   inkscape:version="0.48.4 r9939"
   sodipodi:docname="bus1.svg"
   inkscape:output_extension="org.inkscape.output.svg.inkscape"
   version="1.1">
  <defs
     id="defs4" />
  <sodipodi:namedview
     id="base"
     pagecolor="#ffffff"
     bordercolor="#666666"
     borderopacity="1.0"
     inkscape:pageopacity="0.0"
     inkscape:pageshadow="2"
     inkscape:zoom="10.276087"
     inkscape:cx="15.344828"
     inkscape:cy="14.482759"
     inkscape:document-units="px"
     inkscape:current-layer="layer1"
     inkscape:window-width="656"
     inkscape:window-height="1029"
     inkscape:window-x="0"
     inkscape:window-y="19"
     showgrid="false"
     inkscape:window-maximized="0" />
  <metadata
     id="metadata7">
    <rdf:RDF>
      <cc:Work
         rdf:about="">
        <dc:format>image/svg+xml</dc:format>
        <dc:type
           rdf:resource="http://purl.org/dc/dcmitype/StillImage" />
        <dc:title></dc:title>
      </cc:Work>
    </rdf:RDF>
  </metadata>
  <g
     inkscape:label="Capa 1"
     inkscape:groupmode="layer"
     id="layer1"
     transform="translate(0,-1022.3622)">
    <path
       sodipodi:type="arc"
       style="color:#000000;fill:#1a1a1a;stroke:#d4d4d4;stroke-width:1.02777779;stroke-opacity:1;marker:none;visibility:visible;display:inline;overflow:visible;enable-background:accumulate"
       id="path16617-6-6"
       sodipodi:cx="15.16226"
       sodipodi:cy="16.56851"
       sodipodi:rx="14.008413"
       sodipodi:ry="14.008413"
       d="m 29.170673,16.56851 a 14.008413,14.008413 0 1 1 -28.0168263,0 14.008413,14.008413 0 1 1 28.0168263,0 z"
       transform="matrix(0.97297297,0,0,0.97297297,330.50795,953.63241)" />
    <path
       style="fill:#1a1a1a;stroke:#d4d4d4;stroke-width:1px;stroke-linecap:butt;stroke-linejoin:miter;stroke-opacity:1"
       d="m 345.29648,957.89011 0,11.863 0,0"
       id="path16623-6-2"
       inkscape:connector-curvature="0"
       inkscape:transform-center-y="-5.9314904" />
    <path
       style="fill:#1a1a1a;stroke:#d4d4d4;stroke-width:1px;stroke-linecap:butt;stroke-linejoin:miter;stroke-opacity:1"
       d="m 357.15947,969.75311 -1.70877,0 0,0"
       id="path16623-4-2-0"
       inkscape:connector-curvature="0"
       inkscape:transform-center-x="-0.854382" />
    <path
       style="fill:#1a1a1a;stroke:#d4d4d4;stroke-width:0.99999994px;stroke-linecap:butt;stroke-linejoin:miter;stroke-opacity:1"
       d="m 345.29648,981.61611 0,-2.0181 0,0"
       id="path16623-4-3-9-0"
       inkscape:connector-curvature="0"
       inkscape:transform-center-y="1.0091015" />
    <path
       style="fill:#1a1a1a;stroke:#d4d4d4;stroke-width:1px;stroke-linecap:butt;stroke-linejoin:miter;stroke-opacity:1"
       d="m 333.43348,969.75311 11.863,0 0,0"
       id="path16623-4-3-4-1-0"
       inkscape:connector-curvature="0"
       inkscape:transform-center-x="5.9315" />
    <path
       inkscape:connector-curvature="0"
       sodipodi:nodetypes="cccccccccccccc"
       id="path9518-0-7"
       d="m 14.999994,1025.9915 -11.2422196,9.9235 2.2484301,0 0,12.8177 6.7453475,0 0,-7.5644 4.651059,0 1.3e-5,7.5644 6.591159,0 0,-12.8177 2.248444,0 -11.242237,-9.9235 0,0 0,0 z"
       style="font-size:12px;fill:none;stroke:none" />
    <path
       style="color:#000000;fill:#1a1a1a;fill-opacity:1;fill-rule:nonzero;stroke:none;stroke-width:2;marker:none;visibility:visible;display:inline;overflow:visible;enable-background:accumulate"
       d="m 9.3984534,1028.1951 -1.6600839,1.0964 4.9802775,0 -1.660097,-1.0964 -1.6600966,0 z m 7.4025666,1.6391 0,4.9701 -0.730866,0 c -0.150535,-0.8936 -0.728874,-1.5663 -1.440829,-1.5663 -0.711969,0 -1.298914,0.6727 -1.451281,1.5663 l -1.743623,0 1.419954,-4.9387 -5.1160055,0 1.44083,4.9387 -1.7122979,0 0,7.7784 9.7413014,0 c -0.03662,0.1982 -0.06255,0.3966 -0.06255,0.6055 0,1.8443 1.496839,3.3411 3.341069,3.3411 1.844244,0 3.341069,-1.4968 3.341069,-3.3411 0,-0.209 -0.02593,-0.4073 -0.06268,-0.6055 l 1.419954,0 0,-7.7784 -0.75174,0 0,-4.9701 -7.632245,0 z m 1.232012,1.2217 5.178658,0 0,3.7482 -0.678652,0 0,-3.0592 -3.821354,0 0,3.0592 -0.678652,0 0,-3.7482 z m -11.2447825,3.8526 c -1.106682,0.495 -1.910677,2.0208 -1.910677,3.8215 0,1.8002 0.804088,3.3158 1.910677,3.8109 l 0,-7.6324 z m 2.6415299,1.2008 0.219254,0 3.7482656,0 0.334107,0 0,0.3341 0,5.3875 -0.668214,0 0,-5.0534 -3.1948906,0 -1.252901,2.8191 0,2.2343 -0.6682139,0 0,-2.3179 0,-0.073 0.03127,-0.063 1.367754,-3.0695 0.08353,-0.1984 z m -3.6334129,7.0477 0,0.7621 -0.981432,2.3074 2.276096,0 0,-2.1822 1.8167129,0 c -0.234329,0.2344 -0.386321,0.5613 -0.386321,0.9188 0,0.7152 0.579555,1.2948 1.294665,1.2948 0.7151216,0 1.2946636,-0.5796 1.2946636,-1.2948 0,-0.3575 -0.141541,-0.6844 -0.37587,-0.9188 l 2.15082,0 c -0.234316,0.2344 -0.37587,0.5613 -0.37587,0.9188 0,0.7152 0.579555,1.2948 1.294664,1.2948 0.715109,0 1.294664,-0.5796 1.294664,-1.2948 0,-0.3575 -0.141554,-0.6844 -0.37587,-0.9188 l 1.743624,0 0,-0.8873 -10.6705465,0 z"
       id="rect14037-8-5-1"
       inkscape:connector-curvature="0" />
  </g>
</svg>
