<?xml version="1.0" encoding="UTF-8" standalone="no"?>
<!-- Created with Inkscape (http://www.inkscape.org/) -->

<svg
   xmlns:dc="http://purl.org/dc/elements/1.1/"
   xmlns:cc="http://creativecommons.org/ns#"
   xmlns:rdf="http://www.w3.org/1999/02/22-rdf-syntax-ns#"
   xmlns:svg="http://www.w3.org/2000/svg"
   xmlns="http://www.w3.org/2000/svg"
   xmlns:sodipodi="http://sodipodi.sourceforge.net/DTD/sodipodi-0.dtd"
   xmlns:inkscape="http://www.inkscape.org/namespaces/inkscape"
   width="30"
   height="30"
   id="svg2"
   sodipodi:version="0.32"
   inkscape:version="0.48.4 r9939"
   sodipodi:docname="fire.svg"
   inkscape:output_extension="org.inkscape.output.svg.inkscape"
   version="1.1">
  <defs
     id="defs4" />
  <sodipodi:namedview
     id="base"
     pagecolor="#ffffff"
     bordercolor="#666666"
     borderopacity="1.0"
     inkscape:pageopacity="0.0"
     inkscape:pageshadow="2"
     inkscape:zoom="10.276087"
     inkscape:cx="15.344828"
     inkscape:cy="14.482759"
     inkscape:document-units="px"
     inkscape:current-layer="layer1"
     inkscape:window-width="656"
     inkscape:window-height="1029"
     inkscape:window-x="0"
     inkscape:window-y="19"
     showgrid="false"
     inkscape:window-maximized="0" />
  <metadata
     id="metadata7">
    <rdf:RDF>
      <cc:Work
         rdf:about="">
        <dc:format>image/svg+xml</dc:format>
        <dc:type
           rdf:resource="http://purl.org/dc/dcmitype/StillImage" />
        <dc:title></dc:title>
      </cc:Work>
    </rdf:RDF>
  </metadata>
  <g
     inkscape:label="Capa 1"
     inkscape:groupmode="layer"
     id="layer1"
     transform="translate(0,-1022.3622)">
    <path
       sodipodi:type="arc"
       style="color:#000000;fill:#1a1a1a;stroke:#d4d4d4;stroke-width:1.02777779;stroke-opacity:1;marker:none;visibility:visible;display:inline;overflow:visible;enable-background:accumulate"
       id="path16617-6-6"
       sodipodi:cx="15.16226"
       sodipodi:cy="16.56851"
       sodipodi:rx="14.008413"
       sodipodi:ry="14.008413"
       d="m 29.170673,16.56851 a 14.008413,14.008413 0 1 1 -28.0168263,0 14.008413,14.008413 0 1 1 28.0168263,0 z"
       transform="matrix(0.97297297,0,0,0.97297297,330.50795,953.63241)" />
    <path
       style="fill:#1a1a1a;stroke:#d4d4d4;stroke-width:1px;stroke-linecap:butt;stroke-linejoin:miter;stroke-opacity:1"
       d="m 345.29648,957.89011 0,11.863 0,0"
       id="path16623-6-2"
       inkscape:connector-curvature="0"
       inkscape:transform-center-y="-5.9314904" />
    <path
       style="fill:#1a1a1a;stroke:#d4d4d4;stroke-width:1px;stroke-linecap:butt;stroke-linejoin:miter;stroke-opacity:1"
       d="m 357.15947,969.75311 -1.70877,0 0,0"
       id="path16623-4-2-0"
       inkscape:connector-curvature="0"
       inkscape:transform-center-x="-0.854382" />
    <path
       style="fill:#1a1a1a;stroke:#d4d4d4;stroke-width:0.99999994px;stroke-linecap:butt;stroke-linejoin:miter;stroke-opacity:1"
       d="m 345.29648,981.61611 0,-2.0181 0,0"
       id="path16623-4-3-9-0"
       inkscape:connector-curvature="0"
       inkscape:transform-center-y="1.0091015" />
    <path
       style="fill:#1a1a1a;stroke:#d4d4d4;stroke-width:1px;stroke-linecap:butt;stroke-linejoin:miter;stroke-opacity:1"
       d="m 333.43348,969.75311 11.863,0 0,0"
       id="path16623-4-3-4-1-0"
       inkscape:connector-curvature="0"
       inkscape:transform-center-x="5.9315" />
    <path
       inkscape:connector-curvature="0"
       sodipodi:nodetypes="cccccccccccccc"
       id="path9518-0-7"
       d="m 14.999994,1025.9915 -11.2422196,9.9235 2.2484301,0 0,12.8177 6.7453475,0 0,-7.5644 4.651059,0 1.3e-5,7.5644 6.591159,0 0,-12.8177 2.248444,0 -11.242237,-9.9235 0,0 0,0 z"
       style="font-size:12px;fill:none;stroke:none" />
    <path
       style="color:#000000;fill:#1a1a1a;fill-opacity:1;fill-rule:nonzero;stroke:none;stroke-width:2;marker:none;visibility:visible;display:inline;overflow:visible;enable-background:accumulate"
       d="m 12.57341,1026.6047 0,0.9684 4.842293,0 0,-0.9684 -4.842293,0 z m -3.5216679,1.3646 c -1.571917,0 -2.839351,1.2565 -2.839351,2.8284 l 0,13.8005 17.5643169,0 0,-13.8005 c 0,-1.5719 -1.267434,-2.8284 -2.839337,-2.8284 l -11.8856289,0 z m 3.5216679,1.1115 3.873834,0 0,1.0785 -3.873834,0 0,-1.0785 z m -0.05508,1.7279 4.325045,0 c 0.791149,0 1.441686,0.6396 1.441686,1.4307 l 0,11.6764 -0.704334,0 0,-11.6764 c 0,-0.4133 -0.324218,-0.7263 -0.737352,-0.7263 l -4.325045,0 c -0.413134,0 -0.737353,0.313 -0.737353,0.7263 l 0,11.6764 -0.704333,0 0,-11.6764 c 0,-0.7911 0.650536,-1.4307 1.441686,-1.4307 z m -5.3375379,1.3976 3.3455839,0 0,5.7776 -3.3455839,0 0,-5.7776 z m 11.6545219,0 3.345585,0 0,5.7776 -3.345585,0 0,-5.7776 z m -5.414564,0.066 2.52019,0 c 0.385172,0 0.693332,0.3079 0.693332,0.6932 l 0,4.358 c 0,0.3851 -0.30816,0.6933 -0.693332,0.6933 l -2.52019,0 c -0.385171,0 -0.693331,-0.3082 -0.693331,-0.6933 l 0,-4.358 c 0,-0.3853 0.30816,-0.6932 0.693331,-0.6932 z m -5.5686299,6.5369 2.002942,0 c 0.4974419,0 0.9024339,0.405 0.9024339,0.9024 0,0.4975 -0.404992,0.8915 -0.9024339,0.8915 l -2.002942,0 c -0.497442,0 -0.902434,-0.394 -0.902434,-0.8915 0,-0.4974 0.404992,-0.9024 0.902434,-0.9024 z m 11.6435069,0 2.013957,0 c 0.497443,0 0.902421,0.405 0.902421,0.9024 0,0.4975 -0.404978,0.8915 -0.902421,0.8915 l -2.013957,0 c -0.497442,0 -0.891418,-0.394 -0.891418,-0.8915 0,-0.4974 0.393976,-0.9024 0.891418,-0.9024 z m -11.4124009,0.3964 c -0.277704,0 -0.506246,0.2285 -0.506246,0.5061 0,0.2778 0.228542,0.4953 0.506246,0.4953 0.277705,0 0.495231,-0.2175 0.495231,-0.4953 0,-0.2776 -0.217526,-0.5061 -0.495231,-0.5061 z m 1.54073,0 c -0.277705,0 -0.506247,0.2285 -0.506247,0.5061 0,0.2778 0.228542,0.4953 0.506247,0.4953 0.277705,0 0.5062329,-0.2175 0.5062329,-0.4953 0,-0.2776 -0.2285279,-0.5061 -0.5062329,-0.5061 z m 10.1137929,0 c -0.277705,0 -0.506247,0.2285 -0.506247,0.5061 0,0.2778 0.228542,0.4953 0.506247,0.4953 0.277704,0 0.495231,-0.2175 0.495231,-0.4953 0,-0.2776 -0.217527,-0.5061 -0.495231,-0.5061 z m 1.540729,0 c -0.277704,0 -0.506246,0.2285 -0.506246,0.5061 0,0.2778 0.228542,0.4953 0.506246,0.4953 0.277705,0 0.506233,-0.2175 0.506233,-0.4953 0,-0.2776 -0.228528,-0.5061 -0.506233,-0.5061 z m -11.8086019,5.6676 -1.199565,0.055 -3.213521,3.1914 1.199564,-0.066 3.213522,-3.1808 z m 11.0602479,0 3.213522,3.1805 1.199564,0.066 -3.213521,-3.1915 -1.199565,-0.055 z m -10.410937,0.044 0,1.6838 9.761626,0 0,-1.6838 -9.761626,0 z"
       id="rect14543-3"
       inkscape:connector-curvature="0" />
  </g>
</svg>
