<?xml version="1.0" encoding="UTF-8" standalone="no"?>
<!-- Created with Inkscape (http://www.inkscape.org/) -->

<svg
   xmlns:dc="http://purl.org/dc/elements/1.1/"
   xmlns:cc="http://creativecommons.org/ns#"
   xmlns:rdf="http://www.w3.org/1999/02/22-rdf-syntax-ns#"
   xmlns:svg="http://www.w3.org/2000/svg"
   xmlns="http://www.w3.org/2000/svg"
   xmlns:sodipodi="http://sodipodi.sourceforge.net/DTD/sodipodi-0.dtd"
   xmlns:inkscape="http://www.inkscape.org/namespaces/inkscape"
   width="30"
   height="30"
   id="svg2"
   sodipodi:version="0.32"
   inkscape:version="0.48.4 r9939"
   sodipodi:docname="car1.svg"
   inkscape:output_extension="org.inkscape.output.svg.inkscape"
   version="1.1">
  <defs
     id="defs4" />
  <sodipodi:namedview
     id="base"
     pagecolor="#ffffff"
     bordercolor="#666666"
     borderopacity="1.0"
     inkscape:pageopacity="0.0"
     inkscape:pageshadow="2"
     inkscape:zoom="10.276087"
     inkscape:cx="15.344828"
     inkscape:cy="14.482759"
     inkscape:document-units="px"
     inkscape:current-layer="layer1"
     inkscape:window-width="656"
     inkscape:window-height="1029"
     inkscape:window-x="0"
     inkscape:window-y="19"
     showgrid="false"
     inkscape:window-maximized="0" />
  <metadata
     id="metadata7">
    <rdf:RDF>
      <cc:Work
         rdf:about="">
        <dc:format>image/svg+xml</dc:format>
        <dc:type
           rdf:resource="http://purl.org/dc/dcmitype/StillImage" />
        <dc:title></dc:title>
      </cc:Work>
    </rdf:RDF>
  </metadata>
  <g
     inkscape:label="Capa 1"
     inkscape:groupmode="layer"
     id="layer1"
     transform="translate(0,-1022.3622)">
    <path
       sodipodi:type="arc"
       style="color:#000000;fill:#1a1a1a;stroke:#d4d4d4;stroke-width:1.02777779;stroke-opacity:1;marker:none;visibility:visible;display:inline;overflow:visible;enable-background:accumulate"
       id="path16617-6-6"
       sodipodi:cx="15.16226"
       sodipodi:cy="16.56851"
       sodipodi:rx="14.008413"
       sodipodi:ry="14.008413"
       d="m 29.170673,16.56851 a 14.008413,14.008413 0 1 1 -28.0168263,0 14.008413,14.008413 0 1 1 28.0168263,0 z"
       transform="matrix(0.97297297,0,0,0.97297297,330.50795,953.63241)" />
    <path
       style="fill:#1a1a1a;stroke:#d4d4d4;stroke-width:1px;stroke-linecap:butt;stroke-linejoin:miter;stroke-opacity:1"
       d="m 345.29648,957.89011 0,11.863 0,0"
       id="path16623-6-2"
       inkscape:connector-curvature="0"
       inkscape:transform-center-y="-5.9314904" />
    <path
       style="fill:#1a1a1a;stroke:#d4d4d4;stroke-width:1px;stroke-linecap:butt;stroke-linejoin:miter;stroke-opacity:1"
       d="m 357.15947,969.75311 -1.70877,0 0,0"
       id="path16623-4-2-0"
       inkscape:connector-curvature="0"
       inkscape:transform-center-x="-0.854382" />
    <path
       style="fill:#1a1a1a;stroke:#d4d4d4;stroke-width:0.99999994px;stroke-linecap:butt;stroke-linejoin:miter;stroke-opacity:1"
       d="m 345.29648,981.61611 0,-2.0181 0,0"
       id="path16623-4-3-9-0"
       inkscape:connector-curvature="0"
       inkscape:transform-center-y="1.0091015" />
    <path
       style="fill:#1a1a1a;stroke:#d4d4d4;stroke-width:1px;stroke-linecap:butt;stroke-linejoin:miter;stroke-opacity:1"
       d="m 333.43348,969.75311 11.863,0 0,0"
       id="path16623-4-3-4-1-0"
       inkscape:connector-curvature="0"
       inkscape:transform-center-x="5.9315" />
    <path
       inkscape:connector-curvature="0"
       sodipodi:nodetypes="cccccccccccccc"
       id="path9518-0-7"
       d="m 14.999994,1025.9915 -11.2422196,9.9235 2.2484301,0 0,12.8177 6.7453475,0 0,-7.5644 4.651059,0 1.3e-5,7.5644 6.591159,0 0,-12.8177 2.248444,0 -11.242237,-9.9235 0,0 0,0 z"
       style="font-size:12px;fill:none;stroke:none" />
    <path
       style="color:#000000;fill:#1a1a1a;fill-opacity:1;fill-rule:nonzero;stroke:none;stroke-width:3;marker:none;visibility:visible;display:inline;overflow:visible;enable-background:accumulate"
       d="m 10.38495,1028.4024 0,11.1998 16.65796,0 0,-11.1998 -16.65796,0 z m -5.4711301,2.5233 -1.76364,1.7636 0,9.3073 -0.99122,0 0,2.9094 2.27854,0 0.74666,-0.7467 0.59216,0 c 0.0938,-1.5163 1.34381,-2.7162 2.88361,-2.7162 1.5398101,0 2.7899101,1.1999 2.8836001,2.7162 l 7.64671,0 c 0.0938,-1.5163 1.34381,-2.7162 2.88361,-2.7162 1.60078,0 2.89649,1.2956 2.89649,2.8964 0,0.2146 -0.0201,0.4294 -0.0644,0.6308 l 2.9351,0 0,-2.7033 -0.83676,-0.2319 0,-1.5705 -17.4432399,0 0,-9.5389 -4.6472401,0 z m -1.04274,2.0854 3.79763,0 0,5.2394 -3.79763,0 0,-5.2394 z m 0,6.8099 1.18434,0 0,1.5448 -1.18434,0 0,-1.5448 z m 4.78885,2.549 c -1.09294,0 -1.98248,0.8766 -1.98248,1.9695 0,1.093 0.88954,1.9825 1.98248,1.9825 1.0929501,0 1.9824801,-0.8895 1.9824801,-1.9825 0,-1.0929 -0.88953,-1.9695 -1.9824801,-1.9695 z m 13.4139201,0 c -1.09295,0 -1.9696,0.8766 -1.9696,1.9695 0,1.093 0.87665,1.9825 1.9696,1.9825 1.09295,0 1.98247,-0.8895 1.98247,-1.9825 0,-1.0929 -0.88952,-1.9695 -1.98247,-1.9695 z m -19.01377,0.5793 1.22294,0 0,1.21 -1.22294,0 0,-1.21 z m 5.59985,0.4505 c 0.5188801,0 0.9397501,0.4209 0.9397501,0.9397 0,0.5189 -0.42087,0.9398 -0.9397501,0.9398 -0.51887,0 -0.93973,-0.4209 -0.93973,-0.9398 0,-0.5188 0.42086,-0.9397 0.93973,-0.9397 z m 13.41392,0 c 0.51888,0 0.93976,0.4209 0.93976,0.9397 0,0.5189 -0.42088,0.9398 -0.93976,0.9398 -0.51887,0 -0.93974,-0.4209 -0.93974,-0.9398 0,-0.5188 0.42087,-0.9397 0.93974,-0.9397 z"
       id="rect14374-6"
       inkscape:connector-curvature="0" />
  </g>
</svg>
