<?xml version="1.0" encoding="UTF-8" standalone="no"?>
<!-- Created with Inkscape (http://www.inkscape.org/) -->

<svg
   xmlns:dc="http://purl.org/dc/elements/1.1/"
   xmlns:cc="http://creativecommons.org/ns#"
   xmlns:rdf="http://www.w3.org/1999/02/22-rdf-syntax-ns#"
   xmlns:svg="http://www.w3.org/2000/svg"
   xmlns="http://www.w3.org/2000/svg"
   xmlns:sodipodi="http://sodipodi.sourceforge.net/DTD/sodipodi-0.dtd"
   xmlns:inkscape="http://www.inkscape.org/namespaces/inkscape"
   width="30"
   height="30"
   id="svg2"
   sodipodi:version="0.32"
   inkscape:version="0.48.4 r9939"
   sodipodi:docname="van.svg"
   inkscape:output_extension="org.inkscape.output.svg.inkscape"
   version="1.1">
  <defs
     id="defs4" />
  <sodipodi:namedview
     id="base"
     pagecolor="#ffffff"
     bordercolor="#666666"
     borderopacity="1.0"
     inkscape:pageopacity="0.0"
     inkscape:pageshadow="2"
     inkscape:zoom="10.276087"
     inkscape:cx="15.344828"
     inkscape:cy="14.482759"
     inkscape:document-units="px"
     inkscape:current-layer="layer1"
     inkscape:window-width="656"
     inkscape:window-height="1029"
     inkscape:window-x="0"
     inkscape:window-y="19"
     showgrid="false"
     inkscape:window-maximized="0" />
  <metadata
     id="metadata7">
    <rdf:RDF>
      <cc:Work
         rdf:about="">
        <dc:format>image/svg+xml</dc:format>
        <dc:type
           rdf:resource="http://purl.org/dc/dcmitype/StillImage" />
        <dc:title></dc:title>
      </cc:Work>
    </rdf:RDF>
  </metadata>
  <g
     inkscape:label="Capa 1"
     inkscape:groupmode="layer"
     id="layer1"
     transform="translate(0,-1022.3622)">
    <path
       sodipodi:type="arc"
       style="color:#000000;fill:#1a1a1a;stroke:#d4d4d4;stroke-width:1.02777779;stroke-opacity:1;marker:none;visibility:visible;display:inline;overflow:visible;enable-background:accumulate"
       id="path16617-6-6"
       sodipodi:cx="15.16226"
       sodipodi:cy="16.56851"
       sodipodi:rx="14.008413"
       sodipodi:ry="14.008413"
       d="m 29.170673,16.56851 a 14.008413,14.008413 0 1 1 -28.0168263,0 14.008413,14.008413 0 1 1 28.0168263,0 z"
       transform="matrix(0.97297297,0,0,0.97297297,330.50795,953.63241)" />
    <path
       style="fill:#1a1a1a;stroke:#d4d4d4;stroke-width:1px;stroke-linecap:butt;stroke-linejoin:miter;stroke-opacity:1"
       d="m 345.29648,957.89011 0,11.863 0,0"
       id="path16623-6-2"
       inkscape:connector-curvature="0"
       inkscape:transform-center-y="-5.9314904" />
    <path
       style="fill:#1a1a1a;stroke:#d4d4d4;stroke-width:1px;stroke-linecap:butt;stroke-linejoin:miter;stroke-opacity:1"
       d="m 357.15947,969.75311 -1.70877,0 0,0"
       id="path16623-4-2-0"
       inkscape:connector-curvature="0"
       inkscape:transform-center-x="-0.854382" />
    <path
       style="fill:#1a1a1a;stroke:#d4d4d4;stroke-width:0.99999994px;stroke-linecap:butt;stroke-linejoin:miter;stroke-opacity:1"
       d="m 345.29648,981.61611 0,-2.0181 0,0"
       id="path16623-4-3-9-0"
       inkscape:connector-curvature="0"
       inkscape:transform-center-y="1.0091015" />
    <path
       style="fill:#1a1a1a;stroke:#d4d4d4;stroke-width:1px;stroke-linecap:butt;stroke-linejoin:miter;stroke-opacity:1"
       d="m 333.43348,969.75311 11.863,0 0,0"
       id="path16623-4-3-4-1-0"
       inkscape:connector-curvature="0"
       inkscape:transform-center-x="5.9315" />
    <path
       inkscape:connector-curvature="0"
       sodipodi:nodetypes="cccccccccccccc"
       id="path9518-0-7"
       d="m 14.999994,1025.9915 -11.2422196,9.9235 2.2484301,0 0,12.8177 6.7453475,0 0,-7.5644 4.651059,0 1.3e-5,7.5644 6.591159,0 0,-12.8177 2.248444,0 -11.242237,-9.9235 0,0 0,0 z"
       style="font-size:12px;fill:none;stroke:none" />
    <path
       style="color:#000000;fill:#1a1a1a;fill-opacity:1;fill-rule:nonzero;stroke:none;stroke-width:2;marker:none;visibility:visible;display:inline;overflow:visible;enable-background:accumulate"
       d="m 7.6792451,1026.3472 -2.94804,2.5288 1.66521,1.4306 -0.71543,0 -2.8987,2.8986 0,12.076 2.50398,0 c -0.5972,0.2355 -1.0238,0.8115 -1.0238,1.4926 0,0.8892 0.71423,1.6034 1.60355,1.6034 0.88929,0 1.61587,-0.7142 1.61587,-1.6034 0,-0.6809 -0.42659,-1.2571 -1.0238,-1.4926 l 16.0970299,0 c -0.5972,0.2355 -1.0238,0.8115 -1.0238,1.4926 0,0.8892 0.72658,1.6034 1.61588,1.6034 0.88931,0 1.60354,-0.7142 1.60354,-1.6034 0,-0.6809 -0.42659,-1.2571 -1.0238,-1.4926 l 3.49078,0 0,-12.1499 -3.21942,-2.8247 -1.0978,0 1.66521,-1.4306 -2.96037,-2.5288 -2.94804,2.5288 1.66521,1.4306 -11.3480999,0 1.6652099,-1.4306 -2.9603699,-2.5288 z m 0,0.5796 2.26962,1.9492 -1.66522,1.4306 -1.20882,0 -1.6652,-1.4306 2.26962,-1.9492 z m 13.9260899,0 2.26962,1.9492 -1.66521,1.4306 -1.20882,0 -1.66521,-1.4306 2.26962,-1.9492 z m -18.2309799,6.4758 4.19386,0 0,6.0442 -4.19386,0 0,-6.0442 z m 5.15599,0 2.8123599,0 0,6.0442 -2.8123599,0 0,-6.0442 z m 3.7374799,0 2.82469,0 0,6.0442 -2.82469,0 0,-6.0442 z m 3.74981,0 2.81235,0 0,6.0442 -2.81235,0 0,-6.0442 z m 3.73746,0 2.8247,0 0,6.0442 -2.8247,0 0,-6.0442 z m 3.74981,0 2.81235,0 0,6.0442 -2.81235,0 0,-6.0442 z m -20.1305499,8.6964 22.9922399,0 0,1.3319 -22.9922399,0 0,-1.3319 z"
       id="rect14178-5"
       inkscape:connector-curvature="0" />
  </g>
</svg>
