<?xml version="1.0" encoding="UTF-8" standalone="no"?>
<!-- Created with Inkscape (http://www.inkscape.org/) -->

<svg
   xmlns:dc="http://purl.org/dc/elements/1.1/"
   xmlns:cc="http://creativecommons.org/ns#"
   xmlns:rdf="http://www.w3.org/1999/02/22-rdf-syntax-ns#"
   xmlns:svg="http://www.w3.org/2000/svg"
   xmlns="http://www.w3.org/2000/svg"
   xmlns:sodipodi="http://sodipodi.sourceforge.net/DTD/sodipodi-0.dtd"
   xmlns:inkscape="http://www.inkscape.org/namespaces/inkscape"
   width="30"
   height="30"
   id="svg2"
   sodipodi:version="0.32"
   inkscape:version="0.48.4 r9939"
   sodipodi:docname="no_smoke.svg"
   inkscape:output_extension="org.inkscape.output.svg.inkscape"
   version="1.1">
  <defs
     id="defs4" />
  <sodipodi:namedview
     id="base"
     pagecolor="#ffffff"
     bordercolor="#666666"
     borderopacity="1.0"
     inkscape:pageopacity="0.0"
     inkscape:pageshadow="2"
     inkscape:zoom="10.276087"
     inkscape:cx="15.344828"
     inkscape:cy="14.482759"
     inkscape:document-units="px"
     inkscape:current-layer="layer1"
     inkscape:window-width="656"
     inkscape:window-height="1029"
     inkscape:window-x="0"
     inkscape:window-y="19"
     showgrid="false"
     inkscape:window-maximized="0" />
  <metadata
     id="metadata7">
    <rdf:RDF>
      <cc:Work
         rdf:about="">
        <dc:format>image/svg+xml</dc:format>
        <dc:type
           rdf:resource="http://purl.org/dc/dcmitype/StillImage" />
        <dc:title></dc:title>
      </cc:Work>
    </rdf:RDF>
  </metadata>
  <g
     inkscape:label="Capa 1"
     inkscape:groupmode="layer"
     id="layer1"
     transform="translate(0,-1022.3622)">
    <path
       sodipodi:type="arc"
       style="color:#000000;fill:#1a1a1a;stroke:#d4d4d4;stroke-width:1.02777779;stroke-opacity:1;marker:none;visibility:visible;display:inline;overflow:visible;enable-background:accumulate"
       id="path16617-6-6"
       sodipodi:cx="15.16226"
       sodipodi:cy="16.56851"
       sodipodi:rx="14.008413"
       sodipodi:ry="14.008413"
       d="m 29.170673,16.56851 a 14.008413,14.008413 0 1 1 -28.0168263,0 14.008413,14.008413 0 1 1 28.0168263,0 z"
       transform="matrix(0.97297297,0,0,0.97297297,330.50795,953.63241)" />
    <path
       style="fill:#1a1a1a;stroke:#d4d4d4;stroke-width:1px;stroke-linecap:butt;stroke-linejoin:miter;stroke-opacity:1"
       d="m 345.29648,957.89011 0,11.863 0,0"
       id="path16623-6-2"
       inkscape:connector-curvature="0"
       inkscape:transform-center-y="-5.9314904" />
    <path
       style="fill:#1a1a1a;stroke:#d4d4d4;stroke-width:1px;stroke-linecap:butt;stroke-linejoin:miter;stroke-opacity:1"
       d="m 357.15947,969.75311 -1.70877,0 0,0"
       id="path16623-4-2-0"
       inkscape:connector-curvature="0"
       inkscape:transform-center-x="-0.854382" />
    <path
       style="fill:#1a1a1a;stroke:#d4d4d4;stroke-width:0.99999994px;stroke-linecap:butt;stroke-linejoin:miter;stroke-opacity:1"
       d="m 345.29648,981.61611 0,-2.0181 0,0"
       id="path16623-4-3-9-0"
       inkscape:connector-curvature="0"
       inkscape:transform-center-y="1.0091015" />
    <path
       style="fill:#1a1a1a;stroke:#d4d4d4;stroke-width:1px;stroke-linecap:butt;stroke-linejoin:miter;stroke-opacity:1"
       d="m 333.43348,969.75311 11.863,0 0,0"
       id="path16623-4-3-4-1-0"
       inkscape:connector-curvature="0"
       inkscape:transform-center-x="5.9315" />
    <path
       inkscape:connector-curvature="0"
       sodipodi:nodetypes="cccccccccccccc"
       id="path9518-0-7"
       d="m 14.999994,1025.9915 -11.2422196,9.9235 2.2484301,0 0,12.8177 6.7453475,0 0,-7.5644 4.651059,0 1.3e-5,7.5644 6.591159,0 0,-12.8177 2.248444,0 -11.242237,-9.9235 0,0 0,0 z"
       style="font-size:12px;fill:none;stroke:none" />
    <path
       style="fill:#1a1a1a;fill-opacity:1;stroke:none"
       d="m 27.088925,1026.1106 c -0.0675,0.016 -0.13328,0.021 -0.19492,0.053 l -2.92685,1.6766 -0.45376,1.9566 -20.48329,0.037 c -0.37463,0.066 -0.75322,0.1233 -0.76563,0.7335 l 2.5074,9.7482 c 0.0886,0.5069 0.15454,0.5593 0.6970096,0.6632 l 15.2236904,2.0973 0,0.8383 -13.7251704,0 c -0.3354,0 -0.44445,0.1649 -0.53329,0.3363 -0.81071,0.3289 -1.3831196,1.1255 -1.3831196,2.0565 0,1.2255 0.9909596,2.2194 2.2126796,2.2194 1.22172,0 2.21112,-0.9939 2.21112,-2.2194 0,-0.3608 -0.0863,-0.7013 -0.23858,-1.0024 l 8.3205604,-0.019 c -0.18782,0.3259 -0.29627,0.7053 -0.29627,1.1089 0,1.2253 0.99096,2.2192 2.21268,2.2192 1.22172,0 2.21112,-0.9939 2.21112,-2.2192 0,-0.4078 -0.10986,-0.7902 -0.30095,-1.1184 l 0.2838,0 c 0.19545,-0.1201 0.40413,-0.2173 0.41946,-0.699 l 0.0343,-2.2365 3.1358,-13.6614 2.15966,-1.2918 c 0.6725,-0.6428 0.14513,-1.2974 -0.32746,-1.2762 z m -23.22302,5.1189 2.1596596,0 0,2.7088 -1.4423696,0 -0.71729,-2.7088 z m 3.1701096,0 3.4320704,0 0,2.7088 -3.4320704,0 0,-2.7088 z m 4.4425104,0 3.43052,0 0,2.7088 -3.43052,0 0,-2.7088 z m 4.44096,0 3.43207,0 0,2.7088 -3.43207,0 0,-2.7088 z m 4.44251,0 2.80367,0 -0.644,2.7088 -2.15967,0 0,-2.7088 z m -15.5106,3.7208 1.1741696,0 0,2.97 -0.38827,0 -0.7858996,-2.97 z m 2.1846196,0 3.4320704,0 0,2.97 -3.4320704,0 0,-2.97 z m 4.4425104,0 3.43052,0 0,2.97 -3.43052,0 0,-2.97 z m 4.44096,0 3.43207,0 0,2.97 -3.43207,0 0,-2.97 z m 4.44251,0 1.91953,0 -0.70481,2.97 -1.21472,0 0,-2.97 z m -14.4564904,3.9835 0.12006,0 0,0.4519 -0.12006,-0.4519 z m 1.13051,0 3.4320704,0 0,1.3137 -3.4320704,-0.4693 0,-0.8444 z m 4.4425104,0 3.43052,0 0,1.9189 -3.43052,-0.4677 0,-1.4512 z m 4.44096,0 3.43207,0 0,2.5257 -3.43207,-0.4691 0,-2.0566 z m 4.44251,0 0.97458,0 -0.644,2.7088 -0.33058,-0.045 0,-2.6635 z m -12.7287604,6.3732 c 0.40424,0.1505 0.69234,0.5413 0.69234,0.9993 0,0.5886 -0.47509,1.0666 -1.0619,1.0666 -0.58681,0 -1.06346,-0.478 -1.06346,-1.0666 0,-0.4563 0.28699,-0.8461 0.68922,-0.9979 l 0.7438,0 z m 11.7853704,0.022 c 0.0181,0 0.0362,0 0.0546,0 0.58681,0 1.0619,0.4764 1.0619,1.065 0,0.5885 -0.47509,1.0666 -1.0619,1.0666 -0.58681,0 -1.06346,-0.4781 -1.06346,-1.0666 0,-0.5701 0.44743,-1.0365 1.00889,-1.065 z"
       id="path21695-0"
       inkscape:connector-curvature="0" />
  </g>
</svg>
