<?xml version="1.0" encoding="UTF-8" standalone="no"?>
<!-- Created with Inkscape (http://www.inkscape.org/) -->

<svg
   xmlns:dc="http://purl.org/dc/elements/1.1/"
   xmlns:cc="http://creativecommons.org/ns#"
   xmlns:rdf="http://www.w3.org/1999/02/22-rdf-syntax-ns#"
   xmlns:svg="http://www.w3.org/2000/svg"
   xmlns="http://www.w3.org/2000/svg"
   xmlns:sodipodi="http://sodipodi.sourceforge.net/DTD/sodipodi-0.dtd"
   xmlns:inkscape="http://www.inkscape.org/namespaces/inkscape"
   width="30"
   height="30"
   id="svg2"
   sodipodi:version="0.32"
   inkscape:version="0.48.4 r9939"
   sodipodi:docname="pocket_trumpet.svg"
   inkscape:output_extension="org.inkscape.output.svg.inkscape"
   version="1.1">
  <defs
     id="defs4" />
  <sodipodi:namedview
     id="base"
     pagecolor="#ffffff"
     bordercolor="#666666"
     borderopacity="1.0"
     inkscape:pageopacity="0.0"
     inkscape:pageshadow="2"
     inkscape:zoom="10.276087"
     inkscape:cx="15.344828"
     inkscape:cy="14.482759"
     inkscape:document-units="px"
     inkscape:current-layer="layer1"
     inkscape:window-width="656"
     inkscape:window-height="1029"
     inkscape:window-x="0"
     inkscape:window-y="19"
     showgrid="false"
     inkscape:window-maximized="0" />
  <metadata
     id="metadata7">
    <rdf:RDF>
      <cc:Work
         rdf:about="">
        <dc:format>image/svg+xml</dc:format>
        <dc:type
           rdf:resource="http://purl.org/dc/dcmitype/StillImage" />
        <dc:title></dc:title>
      </cc:Work>
    </rdf:RDF>
  </metadata>
  <g
     inkscape:label="Capa 1"
     inkscape:groupmode="layer"
     id="layer1"
     transform="translate(0,-1022.3622)">
    <path
       sodipodi:type="arc"
       style="color:#000000;fill:#1a1a1a;stroke:#d4d4d4;stroke-width:1.02777779;stroke-opacity:1;marker:none;visibility:visible;display:inline;overflow:visible;enable-background:accumulate"
       id="path16617-6-6"
       sodipodi:cx="15.16226"
       sodipodi:cy="16.56851"
       sodipodi:rx="14.008413"
       sodipodi:ry="14.008413"
       d="m 29.170673,16.56851 a 14.008413,14.008413 0 1 1 -28.0168263,0 14.008413,14.008413 0 1 1 28.0168263,0 z"
       transform="matrix(0.97297297,0,0,0.97297297,330.50795,953.63241)" />
    <path
       style="fill:#1a1a1a;stroke:#d4d4d4;stroke-width:1px;stroke-linecap:butt;stroke-linejoin:miter;stroke-opacity:1"
       d="m 345.29648,957.89011 0,11.863 0,0"
       id="path16623-6-2"
       inkscape:connector-curvature="0"
       inkscape:transform-center-y="-5.9314904" />
    <path
       style="fill:#1a1a1a;stroke:#d4d4d4;stroke-width:1px;stroke-linecap:butt;stroke-linejoin:miter;stroke-opacity:1"
       d="m 357.15947,969.75311 -1.70877,0 0,0"
       id="path16623-4-2-0"
       inkscape:connector-curvature="0"
       inkscape:transform-center-x="-0.854382" />
    <path
       style="fill:#1a1a1a;stroke:#d4d4d4;stroke-width:0.99999994px;stroke-linecap:butt;stroke-linejoin:miter;stroke-opacity:1"
       d="m 345.29648,981.61611 0,-2.0181 0,0"
       id="path16623-4-3-9-0"
       inkscape:connector-curvature="0"
       inkscape:transform-center-y="1.0091015" />
    <path
       style="fill:#1a1a1a;stroke:#d4d4d4;stroke-width:1px;stroke-linecap:butt;stroke-linejoin:miter;stroke-opacity:1"
       d="m 333.43348,969.75311 11.863,0 0,0"
       id="path16623-4-3-4-1-0"
       inkscape:connector-curvature="0"
       inkscape:transform-center-x="5.9315" />
    <path
       inkscape:connector-curvature="0"
       sodipodi:nodetypes="cccccccccccccc"
       id="path9518-0-7"
       d="m 14.999994,1025.9915 -11.2422196,9.9235 2.2484301,0 0,12.8177 6.7453475,0 0,-7.5644 4.651059,0 1.3e-5,7.5644 6.591159,0 0,-12.8177 2.248444,0 -11.242237,-9.9235 0,0 0,0 z"
       style="font-size:12px;fill:none;stroke:none" />
    <path
       style="fill:#1a1a1a;fill-opacity:1;fill-rule:evenodd;stroke:none"
       d="m 27.425786,1033.3157 c -0.0999,-0.017 -0.19237,0.069 -0.28244,0.1619 -0.11883,0.124 -0.23387,0.4484 -0.32291,0.6189 -0.0878,0.1688 -0.0534,0.2372 -0.20184,0.3903 -0.14983,0.1533 -0.21355,0.3754 -0.6863,0.5247 -0.47653,0.1499 -1.05243,0.2721 -2.13931,0.3633 -1.09273,0.089 -2.92756,0.1326 -4.34579,0.1749 -0.77016,0.022 -1.42787,0.029 -2.12588,0.04 l 0.0172,-0.053 c -0.14638,0 -0.3174,0 -0.51114,0.017 -0.19961,0 -0.49083,0.021 -0.65926,0 -0.1705,-0.031 -0.29363,-0.086 -0.36338,-0.1619 -0.074,-0.081 -0.0827,-0.2108 -0.0672,-0.2961 0.0172,-0.084 0.0499,-0.1395 0.14811,-0.2152 0.0947,-0.083 0.22336,-0.1619 0.40368,-0.2556 0,-0.046 0.0189,-0.071 0.0172,-0.095 -0.0172,-0.028 -0.0413,-0.055 -0.0551,-0.055 -0.0172,0 -0.0189,0.017 -0.0258,0.041 l -0.0413,0.1085 c -0.0913,0.024 -0.15844,0.062 -0.25558,0.1343 -0.0982,0.064 -0.24954,0.1585 -0.29604,0.269 -0.0534,0.112 -0.0465,0.2721 0.0172,0.3903 0.0396,0.078 0.0758,0.1412 0.17497,0.2018 -0.14466,0 -0.24782,0 -0.40368,0 l 0,-0.095 0.0413,-0.041 0,-0.2961 c -0.0499,-0.033 -0.10333,-0.05 -0.16188,-0.067 -0.0637,-0.017 -0.12745,-0.038 -0.20185,-0.041 l 0,-0.5785 0.22871,-0.028 0,-0.2558 c -0.0723,-0.021 -0.14983,-0.034 -0.22871,-0.04 -0.0896,0 -0.17807,0 -0.25557,0.017 -0.0758,0.017 -0.12744,0.017 -0.17497,0.026 l 0,0.2557 0.21527,0.028 0,0.5919 c -0.0758,0 -0.12572,0.017 -0.18841,0.026 -0.062,0.017 -0.11539,0.036 -0.16189,0.067 l 0,0.296 0.0413,0.041 0,0.1085 c -0.0792,0 -0.18823,0 -0.26917,0 l 0,-0.1085 0.0413,-0.041 0,-0.296 c -0.0499,-0.033 -0.10334,-0.05 -0.16189,-0.067 -0.0637,-0.017 -0.12744,-0.038 -0.20184,-0.041 l 0,-0.5785 0.22871,-0.026 0,-0.2558 c -0.0689,-0.022 -0.15156,-0.034 -0.22871,-0.041 -0.0827,0 -0.18393,0 -0.25575,0.017 -0.0758,0.017 -0.13605,0.017 -0.18823,0.026 l 0,0.2557 0.2287,0.026 0,0.592 c -0.0758,0 -0.12572,0.017 -0.18841,0.026 -0.062,0.017 -0.12916,0.036 -0.17497,0.067 l 0,0.296 0.0551,0.041 0,0.1344 c -0.11022,0 -0.23766,0.017 -0.34978,0.017 l 0,-0.1481 0.0413,-0.041 0,-0.296 c -0.0499,-0.033 -0.10333,-0.05 -0.16188,-0.067 -0.0637,-0.017 -0.12745,-0.038 -0.20185,-0.041 l 0,-0.5785 0.22871,-0.026 0,-0.2558 c -0.0706,-0.022 -0.15155,-0.034 -0.22871,-0.041 -0.0809,0 -0.17049,0 -0.24214,0.017 -0.0758,0.017 -0.13605,0.017 -0.18841,0.026 l 0,0.2557 0.21528,0.026 0,0.592 c -0.0758,0 -0.12572,0.017 -0.18841,0.026 -0.062,0.017 -0.11539,0.036 -0.16189,0.067 l 0,0.296 0.0413,0.041 0,0.1619 c -0.27951,0.017 -0.54214,0.017 -0.83423,0.017 l -6.4044999,0 c -0.24042,-0.041 -0.60294,-0.034 -1.08981,0 -0.0654,-0.076 -0.14466,-0.1377 -0.24214,-0.1748 -0.10161,-0.038 -0.20442,-0.045 -0.34977,-0.055 -0.14811,-0.017 -0.31172,0 -0.52476,0 l -0.12055,-0.2018 -0.48445,0 c -0.1879,0.2499 -0.28244,0.4824 -0.28244,0.7266 0,0.2421 0.0827,0.4767 0.269,0.713 l 0.48446,0 0.10849,-0.2019 c 0.21304,0 0.39094,0 0.53819,-0.017 0.14467,-0.017 0.24903,0 0.34978,-0.041 0.0964,-0.036 0.17635,-0.1034 0.24214,-0.1748 0.46723,0.033 0.8208,0.024 1.06294,-0.017 l 0,0.017 2.82543,0 c -0.0258,0.019 -0.0568,0.034 -0.0809,0.055 -0.29828,0.2499 -0.54697,0.6293 -0.65925,1.009 -0.11195,0.3779 -0.12745,0.8408 -0.0172,1.2245 0.10678,0.3739 0.26212,0.7726 0.65926,1.009 0.30397,0.1743 0.70799,0.2847 1.21088,0.3364 0.0775,0.053 0.16705,0.095 0.28261,0.1205 0.0913,0.022 0.19943,0.024 0.30948,0.026 0.0172,0.017 0.0172,0.031 0.0258,0.041 l 0.4978899,0 c 0,0 -0.0172,-0.029 -0.0172,-0.041 l 1.72219,0 c 0,0.017 0,0.031 0.0172,0.041 l 0.30931,0 0.0672,-0.041 c 0.0499,0 0.0844,-0.017 0.12055,-0.026 l 0,0.9419 -0.0672,0.026 0,0.2959 c 0.0172,0.026 0.0482,0.05 0.1085,0.067 0.0672,0.017 0.18186,0.031 0.26918,0.04 0.0861,0.017 0.14983,0.017 0.22871,0 0.1085,-0.017 0.18961,-0.022 0.25557,-0.04 0.0637,-0.017 0.10333,-0.041 0.12055,-0.067 l 0,-0.3093 -0.0672,-0.017 0,-0.1619 c 0.0172,-0.017 0.0241,-0.022 0.0413,-0.026 0.0379,-0.019 0.0964,-0.024 0.14811,-0.017 0.0499,0 0.0982,0.034 0.16189,0.067 l 0,0.1343 -0.0809,0.026 0,0.296 c 0.0172,0.024 0.062,0.05 0.12055,0.067 0.0654,0.017 0.16878,0.031 0.25575,0.041 0.0861,0.017 0.16189,0.017 0.24214,0 0.1085,-0.017 0.18979,-0.022 0.25558,-0.041 0.0637,-0.017 0.10333,-0.041 0.12055,-0.067 l 0,-0.3095 -0.0672,-0.017 0,-0.1748 c 0.0362,-0.017 0.0809,-0.024 0.13433,-0.017 0.0379,0 0.0878,0.033 0.13433,0.055 l 0,0.1343 -0.0809,0.026 0,0.2958 c 0.0172,0.024 0.0551,0.05 0.12055,0.067 0.062,0.017 0.18376,0.031 0.26918,0.041 0.0827,0 0.155,0 0.22871,0 0.11194,-0.017 0.18772,-0.022 0.25557,-0.041 0.0586,-0.017 0.10678,-0.041 0.12056,-0.067 l 0,-0.3093 -0.0672,-0.017 0,-0.915 3.02727,0 0,0.2018 -1.35881,0 0,-0.1085 -0.13433,0 0,0.1085 -0.0672,0 0,-0.1205 -0.14811,0 0,0.3363 0.14811,0 0,-0.1481 0.0672,0 0,0.1481 0.13433,0 0,-0.1481 1.35881,0 0,0.1344 0.30948,0 0,-0.1344 0.12056,0 0,0.1344 0.30948,0 0,-0.1344 0.16188,0 0,-0.067 -0.16188,0 0,-0.2019 0.80736,0 c -0.0172,0.017 -0.0172,0.041 -0.0172,0.041 l 0.51132,0 c 0.0172,-0.017 0.0172,-0.028 0.0258,-0.041 0.10333,0 0.20701,0 0.29605,-0.026 0.0207,0 0.0344,0 0.0551,-0.017 l 0.0947,0.1085 c -0.0379,0.026 -0.062,0.043 -0.0809,0.067 -0.0189,0.022 -0.0189,0.05 -0.0172,0.067 0.0327,0.028 0.0603,0.043 0.0947,0.067 0.0293,0.024 0.0775,0.047 0.1085,0.055 0.0241,0 0.0499,0 0.0672,-0.026 0.062,0.017 0.12572,-0.017 0.21527,-0.055 0.0913,-0.043 0.20666,-0.093 0.30948,-0.1884 0.0568,-0.062 0.1085,-0.1395 0.16188,-0.2287 0.29657,-0.019 0.55162,-0.077 0.7669,-0.1619 l 0.0413,0.055 c -0.0172,0.017 -0.0344,0.024 -0.0413,0.055 -0.0172,0.028 -0.0241,0.074 -0.0172,0.1085 0,0.029 0.0344,0.059 0.0672,0.067 0.031,0 0.0861,-0.019 0.14811,-0.055 0.1085,0.043 0.23904,0.028 0.39007,-0.055 0.14984,-0.093 0.35822,-0.2346 0.51132,-0.444 0.14984,-0.2111 0.30122,-0.5866 0.37665,-0.7938 0.0706,-0.2151 0.0499,-0.4264 0.0413,-0.4439 -0.0172,-0.017 -0.0362,0.2025 -0.12056,0.3632 -0.0947,0.1515 -0.22905,0.3251 -0.41711,0.5382 -0.0293,-0.029 -0.0637,-0.053 -0.1085,-0.067 -0.0413,-0.017 -0.0964,-0.024 -0.14811,-0.026 0.0172,-0.024 0.0293,-0.041 0.0413,-0.067 0.13778,-0.3196 0.217,-0.7674 0.22871,-1.184 0,-0.2931 -0.0396,-0.645 -0.1085,-0.9419 0.2046,0.028 0.41436,0.059 0.61896,0.095 0.66253,0.1068 1.20002,0.2487 1.60112,0.4037 0.3875,0.1533 0.55989,0.335 0.72643,0.5248 0.16533,0.1841 0.14294,0.3981 0.26917,0.6055 0.124,0.2053 0.27917,0.642 0.45742,0.6322 0.16877,-0.017 0.42383,-0.4145 0.56505,-0.713 0.13261,-0.3022 0.19547,-0.7085 0.25575,-1.0629 0.0568,-0.3527 0.0878,-0.7008 0.0947,-1.0495 0.0172,-0.3856 0.0172,-0.7466 -0.0172,-1.1167 -0.0241,-0.3701 -0.0344,-0.776 -0.12056,-1.0764 -0.0896,-0.3003 -0.27193,-0.6124 -0.40368,-0.7131 -0.0327,-0.024 -0.0603,-0.036 -0.0947,-0.041 z m -18.5135999,2.9599 3.3367499,0 0,0.7669 0,1.5609 c -0.0413,-0.017 -0.0844,-0.021 -0.13433,-0.026 l -0.0672,-0.041 -0.32291,0 c -0.0172,0.017 -0.0172,0.019 -0.0172,0.026 l -1.7492299,0 c 0,0 0,-0.026 0,-0.026 -0.15672,0 -0.31207,0.017 -0.47085,0 -0.0172,0.017 -0.0189,0.019 -0.0258,0.026 -0.0775,0 -0.15672,0 -0.2287,0.017 -0.0982,0.021 -0.18962,0.064 -0.26901,0.1206 -0.0878,0.057 -0.14983,0.1206 -0.20184,0.2153 -0.0551,0.091 -0.0878,0.2104 -0.0947,0.3363 0,0.017 3.4e-4,0.028 0,0.041 -0.27211,-0.036 -0.49031,-0.1205 -0.65926,-0.2691 -0.22664,-0.1957 -0.34375,-0.5107 -0.39025,-0.8341 -0.0413,-0.3353 0.0293,-0.8204 0.14811,-1.1034 0.11366,-0.279 0.29983,-0.4429 0.53819,-0.5785 0.17221,-0.1068 0.3682,-0.1808 0.60535,-0.2287 z m 4.1844199,0 c 0.10677,0 0.24575,0.017 0.34977,0.017 l 0,0.7534 0,1.09 c -0.0172,-0.017 -0.0172,-0.028 -0.0276,-0.041 -0.0172,0.06 -0.0396,0.1 -0.0809,0.1205 -0.0396,0.017 -0.11366,0 -0.14811,-0.017 -0.0379,-0.022 -0.074,-0.047 -0.0809,-0.095 0,0 -0.0172,0 -0.0172,0 l 0,-1.063 0,-0.7669 z m 1.19744,0.055 c 0.11022,0 0.16877,0 0.26918,0 l 0,0.7132 0,1.1032 c -0.0172,0.021 -0.0362,0.033 -0.0534,0.041 -0.0396,0.021 -0.12572,0 -0.16189,-0.017 -0.0276,-0.017 -0.0413,-0.038 -0.0551,-0.067 l 0,-1.0629 0,-0.713 z m 1.11684,0.026 c 0.66873,0.017 1.28941,0.033 2.11228,0.067 0.91224,0.04 2.06336,0.1017 3.09461,0.1619 l 0,0.2019 0.0672,0 0,1.7759 c -0.0499,-0.017 -0.0982,0 -0.14811,0 -0.0172,-0.017 -0.0172,-0.021 -0.0258,-0.028 -0.15844,0.017 -0.31378,0 -0.47085,0 0,0 0.0172,0.022 0.0172,0.028 l -1.14354,0 0,-0.055 0.0947,0 0,-0.067 -0.0947,0 0,-0.1205 -0.20184,0 0,-0.1344 0.12056,0 0,-0.081 -0.37682,0 0,0.081 0.12055,0 0,0.1344 -0.21527,0 0,0.1205 -1.97777,0 c 0.17222,-0.091 0.29604,-0.2633 0.29604,-0.4708 0,-0.2995 -0.2523,-0.5382 -0.55162,-0.5382 -0.29948,0 -0.53818,0.2387 -0.53818,0.5382 0,0.2995 0.2387,0.5382 0.53818,0.5382 l 2.23335,0 0,0.055 -2.94651,0 0,-1.5204 0,-0.6861 z m 5.5701,0.2556 c 0.25024,0.017 0.56023,0.024 0.76689,0.041 0.44846,0.031 0.77465,0.06 1.08998,0.095 0.0982,0.2359 0.16017,0.6296 0.1748,0.9284 0.0189,0.3081 -0.0172,0.6188 -0.0947,0.8746 -0.10505,0.2538 -0.26728,0.4987 -0.49771,0.6324 -0.13605,0.072 -0.29484,0.105 -0.47102,0.1205 -0.0172,-0.06 -0.0172,-0.124 -0.0413,-0.1884 -0.0586,-0.1378 -0.23215,-0.3899 -0.26901,-0.4171 -0.0327,-0.036 0.0362,0.1292 0.0672,0.2287 0.0276,0.095 0.062,0.2471 0.0809,0.3499 0,0 -0.0172,0 -0.0172,0 -0.14811,0 -0.29535,-8e-4 -0.44398,0 0,-0.017 0,-0.019 0,-0.026 -0.0172,-0.1257 -0.0413,-0.2454 -0.0947,-0.3363 -0.0517,-0.095 -0.12572,-0.1585 -0.20184,-0.2153 -0.0448,-0.031 -0.0964,-0.06 -0.14811,-0.081 l 0,-1.8299 0.0947,0 0,-0.175 z m -4.84368,0.8881 c 0.25351,0 0.45759,0.2142 0.45759,0.4708 0,0.2568 -0.20408,0.4575 -0.45759,0.4575 -0.2535,0 -0.45741,-0.2007 -0.45741,-0.4575 0,-0.2566 0.20391,-0.4708 0.45741,-0.4708 z m -1.74906,0.9283 c 0.0241,0 0.0551,0 0.0809,0 0.0293,0.017 0.0603,0.029 0.0947,0.041 l 0,0.915 c -0.0172,0.017 -0.0241,0.019 -0.0413,0.026 -0.0534,0.017 -0.14122,0.021 -0.18823,0 -0.0189,-0.017 -0.0276,-0.027 -0.0413,-0.041 l 0,-0.915 c 0.0172,0 0.0258,-0.017 0.0413,-0.017 0.0189,-0.017 0.0293,-0.017 0.0551,-0.017 z m -1.17057,0.026 c 0.0241,0 0.0551,0 0.0809,0 0.0431,0.017 0.0964,0.031 0.1481,0.055 l 0,0.067 c -0.0172,-6e-4 -0.0172,5e-4 -0.0172,0 l -0.0809,-0.041 -0.25557,0 0,-0.017 c 0.0224,-0.019 0.0396,-0.047 0.0672,-0.053 0.0189,-0.017 0.031,-0.017 0.0551,-0.017 z m 0.2287,0.6861 0,0.3365 c -0.0172,-5e-4 -0.0172,4e-4 -0.0172,0 l -0.0809,-0.041 -0.25557,0 0,-0.2558 0.26918,0 0.0809,-0.041 z m -4.0767799,0.017 c 0.0396,0 0.0861,0 0.13433,0 0.0172,0.017 0.019,0.021 0.0276,0.026 l 0.4978899,0 c 0,0 -0.0172,-0.021 -0.0172,-0.026 l 1.72219,0 c 0,0.017 0,0.021 0.0172,0.026 l 0.26901,0 c 0,0.024 -0.0172,0.043 -0.0172,0.067 0,0.057 0.0172,0.124 0.0172,0.1884 l -0.29605,0 c 0,0.017 0,0.019 -0.0172,0.026 l -1.7490599,0 c 3.5e-4,0 0,-0.017 0,-0.017 -0.15672,0 -0.31206,-0.017 -0.47085,-0.017 -0.0172,0.017 -0.0189,0.019 -0.0276,0.028 -0.0517,0 -0.11367,-0.017 -0.14811,-0.017 -0.0654,-0.017 -0.10506,-0.048 -0.12056,-0.081 -0.0224,-0.041 -0.0172,-0.1154 0.0172,-0.1481 0.0241,-0.038 0.0947,-0.06 0.16188,-0.067 z m 6.0412899,0 4.5745,0 c 0,0.017 -0.0172,0.026 -0.0172,0.026 l 0.51132,0 c 0.0172,0 0.0172,-0.019 0.0172,-0.026 0.043,0 0.0844,0 0.12055,0 l 0,0.1481 -4.97818,0 c 0,-0.017 -0.0172,-0.029 -0.0258,-0.041 l -0.20167,0 0,-0.1085 z m 7.79018,0.081 c 0.0241,0.028 0.0482,0.052 0.0809,0.067 0.0344,0.017 0.0878,0.024 0.13433,0.026 0.043,0.045 0.031,0.098 -0.0258,0.1619 -0.0603,0.064 -0.17583,0.1326 -0.33634,0.2152 0,-0.038 0,-0.064 -0.0258,-0.081 -0.0241,-0.017 -0.0585,-0.017 -0.1085,-0.017 l -0.0551,-0.026 c 0.13606,-0.093 0.24834,-0.2144 0.33635,-0.3499 z m -8.82625,0.471 c 0.0276,0 0.062,-0.017 0.0947,0 0.0275,0 0.062,0.029 0.0947,0.041 l 0,0.6861 c 0,-0.017 0,-0.017 -0.0172,-0.017 -0.0172,0.055 -0.0465,0.1051 -0.0809,0.1206 -0.0431,0.021 -0.11194,0 -0.14811,-0.017 -0.0172,-0.017 -0.0189,-0.021 -0.0258,-0.026 l 0,-0.767 c 0,0 0.0172,0 0.0172,0 0.0224,-0.017 0.0396,-0.024 0.0672,-0.026 z m 6.74085,0.1882 0.0947,0 c 0,0 -0.0172,0.026 -0.0172,0.026 l 0.41711,0 c -0.0172,0.017 -0.0172,0.038 -0.0258,0.053 -0.0551,0.074 -0.12572,0.1223 -0.21527,0.1619 0.0172,-0.024 8.6e-4,-0.048 -0.0172,-0.067 -0.0172,-0.029 -0.0585,-0.043 -0.0809,-0.055 -0.0293,0 -0.0689,-0.019 -0.0947,0 l -0.1085,-0.1085 c 0.0172,0 0.0293,0 0.0413,-0.017 z m -7.66929,0.1619 0,0.4171 c -0.0172,-0.022 -0.0327,-0.046 -0.0551,-0.067 -0.0172,0.055 -0.0258,0.105 -0.0672,0.1205 -0.0396,0.021 -0.12572,0 -0.16188,-0.017 -0.0362,-0.021 -0.0603,-0.045 -0.0672,-0.095 l 0,-0.3229 0.269,0 0.0809,-0.041 z m 5.30127,0 0.12055,0 0,0.2019 -0.12055,0 0,-0.2019 z"
       id="path7-5"
       inkscape:connector-curvature="0" />
  </g>
</svg>
