<?xml version="1.0" encoding="UTF-8" standalone="no"?>
<!-- Created with Inkscape (http://www.inkscape.org/) -->

<svg
   xmlns:dc="http://purl.org/dc/elements/1.1/"
   xmlns:cc="http://creativecommons.org/ns#"
   xmlns:rdf="http://www.w3.org/1999/02/22-rdf-syntax-ns#"
   xmlns:svg="http://www.w3.org/2000/svg"
   xmlns="http://www.w3.org/2000/svg"
   xmlns:sodipodi="http://sodipodi.sourceforge.net/DTD/sodipodi-0.dtd"
   xmlns:inkscape="http://www.inkscape.org/namespaces/inkscape"
   width="30"
   height="30"
   id="svg2"
   sodipodi:version="0.32"
   inkscape:version="0.48.4 r9939"
   sodipodi:docname="do_not_enter.svg"
   inkscape:output_extension="org.inkscape.output.svg.inkscape"
   version="1.1">
  <defs
     id="defs4" />
  <sodipodi:namedview
     id="base"
     pagecolor="#ffffff"
     bordercolor="#666666"
     borderopacity="1.0"
     inkscape:pageopacity="0.0"
     inkscape:pageshadow="2"
     inkscape:zoom="10.276087"
     inkscape:cx="15.344828"
     inkscape:cy="14.482759"
     inkscape:document-units="px"
     inkscape:current-layer="layer1"
     inkscape:window-width="656"
     inkscape:window-height="1029"
     inkscape:window-x="0"
     inkscape:window-y="19"
     showgrid="false"
     inkscape:window-maximized="0" />
  <metadata
     id="metadata7">
    <rdf:RDF>
      <cc:Work
         rdf:about="">
        <dc:format>image/svg+xml</dc:format>
        <dc:type
           rdf:resource="http://purl.org/dc/dcmitype/StillImage" />
        <dc:title></dc:title>
      </cc:Work>
    </rdf:RDF>
  </metadata>
  <g
     inkscape:label="Capa 1"
     inkscape:groupmode="layer"
     id="layer1"
     transform="translate(0,-1022.3622)">
    <path
       sodipodi:type="arc"
       style="color:#000000;fill:#1a1a1a;stroke:#d4d4d4;stroke-width:1.02777779;stroke-opacity:1;marker:none;visibility:visible;display:inline;overflow:visible;enable-background:accumulate"
       id="path16617-6-6"
       sodipodi:cx="15.16226"
       sodipodi:cy="16.56851"
       sodipodi:rx="14.008413"
       sodipodi:ry="14.008413"
       d="m 29.170673,16.56851 a 14.008413,14.008413 0 1 1 -28.0168263,0 14.008413,14.008413 0 1 1 28.0168263,0 z"
       transform="matrix(0.97297297,0,0,0.97297297,330.50795,953.63241)" />
    <path
       style="fill:#1a1a1a;stroke:#d4d4d4;stroke-width:1px;stroke-linecap:butt;stroke-linejoin:miter;stroke-opacity:1"
       d="m 345.29648,957.89011 0,11.863 0,0"
       id="path16623-6-2"
       inkscape:connector-curvature="0"
       inkscape:transform-center-y="-5.9314904" />
    <path
       style="fill:#1a1a1a;stroke:#d4d4d4;stroke-width:1px;stroke-linecap:butt;stroke-linejoin:miter;stroke-opacity:1"
       d="m 357.15947,969.75311 -1.70877,0 0,0"
       id="path16623-4-2-0"
       inkscape:connector-curvature="0"
       inkscape:transform-center-x="-0.854382" />
    <path
       style="fill:#1a1a1a;stroke:#d4d4d4;stroke-width:0.99999994px;stroke-linecap:butt;stroke-linejoin:miter;stroke-opacity:1"
       d="m 345.29648,981.61611 0,-2.0181 0,0"
       id="path16623-4-3-9-0"
       inkscape:connector-curvature="0"
       inkscape:transform-center-y="1.0091015" />
    <path
       style="fill:#1a1a1a;stroke:#d4d4d4;stroke-width:1px;stroke-linecap:butt;stroke-linejoin:miter;stroke-opacity:1"
       d="m 333.43348,969.75311 11.863,0 0,0"
       id="path16623-4-3-4-1-0"
       inkscape:connector-curvature="0"
       inkscape:transform-center-x="5.9315" />
    <path
       inkscape:connector-curvature="0"
       sodipodi:nodetypes="cccccccccccccc"
       id="path9518-0-7"
       d="m 14.999994,1025.9915 -11.2422196,9.9235 2.2484301,0 0,12.8177 6.7453475,0 0,-7.5644 4.651059,0 1.3e-5,7.5644 6.591159,0 0,-12.8177 2.248444,0 -11.242237,-9.9235 0,0 0,0 z"
       style="font-size:12px;fill:none;stroke:none" />
    <path
       style="fill:#1a1a1a;fill-opacity:1;stroke:none"
       d="m 11.16379,1029.3843 c -5.8477195,0 -8.3688598,4.4718 -8.3688598,8.3069 l 0,5.5878 1.72593,0 c -0.003,-0.06 -0.0127,-0.124 -0.0127,-0.1875 0,-1.6676 1.3499304,-3.0172 3.0172703,-3.0172 1.6673101,0 3.0296695,1.3496 3.0296695,3.0172 0,0.063 -0.01,0.1239 -0.0127,0.1875 l 9.175961,0 c -0.003,-0.06 -0.0127,-0.124 -0.0127,-0.1875 0,-1.6676 1.34995,-3.0172 3.01727,-3.0172 1.66731,0 3.017259,1.3496 3.017259,3.0172 0,0.063 -0.006,0.1239 -0.0127,0.1875 l 1.47758,0 0,-13.8947 -16.04239,0 z m -5.5378596,2.7938 6.1462906,0 0,4.8548 -8.1453709,0 c 0.13319,-1.6927 0.77344,-3.4521 1.9990803,-4.8548 z m 7.2762206,0 13.496969,0 0,4.8548 -13.496969,0 0,-4.8548 z m -7.4624606,6.0344 20.9594296,0 0,1.2546 -20.9594296,0 0,-1.2546 z m -2.0984403,0.4224 c 0.74178,0.044 1.32859,0.6498 1.32859,1.4028 0,0.7537 -0.58681,1.3573 -1.32859,1.4031 l 0,-2.8062 z m 4.1844503,2.2102 c -1.2421,0 -2.24743,1.0054 -2.24743,2.2476 0,1.2419 1.00533,2.2474 2.24743,2.2474 1.2421,0 2.2598501,-1.0055 2.2598501,-2.2474 0,-1.2422 -1.01775,-2.2476 -2.25985,-2.2476 z m 15.1980706,0 c -1.2421,0 -2.24743,1.0054 -2.24743,2.2476 0,1.2419 1.00533,2.2474 2.24743,2.2474 1.2421,0 2.247419,-1.0055 2.247419,-2.2474 0,-1.2422 -1.005319,-2.2476 -2.247419,-2.2476 z m -15.1980706,1.1796 c 0.59308,0 1.08024,0.4749 1.08024,1.068 0,0.5932 -0.48716,1.0801 -1.08024,1.0801 -0.59308,0 -1.06785,-0.4869 -1.06785,-1.0801 0,-0.5931 0.47477,-1.068 1.06785,-1.068 z m 15.1980706,0 c 0.59308,0 1.08024,0.4749 1.08024,1.068 0,0.5932 -0.48716,1.0801 -1.08024,1.0801 -0.59308,0 -1.06785,-0.4869 -1.06785,-1.0801 0,-0.5931 0.47477,-1.068 1.06785,-1.068 z"
       id="path14597-7"
       inkscape:connector-curvature="0" />
  </g>
</svg>
