<?xml version="1.0" encoding="UTF-8" standalone="no"?>
<!-- Created with Inkscape (http://www.inkscape.org/) -->

<svg
   xmlns:dc="http://purl.org/dc/elements/1.1/"
   xmlns:cc="http://creativecommons.org/ns#"
   xmlns:rdf="http://www.w3.org/1999/02/22-rdf-syntax-ns#"
   xmlns:svg="http://www.w3.org/2000/svg"
   xmlns="http://www.w3.org/2000/svg"
   xmlns:sodipodi="http://sodipodi.sourceforge.net/DTD/sodipodi-0.dtd"
   xmlns:inkscape="http://www.inkscape.org/namespaces/inkscape"
   width="30"
   height="30"
   id="svg2"
   sodipodi:version="0.32"
   inkscape:version="0.48.4 r9939"
   sodipodi:docname="mailbox.svg"
   inkscape:output_extension="org.inkscape.output.svg.inkscape"
   version="1.1">
  <defs
     id="defs4" />
  <sodipodi:namedview
     id="base"
     pagecolor="#ffffff"
     bordercolor="#666666"
     borderopacity="1.0"
     inkscape:pageopacity="0.0"
     inkscape:pageshadow="2"
     inkscape:zoom="10.276087"
     inkscape:cx="15.344828"
     inkscape:cy="14.482759"
     inkscape:document-units="px"
     inkscape:current-layer="layer1"
     inkscape:window-width="656"
     inkscape:window-height="1029"
     inkscape:window-x="0"
     inkscape:window-y="19"
     showgrid="false"
     inkscape:window-maximized="0" />
  <metadata
     id="metadata7">
    <rdf:RDF>
      <cc:Work
         rdf:about="">
        <dc:format>image/svg+xml</dc:format>
        <dc:type
           rdf:resource="http://purl.org/dc/dcmitype/StillImage" />
        <dc:title></dc:title>
      </cc:Work>
    </rdf:RDF>
  </metadata>
  <g
     inkscape:label="Capa 1"
     inkscape:groupmode="layer"
     id="layer1"
     transform="translate(0,-1022.3622)">
    <path
       sodipodi:type="arc"
       style="color:#000000;fill:#1a1a1a;stroke:#d4d4d4;stroke-width:1.02777779;stroke-opacity:1;marker:none;visibility:visible;display:inline;overflow:visible;enable-background:accumulate"
       id="path16617-6-6"
       sodipodi:cx="15.16226"
       sodipodi:cy="16.56851"
       sodipodi:rx="14.008413"
       sodipodi:ry="14.008413"
       d="m 29.170673,16.56851 a 14.008413,14.008413 0 1 1 -28.0168263,0 14.008413,14.008413 0 1 1 28.0168263,0 z"
       transform="matrix(0.97297297,0,0,0.97297297,330.50795,953.63241)" />
    <path
       style="fill:#1a1a1a;stroke:#d4d4d4;stroke-width:1px;stroke-linecap:butt;stroke-linejoin:miter;stroke-opacity:1"
       d="m 345.29648,957.89011 0,11.863 0,0"
       id="path16623-6-2"
       inkscape:connector-curvature="0"
       inkscape:transform-center-y="-5.9314904" />
    <path
       style="fill:#1a1a1a;stroke:#d4d4d4;stroke-width:1px;stroke-linecap:butt;stroke-linejoin:miter;stroke-opacity:1"
       d="m 357.15947,969.75311 -1.70877,0 0,0"
       id="path16623-4-2-0"
       inkscape:connector-curvature="0"
       inkscape:transform-center-x="-0.854382" />
    <path
       style="fill:#1a1a1a;stroke:#d4d4d4;stroke-width:0.99999994px;stroke-linecap:butt;stroke-linejoin:miter;stroke-opacity:1"
       d="m 345.29648,981.61611 0,-2.0181 0,0"
       id="path16623-4-3-9-0"
       inkscape:connector-curvature="0"
       inkscape:transform-center-y="1.0091015" />
    <path
       style="fill:#1a1a1a;stroke:#d4d4d4;stroke-width:1px;stroke-linecap:butt;stroke-linejoin:miter;stroke-opacity:1"
       d="m 333.43348,969.75311 11.863,0 0,0"
       id="path16623-4-3-4-1-0"
       inkscape:connector-curvature="0"
       inkscape:transform-center-x="5.9315" />
    <path
       inkscape:connector-curvature="0"
       sodipodi:nodetypes="cccccccccccccc"
       id="path9518-0-7"
       d="m 14.999994,1025.9915 -11.2422196,9.9235 2.2484301,0 0,12.8177 6.7453475,0 0,-7.5644 4.651059,0 1.3e-5,7.5644 6.591159,0 0,-12.8177 2.248444,0 -11.242237,-9.9235 0,0 0,0 z"
       style="font-size:12px;fill:none;stroke:none" />
    <path
       style="color:#000000;fill:#1a1a1a;fill-opacity:1;fill-rule:nonzero;stroke:none;stroke-width:2;marker:none;visibility:visible;display:inline;overflow:visible;enable-background:accumulate"
       d="m 2.00691,1029.802 0,2.3813 25.98618,0 0,-2.3813 -25.98618,0 z m 0,2.7196 0,1.015 25.98618,0 0,-1.015 -25.98618,0 z m 0,1.8608 0,8.0677 25.98618,0 0,-8.0677 -25.98618,0 z m 6.194,0.8978 c 1.73562,0 3.14905,1.4004 3.14905,3.136 0,1.7357 -1.41343,3.1492 -3.14905,3.1492 -1.73561,0 -3.13604,-1.4135 -3.13604,-3.1492 0,-1.7356 1.40043,-3.136 3.13604,-3.136 z m 13.58516,0 c 1.73562,0 3.14905,1.4004 3.14905,3.136 0,1.7357 -1.41343,3.1492 -3.14905,3.1492 -1.73561,0 -3.13604,-1.4135 -3.13604,-3.1492 0,-1.7356 1.40043,-3.136 3.13604,-3.136 z m -13.58516,0.3384 c -1.54797,0 -2.7977,1.2497 -2.7977,2.7976 0,1.548 1.24973,2.8107 2.7977,2.8107 1.54798,0 2.79771,-1.2627 2.79771,-2.8107 0,-1.5479 -1.24973,-2.7976 -2.79771,-2.7976 z m 13.58516,0 c -1.54798,0 -2.7977,1.2497 -2.7977,2.7976 0,1.548 1.24972,2.8107 2.7977,2.8107 1.54798,0 2.81072,-1.2627 2.81072,-2.8107 0,-1.5479 -1.26274,-2.7976 -2.81072,-2.7976 z m -13.58516,0.2602 c 1.40726,0 2.55047,1.1303 2.55047,2.5374 0,1.4073 -1.14321,2.5506 -2.55047,2.5506 -1.40725,0 -2.55047,-1.1433 -2.55047,-2.5506 0,-1.4071 1.14322,-2.5374 2.55047,-2.5374 z m 13.58516,0 c 1.40726,0 2.55047,1.1303 2.55047,2.5374 0,1.4073 -1.14321,2.5506 -2.55047,2.5506 -1.40725,0 -2.53745,-1.1433 -2.53745,-2.5506 0,-1.4071 1.1302,-2.5374 2.53745,-2.5374 z m -13.58516,0.4164 c -1.17271,0 -2.12105,0.9484 -2.12105,2.121 0,1.1728 0.94834,2.1342 2.12105,2.1342 1.1727,0 2.12105,-0.9614 2.12105,-2.1342 0,-1.1726 -0.94835,-2.121 -2.12105,-2.121 z m 13.58516,0 c -1.17271,0 -2.12105,0.9484 -2.12105,2.121 0,1.1728 0.94834,2.1342 2.12105,2.1342 1.1727,0 2.13406,-0.9614 2.13406,-2.1342 0,-1.1726 -0.96136,-2.121 -2.13406,-2.121 z m -19.77916,7.0919 0,1.5353 25.98618,0 0,-1.5353 -25.98618,0 z"
       id="rect26243-9"
       inkscape:connector-curvature="0" />
  </g>
</svg>
