<?xml version="1.0" encoding="UTF-8" standalone="no"?>
<!-- Created with Inkscape (http://www.inkscape.org/) -->

<svg
   xmlns:dc="http://purl.org/dc/elements/1.1/"
   xmlns:cc="http://creativecommons.org/ns#"
   xmlns:rdf="http://www.w3.org/1999/02/22-rdf-syntax-ns#"
   xmlns:svg="http://www.w3.org/2000/svg"
   xmlns="http://www.w3.org/2000/svg"
   xmlns:sodipodi="http://sodipodi.sourceforge.net/DTD/sodipodi-0.dtd"
   xmlns:inkscape="http://www.inkscape.org/namespaces/inkscape"
   width="30"
   height="30"
   id="svg2"
   sodipodi:version="0.32"
   inkscape:version="0.48.4 r9939"
   sodipodi:docname="piano.svg"
   inkscape:output_extension="org.inkscape.output.svg.inkscape"
   version="1.1">
  <defs
     id="defs4" />
  <sodipodi:namedview
     id="base"
     pagecolor="#ffffff"
     bordercolor="#666666"
     borderopacity="1.0"
     inkscape:pageopacity="0.0"
     inkscape:pageshadow="2"
     inkscape:zoom="10.276087"
     inkscape:cx="15.344828"
     inkscape:cy="14.482759"
     inkscape:document-units="px"
     inkscape:current-layer="layer1"
     inkscape:window-width="656"
     inkscape:window-height="1029"
     inkscape:window-x="0"
     inkscape:window-y="19"
     showgrid="false"
     inkscape:window-maximized="0" />
  <metadata
     id="metadata7">
    <rdf:RDF>
      <cc:Work
         rdf:about="">
        <dc:format>image/svg+xml</dc:format>
        <dc:type
           rdf:resource="http://purl.org/dc/dcmitype/StillImage" />
        <dc:title></dc:title>
      </cc:Work>
    </rdf:RDF>
  </metadata>
  <g
     inkscape:label="Capa 1"
     inkscape:groupmode="layer"
     id="layer1"
     transform="translate(0,-1022.3622)">
    <path
       sodipodi:type="arc"
       style="color:#000000;fill:#1a1a1a;stroke:#d4d4d4;stroke-width:1.02777779;stroke-opacity:1;marker:none;visibility:visible;display:inline;overflow:visible;enable-background:accumulate"
       id="path16617-6-6"
       sodipodi:cx="15.16226"
       sodipodi:cy="16.56851"
       sodipodi:rx="14.008413"
       sodipodi:ry="14.008413"
       d="m 29.170673,16.56851 a 14.008413,14.008413 0 1 1 -28.0168263,0 14.008413,14.008413 0 1 1 28.0168263,0 z"
       transform="matrix(0.97297297,0,0,0.97297297,330.50795,953.63241)" />
    <path
       style="fill:#1a1a1a;stroke:#d4d4d4;stroke-width:1px;stroke-linecap:butt;stroke-linejoin:miter;stroke-opacity:1"
       d="m 345.29648,957.89011 0,11.863 0,0"
       id="path16623-6-2"
       inkscape:connector-curvature="0"
       inkscape:transform-center-y="-5.9314904" />
    <path
       style="fill:#1a1a1a;stroke:#d4d4d4;stroke-width:1px;stroke-linecap:butt;stroke-linejoin:miter;stroke-opacity:1"
       d="m 357.15947,969.75311 -1.70877,0 0,0"
       id="path16623-4-2-0"
       inkscape:connector-curvature="0"
       inkscape:transform-center-x="-0.854382" />
    <path
       style="fill:#1a1a1a;stroke:#d4d4d4;stroke-width:0.99999994px;stroke-linecap:butt;stroke-linejoin:miter;stroke-opacity:1"
       d="m 345.29648,981.61611 0,-2.0181 0,0"
       id="path16623-4-3-9-0"
       inkscape:connector-curvature="0"
       inkscape:transform-center-y="1.0091015" />
    <path
       style="fill:#1a1a1a;stroke:#d4d4d4;stroke-width:1px;stroke-linecap:butt;stroke-linejoin:miter;stroke-opacity:1"
       d="m 333.43348,969.75311 11.863,0 0,0"
       id="path16623-4-3-4-1-0"
       inkscape:connector-curvature="0"
       inkscape:transform-center-x="5.9315" />
    <path
       inkscape:connector-curvature="0"
       sodipodi:nodetypes="cccccccccccccc"
       id="path9518-0-7"
       d="m 14.999994,1025.9915 -11.2422196,9.9235 2.2484301,0 0,12.8177 6.7453475,0 0,-7.5644 4.651059,0 1.3e-5,7.5644 6.591159,0 0,-12.8177 2.248444,0 -11.242237,-9.9235 0,0 0,0 z"
       style="font-size:12px;fill:none;stroke:none" />
    <path
       style="fill:#1a1a1a;fill-opacity:1;fill-rule:evenodd"
       d="m 24.326026,1029.0915 c -0.0306,0.01 -0.0599,0.011 -0.0816,0.027 -0.0474,0.022 -0.0974,0.078 -0.0817,0.1633 0.0158,0.085 0.12239,0.2343 0.16334,0.3539 0.0331,0.1116 0.0446,0.2306 0.0273,0.3266 0.0684,-0.01 0.1108,-0.02 0.13607,0 0.0261,0.02 0.0446,0.062 0.0272,0.1089 l 0.32667,0.7078 c -0.18111,0.081 -0.35847,0.1608 -0.59882,0.2723 l -0.29949,-0.5989 c 0,-0.041 0.009,-0.06 0,-0.082 -0.006,-0.025 -0.01,-0.055 -0.0272,-0.055 -0.0497,0.024 -0.0525,0.012 -0.0273,-0.055 0.0216,-0.066 0.16334,-0.2228 0.16334,-0.3267 -0.0118,-0.1078 -0.0906,-0.235 -0.19061,-0.2995 -0.10393,-0.072 -0.26927,-0.091 -0.38103,-0.082 -0.11369,0.01 -0.20524,0.062 -0.27232,0.1634 -0.0703,0.1019 -0.16325,0.314 -0.16325,0.4356 -0.004,0.1156 0.0751,0.1883 0.13607,0.2449 0.0511,0.049 0.13215,0.073 0.1906,0.082 0.0551,0 0.10036,-0.039 0.13608,-0.027 0.0314,0.01 0.0704,0.035 0.0817,0.082 -0.0253,0.03 -0.036,0.06 -0.0273,0.082 0.006,0.022 0.0135,0.015 0.0544,0.027 l 0.29949,0.5716 -5.25408,2.3956 c -0.0784,-0.2469 -0.25455,-0.4996 -0.51719,-0.7622 -0.27249,-0.2705 -0.65998,-0.6364 -1.06174,-0.8167 -0.40961,-0.1803 -0.90651,-0.2918 -1.33389,-0.2722 -0.42929,0.01 -0.82522,0.1579 -1.22507,0.3539 -0.407699,0.1999 -0.903809,0.6303 -1.197819,0.8439 -0.29793,0.2038 -0.36587,0.3086 -0.57172,0.3811 -0.20977,0.064 -0.41614,0.079 -0.65336,0.027 l -0.21778,0.3267 c 0.17048,0.1372 0.26648,0.2942 0.27232,0.4627 0,0.1686 -0.0409,0.3524 -0.24505,0.5445 -0.2136,0.1823 -0.6057,0.4306 -0.98003,0.5717 -0.37441,0.1412 -0.85467,0.2644 -1.2250802,0.2723 -0.37633,0 -0.78768,-0.098 -1.00721,-0.2723 -0.21944,-0.1762 -0.31517,-0.4445 -0.29949,-0.7895 l -0.35386,-0.027 c -0.0549,0.1647 -0.16011,0.3103 -0.32667,0.4083 -0.16273,0.092 -0.2535,0.093 -0.65336,0.1906 -0.41361,0.09 -1.20887,0.195 -1.76945,0.3811 -0.56449,0.1843 -1.13796,0.394 -1.57902,0.735 -0.4467999,0.3391 -0.8110299,0.7618 -1.0343799,1.3067 -0.22162,0.543 -0.28974,1.3762 -0.2995,1.9329 -0.0218,0.5507 0.046,0.9691 0.16334,1.3611 0.11368,0.3861 0.29383,0.6727 0.51719,0.9256 -0.0705,0.1313 -0.0899,0.2691 -0.0272,0.4083 0.061,0.1352 0.18703,0.2925 0.3811199,0.4356 0.0999,0.3488 0.34506,0.7124 0.73498,1.1162 0.31221,0.3166 0.7882,0.7242 1.25234,1.0345 -0.089,-0.013 -0.18485,0.012 -0.27231,0.055 -0.23512,0.1137 -0.33138,0.3909 -0.21779,0.6261 0.11369,0.2332 0.39297,0.3316 0.62618,0.2178 0.2352,-0.1137 0.33146,-0.3908 0.21778,-0.6261 -0.0142,-0.03 -0.0355,-0.057 -0.0545,-0.082 0.0176,0.01 0.0369,0.018 0.0545,0.027 0.56258,0.2862 1.17568,0.4647 1.76945,0.4628 0.59586,-0.014 1.24616,-0.2273 1.76954,-0.49 0.51353,-0.2666 0.9421302,-0.75 1.3067002,-1.0617 0.34889,-0.3097 0.55013,-0.6228 0.81669,-0.7895 0.27049,-0.1725 0.52486,-0.2606 0.78943,-0.245 l 0.1906,-0.2722 c -0.13912,-0.051 -0.23477,-0.1428 -0.2995,-0.2722 -0.0705,-0.1373 -0.13624,-0.2978 -0.0816,-0.5173 0.0505,-0.2214 0.16343,-0.5208 0.40831,-0.7894 0.24304,-0.2803 0.73271,-0.6401 1.03456,-0.844 0.29583,-0.2038 0.53113,-0.3009 0.73497,-0.3538 0.198009,-0.061 0.298109,-0.1076 0.462839,0 0.16255,0.1097 0.31352,0.3144 0.48993,0.6261 l 0.40838,0.027 c 0.0662,-0.1548 0.14287,-0.2908 0.27223,-0.4084 0.12545,-0.1157 0.21761,-0.2054 0.49002,-0.2994 0.27441,-0.094 0.7416,-0.1311 1.14336,-0.2723 0.39593,-0.1528 0.89187,-0.348 1.22508,-0.5989 0.32537,-0.2528 0.55666,-0.561 0.73498,-0.9256 0.17832,-0.3763 0.29558,-0.8226 0.29941,-1.3067 -0.009,-0.4939 -0.11299,-1.0007 -0.32668,-1.5789 l 5.49914,-2.9945 0.27214,0.5989 c 0.0453,0.014 0.08,0.049 0.0817,0.082 0,0.03 -0.039,0.056 -0.0817,0.1089 0.0845,0.047 0.17649,0.1197 0.24505,0.2177 0.0706,0.098 0.0986,0.3126 0.16334,0.3812 0.0549,0.059 0.13964,0.02 0.1906,0 0.047,-0.025 0.11673,-0.038 0.10889,-0.1089 -0.0158,-0.071 -0.1534,-0.1877 -0.1906,-0.2994 -0.0392,-0.1196 -0.0342,-0.2497 -0.0272,-0.4084 -0.041,0 -0.0634,-0.01 -0.0817,-0.027 -0.0174,-0.017 -0.0333,-0.053 -0.0272,-0.082 l -0.32668,-0.6534 c 0.10471,-0.065 0.21047,-0.1244 0.32668,-0.1905 0.0271,-0.016 0.054,-0.038 0.0816,-0.055 l 0.21778,0.4901 c -0.0218,0.037 -0.0412,0.064 -0.0273,0.082 0.01,0.019 0.0408,0.027 0.0817,0.027 0.0279,0.041 0.0394,0.075 0.0272,0.1089 -0.0218,0.031 -0.0771,0.031 -0.10889,0.082 -0.0374,0.047 -0.0623,0.1122 -0.0544,0.1906 0,0.077 0.0188,0.1978 0.10889,0.2723 0.0921,0.064 0.30812,0.1535 0.43557,0.1633 0.12144,0 0.22101,-0.058 0.29941,-0.1362 0.074,-0.08 0.15149,-0.2401 0.16334,-0.3538 0.009,-0.1215 -0.0285,-0.2561 -0.10889,-0.3267 -0.0801,-0.067 -0.29314,-0.066 -0.35386,-0.082 -0.0688,-0.019 -0.0804,-0.037 -0.0273,-0.055 0.009,-0.02 0.0174,-0.038 0,-0.055 -0.0157,-0.016 -0.046,-0.04 -0.0816,-0.055 l -0.27232,-0.5172 c 0.0958,-0.052 0.16944,-0.1107 0.27232,-0.1634 0.0314,0.039 0.0853,0.054 0.16325,0.027 0.0767,-0.031 0.17989,-0.091 0.2995,-0.1905 0.027,0.1392 0.0965,0.2215 0.1906,0.245 0.0941,0.012 0.28521,-0.037 0.35386,-0.1089 0.0645,-0.077 0.061,-0.1914 0,-0.3267 0.1196,-0.057 0.18842,-0.1025 0.21778,-0.1633 0.0253,-0.064 0.0135,-0.1219 -0.0545,-0.1905 0.14505,0 0.23329,-0.054 0.24505,-0.1634 0,-0.1176 -0.0689,-0.4116 -0.16342,-0.49 -0.0902,-0.077 -0.22824,-0.061 -0.38104,0.055 -0.0436,-0.094 -0.0637,-0.1477 -0.13616,-0.1633 -0.0706,-0.02 -0.1703,0 -0.27223,0.055 -0.0427,-0.1215 -0.081,-0.1923 -0.16333,-0.2177 -0.0845,-0.025 -0.2542,-0.01 -0.32668,0.055 -0.0784,0.044 -0.10105,0.1433 -0.10889,0.2178 -0.009,0.074 0.0146,0.1472 0.0816,0.2178 -0.10968,0.016 -0.18608,0.027 -0.24497,0.082 -0.061,0.053 -0.10314,0.1257 -0.10889,0.2178 0.01,-0.037 -0.1318,0.01 -0.43557,0.1361 -0.035,0.015 -0.12483,0.038 -0.16333,0.055 l -0.35395,-0.7078 c -0.0278,-0.019 -0.0544,-0.058 -0.0544,-0.082 -0.004,-0.024 0.0308,-0.054 0.0544,-0.082 -0.12927,-0.094 -0.2332,-0.1683 -0.29941,-0.2722 -0.0706,-0.1078 -0.0935,-0.2761 -0.13615,-0.3267 -0.0265,-0.025 -0.051,-0.032 -0.0816,-0.027 z"
       id="path7-2-7"
       inkscape:connector-curvature="0" />
  </g>
</svg>
