<?xml version="1.0" encoding="UTF-8" standalone="no"?>
<!-- Created with Inkscape (http://www.inkscape.org/) -->

<svg
   xmlns:dc="http://purl.org/dc/elements/1.1/"
   xmlns:cc="http://creativecommons.org/ns#"
   xmlns:rdf="http://www.w3.org/1999/02/22-rdf-syntax-ns#"
   xmlns:svg="http://www.w3.org/2000/svg"
   xmlns="http://www.w3.org/2000/svg"
   xmlns:sodipodi="http://sodipodi.sourceforge.net/DTD/sodipodi-0.dtd"
   xmlns:inkscape="http://www.inkscape.org/namespaces/inkscape"
   width="30"
   height="30"
   id="svg2"
   sodipodi:version="0.32"
   inkscape:version="0.48.4 r9939"
   sodipodi:docname="waning_gibbous_moon.svg"
   inkscape:output_extension="org.inkscape.output.svg.inkscape"
   version="1.1">
  <defs
     id="defs4" />
  <sodipodi:namedview
     id="base"
     pagecolor="#ffffff"
     bordercolor="#666666"
     borderopacity="1.0"
     inkscape:pageopacity="0.0"
     inkscape:pageshadow="2"
     inkscape:zoom="10.276087"
     inkscape:cx="15.344828"
     inkscape:cy="14.482759"
     inkscape:document-units="px"
     inkscape:current-layer="layer1"
     inkscape:window-width="656"
     inkscape:window-height="1029"
     inkscape:window-x="0"
     inkscape:window-y="19"
     showgrid="false"
     inkscape:window-maximized="0" />
  <metadata
     id="metadata7">
    <rdf:RDF>
      <cc:Work
         rdf:about="">
        <dc:format>image/svg+xml</dc:format>
        <dc:type
           rdf:resource="http://purl.org/dc/dcmitype/StillImage" />
        <dc:title></dc:title>
      </cc:Work>
    </rdf:RDF>
  </metadata>
  <g
     inkscape:label="Capa 1"
     inkscape:groupmode="layer"
     id="layer1"
     transform="translate(0,-1022.3622)">
    <path
       sodipodi:type="arc"
       style="color:#000000;fill:#1a1a1a;stroke:#d4d4d4;stroke-width:1.02777779;stroke-opacity:1;marker:none;visibility:visible;display:inline;overflow:visible;enable-background:accumulate"
       id="path16617-6-6"
       sodipodi:cx="15.16226"
       sodipodi:cy="16.56851"
       sodipodi:rx="14.008413"
       sodipodi:ry="14.008413"
       d="m 29.170673,16.56851 a 14.008413,14.008413 0 1 1 -28.0168263,0 14.008413,14.008413 0 1 1 28.0168263,0 z"
       transform="matrix(0.97297297,0,0,0.97297297,330.50795,953.63241)" />
    <path
       style="fill:#1a1a1a;stroke:#d4d4d4;stroke-width:1px;stroke-linecap:butt;stroke-linejoin:miter;stroke-opacity:1"
       d="m 345.29648,957.89011 0,11.863 0,0"
       id="path16623-6-2"
       inkscape:connector-curvature="0"
       inkscape:transform-center-y="-5.9314904" />
    <path
       style="fill:#1a1a1a;stroke:#d4d4d4;stroke-width:1px;stroke-linecap:butt;stroke-linejoin:miter;stroke-opacity:1"
       d="m 357.15947,969.75311 -1.70877,0 0,0"
       id="path16623-4-2-0"
       inkscape:connector-curvature="0"
       inkscape:transform-center-x="-0.854382" />
    <path
       style="fill:#1a1a1a;stroke:#d4d4d4;stroke-width:0.99999994px;stroke-linecap:butt;stroke-linejoin:miter;stroke-opacity:1"
       d="m 345.29648,981.61611 0,-2.0181 0,0"
       id="path16623-4-3-9-0"
       inkscape:connector-curvature="0"
       inkscape:transform-center-y="1.0091015" />
    <path
       style="fill:#1a1a1a;stroke:#d4d4d4;stroke-width:1px;stroke-linecap:butt;stroke-linejoin:miter;stroke-opacity:1"
       d="m 333.43348,969.75311 11.863,0 0,0"
       id="path16623-4-3-4-1-0"
       inkscape:connector-curvature="0"
       inkscape:transform-center-x="5.9315" />
    <path
       inkscape:connector-curvature="0"
       sodipodi:nodetypes="cccccccccccccc"
       id="path9518-0-7"
       d="m 14.999994,1025.9915 -11.2422196,9.9235 2.2484301,0 0,12.8177 6.7453475,0 0,-7.5644 4.651059,0 1.3e-5,7.5644 6.591159,0 0,-12.8177 2.248444,0 -11.242237,-9.9235 0,0 0,0 z"
       style="font-size:12px;fill:none;stroke:none" />
    <path
       inkscape:connector-curvature="0"
       style="color:#000000;fill:#1a1a1a;fill-opacity:1;fill-rule:nonzero;stroke:none;stroke-width:3;marker:none;visibility:visible;display:inline;overflow:visible;enable-background:accumulate"
       d="m 15.37505,1023.5653 c -1.00993,0 -1.83339,0.588 -2.25,1.4375 -0.46781,-0.612 -1.23269,-1.0312 -2.0625,-1.0312 -1.4139098,0 -2.5624998,1.1486 -2.5624998,2.5625 0,0.1563 0.0357,0.3202 0.0625,0.4687 -0.12807,-0.021 -0.241,-0.063 -0.375,-0.063 -1.33425,0 -2.4375,1.0721 -2.4375,2.4063 0,1.3343 1.10325,2.4375 2.4375,2.4375 0.18754,0 0.38724,-0.02 0.5625,-0.063 0.45922,0.8057 1.3188098,1.3437 2.3124998,1.3437 0.60764,0 1.12108,-0.2171 1.5625,-0.5625 0.19255,1.3367 0.20833,2.6645 0.0937,4 l -1.09375,0 C 9.9574802,1042.5902 5.7277402,1047.013 1.5e-7,1050.9716 l 0,0.1875 L 30,1051.1281 l 0,-0.1875 c -5.00647,-3.6828 -9.32716,-7.5485 -11.4375,-14.4375 l -1.6875,0 c -0.0879,-1.3351 -0.1453,-2.6536 0,-3.9375 0.1721,-0.16 0.37632,-0.3301 0.5,-0.5312 0.42225,0.5424 1.07193,0.9062 1.8125,0.9062 1.20048,0 2.20198,-0.9221 2.3125,-2.0937 0.15689,0.034 0.27032,0.063 0.4375,0.063 1.25458,0 2.3125,-1.0267 2.3125,-2.2813 0,-1.2546 -1.05792,-2.25 -2.3125,-2.25 -0.0223,0 -0.0404,-7e-4 -0.0625,0 -0.1277,-1.1738 -1.10472,-2.0937 -2.3125,-2.0937 -0.72731,0 -1.38261,0.3238 -1.8125,0.8437 -0.38865,-0.9189 -1.31458,-1.5625 -2.375,-1.5625 z m -2,4.0938 c 0.009,0.012 -0.009,0.02 0,0.031 -0.021,7e-4 -0.0416,-9e-4 -0.0625,0 0.006,-0.013 0.0562,-0.018 0.0625,-0.031 z m -1.3125,9.3437 5.75,0 c 0.37471,1.0724 0.80258,2.0353 1.25,2.9375 l 0,1.6563 -1.875,-3.4375 -0.375,4 -1.75,-3.4375 -1.5,4.6562 -0.5,-4.4062 -1.6875,3.4375 -0.375,-2.4688 c 0.40945,-0.8995 0.75398,-1.8685 1.0625,-2.9375 z"
       id="path13625-3" />
  </g>
</svg>
