<?xml version="1.0" encoding="UTF-8" standalone="no"?>
<!-- Created with Inkscape (http://www.inkscape.org/) -->

<svg
   xmlns:dc="http://purl.org/dc/elements/1.1/"
   xmlns:cc="http://creativecommons.org/ns#"
   xmlns:rdf="http://www.w3.org/1999/02/22-rdf-syntax-ns#"
   xmlns:svg="http://www.w3.org/2000/svg"
   xmlns="http://www.w3.org/2000/svg"
   xmlns:sodipodi="http://sodipodi.sourceforge.net/DTD/sodipodi-0.dtd"
   xmlns:inkscape="http://www.inkscape.org/namespaces/inkscape"
   width="30"
   height="30"
   id="svg2"
   sodipodi:version="0.32"
   inkscape:version="0.48.4 r9939"
   sodipodi:docname="laptop.svg"
   inkscape:output_extension="org.inkscape.output.svg.inkscape"
   version="1.1">
  <defs
     id="defs4" />
  <sodipodi:namedview
     id="base"
     pagecolor="#ffffff"
     bordercolor="#666666"
     borderopacity="1.0"
     inkscape:pageopacity="0.0"
     inkscape:pageshadow="2"
     inkscape:zoom="10.276087"
     inkscape:cx="15.344828"
     inkscape:cy="14.482759"
     inkscape:document-units="px"
     inkscape:current-layer="layer1"
     inkscape:window-width="656"
     inkscape:window-height="1029"
     inkscape:window-x="0"
     inkscape:window-y="19"
     showgrid="false"
     inkscape:window-maximized="0" />
  <metadata
     id="metadata7">
    <rdf:RDF>
      <cc:Work
         rdf:about="">
        <dc:format>image/svg+xml</dc:format>
        <dc:type
           rdf:resource="http://purl.org/dc/dcmitype/StillImage" />
        <dc:title></dc:title>
      </cc:Work>
    </rdf:RDF>
  </metadata>
  <g
     inkscape:label="Capa 1"
     inkscape:groupmode="layer"
     id="layer1"
     transform="translate(0,-1022.3622)">
    <path
       sodipodi:type="arc"
       style="color:#000000;fill:#1a1a1a;stroke:#d4d4d4;stroke-width:1.02777779;stroke-opacity:1;marker:none;visibility:visible;display:inline;overflow:visible;enable-background:accumulate"
       id="path16617-6-6"
       sodipodi:cx="15.16226"
       sodipodi:cy="16.56851"
       sodipodi:rx="14.008413"
       sodipodi:ry="14.008413"
       d="m 29.170673,16.56851 a 14.008413,14.008413 0 1 1 -28.0168263,0 14.008413,14.008413 0 1 1 28.0168263,0 z"
       transform="matrix(0.97297297,0,0,0.97297297,330.50795,953.63241)" />
    <path
       style="fill:#1a1a1a;stroke:#d4d4d4;stroke-width:1px;stroke-linecap:butt;stroke-linejoin:miter;stroke-opacity:1"
       d="m 345.29648,957.89011 0,11.863 0,0"
       id="path16623-6-2"
       inkscape:connector-curvature="0"
       inkscape:transform-center-y="-5.9314904" />
    <path
       style="fill:#1a1a1a;stroke:#d4d4d4;stroke-width:1px;stroke-linecap:butt;stroke-linejoin:miter;stroke-opacity:1"
       d="m 357.15947,969.75311 -1.70877,0 0,0"
       id="path16623-4-2-0"
       inkscape:connector-curvature="0"
       inkscape:transform-center-x="-0.854382" />
    <path
       style="fill:#1a1a1a;stroke:#d4d4d4;stroke-width:0.99999994px;stroke-linecap:butt;stroke-linejoin:miter;stroke-opacity:1"
       d="m 345.29648,981.61611 0,-2.0181 0,0"
       id="path16623-4-3-9-0"
       inkscape:connector-curvature="0"
       inkscape:transform-center-y="1.0091015" />
    <path
       style="fill:#1a1a1a;stroke:#d4d4d4;stroke-width:1px;stroke-linecap:butt;stroke-linejoin:miter;stroke-opacity:1"
       d="m 333.43348,969.75311 11.863,0 0,0"
       id="path16623-4-3-4-1-0"
       inkscape:connector-curvature="0"
       inkscape:transform-center-x="5.9315" />
    <path
       inkscape:connector-curvature="0"
       sodipodi:nodetypes="cccccccccccccc"
       id="path9518-0-7"
       d="m 14.999994,1025.9915 -11.2422196,9.9235 2.2484301,0 0,12.8177 6.7453475,0 0,-7.5644 4.651059,0 1.3e-5,7.5644 6.591159,0 0,-12.8177 2.248444,0 -11.242237,-9.9235 0,0 0,0 z"
       style="font-size:12px;fill:none;stroke:none" />
    <path
       inkscape:connector-curvature="0"
       style="color:#000000;fill:#1a1a1a;fill-opacity:1;fill-rule:nonzero;stroke:none;stroke-width:25.16522408;marker:none;visibility:visible;display:inline;overflow:visible;enable-background:accumulate"
       d="m 4.5781252,1025.206 c -0.354765,0 -0.625,0.2702 -0.625,0.625 l 0,23.0625 c 0,0.3548 0.270235,0.625 0.625,0.625 l 20.8124998,0 c 0.354764,0 0.65625,-0.2702 0.65625,-0.625 l 0,-23.0625 c 0,-0.3548 -0.301486,-0.625 -0.65625,-0.625 l -20.8124998,0 z m 0.4062495,1.125 20.0312503,0 0,22.0625 -20.0312503,0 0,-22.0625 z m 11.9687503,1.0625 c -0.579619,0 -1.0625,0.4516 -1.0625,1.0313 0,0.5796 0.482881,1.0625 1.0625,1.0625 0.579619,0 1.03125,-0.4829 1.03125,-1.0625 0,-0.5797 -0.451631,-1.0313 -1.03125,-1.0313 z m 2.90625,0 c -0.579619,0 -1.03125,0.4516 -1.03125,1.0313 0,0.5796 0.451631,1.0625 1.03125,1.0625 0.579619,0 1.0625,-0.4829 1.0625,-1.0625 0,-0.5797 -0.482881,-1.0313 -1.0625,-1.0313 z m 2.9375,0 c -0.579619,0 -1.0625,0.4516 -1.0625,1.0313 0,0.5796 0.482881,1.0625 1.0625,1.0625 0.579619,0 1.0625,-0.4829 1.0625,-1.0625 0,-0.5797 -0.482881,-1.0313 -1.0625,-1.0313 z m -7.875,4.5625 c -1.980416,0 -3.722528,1.0432 -4.71875,2.5938 -0.109803,-0.077 -0.2613523,-0.125 -0.4062503,-0.125 -0.374474,0 -0.65625,0.2817 -0.65625,0.6562 l 0,5.5 c 0,0.3745 0.281776,0.6563 0.65625,0.6563 0.2587223,0 0.5113183,-0.1313 0.6250003,-0.3438 1.020224,1.381 2.651138,2.2813 4.5,2.2813 2.688115,0 4.92501,-1.9118 5.46875,-4.4375 0.370529,-0.1825 0.625,-0.5576 0.625,-1 0,-0.4134 -0.231158,-0.7745 -0.5625,-0.9688 -0.383281,-2.7211 -2.704265,-4.8125 -5.53125,-4.8125 z m 0,1.125 c 2.15813,0 3.941736,1.5025 4.375,3.5313 l -0.78125,0 c -0.620838,0 -1.125,0.5041 -1.125,1.125 0,0.6208 0.504162,1.125 1.125,1.125 l 0.71875,0 c -0.557658,1.8478 -2.283022,3.1875 -4.3125,3.1875 -2.22293,0 -4.077186,-1.5984 -4.4375,-3.7188 l 0,-1.5312 c 0.360314,-2.1202 2.21457,-3.7188 4.4375,-3.7188 z"
       id="rect19790-7" />
  </g>
</svg>
