<?xml version="1.0" encoding="UTF-8" standalone="no"?>
<!-- Created with Inkscape (http://www.inkscape.org/) -->

<svg
   xmlns:dc="http://purl.org/dc/elements/1.1/"
   xmlns:cc="http://creativecommons.org/ns#"
   xmlns:rdf="http://www.w3.org/1999/02/22-rdf-syntax-ns#"
   xmlns:svg="http://www.w3.org/2000/svg"
   xmlns="http://www.w3.org/2000/svg"
   xmlns:sodipodi="http://sodipodi.sourceforge.net/DTD/sodipodi-0.dtd"
   xmlns:inkscape="http://www.inkscape.org/namespaces/inkscape"
   width="30"
   height="30"
   id="svg2"
   sodipodi:version="0.32"
   inkscape:version="0.48.4 r9939"
   sodipodi:docname="trumpet.svg"
   inkscape:output_extension="org.inkscape.output.svg.inkscape"
   version="1.1">
  <defs
     id="defs4" />
  <sodipodi:namedview
     id="base"
     pagecolor="#ffffff"
     bordercolor="#666666"
     borderopacity="1.0"
     inkscape:pageopacity="0.0"
     inkscape:pageshadow="2"
     inkscape:zoom="10.276087"
     inkscape:cx="15.344828"
     inkscape:cy="14.482759"
     inkscape:document-units="px"
     inkscape:current-layer="layer1"
     inkscape:window-width="656"
     inkscape:window-height="1029"
     inkscape:window-x="0"
     inkscape:window-y="19"
     showgrid="false"
     inkscape:window-maximized="0" />
  <metadata
     id="metadata7">
    <rdf:RDF>
      <cc:Work
         rdf:about="">
        <dc:format>image/svg+xml</dc:format>
        <dc:type
           rdf:resource="http://purl.org/dc/dcmitype/StillImage" />
        <dc:title></dc:title>
      </cc:Work>
    </rdf:RDF>
  </metadata>
  <g
     inkscape:label="Capa 1"
     inkscape:groupmode="layer"
     id="layer1"
     transform="translate(0,-1022.3622)">
    <path
       sodipodi:type="arc"
       style="color:#000000;fill:#1a1a1a;stroke:#d4d4d4;stroke-width:1.02777779;stroke-opacity:1;marker:none;visibility:visible;display:inline;overflow:visible;enable-background:accumulate"
       id="path16617-6-6"
       sodipodi:cx="15.16226"
       sodipodi:cy="16.56851"
       sodipodi:rx="14.008413"
       sodipodi:ry="14.008413"
       d="m 29.170673,16.56851 a 14.008413,14.008413 0 1 1 -28.0168263,0 14.008413,14.008413 0 1 1 28.0168263,0 z"
       transform="matrix(0.97297297,0,0,0.97297297,330.50795,953.63241)" />
    <path
       style="fill:#1a1a1a;stroke:#d4d4d4;stroke-width:1px;stroke-linecap:butt;stroke-linejoin:miter;stroke-opacity:1"
       d="m 345.29648,957.89011 0,11.863 0,0"
       id="path16623-6-2"
       inkscape:connector-curvature="0"
       inkscape:transform-center-y="-5.9314904" />
    <path
       style="fill:#1a1a1a;stroke:#d4d4d4;stroke-width:1px;stroke-linecap:butt;stroke-linejoin:miter;stroke-opacity:1"
       d="m 357.15947,969.75311 -1.70877,0 0,0"
       id="path16623-4-2-0"
       inkscape:connector-curvature="0"
       inkscape:transform-center-x="-0.854382" />
    <path
       style="fill:#1a1a1a;stroke:#d4d4d4;stroke-width:0.99999994px;stroke-linecap:butt;stroke-linejoin:miter;stroke-opacity:1"
       d="m 345.29648,981.61611 0,-2.0181 0,0"
       id="path16623-4-3-9-0"
       inkscape:connector-curvature="0"
       inkscape:transform-center-y="1.0091015" />
    <path
       style="fill:#1a1a1a;stroke:#d4d4d4;stroke-width:1px;stroke-linecap:butt;stroke-linejoin:miter;stroke-opacity:1"
       d="m 333.43348,969.75311 11.863,0 0,0"
       id="path16623-4-3-4-1-0"
       inkscape:connector-curvature="0"
       inkscape:transform-center-x="5.9315" />
    <path
       inkscape:connector-curvature="0"
       sodipodi:nodetypes="cccccccccccccc"
       id="path9518-0-7"
       d="m 14.999994,1025.9915 -11.2422196,9.9235 2.2484301,0 0,12.8177 6.7453475,0 0,-7.5644 4.651059,0 1.3e-5,7.5644 6.591159,0 0,-12.8177 2.248444,0 -11.242237,-9.9235 0,0 0,0 z"
       style="font-size:12px;fill:none;stroke:none" />
    <path
       id="path16516-0"
       style="fill:#1a1a1a;fill-opacity:1;stroke:none"
       d="m 25.51614,1029.3505 -0.38296,0.1039 c 2.52793,6.7628 0.45435,12.7103 -5.63999,14.5526 -6.20936,1.8773 -11.3462201,1.5646 -15.5737696,-9.0285 l -0.39457,0.1039 c 4.4128695,11.3514 9.6181296,11.2529 16.1308096,9.284 6.42159,-1.9415 8.13993,-8.7158 5.86048,-15.0168 z m -0.84716,0.2206 -20.1228996,5.2453 c 4.0954695,10.4096 8.7375496,10.5748 14.7730396,8.7501 5.96746,-1.8041 7.44954,-8.1377 5.34986,-13.9954 z m -6.20862,3.3304 c 0.0936,0 0.19771,0.015 0.30172,0.024 0.41608,0.068 0.72289,0.3125 0.68469,0.5454 -0.0382,0.2331 -0.40787,0.3585 -0.82394,0.2902 -0.41608,-0.068 -0.72289,-0.3124 -0.68469,-0.5453 0.0286,-0.1749 0.24132,-0.2937 0.52222,-0.3135 z m 2.23974,0.048 c 0.0936,-0.015 0.19771,-0.015 0.30173,0.015 0.41607,0.068 0.72288,0.3126 0.68469,0.5455 -0.0382,0.233 -0.40788,0.37 -0.82395,0.3018 -0.41607,-0.068 -0.72288,-0.3125 -0.68469,-0.5454 0.0286,-0.1749 0.24133,-0.2937 0.52222,-0.3135 z m -7.83331,1.2881 c 0.10685,0.015 0.20127,0.034 0.25531,0.104 0.1441,0.187 -0.0141,0.5551 -0.34815,0.8124 -0.33398,0.2574 -0.72625,0.3147 -0.87036,0.1277 -0.1441,-0.1871 0.0141,-0.5551 0.34814,-0.8123 0.20874,-0.1609 0.43698,-0.2385 0.61506,-0.2322 z m 4.89727,0.094 c 0.15834,0 0.3499,0.047 0.53383,0.1509 0.36786,0.2061 0.56797,0.5367 0.45259,0.7427 -0.11537,0.2061 -0.50251,0.2061 -0.87037,0 -0.36785,-0.206 -0.57957,-0.5366 -0.46419,-0.7427 0.0577,-0.1025 0.1898,-0.1509 0.34814,-0.1509 z m -3.91085,0.7543 c 0.064,0 0.12552,0.015 0.17407,0.047 0.19422,0.1337 0.15853,0.5237 -0.0812,0.8705 -0.23976,0.3469 -0.59491,0.5288 -0.78913,0.3945 -0.19422,-0.1337 -0.15853,-0.5352 0.0812,-0.8819 0.17982,-0.2602 0.42294,-0.4214 0.61506,-0.4294 z m 2.71555,0.1741 c 0.19152,-0.016 0.4491,0.1144 0.66148,0.3482 0.28317,0.3124 0.37222,0.6886 0.19728,0.8471 -0.17493,0.1587 -0.54078,0.034 -0.82395,-0.2785 -0.28316,-0.3124 -0.37222,-0.6885 -0.19728,-0.8471 0.0437,-0.039 0.0986,-0.064 0.16247,-0.07 z m -1.48543,0.3947 c 0.23515,-0.021 0.4495,0.2994 0.48741,0.7194 0.0379,0.4199 -0.1246,0.7795 -0.35976,0.8008 -0.23515,0.021 -0.44949,-0.2996 -0.4874,-0.7196 -0.0379,-0.4199 0.1246,-0.7795 0.35975,-0.8006 z m -4.64196,0.1158 c 0.15665,-0.022 0.2877,0.015 0.35975,0.104 0.1441,0.187 -0.0141,0.5434 -0.34815,0.8008 -0.33398,0.2573 -0.7146501,0.3146 -0.8587601,0.1278 -0.1441,-0.1871 0.003,-0.5434 0.33654,-0.8008 0.1670001,-0.1293 0.3539701,-0.209 0.5106201,-0.2321 z m 9.65528,0.1973 c 0.15834,0 0.34989,0.059 0.53382,0.1625 0.36786,0.206 0.56798,0.5367 0.45259,0.7427 -0.11537,0.2059 -0.50251,0.2061 -0.87036,0 -0.36786,-0.206 -0.57958,-0.5368 -0.4642,-0.7427 0.0577,-0.1025 0.18981,-0.1625 0.34815,-0.1625 z m -7.67084,1.497 c 0.064,0 0.12552,0.015 0.17407,0.048 0.19422,0.1336 0.15853,0.5236 -0.0812,0.8703 -0.23976,0.3468 -0.59491,0.5172 -0.78913,0.3831 -0.19422,-0.1337 -0.15853,-0.5237 0.0812,-0.8705 0.17982,-0.2601 0.42294,-0.4213 0.61506,-0.4293 z m 5.69801,0.048 c 0.19151,-0.018 0.4491,0.1024 0.66147,0.3366 0.28318,0.3123 0.37222,0.7 0.19729,0.8587 -0.17494,0.1585 -0.54078,0.034 -0.82395,-0.2785 -0.28317,-0.3124 -0.37222,-0.7003 -0.19728,-0.8588 0.0437,-0.039 0.0986,-0.052 0.16247,-0.058 z m -2.95926,0.3829 c 0.23516,-0.021 0.46111,0.2996 0.49902,0.7195 0.0379,0.42 -0.1246,0.7796 -0.35976,0.8008 -0.23515,0.021 -0.4611,-0.2996 -0.49901,-0.7195 -0.0379,-0.4199 0.1246,-0.7796 0.35975,-0.8008 z"
       inkscape:connector-curvature="0" />
  </g>
</svg>
