<?xml version="1.0" encoding="UTF-8" standalone="no"?>
<!-- Created with Inkscape (http://www.inkscape.org/) -->

<svg
   xmlns:dc="http://purl.org/dc/elements/1.1/"
   xmlns:cc="http://creativecommons.org/ns#"
   xmlns:rdf="http://www.w3.org/1999/02/22-rdf-syntax-ns#"
   xmlns:svg="http://www.w3.org/2000/svg"
   xmlns="http://www.w3.org/2000/svg"
   xmlns:sodipodi="http://sodipodi.sourceforge.net/DTD/sodipodi-0.dtd"
   xmlns:inkscape="http://www.inkscape.org/namespaces/inkscape"
   width="30"
   height="30"
   id="svg2"
   sodipodi:version="0.32"
   inkscape:version="0.48.4 r9939"
   sodipodi:docname="extinguisher.svg"
   inkscape:output_extension="org.inkscape.output.svg.inkscape"
   version="1.1">
  <defs
     id="defs4" />
  <sodipodi:namedview
     id="base"
     pagecolor="#ffffff"
     bordercolor="#666666"
     borderopacity="1.0"
     inkscape:pageopacity="0.0"
     inkscape:pageshadow="2"
     inkscape:zoom="9.9647651"
     inkscape:cx="14.161105"
     inkscape:cy="12.658297"
     inkscape:document-units="px"
     inkscape:current-layer="layer1"
     inkscape:window-width="698"
     inkscape:window-height="1029"
     inkscape:window-x="0"
     inkscape:window-y="19"
     showgrid="false"
     inkscape:window-maximized="0" />
  <metadata
     id="metadata7">
    <rdf:RDF>
      <cc:Work
         rdf:about="">
        <dc:format>image/svg+xml</dc:format>
        <dc:type
           rdf:resource="http://purl.org/dc/dcmitype/StillImage" />
        <dc:title></dc:title>
      </cc:Work>
    </rdf:RDF>
  </metadata>
  <g
     inkscape:label="Capa 1"
     inkscape:groupmode="layer"
     id="layer1"
     transform="translate(0,-1022.3622)">
    <path
       inkscape:connector-curvature="0"
       style="fill:#1a1a1a;fill-opacity:1;stroke:none"
       d="m 18,1023.5549 c -1.5475,0 -2.8125,1.2339 -2.8125,2.7813 0,1.5475 1.265,2.8125 2.8125,2.8125 1.54756,0 2.8125,-1.265 2.8125,-2.8125 0,-1.5474 -1.26494,-2.7813 -2.8125,-2.7813 z m -5.25,3.0938 c -0.18888,-0.017 -0.37593,0 -0.5625,0.031 -0.21322,0.034 -0.42578,0.1172 -0.625,0.2188 l -6.6875001,3.625 c -0.88925,0.5091 -1.25,1.3826 -1.25,2.2812 l 0,16.0938 c 0,3.0353 4.1562501,3.0312 4.1562501,-0.031 l 0,-13.5937 5,-2.6875 0,2.5312 c 0,0.4867 0.13463,0.7028 0.3125,0.875 l 2.875,3.1563 c 1.28319,1.3104 3.13282,-0.4688 1.96875,-1.7813 l -2.5625,-2.8125 0,-5.3125 c -0.0106,-1.263 -1.30284,-2.4721 -2.625,-2.5937 z m 9.625,1.75 c -0.22993,0 -0.40625,0.1763 -0.40625,0.4062 0,0.2299 0.17632,0.4375 0.40625,0.4375 0.22988,0 0.4375,-0.2076 0.4375,-0.4375 0,-0.2299 -0.20762,-0.4062 -0.4375,-0.4062 z m -1.15625,0.094 c -0.13554,0.057 -0.21875,0.2186 -0.21875,0.375 0,0.2086 0.16643,0.375 0.375,0.375 0.2085,0 0.375,-0.1664 0.375,-0.375 0,-0.2086 -0.1665,-0.375 -0.375,-0.375 -0.0521,0 -0.11107,-0.019 -0.15625,0 z m -0.75,0.3125 c -0.2085,0 -0.375,0.1664 -0.375,0.375 0,0.2086 0.1665,0.375 0.375,0.375 0.20856,0 0.40625,-0.1664 0.40625,-0.375 0,-0.2086 -0.19769,-0.375 -0.40625,-0.375 z m 2.875,0.063 c -0.24143,0 -0.4375,0.1961 -0.4375,0.4375 0,0.2414 0.19607,0.4375 0.4375,0.4375 0.24138,0 0.4375,-0.1961 0.4375,-0.4375 0,-0.2414 -0.19612,-0.4375 -0.4375,-0.4375 z m -1.5625,0.5313 c -0.2085,0 -0.375,0.1664 -0.375,0.375 0,0.2085 0.1665,0.375 0.375,0.375 0.20856,0 0.375,-0.1665 0.375,-0.375 0,-0.2086 -0.16644,-0.375 -0.375,-0.375 z M 19.75,1029.587 c -0.19862,0 -0.34375,0.1763 -0.34375,0.375 0,0.1986 0.14513,0.3437 0.34375,0.3437 0.19863,0 0.375,-0.1451 0.375,-0.3437 0,-0.1987 -0.17637,-0.375 -0.375,-0.375 z m 4.4375,0.063 c -0.2535,0 -0.46875,0.2152 -0.46875,0.4687 0,0.2535 0.21525,0.4688 0.46875,0.4688 0.2535,0 0.4375,-0.2153 0.4375,-0.4688 0,-0.2535 -0.184,-0.4687 -0.4375,-0.4687 z m -1.46875,0.031 c -0.22994,0 -0.4375,0.2076 -0.4375,0.4375 0,0.2299 0.20756,0.4063 0.4375,0.4063 0.22993,0 0.40625,-0.1764 0.40625,-0.4063 0,-0.2299 -0.17632,-0.4375 -0.40625,-0.4375 z m -1.84375,0.094 c -0.19863,0 -0.34375,0.1451 -0.34375,0.3437 0,0.1986 0.14512,0.375 0.34375,0.375 0.19862,0 0.375,-0.1764 0.375,-0.375 0,-0.1986 -0.17638,-0.3437 -0.375,-0.3437 z m 2.5,0.6875 c -0.2535,0 -0.4375,0.2152 -0.4375,0.4687 0,0.2535 0.184,0.4688 0.4375,0.4688 0.25343,0 0.46875,-0.2153 0.46875,-0.4688 0,-0.2535 -0.21532,-0.4687 -0.46875,-0.4687 z m -3.90625,0.094 c -0.18912,0 -0.34375,0.1546 -0.34375,0.3438 0,0.1891 0.15463,0.3437 0.34375,0.3437 0.18919,0 0.34375,-0.1546 0.34375,-0.3437 0,-0.1892 -0.15456,-0.3438 -0.34375,-0.3438 z m 0.90625,0.063 c -0.18919,0 -0.34375,0.1546 -0.34375,0.3438 0,0.1891 0.15456,0.3437 0.34375,0.3437 0.18913,0 0.34375,-0.1546 0.34375,-0.3437 0,-0.1892 -0.15462,-0.3438 -0.34375,-0.3438 z m -0.96875,0.9688 c -0.18913,0 -0.34375,0.1545 -0.34375,0.3437 0,0.1891 0.15462,0.3438 0.34375,0.3438 0.18919,0 0.34375,-0.1547 0.34375,-0.3438 0,-0.1892 -0.15456,-0.3437 -0.34375,-0.3437 z m 0.90625,0.063 c -0.18919,0 -0.34375,0.1545 -0.34375,0.3437 0,0.1891 0.15456,0.3438 0.34375,0.3438 0.18913,0 0.34375,-0.1547 0.34375,-0.3438 0,-0.1892 -0.15462,-0.3437 -0.34375,-0.3437 z M 17.5,1032.62 c -1.14063,0 -1.58337,1.2864 -0.875,2.0938 l 5.34375,5.9687 4.40625,0 0,-8.0312 -8.875,-0.031 z"
       id="path1667-3" />
  </g>
</svg>
