<?xml version="1.0" encoding="UTF-8" standalone="no"?>
<!-- Created with Inkscape (http://www.inkscape.org/) -->

<svg
   xmlns:dc="http://purl.org/dc/elements/1.1/"
   xmlns:cc="http://creativecommons.org/ns#"
   xmlns:rdf="http://www.w3.org/1999/02/22-rdf-syntax-ns#"
   xmlns:svg="http://www.w3.org/2000/svg"
   xmlns="http://www.w3.org/2000/svg"
   xmlns:sodipodi="http://sodipodi.sourceforge.net/DTD/sodipodi-0.dtd"
   xmlns:inkscape="http://www.inkscape.org/namespaces/inkscape"
   width="30"
   height="30"
   id="svg2"
   sodipodi:version="0.32"
   inkscape:version="0.48.4 r9939"
   sodipodi:docname="handicapped_wc.svg"
   inkscape:output_extension="org.inkscape.output.svg.inkscape"
   version="1.1">
  <defs
     id="defs4" />
  <sodipodi:namedview
     id="base"
     pagecolor="#ffffff"
     bordercolor="#666666"
     borderopacity="1.0"
     inkscape:pageopacity="0.0"
     inkscape:pageshadow="2"
     inkscape:zoom="11.6"
     inkscape:cx="15"
     inkscape:cy="15"
     inkscape:document-units="px"
     inkscape:current-layer="layer1"
     inkscape:window-width="698"
     inkscape:window-height="1029"
     inkscape:window-x="0"
     inkscape:window-y="19"
     showgrid="false"
     inkscape:window-maximized="0" />
  <metadata
     id="metadata7">
    <rdf:RDF>
      <cc:Work
         rdf:about="">
        <dc:format>image/svg+xml</dc:format>
        <dc:type
           rdf:resource="http://purl.org/dc/dcmitype/StillImage" />
        <dc:title></dc:title>
      </cc:Work>
    </rdf:RDF>
  </metadata>
  <g
     inkscape:label="Capa 1"
     inkscape:groupmode="layer"
     id="layer1"
     transform="translate(0,-1022.3622)">
    <path
       sodipodi:type="arc"
       style="color:#000000;fill:#1a1a1a;stroke:#d4d4d4;stroke-width:1.02777779;stroke-opacity:1;marker:none;visibility:visible;display:inline;overflow:visible;enable-background:accumulate"
       id="path16617-6-6"
       sodipodi:cx="15.16226"
       sodipodi:cy="16.56851"
       sodipodi:rx="14.008413"
       sodipodi:ry="14.008413"
       d="m 29.170673,16.56851 a 14.008413,14.008413 0 1 1 -28.0168263,0 14.008413,14.008413 0 1 1 28.0168263,0 z"
       transform="matrix(0.97297297,0,0,0.97297297,330.50795,953.63241)" />
    <path
       style="fill:#1a1a1a;stroke:#d4d4d4;stroke-width:1px;stroke-linecap:butt;stroke-linejoin:miter;stroke-opacity:1"
       d="m 345.29648,957.89011 0,11.863 0,0"
       id="path16623-6-2"
       inkscape:connector-curvature="0"
       inkscape:transform-center-y="-5.9314904" />
    <path
       style="fill:#1a1a1a;stroke:#d4d4d4;stroke-width:1px;stroke-linecap:butt;stroke-linejoin:miter;stroke-opacity:1"
       d="m 357.15947,969.75311 -1.70877,0 0,0"
       id="path16623-4-2-0"
       inkscape:connector-curvature="0"
       inkscape:transform-center-x="-0.854382" />
    <path
       style="fill:#1a1a1a;stroke:#d4d4d4;stroke-width:0.99999994px;stroke-linecap:butt;stroke-linejoin:miter;stroke-opacity:1"
       d="m 345.29648,981.61611 0,-2.0181 0,0"
       id="path16623-4-3-9-0"
       inkscape:connector-curvature="0"
       inkscape:transform-center-y="1.0091015" />
    <path
       style="fill:#1a1a1a;stroke:#d4d4d4;stroke-width:1px;stroke-linecap:butt;stroke-linejoin:miter;stroke-opacity:1"
       d="m 333.43348,969.75311 11.863,0 0,0"
       id="path16623-4-3-4-1-0"
       inkscape:connector-curvature="0"
       inkscape:transform-center-x="5.9315" />
    <path
       inkscape:connector-curvature="0"
       sodipodi:nodetypes="cccccccccccccc"
       id="path9518-0-7"
       d="m 14.999994,1025.9915 -11.2422196,9.9235 2.2484301,0 0,12.8177 6.7453475,0 0,-7.5644 4.651059,0 1.3e-5,7.5644 6.591159,0 0,-12.8177 2.248444,0 -11.242237,-9.9235 0,0 0,0 z"
       style="font-size:12px;fill:none;stroke:none" />
    <path
       inkscape:connector-curvature="0"
       style="font-size:40px;font-style:normal;font-variant:normal;font-weight:normal;font-stretch:normal;text-align:start;line-height:125%;writing-mode:lr-tb;text-anchor:start;fill:#1a1a1a;fill-opacity:1;stroke:none;font-family:NPSPICT3;-inkscape-font-specification:NPSPICT3"
       d="m 14.656165,1049.4436 1.917426,0 0,-24.1627 -1.917426,0 0,24.1627 z m -5.7654479,-19.7494 -3.8701731,0 c -0.6034541,1e-4 -1.146195,0.2171 -1.628208,0.6513 -0.362079,0.337 -0.603085,0.7109 -0.723036,1.1216 l -1.664641,5.5336 c -0.0478,0.1206 -0.07179,0.2293 -0.07179,0.3257 0,0.5549 0.277072,0.8324 0.831215,0.8324 0.386357,0 0.639879,-0.2173 0.760567,-0.6514 l 1.51893,-5.0646 0.831216,0 -2.495857,9.0066 2.4241029,0 0,7.0173 c 0,0.6269 0.301349,0.9404 0.9040751,0.9404 0.602708,0 0.904058,-0.3135 0.9040661,-0.9404 l 0,-7.0527 0.90518,0 0,7.089 c -8e-6,0.6028 0.301342,0.9041 0.9040671,0.9041 0.602708,0 0.904058,-0.3013 0.904075,-0.9041 l 0,-7.0536 2.4229968,0 -2.5311768,-9.0066 0.8676408,0 1.518932,5.0646 c 0.120669,0.4341 0.373822,0.6514 0.759461,0.6514 0.554863,0 0.832302,-0.2775 0.83232,-0.8324 -1.8e-5,-0.1208 -0.02399,-0.2292 -0.07179,-0.3257 l -1.664641,-5.5336 c -0.120696,-0.3865 -0.397768,-0.7604 -0.831216,-1.1216 -0.530602,-0.4342 -1.1094009,-0.6512 -1.7363868,-0.6513 l 0,0 z m -1.8445681,-0.3985 c 0.5541361,0 1.0241971,-0.1928 1.4101941,-0.5784 0.385981,-0.3858 0.578971,-0.8439 0.578979,-1.3744 -8e-6,-0.5548 -0.192998,-1.025 -0.578979,-1.4107 -0.385997,-0.3856 -0.856058,-0.5784 -1.4101941,-0.5784 -0.530602,0 -0.988892,0.1928 -1.3748731,0.5784 -0.3859969,0.3857 -0.5789869,0.8559 -0.578979,1.4107 -8e-6,0.5306 0.192983,0.9887 0.578979,1.3744 0.385981,0.3856 0.844271,0.5784 1.3748731,0.5784 l 0,0 z m 16.91999,-0.035 c 0.530561,0 0.988853,-0.193 1.374866,-0.579 0.385962,-0.3859 0.578952,-0.8443 0.578987,-1.3749 -3.5e-5,-0.5541 -0.193025,-1.018 -0.578987,-1.392 -0.386014,-0.3739 -0.844306,-0.5607 -1.374866,-0.5607 -0.530628,0 -0.988731,0.1869 -1.374324,0.5607 -0.385647,0.374 -0.578457,0.8379 -0.57843,1.392 -2.6e-5,0.5306 0.192784,0.989 0.57843,1.3749 0.385593,0.386 0.843696,0.579 1.374324,0.579 l 0,0 z m 2.568709,0.3975 -5.172745,0 c -0.699144,0 -1.295966,0.2471 -1.790477,0.7417 -0.494563,0.4946 -0.741832,1.1035 -0.741806,1.827 l 0,6.0039 c -2.6e-5,0.579 0.265276,0.8687 0.795896,0.8687 0.506282,0 0.759435,-0.2897 0.759461,-0.8687 l 0,-5.8595 0.940501,0 0,15.9158 c -2.6e-5,0.7233 0.361676,1.085 1.085106,1.085 0.723379,0 1.085072,-0.3617 1.085106,-1.085 l 0,-9.2241 0.940501,0 0,9.2241 c -3.4e-5,0.7233 0.361668,1.085 1.085098,1.085 0.747664,0 1.121505,-0.3617 1.121539,-1.085 l 0,-15.9158 0.904067,0 0,5.8595 c -2.6e-5,0.6026 0.253127,0.904 0.759469,0.904 0.50701,0 0.760532,-0.3014 0.760567,-0.904 l 0,-5.9686 c -3.5e-5,-0.6992 -0.235164,-1.3079 -0.70538,-1.8264 -0.470276,-0.5184 -1.079247,-0.7776 -1.826903,-0.7776 l 0,0 z"
       id="flowRoot3192-5"
       sodipodi:nodetypes="ccccccccccssccccccsccccsccccccssccccccssssssscccsccssscccccsccsccccsccccsccccsccccc" />
  </g>
</svg>
