<?xml version="1.0" encoding="UTF-8" standalone="no"?>
<!-- Created with Inkscape (http://www.inkscape.org/) -->

<svg
   xmlns:dc="http://purl.org/dc/elements/1.1/"
   xmlns:cc="http://creativecommons.org/ns#"
   xmlns:rdf="http://www.w3.org/1999/02/22-rdf-syntax-ns#"
   xmlns:svg="http://www.w3.org/2000/svg"
   xmlns="http://www.w3.org/2000/svg"
   xmlns:sodipodi="http://sodipodi.sourceforge.net/DTD/sodipodi-0.dtd"
   xmlns:inkscape="http://www.inkscape.org/namespaces/inkscape"
   width="30"
   height="30"
   id="svg2"
   sodipodi:version="0.32"
   inkscape:version="0.48.4 r9939"
   sodipodi:docname="sink.svg"
   inkscape:output_extension="org.inkscape.output.svg.inkscape"
   version="1.1">
  <defs
     id="defs4" />
  <sodipodi:namedview
     id="base"
     pagecolor="#ffffff"
     bordercolor="#666666"
     borderopacity="1.0"
     inkscape:pageopacity="0.0"
     inkscape:pageshadow="2"
     inkscape:zoom="10.276087"
     inkscape:cx="15.344828"
     inkscape:cy="14.482759"
     inkscape:document-units="px"
     inkscape:current-layer="layer1"
     inkscape:window-width="656"
     inkscape:window-height="1029"
     inkscape:window-x="0"
     inkscape:window-y="19"
     showgrid="false"
     inkscape:window-maximized="0" />
  <metadata
     id="metadata7">
    <rdf:RDF>
      <cc:Work
         rdf:about="">
        <dc:format>image/svg+xml</dc:format>
        <dc:type
           rdf:resource="http://purl.org/dc/dcmitype/StillImage" />
        <dc:title></dc:title>
      </cc:Work>
    </rdf:RDF>
  </metadata>
  <g
     inkscape:label="Capa 1"
     inkscape:groupmode="layer"
     id="layer1"
     transform="translate(0,-1022.3622)">
    <path
       sodipodi:type="arc"
       style="color:#000000;fill:#1a1a1a;stroke:#d4d4d4;stroke-width:1.02777779;stroke-opacity:1;marker:none;visibility:visible;display:inline;overflow:visible;enable-background:accumulate"
       id="path16617-6-6"
       sodipodi:cx="15.16226"
       sodipodi:cy="16.56851"
       sodipodi:rx="14.008413"
       sodipodi:ry="14.008413"
       d="m 29.170673,16.56851 a 14.008413,14.008413 0 1 1 -28.0168263,0 14.008413,14.008413 0 1 1 28.0168263,0 z"
       transform="matrix(0.97297297,0,0,0.97297297,330.50795,953.63241)" />
    <path
       style="fill:#1a1a1a;stroke:#d4d4d4;stroke-width:1px;stroke-linecap:butt;stroke-linejoin:miter;stroke-opacity:1"
       d="m 345.29648,957.89011 0,11.863 0,0"
       id="path16623-6-2"
       inkscape:connector-curvature="0"
       inkscape:transform-center-y="-5.9314904" />
    <path
       style="fill:#1a1a1a;stroke:#d4d4d4;stroke-width:1px;stroke-linecap:butt;stroke-linejoin:miter;stroke-opacity:1"
       d="m 357.15947,969.75311 -1.70877,0 0,0"
       id="path16623-4-2-0"
       inkscape:connector-curvature="0"
       inkscape:transform-center-x="-0.854382" />
    <path
       style="fill:#1a1a1a;stroke:#d4d4d4;stroke-width:0.99999994px;stroke-linecap:butt;stroke-linejoin:miter;stroke-opacity:1"
       d="m 345.29648,981.61611 0,-2.0181 0,0"
       id="path16623-4-3-9-0"
       inkscape:connector-curvature="0"
       inkscape:transform-center-y="1.0091015" />
    <path
       style="fill:#1a1a1a;stroke:#d4d4d4;stroke-width:1px;stroke-linecap:butt;stroke-linejoin:miter;stroke-opacity:1"
       d="m 333.43348,969.75311 11.863,0 0,0"
       id="path16623-4-3-4-1-0"
       inkscape:connector-curvature="0"
       inkscape:transform-center-x="5.9315" />
    <path
       inkscape:connector-curvature="0"
       sodipodi:nodetypes="cccccccccccccc"
       id="path9518-0-7"
       d="m 14.999994,1025.9915 -11.2422196,9.9235 2.2484301,0 0,12.8177 6.7453475,0 0,-7.5644 4.651059,0 1.3e-5,7.5644 6.591159,0 0,-12.8177 2.248444,0 -11.242237,-9.9235 0,0 0,0 z"
       style="font-size:12px;fill:none;stroke:none" />
    <path
       inkscape:connector-curvature="0"
       style="color:#000000;fill:#1a1a1a;fill-opacity:1;fill-rule:nonzero;stroke:none;stroke-width:1.10000002;marker:none;visibility:visible;display:inline;overflow:visible;enable-background:accumulate"
       d="m 11.328125,1027.5497 c -1.29655,0.7124 -2.3536801,1.7953 -3.0625001,3.0938 -2.05105,3.7573 -0.6636,8.4489 3.0937501,10.5 l 0.1875,-0.375 c -3.5166001,-1.9757 -4.7818501,-6.4184 -2.8437501,-9.9688 0.66055,-1.2101 1.6446901,-2.1971 2.8437501,-2.875 l -0.21875,-0.375 z m 7.34375,0 -0.21875,0.375 c 1.19906,0.6779 2.21445,1.6649 2.875,2.875 1.9381,3.5504 0.6416,7.9931 -2.875,9.9688 l 0.1875,0.375 c 3.75735,-2.0511 5.1448,-6.7427 3.09375,-10.5 -0.70882,-1.2985 -1.76595,-2.3814 -3.0625,-3.0938 z m -6.625,1.3125 c -1.04899,0.5763 -1.92653,1.4182 -2.5000001,2.4688 -1.65943,3.0399 -0.53992,6.8718 2.5000001,8.5312 l 0.1875,-0.3125 c -2.8451401,-1.5984 -3.9117901,-5.19 -2.3437501,-8.0625 0.5344201,-0.979 1.3423901,-1.7953 2.3125001,-2.3437 l -0.15625,-0.2813 z m 5.90625,0 -0.15625,0.2813 c 0.97011,0.5484 1.77808,1.3647 2.3125,2.3437 1.56804,2.8725 0.53264,6.4641 -2.3125,8.0625 l 0.15625,0.3125 c 3.03992,-1.6594 4.15943,-5.4913 2.5,-8.5312 -0.57347,-1.0506 -1.45101,-1.8925 -2.5,-2.4688 z m -5.21875,1.2813 c -0.80143,0.4403 -1.43686,1.1036 -1.875,1.9062 -1.2677901,2.3225 -0.41624,5.2322 1.90625,6.5 l 0.125,-0.2187 c -2.17368,-1.2213 -2.9792301,-3.9617 -1.78125,-6.1563 0.40829,-0.748 1.00883,-1.3622 1.75,-1.7812 l -0.125,-0.25 z m 4.53125,0 -0.125,0.25 c 0.74117,0.419 1.34171,1.0332 1.75,1.7812 1.19798,2.1946 0.42368,4.935 -1.75,6.1563 l 0.125,0.2187 c 2.32249,-1.2678 3.17404,-4.1775 1.90625,-6.5 -0.43814,-0.8026 -1.10482,-1.4659 -1.90625,-1.9062 z m -2.28125,2.9375 c -0.68017,0 -1.21875,0.5698 -1.21875,1.25 0,0.5463 0.35123,0.9951 0.84375,1.1562 l 0,11.2813 c 0,0.2269 0.16107,0.4062 0.375,0.4062 0.21393,0 0.40625,-0.1793 0.40625,-0.4062 l 0,-11.2813 c 0.48915,-0.1631 0.84375,-0.6123 0.84375,-1.1562 0,-0.6802 -0.56984,-1.25 -1.25,-1.25 z"
       id="path28028-0-0-4-8-1-6" />
  </g>
</svg>
