<?xml version="1.0" encoding="UTF-8" standalone="no"?>
<!-- Created with Inkscape (http://www.inkscape.org/) -->

<svg
   xmlns:dc="http://purl.org/dc/elements/1.1/"
   xmlns:cc="http://creativecommons.org/ns#"
   xmlns:rdf="http://www.w3.org/1999/02/22-rdf-syntax-ns#"
   xmlns:svg="http://www.w3.org/2000/svg"
   xmlns="http://www.w3.org/2000/svg"
   xmlns:sodipodi="http://sodipodi.sourceforge.net/DTD/sodipodi-0.dtd"
   xmlns:inkscape="http://www.inkscape.org/namespaces/inkscape"
   width="30"
   height="30"
   id="svg2"
   sodipodi:version="0.32"
   inkscape:version="0.48.4 r9939"
   sodipodi:docname="cherries.svg"
   inkscape:output_extension="org.inkscape.output.svg.inkscape"
   version="1.1">
  <defs
     id="defs4" />
  <sodipodi:namedview
     id="base"
     pagecolor="#ffffff"
     bordercolor="#666666"
     borderopacity="1.0"
     inkscape:pageopacity="0.0"
     inkscape:pageshadow="2"
     inkscape:zoom="10.276087"
     inkscape:cx="15.344828"
     inkscape:cy="14.482759"
     inkscape:document-units="px"
     inkscape:current-layer="layer1"
     inkscape:window-width="656"
     inkscape:window-height="1029"
     inkscape:window-x="0"
     inkscape:window-y="19"
     showgrid="false"
     inkscape:window-maximized="0" />
  <metadata
     id="metadata7">
    <rdf:RDF>
      <cc:Work
         rdf:about="">
        <dc:format>image/svg+xml</dc:format>
        <dc:type
           rdf:resource="http://purl.org/dc/dcmitype/StillImage" />
        <dc:title></dc:title>
      </cc:Work>
    </rdf:RDF>
  </metadata>
  <g
     inkscape:label="Capa 1"
     inkscape:groupmode="layer"
     id="layer1"
     transform="translate(0,-1022.3622)">
    <path
       sodipodi:type="arc"
       style="color:#000000;fill:#1a1a1a;stroke:#d4d4d4;stroke-width:1.02777779;stroke-opacity:1;marker:none;visibility:visible;display:inline;overflow:visible;enable-background:accumulate"
       id="path16617-6-6"
       sodipodi:cx="15.16226"
       sodipodi:cy="16.56851"
       sodipodi:rx="14.008413"
       sodipodi:ry="14.008413"
       d="m 29.170673,16.56851 a 14.008413,14.008413 0 1 1 -28.0168263,0 14.008413,14.008413 0 1 1 28.0168263,0 z"
       transform="matrix(0.97297297,0,0,0.97297297,330.50795,953.63241)" />
    <path
       style="fill:#1a1a1a;stroke:#d4d4d4;stroke-width:1px;stroke-linecap:butt;stroke-linejoin:miter;stroke-opacity:1"
       d="m 345.29648,957.89011 0,11.863 0,0"
       id="path16623-6-2"
       inkscape:connector-curvature="0"
       inkscape:transform-center-y="-5.9314904" />
    <path
       style="fill:#1a1a1a;stroke:#d4d4d4;stroke-width:1px;stroke-linecap:butt;stroke-linejoin:miter;stroke-opacity:1"
       d="m 357.15947,969.75311 -1.70877,0 0,0"
       id="path16623-4-2-0"
       inkscape:connector-curvature="0"
       inkscape:transform-center-x="-0.854382" />
    <path
       style="fill:#1a1a1a;stroke:#d4d4d4;stroke-width:0.99999994px;stroke-linecap:butt;stroke-linejoin:miter;stroke-opacity:1"
       d="m 345.29648,981.61611 0,-2.0181 0,0"
       id="path16623-4-3-9-0"
       inkscape:connector-curvature="0"
       inkscape:transform-center-y="1.0091015" />
    <path
       style="fill:#1a1a1a;stroke:#d4d4d4;stroke-width:1px;stroke-linecap:butt;stroke-linejoin:miter;stroke-opacity:1"
       d="m 333.43348,969.75311 11.863,0 0,0"
       id="path16623-4-3-4-1-0"
       inkscape:connector-curvature="0"
       inkscape:transform-center-x="5.9315" />
    <path
       inkscape:connector-curvature="0"
       sodipodi:nodetypes="cccccccccccccc"
       id="path9518-0-7"
       d="m 14.999994,1025.9915 -11.2422196,9.9235 2.2484301,0 0,12.8177 6.7453475,0 0,-7.5644 4.651059,0 1.3e-5,7.5644 6.591159,0 0,-12.8177 2.248444,0 -11.242237,-9.9235 0,0 0,0 z"
       style="font-size:12px;fill:none;stroke:none" />
    <path
       id="path16483-1"
       style="fill:#1a1a1a;fill-opacity:1;stroke:none"
       d="m 15.288914,1030.979 c 0.18588,0.2089 0.31179,0.4261 0.72343,0.4069 0.45894,-0.022 0.49733,-0.4973 0.49733,-0.4973 l 0.27128,-5.4708 -2.3963,0.4973 c 1.49776,2.3458 1.15221,3.1961 0.90426,5.0639 z m -3.32047,-5.1801 c -1.47739,-0.068 -2.9539098,0.6966 -3.5914397,2.1339 -0.70641,1.5926 -0.0731,3.6014 1.5897299,4.2992 1.3338698,0.5598 3.0142698,0.016 3.5556098,-1.3987 0.41229,-1.0776 -0.0503,-2.435 -1.21804,-2.8153 -0.40928,-0.1333 -0.86212,-0.1029 -1.2494,0.072 -0.38727,0.1746 -0.71324,0.5117 -0.81501,0.9773 -0.0616,0.2818 -0.0167,0.5878 0.12987,0.8473 0.1466,0.2594 0.43396,0.4726 0.78814,0.4572 0.2149,-0.01 0.36089,-0.1103 0.48812,-0.2644 0.0636,-0.077 0.1238,-0.1798 0.11643,-0.3184 -0.007,-0.1386 -0.10605,-0.2725 -0.22391,-0.3406 a 0.2428856,0.24315194 0 0 0 -0.30451,0.3765 c -0.0479,0.03 -0.11612,0.064 -0.0985,0.063 -0.16223,0.01 -0.25857,-0.071 -0.34034,-0.2152 -0.0818,-0.1446 -0.11322,-0.3529 -0.0806,-0.5021 0.0668,-0.3054 0.26939,-0.5137 0.54185,-0.6366 0.27247,-0.1229 0.61303,-0.1473 0.9001,-0.054 l 0.009,0.01 c 0.869,0.2899 1.22382,1.3399 0.90458,2.1743 l -0.005,0.01 c -0.43932,1.1306 -1.81804,1.5749 -2.91077,1.1162 l -0.009,-0.01 c -1.3875997,-0.5891 -1.9252497,-2.2971 -1.3255197,-3.6492 l 0.005,-0.01 c 0.7357299,-1.6495 2.7794997,-2.2776 4.3885497,-1.5332 1.64092,0.7592 2.45273,2.6755 2.00171,4.4112 a 0.24332678,0.24359362 0 0 0 0.4702,0.1256 c 0.50528,-1.9446 -0.39248,-4.0877 -2.23457,-4.9627 l -0.0358,-0.018 c -0.46188,-0.2137 -0.95397,-0.3271 -1.44643,-0.3496 z m 6.892401,6.8349 c 0,0.794 -0.64369,1.4377 -1.437731,1.4377 -0.79403,0 -1.43773,-0.6437 -1.43773,-1.4377 0,-0.794 0.6437,-1.4377 1.43773,-1.4377 0.794041,0 1.437731,0.6437 1.437731,1.4377 z m -3.047451,0 c 0,0.794 -0.64369,1.4377 -1.43773,1.4377 -0.79403,0 -1.43773,-0.6437 -1.43773,-1.4377 0,-0.794 0.6437,-1.4377 1.43773,-1.4377 0.79404,0 1.43773,0.6437 1.43773,1.4377 z m 3.047451,12.188 c 0,0.7941 -0.64369,1.4378 -1.437731,1.4378 -0.79402,0 -1.43773,-0.6437 -1.43773,-1.4378 0,-0.794 0.64371,-1.4377 1.43773,-1.4377 0.794041,0 1.437731,0.6437 1.437731,1.4377 z m -3.047451,0 c 0,0.7941 -0.64369,1.4378 -1.43773,1.4378 -0.79403,0 -1.43773,-0.6437 -1.43773,-1.4378 0,-0.794 0.6437,-1.4377 1.43773,-1.4377 0.79404,0 1.43773,0.6437 1.43773,1.4377 z m 4.571181,-3.0469 c 0,0.794 -0.64369,1.4376 -1.43773,1.4376 -0.79403,0 -1.437731,-0.6436 -1.437731,-1.4376 0,-0.7941 0.643701,-1.4378 1.437731,-1.4378 0.79404,0 1.43773,0.6437 1.43773,1.4378 z m -3.047461,0 c 0,0.794 -0.64369,1.4376 -1.43772,1.4376 -0.79403,0 -1.43773,-0.6436 -1.43773,-1.4376 0,-0.7941 0.6437,-1.4378 1.43773,-1.4378 0.79403,0 1.43772,0.6437 1.43772,1.4378 z m -3.04745,0 c 0,0.794 -0.64369,1.4376 -1.43773,1.4376 -0.79403,0 -1.43773,-0.6436 -1.43773,-1.4376 0,-0.7941 0.6437,-1.4378 1.43773,-1.4378 0.79404,0 1.43773,0.6437 1.43773,1.4378 z m 7.618651,-3.0471 c 0,0.794 -0.6437,1.4378 -1.43773,1.4378 -0.79404,0 -1.43773,-0.6438 -1.43773,-1.4378 0,-0.794 0.64369,-1.4377 1.43773,-1.4377 0.79403,0 1.43773,0.6437 1.43773,1.4377 z m -3.04747,0 c 0,0.794 -0.64369,1.4378 -1.437731,1.4378 -0.79402,0 -1.43773,-0.6438 -1.43773,-1.4378 0,-0.794 0.64371,-1.4377 1.43773,-1.4377 0.794041,0 1.437731,0.6437 1.437731,1.4377 z m -3.047451,0 c 0,0.794 -0.64369,1.4378 -1.43773,1.4378 -0.79403,0 -1.43773,-0.6438 -1.43773,-1.4378 0,-0.794 0.6437,-1.4377 1.43773,-1.4377 0.79404,0 1.43773,0.6437 1.43773,1.4377 z m -3.04746,0 c 0,0.794 -0.64369,1.4378 -1.43773,1.4378 -0.79403,0 -1.4377198,-0.6438 -1.4377198,-1.4378 0,-0.794 0.6436898,-1.4377 1.4377198,-1.4377 0.79404,0 1.43773,0.6437 1.43773,1.4377 z m 7.618641,-3.047 c 0,0.7941 -0.64369,1.4377 -1.43773,1.4377 -0.79403,0 -1.437731,-0.6436 -1.437731,-1.4377 0,-0.794 0.643701,-1.4378 1.437731,-1.4378 0.79404,0 1.43773,0.6438 1.43773,1.4378 z m -3.047451,0 c 0,0.7941 -0.6437,1.4377 -1.43773,1.4377 -0.79403,0 -1.43773,-0.6436 -1.43773,-1.4377 0,-0.794 0.6437,-1.4378 1.43773,-1.4378 0.79403,0 1.43773,0.6438 1.43773,1.4378 z m -3.04746,0 c 0,0.7941 -0.64369,1.4377 -1.43773,1.4377 -0.79403,0 -1.43773,-0.6436 -1.43773,-1.4377 0,-0.794 0.6437,-1.4378 1.43773,-1.4378 0.79404,0 1.43773,0.6438 1.43773,1.4378 z m 3.04745,12.1881 c 0,0.7939 -0.64369,1.4377 -1.43772,1.4377 -0.79403,0 -1.43773,-0.6438 -1.43773,-1.4377 0,-0.7941 0.6437,-1.4378 1.43773,-1.4378 0.79403,0 1.43772,0.6437 1.43772,1.4378 z"
       inkscape:connector-curvature="0" />
  </g>
</svg>
